%TF.GenerationSoftware,KiCad,Pcbnew,(6.0.7)*%
%TF.CreationDate,2022-11-15T16:12:31-05:00*%
%TF.ProjectId,DCA_USMR_sch,4443415f-5553-44d5-925f-7363682e6b69,v1.3*%
%TF.SameCoordinates,Original*%
%TF.FileFunction,Drillmap*%
%TF.FilePolarity,Positive*%
%FSLAX45Y45*%
G04 Gerber Fmt 4.5, Leading zero omitted, Abs format (unit mm)*
G04 Created by KiCad (PCBNEW (6.0.7)) date 2022-11-15 16:12:31*
%MOMM*%
%LPD*%
G01*
G04 APERTURE LIST*
%ADD10C,0.200000*%
%ADD11C,0.100000*%
G04 APERTURE END LIST*
D10*
X20098000Y-9221000D02*
X26702000Y-9221000D01*
X26702000Y-9221000D02*
X26702000Y-16080000D01*
X26702000Y-16080000D02*
X20098000Y-16080000D01*
X20098000Y-16080000D02*
X20098000Y-9221000D01*
D11*
X25869891Y-15336882D02*
X25969891Y-15436882D01*
X25969891Y-15336882D02*
X25869891Y-15436882D01*
X25869891Y-15836882D02*
X25969891Y-15936882D01*
X25969891Y-15836882D02*
X25869891Y-15936882D01*
D10*
X20345619Y-16400476D02*
X20345619Y-16200476D01*
X20393238Y-16200476D01*
X20421810Y-16210000D01*
X20440857Y-16229048D01*
X20450381Y-16248095D01*
X20459905Y-16286190D01*
X20459905Y-16314762D01*
X20450381Y-16352857D01*
X20440857Y-16371905D01*
X20421810Y-16390952D01*
X20393238Y-16400476D01*
X20345619Y-16400476D01*
X20545619Y-16400476D02*
X20545619Y-16267143D01*
X20545619Y-16305238D02*
X20555143Y-16286190D01*
X20564667Y-16276667D01*
X20583714Y-16267143D01*
X20602762Y-16267143D01*
X20669429Y-16400476D02*
X20669429Y-16267143D01*
X20669429Y-16200476D02*
X20659905Y-16210000D01*
X20669429Y-16219524D01*
X20678952Y-16210000D01*
X20669429Y-16200476D01*
X20669429Y-16219524D01*
X20793238Y-16400476D02*
X20774190Y-16390952D01*
X20764667Y-16371905D01*
X20764667Y-16200476D01*
X20898000Y-16400476D02*
X20878952Y-16390952D01*
X20869429Y-16371905D01*
X20869429Y-16200476D01*
X21126571Y-16400476D02*
X21126571Y-16200476D01*
X21193238Y-16343333D01*
X21259905Y-16200476D01*
X21259905Y-16400476D01*
X21440857Y-16400476D02*
X21440857Y-16295714D01*
X21431333Y-16276667D01*
X21412286Y-16267143D01*
X21374190Y-16267143D01*
X21355143Y-16276667D01*
X21440857Y-16390952D02*
X21421810Y-16400476D01*
X21374190Y-16400476D01*
X21355143Y-16390952D01*
X21345619Y-16371905D01*
X21345619Y-16352857D01*
X21355143Y-16333809D01*
X21374190Y-16324286D01*
X21421810Y-16324286D01*
X21440857Y-16314762D01*
X21536095Y-16267143D02*
X21536095Y-16467143D01*
X21536095Y-16276667D02*
X21555143Y-16267143D01*
X21593238Y-16267143D01*
X21612286Y-16276667D01*
X21621810Y-16286190D01*
X21631333Y-16305238D01*
X21631333Y-16362381D01*
X21621810Y-16381428D01*
X21612286Y-16390952D01*
X21593238Y-16400476D01*
X21555143Y-16400476D01*
X21536095Y-16390952D01*
X21717048Y-16381428D02*
X21726571Y-16390952D01*
X21717048Y-16400476D01*
X21707524Y-16390952D01*
X21717048Y-16381428D01*
X21717048Y-16400476D01*
X21717048Y-16276667D02*
X21726571Y-16286190D01*
X21717048Y-16295714D01*
X21707524Y-16286190D01*
X21717048Y-16276667D01*
X21717048Y-16295714D01*
D11*
X19988000Y-16680000D02*
X20088000Y-16780000D01*
X20088000Y-16680000D02*
X19988000Y-16780000D01*
D10*
X20450381Y-16820476D02*
X20336095Y-16820476D01*
X20393238Y-16820476D02*
X20393238Y-16620476D01*
X20374190Y-16649048D01*
X20355143Y-16668095D01*
X20336095Y-16677619D01*
X20536095Y-16801429D02*
X20545619Y-16810952D01*
X20536095Y-16820476D01*
X20526571Y-16810952D01*
X20536095Y-16801429D01*
X20536095Y-16820476D01*
X20669429Y-16620476D02*
X20688476Y-16620476D01*
X20707524Y-16630000D01*
X20717048Y-16639524D01*
X20726571Y-16658571D01*
X20736095Y-16696667D01*
X20736095Y-16744286D01*
X20726571Y-16782381D01*
X20717048Y-16801429D01*
X20707524Y-16810952D01*
X20688476Y-16820476D01*
X20669429Y-16820476D01*
X20650381Y-16810952D01*
X20640857Y-16801429D01*
X20631333Y-16782381D01*
X20621810Y-16744286D01*
X20621810Y-16696667D01*
X20631333Y-16658571D01*
X20640857Y-16639524D01*
X20650381Y-16630000D01*
X20669429Y-16620476D01*
X20859905Y-16620476D02*
X20878952Y-16620476D01*
X20898000Y-16630000D01*
X20907524Y-16639524D01*
X20917048Y-16658571D01*
X20926571Y-16696667D01*
X20926571Y-16744286D01*
X20917048Y-16782381D01*
X20907524Y-16801429D01*
X20898000Y-16810952D01*
X20878952Y-16820476D01*
X20859905Y-16820476D01*
X20840857Y-16810952D01*
X20831333Y-16801429D01*
X20821810Y-16782381D01*
X20812286Y-16744286D01*
X20812286Y-16696667D01*
X20821810Y-16658571D01*
X20831333Y-16639524D01*
X20840857Y-16630000D01*
X20859905Y-16620476D01*
X21050381Y-16620476D02*
X21069429Y-16620476D01*
X21088476Y-16630000D01*
X21098000Y-16639524D01*
X21107524Y-16658571D01*
X21117048Y-16696667D01*
X21117048Y-16744286D01*
X21107524Y-16782381D01*
X21098000Y-16801429D01*
X21088476Y-16810952D01*
X21069429Y-16820476D01*
X21050381Y-16820476D01*
X21031333Y-16810952D01*
X21021810Y-16801429D01*
X21012286Y-16782381D01*
X21002762Y-16744286D01*
X21002762Y-16696667D01*
X21012286Y-16658571D01*
X21021810Y-16639524D01*
X21031333Y-16630000D01*
X21050381Y-16620476D01*
X21202762Y-16820476D02*
X21202762Y-16687143D01*
X21202762Y-16706190D02*
X21212286Y-16696667D01*
X21231333Y-16687143D01*
X21259905Y-16687143D01*
X21278952Y-16696667D01*
X21288476Y-16715714D01*
X21288476Y-16820476D01*
X21288476Y-16715714D02*
X21298000Y-16696667D01*
X21317048Y-16687143D01*
X21345619Y-16687143D01*
X21364667Y-16696667D01*
X21374190Y-16715714D01*
X21374190Y-16820476D01*
X21469429Y-16820476D02*
X21469429Y-16687143D01*
X21469429Y-16706190D02*
X21478952Y-16696667D01*
X21498000Y-16687143D01*
X21526571Y-16687143D01*
X21545619Y-16696667D01*
X21555143Y-16715714D01*
X21555143Y-16820476D01*
X21555143Y-16715714D02*
X21564667Y-16696667D01*
X21583714Y-16687143D01*
X21612286Y-16687143D01*
X21631333Y-16696667D01*
X21640857Y-16715714D01*
X21640857Y-16820476D01*
X22031333Y-16610952D02*
X21859905Y-16868095D01*
X22288476Y-16620476D02*
X22307524Y-16620476D01*
X22326571Y-16630000D01*
X22336095Y-16639524D01*
X22345619Y-16658571D01*
X22355143Y-16696667D01*
X22355143Y-16744286D01*
X22345619Y-16782381D01*
X22336095Y-16801429D01*
X22326571Y-16810952D01*
X22307524Y-16820476D01*
X22288476Y-16820476D01*
X22269429Y-16810952D01*
X22259905Y-16801429D01*
X22250381Y-16782381D01*
X22240857Y-16744286D01*
X22240857Y-16696667D01*
X22250381Y-16658571D01*
X22259905Y-16639524D01*
X22269429Y-16630000D01*
X22288476Y-16620476D01*
X22440857Y-16801429D02*
X22450381Y-16810952D01*
X22440857Y-16820476D01*
X22431333Y-16810952D01*
X22440857Y-16801429D01*
X22440857Y-16820476D01*
X22574190Y-16620476D02*
X22593238Y-16620476D01*
X22612286Y-16630000D01*
X22621809Y-16639524D01*
X22631333Y-16658571D01*
X22640857Y-16696667D01*
X22640857Y-16744286D01*
X22631333Y-16782381D01*
X22621809Y-16801429D01*
X22612286Y-16810952D01*
X22593238Y-16820476D01*
X22574190Y-16820476D01*
X22555143Y-16810952D01*
X22545619Y-16801429D01*
X22536095Y-16782381D01*
X22526571Y-16744286D01*
X22526571Y-16696667D01*
X22536095Y-16658571D01*
X22545619Y-16639524D01*
X22555143Y-16630000D01*
X22574190Y-16620476D01*
X22707524Y-16620476D02*
X22831333Y-16620476D01*
X22764667Y-16696667D01*
X22793238Y-16696667D01*
X22812286Y-16706190D01*
X22821809Y-16715714D01*
X22831333Y-16734762D01*
X22831333Y-16782381D01*
X22821809Y-16801429D01*
X22812286Y-16810952D01*
X22793238Y-16820476D01*
X22736095Y-16820476D01*
X22717048Y-16810952D01*
X22707524Y-16801429D01*
X22926571Y-16820476D02*
X22964667Y-16820476D01*
X22983714Y-16810952D01*
X22993238Y-16801429D01*
X23012286Y-16772857D01*
X23021809Y-16734762D01*
X23021809Y-16658571D01*
X23012286Y-16639524D01*
X23002762Y-16630000D01*
X22983714Y-16620476D01*
X22945619Y-16620476D01*
X22926571Y-16630000D01*
X22917048Y-16639524D01*
X22907524Y-16658571D01*
X22907524Y-16706190D01*
X22917048Y-16725238D01*
X22926571Y-16734762D01*
X22945619Y-16744286D01*
X22983714Y-16744286D01*
X23002762Y-16734762D01*
X23012286Y-16725238D01*
X23021809Y-16706190D01*
X23193238Y-16687143D02*
X23193238Y-16820476D01*
X23145619Y-16610952D02*
X23098000Y-16753809D01*
X23221809Y-16753809D01*
X23288476Y-16620476D02*
X23288476Y-16658571D01*
X23364667Y-16620476D02*
X23364667Y-16658571D01*
X23659905Y-16896667D02*
X23650381Y-16887143D01*
X23631333Y-16858571D01*
X23621809Y-16839524D01*
X23612286Y-16810952D01*
X23602762Y-16763333D01*
X23602762Y-16725238D01*
X23612286Y-16677619D01*
X23621809Y-16649048D01*
X23631333Y-16630000D01*
X23650381Y-16601428D01*
X23659905Y-16591905D01*
X23726571Y-16639524D02*
X23736095Y-16630000D01*
X23755143Y-16620476D01*
X23802762Y-16620476D01*
X23821809Y-16630000D01*
X23831333Y-16639524D01*
X23840857Y-16658571D01*
X23840857Y-16677619D01*
X23831333Y-16706190D01*
X23717048Y-16820476D01*
X23840857Y-16820476D01*
X24078952Y-16820476D02*
X24078952Y-16620476D01*
X24164667Y-16820476D02*
X24164667Y-16715714D01*
X24155143Y-16696667D01*
X24136095Y-16687143D01*
X24107524Y-16687143D01*
X24088476Y-16696667D01*
X24078952Y-16706190D01*
X24288476Y-16820476D02*
X24269428Y-16810952D01*
X24259905Y-16801429D01*
X24250381Y-16782381D01*
X24250381Y-16725238D01*
X24259905Y-16706190D01*
X24269428Y-16696667D01*
X24288476Y-16687143D01*
X24317048Y-16687143D01*
X24336095Y-16696667D01*
X24345619Y-16706190D01*
X24355143Y-16725238D01*
X24355143Y-16782381D01*
X24345619Y-16801429D01*
X24336095Y-16810952D01*
X24317048Y-16820476D01*
X24288476Y-16820476D01*
X24469428Y-16820476D02*
X24450381Y-16810952D01*
X24440857Y-16791905D01*
X24440857Y-16620476D01*
X24621809Y-16810952D02*
X24602762Y-16820476D01*
X24564667Y-16820476D01*
X24545619Y-16810952D01*
X24536095Y-16791905D01*
X24536095Y-16715714D01*
X24545619Y-16696667D01*
X24564667Y-16687143D01*
X24602762Y-16687143D01*
X24621809Y-16696667D01*
X24631333Y-16715714D01*
X24631333Y-16734762D01*
X24536095Y-16753809D01*
X24707524Y-16810952D02*
X24726571Y-16820476D01*
X24764667Y-16820476D01*
X24783714Y-16810952D01*
X24793238Y-16791905D01*
X24793238Y-16782381D01*
X24783714Y-16763333D01*
X24764667Y-16753809D01*
X24736095Y-16753809D01*
X24717048Y-16744286D01*
X24707524Y-16725238D01*
X24707524Y-16715714D01*
X24717048Y-16696667D01*
X24736095Y-16687143D01*
X24764667Y-16687143D01*
X24783714Y-16696667D01*
X24859905Y-16896667D02*
X24869428Y-16887143D01*
X24888476Y-16858571D01*
X24898000Y-16839524D01*
X24907524Y-16810952D01*
X24917048Y-16763333D01*
X24917048Y-16725238D01*
X24907524Y-16677619D01*
X24898000Y-16649048D01*
X24888476Y-16630000D01*
X24869428Y-16601428D01*
X24859905Y-16591905D01*
X25221809Y-16896667D02*
X25212286Y-16887143D01*
X25193238Y-16858571D01*
X25183714Y-16839524D01*
X25174190Y-16810952D01*
X25164667Y-16763333D01*
X25164667Y-16725238D01*
X25174190Y-16677619D01*
X25183714Y-16649048D01*
X25193238Y-16630000D01*
X25212286Y-16601428D01*
X25221809Y-16591905D01*
X25298000Y-16687143D02*
X25298000Y-16820476D01*
X25298000Y-16706190D02*
X25307524Y-16696667D01*
X25326571Y-16687143D01*
X25355143Y-16687143D01*
X25374190Y-16696667D01*
X25383714Y-16715714D01*
X25383714Y-16820476D01*
X25507524Y-16820476D02*
X25488476Y-16810952D01*
X25478952Y-16801429D01*
X25469428Y-16782381D01*
X25469428Y-16725238D01*
X25478952Y-16706190D01*
X25488476Y-16696667D01*
X25507524Y-16687143D01*
X25536095Y-16687143D01*
X25555143Y-16696667D01*
X25564667Y-16706190D01*
X25574190Y-16725238D01*
X25574190Y-16782381D01*
X25564667Y-16801429D01*
X25555143Y-16810952D01*
X25536095Y-16820476D01*
X25507524Y-16820476D01*
X25631333Y-16687143D02*
X25707524Y-16687143D01*
X25659905Y-16620476D02*
X25659905Y-16791905D01*
X25669428Y-16810952D01*
X25688476Y-16820476D01*
X25707524Y-16820476D01*
X25926571Y-16687143D02*
X25926571Y-16887143D01*
X25926571Y-16696667D02*
X25945619Y-16687143D01*
X25983714Y-16687143D01*
X26002762Y-16696667D01*
X26012286Y-16706190D01*
X26021809Y-16725238D01*
X26021809Y-16782381D01*
X26012286Y-16801429D01*
X26002762Y-16810952D01*
X25983714Y-16820476D01*
X25945619Y-16820476D01*
X25926571Y-16810952D01*
X26136095Y-16820476D02*
X26117048Y-16810952D01*
X26107524Y-16791905D01*
X26107524Y-16620476D01*
X26298000Y-16820476D02*
X26298000Y-16715714D01*
X26288476Y-16696667D01*
X26269428Y-16687143D01*
X26231333Y-16687143D01*
X26212286Y-16696667D01*
X26298000Y-16810952D02*
X26278952Y-16820476D01*
X26231333Y-16820476D01*
X26212286Y-16810952D01*
X26202762Y-16791905D01*
X26202762Y-16772857D01*
X26212286Y-16753809D01*
X26231333Y-16744286D01*
X26278952Y-16744286D01*
X26298000Y-16734762D01*
X26364667Y-16687143D02*
X26440857Y-16687143D01*
X26393238Y-16620476D02*
X26393238Y-16791905D01*
X26402762Y-16810952D01*
X26421809Y-16820476D01*
X26440857Y-16820476D01*
X26583714Y-16810952D02*
X26564667Y-16820476D01*
X26526571Y-16820476D01*
X26507524Y-16810952D01*
X26498000Y-16791905D01*
X26498000Y-16715714D01*
X26507524Y-16696667D01*
X26526571Y-16687143D01*
X26564667Y-16687143D01*
X26583714Y-16696667D01*
X26593238Y-16715714D01*
X26593238Y-16734762D01*
X26498000Y-16753809D01*
X26764667Y-16820476D02*
X26764667Y-16620476D01*
X26764667Y-16810952D02*
X26745619Y-16820476D01*
X26707524Y-16820476D01*
X26688476Y-16810952D01*
X26678952Y-16801429D01*
X26669428Y-16782381D01*
X26669428Y-16725238D01*
X26678952Y-16706190D01*
X26688476Y-16696667D01*
X26707524Y-16687143D01*
X26745619Y-16687143D01*
X26764667Y-16696667D01*
X26840857Y-16896667D02*
X26850381Y-16887143D01*
X26869428Y-16858571D01*
X26878952Y-16839524D01*
X26888476Y-16810952D01*
X26898000Y-16763333D01*
X26898000Y-16725238D01*
X26888476Y-16677619D01*
X26878952Y-16649048D01*
X26869428Y-16630000D01*
X26850381Y-16601428D01*
X26840857Y-16591905D01*
M02*
