%TF.GenerationSoftware,KiCad,Pcbnew,(6.0.7)*%
%TF.CreationDate,2022-11-15T16:12:31-05:00*%
%TF.ProjectId,DCA_USMR_sch,4443415f-5553-44d5-925f-7363682e6b69,v1.3*%
%TF.SameCoordinates,Original*%
%TF.FileFunction,Drillmap*%
%TF.FilePolarity,Positive*%
%FSLAX45Y45*%
G04 Gerber Fmt 4.5, Leading zero omitted, Abs format (unit mm)*
G04 Created by KiCad (PCBNEW (6.0.7)) date 2022-11-15 16:12:31*
%MOMM*%
%LPD*%
G01*
G04 APERTURE LIST*
%ADD10C,0.200000*%
%ADD11C,0.040000*%
%ADD12C,0.063000*%
%ADD13C,0.080000*%
G04 APERTURE END LIST*
D10*
X20098000Y-9221000D02*
X26702000Y-9221000D01*
X26702000Y-9221000D02*
X26702000Y-16080000D01*
X26702000Y-16080000D02*
X20098000Y-16080000D01*
X20098000Y-16080000D02*
X20098000Y-9221000D01*
D11*
X20236000Y-10598000D02*
X20276000Y-10638000D01*
X20276000Y-10598000D02*
X20236000Y-10638000D01*
X20238097Y-12708728D02*
X20278097Y-12748728D01*
X20278097Y-12708728D02*
X20238097Y-12748728D01*
X20316110Y-13424822D02*
X20356110Y-13464822D01*
X20356110Y-13424822D02*
X20316110Y-13464822D01*
X20500000Y-13990000D02*
X20540000Y-14030000D01*
X20540000Y-13990000D02*
X20500000Y-14030000D01*
X20590000Y-10743000D02*
X20630000Y-10783000D01*
X20630000Y-10743000D02*
X20590000Y-10783000D01*
X20626881Y-10609141D02*
X20666881Y-10649141D01*
X20666881Y-10609141D02*
X20626881Y-10649141D01*
X20630000Y-14072450D02*
X20670000Y-14112450D01*
X20670000Y-14072450D02*
X20630000Y-14112450D01*
X20663000Y-11098100D02*
X20703000Y-11138100D01*
X20703000Y-11098100D02*
X20663000Y-11138100D01*
X20737165Y-11729660D02*
X20777165Y-11769660D01*
X20777165Y-11729660D02*
X20737165Y-11769660D01*
X20737165Y-12319660D02*
X20777165Y-12359660D01*
X20777165Y-12319660D02*
X20737165Y-12359660D01*
X20751000Y-10783450D02*
X20791000Y-10823450D01*
X20791000Y-10783450D02*
X20751000Y-10823450D01*
X20754000Y-10357000D02*
X20794000Y-10397000D01*
X20794000Y-10357000D02*
X20754000Y-10397000D01*
X20860165Y-11616660D02*
X20900165Y-11656660D01*
X20900165Y-11616660D02*
X20860165Y-11656660D01*
X20861665Y-11425160D02*
X20901665Y-11465160D01*
X20901665Y-11425160D02*
X20861665Y-11465160D01*
X20874000Y-10353000D02*
X20914000Y-10393000D01*
X20914000Y-10353000D02*
X20874000Y-10393000D01*
X21007165Y-11942210D02*
X21047165Y-11982210D01*
X21047165Y-11942210D02*
X21007165Y-11982210D01*
X21013191Y-12152110D02*
X21053191Y-12192110D01*
X21053191Y-12152110D02*
X21013191Y-12192110D01*
X21037165Y-12339660D02*
X21077165Y-12379660D01*
X21077165Y-12339660D02*
X21037165Y-12379660D01*
X21210000Y-11030000D02*
X21250000Y-11070000D01*
X21250000Y-11030000D02*
X21210000Y-11070000D01*
X21260000Y-14000000D02*
X21300000Y-14040000D01*
X21300000Y-14000000D02*
X21260000Y-14040000D01*
X21292899Y-10974163D02*
X21332899Y-11014163D01*
X21332899Y-10974163D02*
X21292899Y-11014163D01*
X21347643Y-11507260D02*
X21387643Y-11547260D01*
X21387643Y-11507260D02*
X21347643Y-11547260D01*
X21351798Y-14039536D02*
X21391798Y-14079536D01*
X21391798Y-14039536D02*
X21351798Y-14079536D01*
X21357212Y-12640328D02*
X21397212Y-12680328D01*
X21397212Y-12640328D02*
X21357212Y-12680328D01*
X21371867Y-10912892D02*
X21411867Y-10952892D01*
X21411867Y-10912892D02*
X21371867Y-10952892D01*
X21400000Y-12550000D02*
X21440000Y-12590000D01*
X21440000Y-12550000D02*
X21400000Y-12590000D01*
X21498775Y-10818775D02*
X21538775Y-10858775D01*
X21538775Y-10818775D02*
X21498775Y-10858775D01*
X21610000Y-12770000D02*
X21650000Y-12810000D01*
X21650000Y-12770000D02*
X21610000Y-12810000D01*
X21626270Y-10896270D02*
X21666270Y-10936270D01*
X21666270Y-10896270D02*
X21626270Y-10936270D01*
X21668744Y-12405954D02*
X21708744Y-12445954D01*
X21708744Y-12405954D02*
X21668744Y-12445954D01*
X21669404Y-12306006D02*
X21709404Y-12346006D01*
X21709404Y-12306006D02*
X21669404Y-12346006D01*
X21697550Y-10739960D02*
X21737550Y-10779960D01*
X21737550Y-10739960D02*
X21697550Y-10779960D01*
X21714163Y-10577101D02*
X21754163Y-10617101D01*
X21754163Y-10577101D02*
X21714163Y-10617101D01*
X21720000Y-12850000D02*
X21760000Y-12890000D01*
X21760000Y-12850000D02*
X21720000Y-12890000D01*
X21739644Y-11772140D02*
X21779644Y-11812140D01*
X21779644Y-11772140D02*
X21739644Y-11812140D01*
X21758850Y-11040000D02*
X21798850Y-11080000D01*
X21798850Y-11040000D02*
X21758850Y-11080000D01*
X21770000Y-10660000D02*
X21810000Y-10700000D01*
X21810000Y-10660000D02*
X21770000Y-10700000D01*
X21780000Y-12450000D02*
X21820000Y-12490000D01*
X21820000Y-12450000D02*
X21780000Y-12490000D01*
X21890000Y-13650000D02*
X21930000Y-13690000D01*
X21930000Y-13650000D02*
X21890000Y-13690000D01*
X22082854Y-12052854D02*
X22122854Y-12092854D01*
X22122854Y-12052854D02*
X22082854Y-12092854D01*
X22140000Y-11760000D02*
X22180000Y-11800000D01*
X22180000Y-11760000D02*
X22140000Y-11800000D01*
X22203481Y-11837202D02*
X22243481Y-11877202D01*
X22243481Y-11837202D02*
X22203481Y-11877202D01*
X22208035Y-12030133D02*
X22248035Y-12070133D01*
X22248035Y-12030133D02*
X22208035Y-12070133D01*
X22231815Y-11933052D02*
X22271815Y-11973052D01*
X22271815Y-11933052D02*
X22231815Y-11973052D01*
X22243784Y-13025459D02*
X22283784Y-13065459D01*
X22283784Y-13025459D02*
X22243784Y-13065459D01*
X22350000Y-11040000D02*
X22390000Y-11080000D01*
X22390000Y-11040000D02*
X22350000Y-11080000D01*
X22360000Y-11240000D02*
X22400000Y-11280000D01*
X22400000Y-11240000D02*
X22360000Y-11280000D01*
X22650000Y-13040000D02*
X22690000Y-13080000D01*
X22690000Y-13040000D02*
X22650000Y-13080000D01*
X22650000Y-13313333D02*
X22690000Y-13353333D01*
X22690000Y-13313333D02*
X22650000Y-13353333D01*
X22650000Y-13586667D02*
X22690000Y-13626667D01*
X22690000Y-13586667D02*
X22650000Y-13626667D01*
X22650000Y-13860000D02*
X22690000Y-13900000D01*
X22690000Y-13860000D02*
X22650000Y-13900000D01*
X22650000Y-14170000D02*
X22690000Y-14210000D01*
X22690000Y-14170000D02*
X22650000Y-14210000D01*
X22650000Y-14443333D02*
X22690000Y-14483333D01*
X22690000Y-14443333D02*
X22650000Y-14483333D01*
X22650000Y-14716667D02*
X22690000Y-14756667D01*
X22690000Y-14716667D02*
X22650000Y-14756667D01*
X22650000Y-14990000D02*
X22690000Y-15030000D01*
X22690000Y-14990000D02*
X22650000Y-15030000D01*
X22660000Y-10770000D02*
X22700000Y-10810000D01*
X22700000Y-10770000D02*
X22660000Y-10810000D01*
X22660000Y-11043333D02*
X22700000Y-11083333D01*
X22700000Y-11043333D02*
X22660000Y-11083333D01*
X22660000Y-11316667D02*
X22700000Y-11356667D01*
X22700000Y-11316667D02*
X22660000Y-11356667D01*
X22660000Y-11590000D02*
X22700000Y-11630000D01*
X22700000Y-11590000D02*
X22660000Y-11630000D01*
X22660000Y-11933333D02*
X22700000Y-11973333D01*
X22700000Y-11933333D02*
X22660000Y-11973333D01*
X22660000Y-12206667D02*
X22700000Y-12246667D01*
X22700000Y-12206667D02*
X22660000Y-12246667D01*
X22660000Y-12480000D02*
X22700000Y-12520000D01*
X22700000Y-12480000D02*
X22660000Y-12520000D01*
X22660000Y-12753333D02*
X22700000Y-12793333D01*
X22700000Y-12753333D02*
X22660000Y-12793333D01*
X22930000Y-13170000D02*
X22970000Y-13210000D01*
X22970000Y-13170000D02*
X22930000Y-13210000D01*
X22930000Y-13443333D02*
X22970000Y-13483333D01*
X22970000Y-13443333D02*
X22930000Y-13483333D01*
X22930000Y-13716667D02*
X22970000Y-13756667D01*
X22970000Y-13716667D02*
X22930000Y-13756667D01*
X22930000Y-13990000D02*
X22970000Y-14030000D01*
X22970000Y-13990000D02*
X22930000Y-14030000D01*
X22930000Y-14300000D02*
X22970000Y-14340000D01*
X22970000Y-14300000D02*
X22930000Y-14340000D01*
X22930000Y-14573333D02*
X22970000Y-14613333D01*
X22970000Y-14573333D02*
X22930000Y-14613333D01*
X22930000Y-14846667D02*
X22970000Y-14886667D01*
X22970000Y-14846667D02*
X22930000Y-14886667D01*
X22930000Y-15120000D02*
X22970000Y-15160000D01*
X22970000Y-15120000D02*
X22930000Y-15160000D01*
X22940000Y-10900000D02*
X22980000Y-10940000D01*
X22980000Y-10900000D02*
X22940000Y-10940000D01*
X22940000Y-11173333D02*
X22980000Y-11213333D01*
X22980000Y-11173333D02*
X22940000Y-11213333D01*
X22940000Y-11446667D02*
X22980000Y-11486667D01*
X22980000Y-11446667D02*
X22940000Y-11486667D01*
X22940000Y-11720000D02*
X22980000Y-11760000D01*
X22980000Y-11720000D02*
X22940000Y-11760000D01*
X22940000Y-12063333D02*
X22980000Y-12103333D01*
X22980000Y-12063333D02*
X22940000Y-12103333D01*
X22940000Y-12336667D02*
X22980000Y-12376667D01*
X22980000Y-12336667D02*
X22940000Y-12376667D01*
X22940000Y-12610000D02*
X22980000Y-12650000D01*
X22980000Y-12610000D02*
X22940000Y-12650000D01*
X22940000Y-12883333D02*
X22980000Y-12923333D01*
X22980000Y-12883333D02*
X22940000Y-12923333D01*
X23180000Y-10252450D02*
X23220000Y-10292450D01*
X23220000Y-10252450D02*
X23180000Y-10292450D01*
X23260000Y-10933333D02*
X23300000Y-10973333D01*
X23300000Y-10933333D02*
X23260000Y-10973333D01*
X23260000Y-11206667D02*
X23300000Y-11246667D01*
X23300000Y-11206667D02*
X23260000Y-11246667D01*
X23260000Y-11480000D02*
X23300000Y-11520000D01*
X23300000Y-11480000D02*
X23260000Y-11520000D01*
X23260000Y-11753333D02*
X23300000Y-11793333D01*
X23300000Y-11753333D02*
X23260000Y-11793333D01*
X23263333Y-12330000D02*
X23303333Y-12370000D01*
X23303333Y-12330000D02*
X23263333Y-12370000D01*
X23310000Y-10162450D02*
X23350000Y-10202450D01*
X23350000Y-10162450D02*
X23310000Y-10202450D01*
X23317724Y-10272714D02*
X23357724Y-10312714D01*
X23357724Y-10272714D02*
X23317724Y-10312714D01*
X23393333Y-12050000D02*
X23433333Y-12090000D01*
X23433333Y-12050000D02*
X23393333Y-12090000D01*
X23412505Y-10157495D02*
X23452505Y-10197495D01*
X23452505Y-10157495D02*
X23412505Y-10197495D01*
X23536667Y-12330000D02*
X23576667Y-12370000D01*
X23576667Y-12330000D02*
X23536667Y-12370000D01*
X23537655Y-9839308D02*
X23577655Y-9879308D01*
X23577655Y-9839308D02*
X23537655Y-9879308D01*
X23540000Y-11063333D02*
X23580000Y-11103333D01*
X23580000Y-11063333D02*
X23540000Y-11103333D01*
X23540000Y-11336667D02*
X23580000Y-11376667D01*
X23580000Y-11336667D02*
X23540000Y-11376667D01*
X23540000Y-11610000D02*
X23580000Y-11650000D01*
X23580000Y-11610000D02*
X23540000Y-11650000D01*
X23540000Y-11883333D02*
X23580000Y-11923333D01*
X23580000Y-11883333D02*
X23540000Y-11923333D01*
X23579437Y-10640563D02*
X23619437Y-10680563D01*
X23619437Y-10640563D02*
X23579437Y-10680563D01*
X23610005Y-10022450D02*
X23650005Y-10062450D01*
X23650005Y-10022450D02*
X23610005Y-10062450D01*
X23630000Y-9877550D02*
X23670000Y-9917550D01*
X23670000Y-9877550D02*
X23630000Y-9917550D01*
X23666667Y-12050000D02*
X23706667Y-12090000D01*
X23706667Y-12050000D02*
X23666667Y-12090000D01*
X23700000Y-10240000D02*
X23740000Y-10280000D01*
X23740000Y-10240000D02*
X23700000Y-10280000D01*
X23810000Y-12330000D02*
X23850000Y-12370000D01*
X23850000Y-12330000D02*
X23810000Y-12370000D01*
X23940000Y-12050000D02*
X23980000Y-12090000D01*
X23980000Y-12050000D02*
X23940000Y-12090000D01*
X24000000Y-10750000D02*
X24040000Y-10790000D01*
X24040000Y-10750000D02*
X24000000Y-10790000D01*
X24020000Y-10340000D02*
X24060000Y-10380000D01*
X24060000Y-10340000D02*
X24020000Y-10380000D01*
X24057500Y-11828200D02*
X24097500Y-11868200D01*
X24097500Y-11828200D02*
X24057500Y-11868200D01*
X24064380Y-11023045D02*
X24104380Y-11063045D01*
X24104380Y-11023045D02*
X24064380Y-11063045D01*
X24083333Y-12330000D02*
X24123333Y-12370000D01*
X24123333Y-12330000D02*
X24083333Y-12370000D01*
X24120000Y-10940000D02*
X24160000Y-10980000D01*
X24160000Y-10940000D02*
X24120000Y-10980000D01*
X24213333Y-12050000D02*
X24253333Y-12090000D01*
X24253333Y-12050000D02*
X24213333Y-12090000D01*
X24271500Y-11130000D02*
X24311500Y-11170000D01*
X24311500Y-11130000D02*
X24271500Y-11170000D01*
X24360000Y-12340000D02*
X24400000Y-12380000D01*
X24400000Y-12340000D02*
X24360000Y-12380000D01*
X24408867Y-10645566D02*
X24448867Y-10685566D01*
X24448867Y-10645566D02*
X24408867Y-10685566D01*
X24410000Y-10790000D02*
X24450000Y-10830000D01*
X24450000Y-10790000D02*
X24410000Y-10830000D01*
X24410000Y-10930000D02*
X24450000Y-10970000D01*
X24450000Y-10930000D02*
X24410000Y-10970000D01*
X24470000Y-11230000D02*
X24510000Y-11270000D01*
X24510000Y-11230000D02*
X24470000Y-11270000D01*
X24490000Y-12060000D02*
X24530000Y-12100000D01*
X24530000Y-12060000D02*
X24490000Y-12100000D01*
X24520000Y-14290000D02*
X24560000Y-14330000D01*
X24560000Y-14290000D02*
X24520000Y-14330000D01*
X24560000Y-10644088D02*
X24600000Y-10684088D01*
X24600000Y-10644088D02*
X24560000Y-10684088D01*
X24560000Y-10790000D02*
X24600000Y-10830000D01*
X24600000Y-10790000D02*
X24560000Y-10830000D01*
X24560000Y-10930000D02*
X24600000Y-10970000D01*
X24600000Y-10930000D02*
X24560000Y-10970000D01*
X24610000Y-14110000D02*
X24650000Y-14150000D01*
X24650000Y-14110000D02*
X24610000Y-14150000D01*
X24620000Y-11780000D02*
X24660000Y-11820000D01*
X24660000Y-11780000D02*
X24620000Y-11820000D01*
X24633333Y-12340000D02*
X24673333Y-12380000D01*
X24673333Y-12340000D02*
X24633333Y-12380000D01*
X24680000Y-14290000D02*
X24720000Y-14330000D01*
X24720000Y-14290000D02*
X24680000Y-14330000D01*
X24700000Y-10644964D02*
X24740000Y-10684964D01*
X24740000Y-10644964D02*
X24700000Y-10684964D01*
X24700000Y-10790000D02*
X24740000Y-10830000D01*
X24740000Y-10790000D02*
X24700000Y-10830000D01*
X24700000Y-10930000D02*
X24740000Y-10970000D01*
X24740000Y-10930000D02*
X24700000Y-10970000D01*
X24763333Y-12060000D02*
X24803333Y-12100000D01*
X24803333Y-12060000D02*
X24763333Y-12100000D01*
X24770000Y-14110000D02*
X24810000Y-14150000D01*
X24810000Y-14110000D02*
X24770000Y-14150000D01*
X24830000Y-14290000D02*
X24870000Y-14330000D01*
X24870000Y-14290000D02*
X24830000Y-14330000D01*
X24906667Y-12340000D02*
X24946667Y-12380000D01*
X24946667Y-12340000D02*
X24906667Y-12380000D01*
X24910000Y-14110000D02*
X24950000Y-14150000D01*
X24950000Y-14110000D02*
X24910000Y-14150000D01*
X25036667Y-12060000D02*
X25076667Y-12100000D01*
X25076667Y-12060000D02*
X25036667Y-12100000D01*
X25170000Y-10840000D02*
X25210000Y-10880000D01*
X25210000Y-10840000D02*
X25170000Y-10880000D01*
X25180000Y-12340000D02*
X25220000Y-12380000D01*
X25220000Y-12340000D02*
X25180000Y-12380000D01*
X25190000Y-13880000D02*
X25230000Y-13920000D01*
X25230000Y-13880000D02*
X25190000Y-13920000D01*
X25310000Y-12060000D02*
X25350000Y-12100000D01*
X25350000Y-12060000D02*
X25310000Y-12100000D01*
X25500000Y-10090000D02*
X25540000Y-10130000D01*
X25540000Y-10090000D02*
X25500000Y-10130000D01*
X25510000Y-9850000D02*
X25550000Y-9890000D01*
X25550000Y-9850000D02*
X25510000Y-9890000D01*
X25550000Y-10230000D02*
X25590000Y-10270000D01*
X25590000Y-10230000D02*
X25550000Y-10270000D01*
X25550000Y-10503333D02*
X25590000Y-10543333D01*
X25590000Y-10503333D02*
X25550000Y-10543333D01*
X25550000Y-10776667D02*
X25590000Y-10816667D01*
X25590000Y-10776667D02*
X25550000Y-10816667D01*
X25550000Y-11050000D02*
X25590000Y-11090000D01*
X25590000Y-11050000D02*
X25550000Y-11090000D01*
X25550000Y-11380000D02*
X25590000Y-11420000D01*
X25590000Y-11380000D02*
X25550000Y-11420000D01*
X25550000Y-11653333D02*
X25590000Y-11693333D01*
X25590000Y-11653333D02*
X25550000Y-11693333D01*
X25550000Y-11926667D02*
X25590000Y-11966667D01*
X25590000Y-11926667D02*
X25550000Y-11966667D01*
X25550000Y-12200000D02*
X25590000Y-12240000D01*
X25590000Y-12200000D02*
X25550000Y-12240000D01*
X25830000Y-10360000D02*
X25870000Y-10400000D01*
X25870000Y-10360000D02*
X25830000Y-10400000D01*
X25830000Y-10633333D02*
X25870000Y-10673333D01*
X25870000Y-10633333D02*
X25830000Y-10673333D01*
X25830000Y-10906667D02*
X25870000Y-10946667D01*
X25870000Y-10906667D02*
X25830000Y-10946667D01*
X25830000Y-11180000D02*
X25870000Y-11220000D01*
X25870000Y-11180000D02*
X25830000Y-11220000D01*
X25830000Y-11510000D02*
X25870000Y-11550000D01*
X25870000Y-11510000D02*
X25830000Y-11550000D01*
X25830000Y-11783333D02*
X25870000Y-11823333D01*
X25870000Y-11783333D02*
X25830000Y-11823333D01*
X25830000Y-12056667D02*
X25870000Y-12096667D01*
X25870000Y-12056667D02*
X25830000Y-12096667D01*
X25830000Y-12330000D02*
X25870000Y-12370000D01*
X25870000Y-12330000D02*
X25830000Y-12370000D01*
X25897000Y-9963000D02*
X25937000Y-10003000D01*
X25937000Y-9963000D02*
X25897000Y-10003000D01*
D12*
X20468665Y-11735660D02*
G75*
G03*
X20468665Y-11735660I-31500J0D01*
G01*
X20468665Y-12223660D02*
G75*
G03*
X20468665Y-12223660I-31500J0D01*
G01*
D13*
X20260000Y-10710000D02*
X20260000Y-10790000D01*
X20220000Y-10750000D02*
X20300000Y-10750000D01*
X20260000Y-10910000D02*
X20260000Y-10990000D01*
X20220000Y-10950000D02*
X20300000Y-10950000D01*
X20260000Y-11110000D02*
X20260000Y-11190000D01*
X20220000Y-11150000D02*
X20300000Y-11150000D01*
X20460000Y-10710000D02*
X20460000Y-10790000D01*
X20420000Y-10750000D02*
X20500000Y-10750000D01*
X20460000Y-10910000D02*
X20460000Y-10990000D01*
X20420000Y-10950000D02*
X20500000Y-10950000D01*
X20460000Y-11110000D02*
X20460000Y-11190000D01*
X20420000Y-11150000D02*
X20500000Y-11150000D01*
D10*
X20345619Y-16400476D02*
X20345619Y-16200476D01*
X20393238Y-16200476D01*
X20421810Y-16210000D01*
X20440857Y-16229048D01*
X20450381Y-16248095D01*
X20459905Y-16286190D01*
X20459905Y-16314762D01*
X20450381Y-16352857D01*
X20440857Y-16371905D01*
X20421810Y-16390952D01*
X20393238Y-16400476D01*
X20345619Y-16400476D01*
X20545619Y-16400476D02*
X20545619Y-16267143D01*
X20545619Y-16305238D02*
X20555143Y-16286190D01*
X20564667Y-16276667D01*
X20583714Y-16267143D01*
X20602762Y-16267143D01*
X20669429Y-16400476D02*
X20669429Y-16267143D01*
X20669429Y-16200476D02*
X20659905Y-16210000D01*
X20669429Y-16219524D01*
X20678952Y-16210000D01*
X20669429Y-16200476D01*
X20669429Y-16219524D01*
X20793238Y-16400476D02*
X20774190Y-16390952D01*
X20764667Y-16371905D01*
X20764667Y-16200476D01*
X20898000Y-16400476D02*
X20878952Y-16390952D01*
X20869429Y-16371905D01*
X20869429Y-16200476D01*
X21126571Y-16400476D02*
X21126571Y-16200476D01*
X21193238Y-16343333D01*
X21259905Y-16200476D01*
X21259905Y-16400476D01*
X21440857Y-16400476D02*
X21440857Y-16295714D01*
X21431333Y-16276667D01*
X21412286Y-16267143D01*
X21374190Y-16267143D01*
X21355143Y-16276667D01*
X21440857Y-16390952D02*
X21421810Y-16400476D01*
X21374190Y-16400476D01*
X21355143Y-16390952D01*
X21345619Y-16371905D01*
X21345619Y-16352857D01*
X21355143Y-16333809D01*
X21374190Y-16324286D01*
X21421810Y-16324286D01*
X21440857Y-16314762D01*
X21536095Y-16267143D02*
X21536095Y-16467143D01*
X21536095Y-16276667D02*
X21555143Y-16267143D01*
X21593238Y-16267143D01*
X21612286Y-16276667D01*
X21621810Y-16286190D01*
X21631333Y-16305238D01*
X21631333Y-16362381D01*
X21621810Y-16381428D01*
X21612286Y-16390952D01*
X21593238Y-16400476D01*
X21555143Y-16400476D01*
X21536095Y-16390952D01*
X21717048Y-16381428D02*
X21726571Y-16390952D01*
X21717048Y-16400476D01*
X21707524Y-16390952D01*
X21717048Y-16381428D01*
X21717048Y-16400476D01*
X21717048Y-16276667D02*
X21726571Y-16286190D01*
X21717048Y-16295714D01*
X21707524Y-16286190D01*
X21717048Y-16276667D01*
X21717048Y-16295714D01*
D11*
X20048000Y-16710000D02*
X20088000Y-16750000D01*
X20088000Y-16710000D02*
X20048000Y-16750000D01*
D10*
X20383714Y-16620476D02*
X20402762Y-16620476D01*
X20421810Y-16630000D01*
X20431333Y-16639524D01*
X20440857Y-16658571D01*
X20450381Y-16696667D01*
X20450381Y-16744286D01*
X20440857Y-16782381D01*
X20431333Y-16801429D01*
X20421810Y-16810952D01*
X20402762Y-16820476D01*
X20383714Y-16820476D01*
X20364667Y-16810952D01*
X20355143Y-16801429D01*
X20345619Y-16782381D01*
X20336095Y-16744286D01*
X20336095Y-16696667D01*
X20345619Y-16658571D01*
X20355143Y-16639524D01*
X20364667Y-16630000D01*
X20383714Y-16620476D01*
X20536095Y-16801429D02*
X20545619Y-16810952D01*
X20536095Y-16820476D01*
X20526571Y-16810952D01*
X20536095Y-16801429D01*
X20536095Y-16820476D01*
X20717048Y-16687143D02*
X20717048Y-16820476D01*
X20669429Y-16610952D02*
X20621810Y-16753809D01*
X20745619Y-16753809D01*
X20859905Y-16620476D02*
X20878952Y-16620476D01*
X20898000Y-16630000D01*
X20907524Y-16639524D01*
X20917048Y-16658571D01*
X20926571Y-16696667D01*
X20926571Y-16744286D01*
X20917048Y-16782381D01*
X20907524Y-16801429D01*
X20898000Y-16810952D01*
X20878952Y-16820476D01*
X20859905Y-16820476D01*
X20840857Y-16810952D01*
X20831333Y-16801429D01*
X20821810Y-16782381D01*
X20812286Y-16744286D01*
X20812286Y-16696667D01*
X20821810Y-16658571D01*
X20831333Y-16639524D01*
X20840857Y-16630000D01*
X20859905Y-16620476D01*
X21050381Y-16620476D02*
X21069429Y-16620476D01*
X21088476Y-16630000D01*
X21098000Y-16639524D01*
X21107524Y-16658571D01*
X21117048Y-16696667D01*
X21117048Y-16744286D01*
X21107524Y-16782381D01*
X21098000Y-16801429D01*
X21088476Y-16810952D01*
X21069429Y-16820476D01*
X21050381Y-16820476D01*
X21031333Y-16810952D01*
X21021810Y-16801429D01*
X21012286Y-16782381D01*
X21002762Y-16744286D01*
X21002762Y-16696667D01*
X21012286Y-16658571D01*
X21021810Y-16639524D01*
X21031333Y-16630000D01*
X21050381Y-16620476D01*
X21202762Y-16820476D02*
X21202762Y-16687143D01*
X21202762Y-16706190D02*
X21212286Y-16696667D01*
X21231333Y-16687143D01*
X21259905Y-16687143D01*
X21278952Y-16696667D01*
X21288476Y-16715714D01*
X21288476Y-16820476D01*
X21288476Y-16715714D02*
X21298000Y-16696667D01*
X21317048Y-16687143D01*
X21345619Y-16687143D01*
X21364667Y-16696667D01*
X21374190Y-16715714D01*
X21374190Y-16820476D01*
X21469429Y-16820476D02*
X21469429Y-16687143D01*
X21469429Y-16706190D02*
X21478952Y-16696667D01*
X21498000Y-16687143D01*
X21526571Y-16687143D01*
X21545619Y-16696667D01*
X21555143Y-16715714D01*
X21555143Y-16820476D01*
X21555143Y-16715714D02*
X21564667Y-16696667D01*
X21583714Y-16687143D01*
X21612286Y-16687143D01*
X21631333Y-16696667D01*
X21640857Y-16715714D01*
X21640857Y-16820476D01*
X22031333Y-16610952D02*
X21859905Y-16868095D01*
X22288476Y-16620476D02*
X22307524Y-16620476D01*
X22326571Y-16630000D01*
X22336095Y-16639524D01*
X22345619Y-16658571D01*
X22355143Y-16696667D01*
X22355143Y-16744286D01*
X22345619Y-16782381D01*
X22336095Y-16801429D01*
X22326571Y-16810952D01*
X22307524Y-16820476D01*
X22288476Y-16820476D01*
X22269429Y-16810952D01*
X22259905Y-16801429D01*
X22250381Y-16782381D01*
X22240857Y-16744286D01*
X22240857Y-16696667D01*
X22250381Y-16658571D01*
X22259905Y-16639524D01*
X22269429Y-16630000D01*
X22288476Y-16620476D01*
X22440857Y-16801429D02*
X22450381Y-16810952D01*
X22440857Y-16820476D01*
X22431333Y-16810952D01*
X22440857Y-16801429D01*
X22440857Y-16820476D01*
X22574190Y-16620476D02*
X22593238Y-16620476D01*
X22612286Y-16630000D01*
X22621809Y-16639524D01*
X22631333Y-16658571D01*
X22640857Y-16696667D01*
X22640857Y-16744286D01*
X22631333Y-16782381D01*
X22621809Y-16801429D01*
X22612286Y-16810952D01*
X22593238Y-16820476D01*
X22574190Y-16820476D01*
X22555143Y-16810952D01*
X22545619Y-16801429D01*
X22536095Y-16782381D01*
X22526571Y-16744286D01*
X22526571Y-16696667D01*
X22536095Y-16658571D01*
X22545619Y-16639524D01*
X22555143Y-16630000D01*
X22574190Y-16620476D01*
X22831333Y-16820476D02*
X22717048Y-16820476D01*
X22774190Y-16820476D02*
X22774190Y-16620476D01*
X22755143Y-16649048D01*
X22736095Y-16668095D01*
X22717048Y-16677619D01*
X23012286Y-16620476D02*
X22917048Y-16620476D01*
X22907524Y-16715714D01*
X22917048Y-16706190D01*
X22936095Y-16696667D01*
X22983714Y-16696667D01*
X23002762Y-16706190D01*
X23012286Y-16715714D01*
X23021809Y-16734762D01*
X23021809Y-16782381D01*
X23012286Y-16801429D01*
X23002762Y-16810952D01*
X22983714Y-16820476D01*
X22936095Y-16820476D01*
X22917048Y-16810952D01*
X22907524Y-16801429D01*
X23088476Y-16620476D02*
X23221809Y-16620476D01*
X23136095Y-16820476D01*
X23288476Y-16620476D02*
X23288476Y-16658571D01*
X23364667Y-16620476D02*
X23364667Y-16658571D01*
X23659905Y-16896667D02*
X23650381Y-16887143D01*
X23631333Y-16858571D01*
X23621809Y-16839524D01*
X23612286Y-16810952D01*
X23602762Y-16763333D01*
X23602762Y-16725238D01*
X23612286Y-16677619D01*
X23621809Y-16649048D01*
X23631333Y-16630000D01*
X23650381Y-16601428D01*
X23659905Y-16591905D01*
X23840857Y-16820476D02*
X23726571Y-16820476D01*
X23783714Y-16820476D02*
X23783714Y-16620476D01*
X23764667Y-16649048D01*
X23745619Y-16668095D01*
X23726571Y-16677619D01*
X24021809Y-16620476D02*
X23926571Y-16620476D01*
X23917048Y-16715714D01*
X23926571Y-16706190D01*
X23945619Y-16696667D01*
X23993238Y-16696667D01*
X24012286Y-16706190D01*
X24021809Y-16715714D01*
X24031333Y-16734762D01*
X24031333Y-16782381D01*
X24021809Y-16801429D01*
X24012286Y-16810952D01*
X23993238Y-16820476D01*
X23945619Y-16820476D01*
X23926571Y-16810952D01*
X23917048Y-16801429D01*
X24202762Y-16620476D02*
X24164667Y-16620476D01*
X24145619Y-16630000D01*
X24136095Y-16639524D01*
X24117048Y-16668095D01*
X24107524Y-16706190D01*
X24107524Y-16782381D01*
X24117048Y-16801429D01*
X24126571Y-16810952D01*
X24145619Y-16820476D01*
X24183714Y-16820476D01*
X24202762Y-16810952D01*
X24212286Y-16801429D01*
X24221809Y-16782381D01*
X24221809Y-16734762D01*
X24212286Y-16715714D01*
X24202762Y-16706190D01*
X24183714Y-16696667D01*
X24145619Y-16696667D01*
X24126571Y-16706190D01*
X24117048Y-16715714D01*
X24107524Y-16734762D01*
X24459905Y-16820476D02*
X24459905Y-16620476D01*
X24545619Y-16820476D02*
X24545619Y-16715714D01*
X24536095Y-16696667D01*
X24517048Y-16687143D01*
X24488476Y-16687143D01*
X24469428Y-16696667D01*
X24459905Y-16706190D01*
X24669428Y-16820476D02*
X24650381Y-16810952D01*
X24640857Y-16801429D01*
X24631333Y-16782381D01*
X24631333Y-16725238D01*
X24640857Y-16706190D01*
X24650381Y-16696667D01*
X24669428Y-16687143D01*
X24698000Y-16687143D01*
X24717048Y-16696667D01*
X24726571Y-16706190D01*
X24736095Y-16725238D01*
X24736095Y-16782381D01*
X24726571Y-16801429D01*
X24717048Y-16810952D01*
X24698000Y-16820476D01*
X24669428Y-16820476D01*
X24850381Y-16820476D02*
X24831333Y-16810952D01*
X24821809Y-16791905D01*
X24821809Y-16620476D01*
X25002762Y-16810952D02*
X24983714Y-16820476D01*
X24945619Y-16820476D01*
X24926571Y-16810952D01*
X24917048Y-16791905D01*
X24917048Y-16715714D01*
X24926571Y-16696667D01*
X24945619Y-16687143D01*
X24983714Y-16687143D01*
X25002762Y-16696667D01*
X25012286Y-16715714D01*
X25012286Y-16734762D01*
X24917048Y-16753809D01*
X25088476Y-16810952D02*
X25107524Y-16820476D01*
X25145619Y-16820476D01*
X25164667Y-16810952D01*
X25174190Y-16791905D01*
X25174190Y-16782381D01*
X25164667Y-16763333D01*
X25145619Y-16753809D01*
X25117048Y-16753809D01*
X25098000Y-16744286D01*
X25088476Y-16725238D01*
X25088476Y-16715714D01*
X25098000Y-16696667D01*
X25117048Y-16687143D01*
X25145619Y-16687143D01*
X25164667Y-16696667D01*
X25240857Y-16896667D02*
X25250381Y-16887143D01*
X25269428Y-16858571D01*
X25278952Y-16839524D01*
X25288476Y-16810952D01*
X25298000Y-16763333D01*
X25298000Y-16725238D01*
X25288476Y-16677619D01*
X25278952Y-16649048D01*
X25269428Y-16630000D01*
X25250381Y-16601428D01*
X25240857Y-16591905D01*
D12*
X20088000Y-16994000D02*
G75*
G03*
X20088000Y-16994000I-31500J0D01*
G01*
D10*
X20383714Y-16884476D02*
X20402762Y-16884476D01*
X20421810Y-16894000D01*
X20431333Y-16903524D01*
X20440857Y-16922571D01*
X20450381Y-16960667D01*
X20450381Y-17008286D01*
X20440857Y-17046381D01*
X20431333Y-17065429D01*
X20421810Y-17074952D01*
X20402762Y-17084476D01*
X20383714Y-17084476D01*
X20364667Y-17074952D01*
X20355143Y-17065429D01*
X20345619Y-17046381D01*
X20336095Y-17008286D01*
X20336095Y-16960667D01*
X20345619Y-16922571D01*
X20355143Y-16903524D01*
X20364667Y-16894000D01*
X20383714Y-16884476D01*
X20536095Y-17065429D02*
X20545619Y-17074952D01*
X20536095Y-17084476D01*
X20526571Y-17074952D01*
X20536095Y-17065429D01*
X20536095Y-17084476D01*
X20717048Y-16884476D02*
X20678952Y-16884476D01*
X20659905Y-16894000D01*
X20650381Y-16903524D01*
X20631333Y-16932095D01*
X20621810Y-16970190D01*
X20621810Y-17046381D01*
X20631333Y-17065429D01*
X20640857Y-17074952D01*
X20659905Y-17084476D01*
X20698000Y-17084476D01*
X20717048Y-17074952D01*
X20726571Y-17065429D01*
X20736095Y-17046381D01*
X20736095Y-16998762D01*
X20726571Y-16979714D01*
X20717048Y-16970190D01*
X20698000Y-16960667D01*
X20659905Y-16960667D01*
X20640857Y-16970190D01*
X20631333Y-16979714D01*
X20621810Y-16998762D01*
X20802762Y-16884476D02*
X20926571Y-16884476D01*
X20859905Y-16960667D01*
X20888476Y-16960667D01*
X20907524Y-16970190D01*
X20917048Y-16979714D01*
X20926571Y-16998762D01*
X20926571Y-17046381D01*
X20917048Y-17065429D01*
X20907524Y-17074952D01*
X20888476Y-17084476D01*
X20831333Y-17084476D01*
X20812286Y-17074952D01*
X20802762Y-17065429D01*
X21050381Y-16884476D02*
X21069429Y-16884476D01*
X21088476Y-16894000D01*
X21098000Y-16903524D01*
X21107524Y-16922571D01*
X21117048Y-16960667D01*
X21117048Y-17008286D01*
X21107524Y-17046381D01*
X21098000Y-17065429D01*
X21088476Y-17074952D01*
X21069429Y-17084476D01*
X21050381Y-17084476D01*
X21031333Y-17074952D01*
X21021810Y-17065429D01*
X21012286Y-17046381D01*
X21002762Y-17008286D01*
X21002762Y-16960667D01*
X21012286Y-16922571D01*
X21021810Y-16903524D01*
X21031333Y-16894000D01*
X21050381Y-16884476D01*
X21202762Y-17084476D02*
X21202762Y-16951143D01*
X21202762Y-16970190D02*
X21212286Y-16960667D01*
X21231333Y-16951143D01*
X21259905Y-16951143D01*
X21278952Y-16960667D01*
X21288476Y-16979714D01*
X21288476Y-17084476D01*
X21288476Y-16979714D02*
X21298000Y-16960667D01*
X21317048Y-16951143D01*
X21345619Y-16951143D01*
X21364667Y-16960667D01*
X21374190Y-16979714D01*
X21374190Y-17084476D01*
X21469429Y-17084476D02*
X21469429Y-16951143D01*
X21469429Y-16970190D02*
X21478952Y-16960667D01*
X21498000Y-16951143D01*
X21526571Y-16951143D01*
X21545619Y-16960667D01*
X21555143Y-16979714D01*
X21555143Y-17084476D01*
X21555143Y-16979714D02*
X21564667Y-16960667D01*
X21583714Y-16951143D01*
X21612286Y-16951143D01*
X21631333Y-16960667D01*
X21640857Y-16979714D01*
X21640857Y-17084476D01*
X22031333Y-16874952D02*
X21859905Y-17132095D01*
X22288476Y-16884476D02*
X22307524Y-16884476D01*
X22326571Y-16894000D01*
X22336095Y-16903524D01*
X22345619Y-16922571D01*
X22355143Y-16960667D01*
X22355143Y-17008286D01*
X22345619Y-17046381D01*
X22336095Y-17065429D01*
X22326571Y-17074952D01*
X22307524Y-17084476D01*
X22288476Y-17084476D01*
X22269429Y-17074952D01*
X22259905Y-17065429D01*
X22250381Y-17046381D01*
X22240857Y-17008286D01*
X22240857Y-16960667D01*
X22250381Y-16922571D01*
X22259905Y-16903524D01*
X22269429Y-16894000D01*
X22288476Y-16884476D01*
X22440857Y-17065429D02*
X22450381Y-17074952D01*
X22440857Y-17084476D01*
X22431333Y-17074952D01*
X22440857Y-17065429D01*
X22440857Y-17084476D01*
X22574190Y-16884476D02*
X22593238Y-16884476D01*
X22612286Y-16894000D01*
X22621809Y-16903524D01*
X22631333Y-16922571D01*
X22640857Y-16960667D01*
X22640857Y-17008286D01*
X22631333Y-17046381D01*
X22621809Y-17065429D01*
X22612286Y-17074952D01*
X22593238Y-17084476D01*
X22574190Y-17084476D01*
X22555143Y-17074952D01*
X22545619Y-17065429D01*
X22536095Y-17046381D01*
X22526571Y-17008286D01*
X22526571Y-16960667D01*
X22536095Y-16922571D01*
X22545619Y-16903524D01*
X22555143Y-16894000D01*
X22574190Y-16884476D01*
X22717048Y-16903524D02*
X22726571Y-16894000D01*
X22745619Y-16884476D01*
X22793238Y-16884476D01*
X22812286Y-16894000D01*
X22821809Y-16903524D01*
X22831333Y-16922571D01*
X22831333Y-16941619D01*
X22821809Y-16970190D01*
X22707524Y-17084476D01*
X22831333Y-17084476D01*
X23002762Y-16951143D02*
X23002762Y-17084476D01*
X22955143Y-16874952D02*
X22907524Y-17017810D01*
X23031333Y-17017810D01*
X23136095Y-16970190D02*
X23117048Y-16960667D01*
X23107524Y-16951143D01*
X23098000Y-16932095D01*
X23098000Y-16922571D01*
X23107524Y-16903524D01*
X23117048Y-16894000D01*
X23136095Y-16884476D01*
X23174190Y-16884476D01*
X23193238Y-16894000D01*
X23202762Y-16903524D01*
X23212286Y-16922571D01*
X23212286Y-16932095D01*
X23202762Y-16951143D01*
X23193238Y-16960667D01*
X23174190Y-16970190D01*
X23136095Y-16970190D01*
X23117048Y-16979714D01*
X23107524Y-16989238D01*
X23098000Y-17008286D01*
X23098000Y-17046381D01*
X23107524Y-17065429D01*
X23117048Y-17074952D01*
X23136095Y-17084476D01*
X23174190Y-17084476D01*
X23193238Y-17074952D01*
X23202762Y-17065429D01*
X23212286Y-17046381D01*
X23212286Y-17008286D01*
X23202762Y-16989238D01*
X23193238Y-16979714D01*
X23174190Y-16970190D01*
X23288476Y-16884476D02*
X23288476Y-16922571D01*
X23364667Y-16884476D02*
X23364667Y-16922571D01*
X23659905Y-17160667D02*
X23650381Y-17151143D01*
X23631333Y-17122571D01*
X23621809Y-17103524D01*
X23612286Y-17074952D01*
X23602762Y-17027333D01*
X23602762Y-16989238D01*
X23612286Y-16941619D01*
X23621809Y-16913048D01*
X23631333Y-16894000D01*
X23650381Y-16865429D01*
X23659905Y-16855905D01*
X23726571Y-16903524D02*
X23736095Y-16894000D01*
X23755143Y-16884476D01*
X23802762Y-16884476D01*
X23821809Y-16894000D01*
X23831333Y-16903524D01*
X23840857Y-16922571D01*
X23840857Y-16941619D01*
X23831333Y-16970190D01*
X23717048Y-17084476D01*
X23840857Y-17084476D01*
X24078952Y-17084476D02*
X24078952Y-16884476D01*
X24164667Y-17084476D02*
X24164667Y-16979714D01*
X24155143Y-16960667D01*
X24136095Y-16951143D01*
X24107524Y-16951143D01*
X24088476Y-16960667D01*
X24078952Y-16970190D01*
X24288476Y-17084476D02*
X24269428Y-17074952D01*
X24259905Y-17065429D01*
X24250381Y-17046381D01*
X24250381Y-16989238D01*
X24259905Y-16970190D01*
X24269428Y-16960667D01*
X24288476Y-16951143D01*
X24317048Y-16951143D01*
X24336095Y-16960667D01*
X24345619Y-16970190D01*
X24355143Y-16989238D01*
X24355143Y-17046381D01*
X24345619Y-17065429D01*
X24336095Y-17074952D01*
X24317048Y-17084476D01*
X24288476Y-17084476D01*
X24469428Y-17084476D02*
X24450381Y-17074952D01*
X24440857Y-17055905D01*
X24440857Y-16884476D01*
X24621809Y-17074952D02*
X24602762Y-17084476D01*
X24564667Y-17084476D01*
X24545619Y-17074952D01*
X24536095Y-17055905D01*
X24536095Y-16979714D01*
X24545619Y-16960667D01*
X24564667Y-16951143D01*
X24602762Y-16951143D01*
X24621809Y-16960667D01*
X24631333Y-16979714D01*
X24631333Y-16998762D01*
X24536095Y-17017810D01*
X24707524Y-17074952D02*
X24726571Y-17084476D01*
X24764667Y-17084476D01*
X24783714Y-17074952D01*
X24793238Y-17055905D01*
X24793238Y-17046381D01*
X24783714Y-17027333D01*
X24764667Y-17017810D01*
X24736095Y-17017810D01*
X24717048Y-17008286D01*
X24707524Y-16989238D01*
X24707524Y-16979714D01*
X24717048Y-16960667D01*
X24736095Y-16951143D01*
X24764667Y-16951143D01*
X24783714Y-16960667D01*
X24859905Y-17160667D02*
X24869428Y-17151143D01*
X24888476Y-17122571D01*
X24898000Y-17103524D01*
X24907524Y-17074952D01*
X24917048Y-17027333D01*
X24917048Y-16989238D01*
X24907524Y-16941619D01*
X24898000Y-16913048D01*
X24888476Y-16894000D01*
X24869428Y-16865429D01*
X24859905Y-16855905D01*
D13*
X20048000Y-17218000D02*
X20048000Y-17298000D01*
X20008000Y-17258000D02*
X20088000Y-17258000D01*
D10*
X20383714Y-17148476D02*
X20402762Y-17148476D01*
X20421810Y-17158000D01*
X20431333Y-17167524D01*
X20440857Y-17186571D01*
X20450381Y-17224667D01*
X20450381Y-17272286D01*
X20440857Y-17310381D01*
X20431333Y-17329429D01*
X20421810Y-17338952D01*
X20402762Y-17348476D01*
X20383714Y-17348476D01*
X20364667Y-17338952D01*
X20355143Y-17329429D01*
X20345619Y-17310381D01*
X20336095Y-17272286D01*
X20336095Y-17224667D01*
X20345619Y-17186571D01*
X20355143Y-17167524D01*
X20364667Y-17158000D01*
X20383714Y-17148476D01*
X20536095Y-17329429D02*
X20545619Y-17338952D01*
X20536095Y-17348476D01*
X20526571Y-17338952D01*
X20536095Y-17329429D01*
X20536095Y-17348476D01*
X20659905Y-17234190D02*
X20640857Y-17224667D01*
X20631333Y-17215143D01*
X20621810Y-17196095D01*
X20621810Y-17186571D01*
X20631333Y-17167524D01*
X20640857Y-17158000D01*
X20659905Y-17148476D01*
X20698000Y-17148476D01*
X20717048Y-17158000D01*
X20726571Y-17167524D01*
X20736095Y-17186571D01*
X20736095Y-17196095D01*
X20726571Y-17215143D01*
X20717048Y-17224667D01*
X20698000Y-17234190D01*
X20659905Y-17234190D01*
X20640857Y-17243714D01*
X20631333Y-17253238D01*
X20621810Y-17272286D01*
X20621810Y-17310381D01*
X20631333Y-17329429D01*
X20640857Y-17338952D01*
X20659905Y-17348476D01*
X20698000Y-17348476D01*
X20717048Y-17338952D01*
X20726571Y-17329429D01*
X20736095Y-17310381D01*
X20736095Y-17272286D01*
X20726571Y-17253238D01*
X20717048Y-17243714D01*
X20698000Y-17234190D01*
X20859905Y-17148476D02*
X20878952Y-17148476D01*
X20898000Y-17158000D01*
X20907524Y-17167524D01*
X20917048Y-17186571D01*
X20926571Y-17224667D01*
X20926571Y-17272286D01*
X20917048Y-17310381D01*
X20907524Y-17329429D01*
X20898000Y-17338952D01*
X20878952Y-17348476D01*
X20859905Y-17348476D01*
X20840857Y-17338952D01*
X20831333Y-17329429D01*
X20821810Y-17310381D01*
X20812286Y-17272286D01*
X20812286Y-17224667D01*
X20821810Y-17186571D01*
X20831333Y-17167524D01*
X20840857Y-17158000D01*
X20859905Y-17148476D01*
X21050381Y-17148476D02*
X21069429Y-17148476D01*
X21088476Y-17158000D01*
X21098000Y-17167524D01*
X21107524Y-17186571D01*
X21117048Y-17224667D01*
X21117048Y-17272286D01*
X21107524Y-17310381D01*
X21098000Y-17329429D01*
X21088476Y-17338952D01*
X21069429Y-17348476D01*
X21050381Y-17348476D01*
X21031333Y-17338952D01*
X21021810Y-17329429D01*
X21012286Y-17310381D01*
X21002762Y-17272286D01*
X21002762Y-17224667D01*
X21012286Y-17186571D01*
X21021810Y-17167524D01*
X21031333Y-17158000D01*
X21050381Y-17148476D01*
X21202762Y-17348476D02*
X21202762Y-17215143D01*
X21202762Y-17234190D02*
X21212286Y-17224667D01*
X21231333Y-17215143D01*
X21259905Y-17215143D01*
X21278952Y-17224667D01*
X21288476Y-17243714D01*
X21288476Y-17348476D01*
X21288476Y-17243714D02*
X21298000Y-17224667D01*
X21317048Y-17215143D01*
X21345619Y-17215143D01*
X21364667Y-17224667D01*
X21374190Y-17243714D01*
X21374190Y-17348476D01*
X21469429Y-17348476D02*
X21469429Y-17215143D01*
X21469429Y-17234190D02*
X21478952Y-17224667D01*
X21498000Y-17215143D01*
X21526571Y-17215143D01*
X21545619Y-17224667D01*
X21555143Y-17243714D01*
X21555143Y-17348476D01*
X21555143Y-17243714D02*
X21564667Y-17224667D01*
X21583714Y-17215143D01*
X21612286Y-17215143D01*
X21631333Y-17224667D01*
X21640857Y-17243714D01*
X21640857Y-17348476D01*
X22031333Y-17138952D02*
X21859905Y-17396095D01*
X22288476Y-17148476D02*
X22307524Y-17148476D01*
X22326571Y-17158000D01*
X22336095Y-17167524D01*
X22345619Y-17186571D01*
X22355143Y-17224667D01*
X22355143Y-17272286D01*
X22345619Y-17310381D01*
X22336095Y-17329429D01*
X22326571Y-17338952D01*
X22307524Y-17348476D01*
X22288476Y-17348476D01*
X22269429Y-17338952D01*
X22259905Y-17329429D01*
X22250381Y-17310381D01*
X22240857Y-17272286D01*
X22240857Y-17224667D01*
X22250381Y-17186571D01*
X22259905Y-17167524D01*
X22269429Y-17158000D01*
X22288476Y-17148476D01*
X22440857Y-17329429D02*
X22450381Y-17338952D01*
X22440857Y-17348476D01*
X22431333Y-17338952D01*
X22440857Y-17329429D01*
X22440857Y-17348476D01*
X22574190Y-17148476D02*
X22593238Y-17148476D01*
X22612286Y-17158000D01*
X22621809Y-17167524D01*
X22631333Y-17186571D01*
X22640857Y-17224667D01*
X22640857Y-17272286D01*
X22631333Y-17310381D01*
X22621809Y-17329429D01*
X22612286Y-17338952D01*
X22593238Y-17348476D01*
X22574190Y-17348476D01*
X22555143Y-17338952D01*
X22545619Y-17329429D01*
X22536095Y-17310381D01*
X22526571Y-17272286D01*
X22526571Y-17224667D01*
X22536095Y-17186571D01*
X22545619Y-17167524D01*
X22555143Y-17158000D01*
X22574190Y-17148476D01*
X22707524Y-17148476D02*
X22831333Y-17148476D01*
X22764667Y-17224667D01*
X22793238Y-17224667D01*
X22812286Y-17234190D01*
X22821809Y-17243714D01*
X22831333Y-17262762D01*
X22831333Y-17310381D01*
X22821809Y-17329429D01*
X22812286Y-17338952D01*
X22793238Y-17348476D01*
X22736095Y-17348476D01*
X22717048Y-17338952D01*
X22707524Y-17329429D01*
X23021809Y-17348476D02*
X22907524Y-17348476D01*
X22964667Y-17348476D02*
X22964667Y-17148476D01*
X22945619Y-17177048D01*
X22926571Y-17196095D01*
X22907524Y-17205619D01*
X23202762Y-17148476D02*
X23107524Y-17148476D01*
X23098000Y-17243714D01*
X23107524Y-17234190D01*
X23126571Y-17224667D01*
X23174190Y-17224667D01*
X23193238Y-17234190D01*
X23202762Y-17243714D01*
X23212286Y-17262762D01*
X23212286Y-17310381D01*
X23202762Y-17329429D01*
X23193238Y-17338952D01*
X23174190Y-17348476D01*
X23126571Y-17348476D01*
X23107524Y-17338952D01*
X23098000Y-17329429D01*
X23288476Y-17148476D02*
X23288476Y-17186571D01*
X23364667Y-17148476D02*
X23364667Y-17186571D01*
X23659905Y-17424667D02*
X23650381Y-17415143D01*
X23631333Y-17386571D01*
X23621809Y-17367524D01*
X23612286Y-17338952D01*
X23602762Y-17291333D01*
X23602762Y-17253238D01*
X23612286Y-17205619D01*
X23621809Y-17177048D01*
X23631333Y-17158000D01*
X23650381Y-17129429D01*
X23659905Y-17119905D01*
X23821809Y-17148476D02*
X23783714Y-17148476D01*
X23764667Y-17158000D01*
X23755143Y-17167524D01*
X23736095Y-17196095D01*
X23726571Y-17234190D01*
X23726571Y-17310381D01*
X23736095Y-17329429D01*
X23745619Y-17338952D01*
X23764667Y-17348476D01*
X23802762Y-17348476D01*
X23821809Y-17338952D01*
X23831333Y-17329429D01*
X23840857Y-17310381D01*
X23840857Y-17262762D01*
X23831333Y-17243714D01*
X23821809Y-17234190D01*
X23802762Y-17224667D01*
X23764667Y-17224667D01*
X23745619Y-17234190D01*
X23736095Y-17243714D01*
X23726571Y-17262762D01*
X24078952Y-17348476D02*
X24078952Y-17148476D01*
X24164667Y-17348476D02*
X24164667Y-17243714D01*
X24155143Y-17224667D01*
X24136095Y-17215143D01*
X24107524Y-17215143D01*
X24088476Y-17224667D01*
X24078952Y-17234190D01*
X24288476Y-17348476D02*
X24269428Y-17338952D01*
X24259905Y-17329429D01*
X24250381Y-17310381D01*
X24250381Y-17253238D01*
X24259905Y-17234190D01*
X24269428Y-17224667D01*
X24288476Y-17215143D01*
X24317048Y-17215143D01*
X24336095Y-17224667D01*
X24345619Y-17234190D01*
X24355143Y-17253238D01*
X24355143Y-17310381D01*
X24345619Y-17329429D01*
X24336095Y-17338952D01*
X24317048Y-17348476D01*
X24288476Y-17348476D01*
X24469428Y-17348476D02*
X24450381Y-17338952D01*
X24440857Y-17319905D01*
X24440857Y-17148476D01*
X24621809Y-17338952D02*
X24602762Y-17348476D01*
X24564667Y-17348476D01*
X24545619Y-17338952D01*
X24536095Y-17319905D01*
X24536095Y-17243714D01*
X24545619Y-17224667D01*
X24564667Y-17215143D01*
X24602762Y-17215143D01*
X24621809Y-17224667D01*
X24631333Y-17243714D01*
X24631333Y-17262762D01*
X24536095Y-17281810D01*
X24707524Y-17338952D02*
X24726571Y-17348476D01*
X24764667Y-17348476D01*
X24783714Y-17338952D01*
X24793238Y-17319905D01*
X24793238Y-17310381D01*
X24783714Y-17291333D01*
X24764667Y-17281810D01*
X24736095Y-17281810D01*
X24717048Y-17272286D01*
X24707524Y-17253238D01*
X24707524Y-17243714D01*
X24717048Y-17224667D01*
X24736095Y-17215143D01*
X24764667Y-17215143D01*
X24783714Y-17224667D01*
X24859905Y-17424667D02*
X24869428Y-17415143D01*
X24888476Y-17386571D01*
X24898000Y-17367524D01*
X24907524Y-17338952D01*
X24917048Y-17291333D01*
X24917048Y-17253238D01*
X24907524Y-17205619D01*
X24898000Y-17177048D01*
X24888476Y-17158000D01*
X24869428Y-17129429D01*
X24859905Y-17119905D01*
M02*
