M48
; DRILL file {KiCad (6.0.7)} date Tue Nov 15 16:12:30 2022
; FORMAT={-:-/ absolute / inch / decimal}
; #@! TF.CreationDate,2022-11-15T16:12:30-05:00
; #@! TF.GenerationSoftware,Kicad,Pcbnew,(6.0.7)
; #@! TF.FileFunction,Plated,1,4,PTH
FMAT,2
INCH
; #@! TA.AperFunction,Plated,PTH,ViaDrill
T1C0.0157
; #@! TA.AperFunction,Plated,PTH,ComponentDrill
T2C0.0248
; #@! TA.AperFunction,Plated,PTH,ComponentDrill
T3C0.0315
%
G90
G05
T1
X7.9748Y-4.1803
X7.9756Y-5.0113
X8.0063Y-5.2932
X8.0787Y-5.5157
X8.1142Y-4.2374
X8.1287Y-4.1847
X8.1299Y-5.5482
X8.1429Y-4.3772
X8.1721Y-4.6259
X8.1721Y-4.8581
X8.1776Y-4.2533
X8.1787Y-4.0854
X8.2205Y-4.5814
X8.2211Y-4.506
X8.226Y-4.0839
X8.2784Y-4.7095
X8.2808Y-4.7922
X8.2902Y-4.866
X8.3583Y-4.3504
X8.378Y-5.5197
X8.3909Y-4.3284
X8.4125Y-4.5383
X8.4141Y-5.5353
X8.4162Y-4.9844
X8.422Y-4.3043
X8.4331Y-4.9488
X8.472Y-4.2672
X8.5157Y-5.0354
X8.5222Y-4.2977
X8.5389Y-4.8921
X8.5391Y-4.8528
X8.5502Y-4.2362
X8.5568Y-4.1721
X8.5591Y-5.0669
X8.5668Y-4.6426
X8.5744Y-4.3543
X8.5787Y-4.2047
X8.5827Y-4.9094
X8.626Y-5.3819
X8.7019Y-4.7531
X8.7244Y-4.6378
X8.7494Y-4.6682
X8.7512Y-4.7441
X8.7606Y-4.7059
X8.7653Y-5.136
X8.8071Y-4.3543
X8.811Y-4.4331
X8.9252Y-5.1417
X8.9252Y-5.2493
X8.9252Y-5.357
X8.9252Y-5.4646
X8.9252Y-5.5866
X8.9252Y-5.6942
X8.9252Y-5.8018
X8.9252Y-5.9094
X8.9291Y-4.248
X8.9291Y-4.3556
X8.9291Y-4.4633
X8.9291Y-4.5709
X8.9291Y-4.706
X8.9291Y-4.8136
X8.9291Y-4.9213
X8.9291Y-5.0289
X9.0354Y-5.1929
X9.0354Y-5.3005
X9.0354Y-5.4081
X9.0354Y-5.5157
X9.0354Y-5.6378
X9.0354Y-5.7454
X9.0354Y-5.853
X9.0354Y-5.9606
X9.0394Y-4.2992
X9.0394Y-4.4068
X9.0394Y-4.5144
X9.0394Y-4.622
X9.0394Y-4.7572
X9.0394Y-4.8648
X9.0394Y-4.9724
X9.0394Y-5.0801
X9.1339Y-4.0443
X9.1654Y-4.3123
X9.1654Y-4.4199
X9.1654Y-4.5276
X9.1654Y-4.6352
X9.1667Y-4.8622
X9.185Y-4.0088
X9.1881Y-4.0522
X9.2178Y-4.752
X9.2254Y-4.0069
X9.2743Y-4.8622
X9.2747Y-3.8816
X9.2756Y-4.3635
X9.2756Y-4.4711
X9.2756Y-4.5787
X9.2756Y-4.6864
X9.2911Y-4.1971
X9.3032Y-3.9537
X9.311Y-3.8967
X9.3255Y-4.752
X9.3386Y-4.0394
X9.3819Y-4.8622
X9.4331Y-4.752
X9.4567Y-4.2402
X9.4646Y-4.0787
X9.4793Y-4.6646
X9.482Y-4.3477
X9.4895Y-4.8622
X9.5039Y-4.315
X9.5407Y-4.752
X9.5636Y-4.3898
X9.5984Y-4.8661
X9.6177Y-4.199
X9.6181Y-4.2559
X9.6181Y-4.311
X9.6417Y-4.4291
X9.6496Y-4.7559
X9.6614Y-5.6339
X9.6772Y-4.1985
X9.6772Y-4.2559
X9.6772Y-4.311
X9.6969Y-5.563
X9.7008Y-4.6457
X9.706Y-4.8661
X9.7244Y-5.6339
X9.7323Y-4.1988
X9.7323Y-4.2559
X9.7323Y-4.311
X9.7572Y-4.7559
X9.7598Y-5.563
X9.7835Y-5.6339
X9.8136Y-4.8661
X9.815Y-5.563
X9.8648Y-4.7559
X9.9173Y-4.2756
X9.9213Y-4.8661
X9.9252Y-5.4724
X9.9724Y-4.7559
X10.0472Y-3.9803
X10.0512Y-3.8858
X10.0669Y-4.0354
X10.0669Y-4.143
X10.0669Y-4.2507
X10.0669Y-4.3583
X10.0669Y-4.4882
X10.0669Y-4.5958
X10.0669Y-4.7034
X10.0669Y-4.811
X10.1772Y-4.0866
X10.1772Y-4.1942
X10.1772Y-4.3018
X10.1772Y-4.4094
X10.1772Y-4.5394
X10.1772Y-4.647
X10.1772Y-4.7546
X10.1772Y-4.8622
X10.2035Y-3.9303
T2
X8.0461Y-4.6203
X8.0461Y-4.8125
T3
X7.9764Y-4.2323
X7.9764Y-4.311
X7.9764Y-4.3898
X8.0551Y-4.2323
X8.0551Y-4.311
X8.0551Y-4.3898
T0
M30
