%TF.GenerationSoftware,KiCad,Pcbnew,(6.0.7)*%
%TF.CreationDate,2022-11-15T16:12:34-05:00*%
%TF.ProjectId,DCA_USMR_sch,4443415f-5553-44d5-925f-7363682e6b69,v1.3*%
%TF.SameCoordinates,Original*%
%TF.FileFunction,Legend,Top*%
%TF.FilePolarity,Positive*%
%FSLAX46Y46*%
G04 Gerber Fmt 4.6, Leading zero omitted, Abs format (unit mm)*
G04 Created by KiCad (PCBNEW (6.0.7)) date 2022-11-15 16:12:34*
%MOMM*%
%LPD*%
G01*
G04 APERTURE LIST*
%ADD10C,0.100000*%
%ADD11C,0.150000*%
%ADD12C,0.300000*%
%ADD13C,0.400000*%
%TA.AperFunction,Profile*%
%ADD14C,0.200000*%
%TD*%
%ADD15C,0.120000*%
%ADD16C,0.250000*%
%ADD17C,0.127000*%
G04 APERTURE END LIST*
D10*
D11*
X177002200Y-166007200D02*
X177002200Y-198007200D01*
X285002200Y-198007200D01*
X285002200Y-166007200D01*
X177002200Y-166007200D01*
D10*
D11*
X10000000Y-10000000D02*
X10000000Y-200007200D01*
X287002200Y-200007200D01*
X287002200Y-10000000D01*
X10000000Y-10000000D01*
D10*
D11*
X12000000Y-12000000D02*
X12000000Y-198007200D01*
X285002200Y-198007200D01*
X285002200Y-12000000D01*
X12000000Y-12000000D01*
D10*
D11*
X60000000Y-12000000D02*
X60000000Y-10000000D01*
D10*
D11*
X110000000Y-12000000D02*
X110000000Y-10000000D01*
D10*
D11*
X160000000Y-12000000D02*
X160000000Y-10000000D01*
D10*
D11*
X210000000Y-12000000D02*
X210000000Y-10000000D01*
D10*
D11*
X260000000Y-12000000D02*
X260000000Y-10000000D01*
D10*
D11*
X36065476Y-11588095D02*
X35322619Y-11588095D01*
X35694047Y-11588095D02*
X35694047Y-10288095D01*
X35570238Y-10473809D01*
X35446428Y-10597619D01*
X35322619Y-10659523D01*
D10*
D11*
X85322619Y-10411904D02*
X85384523Y-10350000D01*
X85508333Y-10288095D01*
X85817857Y-10288095D01*
X85941666Y-10350000D01*
X86003571Y-10411904D01*
X86065476Y-10535714D01*
X86065476Y-10659523D01*
X86003571Y-10845238D01*
X85260714Y-11588095D01*
X86065476Y-11588095D01*
D10*
D11*
X135260714Y-10288095D02*
X136065476Y-10288095D01*
X135632142Y-10783333D01*
X135817857Y-10783333D01*
X135941666Y-10845238D01*
X136003571Y-10907142D01*
X136065476Y-11030952D01*
X136065476Y-11340476D01*
X136003571Y-11464285D01*
X135941666Y-11526190D01*
X135817857Y-11588095D01*
X135446428Y-11588095D01*
X135322619Y-11526190D01*
X135260714Y-11464285D01*
D10*
D11*
X185941666Y-10721428D02*
X185941666Y-11588095D01*
X185632142Y-10226190D02*
X185322619Y-11154761D01*
X186127380Y-11154761D01*
D10*
D11*
X236003571Y-10288095D02*
X235384523Y-10288095D01*
X235322619Y-10907142D01*
X235384523Y-10845238D01*
X235508333Y-10783333D01*
X235817857Y-10783333D01*
X235941666Y-10845238D01*
X236003571Y-10907142D01*
X236065476Y-11030952D01*
X236065476Y-11340476D01*
X236003571Y-11464285D01*
X235941666Y-11526190D01*
X235817857Y-11588095D01*
X235508333Y-11588095D01*
X235384523Y-11526190D01*
X235322619Y-11464285D01*
D10*
D11*
X285941666Y-10288095D02*
X285694047Y-10288095D01*
X285570238Y-10350000D01*
X285508333Y-10411904D01*
X285384523Y-10597619D01*
X285322619Y-10845238D01*
X285322619Y-11340476D01*
X285384523Y-11464285D01*
X285446428Y-11526190D01*
X285570238Y-11588095D01*
X285817857Y-11588095D01*
X285941666Y-11526190D01*
X286003571Y-11464285D01*
X286065476Y-11340476D01*
X286065476Y-11030952D01*
X286003571Y-10907142D01*
X285941666Y-10845238D01*
X285817857Y-10783333D01*
X285570238Y-10783333D01*
X285446428Y-10845238D01*
X285384523Y-10907142D01*
X285322619Y-11030952D01*
D10*
D11*
X60000000Y-198007200D02*
X60000000Y-200007200D01*
D10*
D11*
X110000000Y-198007200D02*
X110000000Y-200007200D01*
D10*
D11*
X160000000Y-198007200D02*
X160000000Y-200007200D01*
D10*
D11*
X210000000Y-198007200D02*
X210000000Y-200007200D01*
D10*
D11*
X260000000Y-198007200D02*
X260000000Y-200007200D01*
D10*
D11*
X36065476Y-199595295D02*
X35322619Y-199595295D01*
X35694047Y-199595295D02*
X35694047Y-198295295D01*
X35570238Y-198481009D01*
X35446428Y-198604819D01*
X35322619Y-198666723D01*
D10*
D11*
X85322619Y-198419104D02*
X85384523Y-198357200D01*
X85508333Y-198295295D01*
X85817857Y-198295295D01*
X85941666Y-198357200D01*
X86003571Y-198419104D01*
X86065476Y-198542914D01*
X86065476Y-198666723D01*
X86003571Y-198852438D01*
X85260714Y-199595295D01*
X86065476Y-199595295D01*
D10*
D11*
X135260714Y-198295295D02*
X136065476Y-198295295D01*
X135632142Y-198790533D01*
X135817857Y-198790533D01*
X135941666Y-198852438D01*
X136003571Y-198914342D01*
X136065476Y-199038152D01*
X136065476Y-199347676D01*
X136003571Y-199471485D01*
X135941666Y-199533390D01*
X135817857Y-199595295D01*
X135446428Y-199595295D01*
X135322619Y-199533390D01*
X135260714Y-199471485D01*
D10*
D11*
X185941666Y-198728628D02*
X185941666Y-199595295D01*
X185632142Y-198233390D02*
X185322619Y-199161961D01*
X186127380Y-199161961D01*
D10*
D11*
X236003571Y-198295295D02*
X235384523Y-198295295D01*
X235322619Y-198914342D01*
X235384523Y-198852438D01*
X235508333Y-198790533D01*
X235817857Y-198790533D01*
X235941666Y-198852438D01*
X236003571Y-198914342D01*
X236065476Y-199038152D01*
X236065476Y-199347676D01*
X236003571Y-199471485D01*
X235941666Y-199533390D01*
X235817857Y-199595295D01*
X235508333Y-199595295D01*
X235384523Y-199533390D01*
X235322619Y-199471485D01*
D10*
D11*
X285941666Y-198295295D02*
X285694047Y-198295295D01*
X285570238Y-198357200D01*
X285508333Y-198419104D01*
X285384523Y-198604819D01*
X285322619Y-198852438D01*
X285322619Y-199347676D01*
X285384523Y-199471485D01*
X285446428Y-199533390D01*
X285570238Y-199595295D01*
X285817857Y-199595295D01*
X285941666Y-199533390D01*
X286003571Y-199471485D01*
X286065476Y-199347676D01*
X286065476Y-199038152D01*
X286003571Y-198914342D01*
X285941666Y-198852438D01*
X285817857Y-198790533D01*
X285570238Y-198790533D01*
X285446428Y-198852438D01*
X285384523Y-198914342D01*
X285322619Y-199038152D01*
D10*
D11*
X10000000Y-60000000D02*
X12000000Y-60000000D01*
D10*
D11*
X10000000Y-110000000D02*
X12000000Y-110000000D01*
D10*
D11*
X10000000Y-160000000D02*
X12000000Y-160000000D01*
D10*
D11*
X10690476Y-35216666D02*
X11309523Y-35216666D01*
X10566666Y-35588095D02*
X11000000Y-34288095D01*
X11433333Y-35588095D01*
D10*
D11*
X11092857Y-84907142D02*
X11278571Y-84969047D01*
X11340476Y-85030952D01*
X11402380Y-85154761D01*
X11402380Y-85340476D01*
X11340476Y-85464285D01*
X11278571Y-85526190D01*
X11154761Y-85588095D01*
X10659523Y-85588095D01*
X10659523Y-84288095D01*
X11092857Y-84288095D01*
X11216666Y-84350000D01*
X11278571Y-84411904D01*
X11340476Y-84535714D01*
X11340476Y-84659523D01*
X11278571Y-84783333D01*
X11216666Y-84845238D01*
X11092857Y-84907142D01*
X10659523Y-84907142D01*
D10*
D11*
X11402380Y-135464285D02*
X11340476Y-135526190D01*
X11154761Y-135588095D01*
X11030952Y-135588095D01*
X10845238Y-135526190D01*
X10721428Y-135402380D01*
X10659523Y-135278571D01*
X10597619Y-135030952D01*
X10597619Y-134845238D01*
X10659523Y-134597619D01*
X10721428Y-134473809D01*
X10845238Y-134350000D01*
X11030952Y-134288095D01*
X11154761Y-134288095D01*
X11340476Y-134350000D01*
X11402380Y-134411904D01*
D10*
D11*
X10659523Y-185588095D02*
X10659523Y-184288095D01*
X10969047Y-184288095D01*
X11154761Y-184350000D01*
X11278571Y-184473809D01*
X11340476Y-184597619D01*
X11402380Y-184845238D01*
X11402380Y-185030952D01*
X11340476Y-185278571D01*
X11278571Y-185402380D01*
X11154761Y-185526190D01*
X10969047Y-185588095D01*
X10659523Y-185588095D01*
D10*
D11*
X287002200Y-60000000D02*
X285002200Y-60000000D01*
D10*
D11*
X287002200Y-110000000D02*
X285002200Y-110000000D01*
D10*
D11*
X287002200Y-160000000D02*
X285002200Y-160000000D01*
D10*
D11*
X285692676Y-35216666D02*
X286311723Y-35216666D01*
X285568866Y-35588095D02*
X286002200Y-34288095D01*
X286435533Y-35588095D01*
D10*
D11*
X286095057Y-84907142D02*
X286280771Y-84969047D01*
X286342676Y-85030952D01*
X286404580Y-85154761D01*
X286404580Y-85340476D01*
X286342676Y-85464285D01*
X286280771Y-85526190D01*
X286156961Y-85588095D01*
X285661723Y-85588095D01*
X285661723Y-84288095D01*
X286095057Y-84288095D01*
X286218866Y-84350000D01*
X286280771Y-84411904D01*
X286342676Y-84535714D01*
X286342676Y-84659523D01*
X286280771Y-84783333D01*
X286218866Y-84845238D01*
X286095057Y-84907142D01*
X285661723Y-84907142D01*
D10*
D11*
X286404580Y-135464285D02*
X286342676Y-135526190D01*
X286156961Y-135588095D01*
X286033152Y-135588095D01*
X285847438Y-135526190D01*
X285723628Y-135402380D01*
X285661723Y-135278571D01*
X285599819Y-135030952D01*
X285599819Y-134845238D01*
X285661723Y-134597619D01*
X285723628Y-134473809D01*
X285847438Y-134350000D01*
X286033152Y-134288095D01*
X286156961Y-134288095D01*
X286342676Y-134350000D01*
X286404580Y-134411904D01*
D10*
D11*
X285661723Y-185588095D02*
X285661723Y-184288095D01*
X285971247Y-184288095D01*
X286156961Y-184350000D01*
X286280771Y-184473809D01*
X286342676Y-184597619D01*
X286404580Y-184845238D01*
X286404580Y-185030952D01*
X286342676Y-185278571D01*
X286280771Y-185402380D01*
X286156961Y-185526190D01*
X285971247Y-185588095D01*
X285661723Y-185588095D01*
D10*
D11*
X200434342Y-193785771D02*
X200434342Y-192285771D01*
X200791485Y-192285771D01*
X201005771Y-192357200D01*
X201148628Y-192500057D01*
X201220057Y-192642914D01*
X201291485Y-192928628D01*
X201291485Y-193142914D01*
X201220057Y-193428628D01*
X201148628Y-193571485D01*
X201005771Y-193714342D01*
X200791485Y-193785771D01*
X200434342Y-193785771D01*
X202577200Y-193785771D02*
X202577200Y-193000057D01*
X202505771Y-192857200D01*
X202362914Y-192785771D01*
X202077200Y-192785771D01*
X201934342Y-192857200D01*
X202577200Y-193714342D02*
X202434342Y-193785771D01*
X202077200Y-193785771D01*
X201934342Y-193714342D01*
X201862914Y-193571485D01*
X201862914Y-193428628D01*
X201934342Y-193285771D01*
X202077200Y-193214342D01*
X202434342Y-193214342D01*
X202577200Y-193142914D01*
X203077200Y-192785771D02*
X203648628Y-192785771D01*
X203291485Y-192285771D02*
X203291485Y-193571485D01*
X203362914Y-193714342D01*
X203505771Y-193785771D01*
X203648628Y-193785771D01*
X204720057Y-193714342D02*
X204577200Y-193785771D01*
X204291485Y-193785771D01*
X204148628Y-193714342D01*
X204077200Y-193571485D01*
X204077200Y-193000057D01*
X204148628Y-192857200D01*
X204291485Y-192785771D01*
X204577200Y-192785771D01*
X204720057Y-192857200D01*
X204791485Y-193000057D01*
X204791485Y-193142914D01*
X204077200Y-193285771D01*
X205434342Y-193642914D02*
X205505771Y-193714342D01*
X205434342Y-193785771D01*
X205362914Y-193714342D01*
X205434342Y-193642914D01*
X205434342Y-193785771D01*
X205434342Y-192857200D02*
X205505771Y-192928628D01*
X205434342Y-193000057D01*
X205362914Y-192928628D01*
X205434342Y-192857200D01*
X205434342Y-193000057D01*
X207220057Y-192428628D02*
X207291485Y-192357200D01*
X207434342Y-192285771D01*
X207791485Y-192285771D01*
X207934342Y-192357200D01*
X208005771Y-192428628D01*
X208077200Y-192571485D01*
X208077200Y-192714342D01*
X208005771Y-192928628D01*
X207148628Y-193785771D01*
X208077200Y-193785771D01*
X209005771Y-192285771D02*
X209148628Y-192285771D01*
X209291485Y-192357200D01*
X209362914Y-192428628D01*
X209434342Y-192571485D01*
X209505771Y-192857200D01*
X209505771Y-193214342D01*
X209434342Y-193500057D01*
X209362914Y-193642914D01*
X209291485Y-193714342D01*
X209148628Y-193785771D01*
X209005771Y-193785771D01*
X208862914Y-193714342D01*
X208791485Y-193642914D01*
X208720057Y-193500057D01*
X208648628Y-193214342D01*
X208648628Y-192857200D01*
X208720057Y-192571485D01*
X208791485Y-192428628D01*
X208862914Y-192357200D01*
X209005771Y-192285771D01*
X210077200Y-192428628D02*
X210148628Y-192357200D01*
X210291485Y-192285771D01*
X210648628Y-192285771D01*
X210791485Y-192357200D01*
X210862914Y-192428628D01*
X210934342Y-192571485D01*
X210934342Y-192714342D01*
X210862914Y-192928628D01*
X210005771Y-193785771D01*
X210934342Y-193785771D01*
X211505771Y-192428628D02*
X211577200Y-192357200D01*
X211720057Y-192285771D01*
X212077200Y-192285771D01*
X212220057Y-192357200D01*
X212291485Y-192428628D01*
X212362914Y-192571485D01*
X212362914Y-192714342D01*
X212291485Y-192928628D01*
X211434342Y-193785771D01*
X212362914Y-193785771D01*
X213005771Y-193214342D02*
X214148628Y-193214342D01*
X215648628Y-193785771D02*
X214791485Y-193785771D01*
X215220057Y-193785771D02*
X215220057Y-192285771D01*
X215077200Y-192500057D01*
X214934342Y-192642914D01*
X214791485Y-192714342D01*
X217077200Y-193785771D02*
X216220057Y-193785771D01*
X216648628Y-193785771D02*
X216648628Y-192285771D01*
X216505771Y-192500057D01*
X216362914Y-192642914D01*
X216220057Y-192714342D01*
X217720057Y-193214342D02*
X218862914Y-193214342D01*
X220362914Y-193785771D02*
X219505771Y-193785771D01*
X219934342Y-193785771D02*
X219934342Y-192285771D01*
X219791485Y-192500057D01*
X219648628Y-192642914D01*
X219505771Y-192714342D01*
X221291485Y-192285771D02*
X221434342Y-192285771D01*
X221577200Y-192357200D01*
X221648628Y-192428628D01*
X221720057Y-192571485D01*
X221791485Y-192857200D01*
X221791485Y-193214342D01*
X221720057Y-193500057D01*
X221648628Y-193642914D01*
X221577200Y-193714342D01*
X221434342Y-193785771D01*
X221291485Y-193785771D01*
X221148628Y-193714342D01*
X221077200Y-193642914D01*
X221005771Y-193500057D01*
X220934342Y-193214342D01*
X220934342Y-192857200D01*
X221005771Y-192571485D01*
X221077200Y-192428628D01*
X221148628Y-192357200D01*
X221291485Y-192285771D01*
D10*
D11*
X177002200Y-194507200D02*
X285002200Y-194507200D01*
D10*
D11*
X178434342Y-196585771D02*
X178434342Y-195085771D01*
X179291485Y-196585771D02*
X178648628Y-195728628D01*
X179291485Y-195085771D02*
X178434342Y-195942914D01*
X179934342Y-196585771D02*
X179934342Y-195585771D01*
X179934342Y-195085771D02*
X179862914Y-195157200D01*
X179934342Y-195228628D01*
X180005771Y-195157200D01*
X179934342Y-195085771D01*
X179934342Y-195228628D01*
X181505771Y-196442914D02*
X181434342Y-196514342D01*
X181220057Y-196585771D01*
X181077200Y-196585771D01*
X180862914Y-196514342D01*
X180720057Y-196371485D01*
X180648628Y-196228628D01*
X180577200Y-195942914D01*
X180577200Y-195728628D01*
X180648628Y-195442914D01*
X180720057Y-195300057D01*
X180862914Y-195157200D01*
X181077200Y-195085771D01*
X181220057Y-195085771D01*
X181434342Y-195157200D01*
X181505771Y-195228628D01*
X182791485Y-196585771D02*
X182791485Y-195800057D01*
X182720057Y-195657200D01*
X182577200Y-195585771D01*
X182291485Y-195585771D01*
X182148628Y-195657200D01*
X182791485Y-196514342D02*
X182648628Y-196585771D01*
X182291485Y-196585771D01*
X182148628Y-196514342D01*
X182077200Y-196371485D01*
X182077200Y-196228628D01*
X182148628Y-196085771D01*
X182291485Y-196014342D01*
X182648628Y-196014342D01*
X182791485Y-195942914D01*
X184148628Y-196585771D02*
X184148628Y-195085771D01*
X184148628Y-196514342D02*
X184005771Y-196585771D01*
X183720057Y-196585771D01*
X183577200Y-196514342D01*
X183505771Y-196442914D01*
X183434342Y-196300057D01*
X183434342Y-195871485D01*
X183505771Y-195728628D01*
X183577200Y-195657200D01*
X183720057Y-195585771D01*
X184005771Y-195585771D01*
X184148628Y-195657200D01*
X186005771Y-195800057D02*
X186505771Y-195800057D01*
X186720057Y-196585771D02*
X186005771Y-196585771D01*
X186005771Y-195085771D01*
X186720057Y-195085771D01*
X187362914Y-196442914D02*
X187434342Y-196514342D01*
X187362914Y-196585771D01*
X187291485Y-196514342D01*
X187362914Y-196442914D01*
X187362914Y-196585771D01*
X188077200Y-196585771D02*
X188077200Y-195085771D01*
X188434342Y-195085771D01*
X188648628Y-195157200D01*
X188791485Y-195300057D01*
X188862914Y-195442914D01*
X188934342Y-195728628D01*
X188934342Y-195942914D01*
X188862914Y-196228628D01*
X188791485Y-196371485D01*
X188648628Y-196514342D01*
X188434342Y-196585771D01*
X188077200Y-196585771D01*
X189577200Y-196442914D02*
X189648628Y-196514342D01*
X189577200Y-196585771D01*
X189505771Y-196514342D01*
X189577200Y-196442914D01*
X189577200Y-196585771D01*
X190220057Y-196157200D02*
X190934342Y-196157200D01*
X190077200Y-196585771D02*
X190577200Y-195085771D01*
X191077200Y-196585771D01*
X191577200Y-196442914D02*
X191648628Y-196514342D01*
X191577200Y-196585771D01*
X191505771Y-196514342D01*
X191577200Y-196442914D01*
X191577200Y-196585771D01*
X194577200Y-196585771D02*
X194577200Y-195085771D01*
X194720057Y-196014342D02*
X195148628Y-196585771D01*
X195148628Y-195585771D02*
X194577200Y-196157200D01*
X195791485Y-196585771D02*
X195791485Y-195585771D01*
X195791485Y-195085771D02*
X195720057Y-195157200D01*
X195791485Y-195228628D01*
X195862914Y-195157200D01*
X195791485Y-195085771D01*
X195791485Y-195228628D01*
X197148628Y-196514342D02*
X197005771Y-196585771D01*
X196720057Y-196585771D01*
X196577200Y-196514342D01*
X196505771Y-196442914D01*
X196434342Y-196300057D01*
X196434342Y-195871485D01*
X196505771Y-195728628D01*
X196577200Y-195657200D01*
X196720057Y-195585771D01*
X197005771Y-195585771D01*
X197148628Y-195657200D01*
X198434342Y-196585771D02*
X198434342Y-195800057D01*
X198362914Y-195657200D01*
X198220057Y-195585771D01*
X197934342Y-195585771D01*
X197791485Y-195657200D01*
X198434342Y-196514342D02*
X198291485Y-196585771D01*
X197934342Y-196585771D01*
X197791485Y-196514342D01*
X197720057Y-196371485D01*
X197720057Y-196228628D01*
X197791485Y-196085771D01*
X197934342Y-196014342D01*
X198291485Y-196014342D01*
X198434342Y-195942914D01*
X199791485Y-196585771D02*
X199791485Y-195085771D01*
X199791485Y-196514342D02*
X199648628Y-196585771D01*
X199362914Y-196585771D01*
X199220057Y-196514342D01*
X199148628Y-196442914D01*
X199077200Y-196300057D01*
X199077200Y-195871485D01*
X199148628Y-195728628D01*
X199220057Y-195657200D01*
X199362914Y-195585771D01*
X199648628Y-195585771D01*
X199791485Y-195657200D01*
X202077200Y-197157200D02*
X202005771Y-197085771D01*
X201862914Y-196871485D01*
X201791485Y-196728628D01*
X201720057Y-196514342D01*
X201648628Y-196157200D01*
X201648628Y-195871485D01*
X201720057Y-195514342D01*
X201791485Y-195300057D01*
X201862914Y-195157200D01*
X202005771Y-194942914D01*
X202077200Y-194871485D01*
X203291485Y-195085771D02*
X203005771Y-195085771D01*
X202862914Y-195157200D01*
X202791485Y-195228628D01*
X202648628Y-195442914D01*
X202577200Y-195728628D01*
X202577200Y-196300057D01*
X202648628Y-196442914D01*
X202720057Y-196514342D01*
X202862914Y-196585771D01*
X203148628Y-196585771D01*
X203291485Y-196514342D01*
X203362914Y-196442914D01*
X203434342Y-196300057D01*
X203434342Y-195942914D01*
X203362914Y-195800057D01*
X203291485Y-195728628D01*
X203148628Y-195657200D01*
X202862914Y-195657200D01*
X202720057Y-195728628D01*
X202648628Y-195800057D01*
X202577200Y-195942914D01*
X204077200Y-196442914D02*
X204148628Y-196514342D01*
X204077200Y-196585771D01*
X204005771Y-196514342D01*
X204077200Y-196442914D01*
X204077200Y-196585771D01*
X205077200Y-195085771D02*
X205220057Y-195085771D01*
X205362914Y-195157200D01*
X205434342Y-195228628D01*
X205505771Y-195371485D01*
X205577200Y-195657200D01*
X205577200Y-196014342D01*
X205505771Y-196300057D01*
X205434342Y-196442914D01*
X205362914Y-196514342D01*
X205220057Y-196585771D01*
X205077200Y-196585771D01*
X204934342Y-196514342D01*
X204862914Y-196442914D01*
X204791485Y-196300057D01*
X204720057Y-196014342D01*
X204720057Y-195657200D01*
X204791485Y-195371485D01*
X204862914Y-195228628D01*
X204934342Y-195157200D01*
X205077200Y-195085771D01*
X206220057Y-196442914D02*
X206291485Y-196514342D01*
X206220057Y-196585771D01*
X206148628Y-196514342D01*
X206220057Y-196442914D01*
X206220057Y-196585771D01*
X206791485Y-195085771D02*
X207791485Y-195085771D01*
X207148628Y-196585771D01*
X208220057Y-197157200D02*
X208291485Y-197085771D01*
X208434342Y-196871485D01*
X208505771Y-196728628D01*
X208577200Y-196514342D01*
X208648628Y-196157200D01*
X208648628Y-195871485D01*
X208577200Y-195514342D01*
X208505771Y-195300057D01*
X208434342Y-195157200D01*
X208291485Y-194942914D01*
X208220057Y-194871485D01*
D10*
D11*
X177002200Y-191507200D02*
X285002200Y-191507200D01*
D10*
D12*
X264411485Y-193785771D02*
X263911485Y-193071485D01*
X263554342Y-193785771D02*
X263554342Y-192285771D01*
X264125771Y-192285771D01*
X264268628Y-192357200D01*
X264340057Y-192428628D01*
X264411485Y-192571485D01*
X264411485Y-192785771D01*
X264340057Y-192928628D01*
X264268628Y-193000057D01*
X264125771Y-193071485D01*
X263554342Y-193071485D01*
X265625771Y-193714342D02*
X265482914Y-193785771D01*
X265197200Y-193785771D01*
X265054342Y-193714342D01*
X264982914Y-193571485D01*
X264982914Y-193000057D01*
X265054342Y-192857200D01*
X265197200Y-192785771D01*
X265482914Y-192785771D01*
X265625771Y-192857200D01*
X265697200Y-193000057D01*
X265697200Y-193142914D01*
X264982914Y-193285771D01*
X266197200Y-192785771D02*
X266554342Y-193785771D01*
X266911485Y-192785771D01*
X267482914Y-193642914D02*
X267554342Y-193714342D01*
X267482914Y-193785771D01*
X267411485Y-193714342D01*
X267482914Y-193642914D01*
X267482914Y-193785771D01*
X267482914Y-192857200D02*
X267554342Y-192928628D01*
X267482914Y-193000057D01*
X267411485Y-192928628D01*
X267482914Y-192857200D01*
X267482914Y-193000057D01*
X269197200Y-192785771D02*
X269554342Y-193785771D01*
X269911485Y-192785771D01*
X271268628Y-193785771D02*
X270411485Y-193785771D01*
X270840057Y-193785771D02*
X270840057Y-192285771D01*
X270697200Y-192500057D01*
X270554342Y-192642914D01*
X270411485Y-192714342D01*
X271911485Y-193642914D02*
X271982914Y-193714342D01*
X271911485Y-193785771D01*
X271840057Y-193714342D01*
X271911485Y-193642914D01*
X271911485Y-193785771D01*
X272482914Y-192285771D02*
X273411485Y-192285771D01*
X272911485Y-192857200D01*
X273125771Y-192857200D01*
X273268628Y-192928628D01*
X273340057Y-193000057D01*
X273411485Y-193142914D01*
X273411485Y-193500057D01*
X273340057Y-193642914D01*
X273268628Y-193714342D01*
X273125771Y-193785771D01*
X272697200Y-193785771D01*
X272554342Y-193714342D01*
X272482914Y-193642914D01*
D10*
D11*
X178362914Y-193714342D02*
X178577200Y-193785771D01*
X178934342Y-193785771D01*
X179077200Y-193714342D01*
X179148628Y-193642914D01*
X179220057Y-193500057D01*
X179220057Y-193357200D01*
X179148628Y-193214342D01*
X179077200Y-193142914D01*
X178934342Y-193071485D01*
X178648628Y-193000057D01*
X178505771Y-192928628D01*
X178434342Y-192857200D01*
X178362914Y-192714342D01*
X178362914Y-192571485D01*
X178434342Y-192428628D01*
X178505771Y-192357200D01*
X178648628Y-192285771D01*
X179005771Y-192285771D01*
X179220057Y-192357200D01*
X179862914Y-193785771D02*
X179862914Y-192785771D01*
X179862914Y-192285771D02*
X179791485Y-192357200D01*
X179862914Y-192428628D01*
X179934342Y-192357200D01*
X179862914Y-192285771D01*
X179862914Y-192428628D01*
X180434342Y-192785771D02*
X181220057Y-192785771D01*
X180434342Y-193785771D01*
X181220057Y-193785771D01*
X182362914Y-193714342D02*
X182220057Y-193785771D01*
X181934342Y-193785771D01*
X181791485Y-193714342D01*
X181720057Y-193571485D01*
X181720057Y-193000057D01*
X181791485Y-192857200D01*
X181934342Y-192785771D01*
X182220057Y-192785771D01*
X182362914Y-192857200D01*
X182434342Y-193000057D01*
X182434342Y-193142914D01*
X181720057Y-193285771D01*
X183077200Y-193642914D02*
X183148628Y-193714342D01*
X183077200Y-193785771D01*
X183005771Y-193714342D01*
X183077200Y-193642914D01*
X183077200Y-193785771D01*
X183077200Y-192857200D02*
X183148628Y-192928628D01*
X183077200Y-193000057D01*
X183005771Y-192928628D01*
X183077200Y-192857200D01*
X183077200Y-193000057D01*
X184862914Y-193357200D02*
X185577200Y-193357200D01*
X184720057Y-193785771D02*
X185220057Y-192285771D01*
X185720057Y-193785771D01*
X186862914Y-192785771D02*
X186862914Y-193785771D01*
X186505771Y-192214342D02*
X186148628Y-193285771D01*
X187077200Y-193285771D01*
D10*
D11*
X263434342Y-196585771D02*
X263434342Y-195085771D01*
X264791485Y-196585771D02*
X264791485Y-195085771D01*
X264791485Y-196514342D02*
X264648628Y-196585771D01*
X264362914Y-196585771D01*
X264220057Y-196514342D01*
X264148628Y-196442914D01*
X264077200Y-196300057D01*
X264077200Y-195871485D01*
X264148628Y-195728628D01*
X264220057Y-195657200D01*
X264362914Y-195585771D01*
X264648628Y-195585771D01*
X264791485Y-195657200D01*
X265505771Y-196442914D02*
X265577200Y-196514342D01*
X265505771Y-196585771D01*
X265434342Y-196514342D01*
X265505771Y-196442914D01*
X265505771Y-196585771D01*
X265505771Y-195657200D02*
X265577200Y-195728628D01*
X265505771Y-195800057D01*
X265434342Y-195728628D01*
X265505771Y-195657200D01*
X265505771Y-195800057D01*
X268148628Y-196585771D02*
X267291485Y-196585771D01*
X267720057Y-196585771D02*
X267720057Y-195085771D01*
X267577200Y-195300057D01*
X267434342Y-195442914D01*
X267291485Y-195514342D01*
X269862914Y-195014342D02*
X268577200Y-196942914D01*
X271148628Y-196585771D02*
X270291485Y-196585771D01*
X270720057Y-196585771D02*
X270720057Y-195085771D01*
X270577200Y-195300057D01*
X270434342Y-195442914D01*
X270291485Y-195514342D01*
D10*
D11*
X177002200Y-187507200D02*
X285002200Y-187507200D01*
D10*
D13*
X178714580Y-188211961D02*
X179857438Y-188211961D01*
X179036009Y-190211961D02*
X179286009Y-188211961D01*
X180274104Y-190211961D02*
X180440771Y-188878628D01*
X180524104Y-188211961D02*
X180416961Y-188307200D01*
X180500295Y-188402438D01*
X180607438Y-188307200D01*
X180524104Y-188211961D01*
X180500295Y-188402438D01*
X181107438Y-188878628D02*
X181869342Y-188878628D01*
X181476485Y-188211961D02*
X181262200Y-189926247D01*
X181333628Y-190116723D01*
X181512200Y-190211961D01*
X181702676Y-190211961D01*
X182655057Y-190211961D02*
X182476485Y-190116723D01*
X182405057Y-189926247D01*
X182619342Y-188211961D01*
X184190771Y-190116723D02*
X183988390Y-190211961D01*
X183607438Y-190211961D01*
X183428866Y-190116723D01*
X183357438Y-189926247D01*
X183452676Y-189164342D01*
X183571723Y-188973866D01*
X183774104Y-188878628D01*
X184155057Y-188878628D01*
X184333628Y-188973866D01*
X184405057Y-189164342D01*
X184381247Y-189354819D01*
X183405057Y-189545295D01*
X185155057Y-190021485D02*
X185238390Y-190116723D01*
X185131247Y-190211961D01*
X185047914Y-190116723D01*
X185155057Y-190021485D01*
X185131247Y-190211961D01*
X185286009Y-188973866D02*
X185369342Y-189069104D01*
X185262200Y-189164342D01*
X185178866Y-189069104D01*
X185286009Y-188973866D01*
X185262200Y-189164342D01*
X187857438Y-188211961D02*
X187655057Y-189831009D01*
X187726485Y-190021485D01*
X187809819Y-190116723D01*
X187988390Y-190211961D01*
X188369342Y-190211961D01*
X188571723Y-190116723D01*
X188678866Y-190021485D01*
X188797914Y-189831009D01*
X189000295Y-188211961D01*
X189619342Y-190116723D02*
X189893152Y-190211961D01*
X190369342Y-190211961D01*
X190571723Y-190116723D01*
X190678866Y-190021485D01*
X190797914Y-189831009D01*
X190821723Y-189640533D01*
X190750295Y-189450057D01*
X190666961Y-189354819D01*
X190488390Y-189259580D01*
X190119342Y-189164342D01*
X189940771Y-189069104D01*
X189857438Y-188973866D01*
X189786009Y-188783390D01*
X189809819Y-188592914D01*
X189928866Y-188402438D01*
X190036009Y-188307200D01*
X190238390Y-188211961D01*
X190714580Y-188211961D01*
X190988390Y-188307200D01*
X191607438Y-190211961D02*
X191857438Y-188211961D01*
X192345533Y-189640533D01*
X193190771Y-188211961D01*
X192940771Y-190211961D01*
X195036009Y-190211961D02*
X194488390Y-189259580D01*
X193893152Y-190211961D02*
X194143152Y-188211961D01*
X194905057Y-188211961D01*
X195083628Y-188307200D01*
X195166961Y-188402438D01*
X195238390Y-188592914D01*
X195202676Y-188878628D01*
X195083628Y-189069104D01*
X194976485Y-189164342D01*
X194774104Y-189259580D01*
X194012200Y-189259580D01*
X197547914Y-189164342D02*
X198214580Y-189164342D01*
X198369342Y-190211961D02*
X197416961Y-190211961D01*
X197666961Y-188211961D01*
X198619342Y-188211961D01*
X199393152Y-188878628D02*
X199226485Y-190211961D01*
X199369342Y-189069104D02*
X199476485Y-188973866D01*
X199678866Y-188878628D01*
X199964580Y-188878628D01*
X200143152Y-188973866D01*
X200214580Y-189164342D01*
X200083628Y-190211961D01*
X202059819Y-188878628D02*
X201857438Y-190497676D01*
X201738390Y-190688152D01*
X201631247Y-190783390D01*
X201428866Y-190878628D01*
X201143152Y-190878628D01*
X200964580Y-190783390D01*
X201905057Y-190116723D02*
X201702676Y-190211961D01*
X201321723Y-190211961D01*
X201143152Y-190116723D01*
X201059819Y-190021485D01*
X200988390Y-189831009D01*
X201059819Y-189259580D01*
X201178866Y-189069104D01*
X201286009Y-188973866D01*
X201488390Y-188878628D01*
X201869342Y-188878628D01*
X202047914Y-188973866D01*
X202845533Y-190211961D02*
X203012200Y-188878628D01*
X203095533Y-188211961D02*
X202988390Y-188307200D01*
X203071723Y-188402438D01*
X203178866Y-188307200D01*
X203095533Y-188211961D01*
X203071723Y-188402438D01*
X203964580Y-188878628D02*
X203797914Y-190211961D01*
X203940771Y-189069104D02*
X204047914Y-188973866D01*
X204250295Y-188878628D01*
X204536009Y-188878628D01*
X204714580Y-188973866D01*
X204786009Y-189164342D01*
X204655057Y-190211961D01*
X206381247Y-190116723D02*
X206178866Y-190211961D01*
X205797914Y-190211961D01*
X205619342Y-190116723D01*
X205547914Y-189926247D01*
X205643152Y-189164342D01*
X205762200Y-188973866D01*
X205964580Y-188878628D01*
X206345533Y-188878628D01*
X206524104Y-188973866D01*
X206595533Y-189164342D01*
X206571723Y-189354819D01*
X205595533Y-189545295D01*
X208095533Y-190116723D02*
X207893152Y-190211961D01*
X207512200Y-190211961D01*
X207333628Y-190116723D01*
X207262200Y-189926247D01*
X207357438Y-189164342D01*
X207476485Y-188973866D01*
X207678866Y-188878628D01*
X208059819Y-188878628D01*
X208238390Y-188973866D01*
X208309819Y-189164342D01*
X208286009Y-189354819D01*
X207309819Y-189545295D01*
X209036009Y-190211961D02*
X209202676Y-188878628D01*
X209155057Y-189259580D02*
X209274104Y-189069104D01*
X209381247Y-188973866D01*
X209583628Y-188878628D01*
X209774104Y-188878628D01*
X210274104Y-190211961D02*
X210440771Y-188878628D01*
X210524104Y-188211961D02*
X210416961Y-188307200D01*
X210500295Y-188402438D01*
X210607438Y-188307200D01*
X210524104Y-188211961D01*
X210500295Y-188402438D01*
X211393152Y-188878628D02*
X211226485Y-190211961D01*
X211369342Y-189069104D02*
X211476485Y-188973866D01*
X211678866Y-188878628D01*
X211964580Y-188878628D01*
X212143152Y-188973866D01*
X212214580Y-189164342D01*
X212083628Y-190211961D01*
X214059819Y-188878628D02*
X213857438Y-190497676D01*
X213738390Y-190688152D01*
X213631247Y-190783390D01*
X213428866Y-190878628D01*
X213143152Y-190878628D01*
X212964580Y-190783390D01*
X213905057Y-190116723D02*
X213702676Y-190211961D01*
X213321723Y-190211961D01*
X213143152Y-190116723D01*
X213059819Y-190021485D01*
X212988390Y-189831009D01*
X213059819Y-189259580D01*
X213178866Y-189069104D01*
X213286009Y-188973866D01*
X213488390Y-188878628D01*
X213869342Y-188878628D01*
X214047914Y-188973866D01*
X217166961Y-189164342D02*
X217440771Y-189259580D01*
X217524104Y-189354819D01*
X217595533Y-189545295D01*
X217559819Y-189831009D01*
X217440771Y-190021485D01*
X217333628Y-190116723D01*
X217131247Y-190211961D01*
X216369342Y-190211961D01*
X216619342Y-188211961D01*
X217286009Y-188211961D01*
X217464580Y-188307200D01*
X217547914Y-188402438D01*
X217619342Y-188592914D01*
X217595533Y-188783390D01*
X217476485Y-188973866D01*
X217369342Y-189069104D01*
X217166961Y-189164342D01*
X216500295Y-189164342D01*
X218655057Y-190211961D02*
X218476485Y-190116723D01*
X218393152Y-190021485D01*
X218321723Y-189831009D01*
X218393152Y-189259580D01*
X218512200Y-189069104D01*
X218619342Y-188973866D01*
X218821723Y-188878628D01*
X219107438Y-188878628D01*
X219286009Y-188973866D01*
X219369342Y-189069104D01*
X219440771Y-189259580D01*
X219369342Y-189831009D01*
X219250295Y-190021485D01*
X219143152Y-190116723D01*
X218940771Y-190211961D01*
X218655057Y-190211961D01*
X221036009Y-190211961D02*
X221166961Y-189164342D01*
X221095533Y-188973866D01*
X220916961Y-188878628D01*
X220536009Y-188878628D01*
X220333628Y-188973866D01*
X221047914Y-190116723D02*
X220845533Y-190211961D01*
X220369342Y-190211961D01*
X220190771Y-190116723D01*
X220119342Y-189926247D01*
X220143152Y-189735771D01*
X220262200Y-189545295D01*
X220464580Y-189450057D01*
X220940771Y-189450057D01*
X221143152Y-189354819D01*
X221988390Y-190211961D02*
X222155057Y-188878628D01*
X222107438Y-189259580D02*
X222226485Y-189069104D01*
X222333628Y-188973866D01*
X222536009Y-188878628D01*
X222726485Y-188878628D01*
X224083628Y-190211961D02*
X224333628Y-188211961D01*
X224095533Y-190116723D02*
X223893152Y-190211961D01*
X223512199Y-190211961D01*
X223333628Y-190116723D01*
X223250295Y-190021485D01*
X223178866Y-189831009D01*
X223250295Y-189259580D01*
X223369342Y-189069104D01*
X223476485Y-188973866D01*
X223678866Y-188878628D01*
X224059819Y-188878628D01*
X224238390Y-188973866D01*
D10*
D11*
X178934342Y-185600057D02*
X178434342Y-185600057D01*
X178434342Y-186385771D02*
X178434342Y-184885771D01*
X179148628Y-184885771D01*
X179720057Y-186385771D02*
X179720057Y-185385771D01*
X179720057Y-184885771D02*
X179648628Y-184957200D01*
X179720057Y-185028628D01*
X179791485Y-184957200D01*
X179720057Y-184885771D01*
X179720057Y-185028628D01*
X180648628Y-186385771D02*
X180505771Y-186314342D01*
X180434342Y-186171485D01*
X180434342Y-184885771D01*
X181791485Y-186314342D02*
X181648628Y-186385771D01*
X181362914Y-186385771D01*
X181220057Y-186314342D01*
X181148628Y-186171485D01*
X181148628Y-185600057D01*
X181220057Y-185457200D01*
X181362914Y-185385771D01*
X181648628Y-185385771D01*
X181791485Y-185457200D01*
X181862914Y-185600057D01*
X181862914Y-185742914D01*
X181148628Y-185885771D01*
X182505771Y-186242914D02*
X182577200Y-186314342D01*
X182505771Y-186385771D01*
X182434342Y-186314342D01*
X182505771Y-186242914D01*
X182505771Y-186385771D01*
X182505771Y-185457200D02*
X182577200Y-185528628D01*
X182505771Y-185600057D01*
X182434342Y-185528628D01*
X182505771Y-185457200D01*
X182505771Y-185600057D01*
X184362914Y-186385771D02*
X184362914Y-184885771D01*
X184720057Y-184885771D01*
X184934342Y-184957200D01*
X185077200Y-185100057D01*
X185148628Y-185242914D01*
X185220057Y-185528628D01*
X185220057Y-185742914D01*
X185148628Y-186028628D01*
X185077200Y-186171485D01*
X184934342Y-186314342D01*
X184720057Y-186385771D01*
X184362914Y-186385771D01*
X186720057Y-186242914D02*
X186648628Y-186314342D01*
X186434342Y-186385771D01*
X186291485Y-186385771D01*
X186077200Y-186314342D01*
X185934342Y-186171485D01*
X185862914Y-186028628D01*
X185791485Y-185742914D01*
X185791485Y-185528628D01*
X185862914Y-185242914D01*
X185934342Y-185100057D01*
X186077200Y-184957200D01*
X186291485Y-184885771D01*
X186434342Y-184885771D01*
X186648628Y-184957200D01*
X186720057Y-185028628D01*
X187291485Y-185957200D02*
X188005771Y-185957200D01*
X187148628Y-186385771D02*
X187648628Y-184885771D01*
X188148628Y-186385771D01*
X188291485Y-186528628D02*
X189434342Y-186528628D01*
X189791485Y-184885771D02*
X189791485Y-186100057D01*
X189862914Y-186242914D01*
X189934342Y-186314342D01*
X190077200Y-186385771D01*
X190362914Y-186385771D01*
X190505771Y-186314342D01*
X190577200Y-186242914D01*
X190648628Y-186100057D01*
X190648628Y-184885771D01*
X191291485Y-186314342D02*
X191505771Y-186385771D01*
X191862914Y-186385771D01*
X192005771Y-186314342D01*
X192077200Y-186242914D01*
X192148628Y-186100057D01*
X192148628Y-185957200D01*
X192077200Y-185814342D01*
X192005771Y-185742914D01*
X191862914Y-185671485D01*
X191577200Y-185600057D01*
X191434342Y-185528628D01*
X191362914Y-185457200D01*
X191291485Y-185314342D01*
X191291485Y-185171485D01*
X191362914Y-185028628D01*
X191434342Y-184957200D01*
X191577200Y-184885771D01*
X191934342Y-184885771D01*
X192148628Y-184957200D01*
X192791485Y-186385771D02*
X192791485Y-184885771D01*
X193291485Y-185957200D01*
X193791485Y-184885771D01*
X193791485Y-186385771D01*
X195362914Y-186385771D02*
X194862914Y-185671485D01*
X194505771Y-186385771D02*
X194505771Y-184885771D01*
X195077200Y-184885771D01*
X195220057Y-184957200D01*
X195291485Y-185028628D01*
X195362914Y-185171485D01*
X195362914Y-185385771D01*
X195291485Y-185528628D01*
X195220057Y-185600057D01*
X195077200Y-185671485D01*
X194505771Y-185671485D01*
X195648628Y-186528628D02*
X196791485Y-186528628D01*
X197077200Y-186314342D02*
X197220057Y-186385771D01*
X197505771Y-186385771D01*
X197648628Y-186314342D01*
X197720057Y-186171485D01*
X197720057Y-186100057D01*
X197648628Y-185957200D01*
X197505771Y-185885771D01*
X197291485Y-185885771D01*
X197148628Y-185814342D01*
X197077200Y-185671485D01*
X197077200Y-185600057D01*
X197148628Y-185457200D01*
X197291485Y-185385771D01*
X197505771Y-185385771D01*
X197648628Y-185457200D01*
X199005771Y-186314342D02*
X198862914Y-186385771D01*
X198577200Y-186385771D01*
X198434342Y-186314342D01*
X198362914Y-186242914D01*
X198291485Y-186100057D01*
X198291485Y-185671485D01*
X198362914Y-185528628D01*
X198434342Y-185457200D01*
X198577200Y-185385771D01*
X198862914Y-185385771D01*
X199005771Y-185457200D01*
X199648628Y-186385771D02*
X199648628Y-184885771D01*
X200291485Y-186385771D02*
X200291485Y-185600057D01*
X200220057Y-185457200D01*
X200077200Y-185385771D01*
X199862914Y-185385771D01*
X199720057Y-185457200D01*
X199648628Y-185528628D01*
X201005771Y-186242914D02*
X201077200Y-186314342D01*
X201005771Y-186385771D01*
X200934342Y-186314342D01*
X201005771Y-186242914D01*
X201005771Y-186385771D01*
X201720057Y-186385771D02*
X201720057Y-184885771D01*
X201862914Y-185814342D02*
X202291485Y-186385771D01*
X202291485Y-185385771D02*
X201720057Y-185957200D01*
X202934342Y-186385771D02*
X202934342Y-185385771D01*
X202934342Y-184885771D02*
X202862914Y-184957200D01*
X202934342Y-185028628D01*
X203005771Y-184957200D01*
X202934342Y-184885771D01*
X202934342Y-185028628D01*
X204291485Y-186314342D02*
X204148628Y-186385771D01*
X203862914Y-186385771D01*
X203720057Y-186314342D01*
X203648628Y-186242914D01*
X203577200Y-186100057D01*
X203577200Y-185671485D01*
X203648628Y-185528628D01*
X203720057Y-185457200D01*
X203862914Y-185385771D01*
X204148628Y-185385771D01*
X204291485Y-185457200D01*
X205577200Y-186385771D02*
X205577200Y-185600057D01*
X205505771Y-185457200D01*
X205362914Y-185385771D01*
X205077200Y-185385771D01*
X204934342Y-185457200D01*
X205577200Y-186314342D02*
X205434342Y-186385771D01*
X205077200Y-186385771D01*
X204934342Y-186314342D01*
X204862914Y-186171485D01*
X204862914Y-186028628D01*
X204934342Y-185885771D01*
X205077200Y-185814342D01*
X205434342Y-185814342D01*
X205577200Y-185742914D01*
X206934342Y-186385771D02*
X206934342Y-184885771D01*
X206934342Y-186314342D02*
X206791485Y-186385771D01*
X206505771Y-186385771D01*
X206362914Y-186314342D01*
X206291485Y-186242914D01*
X206220057Y-186100057D01*
X206220057Y-185671485D01*
X206291485Y-185528628D01*
X206362914Y-185457200D01*
X206505771Y-185385771D01*
X206791485Y-185385771D01*
X206934342Y-185457200D01*
X207291485Y-186528628D02*
X208434342Y-186528628D01*
X208791485Y-185385771D02*
X208791485Y-186885771D01*
X208791485Y-185457200D02*
X208934342Y-185385771D01*
X209220057Y-185385771D01*
X209362914Y-185457200D01*
X209434342Y-185528628D01*
X209505771Y-185671485D01*
X209505771Y-186100057D01*
X209434342Y-186242914D01*
X209362914Y-186314342D01*
X209220057Y-186385771D01*
X208934342Y-186385771D01*
X208791485Y-186314342D01*
X210791485Y-186314342D02*
X210648628Y-186385771D01*
X210362914Y-186385771D01*
X210220057Y-186314342D01*
X210148628Y-186242914D01*
X210077200Y-186100057D01*
X210077200Y-185671485D01*
X210148628Y-185528628D01*
X210220057Y-185457200D01*
X210362914Y-185385771D01*
X210648628Y-185385771D01*
X210791485Y-185457200D01*
X211434342Y-186385771D02*
X211434342Y-184885771D01*
X211434342Y-185457200D02*
X211577200Y-185385771D01*
X211862914Y-185385771D01*
X212005771Y-185457200D01*
X212077200Y-185528628D01*
X212148628Y-185671485D01*
X212148628Y-186100057D01*
X212077200Y-186242914D01*
X212005771Y-186314342D01*
X211862914Y-186385771D01*
X211577200Y-186385771D01*
X211434342Y-186314342D01*
D10*
D11*
X177002200Y-181507200D02*
X285002200Y-181507200D01*
D10*
D11*
X178362914Y-183614342D02*
X178577200Y-183685771D01*
X178934342Y-183685771D01*
X179077200Y-183614342D01*
X179148628Y-183542914D01*
X179220057Y-183400057D01*
X179220057Y-183257200D01*
X179148628Y-183114342D01*
X179077200Y-183042914D01*
X178934342Y-182971485D01*
X178648628Y-182900057D01*
X178505771Y-182828628D01*
X178434342Y-182757200D01*
X178362914Y-182614342D01*
X178362914Y-182471485D01*
X178434342Y-182328628D01*
X178505771Y-182257200D01*
X178648628Y-182185771D01*
X179005771Y-182185771D01*
X179220057Y-182257200D01*
X179862914Y-183685771D02*
X179862914Y-182185771D01*
X180505771Y-183685771D02*
X180505771Y-182900057D01*
X180434342Y-182757200D01*
X180291485Y-182685771D01*
X180077200Y-182685771D01*
X179934342Y-182757200D01*
X179862914Y-182828628D01*
X181791485Y-183614342D02*
X181648628Y-183685771D01*
X181362914Y-183685771D01*
X181220057Y-183614342D01*
X181148628Y-183471485D01*
X181148628Y-182900057D01*
X181220057Y-182757200D01*
X181362914Y-182685771D01*
X181648628Y-182685771D01*
X181791485Y-182757200D01*
X181862914Y-182900057D01*
X181862914Y-183042914D01*
X181148628Y-183185771D01*
X183077200Y-183614342D02*
X182934342Y-183685771D01*
X182648628Y-183685771D01*
X182505771Y-183614342D01*
X182434342Y-183471485D01*
X182434342Y-182900057D01*
X182505771Y-182757200D01*
X182648628Y-182685771D01*
X182934342Y-182685771D01*
X183077200Y-182757200D01*
X183148628Y-182900057D01*
X183148628Y-183042914D01*
X182434342Y-183185771D01*
X183577200Y-182685771D02*
X184148628Y-182685771D01*
X183791485Y-182185771D02*
X183791485Y-183471485D01*
X183862914Y-183614342D01*
X184005771Y-183685771D01*
X184148628Y-183685771D01*
X184648628Y-183542914D02*
X184720057Y-183614342D01*
X184648628Y-183685771D01*
X184577200Y-183614342D01*
X184648628Y-183542914D01*
X184648628Y-183685771D01*
X184648628Y-182757200D02*
X184720057Y-182828628D01*
X184648628Y-182900057D01*
X184577200Y-182828628D01*
X184648628Y-182757200D01*
X184648628Y-182900057D01*
D10*
D12*
X178554342Y-180685771D02*
X178554342Y-179185771D01*
X178911485Y-179185771D01*
X179125771Y-179257200D01*
X179268628Y-179400057D01*
X179340057Y-179542914D01*
X179411485Y-179828628D01*
X179411485Y-180042914D01*
X179340057Y-180328628D01*
X179268628Y-180471485D01*
X179125771Y-180614342D01*
X178911485Y-180685771D01*
X178554342Y-180685771D01*
X180911485Y-180542914D02*
X180840057Y-180614342D01*
X180625771Y-180685771D01*
X180482914Y-180685771D01*
X180268628Y-180614342D01*
X180125771Y-180471485D01*
X180054342Y-180328628D01*
X179982914Y-180042914D01*
X179982914Y-179828628D01*
X180054342Y-179542914D01*
X180125771Y-179400057D01*
X180268628Y-179257200D01*
X180482914Y-179185771D01*
X180625771Y-179185771D01*
X180840057Y-179257200D01*
X180911485Y-179328628D01*
X181482914Y-180257200D02*
X182197200Y-180257200D01*
X181340057Y-180685771D02*
X181840057Y-179185771D01*
X182340057Y-180685771D01*
D10*
D11*
D10*
D11*
D10*
D11*
D10*
D11*
D10*
D11*
X197002200Y-191507200D02*
X197002200Y-194507200D01*
D10*
D11*
X261002200Y-191507200D02*
X261002200Y-198007200D01*
D14*
X200980000Y-92210000D02*
X267020000Y-92210000D01*
X267020000Y-92210000D02*
X267020000Y-160800000D01*
X267020000Y-160800000D02*
X200980000Y-160800000D01*
X200980000Y-160800000D02*
X200980000Y-92210000D01*
D11*
%TO.C,U3*%
X245473093Y-102954380D02*
X245473093Y-103763904D01*
X245520712Y-103859142D01*
X245568331Y-103906761D01*
X245663569Y-103954380D01*
X245854045Y-103954380D01*
X245949283Y-103906761D01*
X245996902Y-103859142D01*
X246044521Y-103763904D01*
X246044521Y-102954380D01*
X246425474Y-102954380D02*
X247044521Y-102954380D01*
X246711188Y-103335333D01*
X246854045Y-103335333D01*
X246949283Y-103382952D01*
X246996902Y-103430571D01*
X247044521Y-103525809D01*
X247044521Y-103763904D01*
X246996902Y-103859142D01*
X246949283Y-103906761D01*
X246854045Y-103954380D01*
X246568331Y-103954380D01*
X246473093Y-103906761D01*
X246425474Y-103859142D01*
X240007378Y-94908666D02*
X240483569Y-94908666D01*
X239912140Y-95194380D02*
X240245474Y-94194380D01*
X240578807Y-95194380D01*
X240769283Y-94194380D02*
X241340712Y-94194380D01*
X241054998Y-95194380D02*
X241054998Y-94194380D01*
X241578807Y-94194380D02*
X241816902Y-95194380D01*
X242007378Y-94480095D01*
X242197855Y-95194380D01*
X242435950Y-94194380D01*
X242816902Y-95194380D02*
X242816902Y-94194380D01*
X243293093Y-95194380D02*
X243293093Y-94194380D01*
X243864521Y-95194380D01*
X243864521Y-94194380D01*
X244912140Y-95099142D02*
X244864521Y-95146761D01*
X244721664Y-95194380D01*
X244626426Y-95194380D01*
X244483569Y-95146761D01*
X244388331Y-95051523D01*
X244340712Y-94956285D01*
X244293093Y-94765809D01*
X244293093Y-94622952D01*
X244340712Y-94432476D01*
X244388331Y-94337238D01*
X244483569Y-94242000D01*
X244626426Y-94194380D01*
X244721664Y-94194380D01*
X244864521Y-94242000D01*
X244912140Y-94289619D01*
X245864521Y-95194380D02*
X245293093Y-95194380D01*
X245578807Y-95194380D02*
X245578807Y-94194380D01*
X245483569Y-94337238D01*
X245388331Y-94432476D01*
X245293093Y-94480095D01*
X246769283Y-94194380D02*
X246293093Y-94194380D01*
X246245474Y-94670571D01*
X246293093Y-94622952D01*
X246388331Y-94575333D01*
X246626426Y-94575333D01*
X246721664Y-94622952D01*
X246769283Y-94670571D01*
X246816902Y-94765809D01*
X246816902Y-95003904D01*
X246769283Y-95099142D01*
X246721664Y-95146761D01*
X246626426Y-95194380D01*
X246388331Y-95194380D01*
X246293093Y-95146761D01*
X246245474Y-95099142D01*
X247435950Y-94194380D02*
X247531188Y-94194380D01*
X247626426Y-94242000D01*
X247674045Y-94289619D01*
X247721664Y-94384857D01*
X247769283Y-94575333D01*
X247769283Y-94813428D01*
X247721664Y-95003904D01*
X247674045Y-95099142D01*
X247626426Y-95146761D01*
X247531188Y-95194380D01*
X247435950Y-95194380D01*
X247340712Y-95146761D01*
X247293093Y-95099142D01*
X247245474Y-95003904D01*
X247197855Y-94813428D01*
X247197855Y-94575333D01*
X247245474Y-94384857D01*
X247293093Y-94289619D01*
X247340712Y-94242000D01*
X247435950Y-94194380D01*
X248388331Y-94194380D02*
X248483569Y-94194380D01*
X248578807Y-94242000D01*
X248626426Y-94289619D01*
X248674045Y-94384857D01*
X248721664Y-94575333D01*
X248721664Y-94813428D01*
X248674045Y-95003904D01*
X248626426Y-95099142D01*
X248578807Y-95146761D01*
X248483569Y-95194380D01*
X248388331Y-95194380D01*
X248293093Y-95146761D01*
X248245474Y-95099142D01*
X248197855Y-95003904D01*
X248150236Y-94813428D01*
X248150236Y-94575333D01*
X248197855Y-94384857D01*
X248245474Y-94289619D01*
X248293093Y-94242000D01*
X248388331Y-94194380D01*
X249150236Y-94813428D02*
X249912140Y-94813428D01*
X250388331Y-95194380D02*
X250388331Y-94194380D01*
X250721664Y-94908666D01*
X251054998Y-94194380D01*
X251054998Y-95194380D01*
X252102617Y-95194380D02*
X251769283Y-94718190D01*
X251531188Y-95194380D02*
X251531188Y-94194380D01*
X251912140Y-94194380D01*
X252007378Y-94242000D01*
X252054998Y-94289619D01*
X252102617Y-94384857D01*
X252102617Y-94527714D01*
X252054998Y-94622952D01*
X252007378Y-94670571D01*
X251912140Y-94718190D01*
X251531188Y-94718190D01*
X255378998Y-111590380D02*
X255378998Y-111828476D01*
X255140902Y-111733238D02*
X255378998Y-111828476D01*
X255617093Y-111733238D01*
X255236140Y-112018952D02*
X255378998Y-111828476D01*
X255521855Y-112018952D01*
%TO.C,U1*%
X209908094Y-103042379D02*
X209908094Y-103851903D01*
X209955713Y-103947141D01*
X210003332Y-103994760D01*
X210098570Y-104042379D01*
X210289046Y-104042379D01*
X210384284Y-103994760D01*
X210431903Y-103947141D01*
X210479522Y-103851903D01*
X210479522Y-103042379D01*
X211479522Y-104042379D02*
X210908094Y-104042379D01*
X211193808Y-104042379D02*
X211193808Y-103042379D01*
X211098570Y-103185237D01*
X211003332Y-103280475D01*
X210908094Y-103328094D01*
X212604761Y-105766666D02*
X213080952Y-105766666D01*
X212509523Y-106052380D02*
X212842857Y-105052380D01*
X213176190Y-106052380D01*
X213366666Y-105052380D02*
X213938095Y-105052380D01*
X213652380Y-106052380D02*
X213652380Y-105052380D01*
X214223809Y-106004761D02*
X214366666Y-106052380D01*
X214604761Y-106052380D01*
X214700000Y-106004761D01*
X214747619Y-105957142D01*
X214795238Y-105861904D01*
X214795238Y-105766666D01*
X214747619Y-105671428D01*
X214700000Y-105623809D01*
X214604761Y-105576190D01*
X214414285Y-105528571D01*
X214319047Y-105480952D01*
X214271428Y-105433333D01*
X214223809Y-105338095D01*
X214223809Y-105242857D01*
X214271428Y-105147619D01*
X214319047Y-105100000D01*
X214414285Y-105052380D01*
X214652380Y-105052380D01*
X214795238Y-105100000D01*
X215176190Y-105766666D02*
X215652380Y-105766666D01*
X215080952Y-106052380D02*
X215414285Y-105052380D01*
X215747619Y-106052380D01*
X216080952Y-106052380D02*
X216080952Y-105052380D01*
X216414285Y-105766666D01*
X216747619Y-105052380D01*
X216747619Y-106052380D01*
X217223809Y-106052380D02*
X217223809Y-105052380D01*
X217461904Y-105052380D01*
X217604761Y-105100000D01*
X217700000Y-105195238D01*
X217747619Y-105290476D01*
X217795238Y-105480952D01*
X217795238Y-105623809D01*
X217747619Y-105814285D01*
X217700000Y-105909523D01*
X217604761Y-106004761D01*
X217461904Y-106052380D01*
X217223809Y-106052380D01*
%TO.C,REF\u002A\u002A*%
X203507023Y-148352380D02*
X203173690Y-147876190D01*
X202935595Y-148352380D02*
X202935595Y-147352380D01*
X203316547Y-147352380D01*
X203411785Y-147400000D01*
X203459404Y-147447619D01*
X203507023Y-147542857D01*
X203507023Y-147685714D01*
X203459404Y-147780952D01*
X203411785Y-147828571D01*
X203316547Y-147876190D01*
X202935595Y-147876190D01*
X203935595Y-147828571D02*
X204268928Y-147828571D01*
X204411785Y-148352380D02*
X203935595Y-148352380D01*
X203935595Y-147352380D01*
X204411785Y-147352380D01*
X205173690Y-147828571D02*
X204840357Y-147828571D01*
X204840357Y-148352380D02*
X204840357Y-147352380D01*
X205316547Y-147352380D01*
X205840357Y-147352380D02*
X205840357Y-147590476D01*
X205602261Y-147495238D02*
X205840357Y-147590476D01*
X206078452Y-147495238D01*
X205697500Y-147780952D02*
X205840357Y-147590476D01*
X205983214Y-147780952D01*
X206602261Y-147352380D02*
X206602261Y-147590476D01*
X206364166Y-147495238D02*
X206602261Y-147590476D01*
X206840357Y-147495238D01*
X206459404Y-147780952D02*
X206602261Y-147590476D01*
X206745119Y-147780952D01*
%TO.C,Y1*%
X202847816Y-120273177D02*
X203324392Y-120273177D01*
X202323581Y-120606781D02*
X202847816Y-120273177D01*
X202323581Y-119939574D01*
X203324392Y-119081736D02*
X203324392Y-119653628D01*
X203324392Y-119367682D02*
X202323581Y-119367682D01*
X202466554Y-119462997D01*
X202561870Y-119558312D01*
X202609527Y-119653628D01*
D10*
%TO.C,C6*%
X206962515Y-111078176D02*
X206981562Y-111097224D01*
X207000610Y-111154367D01*
X207000610Y-111192462D01*
X206981562Y-111249605D01*
X206943467Y-111287700D01*
X206905372Y-111306748D01*
X206829181Y-111325795D01*
X206772038Y-111325795D01*
X206695848Y-111306748D01*
X206657753Y-111287700D01*
X206619658Y-111249605D01*
X206600610Y-111192462D01*
X206600610Y-111154367D01*
X206619658Y-111097224D01*
X206638705Y-111078176D01*
X206600610Y-110735319D02*
X206600610Y-110811510D01*
X206619658Y-110849605D01*
X206638705Y-110868652D01*
X206695848Y-110906748D01*
X206772038Y-110925795D01*
X206924419Y-110925795D01*
X206962515Y-110906748D01*
X206981562Y-110887700D01*
X207000610Y-110849605D01*
X207000610Y-110773414D01*
X206981562Y-110735319D01*
X206962515Y-110716271D01*
X206924419Y-110697224D01*
X206829181Y-110697224D01*
X206791086Y-110716271D01*
X206772038Y-110735319D01*
X206752991Y-110773414D01*
X206752991Y-110849605D01*
X206772038Y-110887700D01*
X206791086Y-110906748D01*
X206829181Y-110925795D01*
%TO.C,C21*%
X222893851Y-129794211D02*
X222874803Y-129813258D01*
X222817660Y-129832306D01*
X222779565Y-129832306D01*
X222722422Y-129813258D01*
X222684327Y-129775163D01*
X222665279Y-129737068D01*
X222646232Y-129660877D01*
X222646232Y-129603734D01*
X222665279Y-129527544D01*
X222684327Y-129489449D01*
X222722422Y-129451354D01*
X222779565Y-129432306D01*
X222817660Y-129432306D01*
X222874803Y-129451354D01*
X222893851Y-129470401D01*
X223046232Y-129470401D02*
X223065279Y-129451354D01*
X223103374Y-129432306D01*
X223198613Y-129432306D01*
X223236708Y-129451354D01*
X223255755Y-129470401D01*
X223274803Y-129508496D01*
X223274803Y-129546592D01*
X223255755Y-129603734D01*
X223027184Y-129832306D01*
X223274803Y-129832306D01*
X223655755Y-129832306D02*
X223427184Y-129832306D01*
X223541470Y-129832306D02*
X223541470Y-129432306D01*
X223503374Y-129489449D01*
X223465279Y-129527544D01*
X223427184Y-129546592D01*
%TO.C,C19*%
X207442535Y-115609045D02*
X207423487Y-115628092D01*
X207366344Y-115647140D01*
X207328249Y-115647140D01*
X207271106Y-115628092D01*
X207233011Y-115589997D01*
X207213963Y-115551902D01*
X207194916Y-115475711D01*
X207194916Y-115418568D01*
X207213963Y-115342378D01*
X207233011Y-115304283D01*
X207271106Y-115266188D01*
X207328249Y-115247140D01*
X207366344Y-115247140D01*
X207423487Y-115266188D01*
X207442535Y-115285235D01*
X207823487Y-115647140D02*
X207594916Y-115647140D01*
X207709201Y-115647140D02*
X207709201Y-115247140D01*
X207671106Y-115304283D01*
X207633011Y-115342378D01*
X207594916Y-115361426D01*
X208013963Y-115647140D02*
X208090154Y-115647140D01*
X208128249Y-115628092D01*
X208147297Y-115609045D01*
X208185392Y-115551902D01*
X208204439Y-115475711D01*
X208204439Y-115323330D01*
X208185392Y-115285235D01*
X208166344Y-115266188D01*
X208128249Y-115247140D01*
X208052058Y-115247140D01*
X208013963Y-115266188D01*
X207994916Y-115285235D01*
X207975868Y-115323330D01*
X207975868Y-115418568D01*
X207994916Y-115456664D01*
X208013963Y-115475711D01*
X208052058Y-115494759D01*
X208128249Y-115494759D01*
X208166344Y-115475711D01*
X208185392Y-115456664D01*
X208204439Y-115418568D01*
D11*
%TO.C,TR1*%
X209743095Y-133852380D02*
X210314523Y-133852380D01*
X210028809Y-134852380D02*
X210028809Y-133852380D01*
X211219285Y-134852380D02*
X210885952Y-134376190D01*
X210647857Y-134852380D02*
X210647857Y-133852380D01*
X211028809Y-133852380D01*
X211124047Y-133900000D01*
X211171666Y-133947619D01*
X211219285Y-134042857D01*
X211219285Y-134185714D01*
X211171666Y-134280952D01*
X211124047Y-134328571D01*
X211028809Y-134376190D01*
X210647857Y-134376190D01*
X212171666Y-134852380D02*
X211600238Y-134852380D01*
X211885952Y-134852380D02*
X211885952Y-133852380D01*
X211790714Y-133995238D01*
X211695476Y-134090476D01*
X211600238Y-134138095D01*
D10*
%TO.C,D2*%
X258180429Y-98085086D02*
X258180429Y-97685086D01*
X258275668Y-97685086D01*
X258332810Y-97704134D01*
X258370906Y-97742229D01*
X258389953Y-97780324D01*
X258409001Y-97856514D01*
X258409001Y-97913657D01*
X258389953Y-97989848D01*
X258370906Y-98027943D01*
X258332810Y-98066038D01*
X258275668Y-98085086D01*
X258180429Y-98085086D01*
X258561382Y-97723181D02*
X258580429Y-97704134D01*
X258618525Y-97685086D01*
X258713763Y-97685086D01*
X258751858Y-97704134D01*
X258770906Y-97723181D01*
X258789953Y-97761276D01*
X258789953Y-97799372D01*
X258770906Y-97856514D01*
X258542334Y-98085086D01*
X258789953Y-98085086D01*
%TO.C,C20*%
X220842857Y-127342857D02*
X220823809Y-127361904D01*
X220766666Y-127380952D01*
X220728571Y-127380952D01*
X220671428Y-127361904D01*
X220633333Y-127323809D01*
X220614285Y-127285714D01*
X220595238Y-127209523D01*
X220595238Y-127152380D01*
X220614285Y-127076190D01*
X220633333Y-127038095D01*
X220671428Y-127000000D01*
X220728571Y-126980952D01*
X220766666Y-126980952D01*
X220823809Y-127000000D01*
X220842857Y-127019047D01*
X220995238Y-127019047D02*
X221014285Y-127000000D01*
X221052380Y-126980952D01*
X221147619Y-126980952D01*
X221185714Y-127000000D01*
X221204761Y-127019047D01*
X221223809Y-127057142D01*
X221223809Y-127095238D01*
X221204761Y-127152380D01*
X220976190Y-127380952D01*
X221223809Y-127380952D01*
X221471428Y-126980952D02*
X221509523Y-126980952D01*
X221547619Y-127000000D01*
X221566666Y-127019047D01*
X221585714Y-127057142D01*
X221604761Y-127133333D01*
X221604761Y-127228571D01*
X221585714Y-127304761D01*
X221566666Y-127342857D01*
X221547619Y-127361904D01*
X221509523Y-127380952D01*
X221471428Y-127380952D01*
X221433333Y-127361904D01*
X221414285Y-127342857D01*
X221395238Y-127304761D01*
X221376190Y-127228571D01*
X221376190Y-127133333D01*
X221395238Y-127057142D01*
X221414285Y-127019047D01*
X221433333Y-127000000D01*
X221471428Y-126980952D01*
%TO.C,C18*%
X209542857Y-116942857D02*
X209523809Y-116961904D01*
X209466666Y-116980952D01*
X209428571Y-116980952D01*
X209371428Y-116961904D01*
X209333333Y-116923809D01*
X209314285Y-116885714D01*
X209295238Y-116809523D01*
X209295238Y-116752380D01*
X209314285Y-116676190D01*
X209333333Y-116638095D01*
X209371428Y-116600000D01*
X209428571Y-116580952D01*
X209466666Y-116580952D01*
X209523809Y-116600000D01*
X209542857Y-116619047D01*
X209923809Y-116980952D02*
X209695238Y-116980952D01*
X209809523Y-116980952D02*
X209809523Y-116580952D01*
X209771428Y-116638095D01*
X209733333Y-116676190D01*
X209695238Y-116695238D01*
X210152380Y-116752380D02*
X210114285Y-116733333D01*
X210095238Y-116714285D01*
X210076190Y-116676190D01*
X210076190Y-116657142D01*
X210095238Y-116619047D01*
X210114285Y-116600000D01*
X210152380Y-116580952D01*
X210228571Y-116580952D01*
X210266666Y-116600000D01*
X210285714Y-116619047D01*
X210304761Y-116657142D01*
X210304761Y-116676190D01*
X210285714Y-116714285D01*
X210266666Y-116733333D01*
X210228571Y-116752380D01*
X210152380Y-116752380D01*
X210114285Y-116771428D01*
X210095238Y-116790476D01*
X210076190Y-116828571D01*
X210076190Y-116904761D01*
X210095238Y-116942857D01*
X210114285Y-116961904D01*
X210152380Y-116980952D01*
X210228571Y-116980952D01*
X210266666Y-116961904D01*
X210285714Y-116942857D01*
X210304761Y-116904761D01*
X210304761Y-116828571D01*
X210285714Y-116790476D01*
X210266666Y-116771428D01*
X210228571Y-116752380D01*
%TO.C,D3*%
X201125074Y-126638262D02*
X201125074Y-126238262D01*
X201220313Y-126238262D01*
X201277455Y-126257310D01*
X201315551Y-126295405D01*
X201334598Y-126333500D01*
X201353646Y-126409690D01*
X201353646Y-126466833D01*
X201334598Y-126543024D01*
X201315551Y-126581119D01*
X201277455Y-126619214D01*
X201220313Y-126638262D01*
X201125074Y-126638262D01*
X201486979Y-126238262D02*
X201734598Y-126238262D01*
X201601265Y-126390643D01*
X201658408Y-126390643D01*
X201696503Y-126409690D01*
X201715551Y-126428738D01*
X201734598Y-126466833D01*
X201734598Y-126562071D01*
X201715551Y-126600167D01*
X201696503Y-126619214D01*
X201658408Y-126638262D01*
X201544122Y-126638262D01*
X201506027Y-126619214D01*
X201486979Y-126600167D01*
%TO.C,R6*%
X207020586Y-126681521D02*
X206887253Y-126491045D01*
X206792014Y-126681521D02*
X206792014Y-126281521D01*
X206944395Y-126281521D01*
X206982491Y-126300569D01*
X207001538Y-126319616D01*
X207020586Y-126357711D01*
X207020586Y-126414854D01*
X207001538Y-126452949D01*
X206982491Y-126471997D01*
X206944395Y-126491045D01*
X206792014Y-126491045D01*
X207363443Y-126281521D02*
X207287253Y-126281521D01*
X207249157Y-126300569D01*
X207230110Y-126319616D01*
X207192014Y-126376759D01*
X207172967Y-126452949D01*
X207172967Y-126605330D01*
X207192014Y-126643426D01*
X207211062Y-126662473D01*
X207249157Y-126681521D01*
X207325348Y-126681521D01*
X207363443Y-126662473D01*
X207382491Y-126643426D01*
X207401538Y-126605330D01*
X207401538Y-126510092D01*
X207382491Y-126471997D01*
X207363443Y-126452949D01*
X207325348Y-126433902D01*
X207249157Y-126433902D01*
X207211062Y-126452949D01*
X207192014Y-126471997D01*
X207172967Y-126510092D01*
%TO.C,R8*%
X219836959Y-127761769D02*
X219646483Y-127895103D01*
X219836959Y-127990341D02*
X219436959Y-127990341D01*
X219436959Y-127837960D01*
X219456007Y-127799864D01*
X219475054Y-127780817D01*
X219513149Y-127761769D01*
X219570292Y-127761769D01*
X219608387Y-127780817D01*
X219627435Y-127799864D01*
X219646483Y-127837960D01*
X219646483Y-127990341D01*
X219608387Y-127533198D02*
X219589340Y-127571293D01*
X219570292Y-127590341D01*
X219532197Y-127609388D01*
X219513149Y-127609388D01*
X219475054Y-127590341D01*
X219456007Y-127571293D01*
X219436959Y-127533198D01*
X219436959Y-127457007D01*
X219456007Y-127418912D01*
X219475054Y-127399864D01*
X219513149Y-127380817D01*
X219532197Y-127380817D01*
X219570292Y-127399864D01*
X219589340Y-127418912D01*
X219608387Y-127457007D01*
X219608387Y-127533198D01*
X219627435Y-127571293D01*
X219646483Y-127590341D01*
X219684578Y-127609388D01*
X219760768Y-127609388D01*
X219798864Y-127590341D01*
X219817911Y-127571293D01*
X219836959Y-127533198D01*
X219836959Y-127457007D01*
X219817911Y-127418912D01*
X219798864Y-127399864D01*
X219760768Y-127380817D01*
X219684578Y-127380817D01*
X219646483Y-127399864D01*
X219627435Y-127418912D01*
X219608387Y-127457007D01*
%TO.C,C1*%
X223033333Y-114442857D02*
X223014285Y-114461904D01*
X222957142Y-114480952D01*
X222919047Y-114480952D01*
X222861904Y-114461904D01*
X222823809Y-114423809D01*
X222804761Y-114385714D01*
X222785714Y-114309523D01*
X222785714Y-114252380D01*
X222804761Y-114176190D01*
X222823809Y-114138095D01*
X222861904Y-114100000D01*
X222919047Y-114080952D01*
X222957142Y-114080952D01*
X223014285Y-114100000D01*
X223033333Y-114119047D01*
X223414285Y-114480952D02*
X223185714Y-114480952D01*
X223300000Y-114480952D02*
X223300000Y-114080952D01*
X223261904Y-114138095D01*
X223223809Y-114176190D01*
X223185714Y-114195238D01*
%TO.C,C15*%
X209042857Y-121642857D02*
X209023809Y-121661904D01*
X208966666Y-121680952D01*
X208928571Y-121680952D01*
X208871428Y-121661904D01*
X208833333Y-121623809D01*
X208814285Y-121585714D01*
X208795238Y-121509523D01*
X208795238Y-121452380D01*
X208814285Y-121376190D01*
X208833333Y-121338095D01*
X208871428Y-121300000D01*
X208928571Y-121280952D01*
X208966666Y-121280952D01*
X209023809Y-121300000D01*
X209042857Y-121319047D01*
X209423809Y-121680952D02*
X209195238Y-121680952D01*
X209309523Y-121680952D02*
X209309523Y-121280952D01*
X209271428Y-121338095D01*
X209233333Y-121376190D01*
X209195238Y-121395238D01*
X209785714Y-121280952D02*
X209595238Y-121280952D01*
X209576190Y-121471428D01*
X209595238Y-121452380D01*
X209633333Y-121433333D01*
X209728571Y-121433333D01*
X209766666Y-121452380D01*
X209785714Y-121471428D01*
X209804761Y-121509523D01*
X209804761Y-121604761D01*
X209785714Y-121642857D01*
X209766666Y-121661904D01*
X209728571Y-121680952D01*
X209633333Y-121680952D01*
X209595238Y-121661904D01*
X209576190Y-121642857D01*
%TO.C,D1*%
X257772558Y-100431522D02*
X257772558Y-100031522D01*
X257867797Y-100031522D01*
X257924939Y-100050570D01*
X257963035Y-100088665D01*
X257982082Y-100126760D01*
X258001130Y-100202950D01*
X258001130Y-100260093D01*
X257982082Y-100336284D01*
X257963035Y-100374379D01*
X257924939Y-100412474D01*
X257867797Y-100431522D01*
X257772558Y-100431522D01*
X258382082Y-100431522D02*
X258153511Y-100431522D01*
X258267797Y-100431522D02*
X258267797Y-100031522D01*
X258229701Y-100088665D01*
X258191606Y-100126760D01*
X258153511Y-100145808D01*
%TO.C,C17*%
X208542857Y-121357142D02*
X208561904Y-121376190D01*
X208580952Y-121433333D01*
X208580952Y-121471428D01*
X208561904Y-121528571D01*
X208523809Y-121566666D01*
X208485714Y-121585714D01*
X208409523Y-121604761D01*
X208352380Y-121604761D01*
X208276190Y-121585714D01*
X208238095Y-121566666D01*
X208200000Y-121528571D01*
X208180952Y-121471428D01*
X208180952Y-121433333D01*
X208200000Y-121376190D01*
X208219047Y-121357142D01*
X208580952Y-120976190D02*
X208580952Y-121204761D01*
X208580952Y-121090476D02*
X208180952Y-121090476D01*
X208238095Y-121128571D01*
X208276190Y-121166666D01*
X208295238Y-121204761D01*
X208180952Y-120842857D02*
X208180952Y-120576190D01*
X208580952Y-120747619D01*
%TO.C,C16*%
X208542857Y-119957142D02*
X208561904Y-119976190D01*
X208580952Y-120033333D01*
X208580952Y-120071428D01*
X208561904Y-120128571D01*
X208523809Y-120166666D01*
X208485714Y-120185714D01*
X208409523Y-120204761D01*
X208352380Y-120204761D01*
X208276190Y-120185714D01*
X208238095Y-120166666D01*
X208200000Y-120128571D01*
X208180952Y-120071428D01*
X208180952Y-120033333D01*
X208200000Y-119976190D01*
X208219047Y-119957142D01*
X208580952Y-119576190D02*
X208580952Y-119804761D01*
X208580952Y-119690476D02*
X208180952Y-119690476D01*
X208238095Y-119728571D01*
X208276190Y-119766666D01*
X208295238Y-119804761D01*
X208180952Y-119233333D02*
X208180952Y-119309523D01*
X208200000Y-119347619D01*
X208219047Y-119366666D01*
X208276190Y-119404761D01*
X208352380Y-119423809D01*
X208504761Y-119423809D01*
X208542857Y-119404761D01*
X208561904Y-119385714D01*
X208580952Y-119347619D01*
X208580952Y-119271428D01*
X208561904Y-119233333D01*
X208542857Y-119214285D01*
X208504761Y-119195238D01*
X208409523Y-119195238D01*
X208371428Y-119214285D01*
X208352380Y-119233333D01*
X208333333Y-119271428D01*
X208333333Y-119347619D01*
X208352380Y-119385714D01*
X208371428Y-119404761D01*
X208409523Y-119423809D01*
D11*
%TO.C,J3*%
X256051656Y-152333774D02*
X256766887Y-152333774D01*
X256909933Y-152381456D01*
X257005297Y-152476820D01*
X257052979Y-152619866D01*
X257052979Y-152715230D01*
X256051656Y-151952317D02*
X256051656Y-151332451D01*
X256433112Y-151666225D01*
X256433112Y-151523179D01*
X256480794Y-151427815D01*
X256528476Y-151380133D01*
X256623841Y-151332451D01*
X256862251Y-151332451D01*
X256957615Y-151380133D01*
X257005297Y-151427815D01*
X257052979Y-151523179D01*
X257052979Y-151809271D01*
X257005297Y-151904635D01*
X256957615Y-151952317D01*
D10*
%TO.C,C7*%
X207642857Y-111866666D02*
X207661904Y-111885714D01*
X207680952Y-111942857D01*
X207680952Y-111980952D01*
X207661904Y-112038095D01*
X207623809Y-112076190D01*
X207585714Y-112095238D01*
X207509523Y-112114285D01*
X207452380Y-112114285D01*
X207376190Y-112095238D01*
X207338095Y-112076190D01*
X207300000Y-112038095D01*
X207280952Y-111980952D01*
X207280952Y-111942857D01*
X207300000Y-111885714D01*
X207319047Y-111866666D01*
X207280952Y-111733333D02*
X207280952Y-111466666D01*
X207680952Y-111638095D01*
%TO.C,R14*%
X202042857Y-133242097D02*
X201909523Y-133051621D01*
X201814285Y-133242097D02*
X201814285Y-132842097D01*
X201966666Y-132842097D01*
X202004761Y-132861145D01*
X202023809Y-132880192D01*
X202042857Y-132918287D01*
X202042857Y-132975430D01*
X202023809Y-133013525D01*
X202004761Y-133032573D01*
X201966666Y-133051621D01*
X201814285Y-133051621D01*
X202423809Y-133242097D02*
X202195238Y-133242097D01*
X202309523Y-133242097D02*
X202309523Y-132842097D01*
X202271428Y-132899240D01*
X202233333Y-132937335D01*
X202195238Y-132956383D01*
X202766666Y-132975430D02*
X202766666Y-133242097D01*
X202671428Y-132823049D02*
X202576190Y-133108764D01*
X202823809Y-133108764D01*
D11*
%TO.C,U2*%
X256938095Y-139752380D02*
X256938095Y-140561904D01*
X256985714Y-140657142D01*
X257033333Y-140704761D01*
X257128571Y-140752380D01*
X257319047Y-140752380D01*
X257414285Y-140704761D01*
X257461904Y-140657142D01*
X257509523Y-140561904D01*
X257509523Y-139752380D01*
X257938095Y-139847619D02*
X257985714Y-139800000D01*
X258080952Y-139752380D01*
X258319047Y-139752380D01*
X258414285Y-139800000D01*
X258461904Y-139847619D01*
X258509523Y-139942857D01*
X258509523Y-140038095D01*
X258461904Y-140180952D01*
X257890476Y-140752380D01*
X258509523Y-140752380D01*
D10*
%TO.C,C5*%
X250642857Y-139966666D02*
X250661904Y-139985714D01*
X250680952Y-140042857D01*
X250680952Y-140080952D01*
X250661904Y-140138095D01*
X250623809Y-140176190D01*
X250585714Y-140195238D01*
X250509523Y-140214285D01*
X250452380Y-140214285D01*
X250376190Y-140195238D01*
X250338095Y-140176190D01*
X250300000Y-140138095D01*
X250280952Y-140080952D01*
X250280952Y-140042857D01*
X250300000Y-139985714D01*
X250319047Y-139966666D01*
X250280952Y-139604761D02*
X250280952Y-139795238D01*
X250471428Y-139814285D01*
X250452380Y-139795238D01*
X250433333Y-139757142D01*
X250433333Y-139661904D01*
X250452380Y-139623809D01*
X250471428Y-139604761D01*
X250509523Y-139585714D01*
X250604761Y-139585714D01*
X250642857Y-139604761D01*
X250661904Y-139623809D01*
X250680952Y-139661904D01*
X250680952Y-139757142D01*
X250661904Y-139795238D01*
X250642857Y-139814285D01*
%TO.C,C9*%
X207018134Y-105423596D02*
X207037181Y-105442644D01*
X207056229Y-105499787D01*
X207056229Y-105537882D01*
X207037181Y-105595025D01*
X206999086Y-105633120D01*
X206960991Y-105652168D01*
X206884800Y-105671215D01*
X206827657Y-105671215D01*
X206751467Y-105652168D01*
X206713372Y-105633120D01*
X206675277Y-105595025D01*
X206656229Y-105537882D01*
X206656229Y-105499787D01*
X206675277Y-105442644D01*
X206694324Y-105423596D01*
X207056229Y-105233120D02*
X207056229Y-105156930D01*
X207037181Y-105118834D01*
X207018134Y-105099787D01*
X206960991Y-105061691D01*
X206884800Y-105042644D01*
X206732419Y-105042644D01*
X206694324Y-105061691D01*
X206675277Y-105080739D01*
X206656229Y-105118834D01*
X206656229Y-105195025D01*
X206675277Y-105233120D01*
X206694324Y-105252168D01*
X206732419Y-105271215D01*
X206827657Y-105271215D01*
X206865753Y-105252168D01*
X206884800Y-105233120D01*
X206903848Y-105195025D01*
X206903848Y-105118834D01*
X206884800Y-105080739D01*
X206865753Y-105061691D01*
X206827657Y-105042644D01*
%TO.C,C12*%
X240028700Y-117627686D02*
X240047747Y-117646734D01*
X240066795Y-117703877D01*
X240066795Y-117741972D01*
X240047747Y-117799115D01*
X240009652Y-117837210D01*
X239971557Y-117856258D01*
X239895366Y-117875305D01*
X239838223Y-117875305D01*
X239762033Y-117856258D01*
X239723938Y-117837210D01*
X239685843Y-117799115D01*
X239666795Y-117741972D01*
X239666795Y-117703877D01*
X239685843Y-117646734D01*
X239704890Y-117627686D01*
X240066795Y-117246734D02*
X240066795Y-117475305D01*
X240066795Y-117361020D02*
X239666795Y-117361020D01*
X239723938Y-117399115D01*
X239762033Y-117437210D01*
X239781081Y-117475305D01*
X239704890Y-117094353D02*
X239685843Y-117075305D01*
X239666795Y-117037210D01*
X239666795Y-116941972D01*
X239685843Y-116903877D01*
X239704890Y-116884829D01*
X239742985Y-116865782D01*
X239781081Y-116865782D01*
X239838223Y-116884829D01*
X240066795Y-117113401D01*
X240066795Y-116865782D01*
%TO.C,R16*%
X207461074Y-113552164D02*
X207327740Y-113361688D01*
X207232502Y-113552164D02*
X207232502Y-113152164D01*
X207384883Y-113152164D01*
X207422978Y-113171212D01*
X207442026Y-113190259D01*
X207461074Y-113228354D01*
X207461074Y-113285497D01*
X207442026Y-113323592D01*
X207422978Y-113342640D01*
X207384883Y-113361688D01*
X207232502Y-113361688D01*
X207842026Y-113552164D02*
X207613455Y-113552164D01*
X207727740Y-113552164D02*
X207727740Y-113152164D01*
X207689645Y-113209307D01*
X207651550Y-113247402D01*
X207613455Y-113266450D01*
X208184883Y-113152164D02*
X208108693Y-113152164D01*
X208070597Y-113171212D01*
X208051550Y-113190259D01*
X208013455Y-113247402D01*
X207994407Y-113323592D01*
X207994407Y-113475973D01*
X208013455Y-113514069D01*
X208032502Y-113533116D01*
X208070597Y-113552164D01*
X208146788Y-113552164D01*
X208184883Y-113533116D01*
X208203931Y-113514069D01*
X208222978Y-113475973D01*
X208222978Y-113380735D01*
X208203931Y-113342640D01*
X208184883Y-113323592D01*
X208146788Y-113304545D01*
X208070597Y-113304545D01*
X208032502Y-113323592D01*
X208013455Y-113342640D01*
X207994407Y-113380735D01*
%TO.C,R1*%
X208279692Y-112464261D02*
X208146359Y-112273785D01*
X208051120Y-112464261D02*
X208051120Y-112064261D01*
X208203501Y-112064261D01*
X208241597Y-112083309D01*
X208260644Y-112102356D01*
X208279692Y-112140451D01*
X208279692Y-112197594D01*
X208260644Y-112235689D01*
X208241597Y-112254737D01*
X208203501Y-112273785D01*
X208051120Y-112273785D01*
X208660644Y-112464261D02*
X208432073Y-112464261D01*
X208546359Y-112464261D02*
X208546359Y-112064261D01*
X208508263Y-112121404D01*
X208470168Y-112159499D01*
X208432073Y-112178547D01*
%TO.C,C22*%
X222869131Y-131289740D02*
X222850083Y-131308787D01*
X222792940Y-131327835D01*
X222754845Y-131327835D01*
X222697702Y-131308787D01*
X222659607Y-131270692D01*
X222640559Y-131232597D01*
X222621512Y-131156406D01*
X222621512Y-131099263D01*
X222640559Y-131023073D01*
X222659607Y-130984978D01*
X222697702Y-130946883D01*
X222754845Y-130927835D01*
X222792940Y-130927835D01*
X222850083Y-130946883D01*
X222869131Y-130965930D01*
X223021512Y-130965930D02*
X223040559Y-130946883D01*
X223078654Y-130927835D01*
X223173893Y-130927835D01*
X223211988Y-130946883D01*
X223231035Y-130965930D01*
X223250083Y-131004025D01*
X223250083Y-131042121D01*
X223231035Y-131099263D01*
X223002464Y-131327835D01*
X223250083Y-131327835D01*
X223402464Y-130965930D02*
X223421512Y-130946883D01*
X223459607Y-130927835D01*
X223554845Y-130927835D01*
X223592940Y-130946883D01*
X223611988Y-130965930D01*
X223631035Y-131004025D01*
X223631035Y-131042121D01*
X223611988Y-131099263D01*
X223383416Y-131327835D01*
X223631035Y-131327835D01*
%TO.C,R13*%
X202042857Y-130790778D02*
X201909523Y-130600302D01*
X201814285Y-130790778D02*
X201814285Y-130390778D01*
X201966666Y-130390778D01*
X202004761Y-130409826D01*
X202023809Y-130428873D01*
X202042857Y-130466968D01*
X202042857Y-130524111D01*
X202023809Y-130562206D01*
X202004761Y-130581254D01*
X201966666Y-130600302D01*
X201814285Y-130600302D01*
X202423809Y-130790778D02*
X202195238Y-130790778D01*
X202309523Y-130790778D02*
X202309523Y-130390778D01*
X202271428Y-130447921D01*
X202233333Y-130486016D01*
X202195238Y-130505064D01*
X202557142Y-130390778D02*
X202804761Y-130390778D01*
X202671428Y-130543159D01*
X202728571Y-130543159D01*
X202766666Y-130562206D01*
X202785714Y-130581254D01*
X202804761Y-130619349D01*
X202804761Y-130714587D01*
X202785714Y-130752683D01*
X202766666Y-130771730D01*
X202728571Y-130790778D01*
X202614285Y-130790778D01*
X202576190Y-130771730D01*
X202557142Y-130752683D01*
%TO.C,C10*%
X247942857Y-117557142D02*
X247961904Y-117576190D01*
X247980952Y-117633333D01*
X247980952Y-117671428D01*
X247961904Y-117728571D01*
X247923809Y-117766666D01*
X247885714Y-117785714D01*
X247809523Y-117804761D01*
X247752380Y-117804761D01*
X247676190Y-117785714D01*
X247638095Y-117766666D01*
X247600000Y-117728571D01*
X247580952Y-117671428D01*
X247580952Y-117633333D01*
X247600000Y-117576190D01*
X247619047Y-117557142D01*
X247980952Y-117176190D02*
X247980952Y-117404761D01*
X247980952Y-117290476D02*
X247580952Y-117290476D01*
X247638095Y-117328571D01*
X247676190Y-117366666D01*
X247695238Y-117404761D01*
X247580952Y-116928571D02*
X247580952Y-116890476D01*
X247600000Y-116852380D01*
X247619047Y-116833333D01*
X247657142Y-116814285D01*
X247733333Y-116795238D01*
X247828571Y-116795238D01*
X247904761Y-116814285D01*
X247942857Y-116833333D01*
X247961904Y-116852380D01*
X247980952Y-116890476D01*
X247980952Y-116928571D01*
X247961904Y-116966666D01*
X247942857Y-116985714D01*
X247904761Y-117004761D01*
X247828571Y-117023809D01*
X247733333Y-117023809D01*
X247657142Y-117004761D01*
X247619047Y-116985714D01*
X247600000Y-116966666D01*
X247580952Y-116928571D01*
%TO.C,R15*%
X202042857Y-134480952D02*
X201909523Y-134290476D01*
X201814285Y-134480952D02*
X201814285Y-134080952D01*
X201966666Y-134080952D01*
X202004761Y-134100000D01*
X202023809Y-134119047D01*
X202042857Y-134157142D01*
X202042857Y-134214285D01*
X202023809Y-134252380D01*
X202004761Y-134271428D01*
X201966666Y-134290476D01*
X201814285Y-134290476D01*
X202423809Y-134480952D02*
X202195238Y-134480952D01*
X202309523Y-134480952D02*
X202309523Y-134080952D01*
X202271428Y-134138095D01*
X202233333Y-134176190D01*
X202195238Y-134195238D01*
X202785714Y-134080952D02*
X202595238Y-134080952D01*
X202576190Y-134271428D01*
X202595238Y-134252380D01*
X202633333Y-134233333D01*
X202728571Y-134233333D01*
X202766666Y-134252380D01*
X202785714Y-134271428D01*
X202804761Y-134309523D01*
X202804761Y-134404761D01*
X202785714Y-134442857D01*
X202766666Y-134461904D01*
X202728571Y-134480952D01*
X202633333Y-134480952D01*
X202595238Y-134461904D01*
X202576190Y-134442857D01*
%TO.C,C14*%
X209024502Y-119642857D02*
X209005454Y-119661904D01*
X208948311Y-119680952D01*
X208910216Y-119680952D01*
X208853073Y-119661904D01*
X208814978Y-119623809D01*
X208795930Y-119585714D01*
X208776883Y-119509523D01*
X208776883Y-119452380D01*
X208795930Y-119376190D01*
X208814978Y-119338095D01*
X208853073Y-119300000D01*
X208910216Y-119280952D01*
X208948311Y-119280952D01*
X209005454Y-119300000D01*
X209024502Y-119319047D01*
X209405454Y-119680952D02*
X209176883Y-119680952D01*
X209291168Y-119680952D02*
X209291168Y-119280952D01*
X209253073Y-119338095D01*
X209214978Y-119376190D01*
X209176883Y-119395238D01*
X209748311Y-119414285D02*
X209748311Y-119680952D01*
X209653073Y-119261904D02*
X209557835Y-119547619D01*
X209805454Y-119547619D01*
%TO.C,R7*%
X207002046Y-128257387D02*
X206868713Y-128066911D01*
X206773474Y-128257387D02*
X206773474Y-127857387D01*
X206925855Y-127857387D01*
X206963951Y-127876435D01*
X206982998Y-127895482D01*
X207002046Y-127933577D01*
X207002046Y-127990720D01*
X206982998Y-128028815D01*
X206963951Y-128047863D01*
X206925855Y-128066911D01*
X206773474Y-128066911D01*
X207135379Y-127857387D02*
X207402046Y-127857387D01*
X207230617Y-128257387D01*
%TO.C,R5*%
X237250948Y-99852666D02*
X237060472Y-99986000D01*
X237250948Y-100081238D02*
X236850948Y-100081238D01*
X236850948Y-99928857D01*
X236869996Y-99890761D01*
X236889043Y-99871714D01*
X236927138Y-99852666D01*
X236984281Y-99852666D01*
X237022376Y-99871714D01*
X237041424Y-99890761D01*
X237060472Y-99928857D01*
X237060472Y-100081238D01*
X236850948Y-99490761D02*
X236850948Y-99681238D01*
X237041424Y-99700285D01*
X237022376Y-99681238D01*
X237003329Y-99643142D01*
X237003329Y-99547904D01*
X237022376Y-99509809D01*
X237041424Y-99490761D01*
X237079519Y-99471714D01*
X237174757Y-99471714D01*
X237212853Y-99490761D01*
X237231900Y-99509809D01*
X237250948Y-99547904D01*
X237250948Y-99643142D01*
X237231900Y-99681238D01*
X237212853Y-99700285D01*
%TO.C,C8*%
X209942857Y-111966666D02*
X209961904Y-111985714D01*
X209980952Y-112042857D01*
X209980952Y-112080952D01*
X209961904Y-112138095D01*
X209923809Y-112176190D01*
X209885714Y-112195238D01*
X209809523Y-112214285D01*
X209752380Y-112214285D01*
X209676190Y-112195238D01*
X209638095Y-112176190D01*
X209600000Y-112138095D01*
X209580952Y-112080952D01*
X209580952Y-112042857D01*
X209600000Y-111985714D01*
X209619047Y-111966666D01*
X209752380Y-111738095D02*
X209733333Y-111776190D01*
X209714285Y-111795238D01*
X209676190Y-111814285D01*
X209657142Y-111814285D01*
X209619047Y-111795238D01*
X209600000Y-111776190D01*
X209580952Y-111738095D01*
X209580952Y-111661904D01*
X209600000Y-111623809D01*
X209619047Y-111604761D01*
X209657142Y-111585714D01*
X209676190Y-111585714D01*
X209714285Y-111604761D01*
X209733333Y-111623809D01*
X209752380Y-111661904D01*
X209752380Y-111738095D01*
X209771428Y-111776190D01*
X209790476Y-111795238D01*
X209828571Y-111814285D01*
X209904761Y-111814285D01*
X209942857Y-111795238D01*
X209961904Y-111776190D01*
X209980952Y-111738095D01*
X209980952Y-111661904D01*
X209961904Y-111623809D01*
X209942857Y-111604761D01*
X209904761Y-111585714D01*
X209828571Y-111585714D01*
X209790476Y-111604761D01*
X209771428Y-111623809D01*
X209752380Y-111661904D01*
%TO.C,R10*%
X220042857Y-132780952D02*
X219909523Y-132590476D01*
X219814285Y-132780952D02*
X219814285Y-132380952D01*
X219966666Y-132380952D01*
X220004761Y-132400000D01*
X220023809Y-132419047D01*
X220042857Y-132457142D01*
X220042857Y-132514285D01*
X220023809Y-132552380D01*
X220004761Y-132571428D01*
X219966666Y-132590476D01*
X219814285Y-132590476D01*
X220423809Y-132780952D02*
X220195238Y-132780952D01*
X220309523Y-132780952D02*
X220309523Y-132380952D01*
X220271428Y-132438095D01*
X220233333Y-132476190D01*
X220195238Y-132495238D01*
X220671428Y-132380952D02*
X220709523Y-132380952D01*
X220747619Y-132400000D01*
X220766666Y-132419047D01*
X220785714Y-132457142D01*
X220804761Y-132533333D01*
X220804761Y-132628571D01*
X220785714Y-132704761D01*
X220766666Y-132742857D01*
X220747619Y-132761904D01*
X220709523Y-132780952D01*
X220671428Y-132780952D01*
X220633333Y-132761904D01*
X220614285Y-132742857D01*
X220595238Y-132704761D01*
X220576190Y-132628571D01*
X220576190Y-132533333D01*
X220595238Y-132457142D01*
X220614285Y-132419047D01*
X220633333Y-132400000D01*
X220671428Y-132380952D01*
%TO.C,C3*%
X208315980Y-107301980D02*
X208335027Y-107321028D01*
X208354075Y-107378171D01*
X208354075Y-107416266D01*
X208335027Y-107473409D01*
X208296932Y-107511504D01*
X208258837Y-107530552D01*
X208182646Y-107549599D01*
X208125503Y-107549599D01*
X208049313Y-107530552D01*
X208011218Y-107511504D01*
X207973123Y-107473409D01*
X207954075Y-107416266D01*
X207954075Y-107378171D01*
X207973123Y-107321028D01*
X207992170Y-107301980D01*
X207954075Y-107168647D02*
X207954075Y-106921028D01*
X208106456Y-107054361D01*
X208106456Y-106997218D01*
X208125503Y-106959123D01*
X208144551Y-106940075D01*
X208182646Y-106921028D01*
X208277884Y-106921028D01*
X208315980Y-106940075D01*
X208335027Y-106959123D01*
X208354075Y-106997218D01*
X208354075Y-107111504D01*
X208335027Y-107149599D01*
X208315980Y-107168647D01*
%TO.C,R4*%
X209780952Y-104366666D02*
X209590476Y-104500000D01*
X209780952Y-104595238D02*
X209380952Y-104595238D01*
X209380952Y-104442857D01*
X209400000Y-104404761D01*
X209419047Y-104385714D01*
X209457142Y-104366666D01*
X209514285Y-104366666D01*
X209552380Y-104385714D01*
X209571428Y-104404761D01*
X209590476Y-104442857D01*
X209590476Y-104595238D01*
X209514285Y-104023809D02*
X209780952Y-104023809D01*
X209361904Y-104119047D02*
X209647619Y-104214285D01*
X209647619Y-103966666D01*
%TO.C,R12*%
X202042857Y-132038658D02*
X201909523Y-131848182D01*
X201814285Y-132038658D02*
X201814285Y-131638658D01*
X201966666Y-131638658D01*
X202004761Y-131657706D01*
X202023809Y-131676753D01*
X202042857Y-131714848D01*
X202042857Y-131771991D01*
X202023809Y-131810086D01*
X202004761Y-131829134D01*
X201966666Y-131848182D01*
X201814285Y-131848182D01*
X202423809Y-132038658D02*
X202195238Y-132038658D01*
X202309523Y-132038658D02*
X202309523Y-131638658D01*
X202271428Y-131695801D01*
X202233333Y-131733896D01*
X202195238Y-131752944D01*
X202576190Y-131676753D02*
X202595238Y-131657706D01*
X202633333Y-131638658D01*
X202728571Y-131638658D01*
X202766666Y-131657706D01*
X202785714Y-131676753D01*
X202804761Y-131714848D01*
X202804761Y-131752944D01*
X202785714Y-131810086D01*
X202557142Y-132038658D01*
X202804761Y-132038658D01*
%TO.C,C2*%
X223933333Y-113542857D02*
X223914285Y-113561904D01*
X223857142Y-113580952D01*
X223819047Y-113580952D01*
X223761904Y-113561904D01*
X223723809Y-113523809D01*
X223704761Y-113485714D01*
X223685714Y-113409523D01*
X223685714Y-113352380D01*
X223704761Y-113276190D01*
X223723809Y-113238095D01*
X223761904Y-113200000D01*
X223819047Y-113180952D01*
X223857142Y-113180952D01*
X223914285Y-113200000D01*
X223933333Y-113219047D01*
X224085714Y-113219047D02*
X224104761Y-113200000D01*
X224142857Y-113180952D01*
X224238095Y-113180952D01*
X224276190Y-113200000D01*
X224295238Y-113219047D01*
X224314285Y-113257142D01*
X224314285Y-113295238D01*
X224295238Y-113352380D01*
X224066666Y-113580952D01*
X224314285Y-113580952D01*
%TO.C,C23*%
X202042857Y-129578722D02*
X202023809Y-129597769D01*
X201966666Y-129616817D01*
X201928571Y-129616817D01*
X201871428Y-129597769D01*
X201833333Y-129559674D01*
X201814285Y-129521579D01*
X201795238Y-129445388D01*
X201795238Y-129388245D01*
X201814285Y-129312055D01*
X201833333Y-129273960D01*
X201871428Y-129235865D01*
X201928571Y-129216817D01*
X201966666Y-129216817D01*
X202023809Y-129235865D01*
X202042857Y-129254912D01*
X202195238Y-129254912D02*
X202214285Y-129235865D01*
X202252380Y-129216817D01*
X202347619Y-129216817D01*
X202385714Y-129235865D01*
X202404761Y-129254912D01*
X202423809Y-129293007D01*
X202423809Y-129331103D01*
X202404761Y-129388245D01*
X202176190Y-129616817D01*
X202423809Y-129616817D01*
X202557142Y-129216817D02*
X202804761Y-129216817D01*
X202671428Y-129369198D01*
X202728571Y-129369198D01*
X202766666Y-129388245D01*
X202785714Y-129407293D01*
X202804761Y-129445388D01*
X202804761Y-129540626D01*
X202785714Y-129578722D01*
X202766666Y-129597769D01*
X202728571Y-129616817D01*
X202614285Y-129616817D01*
X202576190Y-129597769D01*
X202557142Y-129578722D01*
%TO.C,D4*%
X201125074Y-128232668D02*
X201125074Y-127832668D01*
X201220313Y-127832668D01*
X201277455Y-127851716D01*
X201315551Y-127889811D01*
X201334598Y-127927906D01*
X201353646Y-128004096D01*
X201353646Y-128061239D01*
X201334598Y-128137430D01*
X201315551Y-128175525D01*
X201277455Y-128213620D01*
X201220313Y-128232668D01*
X201125074Y-128232668D01*
X201696503Y-127966001D02*
X201696503Y-128232668D01*
X201601265Y-127813620D02*
X201506027Y-128099335D01*
X201753646Y-128099335D01*
%TO.C,C11*%
X245242857Y-117457142D02*
X245261904Y-117476190D01*
X245280952Y-117533333D01*
X245280952Y-117571428D01*
X245261904Y-117628571D01*
X245223809Y-117666666D01*
X245185714Y-117685714D01*
X245109523Y-117704761D01*
X245052380Y-117704761D01*
X244976190Y-117685714D01*
X244938095Y-117666666D01*
X244900000Y-117628571D01*
X244880952Y-117571428D01*
X244880952Y-117533333D01*
X244900000Y-117476190D01*
X244919047Y-117457142D01*
X245280952Y-117076190D02*
X245280952Y-117304761D01*
X245280952Y-117190476D02*
X244880952Y-117190476D01*
X244938095Y-117228571D01*
X244976190Y-117266666D01*
X244995238Y-117304761D01*
X245280952Y-116695238D02*
X245280952Y-116923809D01*
X245280952Y-116809523D02*
X244880952Y-116809523D01*
X244938095Y-116847619D01*
X244976190Y-116885714D01*
X244995238Y-116923809D01*
D11*
%TO.C,U4*%
X214838095Y-114352380D02*
X214838095Y-115161904D01*
X214885714Y-115257142D01*
X214933333Y-115304761D01*
X215028571Y-115352380D01*
X215219047Y-115352380D01*
X215314285Y-115304761D01*
X215361904Y-115257142D01*
X215409523Y-115161904D01*
X215409523Y-114352380D01*
X216314285Y-114685714D02*
X216314285Y-115352380D01*
X216076190Y-114304761D02*
X215838095Y-115019047D01*
X216457142Y-115019047D01*
D10*
%TO.C,C24*%
X258467857Y-149342857D02*
X258448809Y-149361904D01*
X258391666Y-149380952D01*
X258353571Y-149380952D01*
X258296428Y-149361904D01*
X258258333Y-149323809D01*
X258239285Y-149285714D01*
X258220238Y-149209523D01*
X258220238Y-149152380D01*
X258239285Y-149076190D01*
X258258333Y-149038095D01*
X258296428Y-149000000D01*
X258353571Y-148980952D01*
X258391666Y-148980952D01*
X258448809Y-149000000D01*
X258467857Y-149019047D01*
X258620238Y-149019047D02*
X258639285Y-149000000D01*
X258677380Y-148980952D01*
X258772619Y-148980952D01*
X258810714Y-149000000D01*
X258829761Y-149019047D01*
X258848809Y-149057142D01*
X258848809Y-149095238D01*
X258829761Y-149152380D01*
X258601190Y-149380952D01*
X258848809Y-149380952D01*
X259191666Y-149114285D02*
X259191666Y-149380952D01*
X259096428Y-148961904D02*
X259001190Y-149247619D01*
X259248809Y-149247619D01*
D11*
%TO.C,J1*%
X203266666Y-104892380D02*
X203266666Y-105606666D01*
X203219047Y-105749523D01*
X203123809Y-105844761D01*
X202980952Y-105892380D01*
X202885714Y-105892380D01*
X204266666Y-105892380D02*
X203695238Y-105892380D01*
X203980952Y-105892380D02*
X203980952Y-104892380D01*
X203885714Y-105035238D01*
X203790476Y-105130476D01*
X203695238Y-105178095D01*
%TO.C,L2*%
X218852380Y-137166666D02*
X218852380Y-137642857D01*
X217852380Y-137642857D01*
X217947619Y-136880952D02*
X217900000Y-136833333D01*
X217852380Y-136738095D01*
X217852380Y-136500000D01*
X217900000Y-136404761D01*
X217947619Y-136357142D01*
X218042857Y-136309523D01*
X218138095Y-136309523D01*
X218280952Y-136357142D01*
X218852380Y-136928571D01*
X218852380Y-136309523D01*
D10*
%TO.C,R9*%
X218625705Y-127737050D02*
X218435229Y-127870384D01*
X218625705Y-127965622D02*
X218225705Y-127965622D01*
X218225705Y-127813241D01*
X218244753Y-127775145D01*
X218263800Y-127756098D01*
X218301895Y-127737050D01*
X218359038Y-127737050D01*
X218397133Y-127756098D01*
X218416181Y-127775145D01*
X218435229Y-127813241D01*
X218435229Y-127965622D01*
X218625705Y-127546574D02*
X218625705Y-127470384D01*
X218606657Y-127432288D01*
X218587610Y-127413241D01*
X218530467Y-127375145D01*
X218454276Y-127356098D01*
X218301895Y-127356098D01*
X218263800Y-127375145D01*
X218244753Y-127394193D01*
X218225705Y-127432288D01*
X218225705Y-127508479D01*
X218244753Y-127546574D01*
X218263800Y-127565622D01*
X218301895Y-127584669D01*
X218397133Y-127584669D01*
X218435229Y-127565622D01*
X218454276Y-127546574D01*
X218473324Y-127508479D01*
X218473324Y-127432288D01*
X218454276Y-127394193D01*
X218435229Y-127375145D01*
X218397133Y-127356098D01*
%TO.C,C25*%
X249642857Y-142657142D02*
X249661904Y-142676190D01*
X249680952Y-142733333D01*
X249680952Y-142771428D01*
X249661904Y-142828571D01*
X249623809Y-142866666D01*
X249585714Y-142885714D01*
X249509523Y-142904761D01*
X249452380Y-142904761D01*
X249376190Y-142885714D01*
X249338095Y-142866666D01*
X249300000Y-142828571D01*
X249280952Y-142771428D01*
X249280952Y-142733333D01*
X249300000Y-142676190D01*
X249319047Y-142657142D01*
X249319047Y-142504761D02*
X249300000Y-142485714D01*
X249280952Y-142447619D01*
X249280952Y-142352380D01*
X249300000Y-142314285D01*
X249319047Y-142295238D01*
X249357142Y-142276190D01*
X249395238Y-142276190D01*
X249452380Y-142295238D01*
X249680952Y-142523809D01*
X249680952Y-142276190D01*
X249280952Y-141914285D02*
X249280952Y-142104761D01*
X249471428Y-142123809D01*
X249452380Y-142104761D01*
X249433333Y-142066666D01*
X249433333Y-141971428D01*
X249452380Y-141933333D01*
X249471428Y-141914285D01*
X249509523Y-141895238D01*
X249604761Y-141895238D01*
X249642857Y-141914285D01*
X249661904Y-141933333D01*
X249680952Y-141971428D01*
X249680952Y-142066666D01*
X249661904Y-142104761D01*
X249642857Y-142123809D01*
%TO.C,C13*%
X209042857Y-124442857D02*
X209023809Y-124461904D01*
X208966666Y-124480952D01*
X208928571Y-124480952D01*
X208871428Y-124461904D01*
X208833333Y-124423809D01*
X208814285Y-124385714D01*
X208795238Y-124309523D01*
X208795238Y-124252380D01*
X208814285Y-124176190D01*
X208833333Y-124138095D01*
X208871428Y-124100000D01*
X208928571Y-124080952D01*
X208966666Y-124080952D01*
X209023809Y-124100000D01*
X209042857Y-124119047D01*
X209423809Y-124480952D02*
X209195238Y-124480952D01*
X209309523Y-124480952D02*
X209309523Y-124080952D01*
X209271428Y-124138095D01*
X209233333Y-124176190D01*
X209195238Y-124195238D01*
X209557142Y-124080952D02*
X209804761Y-124080952D01*
X209671428Y-124233333D01*
X209728571Y-124233333D01*
X209766666Y-124252380D01*
X209785714Y-124271428D01*
X209804761Y-124309523D01*
X209804761Y-124404761D01*
X209785714Y-124442857D01*
X209766666Y-124461904D01*
X209728571Y-124480952D01*
X209614285Y-124480952D01*
X209576190Y-124461904D01*
X209557142Y-124442857D01*
%TO.C,R2*%
X256372441Y-97936769D02*
X256239108Y-97746293D01*
X256143869Y-97936769D02*
X256143869Y-97536769D01*
X256296250Y-97536769D01*
X256334346Y-97555817D01*
X256353393Y-97574864D01*
X256372441Y-97612959D01*
X256372441Y-97670102D01*
X256353393Y-97708197D01*
X256334346Y-97727245D01*
X256296250Y-97746293D01*
X256143869Y-97746293D01*
X256524822Y-97574864D02*
X256543869Y-97555817D01*
X256581965Y-97536769D01*
X256677203Y-97536769D01*
X256715298Y-97555817D01*
X256734346Y-97574864D01*
X256753393Y-97612959D01*
X256753393Y-97651055D01*
X256734346Y-97708197D01*
X256505774Y-97936769D01*
X256753393Y-97936769D01*
%TO.C,L1*%
X222733333Y-109680952D02*
X222542857Y-109680952D01*
X222542857Y-109280952D01*
X223076190Y-109680952D02*
X222847619Y-109680952D01*
X222961904Y-109680952D02*
X222961904Y-109280952D01*
X222923809Y-109338095D01*
X222885714Y-109376190D01*
X222847619Y-109395238D01*
%TO.C,R11*%
X218842857Y-130580952D02*
X218709523Y-130390476D01*
X218614285Y-130580952D02*
X218614285Y-130180952D01*
X218766666Y-130180952D01*
X218804761Y-130200000D01*
X218823809Y-130219047D01*
X218842857Y-130257142D01*
X218842857Y-130314285D01*
X218823809Y-130352380D01*
X218804761Y-130371428D01*
X218766666Y-130390476D01*
X218614285Y-130390476D01*
X219223809Y-130580952D02*
X218995238Y-130580952D01*
X219109523Y-130580952D02*
X219109523Y-130180952D01*
X219071428Y-130238095D01*
X219033333Y-130276190D01*
X218995238Y-130295238D01*
X219604761Y-130580952D02*
X219376190Y-130580952D01*
X219490476Y-130580952D02*
X219490476Y-130180952D01*
X219452380Y-130238095D01*
X219414285Y-130276190D01*
X219376190Y-130295238D01*
%TO.C,C4*%
X254453333Y-147342857D02*
X254434285Y-147361904D01*
X254377142Y-147380952D01*
X254339047Y-147380952D01*
X254281904Y-147361904D01*
X254243809Y-147323809D01*
X254224761Y-147285714D01*
X254205714Y-147209523D01*
X254205714Y-147152380D01*
X254224761Y-147076190D01*
X254243809Y-147038095D01*
X254281904Y-147000000D01*
X254339047Y-146980952D01*
X254377142Y-146980952D01*
X254434285Y-147000000D01*
X254453333Y-147019047D01*
X254796190Y-147114285D02*
X254796190Y-147380952D01*
X254700952Y-146961904D02*
X254605714Y-147247619D01*
X254853333Y-147247619D01*
%TO.C,R3*%
X256428060Y-100412982D02*
X256294727Y-100222506D01*
X256199488Y-100412982D02*
X256199488Y-100012982D01*
X256351869Y-100012982D01*
X256389965Y-100032030D01*
X256409012Y-100051077D01*
X256428060Y-100089172D01*
X256428060Y-100146315D01*
X256409012Y-100184410D01*
X256389965Y-100203458D01*
X256351869Y-100222506D01*
X256199488Y-100222506D01*
X256561393Y-100012982D02*
X256809012Y-100012982D01*
X256675679Y-100165363D01*
X256732822Y-100165363D01*
X256770917Y-100184410D01*
X256789965Y-100203458D01*
X256809012Y-100241553D01*
X256809012Y-100336791D01*
X256789965Y-100374887D01*
X256770917Y-100393934D01*
X256732822Y-100412982D01*
X256618536Y-100412982D01*
X256580441Y-100393934D01*
X256561393Y-100374887D01*
D15*
%TO.C,U3*%
X238742997Y-92516500D02*
X253726999Y-92516500D01*
X240030858Y-114487500D02*
X238742997Y-114487500D01*
X253726999Y-103287140D02*
X253726999Y-103840860D01*
X253726999Y-92516500D02*
X253726999Y-98760860D01*
X253726999Y-112431140D02*
X253726999Y-114487500D01*
X238742997Y-100798860D02*
X238742997Y-92516500D01*
X253726999Y-114487500D02*
X251669138Y-114487500D01*
X253726999Y-105319140D02*
X253726999Y-107904860D01*
X243078858Y-114487500D02*
X241509138Y-114487500D01*
X238742997Y-114487500D02*
X238742997Y-111421140D01*
%TO.C,U1*%
X218626999Y-104372999D02*
X218386338Y-104372999D01*
X211372999Y-111626999D02*
X211613660Y-111626999D01*
X211372999Y-104372999D02*
X211372999Y-104613660D01*
X218386338Y-111626999D02*
X218626999Y-111626999D01*
X211613660Y-104372999D02*
X211372999Y-104372999D01*
X211372999Y-111386338D02*
X211372999Y-111626999D01*
X218626999Y-111626999D02*
X218626999Y-111386338D01*
X218626999Y-104613660D02*
X218626999Y-104372999D01*
G36*
X215590498Y-102896001D02*
G01*
X215209498Y-102896001D01*
X215209498Y-102642001D01*
X215590498Y-102642001D01*
X215590498Y-102896001D01*
G37*
D10*
X215590498Y-102896001D02*
X215209498Y-102896001D01*
X215209498Y-102642001D01*
X215590498Y-102642001D01*
X215590498Y-102896001D01*
G36*
X209896001Y-109390499D02*
G01*
X209642001Y-109390499D01*
X209642001Y-109009499D01*
X209896001Y-109009499D01*
X209896001Y-109390499D01*
G37*
X209896001Y-109390499D02*
X209642001Y-109390499D01*
X209642001Y-109009499D01*
X209896001Y-109009499D01*
X209896001Y-109390499D01*
G36*
X220357997Y-110190500D02*
G01*
X220103997Y-110190500D01*
X220103997Y-109809500D01*
X220357997Y-109809500D01*
X220357997Y-110190500D01*
G37*
X220357997Y-110190500D02*
X220103997Y-110190500D01*
X220103997Y-109809500D01*
X220357997Y-109809500D01*
X220357997Y-110190500D01*
D11*
%TO.C,REF\u002A\u002A*%
X217460500Y-152221500D02*
X217460500Y-143897000D01*
X201839500Y-152221500D02*
X201839500Y-143897000D01*
X201839500Y-143897000D02*
X204512500Y-143897000D01*
X214787500Y-143897000D02*
X217460500Y-143897000D01*
D16*
X205330000Y-140591900D02*
G75*
G03*
X205330000Y-140591900I-125000J0D01*
G01*
D17*
%TO.C,Y1*%
X206701645Y-115391601D02*
X206701645Y-124201601D01*
X202041645Y-124201601D02*
X202041645Y-115391601D01*
X203361645Y-114121601D02*
X205381645Y-114121601D01*
X205381645Y-125471601D02*
X203361645Y-125471601D01*
X203361645Y-114121601D02*
G75*
G03*
X202041645Y-115391601I-25000J-1295000D01*
G01*
X206701645Y-115391601D02*
G75*
G03*
X205381645Y-114121601I-1295000J-25000D01*
G01*
X202041645Y-124201601D02*
G75*
G03*
X203361645Y-125471601I1294999J24999D01*
G01*
X205381645Y-125471601D02*
G75*
G03*
X206701645Y-124201601I25001J1294999D01*
G01*
D15*
%TO.C,C6*%
X207199999Y-109532163D02*
X207199999Y-109747835D01*
X206479999Y-109532163D02*
X206479999Y-109747835D01*
%TO.C,C21*%
X221372164Y-130016668D02*
X221587836Y-130016668D01*
X221372164Y-129296668D02*
X221587836Y-129296668D01*
%TO.C,C19*%
X209389481Y-115781601D02*
X209173809Y-115781601D01*
X209389481Y-115061601D02*
X209173809Y-115061601D01*
%TO.C,TR1*%
X204455000Y-138000000D02*
X205980000Y-138000000D01*
X204455000Y-130800000D02*
X204455000Y-138000000D01*
X216030000Y-129200000D02*
X216030000Y-130800000D01*
X217555000Y-138000000D02*
X216030000Y-138000000D01*
X205980000Y-130800000D02*
X204455000Y-130800000D01*
X217555000Y-130800000D02*
X217555000Y-138000000D01*
X216030000Y-130800000D02*
X217555000Y-130800000D01*
D10*
%TO.C,D2*%
X259825000Y-98700000D02*
G75*
G03*
X259825000Y-98700000I-50000J0D01*
G01*
D15*
%TO.C,C20*%
X218811252Y-125290000D02*
X217388748Y-125290000D01*
X218811252Y-127110000D02*
X217388748Y-127110000D01*
%TO.C,C18*%
X209389481Y-117151601D02*
X209173809Y-117151601D01*
X209389481Y-117871601D02*
X209173809Y-117871601D01*
D10*
%TO.C,D3*%
X202025965Y-126508944D02*
G75*
G03*
X202025965Y-126508944I-50000J0D01*
G01*
D15*
%TO.C,R6*%
X205774606Y-126888944D02*
X205467324Y-126888944D01*
X205774606Y-126128944D02*
X205467324Y-126128944D01*
%TO.C,R8*%
X220040000Y-129003027D02*
X220040000Y-129310309D01*
X219280000Y-129003027D02*
X219280000Y-129310309D01*
%TO.C,C1*%
X221592164Y-113940000D02*
X221807836Y-113940000D01*
X221592164Y-114660000D02*
X221807836Y-114660000D01*
%TO.C,C15*%
X209173809Y-121856870D02*
X209389481Y-121856870D01*
X209173809Y-122576870D02*
X209389481Y-122576870D01*
D10*
%TO.C,D1*%
X259825000Y-101100000D02*
G75*
G03*
X259825000Y-101100000I-50000J0D01*
G01*
D15*
%TO.C,C17*%
X207931645Y-121904437D02*
X207931645Y-121688765D01*
X207211645Y-121904437D02*
X207211645Y-121688765D01*
%TO.C,C16*%
X207211645Y-119088765D02*
X207211645Y-119304437D01*
X207931645Y-119088765D02*
X207931645Y-119304437D01*
D13*
%TO.C,J3*%
X252858911Y-152368819D02*
G75*
G03*
X252858911Y-152368819I-200000J0D01*
G01*
D17*
X255198911Y-158468819D02*
X255198911Y-160368819D01*
X255198911Y-153968819D02*
X255198911Y-155218819D01*
X262098911Y-155218819D02*
X262098911Y-153968819D01*
X262098911Y-160368819D02*
X262098911Y-158468819D01*
X261798911Y-151068819D02*
X255698911Y-151068819D01*
X255198911Y-160368819D02*
X262098911Y-160368819D01*
D15*
%TO.C,C7*%
X208259999Y-109532163D02*
X208259999Y-109747835D01*
X207539999Y-109532163D02*
X207539999Y-109747835D01*
%TO.C,R14*%
X203143641Y-138747398D02*
X202836359Y-138747398D01*
X203143641Y-139507398D02*
X202836359Y-139507398D01*
%TO.C,U2*%
X256000000Y-146210000D02*
X259760000Y-146210000D01*
X253750000Y-139390000D02*
X259760000Y-139390000D01*
X259760000Y-146210000D02*
X259760000Y-144950000D01*
X259760000Y-139390000D02*
X259760000Y-140650000D01*
%TO.C,C5*%
X251190000Y-142486252D02*
X251190000Y-141063748D01*
X253010000Y-142486252D02*
X253010000Y-141063748D01*
%TO.C,C9*%
X207379999Y-105637835D02*
X207379999Y-105422163D01*
X208099999Y-105637835D02*
X208099999Y-105422163D01*
%TO.C,C12*%
X240414998Y-116744164D02*
X240414998Y-116959836D01*
X241134998Y-116744164D02*
X241134998Y-116959836D01*
%TO.C,R16*%
X209480286Y-113011601D02*
X209173004Y-113011601D01*
X209480286Y-113771601D02*
X209173004Y-113771601D01*
%TO.C,R1*%
X208346359Y-111561000D02*
X208653641Y-111561000D01*
X208346359Y-110801000D02*
X208653641Y-110801000D01*
%TO.C,C22*%
X221372164Y-131506668D02*
X221587836Y-131506668D01*
X221372164Y-130786668D02*
X221587836Y-130786668D01*
%TO.C,R13*%
X203143641Y-137082466D02*
X202836359Y-137082466D01*
X203143641Y-136322466D02*
X202836359Y-136322466D01*
%TO.C,C10*%
X247359513Y-116765522D02*
X247359513Y-116981194D01*
X246639513Y-116765522D02*
X246639513Y-116981194D01*
%TO.C,R15*%
X203143641Y-140719866D02*
X202836359Y-140719866D01*
X203143641Y-139959866D02*
X202836359Y-139959866D01*
%TO.C,C14*%
X209389481Y-118371601D02*
X209173809Y-118371601D01*
X209389481Y-119091601D02*
X209173809Y-119091601D01*
%TO.C,R7*%
X205467324Y-127658944D02*
X205774606Y-127658944D01*
X205467324Y-128418944D02*
X205774606Y-128418944D01*
%TO.C,R5*%
X238249996Y-99550359D02*
X238249996Y-99857641D01*
X237489996Y-99550359D02*
X237489996Y-99857641D01*
%TO.C,C8*%
X209319999Y-109532163D02*
X209319999Y-109747835D01*
X208599999Y-109532163D02*
X208599999Y-109747835D01*
%TO.C,R10*%
X218736359Y-132926668D02*
X219043641Y-132926668D01*
X218736359Y-132166668D02*
X219043641Y-132166668D01*
%TO.C,C3*%
X208589999Y-107797835D02*
X208589999Y-107582163D01*
X209309999Y-107797835D02*
X209309999Y-107582163D01*
%TO.C,R4*%
X208559999Y-105356358D02*
X208559999Y-105663640D01*
X209319999Y-105356358D02*
X209319999Y-105663640D01*
%TO.C,R12*%
X203143641Y-137534932D02*
X202836359Y-137534932D01*
X203143641Y-138294932D02*
X202836359Y-138294932D01*
%TO.C,C2*%
X220488748Y-111690000D02*
X221911252Y-111690000D01*
X220488748Y-113510000D02*
X221911252Y-113510000D01*
%TO.C,C23*%
X202842164Y-135140000D02*
X203057836Y-135140000D01*
X202842164Y-135860000D02*
X203057836Y-135860000D01*
D10*
%TO.C,D4*%
X202025965Y-128038944D02*
G75*
G03*
X202025965Y-128038944I-50000J0D01*
G01*
D15*
%TO.C,C11*%
X245494998Y-116744164D02*
X245494998Y-116959836D01*
X246214998Y-116744164D02*
X246214998Y-116959836D01*
D11*
%TO.C,U4*%
X218446645Y-124696601D02*
X212696645Y-124696601D01*
X212696645Y-114046601D02*
X212696645Y-114696601D01*
X212696645Y-124696601D02*
X212696645Y-124046601D01*
X218446645Y-124696601D02*
X218446645Y-124121601D01*
X218446645Y-114046601D02*
X212696645Y-114046601D01*
X218446645Y-124121601D02*
X220046645Y-124121601D01*
X218446645Y-114046601D02*
X218446645Y-114696601D01*
D15*
%TO.C,C24*%
X255088748Y-150110000D02*
X256511252Y-150110000D01*
X255088748Y-148290000D02*
X256511252Y-148290000D01*
%TO.C,J1*%
X203600000Y-108500000D02*
X203600000Y-106440000D01*
X201540000Y-112560000D02*
X205660000Y-112560000D01*
X201540000Y-108500000D02*
X203600000Y-108500000D01*
X201540000Y-106440000D02*
X202600000Y-106440000D01*
X203600000Y-106440000D02*
X205660000Y-106440000D01*
X201540000Y-107500000D02*
X201540000Y-106440000D01*
X201540000Y-108500000D02*
X201540000Y-112560000D01*
X205660000Y-106440000D02*
X205660000Y-112560000D01*
%TO.C,L2*%
X219610000Y-134537221D02*
X219610000Y-134862779D01*
X218590000Y-134537221D02*
X218590000Y-134862779D01*
%TO.C,R9*%
X218040000Y-129310309D02*
X218040000Y-129003027D01*
X218800000Y-129310309D02*
X218800000Y-129003027D01*
%TO.C,C25*%
X250660000Y-141827836D02*
X250660000Y-141612164D01*
X249940000Y-141827836D02*
X249940000Y-141612164D01*
%TO.C,C13*%
X209173809Y-123131601D02*
X209389481Y-123131601D01*
X209173809Y-123851601D02*
X209389481Y-123851601D01*
%TO.C,R2*%
X256633641Y-99080000D02*
X256326359Y-99080000D01*
X256633641Y-98320000D02*
X256326359Y-98320000D01*
%TO.C,L1*%
X221862779Y-110090000D02*
X221537221Y-110090000D01*
X221862779Y-111110000D02*
X221537221Y-111110000D01*
%TO.C,R11*%
X219043641Y-131480000D02*
X218736359Y-131480000D01*
X219043641Y-130720000D02*
X218736359Y-130720000D01*
%TO.C,C4*%
X255692164Y-146840000D02*
X255907836Y-146840000D01*
X255692164Y-147560000D02*
X255907836Y-147560000D01*
%TO.C,R3*%
X256633641Y-101480000D02*
X256326359Y-101480000D01*
X256633641Y-100720000D02*
X256326359Y-100720000D01*
%TD*%
M02*
