%TF.GenerationSoftware,KiCad,Pcbnew,(6.0.7)*%
%TF.CreationDate,2022-11-15T16:12:34-05:00*%
%TF.ProjectId,DCA_USMR_sch,4443415f-5553-44d5-925f-7363682e6b69,v1.3*%
%TF.SameCoordinates,Original*%
%TF.FileFunction,Copper,L2,Inr*%
%TF.FilePolarity,Positive*%
%FSLAX46Y46*%
G04 Gerber Fmt 4.6, Leading zero omitted, Abs format (unit mm)*
G04 Created by KiCad (PCBNEW (6.0.7)) date 2022-11-15 16:12:34*
%MOMM*%
%LPD*%
G01*
G04 APERTURE LIST*
%ADD10C,0.100000*%
%ADD11C,0.150000*%
%ADD12C,0.300000*%
%ADD13C,0.400000*%
%TA.AperFunction,Profile*%
%ADD14C,0.200000*%
%TD*%
%TA.AperFunction,ComponentPad*%
%ADD15C,1.030000*%
%TD*%
%TA.AperFunction,ComponentPad*%
%ADD16O,1.350000X1.350000*%
%TD*%
%TA.AperFunction,ComponentPad*%
%ADD17R,1.350000X1.350000*%
%TD*%
%TA.AperFunction,ViaPad*%
%ADD18C,0.800000*%
%TD*%
G04 APERTURE END LIST*
D10*
D11*
X177002200Y-166007200D02*
X177002200Y-198007200D01*
X285002200Y-198007200D01*
X285002200Y-166007200D01*
X177002200Y-166007200D01*
D10*
D11*
X10000000Y-10000000D02*
X10000000Y-200007200D01*
X287002200Y-200007200D01*
X287002200Y-10000000D01*
X10000000Y-10000000D01*
D10*
D11*
X12000000Y-12000000D02*
X12000000Y-198007200D01*
X285002200Y-198007200D01*
X285002200Y-12000000D01*
X12000000Y-12000000D01*
D10*
D11*
X60000000Y-12000000D02*
X60000000Y-10000000D01*
D10*
D11*
X110000000Y-12000000D02*
X110000000Y-10000000D01*
D10*
D11*
X160000000Y-12000000D02*
X160000000Y-10000000D01*
D10*
D11*
X210000000Y-12000000D02*
X210000000Y-10000000D01*
D10*
D11*
X260000000Y-12000000D02*
X260000000Y-10000000D01*
D10*
D11*
X36065476Y-11588095D02*
X35322619Y-11588095D01*
X35694047Y-11588095D02*
X35694047Y-10288095D01*
X35570238Y-10473809D01*
X35446428Y-10597619D01*
X35322619Y-10659523D01*
D10*
D11*
X85322619Y-10411904D02*
X85384523Y-10350000D01*
X85508333Y-10288095D01*
X85817857Y-10288095D01*
X85941666Y-10350000D01*
X86003571Y-10411904D01*
X86065476Y-10535714D01*
X86065476Y-10659523D01*
X86003571Y-10845238D01*
X85260714Y-11588095D01*
X86065476Y-11588095D01*
D10*
D11*
X135260714Y-10288095D02*
X136065476Y-10288095D01*
X135632142Y-10783333D01*
X135817857Y-10783333D01*
X135941666Y-10845238D01*
X136003571Y-10907142D01*
X136065476Y-11030952D01*
X136065476Y-11340476D01*
X136003571Y-11464285D01*
X135941666Y-11526190D01*
X135817857Y-11588095D01*
X135446428Y-11588095D01*
X135322619Y-11526190D01*
X135260714Y-11464285D01*
D10*
D11*
X185941666Y-10721428D02*
X185941666Y-11588095D01*
X185632142Y-10226190D02*
X185322619Y-11154761D01*
X186127380Y-11154761D01*
D10*
D11*
X236003571Y-10288095D02*
X235384523Y-10288095D01*
X235322619Y-10907142D01*
X235384523Y-10845238D01*
X235508333Y-10783333D01*
X235817857Y-10783333D01*
X235941666Y-10845238D01*
X236003571Y-10907142D01*
X236065476Y-11030952D01*
X236065476Y-11340476D01*
X236003571Y-11464285D01*
X235941666Y-11526190D01*
X235817857Y-11588095D01*
X235508333Y-11588095D01*
X235384523Y-11526190D01*
X235322619Y-11464285D01*
D10*
D11*
X285941666Y-10288095D02*
X285694047Y-10288095D01*
X285570238Y-10350000D01*
X285508333Y-10411904D01*
X285384523Y-10597619D01*
X285322619Y-10845238D01*
X285322619Y-11340476D01*
X285384523Y-11464285D01*
X285446428Y-11526190D01*
X285570238Y-11588095D01*
X285817857Y-11588095D01*
X285941666Y-11526190D01*
X286003571Y-11464285D01*
X286065476Y-11340476D01*
X286065476Y-11030952D01*
X286003571Y-10907142D01*
X285941666Y-10845238D01*
X285817857Y-10783333D01*
X285570238Y-10783333D01*
X285446428Y-10845238D01*
X285384523Y-10907142D01*
X285322619Y-11030952D01*
D10*
D11*
X60000000Y-198007200D02*
X60000000Y-200007200D01*
D10*
D11*
X110000000Y-198007200D02*
X110000000Y-200007200D01*
D10*
D11*
X160000000Y-198007200D02*
X160000000Y-200007200D01*
D10*
D11*
X210000000Y-198007200D02*
X210000000Y-200007200D01*
D10*
D11*
X260000000Y-198007200D02*
X260000000Y-200007200D01*
D10*
D11*
X36065476Y-199595295D02*
X35322619Y-199595295D01*
X35694047Y-199595295D02*
X35694047Y-198295295D01*
X35570238Y-198481009D01*
X35446428Y-198604819D01*
X35322619Y-198666723D01*
D10*
D11*
X85322619Y-198419104D02*
X85384523Y-198357200D01*
X85508333Y-198295295D01*
X85817857Y-198295295D01*
X85941666Y-198357200D01*
X86003571Y-198419104D01*
X86065476Y-198542914D01*
X86065476Y-198666723D01*
X86003571Y-198852438D01*
X85260714Y-199595295D01*
X86065476Y-199595295D01*
D10*
D11*
X135260714Y-198295295D02*
X136065476Y-198295295D01*
X135632142Y-198790533D01*
X135817857Y-198790533D01*
X135941666Y-198852438D01*
X136003571Y-198914342D01*
X136065476Y-199038152D01*
X136065476Y-199347676D01*
X136003571Y-199471485D01*
X135941666Y-199533390D01*
X135817857Y-199595295D01*
X135446428Y-199595295D01*
X135322619Y-199533390D01*
X135260714Y-199471485D01*
D10*
D11*
X185941666Y-198728628D02*
X185941666Y-199595295D01*
X185632142Y-198233390D02*
X185322619Y-199161961D01*
X186127380Y-199161961D01*
D10*
D11*
X236003571Y-198295295D02*
X235384523Y-198295295D01*
X235322619Y-198914342D01*
X235384523Y-198852438D01*
X235508333Y-198790533D01*
X235817857Y-198790533D01*
X235941666Y-198852438D01*
X236003571Y-198914342D01*
X236065476Y-199038152D01*
X236065476Y-199347676D01*
X236003571Y-199471485D01*
X235941666Y-199533390D01*
X235817857Y-199595295D01*
X235508333Y-199595295D01*
X235384523Y-199533390D01*
X235322619Y-199471485D01*
D10*
D11*
X285941666Y-198295295D02*
X285694047Y-198295295D01*
X285570238Y-198357200D01*
X285508333Y-198419104D01*
X285384523Y-198604819D01*
X285322619Y-198852438D01*
X285322619Y-199347676D01*
X285384523Y-199471485D01*
X285446428Y-199533390D01*
X285570238Y-199595295D01*
X285817857Y-199595295D01*
X285941666Y-199533390D01*
X286003571Y-199471485D01*
X286065476Y-199347676D01*
X286065476Y-199038152D01*
X286003571Y-198914342D01*
X285941666Y-198852438D01*
X285817857Y-198790533D01*
X285570238Y-198790533D01*
X285446428Y-198852438D01*
X285384523Y-198914342D01*
X285322619Y-199038152D01*
D10*
D11*
X10000000Y-60000000D02*
X12000000Y-60000000D01*
D10*
D11*
X10000000Y-110000000D02*
X12000000Y-110000000D01*
D10*
D11*
X10000000Y-160000000D02*
X12000000Y-160000000D01*
D10*
D11*
X10690476Y-35216666D02*
X11309523Y-35216666D01*
X10566666Y-35588095D02*
X11000000Y-34288095D01*
X11433333Y-35588095D01*
D10*
D11*
X11092857Y-84907142D02*
X11278571Y-84969047D01*
X11340476Y-85030952D01*
X11402380Y-85154761D01*
X11402380Y-85340476D01*
X11340476Y-85464285D01*
X11278571Y-85526190D01*
X11154761Y-85588095D01*
X10659523Y-85588095D01*
X10659523Y-84288095D01*
X11092857Y-84288095D01*
X11216666Y-84350000D01*
X11278571Y-84411904D01*
X11340476Y-84535714D01*
X11340476Y-84659523D01*
X11278571Y-84783333D01*
X11216666Y-84845238D01*
X11092857Y-84907142D01*
X10659523Y-84907142D01*
D10*
D11*
X11402380Y-135464285D02*
X11340476Y-135526190D01*
X11154761Y-135588095D01*
X11030952Y-135588095D01*
X10845238Y-135526190D01*
X10721428Y-135402380D01*
X10659523Y-135278571D01*
X10597619Y-135030952D01*
X10597619Y-134845238D01*
X10659523Y-134597619D01*
X10721428Y-134473809D01*
X10845238Y-134350000D01*
X11030952Y-134288095D01*
X11154761Y-134288095D01*
X11340476Y-134350000D01*
X11402380Y-134411904D01*
D10*
D11*
X10659523Y-185588095D02*
X10659523Y-184288095D01*
X10969047Y-184288095D01*
X11154761Y-184350000D01*
X11278571Y-184473809D01*
X11340476Y-184597619D01*
X11402380Y-184845238D01*
X11402380Y-185030952D01*
X11340476Y-185278571D01*
X11278571Y-185402380D01*
X11154761Y-185526190D01*
X10969047Y-185588095D01*
X10659523Y-185588095D01*
D10*
D11*
X287002200Y-60000000D02*
X285002200Y-60000000D01*
D10*
D11*
X287002200Y-110000000D02*
X285002200Y-110000000D01*
D10*
D11*
X287002200Y-160000000D02*
X285002200Y-160000000D01*
D10*
D11*
X285692676Y-35216666D02*
X286311723Y-35216666D01*
X285568866Y-35588095D02*
X286002200Y-34288095D01*
X286435533Y-35588095D01*
D10*
D11*
X286095057Y-84907142D02*
X286280771Y-84969047D01*
X286342676Y-85030952D01*
X286404580Y-85154761D01*
X286404580Y-85340476D01*
X286342676Y-85464285D01*
X286280771Y-85526190D01*
X286156961Y-85588095D01*
X285661723Y-85588095D01*
X285661723Y-84288095D01*
X286095057Y-84288095D01*
X286218866Y-84350000D01*
X286280771Y-84411904D01*
X286342676Y-84535714D01*
X286342676Y-84659523D01*
X286280771Y-84783333D01*
X286218866Y-84845238D01*
X286095057Y-84907142D01*
X285661723Y-84907142D01*
D10*
D11*
X286404580Y-135464285D02*
X286342676Y-135526190D01*
X286156961Y-135588095D01*
X286033152Y-135588095D01*
X285847438Y-135526190D01*
X285723628Y-135402380D01*
X285661723Y-135278571D01*
X285599819Y-135030952D01*
X285599819Y-134845238D01*
X285661723Y-134597619D01*
X285723628Y-134473809D01*
X285847438Y-134350000D01*
X286033152Y-134288095D01*
X286156961Y-134288095D01*
X286342676Y-134350000D01*
X286404580Y-134411904D01*
D10*
D11*
X285661723Y-185588095D02*
X285661723Y-184288095D01*
X285971247Y-184288095D01*
X286156961Y-184350000D01*
X286280771Y-184473809D01*
X286342676Y-184597619D01*
X286404580Y-184845238D01*
X286404580Y-185030952D01*
X286342676Y-185278571D01*
X286280771Y-185402380D01*
X286156961Y-185526190D01*
X285971247Y-185588095D01*
X285661723Y-185588095D01*
D10*
D11*
X200434342Y-193785771D02*
X200434342Y-192285771D01*
X200791485Y-192285771D01*
X201005771Y-192357200D01*
X201148628Y-192500057D01*
X201220057Y-192642914D01*
X201291485Y-192928628D01*
X201291485Y-193142914D01*
X201220057Y-193428628D01*
X201148628Y-193571485D01*
X201005771Y-193714342D01*
X200791485Y-193785771D01*
X200434342Y-193785771D01*
X202577200Y-193785771D02*
X202577200Y-193000057D01*
X202505771Y-192857200D01*
X202362914Y-192785771D01*
X202077200Y-192785771D01*
X201934342Y-192857200D01*
X202577200Y-193714342D02*
X202434342Y-193785771D01*
X202077200Y-193785771D01*
X201934342Y-193714342D01*
X201862914Y-193571485D01*
X201862914Y-193428628D01*
X201934342Y-193285771D01*
X202077200Y-193214342D01*
X202434342Y-193214342D01*
X202577200Y-193142914D01*
X203077200Y-192785771D02*
X203648628Y-192785771D01*
X203291485Y-192285771D02*
X203291485Y-193571485D01*
X203362914Y-193714342D01*
X203505771Y-193785771D01*
X203648628Y-193785771D01*
X204720057Y-193714342D02*
X204577200Y-193785771D01*
X204291485Y-193785771D01*
X204148628Y-193714342D01*
X204077200Y-193571485D01*
X204077200Y-193000057D01*
X204148628Y-192857200D01*
X204291485Y-192785771D01*
X204577200Y-192785771D01*
X204720057Y-192857200D01*
X204791485Y-193000057D01*
X204791485Y-193142914D01*
X204077200Y-193285771D01*
X205434342Y-193642914D02*
X205505771Y-193714342D01*
X205434342Y-193785771D01*
X205362914Y-193714342D01*
X205434342Y-193642914D01*
X205434342Y-193785771D01*
X205434342Y-192857200D02*
X205505771Y-192928628D01*
X205434342Y-193000057D01*
X205362914Y-192928628D01*
X205434342Y-192857200D01*
X205434342Y-193000057D01*
X207220057Y-192428628D02*
X207291485Y-192357200D01*
X207434342Y-192285771D01*
X207791485Y-192285771D01*
X207934342Y-192357200D01*
X208005771Y-192428628D01*
X208077200Y-192571485D01*
X208077200Y-192714342D01*
X208005771Y-192928628D01*
X207148628Y-193785771D01*
X208077200Y-193785771D01*
X209005771Y-192285771D02*
X209148628Y-192285771D01*
X209291485Y-192357200D01*
X209362914Y-192428628D01*
X209434342Y-192571485D01*
X209505771Y-192857200D01*
X209505771Y-193214342D01*
X209434342Y-193500057D01*
X209362914Y-193642914D01*
X209291485Y-193714342D01*
X209148628Y-193785771D01*
X209005771Y-193785771D01*
X208862914Y-193714342D01*
X208791485Y-193642914D01*
X208720057Y-193500057D01*
X208648628Y-193214342D01*
X208648628Y-192857200D01*
X208720057Y-192571485D01*
X208791485Y-192428628D01*
X208862914Y-192357200D01*
X209005771Y-192285771D01*
X210077200Y-192428628D02*
X210148628Y-192357200D01*
X210291485Y-192285771D01*
X210648628Y-192285771D01*
X210791485Y-192357200D01*
X210862914Y-192428628D01*
X210934342Y-192571485D01*
X210934342Y-192714342D01*
X210862914Y-192928628D01*
X210005771Y-193785771D01*
X210934342Y-193785771D01*
X211505771Y-192428628D02*
X211577200Y-192357200D01*
X211720057Y-192285771D01*
X212077200Y-192285771D01*
X212220057Y-192357200D01*
X212291485Y-192428628D01*
X212362914Y-192571485D01*
X212362914Y-192714342D01*
X212291485Y-192928628D01*
X211434342Y-193785771D01*
X212362914Y-193785771D01*
X213005771Y-193214342D02*
X214148628Y-193214342D01*
X215648628Y-193785771D02*
X214791485Y-193785771D01*
X215220057Y-193785771D02*
X215220057Y-192285771D01*
X215077200Y-192500057D01*
X214934342Y-192642914D01*
X214791485Y-192714342D01*
X217077200Y-193785771D02*
X216220057Y-193785771D01*
X216648628Y-193785771D02*
X216648628Y-192285771D01*
X216505771Y-192500057D01*
X216362914Y-192642914D01*
X216220057Y-192714342D01*
X217720057Y-193214342D02*
X218862914Y-193214342D01*
X220362914Y-193785771D02*
X219505771Y-193785771D01*
X219934342Y-193785771D02*
X219934342Y-192285771D01*
X219791485Y-192500057D01*
X219648628Y-192642914D01*
X219505771Y-192714342D01*
X221291485Y-192285771D02*
X221434342Y-192285771D01*
X221577200Y-192357200D01*
X221648628Y-192428628D01*
X221720057Y-192571485D01*
X221791485Y-192857200D01*
X221791485Y-193214342D01*
X221720057Y-193500057D01*
X221648628Y-193642914D01*
X221577200Y-193714342D01*
X221434342Y-193785771D01*
X221291485Y-193785771D01*
X221148628Y-193714342D01*
X221077200Y-193642914D01*
X221005771Y-193500057D01*
X220934342Y-193214342D01*
X220934342Y-192857200D01*
X221005771Y-192571485D01*
X221077200Y-192428628D01*
X221148628Y-192357200D01*
X221291485Y-192285771D01*
D10*
D11*
X177002200Y-194507200D02*
X285002200Y-194507200D01*
D10*
D11*
X178434342Y-196585771D02*
X178434342Y-195085771D01*
X179291485Y-196585771D02*
X178648628Y-195728628D01*
X179291485Y-195085771D02*
X178434342Y-195942914D01*
X179934342Y-196585771D02*
X179934342Y-195585771D01*
X179934342Y-195085771D02*
X179862914Y-195157200D01*
X179934342Y-195228628D01*
X180005771Y-195157200D01*
X179934342Y-195085771D01*
X179934342Y-195228628D01*
X181505771Y-196442914D02*
X181434342Y-196514342D01*
X181220057Y-196585771D01*
X181077200Y-196585771D01*
X180862914Y-196514342D01*
X180720057Y-196371485D01*
X180648628Y-196228628D01*
X180577200Y-195942914D01*
X180577200Y-195728628D01*
X180648628Y-195442914D01*
X180720057Y-195300057D01*
X180862914Y-195157200D01*
X181077200Y-195085771D01*
X181220057Y-195085771D01*
X181434342Y-195157200D01*
X181505771Y-195228628D01*
X182791485Y-196585771D02*
X182791485Y-195800057D01*
X182720057Y-195657200D01*
X182577200Y-195585771D01*
X182291485Y-195585771D01*
X182148628Y-195657200D01*
X182791485Y-196514342D02*
X182648628Y-196585771D01*
X182291485Y-196585771D01*
X182148628Y-196514342D01*
X182077200Y-196371485D01*
X182077200Y-196228628D01*
X182148628Y-196085771D01*
X182291485Y-196014342D01*
X182648628Y-196014342D01*
X182791485Y-195942914D01*
X184148628Y-196585771D02*
X184148628Y-195085771D01*
X184148628Y-196514342D02*
X184005771Y-196585771D01*
X183720057Y-196585771D01*
X183577200Y-196514342D01*
X183505771Y-196442914D01*
X183434342Y-196300057D01*
X183434342Y-195871485D01*
X183505771Y-195728628D01*
X183577200Y-195657200D01*
X183720057Y-195585771D01*
X184005771Y-195585771D01*
X184148628Y-195657200D01*
X186005771Y-195800057D02*
X186505771Y-195800057D01*
X186720057Y-196585771D02*
X186005771Y-196585771D01*
X186005771Y-195085771D01*
X186720057Y-195085771D01*
X187362914Y-196442914D02*
X187434342Y-196514342D01*
X187362914Y-196585771D01*
X187291485Y-196514342D01*
X187362914Y-196442914D01*
X187362914Y-196585771D01*
X188077200Y-196585771D02*
X188077200Y-195085771D01*
X188434342Y-195085771D01*
X188648628Y-195157200D01*
X188791485Y-195300057D01*
X188862914Y-195442914D01*
X188934342Y-195728628D01*
X188934342Y-195942914D01*
X188862914Y-196228628D01*
X188791485Y-196371485D01*
X188648628Y-196514342D01*
X188434342Y-196585771D01*
X188077200Y-196585771D01*
X189577200Y-196442914D02*
X189648628Y-196514342D01*
X189577200Y-196585771D01*
X189505771Y-196514342D01*
X189577200Y-196442914D01*
X189577200Y-196585771D01*
X190220057Y-196157200D02*
X190934342Y-196157200D01*
X190077200Y-196585771D02*
X190577200Y-195085771D01*
X191077200Y-196585771D01*
X191577200Y-196442914D02*
X191648628Y-196514342D01*
X191577200Y-196585771D01*
X191505771Y-196514342D01*
X191577200Y-196442914D01*
X191577200Y-196585771D01*
X194577200Y-196585771D02*
X194577200Y-195085771D01*
X194720057Y-196014342D02*
X195148628Y-196585771D01*
X195148628Y-195585771D02*
X194577200Y-196157200D01*
X195791485Y-196585771D02*
X195791485Y-195585771D01*
X195791485Y-195085771D02*
X195720057Y-195157200D01*
X195791485Y-195228628D01*
X195862914Y-195157200D01*
X195791485Y-195085771D01*
X195791485Y-195228628D01*
X197148628Y-196514342D02*
X197005771Y-196585771D01*
X196720057Y-196585771D01*
X196577200Y-196514342D01*
X196505771Y-196442914D01*
X196434342Y-196300057D01*
X196434342Y-195871485D01*
X196505771Y-195728628D01*
X196577200Y-195657200D01*
X196720057Y-195585771D01*
X197005771Y-195585771D01*
X197148628Y-195657200D01*
X198434342Y-196585771D02*
X198434342Y-195800057D01*
X198362914Y-195657200D01*
X198220057Y-195585771D01*
X197934342Y-195585771D01*
X197791485Y-195657200D01*
X198434342Y-196514342D02*
X198291485Y-196585771D01*
X197934342Y-196585771D01*
X197791485Y-196514342D01*
X197720057Y-196371485D01*
X197720057Y-196228628D01*
X197791485Y-196085771D01*
X197934342Y-196014342D01*
X198291485Y-196014342D01*
X198434342Y-195942914D01*
X199791485Y-196585771D02*
X199791485Y-195085771D01*
X199791485Y-196514342D02*
X199648628Y-196585771D01*
X199362914Y-196585771D01*
X199220057Y-196514342D01*
X199148628Y-196442914D01*
X199077200Y-196300057D01*
X199077200Y-195871485D01*
X199148628Y-195728628D01*
X199220057Y-195657200D01*
X199362914Y-195585771D01*
X199648628Y-195585771D01*
X199791485Y-195657200D01*
X202077200Y-197157200D02*
X202005771Y-197085771D01*
X201862914Y-196871485D01*
X201791485Y-196728628D01*
X201720057Y-196514342D01*
X201648628Y-196157200D01*
X201648628Y-195871485D01*
X201720057Y-195514342D01*
X201791485Y-195300057D01*
X201862914Y-195157200D01*
X202005771Y-194942914D01*
X202077200Y-194871485D01*
X203291485Y-195085771D02*
X203005771Y-195085771D01*
X202862914Y-195157200D01*
X202791485Y-195228628D01*
X202648628Y-195442914D01*
X202577200Y-195728628D01*
X202577200Y-196300057D01*
X202648628Y-196442914D01*
X202720057Y-196514342D01*
X202862914Y-196585771D01*
X203148628Y-196585771D01*
X203291485Y-196514342D01*
X203362914Y-196442914D01*
X203434342Y-196300057D01*
X203434342Y-195942914D01*
X203362914Y-195800057D01*
X203291485Y-195728628D01*
X203148628Y-195657200D01*
X202862914Y-195657200D01*
X202720057Y-195728628D01*
X202648628Y-195800057D01*
X202577200Y-195942914D01*
X204077200Y-196442914D02*
X204148628Y-196514342D01*
X204077200Y-196585771D01*
X204005771Y-196514342D01*
X204077200Y-196442914D01*
X204077200Y-196585771D01*
X205077200Y-195085771D02*
X205220057Y-195085771D01*
X205362914Y-195157200D01*
X205434342Y-195228628D01*
X205505771Y-195371485D01*
X205577200Y-195657200D01*
X205577200Y-196014342D01*
X205505771Y-196300057D01*
X205434342Y-196442914D01*
X205362914Y-196514342D01*
X205220057Y-196585771D01*
X205077200Y-196585771D01*
X204934342Y-196514342D01*
X204862914Y-196442914D01*
X204791485Y-196300057D01*
X204720057Y-196014342D01*
X204720057Y-195657200D01*
X204791485Y-195371485D01*
X204862914Y-195228628D01*
X204934342Y-195157200D01*
X205077200Y-195085771D01*
X206220057Y-196442914D02*
X206291485Y-196514342D01*
X206220057Y-196585771D01*
X206148628Y-196514342D01*
X206220057Y-196442914D01*
X206220057Y-196585771D01*
X206791485Y-195085771D02*
X207791485Y-195085771D01*
X207148628Y-196585771D01*
X208220057Y-197157200D02*
X208291485Y-197085771D01*
X208434342Y-196871485D01*
X208505771Y-196728628D01*
X208577200Y-196514342D01*
X208648628Y-196157200D01*
X208648628Y-195871485D01*
X208577200Y-195514342D01*
X208505771Y-195300057D01*
X208434342Y-195157200D01*
X208291485Y-194942914D01*
X208220057Y-194871485D01*
D10*
D11*
X177002200Y-191507200D02*
X285002200Y-191507200D01*
D10*
D12*
X264411485Y-193785771D02*
X263911485Y-193071485D01*
X263554342Y-193785771D02*
X263554342Y-192285771D01*
X264125771Y-192285771D01*
X264268628Y-192357200D01*
X264340057Y-192428628D01*
X264411485Y-192571485D01*
X264411485Y-192785771D01*
X264340057Y-192928628D01*
X264268628Y-193000057D01*
X264125771Y-193071485D01*
X263554342Y-193071485D01*
X265625771Y-193714342D02*
X265482914Y-193785771D01*
X265197200Y-193785771D01*
X265054342Y-193714342D01*
X264982914Y-193571485D01*
X264982914Y-193000057D01*
X265054342Y-192857200D01*
X265197200Y-192785771D01*
X265482914Y-192785771D01*
X265625771Y-192857200D01*
X265697200Y-193000057D01*
X265697200Y-193142914D01*
X264982914Y-193285771D01*
X266197200Y-192785771D02*
X266554342Y-193785771D01*
X266911485Y-192785771D01*
X267482914Y-193642914D02*
X267554342Y-193714342D01*
X267482914Y-193785771D01*
X267411485Y-193714342D01*
X267482914Y-193642914D01*
X267482914Y-193785771D01*
X267482914Y-192857200D02*
X267554342Y-192928628D01*
X267482914Y-193000057D01*
X267411485Y-192928628D01*
X267482914Y-192857200D01*
X267482914Y-193000057D01*
X269197200Y-192785771D02*
X269554342Y-193785771D01*
X269911485Y-192785771D01*
X271268628Y-193785771D02*
X270411485Y-193785771D01*
X270840057Y-193785771D02*
X270840057Y-192285771D01*
X270697200Y-192500057D01*
X270554342Y-192642914D01*
X270411485Y-192714342D01*
X271911485Y-193642914D02*
X271982914Y-193714342D01*
X271911485Y-193785771D01*
X271840057Y-193714342D01*
X271911485Y-193642914D01*
X271911485Y-193785771D01*
X272482914Y-192285771D02*
X273411485Y-192285771D01*
X272911485Y-192857200D01*
X273125771Y-192857200D01*
X273268628Y-192928628D01*
X273340057Y-193000057D01*
X273411485Y-193142914D01*
X273411485Y-193500057D01*
X273340057Y-193642914D01*
X273268628Y-193714342D01*
X273125771Y-193785771D01*
X272697200Y-193785771D01*
X272554342Y-193714342D01*
X272482914Y-193642914D01*
D10*
D11*
X178362914Y-193714342D02*
X178577200Y-193785771D01*
X178934342Y-193785771D01*
X179077200Y-193714342D01*
X179148628Y-193642914D01*
X179220057Y-193500057D01*
X179220057Y-193357200D01*
X179148628Y-193214342D01*
X179077200Y-193142914D01*
X178934342Y-193071485D01*
X178648628Y-193000057D01*
X178505771Y-192928628D01*
X178434342Y-192857200D01*
X178362914Y-192714342D01*
X178362914Y-192571485D01*
X178434342Y-192428628D01*
X178505771Y-192357200D01*
X178648628Y-192285771D01*
X179005771Y-192285771D01*
X179220057Y-192357200D01*
X179862914Y-193785771D02*
X179862914Y-192785771D01*
X179862914Y-192285771D02*
X179791485Y-192357200D01*
X179862914Y-192428628D01*
X179934342Y-192357200D01*
X179862914Y-192285771D01*
X179862914Y-192428628D01*
X180434342Y-192785771D02*
X181220057Y-192785771D01*
X180434342Y-193785771D01*
X181220057Y-193785771D01*
X182362914Y-193714342D02*
X182220057Y-193785771D01*
X181934342Y-193785771D01*
X181791485Y-193714342D01*
X181720057Y-193571485D01*
X181720057Y-193000057D01*
X181791485Y-192857200D01*
X181934342Y-192785771D01*
X182220057Y-192785771D01*
X182362914Y-192857200D01*
X182434342Y-193000057D01*
X182434342Y-193142914D01*
X181720057Y-193285771D01*
X183077200Y-193642914D02*
X183148628Y-193714342D01*
X183077200Y-193785771D01*
X183005771Y-193714342D01*
X183077200Y-193642914D01*
X183077200Y-193785771D01*
X183077200Y-192857200D02*
X183148628Y-192928628D01*
X183077200Y-193000057D01*
X183005771Y-192928628D01*
X183077200Y-192857200D01*
X183077200Y-193000057D01*
X184862914Y-193357200D02*
X185577200Y-193357200D01*
X184720057Y-193785771D02*
X185220057Y-192285771D01*
X185720057Y-193785771D01*
X186862914Y-192785771D02*
X186862914Y-193785771D01*
X186505771Y-192214342D02*
X186148628Y-193285771D01*
X187077200Y-193285771D01*
D10*
D11*
X263434342Y-196585771D02*
X263434342Y-195085771D01*
X264791485Y-196585771D02*
X264791485Y-195085771D01*
X264791485Y-196514342D02*
X264648628Y-196585771D01*
X264362914Y-196585771D01*
X264220057Y-196514342D01*
X264148628Y-196442914D01*
X264077200Y-196300057D01*
X264077200Y-195871485D01*
X264148628Y-195728628D01*
X264220057Y-195657200D01*
X264362914Y-195585771D01*
X264648628Y-195585771D01*
X264791485Y-195657200D01*
X265505771Y-196442914D02*
X265577200Y-196514342D01*
X265505771Y-196585771D01*
X265434342Y-196514342D01*
X265505771Y-196442914D01*
X265505771Y-196585771D01*
X265505771Y-195657200D02*
X265577200Y-195728628D01*
X265505771Y-195800057D01*
X265434342Y-195728628D01*
X265505771Y-195657200D01*
X265505771Y-195800057D01*
X268148628Y-196585771D02*
X267291485Y-196585771D01*
X267720057Y-196585771D02*
X267720057Y-195085771D01*
X267577200Y-195300057D01*
X267434342Y-195442914D01*
X267291485Y-195514342D01*
X269862914Y-195014342D02*
X268577200Y-196942914D01*
X271148628Y-196585771D02*
X270291485Y-196585771D01*
X270720057Y-196585771D02*
X270720057Y-195085771D01*
X270577200Y-195300057D01*
X270434342Y-195442914D01*
X270291485Y-195514342D01*
D10*
D11*
X177002200Y-187507200D02*
X285002200Y-187507200D01*
D10*
D13*
X178714580Y-188211961D02*
X179857438Y-188211961D01*
X179036009Y-190211961D02*
X179286009Y-188211961D01*
X180274104Y-190211961D02*
X180440771Y-188878628D01*
X180524104Y-188211961D02*
X180416961Y-188307200D01*
X180500295Y-188402438D01*
X180607438Y-188307200D01*
X180524104Y-188211961D01*
X180500295Y-188402438D01*
X181107438Y-188878628D02*
X181869342Y-188878628D01*
X181476485Y-188211961D02*
X181262200Y-189926247D01*
X181333628Y-190116723D01*
X181512200Y-190211961D01*
X181702676Y-190211961D01*
X182655057Y-190211961D02*
X182476485Y-190116723D01*
X182405057Y-189926247D01*
X182619342Y-188211961D01*
X184190771Y-190116723D02*
X183988390Y-190211961D01*
X183607438Y-190211961D01*
X183428866Y-190116723D01*
X183357438Y-189926247D01*
X183452676Y-189164342D01*
X183571723Y-188973866D01*
X183774104Y-188878628D01*
X184155057Y-188878628D01*
X184333628Y-188973866D01*
X184405057Y-189164342D01*
X184381247Y-189354819D01*
X183405057Y-189545295D01*
X185155057Y-190021485D02*
X185238390Y-190116723D01*
X185131247Y-190211961D01*
X185047914Y-190116723D01*
X185155057Y-190021485D01*
X185131247Y-190211961D01*
X185286009Y-188973866D02*
X185369342Y-189069104D01*
X185262200Y-189164342D01*
X185178866Y-189069104D01*
X185286009Y-188973866D01*
X185262200Y-189164342D01*
X187857438Y-188211961D02*
X187655057Y-189831009D01*
X187726485Y-190021485D01*
X187809819Y-190116723D01*
X187988390Y-190211961D01*
X188369342Y-190211961D01*
X188571723Y-190116723D01*
X188678866Y-190021485D01*
X188797914Y-189831009D01*
X189000295Y-188211961D01*
X189619342Y-190116723D02*
X189893152Y-190211961D01*
X190369342Y-190211961D01*
X190571723Y-190116723D01*
X190678866Y-190021485D01*
X190797914Y-189831009D01*
X190821723Y-189640533D01*
X190750295Y-189450057D01*
X190666961Y-189354819D01*
X190488390Y-189259580D01*
X190119342Y-189164342D01*
X189940771Y-189069104D01*
X189857438Y-188973866D01*
X189786009Y-188783390D01*
X189809819Y-188592914D01*
X189928866Y-188402438D01*
X190036009Y-188307200D01*
X190238390Y-188211961D01*
X190714580Y-188211961D01*
X190988390Y-188307200D01*
X191607438Y-190211961D02*
X191857438Y-188211961D01*
X192345533Y-189640533D01*
X193190771Y-188211961D01*
X192940771Y-190211961D01*
X195036009Y-190211961D02*
X194488390Y-189259580D01*
X193893152Y-190211961D02*
X194143152Y-188211961D01*
X194905057Y-188211961D01*
X195083628Y-188307200D01*
X195166961Y-188402438D01*
X195238390Y-188592914D01*
X195202676Y-188878628D01*
X195083628Y-189069104D01*
X194976485Y-189164342D01*
X194774104Y-189259580D01*
X194012200Y-189259580D01*
X197547914Y-189164342D02*
X198214580Y-189164342D01*
X198369342Y-190211961D02*
X197416961Y-190211961D01*
X197666961Y-188211961D01*
X198619342Y-188211961D01*
X199393152Y-188878628D02*
X199226485Y-190211961D01*
X199369342Y-189069104D02*
X199476485Y-188973866D01*
X199678866Y-188878628D01*
X199964580Y-188878628D01*
X200143152Y-188973866D01*
X200214580Y-189164342D01*
X200083628Y-190211961D01*
X202059819Y-188878628D02*
X201857438Y-190497676D01*
X201738390Y-190688152D01*
X201631247Y-190783390D01*
X201428866Y-190878628D01*
X201143152Y-190878628D01*
X200964580Y-190783390D01*
X201905057Y-190116723D02*
X201702676Y-190211961D01*
X201321723Y-190211961D01*
X201143152Y-190116723D01*
X201059819Y-190021485D01*
X200988390Y-189831009D01*
X201059819Y-189259580D01*
X201178866Y-189069104D01*
X201286009Y-188973866D01*
X201488390Y-188878628D01*
X201869342Y-188878628D01*
X202047914Y-188973866D01*
X202845533Y-190211961D02*
X203012200Y-188878628D01*
X203095533Y-188211961D02*
X202988390Y-188307200D01*
X203071723Y-188402438D01*
X203178866Y-188307200D01*
X203095533Y-188211961D01*
X203071723Y-188402438D01*
X203964580Y-188878628D02*
X203797914Y-190211961D01*
X203940771Y-189069104D02*
X204047914Y-188973866D01*
X204250295Y-188878628D01*
X204536009Y-188878628D01*
X204714580Y-188973866D01*
X204786009Y-189164342D01*
X204655057Y-190211961D01*
X206381247Y-190116723D02*
X206178866Y-190211961D01*
X205797914Y-190211961D01*
X205619342Y-190116723D01*
X205547914Y-189926247D01*
X205643152Y-189164342D01*
X205762200Y-188973866D01*
X205964580Y-188878628D01*
X206345533Y-188878628D01*
X206524104Y-188973866D01*
X206595533Y-189164342D01*
X206571723Y-189354819D01*
X205595533Y-189545295D01*
X208095533Y-190116723D02*
X207893152Y-190211961D01*
X207512200Y-190211961D01*
X207333628Y-190116723D01*
X207262200Y-189926247D01*
X207357438Y-189164342D01*
X207476485Y-188973866D01*
X207678866Y-188878628D01*
X208059819Y-188878628D01*
X208238390Y-188973866D01*
X208309819Y-189164342D01*
X208286009Y-189354819D01*
X207309819Y-189545295D01*
X209036009Y-190211961D02*
X209202676Y-188878628D01*
X209155057Y-189259580D02*
X209274104Y-189069104D01*
X209381247Y-188973866D01*
X209583628Y-188878628D01*
X209774104Y-188878628D01*
X210274104Y-190211961D02*
X210440771Y-188878628D01*
X210524104Y-188211961D02*
X210416961Y-188307200D01*
X210500295Y-188402438D01*
X210607438Y-188307200D01*
X210524104Y-188211961D01*
X210500295Y-188402438D01*
X211393152Y-188878628D02*
X211226485Y-190211961D01*
X211369342Y-189069104D02*
X211476485Y-188973866D01*
X211678866Y-188878628D01*
X211964580Y-188878628D01*
X212143152Y-188973866D01*
X212214580Y-189164342D01*
X212083628Y-190211961D01*
X214059819Y-188878628D02*
X213857438Y-190497676D01*
X213738390Y-190688152D01*
X213631247Y-190783390D01*
X213428866Y-190878628D01*
X213143152Y-190878628D01*
X212964580Y-190783390D01*
X213905057Y-190116723D02*
X213702676Y-190211961D01*
X213321723Y-190211961D01*
X213143152Y-190116723D01*
X213059819Y-190021485D01*
X212988390Y-189831009D01*
X213059819Y-189259580D01*
X213178866Y-189069104D01*
X213286009Y-188973866D01*
X213488390Y-188878628D01*
X213869342Y-188878628D01*
X214047914Y-188973866D01*
X217166961Y-189164342D02*
X217440771Y-189259580D01*
X217524104Y-189354819D01*
X217595533Y-189545295D01*
X217559819Y-189831009D01*
X217440771Y-190021485D01*
X217333628Y-190116723D01*
X217131247Y-190211961D01*
X216369342Y-190211961D01*
X216619342Y-188211961D01*
X217286009Y-188211961D01*
X217464580Y-188307200D01*
X217547914Y-188402438D01*
X217619342Y-188592914D01*
X217595533Y-188783390D01*
X217476485Y-188973866D01*
X217369342Y-189069104D01*
X217166961Y-189164342D01*
X216500295Y-189164342D01*
X218655057Y-190211961D02*
X218476485Y-190116723D01*
X218393152Y-190021485D01*
X218321723Y-189831009D01*
X218393152Y-189259580D01*
X218512200Y-189069104D01*
X218619342Y-188973866D01*
X218821723Y-188878628D01*
X219107438Y-188878628D01*
X219286009Y-188973866D01*
X219369342Y-189069104D01*
X219440771Y-189259580D01*
X219369342Y-189831009D01*
X219250295Y-190021485D01*
X219143152Y-190116723D01*
X218940771Y-190211961D01*
X218655057Y-190211961D01*
X221036009Y-190211961D02*
X221166961Y-189164342D01*
X221095533Y-188973866D01*
X220916961Y-188878628D01*
X220536009Y-188878628D01*
X220333628Y-188973866D01*
X221047914Y-190116723D02*
X220845533Y-190211961D01*
X220369342Y-190211961D01*
X220190771Y-190116723D01*
X220119342Y-189926247D01*
X220143152Y-189735771D01*
X220262200Y-189545295D01*
X220464580Y-189450057D01*
X220940771Y-189450057D01*
X221143152Y-189354819D01*
X221988390Y-190211961D02*
X222155057Y-188878628D01*
X222107438Y-189259580D02*
X222226485Y-189069104D01*
X222333628Y-188973866D01*
X222536009Y-188878628D01*
X222726485Y-188878628D01*
X224083628Y-190211961D02*
X224333628Y-188211961D01*
X224095533Y-190116723D02*
X223893152Y-190211961D01*
X223512199Y-190211961D01*
X223333628Y-190116723D01*
X223250295Y-190021485D01*
X223178866Y-189831009D01*
X223250295Y-189259580D01*
X223369342Y-189069104D01*
X223476485Y-188973866D01*
X223678866Y-188878628D01*
X224059819Y-188878628D01*
X224238390Y-188973866D01*
D10*
D11*
X178934342Y-185600057D02*
X178434342Y-185600057D01*
X178434342Y-186385771D02*
X178434342Y-184885771D01*
X179148628Y-184885771D01*
X179720057Y-186385771D02*
X179720057Y-185385771D01*
X179720057Y-184885771D02*
X179648628Y-184957200D01*
X179720057Y-185028628D01*
X179791485Y-184957200D01*
X179720057Y-184885771D01*
X179720057Y-185028628D01*
X180648628Y-186385771D02*
X180505771Y-186314342D01*
X180434342Y-186171485D01*
X180434342Y-184885771D01*
X181791485Y-186314342D02*
X181648628Y-186385771D01*
X181362914Y-186385771D01*
X181220057Y-186314342D01*
X181148628Y-186171485D01*
X181148628Y-185600057D01*
X181220057Y-185457200D01*
X181362914Y-185385771D01*
X181648628Y-185385771D01*
X181791485Y-185457200D01*
X181862914Y-185600057D01*
X181862914Y-185742914D01*
X181148628Y-185885771D01*
X182505771Y-186242914D02*
X182577200Y-186314342D01*
X182505771Y-186385771D01*
X182434342Y-186314342D01*
X182505771Y-186242914D01*
X182505771Y-186385771D01*
X182505771Y-185457200D02*
X182577200Y-185528628D01*
X182505771Y-185600057D01*
X182434342Y-185528628D01*
X182505771Y-185457200D01*
X182505771Y-185600057D01*
X184362914Y-186385771D02*
X184362914Y-184885771D01*
X184720057Y-184885771D01*
X184934342Y-184957200D01*
X185077200Y-185100057D01*
X185148628Y-185242914D01*
X185220057Y-185528628D01*
X185220057Y-185742914D01*
X185148628Y-186028628D01*
X185077200Y-186171485D01*
X184934342Y-186314342D01*
X184720057Y-186385771D01*
X184362914Y-186385771D01*
X186720057Y-186242914D02*
X186648628Y-186314342D01*
X186434342Y-186385771D01*
X186291485Y-186385771D01*
X186077200Y-186314342D01*
X185934342Y-186171485D01*
X185862914Y-186028628D01*
X185791485Y-185742914D01*
X185791485Y-185528628D01*
X185862914Y-185242914D01*
X185934342Y-185100057D01*
X186077200Y-184957200D01*
X186291485Y-184885771D01*
X186434342Y-184885771D01*
X186648628Y-184957200D01*
X186720057Y-185028628D01*
X187291485Y-185957200D02*
X188005771Y-185957200D01*
X187148628Y-186385771D02*
X187648628Y-184885771D01*
X188148628Y-186385771D01*
X188291485Y-186528628D02*
X189434342Y-186528628D01*
X189791485Y-184885771D02*
X189791485Y-186100057D01*
X189862914Y-186242914D01*
X189934342Y-186314342D01*
X190077200Y-186385771D01*
X190362914Y-186385771D01*
X190505771Y-186314342D01*
X190577200Y-186242914D01*
X190648628Y-186100057D01*
X190648628Y-184885771D01*
X191291485Y-186314342D02*
X191505771Y-186385771D01*
X191862914Y-186385771D01*
X192005771Y-186314342D01*
X192077200Y-186242914D01*
X192148628Y-186100057D01*
X192148628Y-185957200D01*
X192077200Y-185814342D01*
X192005771Y-185742914D01*
X191862914Y-185671485D01*
X191577200Y-185600057D01*
X191434342Y-185528628D01*
X191362914Y-185457200D01*
X191291485Y-185314342D01*
X191291485Y-185171485D01*
X191362914Y-185028628D01*
X191434342Y-184957200D01*
X191577200Y-184885771D01*
X191934342Y-184885771D01*
X192148628Y-184957200D01*
X192791485Y-186385771D02*
X192791485Y-184885771D01*
X193291485Y-185957200D01*
X193791485Y-184885771D01*
X193791485Y-186385771D01*
X195362914Y-186385771D02*
X194862914Y-185671485D01*
X194505771Y-186385771D02*
X194505771Y-184885771D01*
X195077200Y-184885771D01*
X195220057Y-184957200D01*
X195291485Y-185028628D01*
X195362914Y-185171485D01*
X195362914Y-185385771D01*
X195291485Y-185528628D01*
X195220057Y-185600057D01*
X195077200Y-185671485D01*
X194505771Y-185671485D01*
X195648628Y-186528628D02*
X196791485Y-186528628D01*
X197077200Y-186314342D02*
X197220057Y-186385771D01*
X197505771Y-186385771D01*
X197648628Y-186314342D01*
X197720057Y-186171485D01*
X197720057Y-186100057D01*
X197648628Y-185957200D01*
X197505771Y-185885771D01*
X197291485Y-185885771D01*
X197148628Y-185814342D01*
X197077200Y-185671485D01*
X197077200Y-185600057D01*
X197148628Y-185457200D01*
X197291485Y-185385771D01*
X197505771Y-185385771D01*
X197648628Y-185457200D01*
X199005771Y-186314342D02*
X198862914Y-186385771D01*
X198577200Y-186385771D01*
X198434342Y-186314342D01*
X198362914Y-186242914D01*
X198291485Y-186100057D01*
X198291485Y-185671485D01*
X198362914Y-185528628D01*
X198434342Y-185457200D01*
X198577200Y-185385771D01*
X198862914Y-185385771D01*
X199005771Y-185457200D01*
X199648628Y-186385771D02*
X199648628Y-184885771D01*
X200291485Y-186385771D02*
X200291485Y-185600057D01*
X200220057Y-185457200D01*
X200077200Y-185385771D01*
X199862914Y-185385771D01*
X199720057Y-185457200D01*
X199648628Y-185528628D01*
X201005771Y-186242914D02*
X201077200Y-186314342D01*
X201005771Y-186385771D01*
X200934342Y-186314342D01*
X201005771Y-186242914D01*
X201005771Y-186385771D01*
X201720057Y-186385771D02*
X201720057Y-184885771D01*
X201862914Y-185814342D02*
X202291485Y-186385771D01*
X202291485Y-185385771D02*
X201720057Y-185957200D01*
X202934342Y-186385771D02*
X202934342Y-185385771D01*
X202934342Y-184885771D02*
X202862914Y-184957200D01*
X202934342Y-185028628D01*
X203005771Y-184957200D01*
X202934342Y-184885771D01*
X202934342Y-185028628D01*
X204291485Y-186314342D02*
X204148628Y-186385771D01*
X203862914Y-186385771D01*
X203720057Y-186314342D01*
X203648628Y-186242914D01*
X203577200Y-186100057D01*
X203577200Y-185671485D01*
X203648628Y-185528628D01*
X203720057Y-185457200D01*
X203862914Y-185385771D01*
X204148628Y-185385771D01*
X204291485Y-185457200D01*
X205577200Y-186385771D02*
X205577200Y-185600057D01*
X205505771Y-185457200D01*
X205362914Y-185385771D01*
X205077200Y-185385771D01*
X204934342Y-185457200D01*
X205577200Y-186314342D02*
X205434342Y-186385771D01*
X205077200Y-186385771D01*
X204934342Y-186314342D01*
X204862914Y-186171485D01*
X204862914Y-186028628D01*
X204934342Y-185885771D01*
X205077200Y-185814342D01*
X205434342Y-185814342D01*
X205577200Y-185742914D01*
X206934342Y-186385771D02*
X206934342Y-184885771D01*
X206934342Y-186314342D02*
X206791485Y-186385771D01*
X206505771Y-186385771D01*
X206362914Y-186314342D01*
X206291485Y-186242914D01*
X206220057Y-186100057D01*
X206220057Y-185671485D01*
X206291485Y-185528628D01*
X206362914Y-185457200D01*
X206505771Y-185385771D01*
X206791485Y-185385771D01*
X206934342Y-185457200D01*
X207291485Y-186528628D02*
X208434342Y-186528628D01*
X208791485Y-185385771D02*
X208791485Y-186885771D01*
X208791485Y-185457200D02*
X208934342Y-185385771D01*
X209220057Y-185385771D01*
X209362914Y-185457200D01*
X209434342Y-185528628D01*
X209505771Y-185671485D01*
X209505771Y-186100057D01*
X209434342Y-186242914D01*
X209362914Y-186314342D01*
X209220057Y-186385771D01*
X208934342Y-186385771D01*
X208791485Y-186314342D01*
X210791485Y-186314342D02*
X210648628Y-186385771D01*
X210362914Y-186385771D01*
X210220057Y-186314342D01*
X210148628Y-186242914D01*
X210077200Y-186100057D01*
X210077200Y-185671485D01*
X210148628Y-185528628D01*
X210220057Y-185457200D01*
X210362914Y-185385771D01*
X210648628Y-185385771D01*
X210791485Y-185457200D01*
X211434342Y-186385771D02*
X211434342Y-184885771D01*
X211434342Y-185457200D02*
X211577200Y-185385771D01*
X211862914Y-185385771D01*
X212005771Y-185457200D01*
X212077200Y-185528628D01*
X212148628Y-185671485D01*
X212148628Y-186100057D01*
X212077200Y-186242914D01*
X212005771Y-186314342D01*
X211862914Y-186385771D01*
X211577200Y-186385771D01*
X211434342Y-186314342D01*
D10*
D11*
X177002200Y-181507200D02*
X285002200Y-181507200D01*
D10*
D11*
X178362914Y-183614342D02*
X178577200Y-183685771D01*
X178934342Y-183685771D01*
X179077200Y-183614342D01*
X179148628Y-183542914D01*
X179220057Y-183400057D01*
X179220057Y-183257200D01*
X179148628Y-183114342D01*
X179077200Y-183042914D01*
X178934342Y-182971485D01*
X178648628Y-182900057D01*
X178505771Y-182828628D01*
X178434342Y-182757200D01*
X178362914Y-182614342D01*
X178362914Y-182471485D01*
X178434342Y-182328628D01*
X178505771Y-182257200D01*
X178648628Y-182185771D01*
X179005771Y-182185771D01*
X179220057Y-182257200D01*
X179862914Y-183685771D02*
X179862914Y-182185771D01*
X180505771Y-183685771D02*
X180505771Y-182900057D01*
X180434342Y-182757200D01*
X180291485Y-182685771D01*
X180077200Y-182685771D01*
X179934342Y-182757200D01*
X179862914Y-182828628D01*
X181791485Y-183614342D02*
X181648628Y-183685771D01*
X181362914Y-183685771D01*
X181220057Y-183614342D01*
X181148628Y-183471485D01*
X181148628Y-182900057D01*
X181220057Y-182757200D01*
X181362914Y-182685771D01*
X181648628Y-182685771D01*
X181791485Y-182757200D01*
X181862914Y-182900057D01*
X181862914Y-183042914D01*
X181148628Y-183185771D01*
X183077200Y-183614342D02*
X182934342Y-183685771D01*
X182648628Y-183685771D01*
X182505771Y-183614342D01*
X182434342Y-183471485D01*
X182434342Y-182900057D01*
X182505771Y-182757200D01*
X182648628Y-182685771D01*
X182934342Y-182685771D01*
X183077200Y-182757200D01*
X183148628Y-182900057D01*
X183148628Y-183042914D01*
X182434342Y-183185771D01*
X183577200Y-182685771D02*
X184148628Y-182685771D01*
X183791485Y-182185771D02*
X183791485Y-183471485D01*
X183862914Y-183614342D01*
X184005771Y-183685771D01*
X184148628Y-183685771D01*
X184648628Y-183542914D02*
X184720057Y-183614342D01*
X184648628Y-183685771D01*
X184577200Y-183614342D01*
X184648628Y-183542914D01*
X184648628Y-183685771D01*
X184648628Y-182757200D02*
X184720057Y-182828628D01*
X184648628Y-182900057D01*
X184577200Y-182828628D01*
X184648628Y-182757200D01*
X184648628Y-182900057D01*
D10*
D12*
X178554342Y-180685771D02*
X178554342Y-179185771D01*
X178911485Y-179185771D01*
X179125771Y-179257200D01*
X179268628Y-179400057D01*
X179340057Y-179542914D01*
X179411485Y-179828628D01*
X179411485Y-180042914D01*
X179340057Y-180328628D01*
X179268628Y-180471485D01*
X179125771Y-180614342D01*
X178911485Y-180685771D01*
X178554342Y-180685771D01*
X180911485Y-180542914D02*
X180840057Y-180614342D01*
X180625771Y-180685771D01*
X180482914Y-180685771D01*
X180268628Y-180614342D01*
X180125771Y-180471485D01*
X180054342Y-180328628D01*
X179982914Y-180042914D01*
X179982914Y-179828628D01*
X180054342Y-179542914D01*
X180125771Y-179400057D01*
X180268628Y-179257200D01*
X180482914Y-179185771D01*
X180625771Y-179185771D01*
X180840057Y-179257200D01*
X180911485Y-179328628D01*
X181482914Y-180257200D02*
X182197200Y-180257200D01*
X181340057Y-180685771D02*
X181840057Y-179185771D01*
X182340057Y-180685771D01*
D10*
D11*
D10*
D11*
D10*
D11*
D10*
D11*
D10*
D11*
X197002200Y-191507200D02*
X197002200Y-194507200D01*
D10*
D11*
X261002200Y-191507200D02*
X261002200Y-198007200D01*
D14*
X200980000Y-92210000D02*
X267020000Y-92210000D01*
X267020000Y-92210000D02*
X267020000Y-160800000D01*
X267020000Y-160800000D02*
X200980000Y-160800000D01*
X200980000Y-160800000D02*
X200980000Y-92210000D01*
D15*
%TO.N,Net-(C17-Pad2)*%
%TO.C,Y1*%
X204371645Y-122236601D03*
%TO.N,Net-(C16-Pad2)*%
X204371645Y-117356601D03*
%TD*%
D16*
%TO.N,Net-(J1-Pad6)*%
%TO.C,J1*%
X204600000Y-111500000D03*
%TO.N,Net-(J1-Pad5)*%
X202600000Y-111500000D03*
%TO.N,Net-(C9-Pad1)*%
X204600000Y-109500000D03*
%TO.N,GND*%
X202600000Y-109500000D03*
X204600000Y-107500000D03*
D17*
%TO.N,VDD*%
X202600000Y-107500000D03*
%TD*%
D18*
%TO.N,VDD*%
X213676430Y-115272600D03*
%TO.N,GND*%
X247200000Y-109500000D03*
%TO.N,VDD*%
X245400000Y-143100000D03*
X247000000Y-143100000D03*
X248500000Y-143100000D03*
%TO.N,GND*%
X252100000Y-139000000D03*
X246300000Y-141300000D03*
X247900000Y-141300000D03*
X249300000Y-141300000D03*
X229500000Y-151400000D03*
X229500000Y-143200000D03*
X229500000Y-148666666D03*
X229500000Y-145933333D03*
X226700000Y-150100000D03*
X226700000Y-147366666D03*
X226700000Y-144633333D03*
X226700000Y-141900000D03*
X229500000Y-140100000D03*
X229500000Y-131900000D03*
X229500000Y-137366666D03*
X229500000Y-134633333D03*
X226700000Y-138800000D03*
X226700000Y-136066666D03*
X226700000Y-133333333D03*
X226700000Y-130600000D03*
X229600000Y-129033334D03*
X229600000Y-123566667D03*
X226800000Y-127733334D03*
X229600000Y-126300000D03*
X226800000Y-125000000D03*
X229600000Y-120833334D03*
X226800000Y-122266667D03*
X226800000Y-119533334D03*
X229600000Y-117400000D03*
X229600000Y-111933333D03*
X226800000Y-116100000D03*
X229600000Y-114666666D03*
X226800000Y-113366666D03*
X229600000Y-109200000D03*
X226800000Y-110633333D03*
X226800000Y-107900000D03*
X235600000Y-119033334D03*
X235600000Y-113566667D03*
X232800000Y-117733334D03*
X235600000Y-116300000D03*
X232800000Y-115000000D03*
X235600000Y-110833334D03*
X232800000Y-112266667D03*
X232800000Y-109533334D03*
X235566667Y-123500000D03*
X232833334Y-123500000D03*
X242333334Y-120700000D03*
X236866667Y-120700000D03*
X241033334Y-123500000D03*
X239600000Y-120700000D03*
X238300000Y-123500000D03*
X234133334Y-120700000D03*
X252000000Y-123600000D03*
X249266666Y-123600000D03*
X253300000Y-120800000D03*
X250566666Y-120800000D03*
X247833333Y-120800000D03*
X245100000Y-120800000D03*
X246533333Y-123600000D03*
X243800000Y-123600000D03*
X255700000Y-122200000D03*
X255700000Y-119466666D03*
X258500000Y-123500000D03*
X258500000Y-120766666D03*
X258500000Y-118033333D03*
X258500000Y-115300000D03*
X255700000Y-116733333D03*
X255700000Y-114000000D03*
X258500000Y-112000000D03*
X258500000Y-109266666D03*
X258500000Y-106533333D03*
X258500000Y-103800000D03*
X255700000Y-110700000D03*
X255700000Y-107966666D03*
X255700000Y-105233333D03*
X255700000Y-102500000D03*
%TO.N,WINC_CHIP_EN*%
X213918667Y-109328916D03*
%TO.N,WINC_WAKE*%
X213128992Y-109941630D03*
%TO.N,WINC_RESET*%
X212300000Y-110500000D03*
%TO.N,GND*%
X218000000Y-124700000D03*
%TO.N,ENC_MISO*%
X215187748Y-108387748D03*
X221028539Y-120728539D03*
%TO.N,Net-(R2-Pad2)*%
X255300000Y-98700000D03*
X235576550Y-98593082D03*
%TO.N,VDD*%
X236300049Y-100424500D03*
%TO.N,Net-(R3-Pad2)*%
X255200000Y-101100000D03*
X236500000Y-98975500D03*
%TO.N,WINC_MOSI*%
X235994375Y-106605625D03*
X232000000Y-102724500D03*
%TO.N,WINC_MISO*%
X233377238Y-102927142D03*
X240843799Y-110430450D03*
%TO.N,WINC_SCK*%
X241400000Y-109600000D03*
X233300000Y-101824500D03*
%TO.N,WINC_SS*%
X240200000Y-107700000D03*
X234325048Y-101774952D03*
%TO.N,WINC_CHIP_EN*%
X244900000Y-112500000D03*
%TO.N,WINC_RESET*%
X251900000Y-108600000D03*
%TO.N,WINC_WAKE*%
X237200000Y-102600000D03*
%TO.N,GND*%
X240400000Y-103600000D03*
X245800000Y-109500000D03*
X244300000Y-109500000D03*
X247200000Y-108100000D03*
X245800000Y-108100000D03*
X244300000Y-108100000D03*
X247200000Y-106649642D03*
X245800000Y-106640884D03*
X244288672Y-106655663D03*
X246400000Y-118000000D03*
X259170000Y-99830000D03*
%TO.N,Net-(C9-Pad1)*%
X206468809Y-106291409D03*
%TO.N,ENC_MOSI*%
X216462700Y-109162700D03*
%TO.N,ENC_SCK*%
X217175500Y-107599602D03*
%TO.N,ENC_EXTINT*%
X217341631Y-105971007D03*
%TO.N,ENC_SS*%
X217900000Y-106800000D03*
%TO.N,ENC_EXTINT*%
X222280348Y-120501328D03*
%TO.N,ENC_MOSI*%
X222518145Y-119530525D03*
%TO.N,ENC_SCK*%
X222234812Y-118572022D03*
%TO.N,ENC_SS*%
X221600000Y-117800000D03*
%TO.N,VDD*%
X223700000Y-110600000D03*
%TO.N,GND*%
X223800000Y-112600000D03*
X217788497Y-110600000D03*
%TO.N,Net-(R8-Pad1)*%
X216300000Y-127900000D03*
%TO.N,Net-(R9-Pad2)*%
X217400000Y-128700000D03*
%TO.N,VDD*%
X219100000Y-136700000D03*
%TO.N,Net-(R9-Pad2)*%
X213772117Y-126603285D03*
%TO.N,Net-(R8-Pad1)*%
X214200000Y-125700000D03*
%TO.N,Net-(J2-Pad2)*%
X206500000Y-140924500D03*
X213717982Y-140595360D03*
%TO.N,Net-(J2-Pad1)*%
X205200000Y-140100000D03*
X212800000Y-140200000D03*
%TO.N,GND*%
X208801645Y-116366601D03*
X208816645Y-114451601D03*
%TO.N,VDD*%
X210571645Y-123596601D03*
X210331914Y-121721101D03*
%TO.N,GND*%
X217596444Y-117921400D03*
X210271645Y-119622101D03*
X207571645Y-117496601D03*
X207571645Y-123396601D03*
X202580965Y-127287281D03*
X222637843Y-130454589D03*
X240774998Y-118482000D03*
X206099999Y-107629999D03*
X207739999Y-103769999D03*
X203361103Y-134448222D03*
%TO.N,VDD*%
X242914998Y-111500000D03*
X206830000Y-111181000D03*
X208939999Y-103729999D03*
X207709999Y-108034499D03*
X202560000Y-106180000D03*
%TO.N,Net-(R8-Pad1)*%
X216887435Y-124259544D03*
%TO.N,Net-(R9-Pad2)*%
X216894043Y-123260063D03*
%TD*%
%TA.AperFunction,Conductor*%
%TO.N,GND*%
G36*
X234777539Y-97920002D02*
G01*
X234824032Y-97973658D01*
X234834136Y-98043932D01*
X234818537Y-98089000D01*
X234742023Y-98221526D01*
X234683008Y-98403154D01*
X234663046Y-98593082D01*
X234683008Y-98783010D01*
X234742023Y-98964638D01*
X234745326Y-98970360D01*
X234745327Y-98970361D01*
X234779236Y-99029092D01*
X234837510Y-99130026D01*
X234965297Y-99271948D01*
X235119798Y-99384200D01*
X235125826Y-99386884D01*
X235125828Y-99386885D01*
X235288231Y-99459191D01*
X235294262Y-99461876D01*
X235387663Y-99481729D01*
X235474606Y-99500210D01*
X235474611Y-99500210D01*
X235481063Y-99501582D01*
X235636917Y-99501582D01*
X235705038Y-99521584D01*
X235751531Y-99575240D01*
X235761635Y-99645514D01*
X235732141Y-99710094D01*
X235710980Y-99729517D01*
X235688796Y-99745634D01*
X235684375Y-99750544D01*
X235684374Y-99750545D01*
X235662303Y-99775058D01*
X235561009Y-99887556D01*
X235465522Y-100052944D01*
X235406507Y-100234572D01*
X235386545Y-100424500D01*
X235387235Y-100431065D01*
X235401709Y-100568774D01*
X235406507Y-100614428D01*
X235465522Y-100796056D01*
X235561009Y-100961444D01*
X235565427Y-100966351D01*
X235565428Y-100966352D01*
X235625782Y-101033382D01*
X235688796Y-101103366D01*
X235843297Y-101215618D01*
X235849325Y-101218302D01*
X235849327Y-101218303D01*
X236011730Y-101290609D01*
X236017761Y-101293294D01*
X236111161Y-101313147D01*
X236198105Y-101331628D01*
X236198110Y-101331628D01*
X236204562Y-101333000D01*
X236395536Y-101333000D01*
X236401988Y-101331628D01*
X236401993Y-101331628D01*
X236488936Y-101313147D01*
X236582337Y-101293294D01*
X236588368Y-101290609D01*
X236750771Y-101218303D01*
X236750773Y-101218302D01*
X236756801Y-101215618D01*
X236911302Y-101103366D01*
X236914333Y-101100000D01*
X254286496Y-101100000D01*
X254306458Y-101289928D01*
X254365473Y-101471556D01*
X254460960Y-101636944D01*
X254588747Y-101778866D01*
X254743248Y-101891118D01*
X254749276Y-101893802D01*
X254749278Y-101893803D01*
X254894180Y-101958317D01*
X254917712Y-101968794D01*
X255011113Y-101988647D01*
X255098056Y-102007128D01*
X255098061Y-102007128D01*
X255104513Y-102008500D01*
X255295487Y-102008500D01*
X255301939Y-102007128D01*
X255301944Y-102007128D01*
X255388887Y-101988647D01*
X255482288Y-101968794D01*
X255505820Y-101958317D01*
X255650722Y-101893803D01*
X255650724Y-101893802D01*
X255656752Y-101891118D01*
X255811253Y-101778866D01*
X255939040Y-101636944D01*
X256034527Y-101471556D01*
X256093542Y-101289928D01*
X256113504Y-101100000D01*
X256106220Y-101030697D01*
X256094232Y-100916635D01*
X256094232Y-100916633D01*
X256093542Y-100910072D01*
X256034527Y-100728444D01*
X255939040Y-100563056D01*
X255811253Y-100421134D01*
X255656752Y-100308882D01*
X255650724Y-100306198D01*
X255650722Y-100306197D01*
X255488319Y-100233891D01*
X255488318Y-100233891D01*
X255482288Y-100231206D01*
X255388888Y-100211353D01*
X255301944Y-100192872D01*
X255301939Y-100192872D01*
X255295487Y-100191500D01*
X255104513Y-100191500D01*
X255098061Y-100192872D01*
X255098056Y-100192872D01*
X255011112Y-100211353D01*
X254917712Y-100231206D01*
X254911682Y-100233891D01*
X254911681Y-100233891D01*
X254749278Y-100306197D01*
X254749276Y-100306198D01*
X254743248Y-100308882D01*
X254588747Y-100421134D01*
X254460960Y-100563056D01*
X254365473Y-100728444D01*
X254306458Y-100910072D01*
X254305768Y-100916633D01*
X254305768Y-100916635D01*
X254293780Y-101030697D01*
X254286496Y-101100000D01*
X236914333Y-101100000D01*
X236974316Y-101033382D01*
X237034670Y-100966352D01*
X237034671Y-100966351D01*
X237039089Y-100961444D01*
X237134576Y-100796056D01*
X237193591Y-100614428D01*
X237198390Y-100568774D01*
X237212863Y-100431065D01*
X237213553Y-100424500D01*
X237193591Y-100234572D01*
X237134576Y-100052944D01*
X237039089Y-99887556D01*
X237034669Y-99882647D01*
X237034666Y-99882643D01*
X237034334Y-99882274D01*
X237034209Y-99882014D01*
X237030788Y-99877305D01*
X237031649Y-99876679D01*
X237003617Y-99818266D01*
X237012382Y-99747813D01*
X237053909Y-99696030D01*
X237105907Y-99658251D01*
X237105912Y-99658246D01*
X237111253Y-99654366D01*
X237130147Y-99633382D01*
X237234621Y-99517352D01*
X237234622Y-99517351D01*
X237239040Y-99512444D01*
X237315323Y-99380319D01*
X237331223Y-99352779D01*
X237331224Y-99352778D01*
X237334527Y-99347056D01*
X237393542Y-99165428D01*
X237413504Y-98975500D01*
X237393542Y-98785572D01*
X237334527Y-98603944D01*
X237324466Y-98586517D01*
X237242341Y-98444274D01*
X237239040Y-98438556D01*
X237111253Y-98296634D01*
X236956752Y-98184382D01*
X236950726Y-98181699D01*
X236950719Y-98181695D01*
X236859555Y-98141107D01*
X236805459Y-98095127D01*
X236784809Y-98027200D01*
X236804161Y-97958892D01*
X236857372Y-97911890D01*
X236910803Y-97900000D01*
X254514817Y-97900000D01*
X254582938Y-97920002D01*
X254629431Y-97973658D01*
X254639535Y-98043932D01*
X254608454Y-98110308D01*
X254560960Y-98163056D01*
X254527202Y-98221526D01*
X254483839Y-98296634D01*
X254465473Y-98328444D01*
X254406458Y-98510072D01*
X254386496Y-98700000D01*
X254406458Y-98889928D01*
X254465473Y-99071556D01*
X254560960Y-99236944D01*
X254688747Y-99378866D01*
X254843248Y-99491118D01*
X254849276Y-99493802D01*
X254849278Y-99493803D01*
X254911676Y-99521584D01*
X255017712Y-99568794D01*
X255111112Y-99588647D01*
X255198056Y-99607128D01*
X255198061Y-99607128D01*
X255204513Y-99608500D01*
X255395487Y-99608500D01*
X255401939Y-99607128D01*
X255401944Y-99607128D01*
X255488887Y-99588647D01*
X255582288Y-99568794D01*
X255688324Y-99521584D01*
X255750722Y-99493803D01*
X255750724Y-99493802D01*
X255756752Y-99491118D01*
X255911253Y-99378866D01*
X256039040Y-99236944D01*
X256134527Y-99071556D01*
X256193542Y-98889928D01*
X256213504Y-98700000D01*
X256193542Y-98510072D01*
X256134527Y-98328444D01*
X256116162Y-98296634D01*
X256072798Y-98221526D01*
X256039040Y-98163056D01*
X255991546Y-98110308D01*
X255960830Y-98046303D01*
X255969593Y-97975850D01*
X256015056Y-97921318D01*
X256085183Y-97900000D01*
X266385500Y-97900000D01*
X266453621Y-97920002D01*
X266500114Y-97973658D01*
X266511500Y-98026000D01*
X266511500Y-160165500D01*
X266491498Y-160233621D01*
X266437842Y-160280114D01*
X266385500Y-160291500D01*
X201614500Y-160291500D01*
X201546379Y-160271498D01*
X201499886Y-160217842D01*
X201488500Y-160165500D01*
X201488500Y-158861744D01*
X258185556Y-158861744D01*
X258203481Y-159058707D01*
X258259321Y-159248438D01*
X258262174Y-159253896D01*
X258262176Y-159253900D01*
X258309631Y-159344672D01*
X258350951Y-159423709D01*
X258474879Y-159577844D01*
X258479603Y-159581808D01*
X258486844Y-159587884D01*
X258626385Y-159704973D01*
X258631783Y-159707940D01*
X258631788Y-159707944D01*
X258775091Y-159786724D01*
X258799698Y-159800252D01*
X258805565Y-159802113D01*
X258805567Y-159802114D01*
X258982347Y-159858192D01*
X258988217Y-159860054D01*
X259142138Y-159877319D01*
X259248680Y-159877319D01*
X259251736Y-159877019D01*
X259251743Y-159877019D01*
X259310251Y-159871282D01*
X259395744Y-159862899D01*
X259401645Y-159861117D01*
X259401647Y-159861117D01*
X259474964Y-159838981D01*
X259585080Y-159805735D01*
X259759707Y-159712885D01*
X259845973Y-159642528D01*
X259908198Y-159591779D01*
X259908201Y-159591776D01*
X259912973Y-159587884D01*
X259925255Y-159573038D01*
X260035112Y-159440244D01*
X260035114Y-159440240D01*
X260039041Y-159435494D01*
X260133109Y-159261520D01*
X260191593Y-159072587D01*
X260212266Y-158875894D01*
X260194341Y-158678931D01*
X260138501Y-158489200D01*
X260128830Y-158470700D01*
X260049724Y-158319387D01*
X260046871Y-158313929D01*
X259922943Y-158159794D01*
X259916638Y-158154503D01*
X259900245Y-158140748D01*
X259771437Y-158032665D01*
X259766039Y-158029698D01*
X259766034Y-158029694D01*
X259603519Y-157940352D01*
X259603520Y-157940352D01*
X259598124Y-157937386D01*
X259592257Y-157935525D01*
X259592255Y-157935524D01*
X259415475Y-157879446D01*
X259415474Y-157879446D01*
X259409605Y-157877584D01*
X259255684Y-157860319D01*
X259149142Y-157860319D01*
X259146086Y-157860619D01*
X259146079Y-157860619D01*
X259087571Y-157866356D01*
X259002078Y-157874739D01*
X258996177Y-157876521D01*
X258996175Y-157876521D01*
X258922858Y-157898657D01*
X258812742Y-157931903D01*
X258638115Y-158024753D01*
X258551849Y-158095110D01*
X258489624Y-158145859D01*
X258489621Y-158145862D01*
X258484849Y-158149754D01*
X258480922Y-158154501D01*
X258480920Y-158154503D01*
X258362710Y-158297394D01*
X258362708Y-158297398D01*
X258358781Y-158302144D01*
X258264713Y-158476118D01*
X258206229Y-158665051D01*
X258185556Y-158861744D01*
X201488500Y-158861744D01*
X201488500Y-153861744D01*
X258185556Y-153861744D01*
X258203481Y-154058707D01*
X258259321Y-154248438D01*
X258262174Y-154253896D01*
X258262176Y-154253900D01*
X258309631Y-154344672D01*
X258350951Y-154423709D01*
X258474879Y-154577844D01*
X258479603Y-154581808D01*
X258486844Y-154587884D01*
X258626385Y-154704973D01*
X258631783Y-154707940D01*
X258631788Y-154707944D01*
X258775091Y-154786724D01*
X258799698Y-154800252D01*
X258805565Y-154802113D01*
X258805567Y-154802114D01*
X258982347Y-154858192D01*
X258988217Y-154860054D01*
X259142138Y-154877319D01*
X259248680Y-154877319D01*
X259251736Y-154877019D01*
X259251743Y-154877019D01*
X259310251Y-154871282D01*
X259395744Y-154862899D01*
X259401645Y-154861117D01*
X259401647Y-154861117D01*
X259474964Y-154838981D01*
X259585080Y-154805735D01*
X259759707Y-154712885D01*
X259845973Y-154642528D01*
X259908198Y-154591779D01*
X259908201Y-154591776D01*
X259912973Y-154587884D01*
X259925255Y-154573038D01*
X260035112Y-154440244D01*
X260035114Y-154440240D01*
X260039041Y-154435494D01*
X260133109Y-154261520D01*
X260191593Y-154072587D01*
X260212266Y-153875894D01*
X260194341Y-153678931D01*
X260138501Y-153489200D01*
X260128830Y-153470700D01*
X260049724Y-153319387D01*
X260046871Y-153313929D01*
X259922943Y-153159794D01*
X259916638Y-153154503D01*
X259900245Y-153140748D01*
X259771437Y-153032665D01*
X259766039Y-153029698D01*
X259766034Y-153029694D01*
X259603519Y-152940352D01*
X259603520Y-152940352D01*
X259598124Y-152937386D01*
X259592257Y-152935525D01*
X259592255Y-152935524D01*
X259415475Y-152879446D01*
X259415474Y-152879446D01*
X259409605Y-152877584D01*
X259255684Y-152860319D01*
X259149142Y-152860319D01*
X259146086Y-152860619D01*
X259146079Y-152860619D01*
X259087571Y-152866356D01*
X259002078Y-152874739D01*
X258996177Y-152876521D01*
X258996175Y-152876521D01*
X258922858Y-152898657D01*
X258812742Y-152931903D01*
X258638115Y-153024753D01*
X258551849Y-153095110D01*
X258489624Y-153145859D01*
X258489621Y-153145862D01*
X258484849Y-153149754D01*
X258480922Y-153154501D01*
X258480920Y-153154503D01*
X258362710Y-153297394D01*
X258362708Y-153297398D01*
X258358781Y-153302144D01*
X258264713Y-153476118D01*
X258206229Y-153665051D01*
X258185556Y-153861744D01*
X201488500Y-153861744D01*
X201488500Y-143100000D01*
X244486496Y-143100000D01*
X244506458Y-143289928D01*
X244565473Y-143471556D01*
X244660960Y-143636944D01*
X244665378Y-143641851D01*
X244665379Y-143641852D01*
X244710105Y-143691525D01*
X244788747Y-143778866D01*
X244943248Y-143891118D01*
X244949276Y-143893802D01*
X244949278Y-143893803D01*
X245111681Y-143966109D01*
X245117712Y-143968794D01*
X245211113Y-143988647D01*
X245298056Y-144007128D01*
X245298061Y-144007128D01*
X245304513Y-144008500D01*
X245495487Y-144008500D01*
X245501939Y-144007128D01*
X245501944Y-144007128D01*
X245588887Y-143988647D01*
X245682288Y-143968794D01*
X245688319Y-143966109D01*
X245850722Y-143893803D01*
X245850724Y-143893802D01*
X245856752Y-143891118D01*
X246011253Y-143778866D01*
X246106365Y-143673233D01*
X246166810Y-143635994D01*
X246237793Y-143637346D01*
X246293635Y-143673233D01*
X246388747Y-143778866D01*
X246543248Y-143891118D01*
X246549276Y-143893802D01*
X246549278Y-143893803D01*
X246711681Y-143966109D01*
X246717712Y-143968794D01*
X246811113Y-143988647D01*
X246898056Y-144007128D01*
X246898061Y-144007128D01*
X246904513Y-144008500D01*
X247095487Y-144008500D01*
X247101939Y-144007128D01*
X247101944Y-144007128D01*
X247188887Y-143988647D01*
X247282288Y-143968794D01*
X247288319Y-143966109D01*
X247450722Y-143893803D01*
X247450724Y-143893802D01*
X247456752Y-143891118D01*
X247611253Y-143778866D01*
X247656364Y-143728765D01*
X247716810Y-143691525D01*
X247787793Y-143692877D01*
X247843636Y-143728765D01*
X247888747Y-143778866D01*
X248043248Y-143891118D01*
X248049276Y-143893802D01*
X248049278Y-143893803D01*
X248211681Y-143966109D01*
X248217712Y-143968794D01*
X248311113Y-143988647D01*
X248398056Y-144007128D01*
X248398061Y-144007128D01*
X248404513Y-144008500D01*
X248595487Y-144008500D01*
X248601939Y-144007128D01*
X248601944Y-144007128D01*
X248688887Y-143988647D01*
X248782288Y-143968794D01*
X248788319Y-143966109D01*
X248950722Y-143893803D01*
X248950724Y-143893802D01*
X248956752Y-143891118D01*
X249111253Y-143778866D01*
X249189895Y-143691525D01*
X249234621Y-143641852D01*
X249234622Y-143641851D01*
X249239040Y-143636944D01*
X249334527Y-143471556D01*
X249393542Y-143289928D01*
X249413504Y-143100000D01*
X249393542Y-142910072D01*
X249334527Y-142728444D01*
X249239040Y-142563056D01*
X249206365Y-142526766D01*
X249115675Y-142426045D01*
X249115674Y-142426044D01*
X249111253Y-142421134D01*
X248956752Y-142308882D01*
X248950724Y-142306198D01*
X248950722Y-142306197D01*
X248788319Y-142233891D01*
X248788318Y-142233891D01*
X248782288Y-142231206D01*
X248688888Y-142211353D01*
X248601944Y-142192872D01*
X248601939Y-142192872D01*
X248595487Y-142191500D01*
X248404513Y-142191500D01*
X248398061Y-142192872D01*
X248398056Y-142192872D01*
X248311112Y-142211353D01*
X248217712Y-142231206D01*
X248211682Y-142233891D01*
X248211681Y-142233891D01*
X248049278Y-142306197D01*
X248049276Y-142306198D01*
X248043248Y-142308882D01*
X247888747Y-142421134D01*
X247884326Y-142426044D01*
X247884325Y-142426045D01*
X247843636Y-142471235D01*
X247783190Y-142508475D01*
X247712207Y-142507123D01*
X247656364Y-142471235D01*
X247615675Y-142426045D01*
X247615674Y-142426044D01*
X247611253Y-142421134D01*
X247456752Y-142308882D01*
X247450724Y-142306198D01*
X247450722Y-142306197D01*
X247288319Y-142233891D01*
X247288318Y-142233891D01*
X247282288Y-142231206D01*
X247188888Y-142211353D01*
X247101944Y-142192872D01*
X247101939Y-142192872D01*
X247095487Y-142191500D01*
X246904513Y-142191500D01*
X246898061Y-142192872D01*
X246898056Y-142192872D01*
X246811112Y-142211353D01*
X246717712Y-142231206D01*
X246711682Y-142233891D01*
X246711681Y-142233891D01*
X246549278Y-142306197D01*
X246549276Y-142306198D01*
X246543248Y-142308882D01*
X246388747Y-142421134D01*
X246311323Y-142507123D01*
X246293636Y-142526766D01*
X246233190Y-142564006D01*
X246162207Y-142562654D01*
X246106364Y-142526766D01*
X246088678Y-142507123D01*
X246011253Y-142421134D01*
X245856752Y-142308882D01*
X245850724Y-142306198D01*
X245850722Y-142306197D01*
X245688319Y-142233891D01*
X245688318Y-142233891D01*
X245682288Y-142231206D01*
X245588888Y-142211353D01*
X245501944Y-142192872D01*
X245501939Y-142192872D01*
X245495487Y-142191500D01*
X245304513Y-142191500D01*
X245298061Y-142192872D01*
X245298056Y-142192872D01*
X245211112Y-142211353D01*
X245117712Y-142231206D01*
X245111682Y-142233891D01*
X245111681Y-142233891D01*
X244949278Y-142306197D01*
X244949276Y-142306198D01*
X244943248Y-142308882D01*
X244788747Y-142421134D01*
X244784326Y-142426044D01*
X244784325Y-142426045D01*
X244693636Y-142526766D01*
X244660960Y-142563056D01*
X244565473Y-142728444D01*
X244506458Y-142910072D01*
X244486496Y-143100000D01*
X201488500Y-143100000D01*
X201488500Y-140100000D01*
X204286496Y-140100000D01*
X204287186Y-140106565D01*
X204301803Y-140245634D01*
X204306458Y-140289928D01*
X204365473Y-140471556D01*
X204460960Y-140636944D01*
X204465378Y-140641851D01*
X204465379Y-140641852D01*
X204551000Y-140736944D01*
X204588747Y-140778866D01*
X204606227Y-140791566D01*
X204726385Y-140878866D01*
X204743248Y-140891118D01*
X204749276Y-140893802D01*
X204749278Y-140893803D01*
X204911681Y-140966109D01*
X204917712Y-140968794D01*
X205004479Y-140987237D01*
X205098056Y-141007128D01*
X205098061Y-141007128D01*
X205104513Y-141008500D01*
X205295487Y-141008500D01*
X205301939Y-141007128D01*
X205301944Y-141007128D01*
X205451893Y-140975255D01*
X205522684Y-140980657D01*
X205579317Y-141023474D01*
X205603400Y-141085332D01*
X205606458Y-141114428D01*
X205665473Y-141296056D01*
X205760960Y-141461444D01*
X205888747Y-141603366D01*
X206043248Y-141715618D01*
X206049276Y-141718302D01*
X206049278Y-141718303D01*
X206211681Y-141790609D01*
X206217712Y-141793294D01*
X206311113Y-141813147D01*
X206398056Y-141831628D01*
X206398061Y-141831628D01*
X206404513Y-141833000D01*
X206595487Y-141833000D01*
X206601939Y-141831628D01*
X206601944Y-141831628D01*
X206688887Y-141813147D01*
X206782288Y-141793294D01*
X206788319Y-141790609D01*
X206950722Y-141718303D01*
X206950724Y-141718302D01*
X206956752Y-141715618D01*
X207111253Y-141603366D01*
X207239040Y-141461444D01*
X207334527Y-141296056D01*
X207393542Y-141114428D01*
X207398621Y-141066109D01*
X207412814Y-140931065D01*
X207413504Y-140924500D01*
X207399532Y-140791566D01*
X207394232Y-140741135D01*
X207394232Y-140741133D01*
X207393542Y-140734572D01*
X207334527Y-140552944D01*
X207239040Y-140387556D01*
X207151136Y-140289928D01*
X207115675Y-140250545D01*
X207115674Y-140250544D01*
X207111253Y-140245634D01*
X207048443Y-140200000D01*
X211886496Y-140200000D01*
X211887186Y-140206565D01*
X211896608Y-140296206D01*
X211906458Y-140389928D01*
X211965473Y-140571556D01*
X211968776Y-140577278D01*
X211968777Y-140577279D01*
X211999924Y-140631226D01*
X212060960Y-140736944D01*
X212188747Y-140878866D01*
X212287843Y-140950864D01*
X212328850Y-140980657D01*
X212343248Y-140991118D01*
X212349276Y-140993802D01*
X212349278Y-140993803D01*
X212415921Y-141023474D01*
X212517712Y-141068794D01*
X212595517Y-141085332D01*
X212698056Y-141107128D01*
X212698061Y-141107128D01*
X212704513Y-141108500D01*
X212895487Y-141108500D01*
X212895487Y-141110041D01*
X212957563Y-141121391D01*
X212994530Y-141149617D01*
X213106729Y-141274226D01*
X213261230Y-141386478D01*
X213267258Y-141389162D01*
X213267260Y-141389163D01*
X213416764Y-141455726D01*
X213435694Y-141464154D01*
X213529094Y-141484007D01*
X213616038Y-141502488D01*
X213616043Y-141502488D01*
X213622495Y-141503860D01*
X213813469Y-141503860D01*
X213819921Y-141502488D01*
X213819926Y-141502488D01*
X213906870Y-141484007D01*
X214000270Y-141464154D01*
X214019200Y-141455726D01*
X214168704Y-141389163D01*
X214168706Y-141389162D01*
X214174734Y-141386478D01*
X214329235Y-141274226D01*
X214457022Y-141132304D01*
X214544576Y-140980657D01*
X214549205Y-140972639D01*
X214549206Y-140972638D01*
X214552509Y-140966916D01*
X214611524Y-140785288D01*
X214616855Y-140734572D01*
X214630796Y-140601925D01*
X214631486Y-140595360D01*
X214611524Y-140405432D01*
X214552509Y-140223804D01*
X214534976Y-140193435D01*
X214500304Y-140133382D01*
X214457022Y-140058416D01*
X214448765Y-140049245D01*
X214333657Y-139921405D01*
X214333656Y-139921404D01*
X214329235Y-139916494D01*
X214174734Y-139804242D01*
X214168706Y-139801558D01*
X214168704Y-139801557D01*
X214006301Y-139729251D01*
X214006300Y-139729251D01*
X214000270Y-139726566D01*
X213906869Y-139706713D01*
X213819926Y-139688232D01*
X213819921Y-139688232D01*
X213813469Y-139686860D01*
X213622495Y-139686860D01*
X213622495Y-139685319D01*
X213560419Y-139673969D01*
X213523452Y-139645743D01*
X213411253Y-139521134D01*
X213280375Y-139426045D01*
X213262094Y-139412763D01*
X213262093Y-139412762D01*
X213256752Y-139408882D01*
X213250724Y-139406198D01*
X213250722Y-139406197D01*
X213088319Y-139333891D01*
X213088318Y-139333891D01*
X213082288Y-139331206D01*
X212988888Y-139311353D01*
X212901944Y-139292872D01*
X212901939Y-139292872D01*
X212895487Y-139291500D01*
X212704513Y-139291500D01*
X212698061Y-139292872D01*
X212698056Y-139292872D01*
X212611112Y-139311353D01*
X212517712Y-139331206D01*
X212511682Y-139333891D01*
X212511681Y-139333891D01*
X212349278Y-139406197D01*
X212349276Y-139406198D01*
X212343248Y-139408882D01*
X212337907Y-139412762D01*
X212337906Y-139412763D01*
X212319625Y-139426045D01*
X212188747Y-139521134D01*
X212060960Y-139663056D01*
X211965473Y-139828444D01*
X211906458Y-140010072D01*
X211905768Y-140016633D01*
X211905768Y-140016635D01*
X211896316Y-140106565D01*
X211886496Y-140200000D01*
X207048443Y-140200000D01*
X206956752Y-140133382D01*
X206950724Y-140130698D01*
X206950722Y-140130697D01*
X206788319Y-140058391D01*
X206788318Y-140058391D01*
X206782288Y-140055706D01*
X206688887Y-140035853D01*
X206601944Y-140017372D01*
X206601939Y-140017372D01*
X206595487Y-140016000D01*
X206404513Y-140016000D01*
X206398061Y-140017372D01*
X206398056Y-140017372D01*
X206248107Y-140049245D01*
X206177316Y-140043843D01*
X206120683Y-140001026D01*
X206096600Y-139939168D01*
X206094232Y-139916635D01*
X206094232Y-139916633D01*
X206093542Y-139910072D01*
X206034527Y-139728444D01*
X205939040Y-139563056D01*
X205811253Y-139421134D01*
X205656752Y-139308882D01*
X205650724Y-139306198D01*
X205650722Y-139306197D01*
X205488319Y-139233891D01*
X205488318Y-139233891D01*
X205482288Y-139231206D01*
X205388887Y-139211353D01*
X205301944Y-139192872D01*
X205301939Y-139192872D01*
X205295487Y-139191500D01*
X205104513Y-139191500D01*
X205098061Y-139192872D01*
X205098056Y-139192872D01*
X205011113Y-139211353D01*
X204917712Y-139231206D01*
X204911682Y-139233891D01*
X204911681Y-139233891D01*
X204749278Y-139306197D01*
X204749276Y-139306198D01*
X204743248Y-139308882D01*
X204588747Y-139421134D01*
X204460960Y-139563056D01*
X204365473Y-139728444D01*
X204306458Y-139910072D01*
X204305768Y-139916633D01*
X204305768Y-139916635D01*
X204291382Y-140053508D01*
X204286496Y-140100000D01*
X201488500Y-140100000D01*
X201488500Y-136700000D01*
X218186496Y-136700000D01*
X218206458Y-136889928D01*
X218265473Y-137071556D01*
X218360960Y-137236944D01*
X218488747Y-137378866D01*
X218643248Y-137491118D01*
X218649276Y-137493802D01*
X218649278Y-137493803D01*
X218811681Y-137566109D01*
X218817712Y-137568794D01*
X218911112Y-137588647D01*
X218998056Y-137607128D01*
X218998061Y-137607128D01*
X219004513Y-137608500D01*
X219195487Y-137608500D01*
X219201939Y-137607128D01*
X219201944Y-137607128D01*
X219288888Y-137588647D01*
X219382288Y-137568794D01*
X219388319Y-137566109D01*
X219550722Y-137493803D01*
X219550724Y-137493802D01*
X219556752Y-137491118D01*
X219711253Y-137378866D01*
X219839040Y-137236944D01*
X219934527Y-137071556D01*
X219993542Y-136889928D01*
X220013504Y-136700000D01*
X219993542Y-136510072D01*
X219934527Y-136328444D01*
X219839040Y-136163056D01*
X219711253Y-136021134D01*
X219556752Y-135908882D01*
X219550724Y-135906198D01*
X219550722Y-135906197D01*
X219388319Y-135833891D01*
X219388318Y-135833891D01*
X219382288Y-135831206D01*
X219288888Y-135811353D01*
X219201944Y-135792872D01*
X219201939Y-135792872D01*
X219195487Y-135791500D01*
X219004513Y-135791500D01*
X218998061Y-135792872D01*
X218998056Y-135792872D01*
X218911112Y-135811353D01*
X218817712Y-135831206D01*
X218811682Y-135833891D01*
X218811681Y-135833891D01*
X218649278Y-135906197D01*
X218649276Y-135906198D01*
X218643248Y-135908882D01*
X218488747Y-136021134D01*
X218360960Y-136163056D01*
X218265473Y-136328444D01*
X218206458Y-136510072D01*
X218186496Y-136700000D01*
X201488500Y-136700000D01*
X201488500Y-127900000D01*
X215386496Y-127900000D01*
X215387186Y-127906565D01*
X215399228Y-128021134D01*
X215406458Y-128089928D01*
X215465473Y-128271556D01*
X215560960Y-128436944D01*
X215688747Y-128578866D01*
X215843248Y-128691118D01*
X215849276Y-128693802D01*
X215849278Y-128693803D01*
X216011681Y-128766109D01*
X216017712Y-128768794D01*
X216104338Y-128787207D01*
X216198056Y-128807128D01*
X216198061Y-128807128D01*
X216204513Y-128808500D01*
X216388456Y-128808500D01*
X216456577Y-128828502D01*
X216503070Y-128882158D01*
X216508289Y-128895562D01*
X216565473Y-129071556D01*
X216660960Y-129236944D01*
X216788747Y-129378866D01*
X216943248Y-129491118D01*
X216949276Y-129493802D01*
X216949278Y-129493803D01*
X217111681Y-129566109D01*
X217117712Y-129568794D01*
X217211112Y-129588647D01*
X217298056Y-129607128D01*
X217298061Y-129607128D01*
X217304513Y-129608500D01*
X217495487Y-129608500D01*
X217501939Y-129607128D01*
X217501944Y-129607128D01*
X217588888Y-129588647D01*
X217682288Y-129568794D01*
X217688319Y-129566109D01*
X217850722Y-129493803D01*
X217850724Y-129493802D01*
X217856752Y-129491118D01*
X218011253Y-129378866D01*
X218139040Y-129236944D01*
X218234527Y-129071556D01*
X218293542Y-128889928D01*
X218313504Y-128700000D01*
X218301181Y-128582749D01*
X218294232Y-128516635D01*
X218294232Y-128516633D01*
X218293542Y-128510072D01*
X218234527Y-128328444D01*
X218139040Y-128163056D01*
X218011253Y-128021134D01*
X217856752Y-127908882D01*
X217850724Y-127906198D01*
X217850722Y-127906197D01*
X217688319Y-127833891D01*
X217688318Y-127833891D01*
X217682288Y-127831206D01*
X217588888Y-127811353D01*
X217501944Y-127792872D01*
X217501939Y-127792872D01*
X217495487Y-127791500D01*
X217311544Y-127791500D01*
X217243423Y-127771498D01*
X217196930Y-127717842D01*
X217191711Y-127704437D01*
X217136568Y-127534726D01*
X217134527Y-127528444D01*
X217039040Y-127363056D01*
X216911253Y-127221134D01*
X216756752Y-127108882D01*
X216750724Y-127106198D01*
X216750722Y-127106197D01*
X216588319Y-127033891D01*
X216588318Y-127033891D01*
X216582288Y-127031206D01*
X216488887Y-127011353D01*
X216401944Y-126992872D01*
X216401939Y-126992872D01*
X216395487Y-126991500D01*
X216204513Y-126991500D01*
X216198061Y-126992872D01*
X216198056Y-126992872D01*
X216111113Y-127011353D01*
X216017712Y-127031206D01*
X216011682Y-127033891D01*
X216011681Y-127033891D01*
X215849278Y-127106197D01*
X215849276Y-127106198D01*
X215843248Y-127108882D01*
X215688747Y-127221134D01*
X215560960Y-127363056D01*
X215465473Y-127528444D01*
X215406458Y-127710072D01*
X215386496Y-127900000D01*
X201488500Y-127900000D01*
X201488500Y-126603285D01*
X212858613Y-126603285D01*
X212878575Y-126793213D01*
X212937590Y-126974841D01*
X213033077Y-127140229D01*
X213160864Y-127282151D01*
X213315365Y-127394403D01*
X213321393Y-127397087D01*
X213321395Y-127397088D01*
X213483798Y-127469394D01*
X213489829Y-127472079D01*
X213583229Y-127491932D01*
X213670173Y-127510413D01*
X213670178Y-127510413D01*
X213676630Y-127511785D01*
X213867604Y-127511785D01*
X213874056Y-127510413D01*
X213874061Y-127510413D01*
X213961005Y-127491932D01*
X214054405Y-127472079D01*
X214060436Y-127469394D01*
X214222839Y-127397088D01*
X214222841Y-127397087D01*
X214228869Y-127394403D01*
X214383370Y-127282151D01*
X214511157Y-127140229D01*
X214606644Y-126974841D01*
X214665659Y-126793213D01*
X214685621Y-126603285D01*
X214680224Y-126551937D01*
X214692996Y-126482098D01*
X214731473Y-126436830D01*
X214772421Y-126407079D01*
X214811253Y-126378866D01*
X214939040Y-126236944D01*
X215034527Y-126071556D01*
X215093542Y-125889928D01*
X215113504Y-125700000D01*
X215093542Y-125510072D01*
X215034527Y-125328444D01*
X214939040Y-125163056D01*
X214811253Y-125021134D01*
X214656752Y-124908882D01*
X214650724Y-124906198D01*
X214650722Y-124906197D01*
X214488319Y-124833891D01*
X214488318Y-124833891D01*
X214482288Y-124831206D01*
X214388887Y-124811353D01*
X214301944Y-124792872D01*
X214301939Y-124792872D01*
X214295487Y-124791500D01*
X214104513Y-124791500D01*
X214098061Y-124792872D01*
X214098056Y-124792872D01*
X214011113Y-124811353D01*
X213917712Y-124831206D01*
X213911682Y-124833891D01*
X213911681Y-124833891D01*
X213749278Y-124906197D01*
X213749276Y-124906198D01*
X213743248Y-124908882D01*
X213588747Y-125021134D01*
X213460960Y-125163056D01*
X213365473Y-125328444D01*
X213306458Y-125510072D01*
X213286496Y-125700000D01*
X213287186Y-125706565D01*
X213291893Y-125751348D01*
X213279121Y-125821187D01*
X213240644Y-125866455D01*
X213160864Y-125924419D01*
X213033077Y-126066341D01*
X212937590Y-126231729D01*
X212878575Y-126413357D01*
X212858613Y-126603285D01*
X201488500Y-126603285D01*
X201488500Y-122222242D01*
X203343293Y-122222242D01*
X203344499Y-122236601D01*
X203357372Y-122389897D01*
X203360089Y-122422256D01*
X203415415Y-122615199D01*
X203507163Y-122793722D01*
X203631839Y-122951024D01*
X203784693Y-123081114D01*
X203959905Y-123179036D01*
X204001866Y-123192670D01*
X204144942Y-123239159D01*
X204144946Y-123239160D01*
X204150800Y-123241062D01*
X204350107Y-123264827D01*
X204356242Y-123264355D01*
X204356244Y-123264355D01*
X204544093Y-123249902D01*
X204544098Y-123249901D01*
X204550234Y-123249429D01*
X204556166Y-123247773D01*
X204556170Y-123247772D01*
X204737615Y-123197111D01*
X204737619Y-123197110D01*
X204743559Y-123195451D01*
X204749063Y-123192671D01*
X204749065Y-123192670D01*
X204917216Y-123107731D01*
X204917218Y-123107730D01*
X204922717Y-123104952D01*
X205080886Y-122981377D01*
X205212039Y-122829434D01*
X205219803Y-122815768D01*
X205269186Y-122728837D01*
X205311183Y-122654910D01*
X205374539Y-122464453D01*
X205399696Y-122265317D01*
X205400097Y-122236601D01*
X205380510Y-122036840D01*
X205322496Y-121844688D01*
X205256784Y-121721101D01*
X209418410Y-121721101D01*
X209438372Y-121911029D01*
X209497387Y-122092657D01*
X209592874Y-122258045D01*
X209720661Y-122399967D01*
X209875162Y-122512219D01*
X209881190Y-122514903D01*
X209881192Y-122514904D01*
X210041120Y-122586108D01*
X210049626Y-122589895D01*
X210056082Y-122591267D01*
X210062366Y-122593309D01*
X210061702Y-122595353D01*
X210115342Y-122624309D01*
X210149666Y-122686457D01*
X210144942Y-122757296D01*
X210100737Y-122815768D01*
X209960392Y-122917735D01*
X209955971Y-122922645D01*
X209955970Y-122922646D01*
X209903089Y-122981377D01*
X209832605Y-123059657D01*
X209737118Y-123225045D01*
X209678103Y-123406673D01*
X209658141Y-123596601D01*
X209658831Y-123603166D01*
X209675896Y-123765526D01*
X209678103Y-123786529D01*
X209737118Y-123968157D01*
X209832605Y-124133545D01*
X209960392Y-124275467D01*
X210114893Y-124387719D01*
X210120921Y-124390403D01*
X210120923Y-124390404D01*
X210283326Y-124462710D01*
X210289357Y-124465395D01*
X210382758Y-124485248D01*
X210469701Y-124503729D01*
X210469706Y-124503729D01*
X210476158Y-124505101D01*
X210667132Y-124505101D01*
X210673584Y-124503729D01*
X210673589Y-124503729D01*
X210760532Y-124485248D01*
X210853933Y-124465395D01*
X210859964Y-124462710D01*
X211022367Y-124390404D01*
X211022369Y-124390403D01*
X211028397Y-124387719D01*
X211182898Y-124275467D01*
X211197235Y-124259544D01*
X215973931Y-124259544D01*
X215974621Y-124266109D01*
X215987403Y-124387719D01*
X215993893Y-124449472D01*
X216052908Y-124631100D01*
X216148395Y-124796488D01*
X216276182Y-124938410D01*
X216430683Y-125050662D01*
X216436711Y-125053346D01*
X216436713Y-125053347D01*
X216599116Y-125125653D01*
X216605147Y-125128338D01*
X216698548Y-125148191D01*
X216785491Y-125166672D01*
X216785496Y-125166672D01*
X216791948Y-125168044D01*
X216982922Y-125168044D01*
X216989374Y-125166672D01*
X216989379Y-125166672D01*
X217076322Y-125148191D01*
X217169723Y-125128338D01*
X217175754Y-125125653D01*
X217338157Y-125053347D01*
X217338159Y-125053346D01*
X217344187Y-125050662D01*
X217498688Y-124938410D01*
X217626475Y-124796488D01*
X217721962Y-124631100D01*
X217780977Y-124449472D01*
X217787468Y-124387719D01*
X217800249Y-124266109D01*
X217800939Y-124259544D01*
X217780977Y-124069616D01*
X217721962Y-123887988D01*
X217687630Y-123828524D01*
X217670893Y-123759532D01*
X217687630Y-123702529D01*
X217728570Y-123631619D01*
X217787585Y-123449991D01*
X217807547Y-123260063D01*
X217798715Y-123176029D01*
X217788275Y-123076698D01*
X217788275Y-123076696D01*
X217787585Y-123070135D01*
X217728570Y-122888507D01*
X217633083Y-122723119D01*
X217600073Y-122686457D01*
X217509718Y-122586108D01*
X217509717Y-122586107D01*
X217505296Y-122581197D01*
X217350795Y-122468945D01*
X217344767Y-122466261D01*
X217344765Y-122466260D01*
X217182362Y-122393954D01*
X217182361Y-122393954D01*
X217176331Y-122391269D01*
X217082930Y-122371416D01*
X216995987Y-122352935D01*
X216995982Y-122352935D01*
X216989530Y-122351563D01*
X216798556Y-122351563D01*
X216792104Y-122352935D01*
X216792099Y-122352935D01*
X216705156Y-122371416D01*
X216611755Y-122391269D01*
X216605725Y-122393954D01*
X216605724Y-122393954D01*
X216443321Y-122466260D01*
X216443319Y-122466261D01*
X216437291Y-122468945D01*
X216282790Y-122581197D01*
X216278369Y-122586107D01*
X216278368Y-122586108D01*
X216188014Y-122686457D01*
X216155003Y-122723119D01*
X216059516Y-122888507D01*
X216000501Y-123070135D01*
X215999811Y-123076696D01*
X215999811Y-123076698D01*
X215989371Y-123176029D01*
X215980539Y-123260063D01*
X216000501Y-123449991D01*
X216059516Y-123631619D01*
X216093848Y-123691083D01*
X216110585Y-123760075D01*
X216093848Y-123817078D01*
X216052908Y-123887988D01*
X215993893Y-124069616D01*
X215973931Y-124259544D01*
X211197235Y-124259544D01*
X211310685Y-124133545D01*
X211406172Y-123968157D01*
X211465187Y-123786529D01*
X211467395Y-123765526D01*
X211484459Y-123603166D01*
X211485149Y-123596601D01*
X211465187Y-123406673D01*
X211406172Y-123225045D01*
X211310685Y-123059657D01*
X211240202Y-122981377D01*
X211187320Y-122922646D01*
X211187319Y-122922645D01*
X211182898Y-122917735D01*
X211028397Y-122805483D01*
X211022369Y-122802799D01*
X211022367Y-122802798D01*
X210859964Y-122730492D01*
X210859963Y-122730492D01*
X210853933Y-122727807D01*
X210847477Y-122726435D01*
X210841193Y-122724393D01*
X210841857Y-122722349D01*
X210788217Y-122693393D01*
X210753893Y-122631245D01*
X210758617Y-122560406D01*
X210802822Y-122501934D01*
X210943167Y-122399967D01*
X211070954Y-122258045D01*
X211166441Y-122092657D01*
X211225456Y-121911029D01*
X211245418Y-121721101D01*
X211244728Y-121714536D01*
X211226146Y-121537736D01*
X211226146Y-121537734D01*
X211225456Y-121531173D01*
X211166441Y-121349545D01*
X211140239Y-121304161D01*
X211112321Y-121255806D01*
X211070954Y-121184157D01*
X210943167Y-121042235D01*
X210788666Y-120929983D01*
X210782638Y-120927299D01*
X210782636Y-120927298D01*
X210620233Y-120854992D01*
X210620232Y-120854992D01*
X210614202Y-120852307D01*
X210520802Y-120832454D01*
X210433858Y-120813973D01*
X210433853Y-120813973D01*
X210427401Y-120812601D01*
X210236427Y-120812601D01*
X210229975Y-120813973D01*
X210229970Y-120813973D01*
X210143026Y-120832454D01*
X210049626Y-120852307D01*
X210043596Y-120854992D01*
X210043595Y-120854992D01*
X209881192Y-120927298D01*
X209881190Y-120927299D01*
X209875162Y-120929983D01*
X209720661Y-121042235D01*
X209592874Y-121184157D01*
X209551507Y-121255806D01*
X209523590Y-121304161D01*
X209497387Y-121349545D01*
X209438372Y-121531173D01*
X209437682Y-121537734D01*
X209437682Y-121537736D01*
X209419100Y-121714536D01*
X209418410Y-121721101D01*
X205256784Y-121721101D01*
X205228265Y-121667464D01*
X205101404Y-121511919D01*
X204946748Y-121383976D01*
X204770186Y-121288509D01*
X204664540Y-121255806D01*
X204584331Y-121230977D01*
X204584328Y-121230976D01*
X204578444Y-121229155D01*
X204572319Y-121228511D01*
X204572318Y-121228511D01*
X204384953Y-121208818D01*
X204384952Y-121208818D01*
X204378825Y-121208174D01*
X204295807Y-121215729D01*
X204185071Y-121225807D01*
X204185068Y-121225808D01*
X204178932Y-121226366D01*
X204173026Y-121228104D01*
X204173022Y-121228105D01*
X204030766Y-121269974D01*
X203986380Y-121283037D01*
X203808503Y-121376029D01*
X203652075Y-121501800D01*
X203648117Y-121506517D01*
X203648115Y-121506519D01*
X203639582Y-121516688D01*
X203523055Y-121655560D01*
X203520091Y-121660952D01*
X203520088Y-121660956D01*
X203487023Y-121721101D01*
X203426358Y-121831451D01*
X203365667Y-122022774D01*
X203343293Y-122222242D01*
X201488500Y-122222242D01*
X201488500Y-120728539D01*
X220115035Y-120728539D01*
X220115725Y-120735104D01*
X220130808Y-120878607D01*
X220134997Y-120918467D01*
X220194012Y-121100095D01*
X220289499Y-121265483D01*
X220293917Y-121270390D01*
X220293918Y-121270391D01*
X220412864Y-121402494D01*
X220417286Y-121407405D01*
X220516382Y-121479403D01*
X220561137Y-121511919D01*
X220571787Y-121519657D01*
X220577815Y-121522341D01*
X220577817Y-121522342D01*
X220597652Y-121531173D01*
X220746251Y-121597333D01*
X220839652Y-121617186D01*
X220926595Y-121635667D01*
X220926600Y-121635667D01*
X220933052Y-121637039D01*
X221124026Y-121637039D01*
X221130478Y-121635667D01*
X221130483Y-121635667D01*
X221217426Y-121617186D01*
X221310827Y-121597333D01*
X221459426Y-121531173D01*
X221479261Y-121522342D01*
X221479263Y-121522341D01*
X221485291Y-121519657D01*
X221495942Y-121511919D01*
X221540696Y-121479403D01*
X221639792Y-121407405D01*
X221705025Y-121334956D01*
X221765468Y-121297718D01*
X221836452Y-121299069D01*
X221849907Y-121304161D01*
X221992025Y-121367436D01*
X221992033Y-121367439D01*
X221998060Y-121370122D01*
X222063238Y-121383976D01*
X222178404Y-121408456D01*
X222178409Y-121408456D01*
X222184861Y-121409828D01*
X222375835Y-121409828D01*
X222382287Y-121408456D01*
X222382292Y-121408456D01*
X222497458Y-121383976D01*
X222562636Y-121370122D01*
X222608853Y-121349545D01*
X222731070Y-121295131D01*
X222731072Y-121295130D01*
X222737100Y-121292446D01*
X222750051Y-121283037D01*
X222824212Y-121229155D01*
X222891601Y-121180194D01*
X222896023Y-121175283D01*
X223014969Y-121043180D01*
X223014970Y-121043179D01*
X223019388Y-121038272D01*
X223114875Y-120872884D01*
X223173890Y-120691256D01*
X223193852Y-120501328D01*
X223193162Y-120494763D01*
X223174581Y-120317970D01*
X223174580Y-120317966D01*
X223173890Y-120311400D01*
X223160216Y-120269315D01*
X223158188Y-120198348D01*
X223186411Y-120146072D01*
X223257185Y-120067469D01*
X223352672Y-119902081D01*
X223411687Y-119720453D01*
X223431649Y-119530525D01*
X223430959Y-119523960D01*
X223412377Y-119347160D01*
X223412377Y-119347158D01*
X223411687Y-119340597D01*
X223352672Y-119158969D01*
X223257185Y-118993581D01*
X223155514Y-118880664D01*
X223124797Y-118816657D01*
X223125904Y-118770154D01*
X223126312Y-118768235D01*
X223128354Y-118761950D01*
X223148316Y-118572022D01*
X223128354Y-118382094D01*
X223069339Y-118200466D01*
X222973852Y-118035078D01*
X222927290Y-117983365D01*
X222850487Y-117898067D01*
X222850486Y-117898066D01*
X222846065Y-117893156D01*
X222717847Y-117800000D01*
X222696906Y-117784785D01*
X222696905Y-117784784D01*
X222691564Y-117780904D01*
X222685536Y-117778220D01*
X222685534Y-117778219D01*
X222569114Y-117726386D01*
X222515018Y-117680406D01*
X222495053Y-117624449D01*
X222494232Y-117616635D01*
X222494232Y-117616633D01*
X222493542Y-117610072D01*
X222434527Y-117428444D01*
X222339040Y-117263056D01*
X222211253Y-117121134D01*
X222056752Y-117008882D01*
X222050724Y-117006198D01*
X222050722Y-117006197D01*
X221888319Y-116933891D01*
X221888318Y-116933891D01*
X221882288Y-116931206D01*
X221788888Y-116911353D01*
X221701944Y-116892872D01*
X221701939Y-116892872D01*
X221695487Y-116891500D01*
X221504513Y-116891500D01*
X221498061Y-116892872D01*
X221498056Y-116892872D01*
X221411112Y-116911353D01*
X221317712Y-116931206D01*
X221311682Y-116933891D01*
X221311681Y-116933891D01*
X221149278Y-117006197D01*
X221149276Y-117006198D01*
X221143248Y-117008882D01*
X220988747Y-117121134D01*
X220860960Y-117263056D01*
X220765473Y-117428444D01*
X220706458Y-117610072D01*
X220705768Y-117616633D01*
X220705768Y-117616635D01*
X220696667Y-117703228D01*
X220686496Y-117800000D01*
X220687186Y-117806565D01*
X220698449Y-117913722D01*
X220706458Y-117989928D01*
X220765473Y-118171556D01*
X220860960Y-118336944D01*
X220865378Y-118341851D01*
X220865379Y-118341852D01*
X220984325Y-118473955D01*
X220988747Y-118478866D01*
X221087843Y-118550864D01*
X221126001Y-118578587D01*
X221143248Y-118591118D01*
X221149276Y-118593802D01*
X221149278Y-118593803D01*
X221265698Y-118645636D01*
X221319794Y-118691616D01*
X221339759Y-118747573D01*
X221340580Y-118755382D01*
X221341270Y-118761950D01*
X221400285Y-118943578D01*
X221495772Y-119108966D01*
X221500190Y-119113873D01*
X221500191Y-119113874D01*
X221597443Y-119221883D01*
X221628160Y-119285890D01*
X221627053Y-119332393D01*
X221626645Y-119334312D01*
X221624603Y-119340597D01*
X221604641Y-119530525D01*
X221624603Y-119720453D01*
X221626643Y-119726731D01*
X221626645Y-119726739D01*
X221638277Y-119762538D01*
X221640305Y-119833505D01*
X221612077Y-119885786D01*
X221603859Y-119894914D01*
X221543411Y-119932151D01*
X221472427Y-119930795D01*
X221458982Y-119925707D01*
X221310827Y-119859745D01*
X221217427Y-119839892D01*
X221130483Y-119821411D01*
X221130478Y-119821411D01*
X221124026Y-119820039D01*
X220933052Y-119820039D01*
X220926600Y-119821411D01*
X220926595Y-119821411D01*
X220839651Y-119839892D01*
X220746251Y-119859745D01*
X220740221Y-119862430D01*
X220740220Y-119862430D01*
X220577817Y-119934736D01*
X220577815Y-119934737D01*
X220571787Y-119937421D01*
X220417286Y-120049673D01*
X220412865Y-120054583D01*
X220412864Y-120054584D01*
X220330492Y-120146068D01*
X220289499Y-120191595D01*
X220194012Y-120356983D01*
X220134997Y-120538611D01*
X220115035Y-120728539D01*
X201488500Y-120728539D01*
X201488500Y-117342242D01*
X203343293Y-117342242D01*
X203344499Y-117356601D01*
X203351060Y-117434729D01*
X203360089Y-117542256D01*
X203415415Y-117735199D01*
X203418230Y-117740676D01*
X203496594Y-117893156D01*
X203507163Y-117913722D01*
X203631839Y-118071024D01*
X203784693Y-118201114D01*
X203959905Y-118299036D01*
X204001866Y-118312670D01*
X204144942Y-118359159D01*
X204144946Y-118359160D01*
X204150800Y-118361062D01*
X204350107Y-118384827D01*
X204356242Y-118384355D01*
X204356244Y-118384355D01*
X204544093Y-118369902D01*
X204544098Y-118369901D01*
X204550234Y-118369429D01*
X204556166Y-118367773D01*
X204556170Y-118367772D01*
X204737615Y-118317111D01*
X204737619Y-118317110D01*
X204743559Y-118315451D01*
X204749063Y-118312671D01*
X204749065Y-118312670D01*
X204917216Y-118227731D01*
X204917218Y-118227730D01*
X204922717Y-118224952D01*
X205080886Y-118101377D01*
X205212039Y-117949434D01*
X205311183Y-117774910D01*
X205374539Y-117584453D01*
X205399696Y-117385317D01*
X205400097Y-117356601D01*
X205380510Y-117156840D01*
X205371213Y-117126045D01*
X205356352Y-117076825D01*
X205322496Y-116964688D01*
X205228265Y-116787464D01*
X205101404Y-116631919D01*
X204946748Y-116503976D01*
X204770186Y-116408509D01*
X204674315Y-116378832D01*
X204584331Y-116350977D01*
X204584328Y-116350976D01*
X204578444Y-116349155D01*
X204572319Y-116348511D01*
X204572318Y-116348511D01*
X204384953Y-116328818D01*
X204384952Y-116328818D01*
X204378825Y-116328174D01*
X204295807Y-116335729D01*
X204185071Y-116345807D01*
X204185068Y-116345808D01*
X204178932Y-116346366D01*
X204173026Y-116348104D01*
X204173022Y-116348105D01*
X204030766Y-116389974D01*
X203986380Y-116403037D01*
X203808503Y-116496029D01*
X203652075Y-116621800D01*
X203523055Y-116775560D01*
X203520091Y-116780952D01*
X203520088Y-116780956D01*
X203513519Y-116792905D01*
X203426358Y-116951451D01*
X203365667Y-117142774D01*
X203364981Y-117148891D01*
X203364980Y-117148895D01*
X203352175Y-117263056D01*
X203343293Y-117342242D01*
X201488500Y-117342242D01*
X201488500Y-115272600D01*
X212762926Y-115272600D01*
X212782888Y-115462528D01*
X212841903Y-115644156D01*
X212937390Y-115809544D01*
X213065177Y-115951466D01*
X213219678Y-116063718D01*
X213225706Y-116066402D01*
X213225708Y-116066403D01*
X213388111Y-116138709D01*
X213394142Y-116141394D01*
X213487543Y-116161247D01*
X213574486Y-116179728D01*
X213574491Y-116179728D01*
X213580943Y-116181100D01*
X213771917Y-116181100D01*
X213778369Y-116179728D01*
X213778374Y-116179728D01*
X213865317Y-116161247D01*
X213958718Y-116141394D01*
X213964749Y-116138709D01*
X214127152Y-116066403D01*
X214127154Y-116066402D01*
X214133182Y-116063718D01*
X214287683Y-115951466D01*
X214415470Y-115809544D01*
X214510957Y-115644156D01*
X214569972Y-115462528D01*
X214589934Y-115272600D01*
X214569972Y-115082672D01*
X214510957Y-114901044D01*
X214415470Y-114735656D01*
X214287683Y-114593734D01*
X214133182Y-114481482D01*
X214127154Y-114478798D01*
X214127152Y-114478797D01*
X213964749Y-114406491D01*
X213964748Y-114406491D01*
X213958718Y-114403806D01*
X213865318Y-114383953D01*
X213778374Y-114365472D01*
X213778369Y-114365472D01*
X213771917Y-114364100D01*
X213580943Y-114364100D01*
X213574491Y-114365472D01*
X213574486Y-114365472D01*
X213487542Y-114383953D01*
X213394142Y-114403806D01*
X213388112Y-114406491D01*
X213388111Y-114406491D01*
X213225708Y-114478797D01*
X213225706Y-114478798D01*
X213219678Y-114481482D01*
X213065177Y-114593734D01*
X212937390Y-114735656D01*
X212841903Y-114901044D01*
X212782888Y-115082672D01*
X212762926Y-115272600D01*
X201488500Y-115272600D01*
X201488500Y-112368224D01*
X201508502Y-112300103D01*
X201562158Y-112253610D01*
X201632432Y-112243506D01*
X201697012Y-112273000D01*
X201702399Y-112277949D01*
X201852009Y-112423692D01*
X202032863Y-112544536D01*
X202038171Y-112546817D01*
X202038172Y-112546817D01*
X202227409Y-112628119D01*
X202227412Y-112628120D01*
X202232712Y-112630397D01*
X202238342Y-112631671D01*
X202336464Y-112653874D01*
X202444860Y-112678402D01*
X202450631Y-112678629D01*
X202450633Y-112678629D01*
X202523620Y-112681496D01*
X202662205Y-112686941D01*
X202877466Y-112655730D01*
X202882930Y-112653875D01*
X202882935Y-112653874D01*
X203077963Y-112587671D01*
X203077968Y-112587669D01*
X203083435Y-112585813D01*
X203273213Y-112479532D01*
X203440446Y-112340446D01*
X203500252Y-112268537D01*
X203559189Y-112228953D01*
X203630171Y-112227517D01*
X203692913Y-112267258D01*
X203696204Y-112271914D01*
X203700347Y-112275950D01*
X203700348Y-112275951D01*
X203766554Y-112340446D01*
X203852009Y-112423692D01*
X204032863Y-112544536D01*
X204038171Y-112546817D01*
X204038172Y-112546817D01*
X204227409Y-112628119D01*
X204227412Y-112628120D01*
X204232712Y-112630397D01*
X204238342Y-112631671D01*
X204336464Y-112653874D01*
X204444860Y-112678402D01*
X204450631Y-112678629D01*
X204450633Y-112678629D01*
X204523620Y-112681496D01*
X204662205Y-112686941D01*
X204877466Y-112655730D01*
X204882930Y-112653875D01*
X204882935Y-112653874D01*
X205077963Y-112587671D01*
X205077968Y-112587669D01*
X205083435Y-112585813D01*
X205236665Y-112500000D01*
X243986496Y-112500000D01*
X243987186Y-112506565D01*
X244005247Y-112678402D01*
X244006458Y-112689928D01*
X244065473Y-112871556D01*
X244160960Y-113036944D01*
X244288747Y-113178866D01*
X244443248Y-113291118D01*
X244449276Y-113293802D01*
X244449278Y-113293803D01*
X244611681Y-113366109D01*
X244617712Y-113368794D01*
X244711113Y-113388647D01*
X244798056Y-113407128D01*
X244798061Y-113407128D01*
X244804513Y-113408500D01*
X244995487Y-113408500D01*
X245001939Y-113407128D01*
X245001944Y-113407128D01*
X245088887Y-113388647D01*
X245182288Y-113368794D01*
X245188319Y-113366109D01*
X245350722Y-113293803D01*
X245350724Y-113293802D01*
X245356752Y-113291118D01*
X245511253Y-113178866D01*
X245639040Y-113036944D01*
X245734527Y-112871556D01*
X245793542Y-112689928D01*
X245794754Y-112678402D01*
X245812814Y-112506565D01*
X245813504Y-112500000D01*
X245805484Y-112423692D01*
X245794232Y-112316635D01*
X245794232Y-112316633D01*
X245793542Y-112310072D01*
X245734527Y-112128444D01*
X245711251Y-112088128D01*
X245650806Y-111983435D01*
X245639040Y-111963056D01*
X245546128Y-111859866D01*
X245515675Y-111826045D01*
X245515674Y-111826044D01*
X245511253Y-111821134D01*
X245356752Y-111708882D01*
X245350724Y-111706198D01*
X245350722Y-111706197D01*
X245188319Y-111633891D01*
X245188318Y-111633891D01*
X245182288Y-111631206D01*
X245088887Y-111611353D01*
X245001944Y-111592872D01*
X245001939Y-111592872D01*
X244995487Y-111591500D01*
X244804513Y-111591500D01*
X244798061Y-111592872D01*
X244798056Y-111592872D01*
X244711112Y-111611353D01*
X244617712Y-111631206D01*
X244611682Y-111633891D01*
X244611681Y-111633891D01*
X244449278Y-111706197D01*
X244449276Y-111706198D01*
X244443248Y-111708882D01*
X244288747Y-111821134D01*
X244284326Y-111826044D01*
X244284325Y-111826045D01*
X244253873Y-111859866D01*
X244160960Y-111963056D01*
X244149194Y-111983435D01*
X244088750Y-112088128D01*
X244065473Y-112128444D01*
X244006458Y-112310072D01*
X244005768Y-112316633D01*
X244005768Y-112316635D01*
X243994516Y-112423692D01*
X243986496Y-112500000D01*
X205236665Y-112500000D01*
X205273213Y-112479532D01*
X205440446Y-112340446D01*
X205579532Y-112173213D01*
X205685813Y-111983435D01*
X205687669Y-111977968D01*
X205687671Y-111977963D01*
X205753874Y-111782935D01*
X205753875Y-111782930D01*
X205755730Y-111777466D01*
X205756558Y-111771757D01*
X205756559Y-111771752D01*
X205777779Y-111625398D01*
X205807349Y-111560852D01*
X205867121Y-111522540D01*
X205938117Y-111522624D01*
X205997798Y-111561079D01*
X206011593Y-111580477D01*
X206090960Y-111717944D01*
X206095378Y-111722851D01*
X206095379Y-111722852D01*
X206188294Y-111826045D01*
X206218747Y-111859866D01*
X206373248Y-111972118D01*
X206379276Y-111974802D01*
X206379278Y-111974803D01*
X206409993Y-111988478D01*
X206547712Y-112049794D01*
X206641112Y-112069647D01*
X206728056Y-112088128D01*
X206728061Y-112088128D01*
X206734513Y-112089500D01*
X206925487Y-112089500D01*
X206931939Y-112088128D01*
X206931944Y-112088128D01*
X207018888Y-112069647D01*
X207112288Y-112049794D01*
X207250007Y-111988478D01*
X207280722Y-111974803D01*
X207280724Y-111974802D01*
X207286752Y-111972118D01*
X207441253Y-111859866D01*
X207471706Y-111826045D01*
X207564621Y-111722852D01*
X207564622Y-111722851D01*
X207569040Y-111717944D01*
X207627314Y-111617010D01*
X207661223Y-111558279D01*
X207661224Y-111558278D01*
X207664527Y-111552556D01*
X207723542Y-111370928D01*
X207729249Y-111316635D01*
X207742814Y-111187565D01*
X207743504Y-111181000D01*
X207723542Y-110991072D01*
X207664527Y-110809444D01*
X207653260Y-110789928D01*
X207617052Y-110727215D01*
X207569040Y-110644056D01*
X207559888Y-110633891D01*
X207445675Y-110507045D01*
X207445674Y-110507044D01*
X207441253Y-110502134D01*
X207438316Y-110500000D01*
X211386496Y-110500000D01*
X211387186Y-110506565D01*
X211399569Y-110624379D01*
X211406458Y-110689928D01*
X211465473Y-110871556D01*
X211560960Y-111036944D01*
X211565378Y-111041851D01*
X211565379Y-111041852D01*
X211638194Y-111122721D01*
X211688747Y-111178866D01*
X211747521Y-111221568D01*
X211826385Y-111278866D01*
X211843248Y-111291118D01*
X211849276Y-111293802D01*
X211849278Y-111293803D01*
X212007764Y-111364365D01*
X212017712Y-111368794D01*
X212104479Y-111387237D01*
X212198056Y-111407128D01*
X212198061Y-111407128D01*
X212204513Y-111408500D01*
X212395487Y-111408500D01*
X212401939Y-111407128D01*
X212401944Y-111407128D01*
X212495521Y-111387237D01*
X212582288Y-111368794D01*
X212592236Y-111364365D01*
X212750722Y-111293803D01*
X212750724Y-111293802D01*
X212756752Y-111291118D01*
X212773616Y-111278866D01*
X212852479Y-111221568D01*
X212911253Y-111178866D01*
X212961806Y-111122721D01*
X213034621Y-111041852D01*
X213034622Y-111041851D01*
X213039040Y-111036944D01*
X213110524Y-110913130D01*
X213161906Y-110864137D01*
X213211446Y-110852118D01*
X213211310Y-110850820D01*
X213217877Y-110850130D01*
X213224479Y-110850130D01*
X213230931Y-110848758D01*
X213230936Y-110848758D01*
X213337789Y-110826045D01*
X213411280Y-110810424D01*
X213417333Y-110807729D01*
X213579714Y-110735433D01*
X213579716Y-110735432D01*
X213585744Y-110732748D01*
X213593360Y-110727215D01*
X213661047Y-110678037D01*
X213740245Y-110620496D01*
X213746261Y-110613815D01*
X213758700Y-110600000D01*
X222786496Y-110600000D01*
X222787186Y-110606565D01*
X222796608Y-110696206D01*
X222806458Y-110789928D01*
X222865473Y-110971556D01*
X222868776Y-110977278D01*
X222868777Y-110977279D01*
X222880529Y-110997634D01*
X222960960Y-111136944D01*
X223088747Y-111278866D01*
X223243248Y-111391118D01*
X223249276Y-111393802D01*
X223249278Y-111393803D01*
X223411681Y-111466109D01*
X223417712Y-111468794D01*
X223511113Y-111488647D01*
X223598056Y-111507128D01*
X223598061Y-111507128D01*
X223604513Y-111508500D01*
X223795487Y-111508500D01*
X223801939Y-111507128D01*
X223801944Y-111507128D01*
X223835477Y-111500000D01*
X242001494Y-111500000D01*
X242021456Y-111689928D01*
X242080471Y-111871556D01*
X242083774Y-111877278D01*
X242083775Y-111877279D01*
X242117684Y-111936010D01*
X242175958Y-112036944D01*
X242180376Y-112041851D01*
X242180377Y-112041852D01*
X242227588Y-112094285D01*
X242303745Y-112178866D01*
X242370707Y-112227517D01*
X242425424Y-112267271D01*
X242458246Y-112291118D01*
X242464274Y-112293802D01*
X242464276Y-112293803D01*
X242515558Y-112316635D01*
X242632710Y-112368794D01*
X242726110Y-112388647D01*
X242813054Y-112407128D01*
X242813059Y-112407128D01*
X242819511Y-112408500D01*
X243010485Y-112408500D01*
X243016937Y-112407128D01*
X243016942Y-112407128D01*
X243103886Y-112388647D01*
X243197286Y-112368794D01*
X243314438Y-112316635D01*
X243365720Y-112293803D01*
X243365722Y-112293802D01*
X243371750Y-112291118D01*
X243404573Y-112267271D01*
X243459289Y-112227517D01*
X243526251Y-112178866D01*
X243602408Y-112094285D01*
X243649619Y-112041852D01*
X243649620Y-112041851D01*
X243654038Y-112036944D01*
X243712312Y-111936010D01*
X243746221Y-111877279D01*
X243746222Y-111877278D01*
X243749525Y-111871556D01*
X243808540Y-111689928D01*
X243828502Y-111500000D01*
X243814430Y-111366109D01*
X243809230Y-111316635D01*
X243809230Y-111316633D01*
X243808540Y-111310072D01*
X243749525Y-111128444D01*
X243738482Y-111109316D01*
X243674002Y-110997635D01*
X243654038Y-110963056D01*
X243609085Y-110913130D01*
X243530673Y-110826045D01*
X243530672Y-110826044D01*
X243526251Y-110821134D01*
X243389280Y-110721618D01*
X243377092Y-110712763D01*
X243377091Y-110712762D01*
X243371750Y-110708882D01*
X243365722Y-110706198D01*
X243365720Y-110706197D01*
X243203317Y-110633891D01*
X243203316Y-110633891D01*
X243197286Y-110631206D01*
X243081360Y-110606565D01*
X243016942Y-110592872D01*
X243016937Y-110592872D01*
X243010485Y-110591500D01*
X242819511Y-110591500D01*
X242813059Y-110592872D01*
X242813054Y-110592872D01*
X242748636Y-110606565D01*
X242632710Y-110631206D01*
X242626680Y-110633891D01*
X242626679Y-110633891D01*
X242464276Y-110706197D01*
X242464274Y-110706198D01*
X242458246Y-110708882D01*
X242452905Y-110712762D01*
X242452904Y-110712763D01*
X242440716Y-110721618D01*
X242303745Y-110821134D01*
X242299324Y-110826044D01*
X242299323Y-110826045D01*
X242220912Y-110913130D01*
X242175958Y-110963056D01*
X242155994Y-110997635D01*
X242091515Y-111109316D01*
X242080471Y-111128444D01*
X242021456Y-111310072D01*
X242020766Y-111316633D01*
X242020766Y-111316635D01*
X242015566Y-111366109D01*
X242001494Y-111500000D01*
X223835477Y-111500000D01*
X223888887Y-111488647D01*
X223982288Y-111468794D01*
X223988319Y-111466109D01*
X224150722Y-111393803D01*
X224150724Y-111393802D01*
X224156752Y-111391118D01*
X224311253Y-111278866D01*
X224439040Y-111136944D01*
X224519471Y-110997634D01*
X224531223Y-110977279D01*
X224531224Y-110977278D01*
X224534527Y-110971556D01*
X224593542Y-110789928D01*
X224603393Y-110696206D01*
X224612814Y-110606565D01*
X224613504Y-110600000D01*
X224608989Y-110557044D01*
X224595684Y-110430450D01*
X239930295Y-110430450D01*
X239930985Y-110437015D01*
X239947737Y-110596397D01*
X239950257Y-110620378D01*
X240009272Y-110802006D01*
X240012575Y-110807728D01*
X240012576Y-110807729D01*
X240023151Y-110826045D01*
X240104759Y-110967394D01*
X240109177Y-110972301D01*
X240109178Y-110972302D01*
X240167382Y-111036944D01*
X240232546Y-111109316D01*
X240387047Y-111221568D01*
X240393075Y-111224252D01*
X240393077Y-111224253D01*
X240549290Y-111293803D01*
X240561511Y-111299244D01*
X240643329Y-111316635D01*
X240741855Y-111337578D01*
X240741860Y-111337578D01*
X240748312Y-111338950D01*
X240939286Y-111338950D01*
X240945738Y-111337578D01*
X240945743Y-111337578D01*
X241044269Y-111316635D01*
X241126087Y-111299244D01*
X241138308Y-111293803D01*
X241294521Y-111224253D01*
X241294523Y-111224252D01*
X241300551Y-111221568D01*
X241455052Y-111109316D01*
X241520216Y-111036944D01*
X241578420Y-110972302D01*
X241578421Y-110972301D01*
X241582839Y-110967394D01*
X241664447Y-110826045D01*
X241675022Y-110807729D01*
X241675023Y-110807728D01*
X241678326Y-110802006D01*
X241708584Y-110708882D01*
X241735301Y-110626657D01*
X241735301Y-110626655D01*
X241737341Y-110620378D01*
X241743998Y-110557044D01*
X241749154Y-110507986D01*
X241776167Y-110442330D01*
X241823214Y-110406051D01*
X241850717Y-110393806D01*
X241850725Y-110393801D01*
X241856752Y-110391118D01*
X242011253Y-110278866D01*
X242051431Y-110234244D01*
X242134621Y-110141852D01*
X242134622Y-110141851D01*
X242139040Y-110136944D01*
X242234527Y-109971556D01*
X242293542Y-109789928D01*
X242295453Y-109771752D01*
X242312814Y-109606565D01*
X242313504Y-109600000D01*
X242304974Y-109518844D01*
X242294232Y-109416635D01*
X242294232Y-109416633D01*
X242293542Y-109410072D01*
X242234527Y-109228444D01*
X242139040Y-109063056D01*
X242063658Y-108979335D01*
X242015675Y-108926045D01*
X242015674Y-108926044D01*
X242011253Y-108921134D01*
X241856752Y-108808882D01*
X241850724Y-108806198D01*
X241850722Y-108806197D01*
X241688319Y-108733891D01*
X241688318Y-108733891D01*
X241682288Y-108731206D01*
X241575249Y-108708454D01*
X241501944Y-108692872D01*
X241501939Y-108692872D01*
X241495487Y-108691500D01*
X241304513Y-108691500D01*
X241298061Y-108692872D01*
X241298056Y-108692872D01*
X241224751Y-108708454D01*
X241117712Y-108731206D01*
X241111682Y-108733891D01*
X241111681Y-108733891D01*
X240949278Y-108806197D01*
X240949276Y-108806198D01*
X240943248Y-108808882D01*
X240788747Y-108921134D01*
X240784326Y-108926044D01*
X240784325Y-108926045D01*
X240736343Y-108979335D01*
X240660960Y-109063056D01*
X240565473Y-109228444D01*
X240550095Y-109275771D01*
X240512617Y-109391118D01*
X240506458Y-109410072D01*
X240505768Y-109416635D01*
X240505768Y-109416636D01*
X240494645Y-109522464D01*
X240467632Y-109588120D01*
X240420585Y-109624399D01*
X240393082Y-109636644D01*
X240393074Y-109636649D01*
X240387047Y-109639332D01*
X240232546Y-109751584D01*
X240228125Y-109756494D01*
X240228124Y-109756495D01*
X240129652Y-109865860D01*
X240104759Y-109893506D01*
X240009272Y-110058894D01*
X239950257Y-110240522D01*
X239949567Y-110247083D01*
X239949567Y-110247085D01*
X239942419Y-110315094D01*
X239930295Y-110430450D01*
X224595684Y-110430450D01*
X224594232Y-110416635D01*
X224594232Y-110416633D01*
X224593542Y-110410072D01*
X224534527Y-110228444D01*
X224515233Y-110195025D01*
X224481699Y-110136944D01*
X224439040Y-110063056D01*
X224410622Y-110031494D01*
X224315675Y-109926045D01*
X224315674Y-109926044D01*
X224311253Y-109921134D01*
X224207082Y-109845449D01*
X224162094Y-109812763D01*
X224162093Y-109812762D01*
X224156752Y-109808882D01*
X224150724Y-109806198D01*
X224150722Y-109806197D01*
X223988319Y-109733891D01*
X223988318Y-109733891D01*
X223982288Y-109731206D01*
X223888887Y-109711353D01*
X223801944Y-109692872D01*
X223801939Y-109692872D01*
X223795487Y-109691500D01*
X223604513Y-109691500D01*
X223598061Y-109692872D01*
X223598056Y-109692872D01*
X223511113Y-109711353D01*
X223417712Y-109731206D01*
X223411682Y-109733891D01*
X223411681Y-109733891D01*
X223249278Y-109806197D01*
X223249276Y-109806198D01*
X223243248Y-109808882D01*
X223237907Y-109812762D01*
X223237906Y-109812763D01*
X223192918Y-109845449D01*
X223088747Y-109921134D01*
X223084326Y-109926044D01*
X223084325Y-109926045D01*
X222989379Y-110031494D01*
X222960960Y-110063056D01*
X222918301Y-110136944D01*
X222884768Y-110195025D01*
X222865473Y-110228444D01*
X222806458Y-110410072D01*
X222805768Y-110416633D01*
X222805768Y-110416635D01*
X222791011Y-110557044D01*
X222786496Y-110600000D01*
X213758700Y-110600000D01*
X213863613Y-110483482D01*
X213863614Y-110483481D01*
X213868032Y-110478574D01*
X213945854Y-110343782D01*
X213960215Y-110318909D01*
X213960216Y-110318908D01*
X213963519Y-110313186D01*
X213965561Y-110306902D01*
X213968245Y-110300873D01*
X213970906Y-110302058D01*
X214003767Y-110253964D01*
X214057363Y-110228232D01*
X214200955Y-110197710D01*
X214245991Y-110177659D01*
X214369389Y-110122719D01*
X214369391Y-110122718D01*
X214375419Y-110120034D01*
X214529920Y-110007782D01*
X214534342Y-110002871D01*
X214653288Y-109870768D01*
X214653289Y-109870767D01*
X214657707Y-109865860D01*
X214725926Y-109747701D01*
X214749890Y-109706195D01*
X214749891Y-109706194D01*
X214753194Y-109700472D01*
X214812209Y-109518844D01*
X214813296Y-109508500D01*
X214826586Y-109382057D01*
X214853599Y-109316400D01*
X214911821Y-109275771D01*
X214978093Y-109271981D01*
X215085804Y-109294876D01*
X215085809Y-109294876D01*
X215092261Y-109296248D01*
X215283235Y-109296248D01*
X215289687Y-109294876D01*
X215289692Y-109294876D01*
X215422761Y-109266591D01*
X215493552Y-109271993D01*
X215550185Y-109314810D01*
X215567485Y-109353171D01*
X215569158Y-109352628D01*
X215628173Y-109534256D01*
X215631476Y-109539978D01*
X215631477Y-109539979D01*
X215653136Y-109577493D01*
X215723660Y-109699644D01*
X215728078Y-109704551D01*
X215728079Y-109704552D01*
X215804952Y-109789928D01*
X215851447Y-109841566D01*
X215877015Y-109860142D01*
X215960963Y-109921134D01*
X216005948Y-109953818D01*
X216011976Y-109956502D01*
X216011978Y-109956503D01*
X216135875Y-110011665D01*
X216180412Y-110031494D01*
X216273813Y-110051347D01*
X216360756Y-110069828D01*
X216360761Y-110069828D01*
X216367213Y-110071200D01*
X216558187Y-110071200D01*
X216564639Y-110069828D01*
X216564644Y-110069828D01*
X216651588Y-110051347D01*
X216744988Y-110031494D01*
X216789525Y-110011665D01*
X216913422Y-109956503D01*
X216913424Y-109956502D01*
X216919452Y-109953818D01*
X216964438Y-109921134D01*
X217048385Y-109860142D01*
X217073953Y-109841566D01*
X217120448Y-109789928D01*
X217197321Y-109704552D01*
X217197322Y-109704551D01*
X217201740Y-109699644D01*
X217272264Y-109577493D01*
X217293923Y-109539979D01*
X217293924Y-109539978D01*
X217297227Y-109534256D01*
X217356242Y-109352628D01*
X217363587Y-109282749D01*
X217375514Y-109169265D01*
X217376204Y-109162700D01*
X217366615Y-109071464D01*
X217356932Y-108979335D01*
X217356932Y-108979333D01*
X217356242Y-108972772D01*
X217297227Y-108791144D01*
X217254563Y-108717248D01*
X217235519Y-108684262D01*
X217218781Y-108615266D01*
X217242002Y-108548175D01*
X217297809Y-108504288D01*
X217318438Y-108498016D01*
X217457788Y-108468396D01*
X217463819Y-108465711D01*
X217626222Y-108393405D01*
X217626224Y-108393404D01*
X217632252Y-108390720D01*
X217786753Y-108278468D01*
X217844686Y-108214127D01*
X217910121Y-108141454D01*
X217910122Y-108141453D01*
X217914540Y-108136546D01*
X218010027Y-107971158D01*
X218069042Y-107789530D01*
X218069865Y-107781699D01*
X218070147Y-107781014D01*
X218071106Y-107776502D01*
X218071931Y-107776677D01*
X218096879Y-107716042D01*
X218119867Y-107700000D01*
X239286496Y-107700000D01*
X239287186Y-107706565D01*
X239302381Y-107851134D01*
X239306458Y-107889928D01*
X239365473Y-108071556D01*
X239368776Y-108077278D01*
X239368777Y-108077279D01*
X239399694Y-108130828D01*
X239460960Y-108236944D01*
X239465378Y-108241851D01*
X239465379Y-108241852D01*
X239584325Y-108373955D01*
X239588747Y-108378866D01*
X239743248Y-108491118D01*
X239749276Y-108493802D01*
X239749278Y-108493803D01*
X239891321Y-108557044D01*
X239917712Y-108568794D01*
X240011112Y-108588647D01*
X240098056Y-108607128D01*
X240098061Y-108607128D01*
X240104513Y-108608500D01*
X240295487Y-108608500D01*
X240301939Y-108607128D01*
X240301944Y-108607128D01*
X240335478Y-108600000D01*
X250986496Y-108600000D01*
X250987186Y-108606565D01*
X250988101Y-108615266D01*
X251006458Y-108789928D01*
X251065473Y-108971556D01*
X251160960Y-109136944D01*
X251165378Y-109141851D01*
X251165379Y-109141852D01*
X251284325Y-109273955D01*
X251288747Y-109278866D01*
X251340408Y-109316400D01*
X251430777Y-109382057D01*
X251443248Y-109391118D01*
X251449276Y-109393802D01*
X251449278Y-109393803D01*
X251611681Y-109466109D01*
X251617712Y-109468794D01*
X251711113Y-109488647D01*
X251798056Y-109507128D01*
X251798061Y-109507128D01*
X251804513Y-109508500D01*
X251995487Y-109508500D01*
X252001939Y-109507128D01*
X252001944Y-109507128D01*
X252088887Y-109488647D01*
X252182288Y-109468794D01*
X252188319Y-109466109D01*
X252350722Y-109393803D01*
X252350724Y-109393802D01*
X252356752Y-109391118D01*
X252369224Y-109382057D01*
X252459592Y-109316400D01*
X252511253Y-109278866D01*
X252515675Y-109273955D01*
X252634621Y-109141852D01*
X252634622Y-109141851D01*
X252639040Y-109136944D01*
X252734527Y-108971556D01*
X252793542Y-108789928D01*
X252811900Y-108615266D01*
X252812814Y-108606565D01*
X252813504Y-108600000D01*
X252807374Y-108541679D01*
X252794232Y-108416635D01*
X252794232Y-108416633D01*
X252793542Y-108410072D01*
X252734527Y-108228444D01*
X252639040Y-108063056D01*
X252619239Y-108041064D01*
X252515675Y-107926045D01*
X252515674Y-107926044D01*
X252511253Y-107921134D01*
X252407697Y-107845896D01*
X252362094Y-107812763D01*
X252362093Y-107812762D01*
X252356752Y-107808882D01*
X252350724Y-107806198D01*
X252350722Y-107806197D01*
X252188319Y-107733891D01*
X252188318Y-107733891D01*
X252182288Y-107731206D01*
X252088887Y-107711353D01*
X252001944Y-107692872D01*
X252001939Y-107692872D01*
X251995487Y-107691500D01*
X251804513Y-107691500D01*
X251798061Y-107692872D01*
X251798056Y-107692872D01*
X251711113Y-107711353D01*
X251617712Y-107731206D01*
X251611682Y-107733891D01*
X251611681Y-107733891D01*
X251449278Y-107806197D01*
X251449276Y-107806198D01*
X251443248Y-107808882D01*
X251437907Y-107812762D01*
X251437906Y-107812763D01*
X251392303Y-107845896D01*
X251288747Y-107921134D01*
X251284326Y-107926044D01*
X251284325Y-107926045D01*
X251180762Y-108041064D01*
X251160960Y-108063056D01*
X251065473Y-108228444D01*
X251006458Y-108410072D01*
X251005768Y-108416633D01*
X251005768Y-108416635D01*
X250992626Y-108541679D01*
X250986496Y-108600000D01*
X240335478Y-108600000D01*
X240388888Y-108588647D01*
X240482288Y-108568794D01*
X240508679Y-108557044D01*
X240650722Y-108493803D01*
X240650724Y-108493802D01*
X240656752Y-108491118D01*
X240811253Y-108378866D01*
X240815675Y-108373955D01*
X240934621Y-108241852D01*
X240934622Y-108241851D01*
X240939040Y-108236944D01*
X241000306Y-108130828D01*
X241031223Y-108077279D01*
X241031224Y-108077278D01*
X241034527Y-108071556D01*
X241093542Y-107889928D01*
X241097620Y-107851134D01*
X241112814Y-107706565D01*
X241113504Y-107700000D01*
X241110920Y-107675413D01*
X241094232Y-107516635D01*
X241094232Y-107516633D01*
X241093542Y-107510072D01*
X241034527Y-107328444D01*
X240939040Y-107163056D01*
X240920594Y-107142569D01*
X240815675Y-107026045D01*
X240815674Y-107026044D01*
X240811253Y-107021134D01*
X240656752Y-106908882D01*
X240650724Y-106906198D01*
X240650722Y-106906197D01*
X240488319Y-106833891D01*
X240488318Y-106833891D01*
X240482288Y-106831206D01*
X240366362Y-106806565D01*
X240301944Y-106792872D01*
X240301939Y-106792872D01*
X240295487Y-106791500D01*
X240104513Y-106791500D01*
X240098061Y-106792872D01*
X240098056Y-106792872D01*
X240033638Y-106806565D01*
X239917712Y-106831206D01*
X239911682Y-106833891D01*
X239911681Y-106833891D01*
X239749278Y-106906197D01*
X239749276Y-106906198D01*
X239743248Y-106908882D01*
X239588747Y-107021134D01*
X239584326Y-107026044D01*
X239584325Y-107026045D01*
X239479407Y-107142569D01*
X239460960Y-107163056D01*
X239365473Y-107328444D01*
X239306458Y-107510072D01*
X239305768Y-107516633D01*
X239305768Y-107516635D01*
X239289080Y-107675413D01*
X239286496Y-107700000D01*
X218119867Y-107700000D01*
X218155100Y-107675413D01*
X218168979Y-107671623D01*
X218175830Y-107670167D01*
X218175833Y-107670166D01*
X218182288Y-107668794D01*
X218208284Y-107657220D01*
X218350722Y-107593803D01*
X218350724Y-107593802D01*
X218356752Y-107591118D01*
X218511253Y-107478866D01*
X218573554Y-107409674D01*
X218634621Y-107341852D01*
X218634622Y-107341851D01*
X218639040Y-107336944D01*
X218718157Y-107199909D01*
X218731223Y-107177279D01*
X218731224Y-107177278D01*
X218734527Y-107171556D01*
X218793542Y-106989928D01*
X218795200Y-106974158D01*
X218812814Y-106806565D01*
X218813504Y-106800000D01*
X218793542Y-106610072D01*
X218792097Y-106605625D01*
X235080871Y-106605625D01*
X235081561Y-106612190D01*
X235098265Y-106771116D01*
X235100833Y-106795553D01*
X235159848Y-106977181D01*
X235163151Y-106982903D01*
X235163152Y-106982904D01*
X235188060Y-107026045D01*
X235255335Y-107142569D01*
X235259753Y-107147476D01*
X235259754Y-107147477D01*
X235349601Y-107247262D01*
X235383122Y-107284491D01*
X235537623Y-107396743D01*
X235543651Y-107399427D01*
X235543653Y-107399428D01*
X235581407Y-107416237D01*
X235712087Y-107474419D01*
X235797843Y-107492647D01*
X235892431Y-107512753D01*
X235892436Y-107512753D01*
X235898888Y-107514125D01*
X236089862Y-107514125D01*
X236096314Y-107512753D01*
X236096319Y-107512753D01*
X236190907Y-107492647D01*
X236276663Y-107474419D01*
X236407343Y-107416237D01*
X236445097Y-107399428D01*
X236445099Y-107399427D01*
X236451127Y-107396743D01*
X236605628Y-107284491D01*
X236639149Y-107247262D01*
X236728996Y-107147477D01*
X236728997Y-107147476D01*
X236733415Y-107142569D01*
X236800690Y-107026045D01*
X236825598Y-106982904D01*
X236825599Y-106982903D01*
X236828902Y-106977181D01*
X236887917Y-106795553D01*
X236890486Y-106771116D01*
X236907189Y-106612190D01*
X236907879Y-106605625D01*
X236900548Y-106535877D01*
X236888607Y-106422260D01*
X236888607Y-106422258D01*
X236887917Y-106415697D01*
X236828902Y-106234069D01*
X236733415Y-106068681D01*
X236656983Y-105983794D01*
X236610050Y-105931670D01*
X236610049Y-105931669D01*
X236605628Y-105926759D01*
X236451127Y-105814507D01*
X236445099Y-105811823D01*
X236445097Y-105811822D01*
X236282694Y-105739516D01*
X236282693Y-105739516D01*
X236276663Y-105736831D01*
X236183262Y-105716978D01*
X236096319Y-105698497D01*
X236096314Y-105698497D01*
X236089862Y-105697125D01*
X235898888Y-105697125D01*
X235892436Y-105698497D01*
X235892431Y-105698497D01*
X235805487Y-105716978D01*
X235712087Y-105736831D01*
X235706057Y-105739516D01*
X235706056Y-105739516D01*
X235543653Y-105811822D01*
X235543651Y-105811823D01*
X235537623Y-105814507D01*
X235383122Y-105926759D01*
X235378701Y-105931669D01*
X235378700Y-105931670D01*
X235331768Y-105983794D01*
X235255335Y-106068681D01*
X235159848Y-106234069D01*
X235100833Y-106415697D01*
X235100143Y-106422258D01*
X235100143Y-106422260D01*
X235088202Y-106535877D01*
X235080871Y-106605625D01*
X218792097Y-106605625D01*
X218734527Y-106428444D01*
X218639040Y-106263056D01*
X218511253Y-106121134D01*
X218356752Y-106008882D01*
X218350720Y-106006196D01*
X218350714Y-106006193D01*
X218320780Y-105992865D01*
X218266684Y-105946885D01*
X218246719Y-105890930D01*
X218235863Y-105787643D01*
X218235863Y-105787642D01*
X218235173Y-105781079D01*
X218228384Y-105760183D01*
X218190326Y-105643056D01*
X218176158Y-105599451D01*
X218080671Y-105434063D01*
X218043485Y-105392763D01*
X217957306Y-105297052D01*
X217957305Y-105297051D01*
X217952884Y-105292141D01*
X217798383Y-105179889D01*
X217792355Y-105177205D01*
X217792353Y-105177204D01*
X217629950Y-105104898D01*
X217629949Y-105104898D01*
X217623919Y-105102213D01*
X217530519Y-105082360D01*
X217443575Y-105063879D01*
X217443570Y-105063879D01*
X217437118Y-105062507D01*
X217246144Y-105062507D01*
X217239692Y-105063879D01*
X217239687Y-105063879D01*
X217152744Y-105082360D01*
X217059343Y-105102213D01*
X217053313Y-105104898D01*
X217053312Y-105104898D01*
X216890909Y-105177204D01*
X216890907Y-105177205D01*
X216884879Y-105179889D01*
X216730378Y-105292141D01*
X216725957Y-105297051D01*
X216725956Y-105297052D01*
X216639778Y-105392763D01*
X216602591Y-105434063D01*
X216507104Y-105599451D01*
X216448089Y-105781079D01*
X216447399Y-105787640D01*
X216447399Y-105787642D01*
X216440188Y-105856249D01*
X216428127Y-105971007D01*
X216448089Y-106160935D01*
X216507104Y-106342563D01*
X216510407Y-106348285D01*
X216510408Y-106348286D01*
X216522903Y-106369928D01*
X216602591Y-106507951D01*
X216718480Y-106636659D01*
X216749195Y-106700663D01*
X216740431Y-106771116D01*
X216698903Y-106822902D01*
X216683778Y-106833891D01*
X216564247Y-106920736D01*
X216559826Y-106925646D01*
X216559825Y-106925647D01*
X216477345Y-107017251D01*
X216436460Y-107062658D01*
X216340973Y-107228046D01*
X216281958Y-107409674D01*
X216281268Y-107416235D01*
X216281268Y-107416237D01*
X216270472Y-107518954D01*
X216261996Y-107599602D01*
X216262686Y-107606167D01*
X216280101Y-107771857D01*
X216281958Y-107789530D01*
X216340973Y-107971158D01*
X216344276Y-107976880D01*
X216344277Y-107976881D01*
X216402681Y-108078040D01*
X216419419Y-108147036D01*
X216396198Y-108214127D01*
X216340391Y-108258014D01*
X216319758Y-108264287D01*
X216227686Y-108283857D01*
X216156895Y-108278454D01*
X216100263Y-108235637D01*
X216082963Y-108197277D01*
X216081290Y-108197820D01*
X216042371Y-108078040D01*
X216022275Y-108016192D01*
X215926788Y-107850804D01*
X215877270Y-107795808D01*
X215803423Y-107713793D01*
X215803422Y-107713792D01*
X215799001Y-107708882D01*
X215644500Y-107596630D01*
X215638472Y-107593946D01*
X215638470Y-107593945D01*
X215476067Y-107521639D01*
X215476066Y-107521639D01*
X215470036Y-107518954D01*
X215369362Y-107497555D01*
X215289692Y-107480620D01*
X215289687Y-107480620D01*
X215283235Y-107479248D01*
X215092261Y-107479248D01*
X215085809Y-107480620D01*
X215085804Y-107480620D01*
X215006134Y-107497555D01*
X214905460Y-107518954D01*
X214899430Y-107521639D01*
X214899429Y-107521639D01*
X214737026Y-107593945D01*
X214737024Y-107593946D01*
X214730996Y-107596630D01*
X214576495Y-107708882D01*
X214572074Y-107713792D01*
X214572073Y-107713793D01*
X214498227Y-107795808D01*
X214448708Y-107850804D01*
X214353221Y-108016192D01*
X214294206Y-108197820D01*
X214293516Y-108204381D01*
X214293516Y-108204383D01*
X214279829Y-108334607D01*
X214252816Y-108400264D01*
X214194594Y-108440893D01*
X214128322Y-108444683D01*
X214020611Y-108421788D01*
X214020606Y-108421788D01*
X214014154Y-108420416D01*
X213823180Y-108420416D01*
X213816728Y-108421788D01*
X213816723Y-108421788D01*
X213729779Y-108440269D01*
X213636379Y-108460122D01*
X213630349Y-108462807D01*
X213630348Y-108462807D01*
X213467945Y-108535113D01*
X213467943Y-108535114D01*
X213461915Y-108537798D01*
X213307414Y-108650050D01*
X213302993Y-108654960D01*
X213302992Y-108654961D01*
X213185526Y-108785421D01*
X213179627Y-108791972D01*
X213162443Y-108821736D01*
X213114564Y-108904665D01*
X213084140Y-108957360D01*
X213082098Y-108963644D01*
X213079414Y-108969673D01*
X213076753Y-108968488D01*
X213043892Y-109016582D01*
X212990296Y-109042314D01*
X212846704Y-109072836D01*
X212840674Y-109075521D01*
X212840673Y-109075521D01*
X212678270Y-109147827D01*
X212678268Y-109147828D01*
X212672240Y-109150512D01*
X212666899Y-109154392D01*
X212666898Y-109154393D01*
X212655465Y-109162700D01*
X212517739Y-109262764D01*
X212513318Y-109267674D01*
X212513317Y-109267675D01*
X212402169Y-109391118D01*
X212389952Y-109404686D01*
X212332784Y-109503704D01*
X212318468Y-109528500D01*
X212267086Y-109577493D01*
X212217546Y-109589512D01*
X212217682Y-109590810D01*
X212211115Y-109591500D01*
X212204513Y-109591500D01*
X212198061Y-109592872D01*
X212198056Y-109592872D01*
X212133638Y-109606565D01*
X212017712Y-109631206D01*
X212011682Y-109633891D01*
X212011681Y-109633891D01*
X211849278Y-109706197D01*
X211849276Y-109706198D01*
X211843248Y-109708882D01*
X211688747Y-109821134D01*
X211684326Y-109826044D01*
X211684325Y-109826045D01*
X211618435Y-109899224D01*
X211560960Y-109963056D01*
X211505628Y-110058894D01*
X211470329Y-110120034D01*
X211465473Y-110128444D01*
X211406458Y-110310072D01*
X211405768Y-110316633D01*
X211405768Y-110316635D01*
X211388748Y-110478574D01*
X211386496Y-110500000D01*
X207438316Y-110500000D01*
X207303885Y-110402330D01*
X207292094Y-110393763D01*
X207292093Y-110393762D01*
X207286752Y-110389882D01*
X207280724Y-110387198D01*
X207280722Y-110387197D01*
X207118319Y-110314891D01*
X207118318Y-110314891D01*
X207112288Y-110312206D01*
X207018888Y-110292353D01*
X206931944Y-110273872D01*
X206931939Y-110273872D01*
X206925487Y-110272500D01*
X206734513Y-110272500D01*
X206728061Y-110273872D01*
X206728056Y-110273872D01*
X206641113Y-110292353D01*
X206547712Y-110312206D01*
X206541682Y-110314891D01*
X206541681Y-110314891D01*
X206379278Y-110387197D01*
X206379276Y-110387198D01*
X206373248Y-110389882D01*
X206367907Y-110393762D01*
X206367906Y-110393763D01*
X206356115Y-110402330D01*
X206218747Y-110502134D01*
X206214326Y-110507044D01*
X206214325Y-110507045D01*
X206100113Y-110633891D01*
X206090960Y-110644056D01*
X206042948Y-110727215D01*
X206006741Y-110789928D01*
X205995473Y-110809444D01*
X205936458Y-110991072D01*
X205935769Y-110997631D01*
X205935768Y-110997634D01*
X205934973Y-111005201D01*
X205907959Y-111070858D01*
X205849737Y-111111487D01*
X205778791Y-111114189D01*
X205717648Y-111078106D01*
X205696657Y-111047757D01*
X205695374Y-111045154D01*
X205613423Y-110878974D01*
X205592400Y-110850820D01*
X205486733Y-110709315D01*
X205486732Y-110709314D01*
X205483280Y-110704691D01*
X205467310Y-110689928D01*
X205362924Y-110593435D01*
X205361078Y-110591729D01*
X205324633Y-110530800D01*
X205326914Y-110459840D01*
X205366038Y-110402330D01*
X205366450Y-110401988D01*
X205440446Y-110340446D01*
X205579532Y-110173213D01*
X205660402Y-110028809D01*
X205682989Y-109988478D01*
X205682990Y-109988476D01*
X205685813Y-109983435D01*
X205687669Y-109977968D01*
X205687671Y-109977963D01*
X205753874Y-109782935D01*
X205753875Y-109782930D01*
X205755730Y-109777466D01*
X205786941Y-109562205D01*
X205788570Y-109500000D01*
X205768667Y-109283400D01*
X205766516Y-109275771D01*
X205732775Y-109156135D01*
X205709626Y-109074055D01*
X205613423Y-108878974D01*
X205570682Y-108821736D01*
X205486733Y-108709315D01*
X205486732Y-108709314D01*
X205483280Y-108704691D01*
X205470495Y-108692872D01*
X205360708Y-108591387D01*
X205324263Y-108530458D01*
X205326544Y-108459499D01*
X205365668Y-108401988D01*
X205435653Y-108343782D01*
X205443782Y-108335653D01*
X205575420Y-108177375D01*
X205581944Y-108167882D01*
X205656642Y-108034499D01*
X206796495Y-108034499D01*
X206797185Y-108041064D01*
X206813661Y-108197820D01*
X206816457Y-108224427D01*
X206875472Y-108406055D01*
X206878775Y-108411777D01*
X206878776Y-108411778D01*
X206906328Y-108459499D01*
X206970959Y-108571443D01*
X206975377Y-108576350D01*
X206975378Y-108576351D01*
X207079059Y-108691500D01*
X207098746Y-108713365D01*
X207121414Y-108729834D01*
X207204126Y-108789928D01*
X207253247Y-108825617D01*
X207259275Y-108828301D01*
X207259277Y-108828302D01*
X207373089Y-108878974D01*
X207427711Y-108903293D01*
X207511646Y-108921134D01*
X207608055Y-108941627D01*
X207608060Y-108941627D01*
X207614512Y-108942999D01*
X207805486Y-108942999D01*
X207811938Y-108941627D01*
X207811943Y-108941627D01*
X207908352Y-108921134D01*
X207992287Y-108903293D01*
X208046909Y-108878974D01*
X208160721Y-108828302D01*
X208160723Y-108828301D01*
X208166751Y-108825617D01*
X208215873Y-108789928D01*
X208298584Y-108729834D01*
X208321252Y-108713365D01*
X208340939Y-108691500D01*
X208444620Y-108576351D01*
X208444621Y-108576350D01*
X208449039Y-108571443D01*
X208513670Y-108459499D01*
X208541222Y-108411778D01*
X208541223Y-108411777D01*
X208544526Y-108406055D01*
X208603541Y-108224427D01*
X208606338Y-108197820D01*
X208622813Y-108041064D01*
X208623503Y-108034499D01*
X208608308Y-107889928D01*
X208604231Y-107851134D01*
X208604231Y-107851132D01*
X208603541Y-107844571D01*
X208544526Y-107662943D01*
X208449039Y-107497555D01*
X208432212Y-107478866D01*
X208325674Y-107360544D01*
X208325673Y-107360543D01*
X208321252Y-107355633D01*
X208166751Y-107243381D01*
X208160723Y-107240697D01*
X208160721Y-107240696D01*
X207998318Y-107168390D01*
X207998317Y-107168390D01*
X207992287Y-107165705D01*
X207898886Y-107145852D01*
X207811943Y-107127371D01*
X207811938Y-107127371D01*
X207805486Y-107125999D01*
X207614512Y-107125999D01*
X207608060Y-107127371D01*
X207608055Y-107127371D01*
X207521112Y-107145852D01*
X207427711Y-107165705D01*
X207421681Y-107168390D01*
X207421680Y-107168390D01*
X207259277Y-107240696D01*
X207259275Y-107240697D01*
X207253247Y-107243381D01*
X207098746Y-107355633D01*
X207094325Y-107360543D01*
X207094324Y-107360544D01*
X206987787Y-107478866D01*
X206970959Y-107497555D01*
X206875472Y-107662943D01*
X206816457Y-107844571D01*
X206815767Y-107851132D01*
X206815767Y-107851134D01*
X206811690Y-107889928D01*
X206796495Y-108034499D01*
X205656642Y-108034499D01*
X205682531Y-107988272D01*
X205687210Y-107977763D01*
X205753386Y-107782817D01*
X205756017Y-107771857D01*
X205754040Y-107757992D01*
X205740474Y-107754000D01*
X204472000Y-107754000D01*
X204403879Y-107733998D01*
X204357386Y-107680342D01*
X204346000Y-107628000D01*
X204346000Y-107227885D01*
X204854000Y-107227885D01*
X204858475Y-107243124D01*
X204859865Y-107244329D01*
X204867548Y-107246000D01*
X205739485Y-107246000D01*
X205753016Y-107242027D01*
X205754185Y-107233892D01*
X205732666Y-107157591D01*
X205733426Y-107086598D01*
X205772447Y-107027286D01*
X205837340Y-106998487D01*
X205907502Y-107009342D01*
X205927996Y-107021453D01*
X205977955Y-107057750D01*
X206012057Y-107082527D01*
X206018085Y-107085211D01*
X206018087Y-107085212D01*
X206180490Y-107157518D01*
X206186521Y-107160203D01*
X206266857Y-107177279D01*
X206366865Y-107198537D01*
X206366870Y-107198537D01*
X206373322Y-107199909D01*
X206564296Y-107199909D01*
X206570748Y-107198537D01*
X206570753Y-107198537D01*
X206670761Y-107177279D01*
X206751097Y-107160203D01*
X206757128Y-107157518D01*
X206919531Y-107085212D01*
X206919533Y-107085211D01*
X206925561Y-107082527D01*
X206959664Y-107057750D01*
X207026291Y-107009342D01*
X207080062Y-106970275D01*
X207131846Y-106912763D01*
X207203430Y-106833261D01*
X207203431Y-106833260D01*
X207207849Y-106828353D01*
X207303336Y-106662965D01*
X207362351Y-106481337D01*
X207364977Y-106456358D01*
X207381623Y-106297974D01*
X207382313Y-106291409D01*
X207364417Y-106121134D01*
X207363041Y-106108044D01*
X207363041Y-106108042D01*
X207362351Y-106101481D01*
X207303336Y-105919853D01*
X207207849Y-105754465D01*
X207080062Y-105612543D01*
X206925561Y-105500291D01*
X206919533Y-105497607D01*
X206919531Y-105497606D01*
X206757128Y-105425300D01*
X206757127Y-105425300D01*
X206751097Y-105422615D01*
X206657696Y-105402762D01*
X206570753Y-105384281D01*
X206570748Y-105384281D01*
X206564296Y-105382909D01*
X206373322Y-105382909D01*
X206366870Y-105384281D01*
X206366865Y-105384281D01*
X206279921Y-105402762D01*
X206186521Y-105422615D01*
X206180491Y-105425300D01*
X206180490Y-105425300D01*
X206018087Y-105497606D01*
X206018085Y-105497607D01*
X206012057Y-105500291D01*
X205857556Y-105612543D01*
X205729769Y-105754465D01*
X205634282Y-105919853D01*
X205575267Y-106101481D01*
X205574577Y-106108042D01*
X205574577Y-106108044D01*
X205573201Y-106121134D01*
X205555305Y-106291409D01*
X205575260Y-106481272D01*
X205575260Y-106481274D01*
X205575267Y-106481337D01*
X205575256Y-106481338D01*
X205570044Y-106549646D01*
X205527229Y-106606279D01*
X205460591Y-106630774D01*
X205391290Y-106615354D01*
X205366670Y-106597579D01*
X205327490Y-106561361D01*
X205318365Y-106554360D01*
X205144255Y-106444505D01*
X205134008Y-106439284D01*
X204942793Y-106362997D01*
X204931767Y-106359730D01*
X204871770Y-106347797D01*
X204858894Y-106348949D01*
X204854000Y-106364102D01*
X204854000Y-107227885D01*
X204346000Y-107227885D01*
X204346000Y-106361337D01*
X204342194Y-106348375D01*
X204327278Y-106346439D01*
X204298202Y-106351435D01*
X204287082Y-106354415D01*
X204093940Y-106425669D01*
X204083562Y-106430619D01*
X203906639Y-106535877D01*
X203897321Y-106542647D01*
X203879893Y-106557931D01*
X203815489Y-106587809D01*
X203745156Y-106578123D01*
X203695989Y-106538765D01*
X203643643Y-106468920D01*
X203643642Y-106468919D01*
X203638261Y-106461739D01*
X203521705Y-106374385D01*
X203522743Y-106373000D01*
X203480083Y-106330240D01*
X203465431Y-106256814D01*
X203472814Y-106186566D01*
X203472814Y-106186565D01*
X203473504Y-106180000D01*
X203465941Y-106108044D01*
X203454232Y-105996635D01*
X203454232Y-105996633D01*
X203453542Y-105990072D01*
X203394527Y-105808444D01*
X203299040Y-105643056D01*
X203171253Y-105501134D01*
X203016752Y-105388882D01*
X203010724Y-105386198D01*
X203010722Y-105386197D01*
X202848319Y-105313891D01*
X202848318Y-105313891D01*
X202842288Y-105311206D01*
X202734327Y-105288258D01*
X202661944Y-105272872D01*
X202661939Y-105272872D01*
X202655487Y-105271500D01*
X202464513Y-105271500D01*
X202458061Y-105272872D01*
X202458056Y-105272872D01*
X202385673Y-105288258D01*
X202277712Y-105311206D01*
X202271682Y-105313891D01*
X202271681Y-105313891D01*
X202109278Y-105386197D01*
X202109276Y-105386198D01*
X202103248Y-105388882D01*
X201948747Y-105501134D01*
X201820960Y-105643056D01*
X201725473Y-105808444D01*
X201723920Y-105807547D01*
X201683625Y-105854954D01*
X201615698Y-105875602D01*
X201547390Y-105856249D01*
X201500389Y-105803037D01*
X201488500Y-105749608D01*
X201488500Y-103729999D01*
X208026495Y-103729999D01*
X208046457Y-103919927D01*
X208105472Y-104101555D01*
X208200959Y-104266943D01*
X208328746Y-104408865D01*
X208483247Y-104521117D01*
X208489275Y-104523801D01*
X208489277Y-104523802D01*
X208651680Y-104596108D01*
X208657711Y-104598793D01*
X208751112Y-104618646D01*
X208838055Y-104637127D01*
X208838060Y-104637127D01*
X208844512Y-104638499D01*
X209035486Y-104638499D01*
X209041938Y-104637127D01*
X209041943Y-104637127D01*
X209128886Y-104618646D01*
X209222287Y-104598793D01*
X209228318Y-104596108D01*
X209390721Y-104523802D01*
X209390723Y-104523801D01*
X209396751Y-104521117D01*
X209551252Y-104408865D01*
X209679039Y-104266943D01*
X209774526Y-104101555D01*
X209833541Y-103919927D01*
X209853503Y-103729999D01*
X209833541Y-103540071D01*
X209774526Y-103358443D01*
X209679039Y-103193055D01*
X209628517Y-103136944D01*
X209555674Y-103056044D01*
X209555673Y-103056043D01*
X209551252Y-103051133D01*
X209396751Y-102938881D01*
X209390723Y-102936197D01*
X209390721Y-102936196D01*
X209228318Y-102863890D01*
X209228317Y-102863890D01*
X209222287Y-102861205D01*
X209128886Y-102841352D01*
X209041943Y-102822871D01*
X209041938Y-102822871D01*
X209035486Y-102821499D01*
X208844512Y-102821499D01*
X208838060Y-102822871D01*
X208838055Y-102822871D01*
X208751112Y-102841352D01*
X208657711Y-102861205D01*
X208651681Y-102863890D01*
X208651680Y-102863890D01*
X208489277Y-102936196D01*
X208489275Y-102936197D01*
X208483247Y-102938881D01*
X208328746Y-103051133D01*
X208324325Y-103056043D01*
X208324324Y-103056044D01*
X208251482Y-103136944D01*
X208200959Y-103193055D01*
X208105472Y-103358443D01*
X208046457Y-103540071D01*
X208026495Y-103729999D01*
X201488500Y-103729999D01*
X201488500Y-102724500D01*
X231086496Y-102724500D01*
X231087186Y-102731065D01*
X231094033Y-102796206D01*
X231106458Y-102914428D01*
X231165473Y-103096056D01*
X231260960Y-103261444D01*
X231265378Y-103266351D01*
X231265379Y-103266352D01*
X231343145Y-103352720D01*
X231388747Y-103403366D01*
X231464453Y-103458370D01*
X231531563Y-103507128D01*
X231543248Y-103515618D01*
X231549276Y-103518302D01*
X231549278Y-103518303D01*
X231612911Y-103546634D01*
X231717712Y-103593294D01*
X231811113Y-103613147D01*
X231898056Y-103631628D01*
X231898061Y-103631628D01*
X231904513Y-103633000D01*
X232095487Y-103633000D01*
X232101939Y-103631628D01*
X232101944Y-103631628D01*
X232188887Y-103613147D01*
X232282288Y-103593294D01*
X232387089Y-103546634D01*
X232450722Y-103518303D01*
X232450724Y-103518302D01*
X232456752Y-103515618D01*
X232468438Y-103507128D01*
X232502708Y-103482229D01*
X232569576Y-103458370D01*
X232638727Y-103474451D01*
X232670401Y-103499851D01*
X232765985Y-103606008D01*
X232920486Y-103718260D01*
X232926514Y-103720944D01*
X232926516Y-103720945D01*
X233088919Y-103793251D01*
X233094950Y-103795936D01*
X233188351Y-103815789D01*
X233275294Y-103834270D01*
X233275299Y-103834270D01*
X233281751Y-103835642D01*
X233472725Y-103835642D01*
X233479177Y-103834270D01*
X233479182Y-103834270D01*
X233566126Y-103815789D01*
X233659526Y-103795936D01*
X233665557Y-103793251D01*
X233827960Y-103720945D01*
X233827962Y-103720944D01*
X233833990Y-103718260D01*
X233988491Y-103606008D01*
X234067461Y-103518303D01*
X234111859Y-103468994D01*
X234111860Y-103468993D01*
X234116278Y-103464086D01*
X234211765Y-103298698D01*
X234270780Y-103117070D01*
X234285473Y-102977279D01*
X234290052Y-102933707D01*
X234290742Y-102927142D01*
X234279757Y-102822622D01*
X234292529Y-102752784D01*
X234341032Y-102700937D01*
X234405067Y-102683452D01*
X234420535Y-102683452D01*
X234426987Y-102682080D01*
X234426992Y-102682080D01*
X234513935Y-102663599D01*
X234607336Y-102643746D01*
X234613367Y-102641061D01*
X234705592Y-102600000D01*
X236286496Y-102600000D01*
X236287186Y-102606565D01*
X236300918Y-102737214D01*
X236306458Y-102789928D01*
X236365473Y-102971556D01*
X236460960Y-103136944D01*
X236465378Y-103141851D01*
X236465379Y-103141852D01*
X236516631Y-103198773D01*
X236588747Y-103278866D01*
X236743248Y-103391118D01*
X236749276Y-103393802D01*
X236749278Y-103393803D01*
X236911681Y-103466109D01*
X236917712Y-103468794D01*
X237011113Y-103488647D01*
X237098056Y-103507128D01*
X237098061Y-103507128D01*
X237104513Y-103508500D01*
X237295487Y-103508500D01*
X237301939Y-103507128D01*
X237301944Y-103507128D01*
X237388887Y-103488647D01*
X237482288Y-103468794D01*
X237488319Y-103466109D01*
X237650722Y-103393803D01*
X237650724Y-103393802D01*
X237656752Y-103391118D01*
X237811253Y-103278866D01*
X237883369Y-103198773D01*
X237934621Y-103141852D01*
X237934622Y-103141851D01*
X237939040Y-103136944D01*
X238034527Y-102971556D01*
X238093542Y-102789928D01*
X238099083Y-102737214D01*
X238112814Y-102606565D01*
X238113504Y-102600000D01*
X238106627Y-102534572D01*
X238094232Y-102416635D01*
X238094232Y-102416633D01*
X238093542Y-102410072D01*
X238034527Y-102228444D01*
X237939040Y-102063056D01*
X237811253Y-101921134D01*
X237678248Y-101824500D01*
X237662094Y-101812763D01*
X237662093Y-101812762D01*
X237656752Y-101808882D01*
X237650724Y-101806198D01*
X237650722Y-101806197D01*
X237488319Y-101733891D01*
X237488318Y-101733891D01*
X237482288Y-101731206D01*
X237388887Y-101711353D01*
X237301944Y-101692872D01*
X237301939Y-101692872D01*
X237295487Y-101691500D01*
X237104513Y-101691500D01*
X237098061Y-101692872D01*
X237098056Y-101692872D01*
X237011113Y-101711353D01*
X236917712Y-101731206D01*
X236911682Y-101733891D01*
X236911681Y-101733891D01*
X236749278Y-101806197D01*
X236749276Y-101806198D01*
X236743248Y-101808882D01*
X236737907Y-101812762D01*
X236737906Y-101812763D01*
X236721752Y-101824500D01*
X236588747Y-101921134D01*
X236460960Y-102063056D01*
X236365473Y-102228444D01*
X236306458Y-102410072D01*
X236305768Y-102416633D01*
X236305768Y-102416635D01*
X236293373Y-102534572D01*
X236286496Y-102600000D01*
X234705592Y-102600000D01*
X234775770Y-102568755D01*
X234775772Y-102568754D01*
X234781800Y-102566070D01*
X234936301Y-102453818D01*
X235064088Y-102311896D01*
X235159575Y-102146508D01*
X235218590Y-101964880D01*
X235226061Y-101893803D01*
X235237862Y-101781517D01*
X235238552Y-101774952D01*
X235218590Y-101585024D01*
X235159575Y-101403396D01*
X235064088Y-101238008D01*
X234936301Y-101096086D01*
X234781800Y-100983834D01*
X234775772Y-100981150D01*
X234775770Y-100981149D01*
X234613367Y-100908843D01*
X234613366Y-100908843D01*
X234607336Y-100906158D01*
X234513935Y-100886305D01*
X234426992Y-100867824D01*
X234426987Y-100867824D01*
X234420535Y-100866452D01*
X234229561Y-100866452D01*
X234223109Y-100867824D01*
X234223104Y-100867824D01*
X234136161Y-100886305D01*
X234042760Y-100906158D01*
X234036730Y-100908843D01*
X234036729Y-100908843D01*
X233874326Y-100981149D01*
X233874324Y-100981150D01*
X233868296Y-100983834D01*
X233862956Y-100987714D01*
X233862954Y-100987715D01*
X233842482Y-101002589D01*
X233775614Y-101026448D01*
X233717172Y-101015760D01*
X233588319Y-100958391D01*
X233588318Y-100958391D01*
X233582288Y-100955706D01*
X233488888Y-100935853D01*
X233401944Y-100917372D01*
X233401939Y-100917372D01*
X233395487Y-100916000D01*
X233204513Y-100916000D01*
X233198061Y-100917372D01*
X233198056Y-100917372D01*
X233111113Y-100935853D01*
X233017712Y-100955706D01*
X233011682Y-100958391D01*
X233011681Y-100958391D01*
X232849278Y-101030697D01*
X232849276Y-101030698D01*
X232843248Y-101033382D01*
X232688747Y-101145634D01*
X232684326Y-101150544D01*
X232684325Y-101150545D01*
X232623316Y-101218303D01*
X232560960Y-101287556D01*
X232465473Y-101452944D01*
X232406458Y-101634572D01*
X232405769Y-101641131D01*
X232405768Y-101641134D01*
X232395638Y-101737519D01*
X232368625Y-101803175D01*
X232310403Y-101843805D01*
X232244131Y-101847595D01*
X232101944Y-101817372D01*
X232101939Y-101817372D01*
X232095487Y-101816000D01*
X231904513Y-101816000D01*
X231898061Y-101817372D01*
X231898056Y-101817372D01*
X231811113Y-101835853D01*
X231717712Y-101855706D01*
X231711682Y-101858391D01*
X231711681Y-101858391D01*
X231549278Y-101930697D01*
X231549276Y-101930698D01*
X231543248Y-101933382D01*
X231388747Y-102045634D01*
X231260960Y-102187556D01*
X231165473Y-102352944D01*
X231106458Y-102534572D01*
X231086496Y-102724500D01*
X201488500Y-102724500D01*
X201488500Y-98026000D01*
X201508502Y-97957879D01*
X201562158Y-97911386D01*
X201614500Y-97900000D01*
X234709418Y-97900000D01*
X234777539Y-97920002D01*
G37*
%TD.AperFunction*%
%TD*%
M02*
