M48
; DRILL file {KiCad (6.0.7)} date Tue Feb  7 14:26:04 2023
; FORMAT={-:-/ absolute / inch / decimal}
; #@! TF.CreationDate,2023-02-07T14:26:04-05:00
; #@! TF.GenerationSoftware,Kicad,Pcbnew,(6.0.7)
; #@! TF.FileFunction,Plated,1,4,PTH
FMAT,2
INCH
; #@! TA.AperFunction,Plated,PTH,ViaDrill
T1C0.0157
; #@! TA.AperFunction,Plated,PTH,ComponentDrill
T2C0.0248
; #@! TA.AperFunction,Plated,PTH,ComponentDrill
T3C0.0315
%
G90
G05
T1
X7.9748Y-4.1803
X7.9756Y-5.0113
X8.0063Y-5.2932
X8.0787Y-5.5157
X8.1142Y-4.2374
X8.1287Y-4.1847
X8.1299Y-5.5482
X8.1429Y-4.3772
X8.1721Y-4.6259
X8.1721Y-4.8581
X8.1776Y-4.2533
X8.1787Y-4.0854
X8.2205Y-4.5814
X8.2211Y-4.506
X8.226Y-4.0839
X8.2784Y-4.7095
X8.2808Y-4.7922
X8.2902Y-4.866
X8.3712Y-4.2402
X8.378Y-5.5197
X8.4014Y-4.2054
X8.4125Y-4.5383
X8.4141Y-5.5353
X8.4162Y-4.9844
X8.4327Y-4.4699
X8.4331Y-4.9488
X8.441Y-4.2198
X8.4879Y-4.198
X8.5061Y-4.326
X8.5157Y-5.0354
X8.5169Y-4.3638
X8.5227Y-4.1772
X8.5374Y-4.2543
X8.5389Y-4.8921
X8.5391Y-4.8528
X8.5419Y-4.2953
X8.5462Y-4.3376
X8.5591Y-5.0669
X8.563Y-4.1772
X8.5668Y-4.6426
X8.5772Y-4.3618
X8.5784Y-4.3113
X8.5827Y-4.9094
X8.626Y-5.3819
X8.6929Y-4.6898
X8.6969Y-4.815
X8.7047Y-4.6014
X8.7402Y-4.6299
X8.7402Y-4.6772
X8.7653Y-5.136
X8.8071Y-4.3543
X8.811Y-4.4331
X8.8346Y-5.5315
X8.8819Y-5.5315
X8.9409Y-4.1444
X8.9409Y-4.252
X8.9409Y-4.3596
X8.9409Y-4.4633
X8.9409Y-4.5709
X8.9409Y-4.6785
X8.9449Y-4.7664
X8.9449Y-4.874
X8.9449Y-4.9816
X8.9488Y-5.0696
X8.9488Y-5.1772
X8.9488Y-5.2848
X8.958Y-5.3622
X9.0144Y-5.4724
X9.0394Y-4.0187
X9.0512Y-4.0879
X9.0512Y-4.1955
X9.0512Y-4.3031
X9.0512Y-4.4068
X9.0512Y-4.5144
X9.0512Y-4.622
X9.0551Y-4.71
X9.0551Y-4.8176
X9.0551Y-4.9252
X9.0591Y-5.0131
X9.0591Y-5.1207
X9.0591Y-5.2283
X9.0656Y-5.3622
X9.122Y-5.4724
X9.1654Y-4.3123
X9.1654Y-4.4199
X9.1654Y-4.5276
X9.1654Y-4.6352
X9.1667Y-4.8622
X9.1732Y-5.3622
X9.2178Y-4.752
X9.2297Y-5.4724
X9.2651Y-5.3307
X9.2743Y-4.8622
X9.2756Y-4.3635
X9.2756Y-4.4711
X9.2756Y-4.5787
X9.2756Y-4.6864
X9.2992Y-4.1772
X9.2992Y-4.2283
X9.3006Y-4.0978
X9.3017Y-3.9975
X9.302Y-4.0472
X9.3032Y-3.9252
X9.3215Y-5.4409
X9.3255Y-4.752
X9.3305Y-3.9607
X9.3727Y-5.3307
X9.3819Y-4.8622
X9.4291Y-5.4409
X9.4331Y-4.752
X9.4646Y-4.0787
X9.4724Y-4.2565
X9.4739Y-4.2072
X9.4793Y-4.6646
X9.4803Y-5.3307
X9.4882Y-5.5315
X9.4895Y-4.8622
X9.5123Y-4.4235
X9.5132Y-4.2046
X9.5367Y-5.4409
X9.5394Y-5.5354
X9.5407Y-4.752
X9.5636Y-4.3898
X9.5984Y-4.8661
X9.6177Y-4.199
X9.6181Y-4.2559
X9.6181Y-4.311
X9.6496Y-4.7559
X9.6772Y-4.1985
X9.6772Y-4.2559
X9.6772Y-4.311
X9.7008Y-4.6457
X9.706Y-4.8661
X9.7323Y-4.1988
X9.7323Y-4.2559
X9.7323Y-4.311
X9.7572Y-4.7559
X9.8136Y-4.8661
X9.8648Y-4.7559
X9.9173Y-4.315
X9.9213Y-4.8661
X9.9213Y-5.1654
X9.9213Y-5.2283
X9.9213Y-5.2874
X9.9724Y-4.7559
X9.9921Y-5.2008
X9.9921Y-5.2638
X9.9921Y-5.3189
X10.0453Y-3.9802
X10.0472Y-3.8858
X10.0669Y-4.0354
X10.0669Y-4.143
X10.0669Y-4.2507
X10.0669Y-4.3583
X10.0669Y-4.4882
X10.0669Y-4.5958
X10.0669Y-4.7034
X10.0669Y-4.811
X10.0827Y-5.4291
X10.1772Y-4.0866
X10.1772Y-4.1942
X10.1772Y-4.3018
X10.1772Y-4.4094
X10.1772Y-4.5394
X10.1772Y-4.647
X10.1772Y-4.7546
X10.1772Y-4.8622
T2
X8.0461Y-4.6203
X8.0461Y-4.8125
T3
X7.9764Y-4.2323
X7.9764Y-4.311
X7.9764Y-4.3898
X8.0551Y-4.2323
X8.0551Y-4.311
X8.0551Y-4.3898
T0
M30
