%TF.GenerationSoftware,KiCad,Pcbnew,(6.0.7)*%
%TF.CreationDate,2023-02-07T14:26:13-05:00*%
%TF.ProjectId,DCA_USMR_sch,4443415f-5553-44d5-925f-7363682e6b69,v1.3*%
%TF.SameCoordinates,Original*%
%TF.FileFunction,Copper,L4,Bot*%
%TF.FilePolarity,Positive*%
%FSLAX46Y46*%
G04 Gerber Fmt 4.6, Leading zero omitted, Abs format (unit mm)*
G04 Created by KiCad (PCBNEW (6.0.7)) date 2023-02-07 14:26:13*
%MOMM*%
%LPD*%
G01*
G04 APERTURE LIST*
%ADD10C,0.100000*%
%ADD11C,0.150000*%
%ADD12C,0.300000*%
%ADD13C,0.400000*%
%TA.AperFunction,Profile*%
%ADD14C,0.200000*%
%TD*%
%TA.AperFunction,ComponentPad*%
%ADD15R,1.350000X1.350000*%
%TD*%
%TA.AperFunction,ComponentPad*%
%ADD16O,1.350000X1.350000*%
%TD*%
%TA.AperFunction,ComponentPad*%
%ADD17C,1.030000*%
%TD*%
%TA.AperFunction,ViaPad*%
%ADD18C,0.800000*%
%TD*%
%TA.AperFunction,Conductor*%
%ADD19C,0.250000*%
%TD*%
G04 APERTURE END LIST*
D10*
D11*
X177002200Y-166007200D02*
X177002200Y-198007200D01*
X285002200Y-198007200D01*
X285002200Y-166007200D01*
X177002200Y-166007200D01*
D10*
D11*
X10000000Y-10000000D02*
X10000000Y-200007200D01*
X287002200Y-200007200D01*
X287002200Y-10000000D01*
X10000000Y-10000000D01*
D10*
D11*
X12000000Y-12000000D02*
X12000000Y-198007200D01*
X285002200Y-198007200D01*
X285002200Y-12000000D01*
X12000000Y-12000000D01*
D10*
D11*
X60000000Y-12000000D02*
X60000000Y-10000000D01*
D10*
D11*
X110000000Y-12000000D02*
X110000000Y-10000000D01*
D10*
D11*
X160000000Y-12000000D02*
X160000000Y-10000000D01*
D10*
D11*
X210000000Y-12000000D02*
X210000000Y-10000000D01*
D10*
D11*
X260000000Y-12000000D02*
X260000000Y-10000000D01*
D10*
D11*
X36065476Y-11588095D02*
X35322619Y-11588095D01*
X35694047Y-11588095D02*
X35694047Y-10288095D01*
X35570238Y-10473809D01*
X35446428Y-10597619D01*
X35322619Y-10659523D01*
D10*
D11*
X85322619Y-10411904D02*
X85384523Y-10350000D01*
X85508333Y-10288095D01*
X85817857Y-10288095D01*
X85941666Y-10350000D01*
X86003571Y-10411904D01*
X86065476Y-10535714D01*
X86065476Y-10659523D01*
X86003571Y-10845238D01*
X85260714Y-11588095D01*
X86065476Y-11588095D01*
D10*
D11*
X135260714Y-10288095D02*
X136065476Y-10288095D01*
X135632142Y-10783333D01*
X135817857Y-10783333D01*
X135941666Y-10845238D01*
X136003571Y-10907142D01*
X136065476Y-11030952D01*
X136065476Y-11340476D01*
X136003571Y-11464285D01*
X135941666Y-11526190D01*
X135817857Y-11588095D01*
X135446428Y-11588095D01*
X135322619Y-11526190D01*
X135260714Y-11464285D01*
D10*
D11*
X185941666Y-10721428D02*
X185941666Y-11588095D01*
X185632142Y-10226190D02*
X185322619Y-11154761D01*
X186127380Y-11154761D01*
D10*
D11*
X236003571Y-10288095D02*
X235384523Y-10288095D01*
X235322619Y-10907142D01*
X235384523Y-10845238D01*
X235508333Y-10783333D01*
X235817857Y-10783333D01*
X235941666Y-10845238D01*
X236003571Y-10907142D01*
X236065476Y-11030952D01*
X236065476Y-11340476D01*
X236003571Y-11464285D01*
X235941666Y-11526190D01*
X235817857Y-11588095D01*
X235508333Y-11588095D01*
X235384523Y-11526190D01*
X235322619Y-11464285D01*
D10*
D11*
X285941666Y-10288095D02*
X285694047Y-10288095D01*
X285570238Y-10350000D01*
X285508333Y-10411904D01*
X285384523Y-10597619D01*
X285322619Y-10845238D01*
X285322619Y-11340476D01*
X285384523Y-11464285D01*
X285446428Y-11526190D01*
X285570238Y-11588095D01*
X285817857Y-11588095D01*
X285941666Y-11526190D01*
X286003571Y-11464285D01*
X286065476Y-11340476D01*
X286065476Y-11030952D01*
X286003571Y-10907142D01*
X285941666Y-10845238D01*
X285817857Y-10783333D01*
X285570238Y-10783333D01*
X285446428Y-10845238D01*
X285384523Y-10907142D01*
X285322619Y-11030952D01*
D10*
D11*
X60000000Y-198007200D02*
X60000000Y-200007200D01*
D10*
D11*
X110000000Y-198007200D02*
X110000000Y-200007200D01*
D10*
D11*
X160000000Y-198007200D02*
X160000000Y-200007200D01*
D10*
D11*
X210000000Y-198007200D02*
X210000000Y-200007200D01*
D10*
D11*
X260000000Y-198007200D02*
X260000000Y-200007200D01*
D10*
D11*
X36065476Y-199595295D02*
X35322619Y-199595295D01*
X35694047Y-199595295D02*
X35694047Y-198295295D01*
X35570238Y-198481009D01*
X35446428Y-198604819D01*
X35322619Y-198666723D01*
D10*
D11*
X85322619Y-198419104D02*
X85384523Y-198357200D01*
X85508333Y-198295295D01*
X85817857Y-198295295D01*
X85941666Y-198357200D01*
X86003571Y-198419104D01*
X86065476Y-198542914D01*
X86065476Y-198666723D01*
X86003571Y-198852438D01*
X85260714Y-199595295D01*
X86065476Y-199595295D01*
D10*
D11*
X135260714Y-198295295D02*
X136065476Y-198295295D01*
X135632142Y-198790533D01*
X135817857Y-198790533D01*
X135941666Y-198852438D01*
X136003571Y-198914342D01*
X136065476Y-199038152D01*
X136065476Y-199347676D01*
X136003571Y-199471485D01*
X135941666Y-199533390D01*
X135817857Y-199595295D01*
X135446428Y-199595295D01*
X135322619Y-199533390D01*
X135260714Y-199471485D01*
D10*
D11*
X185941666Y-198728628D02*
X185941666Y-199595295D01*
X185632142Y-198233390D02*
X185322619Y-199161961D01*
X186127380Y-199161961D01*
D10*
D11*
X236003571Y-198295295D02*
X235384523Y-198295295D01*
X235322619Y-198914342D01*
X235384523Y-198852438D01*
X235508333Y-198790533D01*
X235817857Y-198790533D01*
X235941666Y-198852438D01*
X236003571Y-198914342D01*
X236065476Y-199038152D01*
X236065476Y-199347676D01*
X236003571Y-199471485D01*
X235941666Y-199533390D01*
X235817857Y-199595295D01*
X235508333Y-199595295D01*
X235384523Y-199533390D01*
X235322619Y-199471485D01*
D10*
D11*
X285941666Y-198295295D02*
X285694047Y-198295295D01*
X285570238Y-198357200D01*
X285508333Y-198419104D01*
X285384523Y-198604819D01*
X285322619Y-198852438D01*
X285322619Y-199347676D01*
X285384523Y-199471485D01*
X285446428Y-199533390D01*
X285570238Y-199595295D01*
X285817857Y-199595295D01*
X285941666Y-199533390D01*
X286003571Y-199471485D01*
X286065476Y-199347676D01*
X286065476Y-199038152D01*
X286003571Y-198914342D01*
X285941666Y-198852438D01*
X285817857Y-198790533D01*
X285570238Y-198790533D01*
X285446428Y-198852438D01*
X285384523Y-198914342D01*
X285322619Y-199038152D01*
D10*
D11*
X10000000Y-60000000D02*
X12000000Y-60000000D01*
D10*
D11*
X10000000Y-110000000D02*
X12000000Y-110000000D01*
D10*
D11*
X10000000Y-160000000D02*
X12000000Y-160000000D01*
D10*
D11*
X10690476Y-35216666D02*
X11309523Y-35216666D01*
X10566666Y-35588095D02*
X11000000Y-34288095D01*
X11433333Y-35588095D01*
D10*
D11*
X11092857Y-84907142D02*
X11278571Y-84969047D01*
X11340476Y-85030952D01*
X11402380Y-85154761D01*
X11402380Y-85340476D01*
X11340476Y-85464285D01*
X11278571Y-85526190D01*
X11154761Y-85588095D01*
X10659523Y-85588095D01*
X10659523Y-84288095D01*
X11092857Y-84288095D01*
X11216666Y-84350000D01*
X11278571Y-84411904D01*
X11340476Y-84535714D01*
X11340476Y-84659523D01*
X11278571Y-84783333D01*
X11216666Y-84845238D01*
X11092857Y-84907142D01*
X10659523Y-84907142D01*
D10*
D11*
X11402380Y-135464285D02*
X11340476Y-135526190D01*
X11154761Y-135588095D01*
X11030952Y-135588095D01*
X10845238Y-135526190D01*
X10721428Y-135402380D01*
X10659523Y-135278571D01*
X10597619Y-135030952D01*
X10597619Y-134845238D01*
X10659523Y-134597619D01*
X10721428Y-134473809D01*
X10845238Y-134350000D01*
X11030952Y-134288095D01*
X11154761Y-134288095D01*
X11340476Y-134350000D01*
X11402380Y-134411904D01*
D10*
D11*
X10659523Y-185588095D02*
X10659523Y-184288095D01*
X10969047Y-184288095D01*
X11154761Y-184350000D01*
X11278571Y-184473809D01*
X11340476Y-184597619D01*
X11402380Y-184845238D01*
X11402380Y-185030952D01*
X11340476Y-185278571D01*
X11278571Y-185402380D01*
X11154761Y-185526190D01*
X10969047Y-185588095D01*
X10659523Y-185588095D01*
D10*
D11*
X287002200Y-60000000D02*
X285002200Y-60000000D01*
D10*
D11*
X287002200Y-110000000D02*
X285002200Y-110000000D01*
D10*
D11*
X287002200Y-160000000D02*
X285002200Y-160000000D01*
D10*
D11*
X285692676Y-35216666D02*
X286311723Y-35216666D01*
X285568866Y-35588095D02*
X286002200Y-34288095D01*
X286435533Y-35588095D01*
D10*
D11*
X286095057Y-84907142D02*
X286280771Y-84969047D01*
X286342676Y-85030952D01*
X286404580Y-85154761D01*
X286404580Y-85340476D01*
X286342676Y-85464285D01*
X286280771Y-85526190D01*
X286156961Y-85588095D01*
X285661723Y-85588095D01*
X285661723Y-84288095D01*
X286095057Y-84288095D01*
X286218866Y-84350000D01*
X286280771Y-84411904D01*
X286342676Y-84535714D01*
X286342676Y-84659523D01*
X286280771Y-84783333D01*
X286218866Y-84845238D01*
X286095057Y-84907142D01*
X285661723Y-84907142D01*
D10*
D11*
X286404580Y-135464285D02*
X286342676Y-135526190D01*
X286156961Y-135588095D01*
X286033152Y-135588095D01*
X285847438Y-135526190D01*
X285723628Y-135402380D01*
X285661723Y-135278571D01*
X285599819Y-135030952D01*
X285599819Y-134845238D01*
X285661723Y-134597619D01*
X285723628Y-134473809D01*
X285847438Y-134350000D01*
X286033152Y-134288095D01*
X286156961Y-134288095D01*
X286342676Y-134350000D01*
X286404580Y-134411904D01*
D10*
D11*
X285661723Y-185588095D02*
X285661723Y-184288095D01*
X285971247Y-184288095D01*
X286156961Y-184350000D01*
X286280771Y-184473809D01*
X286342676Y-184597619D01*
X286404580Y-184845238D01*
X286404580Y-185030952D01*
X286342676Y-185278571D01*
X286280771Y-185402380D01*
X286156961Y-185526190D01*
X285971247Y-185588095D01*
X285661723Y-185588095D01*
D10*
D11*
X200434342Y-193785771D02*
X200434342Y-192285771D01*
X200791485Y-192285771D01*
X201005771Y-192357200D01*
X201148628Y-192500057D01*
X201220057Y-192642914D01*
X201291485Y-192928628D01*
X201291485Y-193142914D01*
X201220057Y-193428628D01*
X201148628Y-193571485D01*
X201005771Y-193714342D01*
X200791485Y-193785771D01*
X200434342Y-193785771D01*
X202577200Y-193785771D02*
X202577200Y-193000057D01*
X202505771Y-192857200D01*
X202362914Y-192785771D01*
X202077200Y-192785771D01*
X201934342Y-192857200D01*
X202577200Y-193714342D02*
X202434342Y-193785771D01*
X202077200Y-193785771D01*
X201934342Y-193714342D01*
X201862914Y-193571485D01*
X201862914Y-193428628D01*
X201934342Y-193285771D01*
X202077200Y-193214342D01*
X202434342Y-193214342D01*
X202577200Y-193142914D01*
X203077200Y-192785771D02*
X203648628Y-192785771D01*
X203291485Y-192285771D02*
X203291485Y-193571485D01*
X203362914Y-193714342D01*
X203505771Y-193785771D01*
X203648628Y-193785771D01*
X204720057Y-193714342D02*
X204577200Y-193785771D01*
X204291485Y-193785771D01*
X204148628Y-193714342D01*
X204077200Y-193571485D01*
X204077200Y-193000057D01*
X204148628Y-192857200D01*
X204291485Y-192785771D01*
X204577200Y-192785771D01*
X204720057Y-192857200D01*
X204791485Y-193000057D01*
X204791485Y-193142914D01*
X204077200Y-193285771D01*
X205434342Y-193642914D02*
X205505771Y-193714342D01*
X205434342Y-193785771D01*
X205362914Y-193714342D01*
X205434342Y-193642914D01*
X205434342Y-193785771D01*
X205434342Y-192857200D02*
X205505771Y-192928628D01*
X205434342Y-193000057D01*
X205362914Y-192928628D01*
X205434342Y-192857200D01*
X205434342Y-193000057D01*
X207220057Y-192428628D02*
X207291485Y-192357200D01*
X207434342Y-192285771D01*
X207791485Y-192285771D01*
X207934342Y-192357200D01*
X208005771Y-192428628D01*
X208077200Y-192571485D01*
X208077200Y-192714342D01*
X208005771Y-192928628D01*
X207148628Y-193785771D01*
X208077200Y-193785771D01*
X209005771Y-192285771D02*
X209148628Y-192285771D01*
X209291485Y-192357200D01*
X209362914Y-192428628D01*
X209434342Y-192571485D01*
X209505771Y-192857200D01*
X209505771Y-193214342D01*
X209434342Y-193500057D01*
X209362914Y-193642914D01*
X209291485Y-193714342D01*
X209148628Y-193785771D01*
X209005771Y-193785771D01*
X208862914Y-193714342D01*
X208791485Y-193642914D01*
X208720057Y-193500057D01*
X208648628Y-193214342D01*
X208648628Y-192857200D01*
X208720057Y-192571485D01*
X208791485Y-192428628D01*
X208862914Y-192357200D01*
X209005771Y-192285771D01*
X210077200Y-192428628D02*
X210148628Y-192357200D01*
X210291485Y-192285771D01*
X210648628Y-192285771D01*
X210791485Y-192357200D01*
X210862914Y-192428628D01*
X210934342Y-192571485D01*
X210934342Y-192714342D01*
X210862914Y-192928628D01*
X210005771Y-193785771D01*
X210934342Y-193785771D01*
X211505771Y-192428628D02*
X211577200Y-192357200D01*
X211720057Y-192285771D01*
X212077200Y-192285771D01*
X212220057Y-192357200D01*
X212291485Y-192428628D01*
X212362914Y-192571485D01*
X212362914Y-192714342D01*
X212291485Y-192928628D01*
X211434342Y-193785771D01*
X212362914Y-193785771D01*
X213005771Y-193214342D02*
X214148628Y-193214342D01*
X215648628Y-193785771D02*
X214791485Y-193785771D01*
X215220057Y-193785771D02*
X215220057Y-192285771D01*
X215077200Y-192500057D01*
X214934342Y-192642914D01*
X214791485Y-192714342D01*
X217077200Y-193785771D02*
X216220057Y-193785771D01*
X216648628Y-193785771D02*
X216648628Y-192285771D01*
X216505771Y-192500057D01*
X216362914Y-192642914D01*
X216220057Y-192714342D01*
X217720057Y-193214342D02*
X218862914Y-193214342D01*
X220362914Y-193785771D02*
X219505771Y-193785771D01*
X219934342Y-193785771D02*
X219934342Y-192285771D01*
X219791485Y-192500057D01*
X219648628Y-192642914D01*
X219505771Y-192714342D01*
X221291485Y-192285771D02*
X221434342Y-192285771D01*
X221577200Y-192357200D01*
X221648628Y-192428628D01*
X221720057Y-192571485D01*
X221791485Y-192857200D01*
X221791485Y-193214342D01*
X221720057Y-193500057D01*
X221648628Y-193642914D01*
X221577200Y-193714342D01*
X221434342Y-193785771D01*
X221291485Y-193785771D01*
X221148628Y-193714342D01*
X221077200Y-193642914D01*
X221005771Y-193500057D01*
X220934342Y-193214342D01*
X220934342Y-192857200D01*
X221005771Y-192571485D01*
X221077200Y-192428628D01*
X221148628Y-192357200D01*
X221291485Y-192285771D01*
D10*
D11*
X177002200Y-194507200D02*
X285002200Y-194507200D01*
D10*
D11*
X178434342Y-196585771D02*
X178434342Y-195085771D01*
X179291485Y-196585771D02*
X178648628Y-195728628D01*
X179291485Y-195085771D02*
X178434342Y-195942914D01*
X179934342Y-196585771D02*
X179934342Y-195585771D01*
X179934342Y-195085771D02*
X179862914Y-195157200D01*
X179934342Y-195228628D01*
X180005771Y-195157200D01*
X179934342Y-195085771D01*
X179934342Y-195228628D01*
X181505771Y-196442914D02*
X181434342Y-196514342D01*
X181220057Y-196585771D01*
X181077200Y-196585771D01*
X180862914Y-196514342D01*
X180720057Y-196371485D01*
X180648628Y-196228628D01*
X180577200Y-195942914D01*
X180577200Y-195728628D01*
X180648628Y-195442914D01*
X180720057Y-195300057D01*
X180862914Y-195157200D01*
X181077200Y-195085771D01*
X181220057Y-195085771D01*
X181434342Y-195157200D01*
X181505771Y-195228628D01*
X182791485Y-196585771D02*
X182791485Y-195800057D01*
X182720057Y-195657200D01*
X182577200Y-195585771D01*
X182291485Y-195585771D01*
X182148628Y-195657200D01*
X182791485Y-196514342D02*
X182648628Y-196585771D01*
X182291485Y-196585771D01*
X182148628Y-196514342D01*
X182077200Y-196371485D01*
X182077200Y-196228628D01*
X182148628Y-196085771D01*
X182291485Y-196014342D01*
X182648628Y-196014342D01*
X182791485Y-195942914D01*
X184148628Y-196585771D02*
X184148628Y-195085771D01*
X184148628Y-196514342D02*
X184005771Y-196585771D01*
X183720057Y-196585771D01*
X183577200Y-196514342D01*
X183505771Y-196442914D01*
X183434342Y-196300057D01*
X183434342Y-195871485D01*
X183505771Y-195728628D01*
X183577200Y-195657200D01*
X183720057Y-195585771D01*
X184005771Y-195585771D01*
X184148628Y-195657200D01*
X186005771Y-195800057D02*
X186505771Y-195800057D01*
X186720057Y-196585771D02*
X186005771Y-196585771D01*
X186005771Y-195085771D01*
X186720057Y-195085771D01*
X187362914Y-196442914D02*
X187434342Y-196514342D01*
X187362914Y-196585771D01*
X187291485Y-196514342D01*
X187362914Y-196442914D01*
X187362914Y-196585771D01*
X188077200Y-196585771D02*
X188077200Y-195085771D01*
X188434342Y-195085771D01*
X188648628Y-195157200D01*
X188791485Y-195300057D01*
X188862914Y-195442914D01*
X188934342Y-195728628D01*
X188934342Y-195942914D01*
X188862914Y-196228628D01*
X188791485Y-196371485D01*
X188648628Y-196514342D01*
X188434342Y-196585771D01*
X188077200Y-196585771D01*
X189577200Y-196442914D02*
X189648628Y-196514342D01*
X189577200Y-196585771D01*
X189505771Y-196514342D01*
X189577200Y-196442914D01*
X189577200Y-196585771D01*
X190220057Y-196157200D02*
X190934342Y-196157200D01*
X190077200Y-196585771D02*
X190577200Y-195085771D01*
X191077200Y-196585771D01*
X191577200Y-196442914D02*
X191648628Y-196514342D01*
X191577200Y-196585771D01*
X191505771Y-196514342D01*
X191577200Y-196442914D01*
X191577200Y-196585771D01*
X194577200Y-196585771D02*
X194577200Y-195085771D01*
X194720057Y-196014342D02*
X195148628Y-196585771D01*
X195148628Y-195585771D02*
X194577200Y-196157200D01*
X195791485Y-196585771D02*
X195791485Y-195585771D01*
X195791485Y-195085771D02*
X195720057Y-195157200D01*
X195791485Y-195228628D01*
X195862914Y-195157200D01*
X195791485Y-195085771D01*
X195791485Y-195228628D01*
X197148628Y-196514342D02*
X197005771Y-196585771D01*
X196720057Y-196585771D01*
X196577200Y-196514342D01*
X196505771Y-196442914D01*
X196434342Y-196300057D01*
X196434342Y-195871485D01*
X196505771Y-195728628D01*
X196577200Y-195657200D01*
X196720057Y-195585771D01*
X197005771Y-195585771D01*
X197148628Y-195657200D01*
X198434342Y-196585771D02*
X198434342Y-195800057D01*
X198362914Y-195657200D01*
X198220057Y-195585771D01*
X197934342Y-195585771D01*
X197791485Y-195657200D01*
X198434342Y-196514342D02*
X198291485Y-196585771D01*
X197934342Y-196585771D01*
X197791485Y-196514342D01*
X197720057Y-196371485D01*
X197720057Y-196228628D01*
X197791485Y-196085771D01*
X197934342Y-196014342D01*
X198291485Y-196014342D01*
X198434342Y-195942914D01*
X199791485Y-196585771D02*
X199791485Y-195085771D01*
X199791485Y-196514342D02*
X199648628Y-196585771D01*
X199362914Y-196585771D01*
X199220057Y-196514342D01*
X199148628Y-196442914D01*
X199077200Y-196300057D01*
X199077200Y-195871485D01*
X199148628Y-195728628D01*
X199220057Y-195657200D01*
X199362914Y-195585771D01*
X199648628Y-195585771D01*
X199791485Y-195657200D01*
X202077200Y-197157200D02*
X202005771Y-197085771D01*
X201862914Y-196871485D01*
X201791485Y-196728628D01*
X201720057Y-196514342D01*
X201648628Y-196157200D01*
X201648628Y-195871485D01*
X201720057Y-195514342D01*
X201791485Y-195300057D01*
X201862914Y-195157200D01*
X202005771Y-194942914D01*
X202077200Y-194871485D01*
X203291485Y-195085771D02*
X203005771Y-195085771D01*
X202862914Y-195157200D01*
X202791485Y-195228628D01*
X202648628Y-195442914D01*
X202577200Y-195728628D01*
X202577200Y-196300057D01*
X202648628Y-196442914D01*
X202720057Y-196514342D01*
X202862914Y-196585771D01*
X203148628Y-196585771D01*
X203291485Y-196514342D01*
X203362914Y-196442914D01*
X203434342Y-196300057D01*
X203434342Y-195942914D01*
X203362914Y-195800057D01*
X203291485Y-195728628D01*
X203148628Y-195657200D01*
X202862914Y-195657200D01*
X202720057Y-195728628D01*
X202648628Y-195800057D01*
X202577200Y-195942914D01*
X204077200Y-196442914D02*
X204148628Y-196514342D01*
X204077200Y-196585771D01*
X204005771Y-196514342D01*
X204077200Y-196442914D01*
X204077200Y-196585771D01*
X205077200Y-195085771D02*
X205220057Y-195085771D01*
X205362914Y-195157200D01*
X205434342Y-195228628D01*
X205505771Y-195371485D01*
X205577200Y-195657200D01*
X205577200Y-196014342D01*
X205505771Y-196300057D01*
X205434342Y-196442914D01*
X205362914Y-196514342D01*
X205220057Y-196585771D01*
X205077200Y-196585771D01*
X204934342Y-196514342D01*
X204862914Y-196442914D01*
X204791485Y-196300057D01*
X204720057Y-196014342D01*
X204720057Y-195657200D01*
X204791485Y-195371485D01*
X204862914Y-195228628D01*
X204934342Y-195157200D01*
X205077200Y-195085771D01*
X206220057Y-196442914D02*
X206291485Y-196514342D01*
X206220057Y-196585771D01*
X206148628Y-196514342D01*
X206220057Y-196442914D01*
X206220057Y-196585771D01*
X206791485Y-195085771D02*
X207791485Y-195085771D01*
X207148628Y-196585771D01*
X208220057Y-197157200D02*
X208291485Y-197085771D01*
X208434342Y-196871485D01*
X208505771Y-196728628D01*
X208577200Y-196514342D01*
X208648628Y-196157200D01*
X208648628Y-195871485D01*
X208577200Y-195514342D01*
X208505771Y-195300057D01*
X208434342Y-195157200D01*
X208291485Y-194942914D01*
X208220057Y-194871485D01*
D10*
D11*
X177002200Y-191507200D02*
X285002200Y-191507200D01*
D10*
D12*
X264411485Y-193785771D02*
X263911485Y-193071485D01*
X263554342Y-193785771D02*
X263554342Y-192285771D01*
X264125771Y-192285771D01*
X264268628Y-192357200D01*
X264340057Y-192428628D01*
X264411485Y-192571485D01*
X264411485Y-192785771D01*
X264340057Y-192928628D01*
X264268628Y-193000057D01*
X264125771Y-193071485D01*
X263554342Y-193071485D01*
X265625771Y-193714342D02*
X265482914Y-193785771D01*
X265197200Y-193785771D01*
X265054342Y-193714342D01*
X264982914Y-193571485D01*
X264982914Y-193000057D01*
X265054342Y-192857200D01*
X265197200Y-192785771D01*
X265482914Y-192785771D01*
X265625771Y-192857200D01*
X265697200Y-193000057D01*
X265697200Y-193142914D01*
X264982914Y-193285771D01*
X266197200Y-192785771D02*
X266554342Y-193785771D01*
X266911485Y-192785771D01*
X267482914Y-193642914D02*
X267554342Y-193714342D01*
X267482914Y-193785771D01*
X267411485Y-193714342D01*
X267482914Y-193642914D01*
X267482914Y-193785771D01*
X267482914Y-192857200D02*
X267554342Y-192928628D01*
X267482914Y-193000057D01*
X267411485Y-192928628D01*
X267482914Y-192857200D01*
X267482914Y-193000057D01*
X269197200Y-192785771D02*
X269554342Y-193785771D01*
X269911485Y-192785771D01*
X271268628Y-193785771D02*
X270411485Y-193785771D01*
X270840057Y-193785771D02*
X270840057Y-192285771D01*
X270697200Y-192500057D01*
X270554342Y-192642914D01*
X270411485Y-192714342D01*
X271911485Y-193642914D02*
X271982914Y-193714342D01*
X271911485Y-193785771D01*
X271840057Y-193714342D01*
X271911485Y-193642914D01*
X271911485Y-193785771D01*
X272482914Y-192285771D02*
X273411485Y-192285771D01*
X272911485Y-192857200D01*
X273125771Y-192857200D01*
X273268628Y-192928628D01*
X273340057Y-193000057D01*
X273411485Y-193142914D01*
X273411485Y-193500057D01*
X273340057Y-193642914D01*
X273268628Y-193714342D01*
X273125771Y-193785771D01*
X272697200Y-193785771D01*
X272554342Y-193714342D01*
X272482914Y-193642914D01*
D10*
D11*
X178362914Y-193714342D02*
X178577200Y-193785771D01*
X178934342Y-193785771D01*
X179077200Y-193714342D01*
X179148628Y-193642914D01*
X179220057Y-193500057D01*
X179220057Y-193357200D01*
X179148628Y-193214342D01*
X179077200Y-193142914D01*
X178934342Y-193071485D01*
X178648628Y-193000057D01*
X178505771Y-192928628D01*
X178434342Y-192857200D01*
X178362914Y-192714342D01*
X178362914Y-192571485D01*
X178434342Y-192428628D01*
X178505771Y-192357200D01*
X178648628Y-192285771D01*
X179005771Y-192285771D01*
X179220057Y-192357200D01*
X179862914Y-193785771D02*
X179862914Y-192785771D01*
X179862914Y-192285771D02*
X179791485Y-192357200D01*
X179862914Y-192428628D01*
X179934342Y-192357200D01*
X179862914Y-192285771D01*
X179862914Y-192428628D01*
X180434342Y-192785771D02*
X181220057Y-192785771D01*
X180434342Y-193785771D01*
X181220057Y-193785771D01*
X182362914Y-193714342D02*
X182220057Y-193785771D01*
X181934342Y-193785771D01*
X181791485Y-193714342D01*
X181720057Y-193571485D01*
X181720057Y-193000057D01*
X181791485Y-192857200D01*
X181934342Y-192785771D01*
X182220057Y-192785771D01*
X182362914Y-192857200D01*
X182434342Y-193000057D01*
X182434342Y-193142914D01*
X181720057Y-193285771D01*
X183077200Y-193642914D02*
X183148628Y-193714342D01*
X183077200Y-193785771D01*
X183005771Y-193714342D01*
X183077200Y-193642914D01*
X183077200Y-193785771D01*
X183077200Y-192857200D02*
X183148628Y-192928628D01*
X183077200Y-193000057D01*
X183005771Y-192928628D01*
X183077200Y-192857200D01*
X183077200Y-193000057D01*
X184862914Y-193357200D02*
X185577200Y-193357200D01*
X184720057Y-193785771D02*
X185220057Y-192285771D01*
X185720057Y-193785771D01*
X186862914Y-192785771D02*
X186862914Y-193785771D01*
X186505771Y-192214342D02*
X186148628Y-193285771D01*
X187077200Y-193285771D01*
D10*
D11*
X263434342Y-196585771D02*
X263434342Y-195085771D01*
X264791485Y-196585771D02*
X264791485Y-195085771D01*
X264791485Y-196514342D02*
X264648628Y-196585771D01*
X264362914Y-196585771D01*
X264220057Y-196514342D01*
X264148628Y-196442914D01*
X264077200Y-196300057D01*
X264077200Y-195871485D01*
X264148628Y-195728628D01*
X264220057Y-195657200D01*
X264362914Y-195585771D01*
X264648628Y-195585771D01*
X264791485Y-195657200D01*
X265505771Y-196442914D02*
X265577200Y-196514342D01*
X265505771Y-196585771D01*
X265434342Y-196514342D01*
X265505771Y-196442914D01*
X265505771Y-196585771D01*
X265505771Y-195657200D02*
X265577200Y-195728628D01*
X265505771Y-195800057D01*
X265434342Y-195728628D01*
X265505771Y-195657200D01*
X265505771Y-195800057D01*
X268148628Y-196585771D02*
X267291485Y-196585771D01*
X267720057Y-196585771D02*
X267720057Y-195085771D01*
X267577200Y-195300057D01*
X267434342Y-195442914D01*
X267291485Y-195514342D01*
X269862914Y-195014342D02*
X268577200Y-196942914D01*
X271148628Y-196585771D02*
X270291485Y-196585771D01*
X270720057Y-196585771D02*
X270720057Y-195085771D01*
X270577200Y-195300057D01*
X270434342Y-195442914D01*
X270291485Y-195514342D01*
D10*
D11*
X177002200Y-187507200D02*
X285002200Y-187507200D01*
D10*
D13*
X178714580Y-188211961D02*
X179857438Y-188211961D01*
X179036009Y-190211961D02*
X179286009Y-188211961D01*
X180274104Y-190211961D02*
X180440771Y-188878628D01*
X180524104Y-188211961D02*
X180416961Y-188307200D01*
X180500295Y-188402438D01*
X180607438Y-188307200D01*
X180524104Y-188211961D01*
X180500295Y-188402438D01*
X181107438Y-188878628D02*
X181869342Y-188878628D01*
X181476485Y-188211961D02*
X181262200Y-189926247D01*
X181333628Y-190116723D01*
X181512200Y-190211961D01*
X181702676Y-190211961D01*
X182655057Y-190211961D02*
X182476485Y-190116723D01*
X182405057Y-189926247D01*
X182619342Y-188211961D01*
X184190771Y-190116723D02*
X183988390Y-190211961D01*
X183607438Y-190211961D01*
X183428866Y-190116723D01*
X183357438Y-189926247D01*
X183452676Y-189164342D01*
X183571723Y-188973866D01*
X183774104Y-188878628D01*
X184155057Y-188878628D01*
X184333628Y-188973866D01*
X184405057Y-189164342D01*
X184381247Y-189354819D01*
X183405057Y-189545295D01*
X185155057Y-190021485D02*
X185238390Y-190116723D01*
X185131247Y-190211961D01*
X185047914Y-190116723D01*
X185155057Y-190021485D01*
X185131247Y-190211961D01*
X185286009Y-188973866D02*
X185369342Y-189069104D01*
X185262200Y-189164342D01*
X185178866Y-189069104D01*
X185286009Y-188973866D01*
X185262200Y-189164342D01*
X187857438Y-188211961D02*
X187655057Y-189831009D01*
X187726485Y-190021485D01*
X187809819Y-190116723D01*
X187988390Y-190211961D01*
X188369342Y-190211961D01*
X188571723Y-190116723D01*
X188678866Y-190021485D01*
X188797914Y-189831009D01*
X189000295Y-188211961D01*
X189619342Y-190116723D02*
X189893152Y-190211961D01*
X190369342Y-190211961D01*
X190571723Y-190116723D01*
X190678866Y-190021485D01*
X190797914Y-189831009D01*
X190821723Y-189640533D01*
X190750295Y-189450057D01*
X190666961Y-189354819D01*
X190488390Y-189259580D01*
X190119342Y-189164342D01*
X189940771Y-189069104D01*
X189857438Y-188973866D01*
X189786009Y-188783390D01*
X189809819Y-188592914D01*
X189928866Y-188402438D01*
X190036009Y-188307200D01*
X190238390Y-188211961D01*
X190714580Y-188211961D01*
X190988390Y-188307200D01*
X191607438Y-190211961D02*
X191857438Y-188211961D01*
X192345533Y-189640533D01*
X193190771Y-188211961D01*
X192940771Y-190211961D01*
X195036009Y-190211961D02*
X194488390Y-189259580D01*
X193893152Y-190211961D02*
X194143152Y-188211961D01*
X194905057Y-188211961D01*
X195083628Y-188307200D01*
X195166961Y-188402438D01*
X195238390Y-188592914D01*
X195202676Y-188878628D01*
X195083628Y-189069104D01*
X194976485Y-189164342D01*
X194774104Y-189259580D01*
X194012200Y-189259580D01*
X197547914Y-189164342D02*
X198214580Y-189164342D01*
X198369342Y-190211961D02*
X197416961Y-190211961D01*
X197666961Y-188211961D01*
X198619342Y-188211961D01*
X199393152Y-188878628D02*
X199226485Y-190211961D01*
X199369342Y-189069104D02*
X199476485Y-188973866D01*
X199678866Y-188878628D01*
X199964580Y-188878628D01*
X200143152Y-188973866D01*
X200214580Y-189164342D01*
X200083628Y-190211961D01*
X202059819Y-188878628D02*
X201857438Y-190497676D01*
X201738390Y-190688152D01*
X201631247Y-190783390D01*
X201428866Y-190878628D01*
X201143152Y-190878628D01*
X200964580Y-190783390D01*
X201905057Y-190116723D02*
X201702676Y-190211961D01*
X201321723Y-190211961D01*
X201143152Y-190116723D01*
X201059819Y-190021485D01*
X200988390Y-189831009D01*
X201059819Y-189259580D01*
X201178866Y-189069104D01*
X201286009Y-188973866D01*
X201488390Y-188878628D01*
X201869342Y-188878628D01*
X202047914Y-188973866D01*
X202845533Y-190211961D02*
X203012200Y-188878628D01*
X203095533Y-188211961D02*
X202988390Y-188307200D01*
X203071723Y-188402438D01*
X203178866Y-188307200D01*
X203095533Y-188211961D01*
X203071723Y-188402438D01*
X203964580Y-188878628D02*
X203797914Y-190211961D01*
X203940771Y-189069104D02*
X204047914Y-188973866D01*
X204250295Y-188878628D01*
X204536009Y-188878628D01*
X204714580Y-188973866D01*
X204786009Y-189164342D01*
X204655057Y-190211961D01*
X206381247Y-190116723D02*
X206178866Y-190211961D01*
X205797914Y-190211961D01*
X205619342Y-190116723D01*
X205547914Y-189926247D01*
X205643152Y-189164342D01*
X205762200Y-188973866D01*
X205964580Y-188878628D01*
X206345533Y-188878628D01*
X206524104Y-188973866D01*
X206595533Y-189164342D01*
X206571723Y-189354819D01*
X205595533Y-189545295D01*
X208095533Y-190116723D02*
X207893152Y-190211961D01*
X207512200Y-190211961D01*
X207333628Y-190116723D01*
X207262200Y-189926247D01*
X207357438Y-189164342D01*
X207476485Y-188973866D01*
X207678866Y-188878628D01*
X208059819Y-188878628D01*
X208238390Y-188973866D01*
X208309819Y-189164342D01*
X208286009Y-189354819D01*
X207309819Y-189545295D01*
X209036009Y-190211961D02*
X209202676Y-188878628D01*
X209155057Y-189259580D02*
X209274104Y-189069104D01*
X209381247Y-188973866D01*
X209583628Y-188878628D01*
X209774104Y-188878628D01*
X210274104Y-190211961D02*
X210440771Y-188878628D01*
X210524104Y-188211961D02*
X210416961Y-188307200D01*
X210500295Y-188402438D01*
X210607438Y-188307200D01*
X210524104Y-188211961D01*
X210500295Y-188402438D01*
X211393152Y-188878628D02*
X211226485Y-190211961D01*
X211369342Y-189069104D02*
X211476485Y-188973866D01*
X211678866Y-188878628D01*
X211964580Y-188878628D01*
X212143152Y-188973866D01*
X212214580Y-189164342D01*
X212083628Y-190211961D01*
X214059819Y-188878628D02*
X213857438Y-190497676D01*
X213738390Y-190688152D01*
X213631247Y-190783390D01*
X213428866Y-190878628D01*
X213143152Y-190878628D01*
X212964580Y-190783390D01*
X213905057Y-190116723D02*
X213702676Y-190211961D01*
X213321723Y-190211961D01*
X213143152Y-190116723D01*
X213059819Y-190021485D01*
X212988390Y-189831009D01*
X213059819Y-189259580D01*
X213178866Y-189069104D01*
X213286009Y-188973866D01*
X213488390Y-188878628D01*
X213869342Y-188878628D01*
X214047914Y-188973866D01*
X217166961Y-189164342D02*
X217440771Y-189259580D01*
X217524104Y-189354819D01*
X217595533Y-189545295D01*
X217559819Y-189831009D01*
X217440771Y-190021485D01*
X217333628Y-190116723D01*
X217131247Y-190211961D01*
X216369342Y-190211961D01*
X216619342Y-188211961D01*
X217286009Y-188211961D01*
X217464580Y-188307200D01*
X217547914Y-188402438D01*
X217619342Y-188592914D01*
X217595533Y-188783390D01*
X217476485Y-188973866D01*
X217369342Y-189069104D01*
X217166961Y-189164342D01*
X216500295Y-189164342D01*
X218655057Y-190211961D02*
X218476485Y-190116723D01*
X218393152Y-190021485D01*
X218321723Y-189831009D01*
X218393152Y-189259580D01*
X218512200Y-189069104D01*
X218619342Y-188973866D01*
X218821723Y-188878628D01*
X219107438Y-188878628D01*
X219286009Y-188973866D01*
X219369342Y-189069104D01*
X219440771Y-189259580D01*
X219369342Y-189831009D01*
X219250295Y-190021485D01*
X219143152Y-190116723D01*
X218940771Y-190211961D01*
X218655057Y-190211961D01*
X221036009Y-190211961D02*
X221166961Y-189164342D01*
X221095533Y-188973866D01*
X220916961Y-188878628D01*
X220536009Y-188878628D01*
X220333628Y-188973866D01*
X221047914Y-190116723D02*
X220845533Y-190211961D01*
X220369342Y-190211961D01*
X220190771Y-190116723D01*
X220119342Y-189926247D01*
X220143152Y-189735771D01*
X220262200Y-189545295D01*
X220464580Y-189450057D01*
X220940771Y-189450057D01*
X221143152Y-189354819D01*
X221988390Y-190211961D02*
X222155057Y-188878628D01*
X222107438Y-189259580D02*
X222226485Y-189069104D01*
X222333628Y-188973866D01*
X222536009Y-188878628D01*
X222726485Y-188878628D01*
X224083628Y-190211961D02*
X224333628Y-188211961D01*
X224095533Y-190116723D02*
X223893152Y-190211961D01*
X223512199Y-190211961D01*
X223333628Y-190116723D01*
X223250295Y-190021485D01*
X223178866Y-189831009D01*
X223250295Y-189259580D01*
X223369342Y-189069104D01*
X223476485Y-188973866D01*
X223678866Y-188878628D01*
X224059819Y-188878628D01*
X224238390Y-188973866D01*
D10*
D11*
X178934342Y-185600057D02*
X178434342Y-185600057D01*
X178434342Y-186385771D02*
X178434342Y-184885771D01*
X179148628Y-184885771D01*
X179720057Y-186385771D02*
X179720057Y-185385771D01*
X179720057Y-184885771D02*
X179648628Y-184957200D01*
X179720057Y-185028628D01*
X179791485Y-184957200D01*
X179720057Y-184885771D01*
X179720057Y-185028628D01*
X180648628Y-186385771D02*
X180505771Y-186314342D01*
X180434342Y-186171485D01*
X180434342Y-184885771D01*
X181791485Y-186314342D02*
X181648628Y-186385771D01*
X181362914Y-186385771D01*
X181220057Y-186314342D01*
X181148628Y-186171485D01*
X181148628Y-185600057D01*
X181220057Y-185457200D01*
X181362914Y-185385771D01*
X181648628Y-185385771D01*
X181791485Y-185457200D01*
X181862914Y-185600057D01*
X181862914Y-185742914D01*
X181148628Y-185885771D01*
X182505771Y-186242914D02*
X182577200Y-186314342D01*
X182505771Y-186385771D01*
X182434342Y-186314342D01*
X182505771Y-186242914D01*
X182505771Y-186385771D01*
X182505771Y-185457200D02*
X182577200Y-185528628D01*
X182505771Y-185600057D01*
X182434342Y-185528628D01*
X182505771Y-185457200D01*
X182505771Y-185600057D01*
X184362914Y-186385771D02*
X184362914Y-184885771D01*
X184720057Y-184885771D01*
X184934342Y-184957200D01*
X185077200Y-185100057D01*
X185148628Y-185242914D01*
X185220057Y-185528628D01*
X185220057Y-185742914D01*
X185148628Y-186028628D01*
X185077200Y-186171485D01*
X184934342Y-186314342D01*
X184720057Y-186385771D01*
X184362914Y-186385771D01*
X186720057Y-186242914D02*
X186648628Y-186314342D01*
X186434342Y-186385771D01*
X186291485Y-186385771D01*
X186077200Y-186314342D01*
X185934342Y-186171485D01*
X185862914Y-186028628D01*
X185791485Y-185742914D01*
X185791485Y-185528628D01*
X185862914Y-185242914D01*
X185934342Y-185100057D01*
X186077200Y-184957200D01*
X186291485Y-184885771D01*
X186434342Y-184885771D01*
X186648628Y-184957200D01*
X186720057Y-185028628D01*
X187291485Y-185957200D02*
X188005771Y-185957200D01*
X187148628Y-186385771D02*
X187648628Y-184885771D01*
X188148628Y-186385771D01*
X188291485Y-186528628D02*
X189434342Y-186528628D01*
X189791485Y-184885771D02*
X189791485Y-186100057D01*
X189862914Y-186242914D01*
X189934342Y-186314342D01*
X190077200Y-186385771D01*
X190362914Y-186385771D01*
X190505771Y-186314342D01*
X190577200Y-186242914D01*
X190648628Y-186100057D01*
X190648628Y-184885771D01*
X191291485Y-186314342D02*
X191505771Y-186385771D01*
X191862914Y-186385771D01*
X192005771Y-186314342D01*
X192077200Y-186242914D01*
X192148628Y-186100057D01*
X192148628Y-185957200D01*
X192077200Y-185814342D01*
X192005771Y-185742914D01*
X191862914Y-185671485D01*
X191577200Y-185600057D01*
X191434342Y-185528628D01*
X191362914Y-185457200D01*
X191291485Y-185314342D01*
X191291485Y-185171485D01*
X191362914Y-185028628D01*
X191434342Y-184957200D01*
X191577200Y-184885771D01*
X191934342Y-184885771D01*
X192148628Y-184957200D01*
X192791485Y-186385771D02*
X192791485Y-184885771D01*
X193291485Y-185957200D01*
X193791485Y-184885771D01*
X193791485Y-186385771D01*
X195362914Y-186385771D02*
X194862914Y-185671485D01*
X194505771Y-186385771D02*
X194505771Y-184885771D01*
X195077200Y-184885771D01*
X195220057Y-184957200D01*
X195291485Y-185028628D01*
X195362914Y-185171485D01*
X195362914Y-185385771D01*
X195291485Y-185528628D01*
X195220057Y-185600057D01*
X195077200Y-185671485D01*
X194505771Y-185671485D01*
X195648628Y-186528628D02*
X196791485Y-186528628D01*
X197077200Y-186314342D02*
X197220057Y-186385771D01*
X197505771Y-186385771D01*
X197648628Y-186314342D01*
X197720057Y-186171485D01*
X197720057Y-186100057D01*
X197648628Y-185957200D01*
X197505771Y-185885771D01*
X197291485Y-185885771D01*
X197148628Y-185814342D01*
X197077200Y-185671485D01*
X197077200Y-185600057D01*
X197148628Y-185457200D01*
X197291485Y-185385771D01*
X197505771Y-185385771D01*
X197648628Y-185457200D01*
X199005771Y-186314342D02*
X198862914Y-186385771D01*
X198577200Y-186385771D01*
X198434342Y-186314342D01*
X198362914Y-186242914D01*
X198291485Y-186100057D01*
X198291485Y-185671485D01*
X198362914Y-185528628D01*
X198434342Y-185457200D01*
X198577200Y-185385771D01*
X198862914Y-185385771D01*
X199005771Y-185457200D01*
X199648628Y-186385771D02*
X199648628Y-184885771D01*
X200291485Y-186385771D02*
X200291485Y-185600057D01*
X200220057Y-185457200D01*
X200077200Y-185385771D01*
X199862914Y-185385771D01*
X199720057Y-185457200D01*
X199648628Y-185528628D01*
X201005771Y-186242914D02*
X201077200Y-186314342D01*
X201005771Y-186385771D01*
X200934342Y-186314342D01*
X201005771Y-186242914D01*
X201005771Y-186385771D01*
X201720057Y-186385771D02*
X201720057Y-184885771D01*
X201862914Y-185814342D02*
X202291485Y-186385771D01*
X202291485Y-185385771D02*
X201720057Y-185957200D01*
X202934342Y-186385771D02*
X202934342Y-185385771D01*
X202934342Y-184885771D02*
X202862914Y-184957200D01*
X202934342Y-185028628D01*
X203005771Y-184957200D01*
X202934342Y-184885771D01*
X202934342Y-185028628D01*
X204291485Y-186314342D02*
X204148628Y-186385771D01*
X203862914Y-186385771D01*
X203720057Y-186314342D01*
X203648628Y-186242914D01*
X203577200Y-186100057D01*
X203577200Y-185671485D01*
X203648628Y-185528628D01*
X203720057Y-185457200D01*
X203862914Y-185385771D01*
X204148628Y-185385771D01*
X204291485Y-185457200D01*
X205577200Y-186385771D02*
X205577200Y-185600057D01*
X205505771Y-185457200D01*
X205362914Y-185385771D01*
X205077200Y-185385771D01*
X204934342Y-185457200D01*
X205577200Y-186314342D02*
X205434342Y-186385771D01*
X205077200Y-186385771D01*
X204934342Y-186314342D01*
X204862914Y-186171485D01*
X204862914Y-186028628D01*
X204934342Y-185885771D01*
X205077200Y-185814342D01*
X205434342Y-185814342D01*
X205577200Y-185742914D01*
X206934342Y-186385771D02*
X206934342Y-184885771D01*
X206934342Y-186314342D02*
X206791485Y-186385771D01*
X206505771Y-186385771D01*
X206362914Y-186314342D01*
X206291485Y-186242914D01*
X206220057Y-186100057D01*
X206220057Y-185671485D01*
X206291485Y-185528628D01*
X206362914Y-185457200D01*
X206505771Y-185385771D01*
X206791485Y-185385771D01*
X206934342Y-185457200D01*
X207291485Y-186528628D02*
X208434342Y-186528628D01*
X208791485Y-185385771D02*
X208791485Y-186885771D01*
X208791485Y-185457200D02*
X208934342Y-185385771D01*
X209220057Y-185385771D01*
X209362914Y-185457200D01*
X209434342Y-185528628D01*
X209505771Y-185671485D01*
X209505771Y-186100057D01*
X209434342Y-186242914D01*
X209362914Y-186314342D01*
X209220057Y-186385771D01*
X208934342Y-186385771D01*
X208791485Y-186314342D01*
X210791485Y-186314342D02*
X210648628Y-186385771D01*
X210362914Y-186385771D01*
X210220057Y-186314342D01*
X210148628Y-186242914D01*
X210077200Y-186100057D01*
X210077200Y-185671485D01*
X210148628Y-185528628D01*
X210220057Y-185457200D01*
X210362914Y-185385771D01*
X210648628Y-185385771D01*
X210791485Y-185457200D01*
X211434342Y-186385771D02*
X211434342Y-184885771D01*
X211434342Y-185457200D02*
X211577200Y-185385771D01*
X211862914Y-185385771D01*
X212005771Y-185457200D01*
X212077200Y-185528628D01*
X212148628Y-185671485D01*
X212148628Y-186100057D01*
X212077200Y-186242914D01*
X212005771Y-186314342D01*
X211862914Y-186385771D01*
X211577200Y-186385771D01*
X211434342Y-186314342D01*
D10*
D11*
X177002200Y-181507200D02*
X285002200Y-181507200D01*
D10*
D11*
X178362914Y-183614342D02*
X178577200Y-183685771D01*
X178934342Y-183685771D01*
X179077200Y-183614342D01*
X179148628Y-183542914D01*
X179220057Y-183400057D01*
X179220057Y-183257200D01*
X179148628Y-183114342D01*
X179077200Y-183042914D01*
X178934342Y-182971485D01*
X178648628Y-182900057D01*
X178505771Y-182828628D01*
X178434342Y-182757200D01*
X178362914Y-182614342D01*
X178362914Y-182471485D01*
X178434342Y-182328628D01*
X178505771Y-182257200D01*
X178648628Y-182185771D01*
X179005771Y-182185771D01*
X179220057Y-182257200D01*
X179862914Y-183685771D02*
X179862914Y-182185771D01*
X180505771Y-183685771D02*
X180505771Y-182900057D01*
X180434342Y-182757200D01*
X180291485Y-182685771D01*
X180077200Y-182685771D01*
X179934342Y-182757200D01*
X179862914Y-182828628D01*
X181791485Y-183614342D02*
X181648628Y-183685771D01*
X181362914Y-183685771D01*
X181220057Y-183614342D01*
X181148628Y-183471485D01*
X181148628Y-182900057D01*
X181220057Y-182757200D01*
X181362914Y-182685771D01*
X181648628Y-182685771D01*
X181791485Y-182757200D01*
X181862914Y-182900057D01*
X181862914Y-183042914D01*
X181148628Y-183185771D01*
X183077200Y-183614342D02*
X182934342Y-183685771D01*
X182648628Y-183685771D01*
X182505771Y-183614342D01*
X182434342Y-183471485D01*
X182434342Y-182900057D01*
X182505771Y-182757200D01*
X182648628Y-182685771D01*
X182934342Y-182685771D01*
X183077200Y-182757200D01*
X183148628Y-182900057D01*
X183148628Y-183042914D01*
X182434342Y-183185771D01*
X183577200Y-182685771D02*
X184148628Y-182685771D01*
X183791485Y-182185771D02*
X183791485Y-183471485D01*
X183862914Y-183614342D01*
X184005771Y-183685771D01*
X184148628Y-183685771D01*
X184648628Y-183542914D02*
X184720057Y-183614342D01*
X184648628Y-183685771D01*
X184577200Y-183614342D01*
X184648628Y-183542914D01*
X184648628Y-183685771D01*
X184648628Y-182757200D02*
X184720057Y-182828628D01*
X184648628Y-182900057D01*
X184577200Y-182828628D01*
X184648628Y-182757200D01*
X184648628Y-182900057D01*
D10*
D12*
X178554342Y-180685771D02*
X178554342Y-179185771D01*
X178911485Y-179185771D01*
X179125771Y-179257200D01*
X179268628Y-179400057D01*
X179340057Y-179542914D01*
X179411485Y-179828628D01*
X179411485Y-180042914D01*
X179340057Y-180328628D01*
X179268628Y-180471485D01*
X179125771Y-180614342D01*
X178911485Y-180685771D01*
X178554342Y-180685771D01*
X180911485Y-180542914D02*
X180840057Y-180614342D01*
X180625771Y-180685771D01*
X180482914Y-180685771D01*
X180268628Y-180614342D01*
X180125771Y-180471485D01*
X180054342Y-180328628D01*
X179982914Y-180042914D01*
X179982914Y-179828628D01*
X180054342Y-179542914D01*
X180125771Y-179400057D01*
X180268628Y-179257200D01*
X180482914Y-179185771D01*
X180625771Y-179185771D01*
X180840057Y-179257200D01*
X180911485Y-179328628D01*
X181482914Y-180257200D02*
X182197200Y-180257200D01*
X181340057Y-180685771D02*
X181840057Y-179185771D01*
X182340057Y-180685771D01*
D10*
D11*
D10*
D11*
D10*
D11*
D10*
D11*
D10*
D11*
X197002200Y-191507200D02*
X197002200Y-194507200D01*
D10*
D11*
X261002200Y-191507200D02*
X261002200Y-198007200D01*
D14*
X200980000Y-92210000D02*
X267020000Y-92210000D01*
X267020000Y-92210000D02*
X267020000Y-160800000D01*
X267020000Y-160800000D02*
X200980000Y-160800000D01*
X200980000Y-160800000D02*
X200980000Y-92210000D01*
D15*
%TO.P,J1,1,Pin_1*%
%TO.N,VDD*%
X202600000Y-107500000D03*
D16*
%TO.P,J1,2,Pin_2*%
%TO.N,GND*%
X204600000Y-107500000D03*
%TO.P,J1,3,Pin_3*%
X202600000Y-109500000D03*
%TO.P,J1,4,Pin_4*%
%TO.N,Net-(C9-Pad1)*%
X204600000Y-109500000D03*
%TO.P,J1,5,Pin_5*%
%TO.N,Net-(J1-Pad5)*%
X202600000Y-111500000D03*
%TO.P,J1,6,Pin_6*%
%TO.N,Net-(J1-Pad6)*%
X204600000Y-111500000D03*
%TD*%
D17*
%TO.P,Y1,1,1*%
%TO.N,Net-(C17-Pad2)*%
X204371645Y-122236601D03*
%TO.P,Y1,2,2*%
%TO.N,Net-(C16-Pad2)*%
X204371645Y-117356601D03*
%TD*%
D18*
%TO.N,GND*%
X232800000Y-117733334D03*
X229900000Y-111933334D03*
X258500000Y-115300000D03*
X230000000Y-125100000D03*
X255700000Y-110700000D03*
X236866667Y-120700000D03*
X239600000Y-120700000D03*
X229900000Y-103833334D03*
X227100000Y-116100000D03*
X229900000Y-117400000D03*
X258500000Y-106533333D03*
X227200000Y-126533334D03*
X234433334Y-139000000D03*
X227100000Y-105266667D03*
X247200000Y-106649642D03*
X246400000Y-118000000D03*
X232800000Y-109533334D03*
X235600000Y-116300000D03*
X245800000Y-109500000D03*
X253800000Y-133700000D03*
X230000000Y-119633334D03*
X217890884Y-109507032D03*
X229900000Y-109300000D03*
X252000000Y-123600000D03*
X222637843Y-130454589D03*
X218000000Y-124700000D03*
X245100000Y-120800000D03*
X227300000Y-134233334D03*
X217596444Y-117921400D03*
X240774998Y-118482000D03*
X210271645Y-119622101D03*
X232833334Y-123500000D03*
X240400000Y-103600000D03*
X227533334Y-136200000D03*
X230000000Y-122366667D03*
X230100000Y-132800000D03*
X230100000Y-127333334D03*
X256100000Y-137900000D03*
X244300000Y-109500000D03*
X258500000Y-103800000D03*
X255700000Y-119466666D03*
X235600000Y-113566667D03*
X223800000Y-112600000D03*
X227200000Y-121066667D03*
X244288672Y-106655663D03*
X234133334Y-120700000D03*
X253800000Y-135100000D03*
X227300000Y-128766667D03*
X206099999Y-107629999D03*
X255700000Y-102500000D03*
X249266666Y-123600000D03*
X245800000Y-108100000D03*
X207571645Y-117496601D03*
X227100000Y-118833334D03*
X255700000Y-107966666D03*
X238066667Y-135400000D03*
X235600000Y-110833334D03*
X230266667Y-136200000D03*
X243800000Y-123600000D03*
X228966667Y-139000000D03*
X258500000Y-118033333D03*
X231700000Y-139000000D03*
X232800000Y-112266667D03*
X246533333Y-123600000D03*
X247833333Y-120800000D03*
X230100000Y-130066667D03*
X227300000Y-131500000D03*
X244300000Y-108100000D03*
X258500000Y-109266666D03*
X258500000Y-120766666D03*
X233000000Y-136200000D03*
X235600000Y-119033334D03*
X236766667Y-138200000D03*
X255700000Y-122200000D03*
X202580965Y-127287281D03*
X255700000Y-105233333D03*
X255700000Y-114000000D03*
X227100000Y-113366667D03*
X227100000Y-110733334D03*
X207739999Y-103769999D03*
X240800000Y-135400000D03*
X227200000Y-123800000D03*
X207571645Y-123396601D03*
X208801645Y-116366601D03*
X235333334Y-135400000D03*
X245800000Y-106640884D03*
X242333334Y-120700000D03*
X208816645Y-114451601D03*
X229900000Y-106566667D03*
X239500000Y-138200000D03*
X235566667Y-123500000D03*
X247200000Y-108100000D03*
X227100000Y-108000000D03*
X241033334Y-123500000D03*
X253300000Y-120800000D03*
X258500000Y-112000000D03*
X203361103Y-134448222D03*
X229900000Y-114666667D03*
X255700000Y-116733333D03*
X250566666Y-120800000D03*
X238300000Y-123500000D03*
X253800000Y-132100000D03*
X258500000Y-123500000D03*
X232800000Y-115000000D03*
X242233334Y-138200000D03*
X247200000Y-109500000D03*
%TO.N,VDD*%
X252000000Y-131200000D03*
X223700000Y-110600000D03*
X242914998Y-111500000D03*
X210571645Y-123596601D03*
X213676430Y-115272600D03*
X210331914Y-121721101D03*
X206830000Y-111181000D03*
X219100000Y-136700000D03*
X208939999Y-103729999D03*
X207709999Y-108034499D03*
X202560000Y-106180000D03*
X252000000Y-134300000D03*
X236300049Y-99700000D03*
X252000000Y-132800000D03*
%TO.N,Net-(C9-Pad1)*%
X206468809Y-106291409D03*
%TO.N,Net-(J2-Pad1)*%
X212800000Y-140200000D03*
X205200000Y-140100000D03*
%TO.N,Net-(J2-Pad2)*%
X213717982Y-140595360D03*
X206500000Y-140924500D03*
%TO.N,SENSOR1_IN*%
X224400000Y-140500000D03*
X216056047Y-109880197D03*
%TO.N,SENSOR1_OUT*%
X225600000Y-140500000D03*
X216328937Y-110841725D03*
%TO.N,Net-(R8-Pad1)*%
X216887435Y-124259544D03*
X214200000Y-125700000D03*
X216300000Y-127900000D03*
%TO.N,Net-(R9-Pad2)*%
X213772117Y-126603285D03*
X216894043Y-123260063D03*
X217400000Y-128700000D03*
%TO.N,ENC_EXTINT*%
X212629437Y-107700000D03*
X220900000Y-122300000D03*
%TO.N,WINC_EXTINT*%
X229600000Y-102074500D03*
X236995337Y-100601709D03*
%TO.N,ENC_RESET*%
X214190216Y-113535915D03*
X213394657Y-106817649D03*
%TO.N,WINC_RESET*%
X251900000Y-109600000D03*
X236200000Y-106100000D03*
%TO.N,WINC_CHIP_EN*%
X241613259Y-112357759D03*
X236200000Y-107400000D03*
%TO.N,SENSOR2_IN*%
X217073296Y-110174691D03*
X241000000Y-140500000D03*
%TO.N,SENSOR2_OUT*%
X242300000Y-140600000D03*
X217861528Y-110789261D03*
%TO.N,ENC_MOSI*%
X222000000Y-118800000D03*
X215591602Y-106629401D03*
%TO.N,ENC_MISO*%
X221100000Y-116875500D03*
X217500000Y-106100000D03*
%TO.N,ENC_SCK*%
X214400890Y-107183717D03*
X220800000Y-119121101D03*
%TO.N,ENC_SS*%
X216475402Y-106100000D03*
X222000000Y-117600000D03*
%TO.N,WINC_MISO*%
X236235226Y-104084324D03*
X240600000Y-108114651D03*
%TO.N,WINC_SS*%
X236270837Y-102800000D03*
X240637701Y-106862299D03*
%TO.N,Net-(U1-Pad3)*%
X216849340Y-108057962D03*
X255200000Y-98700000D03*
%TO.N,WINC_SCK*%
X236262299Y-101537701D03*
X241635115Y-106797727D03*
%TO.N,Net-(U1-Pad4)*%
X216963997Y-109100000D03*
X255151347Y-101097599D03*
%TD*%
D19*
%TO.N,Net-(C9-Pad1)*%
X205554594Y-109500000D02*
X206824999Y-108229595D01*
X204600000Y-109500000D02*
X205554594Y-109500000D01*
X206824999Y-108229595D02*
X206824999Y-106647599D01*
X206824999Y-106647599D02*
X206468809Y-106291409D01*
%TO.N,Net-(J2-Pad1)*%
X205300000Y-140200000D02*
X205200000Y-140100000D01*
X212800000Y-140200000D02*
X205300000Y-140200000D01*
%TO.N,Net-(J2-Pad2)*%
X206500500Y-140925000D02*
X206500000Y-140924500D01*
X213388342Y-140925000D02*
X206500500Y-140925000D01*
X213717982Y-140595360D02*
X213388342Y-140925000D01*
%TO.N,SENSOR1_IN*%
X222200000Y-116100000D02*
X224400000Y-118300000D01*
X220561907Y-116100000D02*
X222200000Y-116100000D01*
X215603937Y-111142030D02*
X220561907Y-116100000D01*
X215603937Y-110332307D02*
X215603937Y-111142030D01*
X216056047Y-109880197D02*
X215603937Y-110332307D01*
X224400000Y-118300000D02*
X224400000Y-140500000D01*
%TO.N,SENSOR1_OUT*%
X225600000Y-139300000D02*
X224900000Y-138600000D01*
X225600000Y-140500000D02*
X225600000Y-139300000D01*
X222386396Y-115650000D02*
X220748303Y-115650000D01*
X220748303Y-115650000D02*
X216328937Y-111230634D01*
X224900000Y-138600000D02*
X224900000Y-118163604D01*
X216328937Y-111230634D02*
X216328937Y-110841725D01*
X224900000Y-118163604D02*
X222386396Y-115650000D01*
%TO.N,Net-(R8-Pad1)*%
X214200000Y-125800000D02*
X214200000Y-125700000D01*
X214200000Y-125700000D02*
X215446979Y-125700000D01*
X215446979Y-125700000D02*
X216887435Y-124259544D01*
X216300000Y-127900000D02*
X214200000Y-125800000D01*
%TO.N,Net-(R9-Pad2)*%
X215539937Y-123260063D02*
X216894043Y-123260063D01*
X213475000Y-125325000D02*
X215539937Y-123260063D01*
X213475000Y-126306168D02*
X213475000Y-125325000D01*
X217400000Y-128700000D02*
X215868832Y-128700000D01*
X215868832Y-128700000D02*
X213772117Y-126603285D01*
X213772117Y-126603285D02*
X213475000Y-126306168D01*
%TO.N,ENC_EXTINT*%
X216871444Y-117271444D02*
X212900000Y-113300000D01*
X212900000Y-113300000D02*
X212900000Y-107970563D01*
X212900000Y-107970563D02*
X212629437Y-107700000D01*
X216871444Y-118271444D02*
X216871444Y-117271444D01*
X220900000Y-122300000D02*
X216871444Y-118271444D01*
%TO.N,WINC_EXTINT*%
X236995337Y-100601709D02*
X236868628Y-100475000D01*
X236868628Y-100475000D02*
X231199500Y-100475000D01*
X231199500Y-100475000D02*
X229600000Y-102074500D01*
%TO.N,ENC_RESET*%
X213353937Y-112699636D02*
X214190216Y-113535915D01*
X213353937Y-106858369D02*
X213353937Y-110800000D01*
X213353937Y-110800000D02*
X213353937Y-112699636D01*
X213394657Y-106817649D02*
X213353937Y-106858369D01*
%TO.N,WINC_RESET*%
X251275000Y-110225000D02*
X240325000Y-110225000D01*
X251900000Y-109600000D02*
X251275000Y-110225000D01*
X240325000Y-110225000D02*
X236200000Y-106100000D01*
%TO.N,WINC_CHIP_EN*%
X241613259Y-112357759D02*
X241157759Y-112357759D01*
X241157759Y-112357759D02*
X236200000Y-107400000D01*
%TO.N,SENSOR2_IN*%
X225350000Y-138413604D02*
X225350000Y-117977208D01*
X222572792Y-115200000D02*
X225350000Y-117977208D01*
X227436396Y-140500000D02*
X225350000Y-138413604D01*
X217073296Y-110174691D02*
X217073296Y-111338597D01*
X241000000Y-140500000D02*
X227436396Y-140500000D01*
X217073296Y-111338597D02*
X220934699Y-115200000D01*
X220934699Y-115200000D02*
X222572792Y-115200000D01*
%TO.N,SENSOR2_OUT*%
X221121095Y-114750000D02*
X222759188Y-114750000D01*
X217861528Y-111490433D02*
X221121095Y-114750000D01*
X242300000Y-140100000D02*
X242300000Y-140600000D01*
X240500000Y-139500000D02*
X241700000Y-139500000D01*
X241700000Y-139500000D02*
X242300000Y-140100000D01*
X227586396Y-140013604D02*
X239986396Y-140013604D01*
X222759188Y-114750000D02*
X225800000Y-117790812D01*
X225800000Y-138227208D02*
X227586396Y-140013604D01*
X217861528Y-110789261D02*
X217861528Y-111490433D01*
X225800000Y-117790812D02*
X225800000Y-138227208D01*
X239986396Y-140013604D02*
X240500000Y-139500000D01*
%TO.N,ENC_MOSI*%
X214253937Y-111701218D02*
X214253937Y-108355268D01*
X221596101Y-118396101D02*
X220948820Y-118396101D01*
X215591602Y-107017603D02*
X215591602Y-106629401D01*
X220948820Y-118396101D02*
X214253937Y-111701218D01*
X214253937Y-108355268D02*
X215591602Y-107017603D01*
X222000000Y-118800000D02*
X221596101Y-118396101D01*
%TO.N,ENC_MISO*%
X215153937Y-111328426D02*
X215153937Y-108728060D01*
X221100000Y-116875500D02*
X220701011Y-116875500D01*
X217500000Y-106381997D02*
X217500000Y-106100000D01*
X215153937Y-108728060D02*
X217500000Y-106381997D01*
X220701011Y-116875500D02*
X215153937Y-111328426D01*
%TO.N,ENC_SCK*%
X220800000Y-119121101D02*
X213803937Y-112125038D01*
X213803937Y-112125038D02*
X213803937Y-107780670D01*
X213803937Y-107780670D02*
X214400890Y-107183717D01*
%TO.N,ENC_SS*%
X222000000Y-117600000D02*
X220789115Y-117600000D01*
X216475402Y-106770199D02*
X216475402Y-106100000D01*
X220789115Y-117600000D02*
X214703937Y-111514822D01*
X214703937Y-108541664D02*
X216475402Y-106770199D01*
X214703937Y-111514822D02*
X214703937Y-108541664D01*
%TO.N,WINC_MISO*%
X239714651Y-108114651D02*
X240600000Y-108114651D01*
X236235226Y-104635226D02*
X239714651Y-108114651D01*
X236235226Y-104084324D02*
X236235226Y-104635226D01*
%TO.N,WINC_SS*%
X236270837Y-102800000D02*
X236270837Y-103095337D01*
X236270837Y-103095337D02*
X240037799Y-106862299D01*
X240037799Y-106862299D02*
X240637701Y-106862299D01*
%TO.N,Net-(U1-Pad3)*%
X216849340Y-108057962D02*
X217342038Y-108057962D01*
X217342038Y-108057962D02*
X218700000Y-106700000D01*
X212500000Y-99200000D02*
X213400000Y-98300000D01*
X218700000Y-106000000D02*
X216363604Y-103663604D01*
X212500000Y-103400000D02*
X212500000Y-99200000D01*
X218700000Y-106700000D02*
X218700000Y-106000000D01*
X212763604Y-103663604D02*
X212500000Y-103400000D01*
X213400000Y-98300000D02*
X254800000Y-98300000D01*
X216363604Y-103663604D02*
X212763604Y-103663604D01*
X254800000Y-98300000D02*
X255200000Y-98700000D01*
%TO.N,WINC_SCK*%
X241597727Y-106797727D02*
X241635115Y-106797727D01*
X236337701Y-101537701D02*
X241597727Y-106797727D01*
X236262299Y-101537701D02*
X236337701Y-101537701D01*
%TO.N,Net-(U1-Pad4)*%
X213013604Y-103213604D02*
X216550000Y-103213604D01*
X252853748Y-98800000D02*
X213650000Y-98800000D01*
X219200000Y-105863604D02*
X219200000Y-106863997D01*
X212950000Y-103150000D02*
X213013604Y-103213604D01*
X212950000Y-99500000D02*
X212950000Y-103150000D01*
X255151347Y-101097599D02*
X252853748Y-98800000D01*
X216550000Y-103213604D02*
X219200000Y-105863604D01*
X213650000Y-98800000D02*
X212950000Y-99500000D01*
X219200000Y-106863997D02*
X216963997Y-109100000D01*
%TD*%
%TA.AperFunction,Conductor*%
%TO.N,GND*%
G36*
X212668026Y-97920002D02*
G01*
X212714519Y-97973658D01*
X212724623Y-98043932D01*
X212695129Y-98108512D01*
X212689000Y-98115095D01*
X212107747Y-98696348D01*
X212099461Y-98703888D01*
X212092982Y-98708000D01*
X212087557Y-98713777D01*
X212046357Y-98757651D01*
X212043602Y-98760493D01*
X212023865Y-98780230D01*
X212021385Y-98783427D01*
X212013682Y-98792447D01*
X211983414Y-98824679D01*
X211979595Y-98831625D01*
X211979593Y-98831628D01*
X211973652Y-98842434D01*
X211962801Y-98858953D01*
X211950386Y-98874959D01*
X211947241Y-98882228D01*
X211947238Y-98882232D01*
X211932826Y-98915537D01*
X211927609Y-98926187D01*
X211906305Y-98964940D01*
X211904334Y-98972615D01*
X211904334Y-98972616D01*
X211901267Y-98984562D01*
X211894863Y-99003266D01*
X211886819Y-99021855D01*
X211885580Y-99029678D01*
X211885577Y-99029688D01*
X211879901Y-99065524D01*
X211877495Y-99077144D01*
X211868472Y-99112289D01*
X211866500Y-99119970D01*
X211866500Y-99140224D01*
X211864949Y-99159934D01*
X211861780Y-99179943D01*
X211862526Y-99187835D01*
X211865941Y-99223961D01*
X211866500Y-99235819D01*
X211866500Y-103321233D01*
X211865973Y-103332416D01*
X211864298Y-103339909D01*
X211864547Y-103347835D01*
X211864547Y-103347836D01*
X211866438Y-103407986D01*
X211866500Y-103411945D01*
X211866500Y-103439856D01*
X211866997Y-103443790D01*
X211866997Y-103443791D01*
X211867005Y-103443856D01*
X211867938Y-103455693D01*
X211869327Y-103499889D01*
X211874978Y-103519339D01*
X211878987Y-103538700D01*
X211881526Y-103558797D01*
X211884445Y-103566168D01*
X211884445Y-103566170D01*
X211897804Y-103599912D01*
X211901649Y-103611142D01*
X211913982Y-103653593D01*
X211918015Y-103660412D01*
X211918017Y-103660417D01*
X211924293Y-103671028D01*
X211932988Y-103688776D01*
X211940448Y-103707617D01*
X211945110Y-103714033D01*
X211945110Y-103714034D01*
X211966436Y-103743387D01*
X211972952Y-103753307D01*
X211995458Y-103791362D01*
X212009779Y-103805683D01*
X212022619Y-103820716D01*
X212034528Y-103837107D01*
X212040634Y-103842158D01*
X212068605Y-103865298D01*
X212077384Y-103873288D01*
X212259947Y-104055851D01*
X212267491Y-104064141D01*
X212271604Y-104070622D01*
X212277381Y-104076047D01*
X212321271Y-104117262D01*
X212324113Y-104120017D01*
X212343834Y-104139738D01*
X212347029Y-104142216D01*
X212356051Y-104149922D01*
X212388283Y-104180190D01*
X212395232Y-104184010D01*
X212406036Y-104189950D01*
X212422560Y-104200803D01*
X212438563Y-104213217D01*
X212479147Y-104230780D01*
X212489777Y-104235987D01*
X212528544Y-104257299D01*
X212536221Y-104259270D01*
X212536226Y-104259272D01*
X212548162Y-104262336D01*
X212566870Y-104268741D01*
X212585459Y-104276785D01*
X212593284Y-104278024D01*
X212593286Y-104278025D01*
X212629123Y-104283701D01*
X212640744Y-104286108D01*
X212675893Y-104295132D01*
X212683574Y-104297104D01*
X212703835Y-104297104D01*
X212723544Y-104298655D01*
X212743547Y-104301823D01*
X212751439Y-104301077D01*
X212756666Y-104300583D01*
X212787558Y-104297663D01*
X212799415Y-104297104D01*
X216049010Y-104297104D01*
X216117131Y-104317106D01*
X216138101Y-104334005D01*
X216809458Y-105005363D01*
X216843482Y-105067673D01*
X216838417Y-105138489D01*
X216795870Y-105195324D01*
X216729350Y-105220135D01*
X216694164Y-105217703D01*
X216577346Y-105192872D01*
X216577341Y-105192872D01*
X216570889Y-105191500D01*
X216379915Y-105191500D01*
X216373463Y-105192872D01*
X216373458Y-105192872D01*
X216286515Y-105211353D01*
X216193114Y-105231206D01*
X216187084Y-105233891D01*
X216187083Y-105233891D01*
X216024680Y-105306197D01*
X216024678Y-105306198D01*
X216018650Y-105308882D01*
X216013309Y-105312762D01*
X216013308Y-105312763D01*
X215963245Y-105349136D01*
X215864149Y-105421134D01*
X215859728Y-105426044D01*
X215859727Y-105426045D01*
X215844563Y-105442887D01*
X215736362Y-105563056D01*
X215707791Y-105612543D01*
X215681603Y-105657901D01*
X215630220Y-105706894D01*
X215572484Y-105720901D01*
X215496115Y-105720901D01*
X215489663Y-105722273D01*
X215489658Y-105722273D01*
X215431017Y-105734738D01*
X215309314Y-105760607D01*
X215303284Y-105763292D01*
X215303283Y-105763292D01*
X215140880Y-105835598D01*
X215140878Y-105835599D01*
X215134850Y-105838283D01*
X214980349Y-105950535D01*
X214975928Y-105955445D01*
X214975927Y-105955446D01*
X214908428Y-106030412D01*
X214852562Y-106092457D01*
X214825816Y-106138783D01*
X214765418Y-106243394D01*
X214714035Y-106292387D01*
X214644322Y-106305823D01*
X214630102Y-106303641D01*
X214502834Y-106276589D01*
X214502829Y-106276589D01*
X214496377Y-106275217D01*
X214305403Y-106275217D01*
X214298943Y-106276590D01*
X214298944Y-106276590D01*
X214228287Y-106291608D01*
X214157497Y-106286206D01*
X214108455Y-106252671D01*
X214010332Y-106143694D01*
X214010331Y-106143693D01*
X214005910Y-106138783D01*
X213851409Y-106026531D01*
X213845381Y-106023847D01*
X213845379Y-106023846D01*
X213682976Y-105951540D01*
X213682975Y-105951540D01*
X213676945Y-105948855D01*
X213570071Y-105926138D01*
X213496601Y-105910521D01*
X213496596Y-105910521D01*
X213490144Y-105909149D01*
X213299170Y-105909149D01*
X213292718Y-105910521D01*
X213292713Y-105910521D01*
X213219243Y-105926138D01*
X213112369Y-105948855D01*
X213106339Y-105951540D01*
X213106338Y-105951540D01*
X212943935Y-106023846D01*
X212943933Y-106023847D01*
X212937905Y-106026531D01*
X212783404Y-106138783D01*
X212778983Y-106143693D01*
X212778982Y-106143694D01*
X212677129Y-106256814D01*
X212655617Y-106280705D01*
X212610524Y-106358809D01*
X212590203Y-106394006D01*
X212560130Y-106446093D01*
X212501115Y-106627721D01*
X212500425Y-106634282D01*
X212500425Y-106634284D01*
X212492327Y-106711337D01*
X212465314Y-106776994D01*
X212407093Y-106817624D01*
X212393215Y-106821413D01*
X212353614Y-106829831D01*
X212353607Y-106829833D01*
X212347149Y-106831206D01*
X212341119Y-106833891D01*
X212341118Y-106833891D01*
X212178715Y-106906197D01*
X212178713Y-106906198D01*
X212172685Y-106908882D01*
X212167344Y-106912762D01*
X212167343Y-106912763D01*
X212124312Y-106944027D01*
X212018184Y-107021134D01*
X212013763Y-107026044D01*
X212013762Y-107026045D01*
X211962906Y-107082527D01*
X211890397Y-107163056D01*
X211844803Y-107242027D01*
X211822546Y-107280578D01*
X211794910Y-107328444D01*
X211735895Y-107510072D01*
X211735205Y-107516633D01*
X211735205Y-107516635D01*
X211726842Y-107596206D01*
X211715933Y-107700000D01*
X211716623Y-107706565D01*
X211731818Y-107851134D01*
X211735895Y-107889928D01*
X211794910Y-108071556D01*
X211890397Y-108236944D01*
X211894815Y-108241851D01*
X211894816Y-108241852D01*
X212013762Y-108373955D01*
X212018184Y-108378866D01*
X212077147Y-108421705D01*
X212165926Y-108486207D01*
X212172685Y-108491118D01*
X212178720Y-108493805D01*
X212191750Y-108499607D01*
X212245845Y-108545587D01*
X212266500Y-108614713D01*
X212266500Y-113221233D01*
X212265973Y-113232416D01*
X212264298Y-113239909D01*
X212264547Y-113247835D01*
X212264547Y-113247836D01*
X212266438Y-113307986D01*
X212266500Y-113311945D01*
X212266500Y-113339856D01*
X212266997Y-113343790D01*
X212266997Y-113343791D01*
X212267005Y-113343856D01*
X212267938Y-113355693D01*
X212269327Y-113399889D01*
X212274978Y-113419339D01*
X212278987Y-113438700D01*
X212281526Y-113458797D01*
X212284445Y-113466168D01*
X212284445Y-113466170D01*
X212297804Y-113499912D01*
X212301649Y-113511142D01*
X212313982Y-113553593D01*
X212318015Y-113560412D01*
X212318017Y-113560417D01*
X212324293Y-113571028D01*
X212332988Y-113588776D01*
X212340448Y-113607617D01*
X212345110Y-113614033D01*
X212345110Y-113614034D01*
X212366436Y-113643387D01*
X212372952Y-113653307D01*
X212395458Y-113691362D01*
X212409779Y-113705683D01*
X212422619Y-113720716D01*
X212434528Y-113737107D01*
X212440632Y-113742157D01*
X212440637Y-113742162D01*
X212468598Y-113765293D01*
X212477379Y-113773283D01*
X213095610Y-114391515D01*
X213129635Y-114453827D01*
X213124570Y-114524643D01*
X213080578Y-114582544D01*
X213075035Y-114586572D01*
X213065177Y-114593734D01*
X212937390Y-114735656D01*
X212841903Y-114901044D01*
X212782888Y-115082672D01*
X212762926Y-115272600D01*
X212782888Y-115462528D01*
X212841903Y-115644156D01*
X212937390Y-115809544D01*
X212941808Y-115814451D01*
X212941809Y-115814452D01*
X213060755Y-115946555D01*
X213065177Y-115951466D01*
X213219678Y-116063718D01*
X213225706Y-116066402D01*
X213225708Y-116066403D01*
X213388111Y-116138709D01*
X213394142Y-116141394D01*
X213487543Y-116161247D01*
X213574486Y-116179728D01*
X213574491Y-116179728D01*
X213580943Y-116181100D01*
X213771917Y-116181100D01*
X213778369Y-116179728D01*
X213778374Y-116179728D01*
X213865317Y-116161247D01*
X213958718Y-116141394D01*
X213964749Y-116138709D01*
X214127152Y-116066403D01*
X214127154Y-116066402D01*
X214133182Y-116063718D01*
X214287683Y-115951466D01*
X214373140Y-115856556D01*
X214433583Y-115819318D01*
X214504567Y-115820670D01*
X214555869Y-115851773D01*
X216201039Y-117496944D01*
X216235065Y-117559256D01*
X216237944Y-117586039D01*
X216237944Y-118192677D01*
X216237417Y-118203860D01*
X216235742Y-118211353D01*
X216235991Y-118219279D01*
X216235991Y-118219280D01*
X216237882Y-118279430D01*
X216237944Y-118283389D01*
X216237944Y-118311300D01*
X216238441Y-118315234D01*
X216238441Y-118315235D01*
X216238449Y-118315300D01*
X216239382Y-118327137D01*
X216240771Y-118371333D01*
X216246422Y-118390783D01*
X216250431Y-118410144D01*
X216252970Y-118430241D01*
X216255889Y-118437612D01*
X216255889Y-118437614D01*
X216269248Y-118471356D01*
X216273093Y-118482586D01*
X216285426Y-118525037D01*
X216289459Y-118531856D01*
X216289461Y-118531861D01*
X216295737Y-118542472D01*
X216304432Y-118560220D01*
X216311892Y-118579061D01*
X216316554Y-118585477D01*
X216316554Y-118585478D01*
X216337880Y-118614831D01*
X216344396Y-118624751D01*
X216366902Y-118662806D01*
X216381223Y-118677127D01*
X216394063Y-118692160D01*
X216405972Y-118708551D01*
X216412078Y-118713602D01*
X216440049Y-118736742D01*
X216448828Y-118744732D01*
X219952878Y-122248782D01*
X219986904Y-122311094D01*
X219989092Y-122324703D01*
X219992060Y-122352935D01*
X220004661Y-122472826D01*
X220006458Y-122489928D01*
X220065473Y-122671556D01*
X220068776Y-122677278D01*
X220068777Y-122677279D01*
X220097194Y-122726499D01*
X220160960Y-122836944D01*
X220165378Y-122841851D01*
X220165379Y-122841852D01*
X220230208Y-122913852D01*
X220288747Y-122978866D01*
X220297431Y-122985175D01*
X220429479Y-123081114D01*
X220443248Y-123091118D01*
X220449276Y-123093802D01*
X220449278Y-123093803D01*
X220611681Y-123166109D01*
X220617712Y-123168794D01*
X220711112Y-123188647D01*
X220798056Y-123207128D01*
X220798061Y-123207128D01*
X220804513Y-123208500D01*
X220995487Y-123208500D01*
X221001939Y-123207128D01*
X221001944Y-123207128D01*
X221088888Y-123188647D01*
X221182288Y-123168794D01*
X221188319Y-123166109D01*
X221350722Y-123093803D01*
X221350724Y-123093802D01*
X221356752Y-123091118D01*
X221370522Y-123081114D01*
X221502569Y-122985175D01*
X221511253Y-122978866D01*
X221569792Y-122913852D01*
X221634621Y-122841852D01*
X221634622Y-122841851D01*
X221639040Y-122836944D01*
X221702806Y-122726499D01*
X221731223Y-122677279D01*
X221731224Y-122677278D01*
X221734527Y-122671556D01*
X221793542Y-122489928D01*
X221795340Y-122472826D01*
X221812814Y-122306565D01*
X221813504Y-122300000D01*
X221793542Y-122110072D01*
X221734527Y-121928444D01*
X221724473Y-121911029D01*
X221642341Y-121768774D01*
X221639040Y-121763056D01*
X221595353Y-121714536D01*
X221515675Y-121626045D01*
X221515674Y-121626044D01*
X221511253Y-121621134D01*
X221356752Y-121508882D01*
X221350724Y-121506198D01*
X221350722Y-121506197D01*
X221188319Y-121433891D01*
X221188318Y-121433891D01*
X221182288Y-121431206D01*
X221088887Y-121411353D01*
X221001944Y-121392872D01*
X221001939Y-121392872D01*
X220995487Y-121391500D01*
X220939594Y-121391500D01*
X220871473Y-121371498D01*
X220850499Y-121354595D01*
X217541849Y-118045944D01*
X217507823Y-117983632D01*
X217504944Y-117956849D01*
X217504944Y-117350211D01*
X217505471Y-117339028D01*
X217507146Y-117331535D01*
X217505006Y-117263444D01*
X217504944Y-117259487D01*
X217504944Y-117231588D01*
X217504440Y-117227597D01*
X217503507Y-117215755D01*
X217502367Y-117179480D01*
X217502118Y-117171555D01*
X217499906Y-117163941D01*
X217499905Y-117163936D01*
X217496467Y-117152103D01*
X217492456Y-117132739D01*
X217490911Y-117120508D01*
X217489918Y-117112647D01*
X217487001Y-117105280D01*
X217487000Y-117105275D01*
X217473642Y-117071536D01*
X217469798Y-117060309D01*
X217459674Y-117025463D01*
X217459673Y-117025460D01*
X217457462Y-117017851D01*
X217455682Y-117014841D01*
X217447225Y-116946335D01*
X217478002Y-116882356D01*
X217538483Y-116845173D01*
X217609465Y-116846591D01*
X217660654Y-116877659D01*
X219852878Y-119069883D01*
X219886904Y-119132195D01*
X219889092Y-119145804D01*
X219906458Y-119311029D01*
X219965473Y-119492657D01*
X220060960Y-119658045D01*
X220188747Y-119799967D01*
X220343248Y-119912219D01*
X220349276Y-119914903D01*
X220349278Y-119914904D01*
X220511681Y-119987210D01*
X220517712Y-119989895D01*
X220611112Y-120009748D01*
X220698056Y-120028229D01*
X220698061Y-120028229D01*
X220704513Y-120029601D01*
X220895487Y-120029601D01*
X220901939Y-120028229D01*
X220901944Y-120028229D01*
X220988888Y-120009748D01*
X221082288Y-119989895D01*
X221088319Y-119987210D01*
X221250722Y-119914904D01*
X221250724Y-119914903D01*
X221256752Y-119912219D01*
X221411253Y-119799967D01*
X221522006Y-119676964D01*
X221582451Y-119639724D01*
X221653434Y-119641076D01*
X221666889Y-119646167D01*
X221711677Y-119666108D01*
X221711685Y-119666111D01*
X221717712Y-119668794D01*
X221811112Y-119688647D01*
X221898056Y-119707128D01*
X221898061Y-119707128D01*
X221904513Y-119708500D01*
X222095487Y-119708500D01*
X222101939Y-119707128D01*
X222101944Y-119707128D01*
X222188888Y-119688647D01*
X222282288Y-119668794D01*
X222288321Y-119666108D01*
X222450722Y-119593803D01*
X222450724Y-119593802D01*
X222456752Y-119591118D01*
X222611253Y-119478866D01*
X222739040Y-119336944D01*
X222834527Y-119171556D01*
X222893542Y-118989928D01*
X222913504Y-118800000D01*
X222904423Y-118713602D01*
X222894232Y-118616635D01*
X222894232Y-118616633D01*
X222893542Y-118610072D01*
X222834527Y-118428444D01*
X222831023Y-118422374D01*
X222739040Y-118263056D01*
X222741777Y-118261476D01*
X222722351Y-118207653D01*
X222738178Y-118138443D01*
X222739114Y-118136987D01*
X222739040Y-118136944D01*
X222831223Y-117977279D01*
X222831224Y-117977278D01*
X222834527Y-117971556D01*
X222854646Y-117909637D01*
X222894720Y-117851031D01*
X222960117Y-117823395D01*
X223030074Y-117835502D01*
X223063574Y-117859479D01*
X223729595Y-118525500D01*
X223763621Y-118587812D01*
X223766500Y-118614595D01*
X223766500Y-139797476D01*
X223746498Y-139865597D01*
X223734142Y-139881779D01*
X223660960Y-139963056D01*
X223565473Y-140128444D01*
X223506458Y-140310072D01*
X223505768Y-140316633D01*
X223505768Y-140316635D01*
X223495258Y-140416635D01*
X223486496Y-140500000D01*
X223506458Y-140689928D01*
X223565473Y-140871556D01*
X223568776Y-140877278D01*
X223568777Y-140877279D01*
X223585947Y-140907018D01*
X223660960Y-141036944D01*
X223665378Y-141041851D01*
X223665379Y-141041852D01*
X223752149Y-141138220D01*
X223788747Y-141178866D01*
X223841223Y-141216992D01*
X223931724Y-141282745D01*
X223943248Y-141291118D01*
X223949276Y-141293802D01*
X223949278Y-141293803D01*
X223967193Y-141301779D01*
X224117712Y-141368794D01*
X224182650Y-141382597D01*
X224298056Y-141407128D01*
X224298061Y-141407128D01*
X224304513Y-141408500D01*
X224495487Y-141408500D01*
X224501939Y-141407128D01*
X224501944Y-141407128D01*
X224617350Y-141382597D01*
X224682288Y-141368794D01*
X224832807Y-141301779D01*
X224850722Y-141293803D01*
X224850724Y-141293802D01*
X224856752Y-141291118D01*
X224868271Y-141282749D01*
X224925939Y-141240851D01*
X224992807Y-141216992D01*
X225061959Y-141233073D01*
X225074061Y-141240851D01*
X225131729Y-141282749D01*
X225143248Y-141291118D01*
X225149276Y-141293802D01*
X225149278Y-141293803D01*
X225167193Y-141301779D01*
X225317712Y-141368794D01*
X225382650Y-141382597D01*
X225498056Y-141407128D01*
X225498061Y-141407128D01*
X225504513Y-141408500D01*
X225695487Y-141408500D01*
X225701939Y-141407128D01*
X225701944Y-141407128D01*
X225817350Y-141382597D01*
X225882288Y-141368794D01*
X226032807Y-141301779D01*
X226050722Y-141293803D01*
X226050724Y-141293802D01*
X226056752Y-141291118D01*
X226068277Y-141282745D01*
X226158777Y-141216992D01*
X226211253Y-141178866D01*
X226247851Y-141138220D01*
X226334621Y-141041852D01*
X226334622Y-141041851D01*
X226339040Y-141036944D01*
X226414053Y-140907018D01*
X226431223Y-140877279D01*
X226431224Y-140877278D01*
X226434527Y-140871556D01*
X226488096Y-140706688D01*
X226528168Y-140648084D01*
X226593565Y-140620447D01*
X226663522Y-140632554D01*
X226697023Y-140656531D01*
X226932739Y-140892247D01*
X226940283Y-140900537D01*
X226944396Y-140907018D01*
X226950173Y-140912443D01*
X226994063Y-140953658D01*
X226996905Y-140956413D01*
X227016627Y-140976135D01*
X227019751Y-140978558D01*
X227019755Y-140978562D01*
X227019820Y-140978612D01*
X227028841Y-140986317D01*
X227061075Y-141016586D01*
X227068023Y-141020405D01*
X227068025Y-141020407D01*
X227078828Y-141026346D01*
X227095355Y-141037202D01*
X227105094Y-141044757D01*
X227105096Y-141044758D01*
X227111356Y-141049614D01*
X227151936Y-141067174D01*
X227162584Y-141072391D01*
X227186124Y-141085332D01*
X227201336Y-141093695D01*
X227209012Y-141095666D01*
X227209015Y-141095667D01*
X227220958Y-141098733D01*
X227239663Y-141105137D01*
X227258251Y-141113181D01*
X227266074Y-141114420D01*
X227266084Y-141114423D01*
X227301920Y-141120099D01*
X227313540Y-141122505D01*
X227347509Y-141131226D01*
X227356366Y-141133500D01*
X227376620Y-141133500D01*
X227396330Y-141135051D01*
X227416339Y-141138220D01*
X227424231Y-141137474D01*
X227460357Y-141134059D01*
X227472215Y-141133500D01*
X240291800Y-141133500D01*
X240359921Y-141153502D01*
X240379147Y-141169843D01*
X240379420Y-141169540D01*
X240384332Y-141173963D01*
X240388747Y-141178866D01*
X240396332Y-141184377D01*
X240531724Y-141282745D01*
X240543248Y-141291118D01*
X240549276Y-141293802D01*
X240549278Y-141293803D01*
X240567193Y-141301779D01*
X240717712Y-141368794D01*
X240782650Y-141382597D01*
X240898056Y-141407128D01*
X240898061Y-141407128D01*
X240904513Y-141408500D01*
X241095487Y-141408500D01*
X241101939Y-141407128D01*
X241101944Y-141407128D01*
X241217350Y-141382597D01*
X241282288Y-141368794D01*
X241432807Y-141301779D01*
X241450722Y-141293803D01*
X241450724Y-141293802D01*
X241456752Y-141291118D01*
X241511885Y-141251061D01*
X241578754Y-141227203D01*
X241647905Y-141243284D01*
X241679583Y-141268689D01*
X241684328Y-141273960D01*
X241684336Y-141273968D01*
X241688747Y-141278866D01*
X241700269Y-141287237D01*
X241836862Y-141386478D01*
X241843248Y-141391118D01*
X241849276Y-141393802D01*
X241849278Y-141393803D01*
X242007290Y-141464154D01*
X242017712Y-141468794D01*
X242111113Y-141488647D01*
X242198056Y-141507128D01*
X242198061Y-141507128D01*
X242204513Y-141508500D01*
X242395487Y-141508500D01*
X242401939Y-141507128D01*
X242401944Y-141507128D01*
X242488887Y-141488647D01*
X242582288Y-141468794D01*
X242592710Y-141464154D01*
X242750722Y-141393803D01*
X242750724Y-141393802D01*
X242756752Y-141391118D01*
X242763139Y-141386478D01*
X242890694Y-141293803D01*
X242911253Y-141278866D01*
X242919853Y-141269315D01*
X243034621Y-141141852D01*
X243034622Y-141141851D01*
X243039040Y-141136944D01*
X243113197Y-141008500D01*
X243131223Y-140977279D01*
X243131224Y-140977278D01*
X243134527Y-140971556D01*
X243193542Y-140789928D01*
X243194720Y-140778725D01*
X243212814Y-140606565D01*
X243213504Y-140600000D01*
X243193542Y-140410072D01*
X243134527Y-140228444D01*
X243039040Y-140063056D01*
X242925358Y-139936799D01*
X242897999Y-139887645D01*
X242888230Y-139854019D01*
X242888229Y-139854016D01*
X242886018Y-139846407D01*
X242875707Y-139828972D01*
X242867012Y-139811224D01*
X242859552Y-139792383D01*
X242833564Y-139756613D01*
X242827048Y-139746693D01*
X242808580Y-139715465D01*
X242808578Y-139715462D01*
X242804542Y-139708638D01*
X242790221Y-139694317D01*
X242777380Y-139679283D01*
X242770132Y-139669307D01*
X242765472Y-139662893D01*
X242731407Y-139634712D01*
X242722626Y-139626722D01*
X242203647Y-139107742D01*
X242196113Y-139099463D01*
X242192000Y-139092982D01*
X242142348Y-139046356D01*
X242139507Y-139043602D01*
X242119770Y-139023865D01*
X242116573Y-139021385D01*
X242107551Y-139013680D01*
X242094122Y-139001069D01*
X242075321Y-138983414D01*
X242068375Y-138979595D01*
X242068372Y-138979593D01*
X242057566Y-138973652D01*
X242041047Y-138962801D01*
X242040583Y-138962441D01*
X242025041Y-138950386D01*
X242017772Y-138947241D01*
X242017768Y-138947238D01*
X241984463Y-138932826D01*
X241973813Y-138927609D01*
X241935060Y-138906305D01*
X241915437Y-138901267D01*
X241896734Y-138894863D01*
X241885420Y-138889967D01*
X241885419Y-138889967D01*
X241878145Y-138886819D01*
X241870322Y-138885580D01*
X241870312Y-138885577D01*
X241834476Y-138879901D01*
X241822856Y-138877495D01*
X241787711Y-138868472D01*
X241787710Y-138868472D01*
X241780030Y-138866500D01*
X241759776Y-138866500D01*
X241740065Y-138864949D01*
X241727886Y-138863020D01*
X241720057Y-138861780D01*
X241690786Y-138864547D01*
X241676039Y-138865941D01*
X241664181Y-138866500D01*
X240578768Y-138866500D01*
X240567585Y-138865973D01*
X240560092Y-138864298D01*
X240552166Y-138864547D01*
X240552165Y-138864547D01*
X240492002Y-138866438D01*
X240488044Y-138866500D01*
X240460144Y-138866500D01*
X240456154Y-138867004D01*
X240444320Y-138867936D01*
X240400111Y-138869326D01*
X240392497Y-138871538D01*
X240392492Y-138871539D01*
X240380659Y-138874977D01*
X240361296Y-138878988D01*
X240341203Y-138881526D01*
X240333836Y-138884443D01*
X240333831Y-138884444D01*
X240300092Y-138897802D01*
X240288865Y-138901646D01*
X240246407Y-138913982D01*
X240239581Y-138918019D01*
X240228972Y-138924293D01*
X240211224Y-138932988D01*
X240192383Y-138940448D01*
X240185967Y-138945110D01*
X240185966Y-138945110D01*
X240156613Y-138966436D01*
X240146693Y-138972952D01*
X240115465Y-138991420D01*
X240115462Y-138991422D01*
X240108638Y-138995458D01*
X240094317Y-139009779D01*
X240079284Y-139022619D01*
X240062893Y-139034528D01*
X240036516Y-139066413D01*
X240034712Y-139068593D01*
X240026722Y-139077374D01*
X239760895Y-139343200D01*
X239698583Y-139377225D01*
X239671800Y-139380104D01*
X227900991Y-139380104D01*
X227832870Y-139360102D01*
X227811896Y-139343199D01*
X226470405Y-138001708D01*
X226436379Y-137939396D01*
X226433500Y-137912613D01*
X226433500Y-134300000D01*
X251086496Y-134300000D01*
X251106458Y-134489928D01*
X251165473Y-134671556D01*
X251260960Y-134836944D01*
X251388747Y-134978866D01*
X251543248Y-135091118D01*
X251549276Y-135093802D01*
X251549278Y-135093803D01*
X251711681Y-135166109D01*
X251717712Y-135168794D01*
X251811112Y-135188647D01*
X251898056Y-135207128D01*
X251898061Y-135207128D01*
X251904513Y-135208500D01*
X252095487Y-135208500D01*
X252101939Y-135207128D01*
X252101944Y-135207128D01*
X252188888Y-135188647D01*
X252282288Y-135168794D01*
X252288319Y-135166109D01*
X252450722Y-135093803D01*
X252450724Y-135093802D01*
X252456752Y-135091118D01*
X252611253Y-134978866D01*
X252739040Y-134836944D01*
X252834527Y-134671556D01*
X252893542Y-134489928D01*
X252913504Y-134300000D01*
X252893542Y-134110072D01*
X252834527Y-133928444D01*
X252739040Y-133763056D01*
X252623117Y-133634310D01*
X252592399Y-133570303D01*
X252601164Y-133499849D01*
X252623117Y-133465690D01*
X252734621Y-133341852D01*
X252734622Y-133341851D01*
X252739040Y-133336944D01*
X252834527Y-133171556D01*
X252893542Y-132989928D01*
X252913504Y-132800000D01*
X252893542Y-132610072D01*
X252834527Y-132428444D01*
X252739040Y-132263056D01*
X252611253Y-132121134D01*
X252584829Y-132101935D01*
X252541475Y-132045714D01*
X252535399Y-131974978D01*
X252568531Y-131912186D01*
X252584829Y-131898064D01*
X252605909Y-131882749D01*
X252605911Y-131882747D01*
X252611253Y-131878866D01*
X252739040Y-131736944D01*
X252834527Y-131571556D01*
X252893542Y-131389928D01*
X252913504Y-131200000D01*
X252893542Y-131010072D01*
X252834527Y-130828444D01*
X252739040Y-130663056D01*
X252611253Y-130521134D01*
X252456752Y-130408882D01*
X252450724Y-130406198D01*
X252450722Y-130406197D01*
X252288319Y-130333891D01*
X252288318Y-130333891D01*
X252282288Y-130331206D01*
X252188888Y-130311353D01*
X252101944Y-130292872D01*
X252101939Y-130292872D01*
X252095487Y-130291500D01*
X251904513Y-130291500D01*
X251898061Y-130292872D01*
X251898056Y-130292872D01*
X251811112Y-130311353D01*
X251717712Y-130331206D01*
X251711682Y-130333891D01*
X251711681Y-130333891D01*
X251549278Y-130406197D01*
X251549276Y-130406198D01*
X251543248Y-130408882D01*
X251388747Y-130521134D01*
X251260960Y-130663056D01*
X251165473Y-130828444D01*
X251106458Y-131010072D01*
X251086496Y-131200000D01*
X251106458Y-131389928D01*
X251165473Y-131571556D01*
X251260960Y-131736944D01*
X251388747Y-131878866D01*
X251394089Y-131882747D01*
X251394091Y-131882749D01*
X251415171Y-131898064D01*
X251458525Y-131954286D01*
X251464601Y-132025022D01*
X251431469Y-132087814D01*
X251415173Y-132101935D01*
X251388747Y-132121134D01*
X251260960Y-132263056D01*
X251165473Y-132428444D01*
X251106458Y-132610072D01*
X251086496Y-132800000D01*
X251106458Y-132989928D01*
X251165473Y-133171556D01*
X251260960Y-133336944D01*
X251265378Y-133341851D01*
X251265379Y-133341852D01*
X251376883Y-133465690D01*
X251407601Y-133529697D01*
X251398836Y-133600151D01*
X251376883Y-133634310D01*
X251260960Y-133763056D01*
X251165473Y-133928444D01*
X251106458Y-134110072D01*
X251086496Y-134300000D01*
X226433500Y-134300000D01*
X226433500Y-117869580D01*
X226434027Y-117858397D01*
X226435702Y-117850904D01*
X226434838Y-117823395D01*
X226433562Y-117782814D01*
X226433500Y-117778856D01*
X226433500Y-117750956D01*
X226432996Y-117746965D01*
X226432063Y-117735123D01*
X226431880Y-117729279D01*
X226430674Y-117690923D01*
X226425021Y-117671464D01*
X226421012Y-117652105D01*
X226420846Y-117650795D01*
X226418474Y-117632015D01*
X226415558Y-117624649D01*
X226415556Y-117624643D01*
X226402200Y-117590910D01*
X226398355Y-117579680D01*
X226388230Y-117544829D01*
X226388230Y-117544828D01*
X226386019Y-117537219D01*
X226375705Y-117519778D01*
X226367008Y-117502025D01*
X226362472Y-117490570D01*
X226359552Y-117483195D01*
X226333563Y-117447424D01*
X226327047Y-117437504D01*
X226308578Y-117406275D01*
X226304542Y-117399450D01*
X226290221Y-117385129D01*
X226277380Y-117370095D01*
X226265472Y-117353705D01*
X226231395Y-117325514D01*
X226222616Y-117317524D01*
X223262840Y-114357747D01*
X223255300Y-114349461D01*
X223251188Y-114342982D01*
X223201536Y-114296356D01*
X223198695Y-114293602D01*
X223178958Y-114273865D01*
X223175761Y-114271385D01*
X223166739Y-114263680D01*
X223140288Y-114238841D01*
X223134509Y-114233414D01*
X223127563Y-114229595D01*
X223127560Y-114229593D01*
X223116754Y-114223652D01*
X223100235Y-114212801D01*
X223099771Y-114212441D01*
X223084229Y-114200386D01*
X223076960Y-114197241D01*
X223076956Y-114197238D01*
X223043651Y-114182826D01*
X223033001Y-114177609D01*
X222994248Y-114156305D01*
X222974625Y-114151267D01*
X222955922Y-114144863D01*
X222944608Y-114139967D01*
X222944607Y-114139967D01*
X222937333Y-114136819D01*
X222929510Y-114135580D01*
X222929500Y-114135577D01*
X222893664Y-114129901D01*
X222882044Y-114127495D01*
X222846899Y-114118472D01*
X222846898Y-114118472D01*
X222839218Y-114116500D01*
X222818964Y-114116500D01*
X222799253Y-114114949D01*
X222787074Y-114113020D01*
X222779245Y-114111780D01*
X222771353Y-114112526D01*
X222735227Y-114115941D01*
X222723369Y-114116500D01*
X221435689Y-114116500D01*
X221367568Y-114096498D01*
X221346594Y-114079595D01*
X218666238Y-111399238D01*
X218632212Y-111336926D01*
X218637277Y-111266110D01*
X218646209Y-111247153D01*
X218696055Y-111160817D01*
X218755070Y-110979189D01*
X218762194Y-110911413D01*
X218774342Y-110795826D01*
X218775032Y-110789261D01*
X218766630Y-110709319D01*
X218755760Y-110605896D01*
X218755760Y-110605894D01*
X218755140Y-110600000D01*
X222786496Y-110600000D01*
X222787186Y-110606565D01*
X222803162Y-110758564D01*
X222806458Y-110789928D01*
X222865473Y-110971556D01*
X222868776Y-110977278D01*
X222868777Y-110977279D01*
X222880529Y-110997634D01*
X222960960Y-111136944D01*
X222965378Y-111141851D01*
X222965379Y-111141852D01*
X223077261Y-111266110D01*
X223088747Y-111278866D01*
X223243248Y-111391118D01*
X223249276Y-111393802D01*
X223249278Y-111393803D01*
X223347916Y-111437719D01*
X223417712Y-111468794D01*
X223506149Y-111487592D01*
X223598056Y-111507128D01*
X223598061Y-111507128D01*
X223604513Y-111508500D01*
X223795487Y-111508500D01*
X223801939Y-111507128D01*
X223801944Y-111507128D01*
X223893851Y-111487592D01*
X223982288Y-111468794D01*
X224052084Y-111437719D01*
X224150722Y-111393803D01*
X224150724Y-111393802D01*
X224156752Y-111391118D01*
X224311253Y-111278866D01*
X224322739Y-111266110D01*
X224434621Y-111141852D01*
X224434622Y-111141851D01*
X224439040Y-111136944D01*
X224519471Y-110997634D01*
X224531223Y-110977279D01*
X224531224Y-110977278D01*
X224534527Y-110971556D01*
X224593542Y-110789928D01*
X224596839Y-110758564D01*
X224612814Y-110606565D01*
X224613504Y-110600000D01*
X224607766Y-110545405D01*
X224594232Y-110416635D01*
X224594232Y-110416633D01*
X224593542Y-110410072D01*
X224534527Y-110228444D01*
X224439040Y-110063056D01*
X224311253Y-109921134D01*
X224212157Y-109849136D01*
X224162094Y-109812763D01*
X224162093Y-109812762D01*
X224156752Y-109808882D01*
X224150724Y-109806198D01*
X224150722Y-109806197D01*
X223988319Y-109733891D01*
X223988318Y-109733891D01*
X223982288Y-109731206D01*
X223888887Y-109711353D01*
X223801944Y-109692872D01*
X223801939Y-109692872D01*
X223795487Y-109691500D01*
X223604513Y-109691500D01*
X223598061Y-109692872D01*
X223598056Y-109692872D01*
X223511113Y-109711353D01*
X223417712Y-109731206D01*
X223411682Y-109733891D01*
X223411681Y-109733891D01*
X223249278Y-109806197D01*
X223249276Y-109806198D01*
X223243248Y-109808882D01*
X223237907Y-109812762D01*
X223237906Y-109812763D01*
X223187843Y-109849136D01*
X223088747Y-109921134D01*
X222960960Y-110063056D01*
X222865473Y-110228444D01*
X222806458Y-110410072D01*
X222805768Y-110416633D01*
X222805768Y-110416635D01*
X222792234Y-110545405D01*
X222786496Y-110600000D01*
X218755140Y-110600000D01*
X218755070Y-110599333D01*
X218696055Y-110417705D01*
X218688024Y-110403794D01*
X218614212Y-110275949D01*
X218600568Y-110252317D01*
X218579184Y-110228567D01*
X218477203Y-110115306D01*
X218477202Y-110115305D01*
X218472781Y-110110395D01*
X218332645Y-110008580D01*
X218323622Y-110002024D01*
X218323621Y-110002023D01*
X218318280Y-109998143D01*
X218312252Y-109995459D01*
X218312250Y-109995458D01*
X218149847Y-109923152D01*
X218149846Y-109923152D01*
X218143816Y-109920467D01*
X218002422Y-109890413D01*
X217939950Y-109856685D01*
X217914115Y-109814751D01*
X217912549Y-109815448D01*
X217909865Y-109809419D01*
X217907823Y-109803135D01*
X217812336Y-109637747D01*
X217806711Y-109631500D01*
X217806258Y-109630556D01*
X217804037Y-109627499D01*
X217804596Y-109627093D01*
X217775995Y-109567495D01*
X217784758Y-109497041D01*
X217791224Y-109484199D01*
X217798524Y-109471556D01*
X217857539Y-109289928D01*
X217874904Y-109124706D01*
X217901917Y-109059050D01*
X217911119Y-109048782D01*
X218742038Y-108217864D01*
X219592253Y-107367649D01*
X219600539Y-107360109D01*
X219607018Y-107355997D01*
X219653644Y-107306345D01*
X219656398Y-107303504D01*
X219676135Y-107283767D01*
X219678615Y-107280570D01*
X219686320Y-107271548D01*
X219711159Y-107245097D01*
X219716586Y-107239318D01*
X219720405Y-107232372D01*
X219720407Y-107232369D01*
X219726348Y-107221563D01*
X219737199Y-107205044D01*
X219744758Y-107195298D01*
X219749614Y-107189038D01*
X219752759Y-107181769D01*
X219752762Y-107181765D01*
X219767174Y-107148460D01*
X219772391Y-107137810D01*
X219793695Y-107099057D01*
X219798733Y-107079434D01*
X219805137Y-107060731D01*
X219810033Y-107049417D01*
X219810033Y-107049416D01*
X219813181Y-107042142D01*
X219814420Y-107034319D01*
X219814423Y-107034309D01*
X219820099Y-106998473D01*
X219822505Y-106986853D01*
X219831528Y-106951708D01*
X219831528Y-106951707D01*
X219833500Y-106944027D01*
X219833500Y-106923773D01*
X219835051Y-106904062D01*
X219836980Y-106891883D01*
X219838220Y-106884054D01*
X219834059Y-106840035D01*
X219833500Y-106828178D01*
X219833500Y-105942371D01*
X219834027Y-105931188D01*
X219835702Y-105923695D01*
X219835402Y-105914130D01*
X219833562Y-105855605D01*
X219833500Y-105851647D01*
X219833500Y-105823748D01*
X219832996Y-105819757D01*
X219832063Y-105807915D01*
X219832052Y-105807547D01*
X219830674Y-105763715D01*
X219828462Y-105756101D01*
X219828461Y-105756096D01*
X219825023Y-105744263D01*
X219821012Y-105724899D01*
X219819467Y-105712668D01*
X219818474Y-105704807D01*
X219815557Y-105697440D01*
X219815556Y-105697435D01*
X219802198Y-105663696D01*
X219798354Y-105652469D01*
X219788230Y-105617626D01*
X219786018Y-105610011D01*
X219775707Y-105592576D01*
X219767012Y-105574828D01*
X219759552Y-105555987D01*
X219733564Y-105520217D01*
X219727048Y-105510297D01*
X219708580Y-105479069D01*
X219708578Y-105479066D01*
X219704542Y-105472242D01*
X219690221Y-105457921D01*
X219677380Y-105442887D01*
X219670131Y-105432910D01*
X219665472Y-105426497D01*
X219631395Y-105398306D01*
X219622616Y-105390316D01*
X217053652Y-102821351D01*
X217046112Y-102813065D01*
X217042000Y-102806586D01*
X217027996Y-102793435D01*
X216992349Y-102759961D01*
X216989507Y-102757206D01*
X216969770Y-102737469D01*
X216966573Y-102734989D01*
X216957551Y-102727284D01*
X216931100Y-102702445D01*
X216925321Y-102697018D01*
X216918375Y-102693199D01*
X216918372Y-102693197D01*
X216907566Y-102687256D01*
X216891047Y-102676405D01*
X216890583Y-102676045D01*
X216875041Y-102663990D01*
X216867772Y-102660845D01*
X216867768Y-102660842D01*
X216834463Y-102646430D01*
X216823813Y-102641213D01*
X216785060Y-102619909D01*
X216771207Y-102616352D01*
X216765438Y-102614871D01*
X216746734Y-102608467D01*
X216735420Y-102603571D01*
X216735419Y-102603571D01*
X216728145Y-102600423D01*
X216720322Y-102599184D01*
X216720312Y-102599181D01*
X216684476Y-102593505D01*
X216672856Y-102591099D01*
X216637711Y-102582076D01*
X216637710Y-102582076D01*
X216630030Y-102580104D01*
X216609776Y-102580104D01*
X216590065Y-102578553D01*
X216577886Y-102576624D01*
X216570057Y-102575384D01*
X216562165Y-102576130D01*
X216526039Y-102579545D01*
X216514181Y-102580104D01*
X213709500Y-102580104D01*
X213641379Y-102560102D01*
X213594886Y-102506446D01*
X213583500Y-102454104D01*
X213583500Y-99814594D01*
X213603502Y-99746473D01*
X213620405Y-99725499D01*
X213875499Y-99470405D01*
X213937811Y-99436379D01*
X213964594Y-99433500D01*
X235274618Y-99433500D01*
X235342739Y-99453502D01*
X235389232Y-99507158D01*
X235399928Y-99572670D01*
X235386545Y-99700000D01*
X235387235Y-99706565D01*
X235387235Y-99713170D01*
X235384806Y-99713170D01*
X235374020Y-99772163D01*
X235325521Y-99824012D01*
X235261480Y-99841500D01*
X231278268Y-99841500D01*
X231267085Y-99840973D01*
X231259592Y-99839298D01*
X231251666Y-99839547D01*
X231251665Y-99839547D01*
X231191502Y-99841438D01*
X231187544Y-99841500D01*
X231159644Y-99841500D01*
X231155654Y-99842004D01*
X231143820Y-99842936D01*
X231099611Y-99844326D01*
X231091995Y-99846539D01*
X231091993Y-99846539D01*
X231080152Y-99849979D01*
X231060793Y-99853988D01*
X231059483Y-99854154D01*
X231040703Y-99856526D01*
X231033337Y-99859442D01*
X231033331Y-99859444D01*
X230999598Y-99872800D01*
X230988368Y-99876645D01*
X230953517Y-99886770D01*
X230945907Y-99888981D01*
X230939084Y-99893016D01*
X230928466Y-99899295D01*
X230910713Y-99907992D01*
X230903068Y-99911019D01*
X230891883Y-99915448D01*
X230885468Y-99920109D01*
X230856112Y-99941437D01*
X230846195Y-99947951D01*
X230808138Y-99970458D01*
X230793817Y-99984779D01*
X230778784Y-99997619D01*
X230762393Y-100009528D01*
X230757342Y-100015634D01*
X230734202Y-100043605D01*
X230726212Y-100052384D01*
X229649500Y-101129095D01*
X229587188Y-101163121D01*
X229560405Y-101166000D01*
X229504513Y-101166000D01*
X229498061Y-101167372D01*
X229498056Y-101167372D01*
X229428496Y-101182158D01*
X229317712Y-101205706D01*
X229311682Y-101208391D01*
X229311681Y-101208391D01*
X229149278Y-101280697D01*
X229149276Y-101280698D01*
X229143248Y-101283382D01*
X228988747Y-101395634D01*
X228984326Y-101400544D01*
X228984325Y-101400545D01*
X228866741Y-101531136D01*
X228860960Y-101537556D01*
X228765473Y-101702944D01*
X228706458Y-101884572D01*
X228705768Y-101891133D01*
X228705768Y-101891135D01*
X228697858Y-101966393D01*
X228686496Y-102074500D01*
X228706458Y-102264428D01*
X228765473Y-102446056D01*
X228768776Y-102451778D01*
X228768777Y-102451779D01*
X228800339Y-102506446D01*
X228860960Y-102611444D01*
X228865378Y-102616351D01*
X228865379Y-102616352D01*
X228972251Y-102735045D01*
X228988747Y-102753366D01*
X229082320Y-102821351D01*
X229135286Y-102859833D01*
X229143248Y-102865618D01*
X229149276Y-102868302D01*
X229149278Y-102868303D01*
X229307800Y-102938881D01*
X229317712Y-102943294D01*
X229411113Y-102963147D01*
X229498056Y-102981628D01*
X229498061Y-102981628D01*
X229504513Y-102983000D01*
X229695487Y-102983000D01*
X229701939Y-102981628D01*
X229701944Y-102981628D01*
X229788887Y-102963147D01*
X229882288Y-102943294D01*
X229892200Y-102938881D01*
X230050722Y-102868303D01*
X230050724Y-102868302D01*
X230056752Y-102865618D01*
X230064715Y-102859833D01*
X230117680Y-102821351D01*
X230211253Y-102753366D01*
X230227749Y-102735045D01*
X230334621Y-102616352D01*
X230334622Y-102616351D01*
X230339040Y-102611444D01*
X230399661Y-102506446D01*
X230431223Y-102451779D01*
X230431224Y-102451778D01*
X230434527Y-102446056D01*
X230493542Y-102264428D01*
X230510907Y-102099206D01*
X230537920Y-102033550D01*
X230547122Y-102023282D01*
X231424999Y-101145405D01*
X231487311Y-101111379D01*
X231514094Y-101108500D01*
X235273078Y-101108500D01*
X235341199Y-101128502D01*
X235387692Y-101182158D01*
X235397796Y-101252432D01*
X235392912Y-101273431D01*
X235368757Y-101347773D01*
X235368067Y-101354334D01*
X235368067Y-101354336D01*
X235360094Y-101430198D01*
X235348795Y-101537701D01*
X235349485Y-101544266D01*
X235366163Y-101702944D01*
X235368757Y-101727629D01*
X235427772Y-101909257D01*
X235523259Y-102074645D01*
X235527677Y-102079552D01*
X235527678Y-102079553D01*
X235536438Y-102089282D01*
X235567155Y-102153290D01*
X235558390Y-102223743D01*
X235539836Y-102252615D01*
X235540098Y-102252805D01*
X235536773Y-102257382D01*
X235536443Y-102257895D01*
X235536220Y-102258143D01*
X235536217Y-102258147D01*
X235531797Y-102263056D01*
X235436310Y-102428444D01*
X235377295Y-102610072D01*
X235376605Y-102616633D01*
X235376605Y-102616635D01*
X235362234Y-102753366D01*
X235357333Y-102800000D01*
X235358023Y-102806565D01*
X235376423Y-102981628D01*
X235377295Y-102989928D01*
X235436310Y-103171556D01*
X235531797Y-103336944D01*
X235536217Y-103341852D01*
X235540096Y-103347192D01*
X235537944Y-103348755D01*
X235563536Y-103402094D01*
X235554767Y-103472547D01*
X235532817Y-103506697D01*
X235512861Y-103528861D01*
X235496186Y-103547380D01*
X235485338Y-103566170D01*
X235407929Y-103700246D01*
X235400699Y-103712768D01*
X235341684Y-103894396D01*
X235340994Y-103900957D01*
X235340994Y-103900959D01*
X235338341Y-103926205D01*
X235321722Y-104084324D01*
X235322412Y-104090889D01*
X235340432Y-104262336D01*
X235341684Y-104274252D01*
X235400699Y-104455880D01*
X235496186Y-104621268D01*
X235584622Y-104719486D01*
X235611862Y-104778978D01*
X235613788Y-104778483D01*
X235615758Y-104786156D01*
X235616752Y-104794023D01*
X235619671Y-104801394D01*
X235619671Y-104801396D01*
X235633030Y-104835138D01*
X235636875Y-104846368D01*
X235649208Y-104888819D01*
X235653241Y-104895638D01*
X235653243Y-104895643D01*
X235659519Y-104906254D01*
X235668214Y-104924002D01*
X235675674Y-104942843D01*
X235680336Y-104949259D01*
X235680336Y-104949260D01*
X235701662Y-104978613D01*
X235708178Y-104988533D01*
X235730684Y-105026588D01*
X235745005Y-105040909D01*
X235757845Y-105055942D01*
X235769754Y-105072333D01*
X235775858Y-105077383D01*
X235775863Y-105077388D01*
X235789790Y-105088909D01*
X235829529Y-105147743D01*
X235831151Y-105218721D01*
X235794142Y-105279308D01*
X235760725Y-105301100D01*
X235749283Y-105306194D01*
X235749275Y-105306199D01*
X235743248Y-105308882D01*
X235737907Y-105312762D01*
X235737906Y-105312763D01*
X235687843Y-105349136D01*
X235588747Y-105421134D01*
X235584326Y-105426044D01*
X235584325Y-105426045D01*
X235569161Y-105442887D01*
X235460960Y-105563056D01*
X235365473Y-105728444D01*
X235306458Y-105910072D01*
X235305768Y-105916633D01*
X235305768Y-105916635D01*
X235298050Y-105990072D01*
X235286496Y-106100000D01*
X235287186Y-106106565D01*
X235305489Y-106280705D01*
X235306458Y-106289928D01*
X235365473Y-106471556D01*
X235368776Y-106477278D01*
X235368777Y-106477279D01*
X235387030Y-106508894D01*
X235460960Y-106636944D01*
X235465378Y-106641851D01*
X235465379Y-106641852D01*
X235486843Y-106665690D01*
X235517561Y-106729697D01*
X235508796Y-106800151D01*
X235486843Y-106834310D01*
X235460960Y-106863056D01*
X235434502Y-106908882D01*
X235376502Y-107009342D01*
X235365473Y-107028444D01*
X235306458Y-107210072D01*
X235305768Y-107216633D01*
X235305768Y-107216635D01*
X235299041Y-107280641D01*
X235286496Y-107400000D01*
X235306458Y-107589928D01*
X235365473Y-107771556D01*
X235368776Y-107777278D01*
X235368777Y-107777279D01*
X235382008Y-107800196D01*
X235460960Y-107936944D01*
X235465378Y-107941851D01*
X235465379Y-107941852D01*
X235502538Y-107983121D01*
X235588747Y-108078866D01*
X235628965Y-108108086D01*
X235711267Y-108167882D01*
X235743248Y-108191118D01*
X235749276Y-108193802D01*
X235749278Y-108193803D01*
X235832162Y-108230705D01*
X235917712Y-108268794D01*
X236011112Y-108288647D01*
X236098056Y-108307128D01*
X236098061Y-108307128D01*
X236104513Y-108308500D01*
X236160406Y-108308500D01*
X236228527Y-108328502D01*
X236249501Y-108345405D01*
X238461139Y-110557044D01*
X240654107Y-112750012D01*
X240661647Y-112758298D01*
X240665759Y-112764777D01*
X240671536Y-112770202D01*
X240715410Y-112811402D01*
X240718252Y-112814157D01*
X240737989Y-112833894D01*
X240741186Y-112836374D01*
X240750206Y-112844077D01*
X240782438Y-112874345D01*
X240789384Y-112878164D01*
X240789387Y-112878166D01*
X240800193Y-112884107D01*
X240816712Y-112894958D01*
X240832718Y-112907373D01*
X240839987Y-112910518D01*
X240839991Y-112910521D01*
X240873296Y-112924933D01*
X240883957Y-112930156D01*
X240909208Y-112944038D01*
X240942143Y-112970141D01*
X241002006Y-113036625D01*
X241156507Y-113148877D01*
X241162535Y-113151561D01*
X241162537Y-113151562D01*
X241319022Y-113221233D01*
X241330971Y-113226553D01*
X241393806Y-113239909D01*
X241511315Y-113264887D01*
X241511320Y-113264887D01*
X241517772Y-113266259D01*
X241708746Y-113266259D01*
X241715198Y-113264887D01*
X241715203Y-113264887D01*
X241832712Y-113239909D01*
X241895547Y-113226553D01*
X241907496Y-113221233D01*
X242063981Y-113151562D01*
X242063983Y-113151561D01*
X242070011Y-113148877D01*
X242224512Y-113036625D01*
X242228934Y-113031714D01*
X242347880Y-112899611D01*
X242347881Y-112899610D01*
X242352299Y-112894703D01*
X242447786Y-112729315D01*
X242506801Y-112547687D01*
X242513316Y-112485696D01*
X242540329Y-112420040D01*
X242598550Y-112379410D01*
X242664823Y-112375620D01*
X242813054Y-112407128D01*
X242813059Y-112407128D01*
X242819511Y-112408500D01*
X243010485Y-112408500D01*
X243016937Y-112407128D01*
X243016942Y-112407128D01*
X243103886Y-112388647D01*
X243197286Y-112368794D01*
X243203317Y-112366109D01*
X243365720Y-112293803D01*
X243365722Y-112293802D01*
X243371750Y-112291118D01*
X243404573Y-112267271D01*
X243459289Y-112227517D01*
X243526251Y-112178866D01*
X243602408Y-112094285D01*
X243649619Y-112041852D01*
X243649620Y-112041851D01*
X243654038Y-112036944D01*
X243712312Y-111936010D01*
X243746221Y-111877279D01*
X243746222Y-111877278D01*
X243749525Y-111871556D01*
X243808540Y-111689928D01*
X243828502Y-111500000D01*
X243814936Y-111370928D01*
X243809230Y-111316635D01*
X243809230Y-111316633D01*
X243808540Y-111310072D01*
X243749525Y-111128444D01*
X243718124Y-111074055D01*
X243702792Y-111047500D01*
X243686054Y-110978505D01*
X243709274Y-110911413D01*
X243765082Y-110867526D01*
X243811911Y-110858500D01*
X251196233Y-110858500D01*
X251207416Y-110859027D01*
X251214909Y-110860702D01*
X251222835Y-110860453D01*
X251222836Y-110860453D01*
X251282986Y-110858562D01*
X251286945Y-110858500D01*
X251314856Y-110858500D01*
X251318791Y-110858003D01*
X251318856Y-110857995D01*
X251330693Y-110857062D01*
X251362951Y-110856048D01*
X251366970Y-110855922D01*
X251374889Y-110855673D01*
X251394343Y-110850021D01*
X251413700Y-110846013D01*
X251425930Y-110844468D01*
X251425931Y-110844468D01*
X251433797Y-110843474D01*
X251441168Y-110840555D01*
X251441170Y-110840555D01*
X251474912Y-110827196D01*
X251486142Y-110823351D01*
X251520983Y-110813229D01*
X251520984Y-110813229D01*
X251528593Y-110811018D01*
X251535412Y-110806985D01*
X251535417Y-110806983D01*
X251546028Y-110800707D01*
X251563776Y-110792012D01*
X251582617Y-110784552D01*
X251618387Y-110758564D01*
X251628307Y-110752048D01*
X251659535Y-110733580D01*
X251659538Y-110733578D01*
X251666362Y-110729542D01*
X251680683Y-110715221D01*
X251695717Y-110702380D01*
X251705694Y-110695131D01*
X251712107Y-110690472D01*
X251740298Y-110656395D01*
X251748288Y-110647616D01*
X251850499Y-110545405D01*
X251912811Y-110511379D01*
X251939594Y-110508500D01*
X251995487Y-110508500D01*
X252001939Y-110507128D01*
X252001944Y-110507128D01*
X252088888Y-110488647D01*
X252182288Y-110468794D01*
X252282920Y-110423990D01*
X252350722Y-110393803D01*
X252350724Y-110393802D01*
X252356752Y-110391118D01*
X252511253Y-110278866D01*
X252550994Y-110234729D01*
X252634621Y-110141852D01*
X252634622Y-110141851D01*
X252639040Y-110136944D01*
X252713151Y-110008580D01*
X252731223Y-109977279D01*
X252731224Y-109977278D01*
X252734527Y-109971556D01*
X252793542Y-109789928D01*
X252810293Y-109630556D01*
X252812814Y-109606565D01*
X252813504Y-109600000D01*
X252793542Y-109410072D01*
X252734527Y-109228444D01*
X252639040Y-109063056D01*
X252603110Y-109023151D01*
X252515675Y-108926045D01*
X252515674Y-108926044D01*
X252511253Y-108921134D01*
X252374444Y-108821736D01*
X252362094Y-108812763D01*
X252362093Y-108812762D01*
X252356752Y-108808882D01*
X252350724Y-108806198D01*
X252350722Y-108806197D01*
X252188319Y-108733891D01*
X252188318Y-108733891D01*
X252182288Y-108731206D01*
X252075249Y-108708454D01*
X252001944Y-108692872D01*
X252001939Y-108692872D01*
X251995487Y-108691500D01*
X251804513Y-108691500D01*
X251798061Y-108692872D01*
X251798056Y-108692872D01*
X251724751Y-108708454D01*
X251617712Y-108731206D01*
X251611682Y-108733891D01*
X251611681Y-108733891D01*
X251449278Y-108806197D01*
X251449276Y-108806198D01*
X251443248Y-108808882D01*
X251437907Y-108812762D01*
X251437906Y-108812763D01*
X251425556Y-108821736D01*
X251288747Y-108921134D01*
X251284326Y-108926044D01*
X251284325Y-108926045D01*
X251196891Y-109023151D01*
X251160960Y-109063056D01*
X251065473Y-109228444D01*
X251006458Y-109410072D01*
X251005768Y-109416635D01*
X251005768Y-109416636D01*
X250999248Y-109478671D01*
X250972235Y-109544327D01*
X250914013Y-109584957D01*
X250873938Y-109591500D01*
X240639594Y-109591500D01*
X240571473Y-109571498D01*
X240550499Y-109554595D01*
X240186527Y-109190623D01*
X240152501Y-109128311D01*
X240157566Y-109057496D01*
X240200113Y-109000660D01*
X240266633Y-108975849D01*
X240313488Y-108981565D01*
X240317712Y-108983445D01*
X240324165Y-108984817D01*
X240324166Y-108984817D01*
X240498056Y-109021779D01*
X240498061Y-109021779D01*
X240504513Y-109023151D01*
X240695487Y-109023151D01*
X240701939Y-109021779D01*
X240701944Y-109021779D01*
X240801298Y-109000660D01*
X240882288Y-108983445D01*
X240973132Y-108942999D01*
X241050722Y-108908454D01*
X241050724Y-108908453D01*
X241056752Y-108905769D01*
X241063856Y-108900608D01*
X241138339Y-108846492D01*
X241211253Y-108793517D01*
X241252101Y-108748151D01*
X241334621Y-108656503D01*
X241334622Y-108656502D01*
X241339040Y-108651595D01*
X241408978Y-108530459D01*
X241431223Y-108491930D01*
X241431224Y-108491929D01*
X241434527Y-108486207D01*
X241493542Y-108304579D01*
X241501307Y-108230705D01*
X241512814Y-108121216D01*
X241513504Y-108114651D01*
X241498006Y-107967191D01*
X241494232Y-107931286D01*
X241494232Y-107931284D01*
X241493542Y-107924723D01*
X241476139Y-107871162D01*
X241474111Y-107800196D01*
X241510773Y-107739398D01*
X241574486Y-107708073D01*
X241595972Y-107706227D01*
X241730602Y-107706227D01*
X241737054Y-107704855D01*
X241737059Y-107704855D01*
X241824003Y-107686374D01*
X241917403Y-107666521D01*
X241923434Y-107663836D01*
X242085837Y-107591530D01*
X242085839Y-107591529D01*
X242091867Y-107588845D01*
X242246368Y-107476593D01*
X242250790Y-107471682D01*
X242369736Y-107339579D01*
X242369737Y-107339578D01*
X242374155Y-107334671D01*
X242454622Y-107195298D01*
X242466338Y-107175006D01*
X242466339Y-107175005D01*
X242469642Y-107169283D01*
X242528657Y-106987655D01*
X242533243Y-106944027D01*
X242547929Y-106804292D01*
X242548619Y-106797727D01*
X242532236Y-106641852D01*
X242529347Y-106614362D01*
X242529347Y-106614360D01*
X242528657Y-106607799D01*
X242469642Y-106426171D01*
X242451072Y-106394006D01*
X242395627Y-106297974D01*
X242374155Y-106260783D01*
X242246368Y-106118861D01*
X242091867Y-106006609D01*
X242085839Y-106003925D01*
X242085837Y-106003924D01*
X241923434Y-105931618D01*
X241923433Y-105931618D01*
X241917403Y-105928933D01*
X241824002Y-105909080D01*
X241737059Y-105890599D01*
X241737054Y-105890599D01*
X241730602Y-105889227D01*
X241637321Y-105889227D01*
X241569200Y-105869225D01*
X241548226Y-105852322D01*
X237330305Y-101634400D01*
X237296279Y-101572088D01*
X237301344Y-101501272D01*
X237343891Y-101444437D01*
X237368152Y-101430198D01*
X237446056Y-101395514D01*
X237446063Y-101395510D01*
X237452089Y-101392827D01*
X237606590Y-101280575D01*
X237712346Y-101163121D01*
X237729958Y-101143561D01*
X237729959Y-101143560D01*
X237734377Y-101138653D01*
X237829864Y-100973265D01*
X237888879Y-100791637D01*
X237908841Y-100601709D01*
X237888879Y-100411781D01*
X237829864Y-100230153D01*
X237734377Y-100064765D01*
X237715325Y-100043605D01*
X237611012Y-99927754D01*
X237611011Y-99927753D01*
X237606590Y-99922843D01*
X237495325Y-99842004D01*
X237457431Y-99814472D01*
X237457430Y-99814471D01*
X237452089Y-99810591D01*
X237446061Y-99807907D01*
X237446059Y-99807906D01*
X237280494Y-99734192D01*
X237226398Y-99688212D01*
X237206433Y-99632256D01*
X237200170Y-99572671D01*
X237212942Y-99502833D01*
X237261443Y-99450986D01*
X237325480Y-99433500D01*
X252539154Y-99433500D01*
X252607275Y-99453502D01*
X252628249Y-99470405D01*
X254204225Y-101046381D01*
X254238251Y-101108693D01*
X254240439Y-101122302D01*
X254257805Y-101287527D01*
X254316820Y-101469155D01*
X254412307Y-101634543D01*
X254416725Y-101639450D01*
X254416726Y-101639451D01*
X254496122Y-101727629D01*
X254540094Y-101776465D01*
X254694595Y-101888717D01*
X254700623Y-101891401D01*
X254700625Y-101891402D01*
X254863028Y-101963708D01*
X254869059Y-101966393D01*
X254962459Y-101986246D01*
X255049403Y-102004727D01*
X255049408Y-102004727D01*
X255055860Y-102006099D01*
X255246834Y-102006099D01*
X255253286Y-102004727D01*
X255253291Y-102004727D01*
X255340235Y-101986246D01*
X255433635Y-101966393D01*
X255439666Y-101963708D01*
X255602069Y-101891402D01*
X255602071Y-101891401D01*
X255608099Y-101888717D01*
X255762600Y-101776465D01*
X255806572Y-101727629D01*
X255885968Y-101639451D01*
X255885969Y-101639450D01*
X255890387Y-101634543D01*
X255985874Y-101469155D01*
X256044889Y-101287527D01*
X256053207Y-101208391D01*
X256064161Y-101104164D01*
X256064851Y-101097599D01*
X256044889Y-100907671D01*
X255985874Y-100726043D01*
X255890387Y-100560655D01*
X255762600Y-100418733D01*
X255608099Y-100306481D01*
X255602071Y-100303797D01*
X255602069Y-100303796D01*
X255439666Y-100231490D01*
X255439665Y-100231490D01*
X255433635Y-100228805D01*
X255340234Y-100208952D01*
X255253291Y-100190471D01*
X255253286Y-100190471D01*
X255246834Y-100189099D01*
X255190941Y-100189099D01*
X255122820Y-100169097D01*
X255101850Y-100152198D01*
X254678733Y-99729080D01*
X254644708Y-99666769D01*
X254649773Y-99595953D01*
X254692320Y-99539118D01*
X254758840Y-99514307D01*
X254819076Y-99524879D01*
X254917712Y-99568794D01*
X255011112Y-99588647D01*
X255098056Y-99607128D01*
X255098061Y-99607128D01*
X255104513Y-99608500D01*
X255295487Y-99608500D01*
X255301939Y-99607128D01*
X255301944Y-99607128D01*
X255388887Y-99588647D01*
X255482288Y-99568794D01*
X255548942Y-99539118D01*
X255650722Y-99493803D01*
X255650724Y-99493802D01*
X255656752Y-99491118D01*
X255811253Y-99378866D01*
X255939040Y-99236944D01*
X256034527Y-99071556D01*
X256093542Y-98889928D01*
X256104737Y-98783419D01*
X256112814Y-98706565D01*
X256113504Y-98700000D01*
X256093542Y-98510072D01*
X256034527Y-98328444D01*
X255939040Y-98163056D01*
X255891546Y-98110308D01*
X255860830Y-98046303D01*
X255869593Y-97975850D01*
X255915056Y-97921318D01*
X255985183Y-97900000D01*
X266385500Y-97900000D01*
X266453621Y-97920002D01*
X266500114Y-97973658D01*
X266511500Y-98026000D01*
X266511500Y-160165500D01*
X266491498Y-160233621D01*
X266437842Y-160280114D01*
X266385500Y-160291500D01*
X201614500Y-160291500D01*
X201546379Y-160271498D01*
X201499886Y-160217842D01*
X201488500Y-160165500D01*
X201488500Y-158861744D01*
X258185556Y-158861744D01*
X258203481Y-159058707D01*
X258259321Y-159248438D01*
X258262174Y-159253896D01*
X258262176Y-159253900D01*
X258309631Y-159344672D01*
X258350951Y-159423709D01*
X258474879Y-159577844D01*
X258479603Y-159581808D01*
X258486844Y-159587884D01*
X258626385Y-159704973D01*
X258631783Y-159707940D01*
X258631788Y-159707944D01*
X258775091Y-159786724D01*
X258799698Y-159800252D01*
X258805565Y-159802113D01*
X258805567Y-159802114D01*
X258982347Y-159858192D01*
X258988217Y-159860054D01*
X259142138Y-159877319D01*
X259248680Y-159877319D01*
X259251736Y-159877019D01*
X259251743Y-159877019D01*
X259310251Y-159871282D01*
X259395744Y-159862899D01*
X259401645Y-159861117D01*
X259401647Y-159861117D01*
X259474964Y-159838981D01*
X259585080Y-159805735D01*
X259759707Y-159712885D01*
X259845973Y-159642528D01*
X259908198Y-159591779D01*
X259908201Y-159591776D01*
X259912973Y-159587884D01*
X259925255Y-159573038D01*
X260035112Y-159440244D01*
X260035114Y-159440240D01*
X260039041Y-159435494D01*
X260133109Y-159261520D01*
X260191593Y-159072587D01*
X260212266Y-158875894D01*
X260194341Y-158678931D01*
X260138501Y-158489200D01*
X260128830Y-158470700D01*
X260049724Y-158319387D01*
X260046871Y-158313929D01*
X259922943Y-158159794D01*
X259916638Y-158154503D01*
X259900245Y-158140748D01*
X259771437Y-158032665D01*
X259766039Y-158029698D01*
X259766034Y-158029694D01*
X259603519Y-157940352D01*
X259603520Y-157940352D01*
X259598124Y-157937386D01*
X259592257Y-157935525D01*
X259592255Y-157935524D01*
X259415475Y-157879446D01*
X259415474Y-157879446D01*
X259409605Y-157877584D01*
X259255684Y-157860319D01*
X259149142Y-157860319D01*
X259146086Y-157860619D01*
X259146079Y-157860619D01*
X259087571Y-157866356D01*
X259002078Y-157874739D01*
X258996177Y-157876521D01*
X258996175Y-157876521D01*
X258922858Y-157898657D01*
X258812742Y-157931903D01*
X258638115Y-158024753D01*
X258551849Y-158095110D01*
X258489624Y-158145859D01*
X258489621Y-158145862D01*
X258484849Y-158149754D01*
X258480922Y-158154501D01*
X258480920Y-158154503D01*
X258362710Y-158297394D01*
X258362708Y-158297398D01*
X258358781Y-158302144D01*
X258264713Y-158476118D01*
X258206229Y-158665051D01*
X258185556Y-158861744D01*
X201488500Y-158861744D01*
X201488500Y-153861744D01*
X258185556Y-153861744D01*
X258203481Y-154058707D01*
X258259321Y-154248438D01*
X258262174Y-154253896D01*
X258262176Y-154253900D01*
X258309631Y-154344672D01*
X258350951Y-154423709D01*
X258474879Y-154577844D01*
X258479603Y-154581808D01*
X258486844Y-154587884D01*
X258626385Y-154704973D01*
X258631783Y-154707940D01*
X258631788Y-154707944D01*
X258775091Y-154786724D01*
X258799698Y-154800252D01*
X258805565Y-154802113D01*
X258805567Y-154802114D01*
X258982347Y-154858192D01*
X258988217Y-154860054D01*
X259142138Y-154877319D01*
X259248680Y-154877319D01*
X259251736Y-154877019D01*
X259251743Y-154877019D01*
X259310251Y-154871282D01*
X259395744Y-154862899D01*
X259401645Y-154861117D01*
X259401647Y-154861117D01*
X259474964Y-154838981D01*
X259585080Y-154805735D01*
X259759707Y-154712885D01*
X259845973Y-154642528D01*
X259908198Y-154591779D01*
X259908201Y-154591776D01*
X259912973Y-154587884D01*
X259925255Y-154573038D01*
X260035112Y-154440244D01*
X260035114Y-154440240D01*
X260039041Y-154435494D01*
X260133109Y-154261520D01*
X260191593Y-154072587D01*
X260212266Y-153875894D01*
X260194341Y-153678931D01*
X260138501Y-153489200D01*
X260128830Y-153470700D01*
X260049724Y-153319387D01*
X260046871Y-153313929D01*
X259922943Y-153159794D01*
X259916638Y-153154503D01*
X259900245Y-153140748D01*
X259771437Y-153032665D01*
X259766039Y-153029698D01*
X259766034Y-153029694D01*
X259603519Y-152940352D01*
X259603520Y-152940352D01*
X259598124Y-152937386D01*
X259592257Y-152935525D01*
X259592255Y-152935524D01*
X259415475Y-152879446D01*
X259415474Y-152879446D01*
X259409605Y-152877584D01*
X259255684Y-152860319D01*
X259149142Y-152860319D01*
X259146086Y-152860619D01*
X259146079Y-152860619D01*
X259087571Y-152866356D01*
X259002078Y-152874739D01*
X258996177Y-152876521D01*
X258996175Y-152876521D01*
X258922858Y-152898657D01*
X258812742Y-152931903D01*
X258638115Y-153024753D01*
X258551849Y-153095110D01*
X258489624Y-153145859D01*
X258489621Y-153145862D01*
X258484849Y-153149754D01*
X258480922Y-153154501D01*
X258480920Y-153154503D01*
X258362710Y-153297394D01*
X258362708Y-153297398D01*
X258358781Y-153302144D01*
X258264713Y-153476118D01*
X258206229Y-153665051D01*
X258185556Y-153861744D01*
X201488500Y-153861744D01*
X201488500Y-140100000D01*
X204286496Y-140100000D01*
X204306458Y-140289928D01*
X204365473Y-140471556D01*
X204460960Y-140636944D01*
X204465378Y-140641851D01*
X204465379Y-140641852D01*
X204584325Y-140773955D01*
X204588747Y-140778866D01*
X204743248Y-140891118D01*
X204749276Y-140893802D01*
X204749278Y-140893803D01*
X204909799Y-140965271D01*
X204917712Y-140968794D01*
X205000151Y-140986317D01*
X205098056Y-141007128D01*
X205098061Y-141007128D01*
X205104513Y-141008500D01*
X205295487Y-141008500D01*
X205301939Y-141007128D01*
X205301944Y-141007128D01*
X205451893Y-140975255D01*
X205522684Y-140980657D01*
X205579317Y-141023474D01*
X205603400Y-141085332D01*
X205605068Y-141101199D01*
X205606458Y-141114428D01*
X205665473Y-141296056D01*
X205760960Y-141461444D01*
X205765378Y-141466351D01*
X205765379Y-141466352D01*
X205880349Y-141594039D01*
X205888747Y-141603366D01*
X206043248Y-141715618D01*
X206049276Y-141718302D01*
X206049278Y-141718303D01*
X206211681Y-141790609D01*
X206217712Y-141793294D01*
X206311113Y-141813147D01*
X206398056Y-141831628D01*
X206398061Y-141831628D01*
X206404513Y-141833000D01*
X206595487Y-141833000D01*
X206601939Y-141831628D01*
X206601944Y-141831628D01*
X206688887Y-141813147D01*
X206782288Y-141793294D01*
X206788319Y-141790609D01*
X206950722Y-141718303D01*
X206950724Y-141718302D01*
X206956752Y-141715618D01*
X207111253Y-141603366D01*
X207115672Y-141598459D01*
X207120580Y-141594039D01*
X207121834Y-141595431D01*
X207174567Y-141562948D01*
X207207750Y-141558500D01*
X213309575Y-141558500D01*
X213320758Y-141559027D01*
X213328251Y-141560702D01*
X213336177Y-141560453D01*
X213336178Y-141560453D01*
X213396328Y-141558562D01*
X213400287Y-141558500D01*
X213428198Y-141558500D01*
X213432133Y-141558003D01*
X213432198Y-141557995D01*
X213444035Y-141557062D01*
X213476293Y-141556048D01*
X213480312Y-141555922D01*
X213488231Y-141555673D01*
X213507685Y-141550021D01*
X213527042Y-141546013D01*
X213539272Y-141544468D01*
X213539273Y-141544468D01*
X213547139Y-141543474D01*
X213554510Y-141540555D01*
X213554512Y-141540555D01*
X213588254Y-141527196D01*
X213599484Y-141523351D01*
X213614367Y-141519027D01*
X213641934Y-141511018D01*
X213642250Y-141512106D01*
X213682067Y-141503860D01*
X213813469Y-141503860D01*
X213819921Y-141502488D01*
X213819926Y-141502488D01*
X213906870Y-141484007D01*
X214000270Y-141464154D01*
X214125272Y-141408500D01*
X214168704Y-141389163D01*
X214168706Y-141389162D01*
X214174734Y-141386478D01*
X214197186Y-141370166D01*
X214230139Y-141346224D01*
X214329235Y-141274226D01*
X214411605Y-141182745D01*
X214452603Y-141137212D01*
X214452604Y-141137211D01*
X214457022Y-141132304D01*
X214546526Y-140977279D01*
X214549205Y-140972639D01*
X214549206Y-140972638D01*
X214552509Y-140966916D01*
X214611524Y-140785288D01*
X214622237Y-140683365D01*
X214630796Y-140601925D01*
X214631486Y-140595360D01*
X214617813Y-140465271D01*
X214612214Y-140411995D01*
X214612214Y-140411993D01*
X214611524Y-140405432D01*
X214552509Y-140223804D01*
X214457022Y-140058416D01*
X214329235Y-139916494D01*
X214208772Y-139828972D01*
X214180076Y-139808123D01*
X214180075Y-139808122D01*
X214174734Y-139804242D01*
X214168706Y-139801558D01*
X214168704Y-139801557D01*
X214006301Y-139729251D01*
X214006300Y-139729251D01*
X214000270Y-139726566D01*
X213906869Y-139706713D01*
X213819926Y-139688232D01*
X213819921Y-139688232D01*
X213813469Y-139686860D01*
X213622495Y-139686860D01*
X213622495Y-139685319D01*
X213560419Y-139673969D01*
X213523452Y-139645743D01*
X213411253Y-139521134D01*
X213280375Y-139426045D01*
X213262094Y-139412763D01*
X213262093Y-139412762D01*
X213256752Y-139408882D01*
X213250724Y-139406198D01*
X213250722Y-139406197D01*
X213088319Y-139333891D01*
X213088318Y-139333891D01*
X213082288Y-139331206D01*
X212988888Y-139311353D01*
X212901944Y-139292872D01*
X212901939Y-139292872D01*
X212895487Y-139291500D01*
X212704513Y-139291500D01*
X212698061Y-139292872D01*
X212698056Y-139292872D01*
X212611112Y-139311353D01*
X212517712Y-139331206D01*
X212511682Y-139333891D01*
X212511681Y-139333891D01*
X212349278Y-139406197D01*
X212349276Y-139406198D01*
X212343248Y-139408882D01*
X212337907Y-139412762D01*
X212337906Y-139412763D01*
X212319625Y-139426045D01*
X212188747Y-139521134D01*
X212184332Y-139526037D01*
X212179420Y-139530460D01*
X212178295Y-139529211D01*
X212124986Y-139562051D01*
X212091800Y-139566500D01*
X205998239Y-139566500D01*
X205930118Y-139546498D01*
X205904603Y-139524810D01*
X205897801Y-139517255D01*
X205811253Y-139421134D01*
X205712157Y-139349136D01*
X205662094Y-139312763D01*
X205662093Y-139312762D01*
X205656752Y-139308882D01*
X205650724Y-139306198D01*
X205650722Y-139306197D01*
X205488319Y-139233891D01*
X205488318Y-139233891D01*
X205482288Y-139231206D01*
X205388887Y-139211353D01*
X205301944Y-139192872D01*
X205301939Y-139192872D01*
X205295487Y-139191500D01*
X205104513Y-139191500D01*
X205098061Y-139192872D01*
X205098056Y-139192872D01*
X205011113Y-139211353D01*
X204917712Y-139231206D01*
X204911682Y-139233891D01*
X204911681Y-139233891D01*
X204749278Y-139306197D01*
X204749276Y-139306198D01*
X204743248Y-139308882D01*
X204737907Y-139312762D01*
X204737906Y-139312763D01*
X204687843Y-139349136D01*
X204588747Y-139421134D01*
X204584326Y-139426044D01*
X204584325Y-139426045D01*
X204490310Y-139530460D01*
X204460960Y-139563056D01*
X204457659Y-139568774D01*
X204380148Y-139703027D01*
X204365473Y-139728444D01*
X204306458Y-139910072D01*
X204305768Y-139916633D01*
X204305768Y-139916635D01*
X204300889Y-139963056D01*
X204286496Y-140100000D01*
X201488500Y-140100000D01*
X201488500Y-136700000D01*
X218186496Y-136700000D01*
X218206458Y-136889928D01*
X218265473Y-137071556D01*
X218360960Y-137236944D01*
X218488747Y-137378866D01*
X218643248Y-137491118D01*
X218649276Y-137493802D01*
X218649278Y-137493803D01*
X218811681Y-137566109D01*
X218817712Y-137568794D01*
X218911112Y-137588647D01*
X218998056Y-137607128D01*
X218998061Y-137607128D01*
X219004513Y-137608500D01*
X219195487Y-137608500D01*
X219201939Y-137607128D01*
X219201944Y-137607128D01*
X219288888Y-137588647D01*
X219382288Y-137568794D01*
X219388319Y-137566109D01*
X219550722Y-137493803D01*
X219550724Y-137493802D01*
X219556752Y-137491118D01*
X219711253Y-137378866D01*
X219839040Y-137236944D01*
X219934527Y-137071556D01*
X219993542Y-136889928D01*
X220013504Y-136700000D01*
X219993542Y-136510072D01*
X219934527Y-136328444D01*
X219839040Y-136163056D01*
X219711253Y-136021134D01*
X219556752Y-135908882D01*
X219550724Y-135906198D01*
X219550722Y-135906197D01*
X219388319Y-135833891D01*
X219388318Y-135833891D01*
X219382288Y-135831206D01*
X219288888Y-135811353D01*
X219201944Y-135792872D01*
X219201939Y-135792872D01*
X219195487Y-135791500D01*
X219004513Y-135791500D01*
X218998061Y-135792872D01*
X218998056Y-135792872D01*
X218911112Y-135811353D01*
X218817712Y-135831206D01*
X218811682Y-135833891D01*
X218811681Y-135833891D01*
X218649278Y-135906197D01*
X218649276Y-135906198D01*
X218643248Y-135908882D01*
X218488747Y-136021134D01*
X218360960Y-136163056D01*
X218265473Y-136328444D01*
X218206458Y-136510072D01*
X218186496Y-136700000D01*
X201488500Y-136700000D01*
X201488500Y-125304943D01*
X212836780Y-125304943D01*
X212837526Y-125312835D01*
X212840941Y-125348961D01*
X212841500Y-125360819D01*
X212841500Y-126227401D01*
X212840973Y-126238584D01*
X212839298Y-126246077D01*
X212839547Y-126254003D01*
X212839547Y-126254004D01*
X212841438Y-126314154D01*
X212841500Y-126318113D01*
X212841500Y-126346024D01*
X212841997Y-126349958D01*
X212841997Y-126349959D01*
X212842005Y-126350024D01*
X212842938Y-126361861D01*
X212844327Y-126406057D01*
X212849978Y-126425507D01*
X212853987Y-126444868D01*
X212856526Y-126464965D01*
X212859446Y-126472339D01*
X212861416Y-126480014D01*
X212859787Y-126480432D01*
X212866428Y-126528923D01*
X212858613Y-126603285D01*
X212878575Y-126793213D01*
X212937590Y-126974841D01*
X213033077Y-127140229D01*
X213160864Y-127282151D01*
X213315365Y-127394403D01*
X213321393Y-127397087D01*
X213321395Y-127397088D01*
X213483798Y-127469394D01*
X213489829Y-127472079D01*
X213583229Y-127491932D01*
X213670173Y-127510413D01*
X213670178Y-127510413D01*
X213676630Y-127511785D01*
X213732523Y-127511785D01*
X213800644Y-127531787D01*
X213821618Y-127548690D01*
X215365180Y-129092253D01*
X215372720Y-129100539D01*
X215376832Y-129107018D01*
X215382609Y-129112443D01*
X215426483Y-129153643D01*
X215429325Y-129156398D01*
X215449062Y-129176135D01*
X215452259Y-129178615D01*
X215461279Y-129186318D01*
X215493511Y-129216586D01*
X215500457Y-129220405D01*
X215500460Y-129220407D01*
X215511266Y-129226348D01*
X215527785Y-129237199D01*
X215543791Y-129249614D01*
X215551060Y-129252759D01*
X215551064Y-129252762D01*
X215584369Y-129267174D01*
X215595019Y-129272391D01*
X215633772Y-129293695D01*
X215641447Y-129295666D01*
X215641448Y-129295666D01*
X215653394Y-129298733D01*
X215672099Y-129305137D01*
X215690687Y-129313181D01*
X215698510Y-129314420D01*
X215698520Y-129314423D01*
X215734356Y-129320099D01*
X215745976Y-129322505D01*
X215781121Y-129331528D01*
X215788802Y-129333500D01*
X215809056Y-129333500D01*
X215828766Y-129335051D01*
X215848775Y-129338220D01*
X215856667Y-129337474D01*
X215892793Y-129334059D01*
X215904651Y-129333500D01*
X216691800Y-129333500D01*
X216759921Y-129353502D01*
X216779147Y-129369843D01*
X216779420Y-129369540D01*
X216784332Y-129373963D01*
X216788747Y-129378866D01*
X216943248Y-129491118D01*
X216949276Y-129493802D01*
X216949278Y-129493803D01*
X217111681Y-129566109D01*
X217117712Y-129568794D01*
X217211112Y-129588647D01*
X217298056Y-129607128D01*
X217298061Y-129607128D01*
X217304513Y-129608500D01*
X217495487Y-129608500D01*
X217501939Y-129607128D01*
X217501944Y-129607128D01*
X217588888Y-129588647D01*
X217682288Y-129568794D01*
X217688319Y-129566109D01*
X217850722Y-129493803D01*
X217850724Y-129493802D01*
X217856752Y-129491118D01*
X218011253Y-129378866D01*
X218047851Y-129338220D01*
X218134621Y-129241852D01*
X218134622Y-129241851D01*
X218139040Y-129236944D01*
X218234527Y-129071556D01*
X218293542Y-128889928D01*
X218313504Y-128700000D01*
X218293542Y-128510072D01*
X218234527Y-128328444D01*
X218139040Y-128163056D01*
X218011253Y-128021134D01*
X217856752Y-127908882D01*
X217850724Y-127906198D01*
X217850722Y-127906197D01*
X217688319Y-127833891D01*
X217688318Y-127833891D01*
X217682288Y-127831206D01*
X217588888Y-127811353D01*
X217501944Y-127792872D01*
X217501939Y-127792872D01*
X217495487Y-127791500D01*
X217311544Y-127791500D01*
X217243423Y-127771498D01*
X217196930Y-127717842D01*
X217191711Y-127704437D01*
X217136568Y-127534726D01*
X217134527Y-127528444D01*
X217039040Y-127363056D01*
X216911253Y-127221134D01*
X216756752Y-127108882D01*
X216750724Y-127106198D01*
X216750722Y-127106197D01*
X216588319Y-127033891D01*
X216588318Y-127033891D01*
X216582288Y-127031206D01*
X216488887Y-127011353D01*
X216401944Y-126992872D01*
X216401939Y-126992872D01*
X216395487Y-126991500D01*
X216339595Y-126991500D01*
X216271474Y-126971498D01*
X216250500Y-126954595D01*
X215743574Y-126447669D01*
X215709548Y-126385357D01*
X215714613Y-126314542D01*
X215758608Y-126256638D01*
X215790365Y-126233565D01*
X215800286Y-126227048D01*
X215831514Y-126208580D01*
X215831517Y-126208578D01*
X215838341Y-126204542D01*
X215852662Y-126190221D01*
X215867696Y-126177380D01*
X215877673Y-126170131D01*
X215884086Y-126165472D01*
X215912277Y-126131395D01*
X215920267Y-126122616D01*
X216837934Y-125204949D01*
X216900246Y-125170923D01*
X216927029Y-125168044D01*
X216982922Y-125168044D01*
X216989374Y-125166672D01*
X216989379Y-125166672D01*
X217082608Y-125146855D01*
X217169723Y-125128338D01*
X217211895Y-125109562D01*
X217338157Y-125053347D01*
X217338159Y-125053346D01*
X217344187Y-125050662D01*
X217349919Y-125046498D01*
X217413973Y-124999959D01*
X217498688Y-124938410D01*
X217525749Y-124908356D01*
X217622056Y-124801396D01*
X217622057Y-124801395D01*
X217626475Y-124796488D01*
X217721962Y-124631100D01*
X217780977Y-124449472D01*
X217787468Y-124387719D01*
X217800249Y-124266109D01*
X217800939Y-124259544D01*
X217780977Y-124069616D01*
X217721962Y-123887988D01*
X217687630Y-123828524D01*
X217670893Y-123759532D01*
X217687630Y-123702529D01*
X217728570Y-123631619D01*
X217787585Y-123449991D01*
X217807547Y-123260063D01*
X217797672Y-123166109D01*
X217788275Y-123076698D01*
X217788275Y-123076696D01*
X217787585Y-123070135D01*
X217728570Y-122888507D01*
X217633083Y-122723119D01*
X217616925Y-122705173D01*
X217509718Y-122586108D01*
X217509717Y-122586107D01*
X217505296Y-122581197D01*
X217379676Y-122489928D01*
X217356137Y-122472826D01*
X217356136Y-122472825D01*
X217350795Y-122468945D01*
X217344767Y-122466261D01*
X217344765Y-122466260D01*
X217182362Y-122393954D01*
X217182361Y-122393954D01*
X217176331Y-122391269D01*
X217082930Y-122371416D01*
X216995987Y-122352935D01*
X216995982Y-122352935D01*
X216989530Y-122351563D01*
X216798556Y-122351563D01*
X216792104Y-122352935D01*
X216792099Y-122352935D01*
X216705156Y-122371416D01*
X216611755Y-122391269D01*
X216605725Y-122393954D01*
X216605724Y-122393954D01*
X216443321Y-122466260D01*
X216443319Y-122466261D01*
X216437291Y-122468945D01*
X216431950Y-122472825D01*
X216431949Y-122472826D01*
X216391886Y-122501934D01*
X216282790Y-122581197D01*
X216278375Y-122586100D01*
X216273463Y-122590523D01*
X216272338Y-122589274D01*
X216219029Y-122622114D01*
X216185843Y-122626563D01*
X215618704Y-122626563D01*
X215607521Y-122626036D01*
X215600028Y-122624361D01*
X215592102Y-122624610D01*
X215592101Y-122624610D01*
X215531938Y-122626501D01*
X215527980Y-122626563D01*
X215500081Y-122626563D01*
X215496091Y-122627067D01*
X215484257Y-122627999D01*
X215440048Y-122629389D01*
X215432434Y-122631601D01*
X215432429Y-122631602D01*
X215420596Y-122635040D01*
X215401233Y-122639051D01*
X215381140Y-122641589D01*
X215373773Y-122644506D01*
X215373768Y-122644507D01*
X215340029Y-122657865D01*
X215328802Y-122661709D01*
X215286344Y-122674045D01*
X215279518Y-122678082D01*
X215268909Y-122684356D01*
X215251161Y-122693051D01*
X215232320Y-122700511D01*
X215225904Y-122705173D01*
X215225903Y-122705173D01*
X215196550Y-122726499D01*
X215186630Y-122733015D01*
X215155402Y-122751483D01*
X215155399Y-122751485D01*
X215148575Y-122755521D01*
X215134254Y-122769842D01*
X215119221Y-122782682D01*
X215102830Y-122794591D01*
X215090609Y-122809364D01*
X215074639Y-122828668D01*
X215066649Y-122837447D01*
X213082747Y-124821348D01*
X213074461Y-124828888D01*
X213067982Y-124833000D01*
X213062557Y-124838777D01*
X213021357Y-124882651D01*
X213018602Y-124885493D01*
X212998865Y-124905230D01*
X212996385Y-124908427D01*
X212988682Y-124917447D01*
X212958414Y-124949679D01*
X212954595Y-124956625D01*
X212954593Y-124956628D01*
X212948652Y-124967434D01*
X212937801Y-124983953D01*
X212925386Y-124999959D01*
X212922241Y-125007228D01*
X212922238Y-125007232D01*
X212907826Y-125040537D01*
X212902609Y-125051187D01*
X212881305Y-125089940D01*
X212879334Y-125097615D01*
X212879334Y-125097616D01*
X212876267Y-125109562D01*
X212869863Y-125128266D01*
X212861819Y-125146855D01*
X212860580Y-125154678D01*
X212860577Y-125154688D01*
X212854901Y-125190524D01*
X212852495Y-125202144D01*
X212841500Y-125244970D01*
X212841500Y-125265224D01*
X212839949Y-125284934D01*
X212836780Y-125304943D01*
X201488500Y-125304943D01*
X201488500Y-122222242D01*
X203343293Y-122222242D01*
X203344499Y-122236601D01*
X203357372Y-122389897D01*
X203360089Y-122422256D01*
X203415415Y-122615199D01*
X203507163Y-122793722D01*
X203631839Y-122951024D01*
X203784693Y-123081114D01*
X203790071Y-123084120D01*
X203790073Y-123084121D01*
X203802593Y-123091118D01*
X203959905Y-123179036D01*
X204001866Y-123192670D01*
X204144942Y-123239159D01*
X204144946Y-123239160D01*
X204150800Y-123241062D01*
X204350107Y-123264827D01*
X204356242Y-123264355D01*
X204356244Y-123264355D01*
X204544093Y-123249902D01*
X204544098Y-123249901D01*
X204550234Y-123249429D01*
X204556166Y-123247773D01*
X204556170Y-123247772D01*
X204737615Y-123197111D01*
X204737619Y-123197110D01*
X204743559Y-123195451D01*
X204749063Y-123192671D01*
X204749065Y-123192670D01*
X204917216Y-123107731D01*
X204917218Y-123107730D01*
X204922717Y-123104952D01*
X205080886Y-122981377D01*
X205212039Y-122829434D01*
X205219803Y-122815768D01*
X205269186Y-122728837D01*
X205311183Y-122654910D01*
X205374539Y-122464453D01*
X205399696Y-122265317D01*
X205400097Y-122236601D01*
X205380510Y-122036840D01*
X205322496Y-121844688D01*
X205256784Y-121721101D01*
X209418410Y-121721101D01*
X209438372Y-121911029D01*
X209497387Y-122092657D01*
X209500690Y-122098379D01*
X209500691Y-122098380D01*
X209511231Y-122116635D01*
X209592874Y-122258045D01*
X209597292Y-122262952D01*
X209597293Y-122262953D01*
X209640639Y-122311094D01*
X209720661Y-122399967D01*
X209875162Y-122512219D01*
X209881190Y-122514903D01*
X209881192Y-122514904D01*
X210041120Y-122586108D01*
X210049626Y-122589895D01*
X210056082Y-122591267D01*
X210062366Y-122593309D01*
X210061702Y-122595353D01*
X210115342Y-122624309D01*
X210149666Y-122686457D01*
X210144942Y-122757296D01*
X210100737Y-122815768D01*
X209960392Y-122917735D01*
X209955971Y-122922645D01*
X209955970Y-122922646D01*
X209903089Y-122981377D01*
X209832605Y-123059657D01*
X209737118Y-123225045D01*
X209678103Y-123406673D01*
X209658141Y-123596601D01*
X209658831Y-123603166D01*
X209675896Y-123765526D01*
X209678103Y-123786529D01*
X209737118Y-123968157D01*
X209832605Y-124133545D01*
X209960392Y-124275467D01*
X210114893Y-124387719D01*
X210120921Y-124390403D01*
X210120923Y-124390404D01*
X210283326Y-124462710D01*
X210289357Y-124465395D01*
X210382758Y-124485248D01*
X210469701Y-124503729D01*
X210469706Y-124503729D01*
X210476158Y-124505101D01*
X210667132Y-124505101D01*
X210673584Y-124503729D01*
X210673589Y-124503729D01*
X210760532Y-124485248D01*
X210853933Y-124465395D01*
X210859964Y-124462710D01*
X211022367Y-124390404D01*
X211022369Y-124390403D01*
X211028397Y-124387719D01*
X211182898Y-124275467D01*
X211310685Y-124133545D01*
X211406172Y-123968157D01*
X211465187Y-123786529D01*
X211467395Y-123765526D01*
X211484459Y-123603166D01*
X211485149Y-123596601D01*
X211465187Y-123406673D01*
X211406172Y-123225045D01*
X211310685Y-123059657D01*
X211240202Y-122981377D01*
X211187320Y-122922646D01*
X211187319Y-122922645D01*
X211182898Y-122917735D01*
X211078454Y-122841852D01*
X211033739Y-122809364D01*
X211033738Y-122809363D01*
X211028397Y-122805483D01*
X211022369Y-122802799D01*
X211022367Y-122802798D01*
X210859964Y-122730492D01*
X210859963Y-122730492D01*
X210853933Y-122727807D01*
X210847477Y-122726435D01*
X210841193Y-122724393D01*
X210841857Y-122722349D01*
X210788217Y-122693393D01*
X210753893Y-122631245D01*
X210758617Y-122560406D01*
X210802822Y-122501934D01*
X210828380Y-122483365D01*
X210943167Y-122399967D01*
X211023189Y-122311094D01*
X211066535Y-122262953D01*
X211066536Y-122262952D01*
X211070954Y-122258045D01*
X211152597Y-122116635D01*
X211163137Y-122098380D01*
X211163138Y-122098379D01*
X211166441Y-122092657D01*
X211225456Y-121911029D01*
X211245418Y-121721101D01*
X211244728Y-121714536D01*
X211226146Y-121537736D01*
X211226146Y-121537734D01*
X211225456Y-121531173D01*
X211166441Y-121349545D01*
X211070954Y-121184157D01*
X210943167Y-121042235D01*
X210788666Y-120929983D01*
X210782638Y-120927299D01*
X210782636Y-120927298D01*
X210620233Y-120854992D01*
X210620232Y-120854992D01*
X210614202Y-120852307D01*
X210520802Y-120832454D01*
X210433858Y-120813973D01*
X210433853Y-120813973D01*
X210427401Y-120812601D01*
X210236427Y-120812601D01*
X210229975Y-120813973D01*
X210229970Y-120813973D01*
X210143026Y-120832454D01*
X210049626Y-120852307D01*
X210043596Y-120854992D01*
X210043595Y-120854992D01*
X209881192Y-120927298D01*
X209881190Y-120927299D01*
X209875162Y-120929983D01*
X209720661Y-121042235D01*
X209592874Y-121184157D01*
X209497387Y-121349545D01*
X209438372Y-121531173D01*
X209437682Y-121537734D01*
X209437682Y-121537736D01*
X209419100Y-121714536D01*
X209418410Y-121721101D01*
X205256784Y-121721101D01*
X205228265Y-121667464D01*
X205101404Y-121511919D01*
X204946748Y-121383976D01*
X204770186Y-121288509D01*
X204674315Y-121258832D01*
X204584331Y-121230977D01*
X204584328Y-121230976D01*
X204578444Y-121229155D01*
X204572319Y-121228511D01*
X204572318Y-121228511D01*
X204384953Y-121208818D01*
X204384952Y-121208818D01*
X204378825Y-121208174D01*
X204295807Y-121215729D01*
X204185071Y-121225807D01*
X204185068Y-121225808D01*
X204178932Y-121226366D01*
X204173026Y-121228104D01*
X204173022Y-121228105D01*
X204030766Y-121269974D01*
X203986380Y-121283037D01*
X203808503Y-121376029D01*
X203652075Y-121501800D01*
X203523055Y-121655560D01*
X203520091Y-121660952D01*
X203520088Y-121660956D01*
X203460815Y-121768774D01*
X203426358Y-121831451D01*
X203365667Y-122022774D01*
X203343293Y-122222242D01*
X201488500Y-122222242D01*
X201488500Y-117342242D01*
X203343293Y-117342242D01*
X203344256Y-117353705D01*
X203357485Y-117511244D01*
X203360089Y-117542256D01*
X203415415Y-117735199D01*
X203507163Y-117913722D01*
X203631839Y-118071024D01*
X203636533Y-118075019D01*
X203774780Y-118192677D01*
X203784693Y-118201114D01*
X203790071Y-118204120D01*
X203790073Y-118204121D01*
X203817197Y-118219280D01*
X203959905Y-118299036D01*
X204010425Y-118315451D01*
X204144942Y-118359159D01*
X204144946Y-118359160D01*
X204150800Y-118361062D01*
X204350107Y-118384827D01*
X204356242Y-118384355D01*
X204356244Y-118384355D01*
X204544093Y-118369902D01*
X204544098Y-118369901D01*
X204550234Y-118369429D01*
X204556166Y-118367773D01*
X204556170Y-118367772D01*
X204737615Y-118317111D01*
X204737619Y-118317110D01*
X204743559Y-118315451D01*
X204749063Y-118312671D01*
X204749065Y-118312670D01*
X204917216Y-118227731D01*
X204917218Y-118227730D01*
X204922717Y-118224952D01*
X205080886Y-118101377D01*
X205212039Y-117949434D01*
X205311183Y-117774910D01*
X205374539Y-117584453D01*
X205399696Y-117385317D01*
X205400097Y-117356601D01*
X205380510Y-117156840D01*
X205373234Y-117132739D01*
X205324277Y-116970588D01*
X205322496Y-116964688D01*
X205228265Y-116787464D01*
X205101404Y-116631919D01*
X204946748Y-116503976D01*
X204770186Y-116408509D01*
X204674315Y-116378832D01*
X204584331Y-116350977D01*
X204584328Y-116350976D01*
X204578444Y-116349155D01*
X204572319Y-116348511D01*
X204572318Y-116348511D01*
X204384953Y-116328818D01*
X204384952Y-116328818D01*
X204378825Y-116328174D01*
X204295807Y-116335729D01*
X204185071Y-116345807D01*
X204185068Y-116345808D01*
X204178932Y-116346366D01*
X204173026Y-116348104D01*
X204173022Y-116348105D01*
X204030766Y-116389974D01*
X203986380Y-116403037D01*
X203808503Y-116496029D01*
X203652075Y-116621800D01*
X203523055Y-116775560D01*
X203520091Y-116780952D01*
X203520088Y-116780956D01*
X203429325Y-116946054D01*
X203426358Y-116951451D01*
X203365667Y-117142774D01*
X203364981Y-117148891D01*
X203364980Y-117148895D01*
X203346066Y-117317524D01*
X203343293Y-117342242D01*
X201488500Y-117342242D01*
X201488500Y-112368224D01*
X201508502Y-112300103D01*
X201562158Y-112253610D01*
X201632432Y-112243506D01*
X201697012Y-112273000D01*
X201702399Y-112277949D01*
X201852009Y-112423692D01*
X202032863Y-112544536D01*
X202038171Y-112546817D01*
X202038172Y-112546817D01*
X202227409Y-112628119D01*
X202227412Y-112628120D01*
X202232712Y-112630397D01*
X202238342Y-112631671D01*
X202336464Y-112653874D01*
X202444860Y-112678402D01*
X202450631Y-112678629D01*
X202450633Y-112678629D01*
X202523620Y-112681496D01*
X202662205Y-112686941D01*
X202877466Y-112655730D01*
X202882930Y-112653875D01*
X202882935Y-112653874D01*
X203077963Y-112587671D01*
X203077968Y-112587669D01*
X203083435Y-112585813D01*
X203273213Y-112479532D01*
X203440446Y-112340446D01*
X203500252Y-112268537D01*
X203559189Y-112228953D01*
X203630171Y-112227517D01*
X203692913Y-112267258D01*
X203696204Y-112271914D01*
X203700347Y-112275950D01*
X203700348Y-112275951D01*
X203766554Y-112340446D01*
X203852009Y-112423692D01*
X204032863Y-112544536D01*
X204038171Y-112546817D01*
X204038172Y-112546817D01*
X204227409Y-112628119D01*
X204227412Y-112628120D01*
X204232712Y-112630397D01*
X204238342Y-112631671D01*
X204336464Y-112653874D01*
X204444860Y-112678402D01*
X204450631Y-112678629D01*
X204450633Y-112678629D01*
X204523620Y-112681496D01*
X204662205Y-112686941D01*
X204877466Y-112655730D01*
X204882930Y-112653875D01*
X204882935Y-112653874D01*
X205077963Y-112587671D01*
X205077968Y-112587669D01*
X205083435Y-112585813D01*
X205273213Y-112479532D01*
X205440446Y-112340446D01*
X205579532Y-112173213D01*
X205685813Y-111983435D01*
X205687669Y-111977968D01*
X205687671Y-111977963D01*
X205753874Y-111782935D01*
X205753875Y-111782930D01*
X205755730Y-111777466D01*
X205756558Y-111771757D01*
X205756559Y-111771752D01*
X205777779Y-111625398D01*
X205807349Y-111560852D01*
X205867121Y-111522540D01*
X205938117Y-111522624D01*
X205997798Y-111561079D01*
X206011593Y-111580477D01*
X206090960Y-111717944D01*
X206218747Y-111859866D01*
X206373248Y-111972118D01*
X206379276Y-111974802D01*
X206379278Y-111974803D01*
X206409993Y-111988478D01*
X206547712Y-112049794D01*
X206641112Y-112069647D01*
X206728056Y-112088128D01*
X206728061Y-112088128D01*
X206734513Y-112089500D01*
X206925487Y-112089500D01*
X206931939Y-112088128D01*
X206931944Y-112088128D01*
X207018888Y-112069647D01*
X207112288Y-112049794D01*
X207250007Y-111988478D01*
X207280722Y-111974803D01*
X207280724Y-111974802D01*
X207286752Y-111972118D01*
X207441253Y-111859866D01*
X207569040Y-111717944D01*
X207664527Y-111552556D01*
X207723542Y-111370928D01*
X207727836Y-111330079D01*
X207742814Y-111187565D01*
X207743504Y-111181000D01*
X207732264Y-111074055D01*
X207724232Y-110997635D01*
X207724232Y-110997633D01*
X207723542Y-110991072D01*
X207664527Y-110809444D01*
X207653260Y-110789928D01*
X207615156Y-110723931D01*
X207569040Y-110644056D01*
X207441253Y-110502134D01*
X207303885Y-110402330D01*
X207292094Y-110393763D01*
X207292093Y-110393762D01*
X207286752Y-110389882D01*
X207280724Y-110387198D01*
X207280722Y-110387197D01*
X207118319Y-110314891D01*
X207118318Y-110314891D01*
X207112288Y-110312206D01*
X207018888Y-110292353D01*
X206931944Y-110273872D01*
X206931939Y-110273872D01*
X206925487Y-110272500D01*
X206734513Y-110272500D01*
X206728061Y-110273872D01*
X206728056Y-110273872D01*
X206641113Y-110292353D01*
X206547712Y-110312206D01*
X206541682Y-110314891D01*
X206541681Y-110314891D01*
X206379278Y-110387197D01*
X206379276Y-110387198D01*
X206373248Y-110389882D01*
X206367907Y-110393762D01*
X206367906Y-110393763D01*
X206356115Y-110402330D01*
X206218747Y-110502134D01*
X206090960Y-110644056D01*
X206044844Y-110723931D01*
X206006741Y-110789928D01*
X205995473Y-110809444D01*
X205936458Y-110991072D01*
X205935769Y-110997631D01*
X205935768Y-110997634D01*
X205934973Y-111005201D01*
X205907959Y-111070858D01*
X205849737Y-111111487D01*
X205778791Y-111114189D01*
X205717648Y-111078106D01*
X205696657Y-111047757D01*
X205696531Y-111047500D01*
X205613423Y-110878974D01*
X205604875Y-110867526D01*
X205486733Y-110709315D01*
X205486732Y-110709314D01*
X205483280Y-110704691D01*
X205461293Y-110684366D01*
X205362924Y-110593435D01*
X205361078Y-110591729D01*
X205324633Y-110530800D01*
X205326914Y-110459840D01*
X205366038Y-110402330D01*
X205366450Y-110401988D01*
X205440446Y-110340446D01*
X205579532Y-110173213D01*
X205581713Y-110175027D01*
X205627405Y-110137687D01*
X205651641Y-110130762D01*
X205654483Y-110130673D01*
X205673937Y-110125021D01*
X205693294Y-110121013D01*
X205705524Y-110119468D01*
X205705525Y-110119468D01*
X205713391Y-110118474D01*
X205720762Y-110115555D01*
X205720764Y-110115555D01*
X205754506Y-110102196D01*
X205765736Y-110098351D01*
X205800577Y-110088229D01*
X205800578Y-110088229D01*
X205808187Y-110086018D01*
X205815006Y-110081985D01*
X205815011Y-110081983D01*
X205825622Y-110075707D01*
X205843370Y-110067012D01*
X205862211Y-110059552D01*
X205897981Y-110033564D01*
X205907901Y-110027048D01*
X205939129Y-110008580D01*
X205939132Y-110008578D01*
X205945956Y-110004542D01*
X205960277Y-109990221D01*
X205975311Y-109977380D01*
X205985288Y-109970131D01*
X205991701Y-109965472D01*
X206019892Y-109931395D01*
X206027882Y-109922616D01*
X207104007Y-108846492D01*
X207166319Y-108812466D01*
X207237135Y-108817531D01*
X207251315Y-108824213D01*
X207253247Y-108825617D01*
X207427711Y-108903293D01*
X207511646Y-108921134D01*
X207608055Y-108941627D01*
X207608060Y-108941627D01*
X207614512Y-108942999D01*
X207805486Y-108942999D01*
X207811938Y-108941627D01*
X207811943Y-108941627D01*
X207908352Y-108921134D01*
X207992287Y-108903293D01*
X208119865Y-108846492D01*
X208160721Y-108828302D01*
X208160723Y-108828301D01*
X208166751Y-108825617D01*
X208177881Y-108817531D01*
X208298584Y-108729834D01*
X208321252Y-108713365D01*
X208348143Y-108683500D01*
X208444620Y-108576351D01*
X208444621Y-108576350D01*
X208449039Y-108571443D01*
X208532310Y-108427214D01*
X208541222Y-108411778D01*
X208541223Y-108411777D01*
X208544526Y-108406055D01*
X208603541Y-108224427D01*
X208623503Y-108034499D01*
X208608308Y-107889928D01*
X208604231Y-107851134D01*
X208604231Y-107851132D01*
X208603541Y-107844571D01*
X208544526Y-107662943D01*
X208449039Y-107497555D01*
X208321252Y-107355633D01*
X208166751Y-107243381D01*
X208160723Y-107240697D01*
X208160721Y-107240696D01*
X207998318Y-107168390D01*
X207998317Y-107168390D01*
X207992287Y-107165705D01*
X207885507Y-107143008D01*
X207811943Y-107127371D01*
X207811938Y-107127371D01*
X207805486Y-107125999D01*
X207614512Y-107125999D01*
X207608055Y-107127371D01*
X207601484Y-107128062D01*
X207601277Y-107126091D01*
X207539902Y-107121406D01*
X207483270Y-107078588D01*
X207458778Y-107011950D01*
X207458499Y-107003563D01*
X207458499Y-106726367D01*
X207459026Y-106715184D01*
X207460701Y-106707691D01*
X207458561Y-106639600D01*
X207458499Y-106635643D01*
X207458499Y-106607743D01*
X207457995Y-106603752D01*
X207457062Y-106591910D01*
X207455922Y-106555635D01*
X207455673Y-106547710D01*
X207453461Y-106540096D01*
X207453460Y-106540091D01*
X207450022Y-106528258D01*
X207446011Y-106508894D01*
X207444466Y-106496663D01*
X207443473Y-106488802D01*
X207440556Y-106481435D01*
X207440555Y-106481430D01*
X207427197Y-106447691D01*
X207423353Y-106436464D01*
X207420216Y-106425669D01*
X207411017Y-106394006D01*
X207400706Y-106376571D01*
X207392009Y-106358818D01*
X207390139Y-106354095D01*
X207383357Y-106304579D01*
X207381623Y-106304579D01*
X207381623Y-106297974D01*
X207382313Y-106291409D01*
X207378242Y-106252671D01*
X207363041Y-106108044D01*
X207363041Y-106108042D01*
X207362351Y-106101481D01*
X207303336Y-105919853D01*
X207207849Y-105754465D01*
X207120903Y-105657901D01*
X207084484Y-105617454D01*
X207084483Y-105617453D01*
X207080062Y-105612543D01*
X206925561Y-105500291D01*
X206919533Y-105497607D01*
X206919531Y-105497606D01*
X206757128Y-105425300D01*
X206757127Y-105425300D01*
X206751097Y-105422615D01*
X206636733Y-105398306D01*
X206570753Y-105384281D01*
X206570748Y-105384281D01*
X206564296Y-105382909D01*
X206373322Y-105382909D01*
X206366870Y-105384281D01*
X206366865Y-105384281D01*
X206300885Y-105398306D01*
X206186521Y-105422615D01*
X206180491Y-105425300D01*
X206180490Y-105425300D01*
X206018087Y-105497606D01*
X206018085Y-105497607D01*
X206012057Y-105500291D01*
X205857556Y-105612543D01*
X205853135Y-105617453D01*
X205853134Y-105617454D01*
X205816716Y-105657901D01*
X205729769Y-105754465D01*
X205634282Y-105919853D01*
X205575267Y-106101481D01*
X205574577Y-106108042D01*
X205574577Y-106108044D01*
X205559376Y-106252671D01*
X205555305Y-106291409D01*
X205575260Y-106481272D01*
X205575260Y-106481274D01*
X205575267Y-106481337D01*
X205575256Y-106481338D01*
X205570044Y-106549646D01*
X205527229Y-106606279D01*
X205460591Y-106630774D01*
X205391290Y-106615354D01*
X205366670Y-106597579D01*
X205327490Y-106561361D01*
X205318365Y-106554360D01*
X205144255Y-106444505D01*
X205134008Y-106439284D01*
X204942793Y-106362997D01*
X204931767Y-106359730D01*
X204871770Y-106347797D01*
X204858894Y-106348949D01*
X204854000Y-106364102D01*
X204854000Y-107227885D01*
X204858475Y-107243124D01*
X204859865Y-107244329D01*
X204867548Y-107246000D01*
X205739485Y-107246000D01*
X205753016Y-107242027D01*
X205754185Y-107233892D01*
X205732666Y-107157591D01*
X205733426Y-107086598D01*
X205772447Y-107027286D01*
X205837340Y-106998487D01*
X205907502Y-107009342D01*
X205927996Y-107021453D01*
X205994583Y-107069831D01*
X206012057Y-107082527D01*
X206018083Y-107085210D01*
X206018090Y-107085214D01*
X206116747Y-107129138D01*
X206170843Y-107175118D01*
X206191499Y-107244245D01*
X206191499Y-107915000D01*
X206171497Y-107983121D01*
X206154594Y-108004096D01*
X205553727Y-108604962D01*
X205491415Y-108638987D01*
X205420599Y-108633922D01*
X205379104Y-108608391D01*
X205360709Y-108591387D01*
X205324263Y-108530459D01*
X205326543Y-108459499D01*
X205365668Y-108401988D01*
X205435653Y-108343782D01*
X205443782Y-108335653D01*
X205575420Y-108177375D01*
X205581944Y-108167882D01*
X205682531Y-107988272D01*
X205687210Y-107977763D01*
X205753386Y-107782817D01*
X205756017Y-107771857D01*
X205754040Y-107757992D01*
X205740474Y-107754000D01*
X204472000Y-107754000D01*
X204403879Y-107733998D01*
X204357386Y-107680342D01*
X204346000Y-107628000D01*
X204346000Y-106361337D01*
X204342194Y-106348375D01*
X204327278Y-106346439D01*
X204298202Y-106351435D01*
X204287082Y-106354415D01*
X204093940Y-106425669D01*
X204083562Y-106430619D01*
X203906639Y-106535877D01*
X203897321Y-106542647D01*
X203879893Y-106557931D01*
X203815489Y-106587809D01*
X203745156Y-106578123D01*
X203695989Y-106538765D01*
X203643643Y-106468920D01*
X203643642Y-106468919D01*
X203638261Y-106461739D01*
X203521705Y-106374385D01*
X203522743Y-106373000D01*
X203480083Y-106330240D01*
X203465431Y-106256814D01*
X203472814Y-106186566D01*
X203472814Y-106186565D01*
X203473504Y-106180000D01*
X203465786Y-106106565D01*
X203454232Y-105996635D01*
X203454232Y-105996633D01*
X203453542Y-105990072D01*
X203394527Y-105808444D01*
X203299040Y-105643056D01*
X203237598Y-105574817D01*
X203175675Y-105506045D01*
X203175674Y-105506044D01*
X203171253Y-105501134D01*
X203061143Y-105421134D01*
X203022094Y-105392763D01*
X203022093Y-105392762D01*
X203016752Y-105388882D01*
X203010724Y-105386198D01*
X203010722Y-105386197D01*
X202848319Y-105313891D01*
X202848318Y-105313891D01*
X202842288Y-105311206D01*
X202730295Y-105287401D01*
X202661944Y-105272872D01*
X202661939Y-105272872D01*
X202655487Y-105271500D01*
X202464513Y-105271500D01*
X202458061Y-105272872D01*
X202458056Y-105272872D01*
X202389705Y-105287401D01*
X202277712Y-105311206D01*
X202271682Y-105313891D01*
X202271681Y-105313891D01*
X202109278Y-105386197D01*
X202109276Y-105386198D01*
X202103248Y-105388882D01*
X202097907Y-105392762D01*
X202097906Y-105392763D01*
X202058857Y-105421134D01*
X201948747Y-105501134D01*
X201944326Y-105506044D01*
X201944325Y-105506045D01*
X201882403Y-105574817D01*
X201820960Y-105643056D01*
X201725473Y-105808444D01*
X201723920Y-105807547D01*
X201683625Y-105854954D01*
X201615698Y-105875602D01*
X201547390Y-105856249D01*
X201500389Y-105803037D01*
X201488500Y-105749608D01*
X201488500Y-103729999D01*
X208026495Y-103729999D01*
X208027185Y-103736564D01*
X208043774Y-103894396D01*
X208046457Y-103919927D01*
X208105472Y-104101555D01*
X208108775Y-104107277D01*
X208108776Y-104107278D01*
X208193186Y-104253480D01*
X208200959Y-104266943D01*
X208205377Y-104271850D01*
X208205378Y-104271851D01*
X208231693Y-104301077D01*
X208328746Y-104408865D01*
X208483247Y-104521117D01*
X208489275Y-104523801D01*
X208489277Y-104523802D01*
X208651680Y-104596108D01*
X208657711Y-104598793D01*
X208736546Y-104615550D01*
X208838055Y-104637127D01*
X208838060Y-104637127D01*
X208844512Y-104638499D01*
X209035486Y-104638499D01*
X209041938Y-104637127D01*
X209041943Y-104637127D01*
X209143452Y-104615550D01*
X209222287Y-104598793D01*
X209228318Y-104596108D01*
X209390721Y-104523802D01*
X209390723Y-104523801D01*
X209396751Y-104521117D01*
X209551252Y-104408865D01*
X209648305Y-104301077D01*
X209674620Y-104271851D01*
X209674621Y-104271850D01*
X209679039Y-104266943D01*
X209686812Y-104253480D01*
X209771222Y-104107278D01*
X209771223Y-104107277D01*
X209774526Y-104101555D01*
X209833541Y-103919927D01*
X209836225Y-103894396D01*
X209852813Y-103736564D01*
X209853503Y-103729999D01*
X209850376Y-103700246D01*
X209834231Y-103546634D01*
X209834231Y-103546632D01*
X209833541Y-103540071D01*
X209774526Y-103358443D01*
X209763826Y-103339909D01*
X209682340Y-103198773D01*
X209679039Y-103193055D01*
X209551252Y-103051133D01*
X209452156Y-102979135D01*
X209402093Y-102942762D01*
X209402092Y-102942761D01*
X209396751Y-102938881D01*
X209390723Y-102936197D01*
X209390721Y-102936196D01*
X209228318Y-102863890D01*
X209228317Y-102863890D01*
X209222287Y-102861205D01*
X209128886Y-102841352D01*
X209041943Y-102822871D01*
X209041938Y-102822871D01*
X209035486Y-102821499D01*
X208844512Y-102821499D01*
X208838060Y-102822871D01*
X208838055Y-102822871D01*
X208751112Y-102841352D01*
X208657711Y-102861205D01*
X208651681Y-102863890D01*
X208651680Y-102863890D01*
X208489277Y-102936196D01*
X208489275Y-102936197D01*
X208483247Y-102938881D01*
X208477906Y-102942761D01*
X208477905Y-102942762D01*
X208427842Y-102979135D01*
X208328746Y-103051133D01*
X208200959Y-103193055D01*
X208197658Y-103198773D01*
X208116173Y-103339909D01*
X208105472Y-103358443D01*
X208046457Y-103540071D01*
X208045767Y-103546632D01*
X208045767Y-103546634D01*
X208029622Y-103700246D01*
X208026495Y-103729999D01*
X201488500Y-103729999D01*
X201488500Y-98026000D01*
X201508502Y-97957879D01*
X201562158Y-97911386D01*
X201614500Y-97900000D01*
X212599905Y-97900000D01*
X212668026Y-97920002D01*
G37*
%TD.AperFunction*%
%TD*%
M02*
