%TF.GenerationSoftware,KiCad,Pcbnew,(6.0.7)*%
%TF.CreationDate,2023-02-07T14:26:13-05:00*%
%TF.ProjectId,DCA_USMR_sch,4443415f-5553-44d5-925f-7363682e6b69,v1.3*%
%TF.SameCoordinates,Original*%
%TF.FileFunction,Copper,L2,Inr*%
%TF.FilePolarity,Positive*%
%FSLAX46Y46*%
G04 Gerber Fmt 4.6, Leading zero omitted, Abs format (unit mm)*
G04 Created by KiCad (PCBNEW (6.0.7)) date 2023-02-07 14:26:13*
%MOMM*%
%LPD*%
G01*
G04 APERTURE LIST*
%ADD10C,0.100000*%
%ADD11C,0.150000*%
%ADD12C,0.300000*%
%ADD13C,0.400000*%
%TA.AperFunction,Profile*%
%ADD14C,0.200000*%
%TD*%
%TA.AperFunction,ComponentPad*%
%ADD15R,1.350000X1.350000*%
%TD*%
%TA.AperFunction,ComponentPad*%
%ADD16O,1.350000X1.350000*%
%TD*%
%TA.AperFunction,ComponentPad*%
%ADD17C,1.030000*%
%TD*%
%TA.AperFunction,ViaPad*%
%ADD18C,0.800000*%
%TD*%
G04 APERTURE END LIST*
D10*
D11*
X177002200Y-166007200D02*
X177002200Y-198007200D01*
X285002200Y-198007200D01*
X285002200Y-166007200D01*
X177002200Y-166007200D01*
D10*
D11*
X10000000Y-10000000D02*
X10000000Y-200007200D01*
X287002200Y-200007200D01*
X287002200Y-10000000D01*
X10000000Y-10000000D01*
D10*
D11*
X12000000Y-12000000D02*
X12000000Y-198007200D01*
X285002200Y-198007200D01*
X285002200Y-12000000D01*
X12000000Y-12000000D01*
D10*
D11*
X60000000Y-12000000D02*
X60000000Y-10000000D01*
D10*
D11*
X110000000Y-12000000D02*
X110000000Y-10000000D01*
D10*
D11*
X160000000Y-12000000D02*
X160000000Y-10000000D01*
D10*
D11*
X210000000Y-12000000D02*
X210000000Y-10000000D01*
D10*
D11*
X260000000Y-12000000D02*
X260000000Y-10000000D01*
D10*
D11*
X36065476Y-11588095D02*
X35322619Y-11588095D01*
X35694047Y-11588095D02*
X35694047Y-10288095D01*
X35570238Y-10473809D01*
X35446428Y-10597619D01*
X35322619Y-10659523D01*
D10*
D11*
X85322619Y-10411904D02*
X85384523Y-10350000D01*
X85508333Y-10288095D01*
X85817857Y-10288095D01*
X85941666Y-10350000D01*
X86003571Y-10411904D01*
X86065476Y-10535714D01*
X86065476Y-10659523D01*
X86003571Y-10845238D01*
X85260714Y-11588095D01*
X86065476Y-11588095D01*
D10*
D11*
X135260714Y-10288095D02*
X136065476Y-10288095D01*
X135632142Y-10783333D01*
X135817857Y-10783333D01*
X135941666Y-10845238D01*
X136003571Y-10907142D01*
X136065476Y-11030952D01*
X136065476Y-11340476D01*
X136003571Y-11464285D01*
X135941666Y-11526190D01*
X135817857Y-11588095D01*
X135446428Y-11588095D01*
X135322619Y-11526190D01*
X135260714Y-11464285D01*
D10*
D11*
X185941666Y-10721428D02*
X185941666Y-11588095D01*
X185632142Y-10226190D02*
X185322619Y-11154761D01*
X186127380Y-11154761D01*
D10*
D11*
X236003571Y-10288095D02*
X235384523Y-10288095D01*
X235322619Y-10907142D01*
X235384523Y-10845238D01*
X235508333Y-10783333D01*
X235817857Y-10783333D01*
X235941666Y-10845238D01*
X236003571Y-10907142D01*
X236065476Y-11030952D01*
X236065476Y-11340476D01*
X236003571Y-11464285D01*
X235941666Y-11526190D01*
X235817857Y-11588095D01*
X235508333Y-11588095D01*
X235384523Y-11526190D01*
X235322619Y-11464285D01*
D10*
D11*
X285941666Y-10288095D02*
X285694047Y-10288095D01*
X285570238Y-10350000D01*
X285508333Y-10411904D01*
X285384523Y-10597619D01*
X285322619Y-10845238D01*
X285322619Y-11340476D01*
X285384523Y-11464285D01*
X285446428Y-11526190D01*
X285570238Y-11588095D01*
X285817857Y-11588095D01*
X285941666Y-11526190D01*
X286003571Y-11464285D01*
X286065476Y-11340476D01*
X286065476Y-11030952D01*
X286003571Y-10907142D01*
X285941666Y-10845238D01*
X285817857Y-10783333D01*
X285570238Y-10783333D01*
X285446428Y-10845238D01*
X285384523Y-10907142D01*
X285322619Y-11030952D01*
D10*
D11*
X60000000Y-198007200D02*
X60000000Y-200007200D01*
D10*
D11*
X110000000Y-198007200D02*
X110000000Y-200007200D01*
D10*
D11*
X160000000Y-198007200D02*
X160000000Y-200007200D01*
D10*
D11*
X210000000Y-198007200D02*
X210000000Y-200007200D01*
D10*
D11*
X260000000Y-198007200D02*
X260000000Y-200007200D01*
D10*
D11*
X36065476Y-199595295D02*
X35322619Y-199595295D01*
X35694047Y-199595295D02*
X35694047Y-198295295D01*
X35570238Y-198481009D01*
X35446428Y-198604819D01*
X35322619Y-198666723D01*
D10*
D11*
X85322619Y-198419104D02*
X85384523Y-198357200D01*
X85508333Y-198295295D01*
X85817857Y-198295295D01*
X85941666Y-198357200D01*
X86003571Y-198419104D01*
X86065476Y-198542914D01*
X86065476Y-198666723D01*
X86003571Y-198852438D01*
X85260714Y-199595295D01*
X86065476Y-199595295D01*
D10*
D11*
X135260714Y-198295295D02*
X136065476Y-198295295D01*
X135632142Y-198790533D01*
X135817857Y-198790533D01*
X135941666Y-198852438D01*
X136003571Y-198914342D01*
X136065476Y-199038152D01*
X136065476Y-199347676D01*
X136003571Y-199471485D01*
X135941666Y-199533390D01*
X135817857Y-199595295D01*
X135446428Y-199595295D01*
X135322619Y-199533390D01*
X135260714Y-199471485D01*
D10*
D11*
X185941666Y-198728628D02*
X185941666Y-199595295D01*
X185632142Y-198233390D02*
X185322619Y-199161961D01*
X186127380Y-199161961D01*
D10*
D11*
X236003571Y-198295295D02*
X235384523Y-198295295D01*
X235322619Y-198914342D01*
X235384523Y-198852438D01*
X235508333Y-198790533D01*
X235817857Y-198790533D01*
X235941666Y-198852438D01*
X236003571Y-198914342D01*
X236065476Y-199038152D01*
X236065476Y-199347676D01*
X236003571Y-199471485D01*
X235941666Y-199533390D01*
X235817857Y-199595295D01*
X235508333Y-199595295D01*
X235384523Y-199533390D01*
X235322619Y-199471485D01*
D10*
D11*
X285941666Y-198295295D02*
X285694047Y-198295295D01*
X285570238Y-198357200D01*
X285508333Y-198419104D01*
X285384523Y-198604819D01*
X285322619Y-198852438D01*
X285322619Y-199347676D01*
X285384523Y-199471485D01*
X285446428Y-199533390D01*
X285570238Y-199595295D01*
X285817857Y-199595295D01*
X285941666Y-199533390D01*
X286003571Y-199471485D01*
X286065476Y-199347676D01*
X286065476Y-199038152D01*
X286003571Y-198914342D01*
X285941666Y-198852438D01*
X285817857Y-198790533D01*
X285570238Y-198790533D01*
X285446428Y-198852438D01*
X285384523Y-198914342D01*
X285322619Y-199038152D01*
D10*
D11*
X10000000Y-60000000D02*
X12000000Y-60000000D01*
D10*
D11*
X10000000Y-110000000D02*
X12000000Y-110000000D01*
D10*
D11*
X10000000Y-160000000D02*
X12000000Y-160000000D01*
D10*
D11*
X10690476Y-35216666D02*
X11309523Y-35216666D01*
X10566666Y-35588095D02*
X11000000Y-34288095D01*
X11433333Y-35588095D01*
D10*
D11*
X11092857Y-84907142D02*
X11278571Y-84969047D01*
X11340476Y-85030952D01*
X11402380Y-85154761D01*
X11402380Y-85340476D01*
X11340476Y-85464285D01*
X11278571Y-85526190D01*
X11154761Y-85588095D01*
X10659523Y-85588095D01*
X10659523Y-84288095D01*
X11092857Y-84288095D01*
X11216666Y-84350000D01*
X11278571Y-84411904D01*
X11340476Y-84535714D01*
X11340476Y-84659523D01*
X11278571Y-84783333D01*
X11216666Y-84845238D01*
X11092857Y-84907142D01*
X10659523Y-84907142D01*
D10*
D11*
X11402380Y-135464285D02*
X11340476Y-135526190D01*
X11154761Y-135588095D01*
X11030952Y-135588095D01*
X10845238Y-135526190D01*
X10721428Y-135402380D01*
X10659523Y-135278571D01*
X10597619Y-135030952D01*
X10597619Y-134845238D01*
X10659523Y-134597619D01*
X10721428Y-134473809D01*
X10845238Y-134350000D01*
X11030952Y-134288095D01*
X11154761Y-134288095D01*
X11340476Y-134350000D01*
X11402380Y-134411904D01*
D10*
D11*
X10659523Y-185588095D02*
X10659523Y-184288095D01*
X10969047Y-184288095D01*
X11154761Y-184350000D01*
X11278571Y-184473809D01*
X11340476Y-184597619D01*
X11402380Y-184845238D01*
X11402380Y-185030952D01*
X11340476Y-185278571D01*
X11278571Y-185402380D01*
X11154761Y-185526190D01*
X10969047Y-185588095D01*
X10659523Y-185588095D01*
D10*
D11*
X287002200Y-60000000D02*
X285002200Y-60000000D01*
D10*
D11*
X287002200Y-110000000D02*
X285002200Y-110000000D01*
D10*
D11*
X287002200Y-160000000D02*
X285002200Y-160000000D01*
D10*
D11*
X285692676Y-35216666D02*
X286311723Y-35216666D01*
X285568866Y-35588095D02*
X286002200Y-34288095D01*
X286435533Y-35588095D01*
D10*
D11*
X286095057Y-84907142D02*
X286280771Y-84969047D01*
X286342676Y-85030952D01*
X286404580Y-85154761D01*
X286404580Y-85340476D01*
X286342676Y-85464285D01*
X286280771Y-85526190D01*
X286156961Y-85588095D01*
X285661723Y-85588095D01*
X285661723Y-84288095D01*
X286095057Y-84288095D01*
X286218866Y-84350000D01*
X286280771Y-84411904D01*
X286342676Y-84535714D01*
X286342676Y-84659523D01*
X286280771Y-84783333D01*
X286218866Y-84845238D01*
X286095057Y-84907142D01*
X285661723Y-84907142D01*
D10*
D11*
X286404580Y-135464285D02*
X286342676Y-135526190D01*
X286156961Y-135588095D01*
X286033152Y-135588095D01*
X285847438Y-135526190D01*
X285723628Y-135402380D01*
X285661723Y-135278571D01*
X285599819Y-135030952D01*
X285599819Y-134845238D01*
X285661723Y-134597619D01*
X285723628Y-134473809D01*
X285847438Y-134350000D01*
X286033152Y-134288095D01*
X286156961Y-134288095D01*
X286342676Y-134350000D01*
X286404580Y-134411904D01*
D10*
D11*
X285661723Y-185588095D02*
X285661723Y-184288095D01*
X285971247Y-184288095D01*
X286156961Y-184350000D01*
X286280771Y-184473809D01*
X286342676Y-184597619D01*
X286404580Y-184845238D01*
X286404580Y-185030952D01*
X286342676Y-185278571D01*
X286280771Y-185402380D01*
X286156961Y-185526190D01*
X285971247Y-185588095D01*
X285661723Y-185588095D01*
D10*
D11*
X200434342Y-193785771D02*
X200434342Y-192285771D01*
X200791485Y-192285771D01*
X201005771Y-192357200D01*
X201148628Y-192500057D01*
X201220057Y-192642914D01*
X201291485Y-192928628D01*
X201291485Y-193142914D01*
X201220057Y-193428628D01*
X201148628Y-193571485D01*
X201005771Y-193714342D01*
X200791485Y-193785771D01*
X200434342Y-193785771D01*
X202577200Y-193785771D02*
X202577200Y-193000057D01*
X202505771Y-192857200D01*
X202362914Y-192785771D01*
X202077200Y-192785771D01*
X201934342Y-192857200D01*
X202577200Y-193714342D02*
X202434342Y-193785771D01*
X202077200Y-193785771D01*
X201934342Y-193714342D01*
X201862914Y-193571485D01*
X201862914Y-193428628D01*
X201934342Y-193285771D01*
X202077200Y-193214342D01*
X202434342Y-193214342D01*
X202577200Y-193142914D01*
X203077200Y-192785771D02*
X203648628Y-192785771D01*
X203291485Y-192285771D02*
X203291485Y-193571485D01*
X203362914Y-193714342D01*
X203505771Y-193785771D01*
X203648628Y-193785771D01*
X204720057Y-193714342D02*
X204577200Y-193785771D01*
X204291485Y-193785771D01*
X204148628Y-193714342D01*
X204077200Y-193571485D01*
X204077200Y-193000057D01*
X204148628Y-192857200D01*
X204291485Y-192785771D01*
X204577200Y-192785771D01*
X204720057Y-192857200D01*
X204791485Y-193000057D01*
X204791485Y-193142914D01*
X204077200Y-193285771D01*
X205434342Y-193642914D02*
X205505771Y-193714342D01*
X205434342Y-193785771D01*
X205362914Y-193714342D01*
X205434342Y-193642914D01*
X205434342Y-193785771D01*
X205434342Y-192857200D02*
X205505771Y-192928628D01*
X205434342Y-193000057D01*
X205362914Y-192928628D01*
X205434342Y-192857200D01*
X205434342Y-193000057D01*
X207220057Y-192428628D02*
X207291485Y-192357200D01*
X207434342Y-192285771D01*
X207791485Y-192285771D01*
X207934342Y-192357200D01*
X208005771Y-192428628D01*
X208077200Y-192571485D01*
X208077200Y-192714342D01*
X208005771Y-192928628D01*
X207148628Y-193785771D01*
X208077200Y-193785771D01*
X209005771Y-192285771D02*
X209148628Y-192285771D01*
X209291485Y-192357200D01*
X209362914Y-192428628D01*
X209434342Y-192571485D01*
X209505771Y-192857200D01*
X209505771Y-193214342D01*
X209434342Y-193500057D01*
X209362914Y-193642914D01*
X209291485Y-193714342D01*
X209148628Y-193785771D01*
X209005771Y-193785771D01*
X208862914Y-193714342D01*
X208791485Y-193642914D01*
X208720057Y-193500057D01*
X208648628Y-193214342D01*
X208648628Y-192857200D01*
X208720057Y-192571485D01*
X208791485Y-192428628D01*
X208862914Y-192357200D01*
X209005771Y-192285771D01*
X210077200Y-192428628D02*
X210148628Y-192357200D01*
X210291485Y-192285771D01*
X210648628Y-192285771D01*
X210791485Y-192357200D01*
X210862914Y-192428628D01*
X210934342Y-192571485D01*
X210934342Y-192714342D01*
X210862914Y-192928628D01*
X210005771Y-193785771D01*
X210934342Y-193785771D01*
X211505771Y-192428628D02*
X211577200Y-192357200D01*
X211720057Y-192285771D01*
X212077200Y-192285771D01*
X212220057Y-192357200D01*
X212291485Y-192428628D01*
X212362914Y-192571485D01*
X212362914Y-192714342D01*
X212291485Y-192928628D01*
X211434342Y-193785771D01*
X212362914Y-193785771D01*
X213005771Y-193214342D02*
X214148628Y-193214342D01*
X215648628Y-193785771D02*
X214791485Y-193785771D01*
X215220057Y-193785771D02*
X215220057Y-192285771D01*
X215077200Y-192500057D01*
X214934342Y-192642914D01*
X214791485Y-192714342D01*
X217077200Y-193785771D02*
X216220057Y-193785771D01*
X216648628Y-193785771D02*
X216648628Y-192285771D01*
X216505771Y-192500057D01*
X216362914Y-192642914D01*
X216220057Y-192714342D01*
X217720057Y-193214342D02*
X218862914Y-193214342D01*
X220362914Y-193785771D02*
X219505771Y-193785771D01*
X219934342Y-193785771D02*
X219934342Y-192285771D01*
X219791485Y-192500057D01*
X219648628Y-192642914D01*
X219505771Y-192714342D01*
X221291485Y-192285771D02*
X221434342Y-192285771D01*
X221577200Y-192357200D01*
X221648628Y-192428628D01*
X221720057Y-192571485D01*
X221791485Y-192857200D01*
X221791485Y-193214342D01*
X221720057Y-193500057D01*
X221648628Y-193642914D01*
X221577200Y-193714342D01*
X221434342Y-193785771D01*
X221291485Y-193785771D01*
X221148628Y-193714342D01*
X221077200Y-193642914D01*
X221005771Y-193500057D01*
X220934342Y-193214342D01*
X220934342Y-192857200D01*
X221005771Y-192571485D01*
X221077200Y-192428628D01*
X221148628Y-192357200D01*
X221291485Y-192285771D01*
D10*
D11*
X177002200Y-194507200D02*
X285002200Y-194507200D01*
D10*
D11*
X178434342Y-196585771D02*
X178434342Y-195085771D01*
X179291485Y-196585771D02*
X178648628Y-195728628D01*
X179291485Y-195085771D02*
X178434342Y-195942914D01*
X179934342Y-196585771D02*
X179934342Y-195585771D01*
X179934342Y-195085771D02*
X179862914Y-195157200D01*
X179934342Y-195228628D01*
X180005771Y-195157200D01*
X179934342Y-195085771D01*
X179934342Y-195228628D01*
X181505771Y-196442914D02*
X181434342Y-196514342D01*
X181220057Y-196585771D01*
X181077200Y-196585771D01*
X180862914Y-196514342D01*
X180720057Y-196371485D01*
X180648628Y-196228628D01*
X180577200Y-195942914D01*
X180577200Y-195728628D01*
X180648628Y-195442914D01*
X180720057Y-195300057D01*
X180862914Y-195157200D01*
X181077200Y-195085771D01*
X181220057Y-195085771D01*
X181434342Y-195157200D01*
X181505771Y-195228628D01*
X182791485Y-196585771D02*
X182791485Y-195800057D01*
X182720057Y-195657200D01*
X182577200Y-195585771D01*
X182291485Y-195585771D01*
X182148628Y-195657200D01*
X182791485Y-196514342D02*
X182648628Y-196585771D01*
X182291485Y-196585771D01*
X182148628Y-196514342D01*
X182077200Y-196371485D01*
X182077200Y-196228628D01*
X182148628Y-196085771D01*
X182291485Y-196014342D01*
X182648628Y-196014342D01*
X182791485Y-195942914D01*
X184148628Y-196585771D02*
X184148628Y-195085771D01*
X184148628Y-196514342D02*
X184005771Y-196585771D01*
X183720057Y-196585771D01*
X183577200Y-196514342D01*
X183505771Y-196442914D01*
X183434342Y-196300057D01*
X183434342Y-195871485D01*
X183505771Y-195728628D01*
X183577200Y-195657200D01*
X183720057Y-195585771D01*
X184005771Y-195585771D01*
X184148628Y-195657200D01*
X186005771Y-195800057D02*
X186505771Y-195800057D01*
X186720057Y-196585771D02*
X186005771Y-196585771D01*
X186005771Y-195085771D01*
X186720057Y-195085771D01*
X187362914Y-196442914D02*
X187434342Y-196514342D01*
X187362914Y-196585771D01*
X187291485Y-196514342D01*
X187362914Y-196442914D01*
X187362914Y-196585771D01*
X188077200Y-196585771D02*
X188077200Y-195085771D01*
X188434342Y-195085771D01*
X188648628Y-195157200D01*
X188791485Y-195300057D01*
X188862914Y-195442914D01*
X188934342Y-195728628D01*
X188934342Y-195942914D01*
X188862914Y-196228628D01*
X188791485Y-196371485D01*
X188648628Y-196514342D01*
X188434342Y-196585771D01*
X188077200Y-196585771D01*
X189577200Y-196442914D02*
X189648628Y-196514342D01*
X189577200Y-196585771D01*
X189505771Y-196514342D01*
X189577200Y-196442914D01*
X189577200Y-196585771D01*
X190220057Y-196157200D02*
X190934342Y-196157200D01*
X190077200Y-196585771D02*
X190577200Y-195085771D01*
X191077200Y-196585771D01*
X191577200Y-196442914D02*
X191648628Y-196514342D01*
X191577200Y-196585771D01*
X191505771Y-196514342D01*
X191577200Y-196442914D01*
X191577200Y-196585771D01*
X194577200Y-196585771D02*
X194577200Y-195085771D01*
X194720057Y-196014342D02*
X195148628Y-196585771D01*
X195148628Y-195585771D02*
X194577200Y-196157200D01*
X195791485Y-196585771D02*
X195791485Y-195585771D01*
X195791485Y-195085771D02*
X195720057Y-195157200D01*
X195791485Y-195228628D01*
X195862914Y-195157200D01*
X195791485Y-195085771D01*
X195791485Y-195228628D01*
X197148628Y-196514342D02*
X197005771Y-196585771D01*
X196720057Y-196585771D01*
X196577200Y-196514342D01*
X196505771Y-196442914D01*
X196434342Y-196300057D01*
X196434342Y-195871485D01*
X196505771Y-195728628D01*
X196577200Y-195657200D01*
X196720057Y-195585771D01*
X197005771Y-195585771D01*
X197148628Y-195657200D01*
X198434342Y-196585771D02*
X198434342Y-195800057D01*
X198362914Y-195657200D01*
X198220057Y-195585771D01*
X197934342Y-195585771D01*
X197791485Y-195657200D01*
X198434342Y-196514342D02*
X198291485Y-196585771D01*
X197934342Y-196585771D01*
X197791485Y-196514342D01*
X197720057Y-196371485D01*
X197720057Y-196228628D01*
X197791485Y-196085771D01*
X197934342Y-196014342D01*
X198291485Y-196014342D01*
X198434342Y-195942914D01*
X199791485Y-196585771D02*
X199791485Y-195085771D01*
X199791485Y-196514342D02*
X199648628Y-196585771D01*
X199362914Y-196585771D01*
X199220057Y-196514342D01*
X199148628Y-196442914D01*
X199077200Y-196300057D01*
X199077200Y-195871485D01*
X199148628Y-195728628D01*
X199220057Y-195657200D01*
X199362914Y-195585771D01*
X199648628Y-195585771D01*
X199791485Y-195657200D01*
X202077200Y-197157200D02*
X202005771Y-197085771D01*
X201862914Y-196871485D01*
X201791485Y-196728628D01*
X201720057Y-196514342D01*
X201648628Y-196157200D01*
X201648628Y-195871485D01*
X201720057Y-195514342D01*
X201791485Y-195300057D01*
X201862914Y-195157200D01*
X202005771Y-194942914D01*
X202077200Y-194871485D01*
X203291485Y-195085771D02*
X203005771Y-195085771D01*
X202862914Y-195157200D01*
X202791485Y-195228628D01*
X202648628Y-195442914D01*
X202577200Y-195728628D01*
X202577200Y-196300057D01*
X202648628Y-196442914D01*
X202720057Y-196514342D01*
X202862914Y-196585771D01*
X203148628Y-196585771D01*
X203291485Y-196514342D01*
X203362914Y-196442914D01*
X203434342Y-196300057D01*
X203434342Y-195942914D01*
X203362914Y-195800057D01*
X203291485Y-195728628D01*
X203148628Y-195657200D01*
X202862914Y-195657200D01*
X202720057Y-195728628D01*
X202648628Y-195800057D01*
X202577200Y-195942914D01*
X204077200Y-196442914D02*
X204148628Y-196514342D01*
X204077200Y-196585771D01*
X204005771Y-196514342D01*
X204077200Y-196442914D01*
X204077200Y-196585771D01*
X205077200Y-195085771D02*
X205220057Y-195085771D01*
X205362914Y-195157200D01*
X205434342Y-195228628D01*
X205505771Y-195371485D01*
X205577200Y-195657200D01*
X205577200Y-196014342D01*
X205505771Y-196300057D01*
X205434342Y-196442914D01*
X205362914Y-196514342D01*
X205220057Y-196585771D01*
X205077200Y-196585771D01*
X204934342Y-196514342D01*
X204862914Y-196442914D01*
X204791485Y-196300057D01*
X204720057Y-196014342D01*
X204720057Y-195657200D01*
X204791485Y-195371485D01*
X204862914Y-195228628D01*
X204934342Y-195157200D01*
X205077200Y-195085771D01*
X206220057Y-196442914D02*
X206291485Y-196514342D01*
X206220057Y-196585771D01*
X206148628Y-196514342D01*
X206220057Y-196442914D01*
X206220057Y-196585771D01*
X206791485Y-195085771D02*
X207791485Y-195085771D01*
X207148628Y-196585771D01*
X208220057Y-197157200D02*
X208291485Y-197085771D01*
X208434342Y-196871485D01*
X208505771Y-196728628D01*
X208577200Y-196514342D01*
X208648628Y-196157200D01*
X208648628Y-195871485D01*
X208577200Y-195514342D01*
X208505771Y-195300057D01*
X208434342Y-195157200D01*
X208291485Y-194942914D01*
X208220057Y-194871485D01*
D10*
D11*
X177002200Y-191507200D02*
X285002200Y-191507200D01*
D10*
D12*
X264411485Y-193785771D02*
X263911485Y-193071485D01*
X263554342Y-193785771D02*
X263554342Y-192285771D01*
X264125771Y-192285771D01*
X264268628Y-192357200D01*
X264340057Y-192428628D01*
X264411485Y-192571485D01*
X264411485Y-192785771D01*
X264340057Y-192928628D01*
X264268628Y-193000057D01*
X264125771Y-193071485D01*
X263554342Y-193071485D01*
X265625771Y-193714342D02*
X265482914Y-193785771D01*
X265197200Y-193785771D01*
X265054342Y-193714342D01*
X264982914Y-193571485D01*
X264982914Y-193000057D01*
X265054342Y-192857200D01*
X265197200Y-192785771D01*
X265482914Y-192785771D01*
X265625771Y-192857200D01*
X265697200Y-193000057D01*
X265697200Y-193142914D01*
X264982914Y-193285771D01*
X266197200Y-192785771D02*
X266554342Y-193785771D01*
X266911485Y-192785771D01*
X267482914Y-193642914D02*
X267554342Y-193714342D01*
X267482914Y-193785771D01*
X267411485Y-193714342D01*
X267482914Y-193642914D01*
X267482914Y-193785771D01*
X267482914Y-192857200D02*
X267554342Y-192928628D01*
X267482914Y-193000057D01*
X267411485Y-192928628D01*
X267482914Y-192857200D01*
X267482914Y-193000057D01*
X269197200Y-192785771D02*
X269554342Y-193785771D01*
X269911485Y-192785771D01*
X271268628Y-193785771D02*
X270411485Y-193785771D01*
X270840057Y-193785771D02*
X270840057Y-192285771D01*
X270697200Y-192500057D01*
X270554342Y-192642914D01*
X270411485Y-192714342D01*
X271911485Y-193642914D02*
X271982914Y-193714342D01*
X271911485Y-193785771D01*
X271840057Y-193714342D01*
X271911485Y-193642914D01*
X271911485Y-193785771D01*
X272482914Y-192285771D02*
X273411485Y-192285771D01*
X272911485Y-192857200D01*
X273125771Y-192857200D01*
X273268628Y-192928628D01*
X273340057Y-193000057D01*
X273411485Y-193142914D01*
X273411485Y-193500057D01*
X273340057Y-193642914D01*
X273268628Y-193714342D01*
X273125771Y-193785771D01*
X272697200Y-193785771D01*
X272554342Y-193714342D01*
X272482914Y-193642914D01*
D10*
D11*
X178362914Y-193714342D02*
X178577200Y-193785771D01*
X178934342Y-193785771D01*
X179077200Y-193714342D01*
X179148628Y-193642914D01*
X179220057Y-193500057D01*
X179220057Y-193357200D01*
X179148628Y-193214342D01*
X179077200Y-193142914D01*
X178934342Y-193071485D01*
X178648628Y-193000057D01*
X178505771Y-192928628D01*
X178434342Y-192857200D01*
X178362914Y-192714342D01*
X178362914Y-192571485D01*
X178434342Y-192428628D01*
X178505771Y-192357200D01*
X178648628Y-192285771D01*
X179005771Y-192285771D01*
X179220057Y-192357200D01*
X179862914Y-193785771D02*
X179862914Y-192785771D01*
X179862914Y-192285771D02*
X179791485Y-192357200D01*
X179862914Y-192428628D01*
X179934342Y-192357200D01*
X179862914Y-192285771D01*
X179862914Y-192428628D01*
X180434342Y-192785771D02*
X181220057Y-192785771D01*
X180434342Y-193785771D01*
X181220057Y-193785771D01*
X182362914Y-193714342D02*
X182220057Y-193785771D01*
X181934342Y-193785771D01*
X181791485Y-193714342D01*
X181720057Y-193571485D01*
X181720057Y-193000057D01*
X181791485Y-192857200D01*
X181934342Y-192785771D01*
X182220057Y-192785771D01*
X182362914Y-192857200D01*
X182434342Y-193000057D01*
X182434342Y-193142914D01*
X181720057Y-193285771D01*
X183077200Y-193642914D02*
X183148628Y-193714342D01*
X183077200Y-193785771D01*
X183005771Y-193714342D01*
X183077200Y-193642914D01*
X183077200Y-193785771D01*
X183077200Y-192857200D02*
X183148628Y-192928628D01*
X183077200Y-193000057D01*
X183005771Y-192928628D01*
X183077200Y-192857200D01*
X183077200Y-193000057D01*
X184862914Y-193357200D02*
X185577200Y-193357200D01*
X184720057Y-193785771D02*
X185220057Y-192285771D01*
X185720057Y-193785771D01*
X186862914Y-192785771D02*
X186862914Y-193785771D01*
X186505771Y-192214342D02*
X186148628Y-193285771D01*
X187077200Y-193285771D01*
D10*
D11*
X263434342Y-196585771D02*
X263434342Y-195085771D01*
X264791485Y-196585771D02*
X264791485Y-195085771D01*
X264791485Y-196514342D02*
X264648628Y-196585771D01*
X264362914Y-196585771D01*
X264220057Y-196514342D01*
X264148628Y-196442914D01*
X264077200Y-196300057D01*
X264077200Y-195871485D01*
X264148628Y-195728628D01*
X264220057Y-195657200D01*
X264362914Y-195585771D01*
X264648628Y-195585771D01*
X264791485Y-195657200D01*
X265505771Y-196442914D02*
X265577200Y-196514342D01*
X265505771Y-196585771D01*
X265434342Y-196514342D01*
X265505771Y-196442914D01*
X265505771Y-196585771D01*
X265505771Y-195657200D02*
X265577200Y-195728628D01*
X265505771Y-195800057D01*
X265434342Y-195728628D01*
X265505771Y-195657200D01*
X265505771Y-195800057D01*
X268148628Y-196585771D02*
X267291485Y-196585771D01*
X267720057Y-196585771D02*
X267720057Y-195085771D01*
X267577200Y-195300057D01*
X267434342Y-195442914D01*
X267291485Y-195514342D01*
X269862914Y-195014342D02*
X268577200Y-196942914D01*
X271148628Y-196585771D02*
X270291485Y-196585771D01*
X270720057Y-196585771D02*
X270720057Y-195085771D01*
X270577200Y-195300057D01*
X270434342Y-195442914D01*
X270291485Y-195514342D01*
D10*
D11*
X177002200Y-187507200D02*
X285002200Y-187507200D01*
D10*
D13*
X178714580Y-188211961D02*
X179857438Y-188211961D01*
X179036009Y-190211961D02*
X179286009Y-188211961D01*
X180274104Y-190211961D02*
X180440771Y-188878628D01*
X180524104Y-188211961D02*
X180416961Y-188307200D01*
X180500295Y-188402438D01*
X180607438Y-188307200D01*
X180524104Y-188211961D01*
X180500295Y-188402438D01*
X181107438Y-188878628D02*
X181869342Y-188878628D01*
X181476485Y-188211961D02*
X181262200Y-189926247D01*
X181333628Y-190116723D01*
X181512200Y-190211961D01*
X181702676Y-190211961D01*
X182655057Y-190211961D02*
X182476485Y-190116723D01*
X182405057Y-189926247D01*
X182619342Y-188211961D01*
X184190771Y-190116723D02*
X183988390Y-190211961D01*
X183607438Y-190211961D01*
X183428866Y-190116723D01*
X183357438Y-189926247D01*
X183452676Y-189164342D01*
X183571723Y-188973866D01*
X183774104Y-188878628D01*
X184155057Y-188878628D01*
X184333628Y-188973866D01*
X184405057Y-189164342D01*
X184381247Y-189354819D01*
X183405057Y-189545295D01*
X185155057Y-190021485D02*
X185238390Y-190116723D01*
X185131247Y-190211961D01*
X185047914Y-190116723D01*
X185155057Y-190021485D01*
X185131247Y-190211961D01*
X185286009Y-188973866D02*
X185369342Y-189069104D01*
X185262200Y-189164342D01*
X185178866Y-189069104D01*
X185286009Y-188973866D01*
X185262200Y-189164342D01*
X187857438Y-188211961D02*
X187655057Y-189831009D01*
X187726485Y-190021485D01*
X187809819Y-190116723D01*
X187988390Y-190211961D01*
X188369342Y-190211961D01*
X188571723Y-190116723D01*
X188678866Y-190021485D01*
X188797914Y-189831009D01*
X189000295Y-188211961D01*
X189619342Y-190116723D02*
X189893152Y-190211961D01*
X190369342Y-190211961D01*
X190571723Y-190116723D01*
X190678866Y-190021485D01*
X190797914Y-189831009D01*
X190821723Y-189640533D01*
X190750295Y-189450057D01*
X190666961Y-189354819D01*
X190488390Y-189259580D01*
X190119342Y-189164342D01*
X189940771Y-189069104D01*
X189857438Y-188973866D01*
X189786009Y-188783390D01*
X189809819Y-188592914D01*
X189928866Y-188402438D01*
X190036009Y-188307200D01*
X190238390Y-188211961D01*
X190714580Y-188211961D01*
X190988390Y-188307200D01*
X191607438Y-190211961D02*
X191857438Y-188211961D01*
X192345533Y-189640533D01*
X193190771Y-188211961D01*
X192940771Y-190211961D01*
X195036009Y-190211961D02*
X194488390Y-189259580D01*
X193893152Y-190211961D02*
X194143152Y-188211961D01*
X194905057Y-188211961D01*
X195083628Y-188307200D01*
X195166961Y-188402438D01*
X195238390Y-188592914D01*
X195202676Y-188878628D01*
X195083628Y-189069104D01*
X194976485Y-189164342D01*
X194774104Y-189259580D01*
X194012200Y-189259580D01*
X197547914Y-189164342D02*
X198214580Y-189164342D01*
X198369342Y-190211961D02*
X197416961Y-190211961D01*
X197666961Y-188211961D01*
X198619342Y-188211961D01*
X199393152Y-188878628D02*
X199226485Y-190211961D01*
X199369342Y-189069104D02*
X199476485Y-188973866D01*
X199678866Y-188878628D01*
X199964580Y-188878628D01*
X200143152Y-188973866D01*
X200214580Y-189164342D01*
X200083628Y-190211961D01*
X202059819Y-188878628D02*
X201857438Y-190497676D01*
X201738390Y-190688152D01*
X201631247Y-190783390D01*
X201428866Y-190878628D01*
X201143152Y-190878628D01*
X200964580Y-190783390D01*
X201905057Y-190116723D02*
X201702676Y-190211961D01*
X201321723Y-190211961D01*
X201143152Y-190116723D01*
X201059819Y-190021485D01*
X200988390Y-189831009D01*
X201059819Y-189259580D01*
X201178866Y-189069104D01*
X201286009Y-188973866D01*
X201488390Y-188878628D01*
X201869342Y-188878628D01*
X202047914Y-188973866D01*
X202845533Y-190211961D02*
X203012200Y-188878628D01*
X203095533Y-188211961D02*
X202988390Y-188307200D01*
X203071723Y-188402438D01*
X203178866Y-188307200D01*
X203095533Y-188211961D01*
X203071723Y-188402438D01*
X203964580Y-188878628D02*
X203797914Y-190211961D01*
X203940771Y-189069104D02*
X204047914Y-188973866D01*
X204250295Y-188878628D01*
X204536009Y-188878628D01*
X204714580Y-188973866D01*
X204786009Y-189164342D01*
X204655057Y-190211961D01*
X206381247Y-190116723D02*
X206178866Y-190211961D01*
X205797914Y-190211961D01*
X205619342Y-190116723D01*
X205547914Y-189926247D01*
X205643152Y-189164342D01*
X205762200Y-188973866D01*
X205964580Y-188878628D01*
X206345533Y-188878628D01*
X206524104Y-188973866D01*
X206595533Y-189164342D01*
X206571723Y-189354819D01*
X205595533Y-189545295D01*
X208095533Y-190116723D02*
X207893152Y-190211961D01*
X207512200Y-190211961D01*
X207333628Y-190116723D01*
X207262200Y-189926247D01*
X207357438Y-189164342D01*
X207476485Y-188973866D01*
X207678866Y-188878628D01*
X208059819Y-188878628D01*
X208238390Y-188973866D01*
X208309819Y-189164342D01*
X208286009Y-189354819D01*
X207309819Y-189545295D01*
X209036009Y-190211961D02*
X209202676Y-188878628D01*
X209155057Y-189259580D02*
X209274104Y-189069104D01*
X209381247Y-188973866D01*
X209583628Y-188878628D01*
X209774104Y-188878628D01*
X210274104Y-190211961D02*
X210440771Y-188878628D01*
X210524104Y-188211961D02*
X210416961Y-188307200D01*
X210500295Y-188402438D01*
X210607438Y-188307200D01*
X210524104Y-188211961D01*
X210500295Y-188402438D01*
X211393152Y-188878628D02*
X211226485Y-190211961D01*
X211369342Y-189069104D02*
X211476485Y-188973866D01*
X211678866Y-188878628D01*
X211964580Y-188878628D01*
X212143152Y-188973866D01*
X212214580Y-189164342D01*
X212083628Y-190211961D01*
X214059819Y-188878628D02*
X213857438Y-190497676D01*
X213738390Y-190688152D01*
X213631247Y-190783390D01*
X213428866Y-190878628D01*
X213143152Y-190878628D01*
X212964580Y-190783390D01*
X213905057Y-190116723D02*
X213702676Y-190211961D01*
X213321723Y-190211961D01*
X213143152Y-190116723D01*
X213059819Y-190021485D01*
X212988390Y-189831009D01*
X213059819Y-189259580D01*
X213178866Y-189069104D01*
X213286009Y-188973866D01*
X213488390Y-188878628D01*
X213869342Y-188878628D01*
X214047914Y-188973866D01*
X217166961Y-189164342D02*
X217440771Y-189259580D01*
X217524104Y-189354819D01*
X217595533Y-189545295D01*
X217559819Y-189831009D01*
X217440771Y-190021485D01*
X217333628Y-190116723D01*
X217131247Y-190211961D01*
X216369342Y-190211961D01*
X216619342Y-188211961D01*
X217286009Y-188211961D01*
X217464580Y-188307200D01*
X217547914Y-188402438D01*
X217619342Y-188592914D01*
X217595533Y-188783390D01*
X217476485Y-188973866D01*
X217369342Y-189069104D01*
X217166961Y-189164342D01*
X216500295Y-189164342D01*
X218655057Y-190211961D02*
X218476485Y-190116723D01*
X218393152Y-190021485D01*
X218321723Y-189831009D01*
X218393152Y-189259580D01*
X218512200Y-189069104D01*
X218619342Y-188973866D01*
X218821723Y-188878628D01*
X219107438Y-188878628D01*
X219286009Y-188973866D01*
X219369342Y-189069104D01*
X219440771Y-189259580D01*
X219369342Y-189831009D01*
X219250295Y-190021485D01*
X219143152Y-190116723D01*
X218940771Y-190211961D01*
X218655057Y-190211961D01*
X221036009Y-190211961D02*
X221166961Y-189164342D01*
X221095533Y-188973866D01*
X220916961Y-188878628D01*
X220536009Y-188878628D01*
X220333628Y-188973866D01*
X221047914Y-190116723D02*
X220845533Y-190211961D01*
X220369342Y-190211961D01*
X220190771Y-190116723D01*
X220119342Y-189926247D01*
X220143152Y-189735771D01*
X220262200Y-189545295D01*
X220464580Y-189450057D01*
X220940771Y-189450057D01*
X221143152Y-189354819D01*
X221988390Y-190211961D02*
X222155057Y-188878628D01*
X222107438Y-189259580D02*
X222226485Y-189069104D01*
X222333628Y-188973866D01*
X222536009Y-188878628D01*
X222726485Y-188878628D01*
X224083628Y-190211961D02*
X224333628Y-188211961D01*
X224095533Y-190116723D02*
X223893152Y-190211961D01*
X223512199Y-190211961D01*
X223333628Y-190116723D01*
X223250295Y-190021485D01*
X223178866Y-189831009D01*
X223250295Y-189259580D01*
X223369342Y-189069104D01*
X223476485Y-188973866D01*
X223678866Y-188878628D01*
X224059819Y-188878628D01*
X224238390Y-188973866D01*
D10*
D11*
X178934342Y-185600057D02*
X178434342Y-185600057D01*
X178434342Y-186385771D02*
X178434342Y-184885771D01*
X179148628Y-184885771D01*
X179720057Y-186385771D02*
X179720057Y-185385771D01*
X179720057Y-184885771D02*
X179648628Y-184957200D01*
X179720057Y-185028628D01*
X179791485Y-184957200D01*
X179720057Y-184885771D01*
X179720057Y-185028628D01*
X180648628Y-186385771D02*
X180505771Y-186314342D01*
X180434342Y-186171485D01*
X180434342Y-184885771D01*
X181791485Y-186314342D02*
X181648628Y-186385771D01*
X181362914Y-186385771D01*
X181220057Y-186314342D01*
X181148628Y-186171485D01*
X181148628Y-185600057D01*
X181220057Y-185457200D01*
X181362914Y-185385771D01*
X181648628Y-185385771D01*
X181791485Y-185457200D01*
X181862914Y-185600057D01*
X181862914Y-185742914D01*
X181148628Y-185885771D01*
X182505771Y-186242914D02*
X182577200Y-186314342D01*
X182505771Y-186385771D01*
X182434342Y-186314342D01*
X182505771Y-186242914D01*
X182505771Y-186385771D01*
X182505771Y-185457200D02*
X182577200Y-185528628D01*
X182505771Y-185600057D01*
X182434342Y-185528628D01*
X182505771Y-185457200D01*
X182505771Y-185600057D01*
X184362914Y-186385771D02*
X184362914Y-184885771D01*
X184720057Y-184885771D01*
X184934342Y-184957200D01*
X185077200Y-185100057D01*
X185148628Y-185242914D01*
X185220057Y-185528628D01*
X185220057Y-185742914D01*
X185148628Y-186028628D01*
X185077200Y-186171485D01*
X184934342Y-186314342D01*
X184720057Y-186385771D01*
X184362914Y-186385771D01*
X186720057Y-186242914D02*
X186648628Y-186314342D01*
X186434342Y-186385771D01*
X186291485Y-186385771D01*
X186077200Y-186314342D01*
X185934342Y-186171485D01*
X185862914Y-186028628D01*
X185791485Y-185742914D01*
X185791485Y-185528628D01*
X185862914Y-185242914D01*
X185934342Y-185100057D01*
X186077200Y-184957200D01*
X186291485Y-184885771D01*
X186434342Y-184885771D01*
X186648628Y-184957200D01*
X186720057Y-185028628D01*
X187291485Y-185957200D02*
X188005771Y-185957200D01*
X187148628Y-186385771D02*
X187648628Y-184885771D01*
X188148628Y-186385771D01*
X188291485Y-186528628D02*
X189434342Y-186528628D01*
X189791485Y-184885771D02*
X189791485Y-186100057D01*
X189862914Y-186242914D01*
X189934342Y-186314342D01*
X190077200Y-186385771D01*
X190362914Y-186385771D01*
X190505771Y-186314342D01*
X190577200Y-186242914D01*
X190648628Y-186100057D01*
X190648628Y-184885771D01*
X191291485Y-186314342D02*
X191505771Y-186385771D01*
X191862914Y-186385771D01*
X192005771Y-186314342D01*
X192077200Y-186242914D01*
X192148628Y-186100057D01*
X192148628Y-185957200D01*
X192077200Y-185814342D01*
X192005771Y-185742914D01*
X191862914Y-185671485D01*
X191577200Y-185600057D01*
X191434342Y-185528628D01*
X191362914Y-185457200D01*
X191291485Y-185314342D01*
X191291485Y-185171485D01*
X191362914Y-185028628D01*
X191434342Y-184957200D01*
X191577200Y-184885771D01*
X191934342Y-184885771D01*
X192148628Y-184957200D01*
X192791485Y-186385771D02*
X192791485Y-184885771D01*
X193291485Y-185957200D01*
X193791485Y-184885771D01*
X193791485Y-186385771D01*
X195362914Y-186385771D02*
X194862914Y-185671485D01*
X194505771Y-186385771D02*
X194505771Y-184885771D01*
X195077200Y-184885771D01*
X195220057Y-184957200D01*
X195291485Y-185028628D01*
X195362914Y-185171485D01*
X195362914Y-185385771D01*
X195291485Y-185528628D01*
X195220057Y-185600057D01*
X195077200Y-185671485D01*
X194505771Y-185671485D01*
X195648628Y-186528628D02*
X196791485Y-186528628D01*
X197077200Y-186314342D02*
X197220057Y-186385771D01*
X197505771Y-186385771D01*
X197648628Y-186314342D01*
X197720057Y-186171485D01*
X197720057Y-186100057D01*
X197648628Y-185957200D01*
X197505771Y-185885771D01*
X197291485Y-185885771D01*
X197148628Y-185814342D01*
X197077200Y-185671485D01*
X197077200Y-185600057D01*
X197148628Y-185457200D01*
X197291485Y-185385771D01*
X197505771Y-185385771D01*
X197648628Y-185457200D01*
X199005771Y-186314342D02*
X198862914Y-186385771D01*
X198577200Y-186385771D01*
X198434342Y-186314342D01*
X198362914Y-186242914D01*
X198291485Y-186100057D01*
X198291485Y-185671485D01*
X198362914Y-185528628D01*
X198434342Y-185457200D01*
X198577200Y-185385771D01*
X198862914Y-185385771D01*
X199005771Y-185457200D01*
X199648628Y-186385771D02*
X199648628Y-184885771D01*
X200291485Y-186385771D02*
X200291485Y-185600057D01*
X200220057Y-185457200D01*
X200077200Y-185385771D01*
X199862914Y-185385771D01*
X199720057Y-185457200D01*
X199648628Y-185528628D01*
X201005771Y-186242914D02*
X201077200Y-186314342D01*
X201005771Y-186385771D01*
X200934342Y-186314342D01*
X201005771Y-186242914D01*
X201005771Y-186385771D01*
X201720057Y-186385771D02*
X201720057Y-184885771D01*
X201862914Y-185814342D02*
X202291485Y-186385771D01*
X202291485Y-185385771D02*
X201720057Y-185957200D01*
X202934342Y-186385771D02*
X202934342Y-185385771D01*
X202934342Y-184885771D02*
X202862914Y-184957200D01*
X202934342Y-185028628D01*
X203005771Y-184957200D01*
X202934342Y-184885771D01*
X202934342Y-185028628D01*
X204291485Y-186314342D02*
X204148628Y-186385771D01*
X203862914Y-186385771D01*
X203720057Y-186314342D01*
X203648628Y-186242914D01*
X203577200Y-186100057D01*
X203577200Y-185671485D01*
X203648628Y-185528628D01*
X203720057Y-185457200D01*
X203862914Y-185385771D01*
X204148628Y-185385771D01*
X204291485Y-185457200D01*
X205577200Y-186385771D02*
X205577200Y-185600057D01*
X205505771Y-185457200D01*
X205362914Y-185385771D01*
X205077200Y-185385771D01*
X204934342Y-185457200D01*
X205577200Y-186314342D02*
X205434342Y-186385771D01*
X205077200Y-186385771D01*
X204934342Y-186314342D01*
X204862914Y-186171485D01*
X204862914Y-186028628D01*
X204934342Y-185885771D01*
X205077200Y-185814342D01*
X205434342Y-185814342D01*
X205577200Y-185742914D01*
X206934342Y-186385771D02*
X206934342Y-184885771D01*
X206934342Y-186314342D02*
X206791485Y-186385771D01*
X206505771Y-186385771D01*
X206362914Y-186314342D01*
X206291485Y-186242914D01*
X206220057Y-186100057D01*
X206220057Y-185671485D01*
X206291485Y-185528628D01*
X206362914Y-185457200D01*
X206505771Y-185385771D01*
X206791485Y-185385771D01*
X206934342Y-185457200D01*
X207291485Y-186528628D02*
X208434342Y-186528628D01*
X208791485Y-185385771D02*
X208791485Y-186885771D01*
X208791485Y-185457200D02*
X208934342Y-185385771D01*
X209220057Y-185385771D01*
X209362914Y-185457200D01*
X209434342Y-185528628D01*
X209505771Y-185671485D01*
X209505771Y-186100057D01*
X209434342Y-186242914D01*
X209362914Y-186314342D01*
X209220057Y-186385771D01*
X208934342Y-186385771D01*
X208791485Y-186314342D01*
X210791485Y-186314342D02*
X210648628Y-186385771D01*
X210362914Y-186385771D01*
X210220057Y-186314342D01*
X210148628Y-186242914D01*
X210077200Y-186100057D01*
X210077200Y-185671485D01*
X210148628Y-185528628D01*
X210220057Y-185457200D01*
X210362914Y-185385771D01*
X210648628Y-185385771D01*
X210791485Y-185457200D01*
X211434342Y-186385771D02*
X211434342Y-184885771D01*
X211434342Y-185457200D02*
X211577200Y-185385771D01*
X211862914Y-185385771D01*
X212005771Y-185457200D01*
X212077200Y-185528628D01*
X212148628Y-185671485D01*
X212148628Y-186100057D01*
X212077200Y-186242914D01*
X212005771Y-186314342D01*
X211862914Y-186385771D01*
X211577200Y-186385771D01*
X211434342Y-186314342D01*
D10*
D11*
X177002200Y-181507200D02*
X285002200Y-181507200D01*
D10*
D11*
X178362914Y-183614342D02*
X178577200Y-183685771D01*
X178934342Y-183685771D01*
X179077200Y-183614342D01*
X179148628Y-183542914D01*
X179220057Y-183400057D01*
X179220057Y-183257200D01*
X179148628Y-183114342D01*
X179077200Y-183042914D01*
X178934342Y-182971485D01*
X178648628Y-182900057D01*
X178505771Y-182828628D01*
X178434342Y-182757200D01*
X178362914Y-182614342D01*
X178362914Y-182471485D01*
X178434342Y-182328628D01*
X178505771Y-182257200D01*
X178648628Y-182185771D01*
X179005771Y-182185771D01*
X179220057Y-182257200D01*
X179862914Y-183685771D02*
X179862914Y-182185771D01*
X180505771Y-183685771D02*
X180505771Y-182900057D01*
X180434342Y-182757200D01*
X180291485Y-182685771D01*
X180077200Y-182685771D01*
X179934342Y-182757200D01*
X179862914Y-182828628D01*
X181791485Y-183614342D02*
X181648628Y-183685771D01*
X181362914Y-183685771D01*
X181220057Y-183614342D01*
X181148628Y-183471485D01*
X181148628Y-182900057D01*
X181220057Y-182757200D01*
X181362914Y-182685771D01*
X181648628Y-182685771D01*
X181791485Y-182757200D01*
X181862914Y-182900057D01*
X181862914Y-183042914D01*
X181148628Y-183185771D01*
X183077200Y-183614342D02*
X182934342Y-183685771D01*
X182648628Y-183685771D01*
X182505771Y-183614342D01*
X182434342Y-183471485D01*
X182434342Y-182900057D01*
X182505771Y-182757200D01*
X182648628Y-182685771D01*
X182934342Y-182685771D01*
X183077200Y-182757200D01*
X183148628Y-182900057D01*
X183148628Y-183042914D01*
X182434342Y-183185771D01*
X183577200Y-182685771D02*
X184148628Y-182685771D01*
X183791485Y-182185771D02*
X183791485Y-183471485D01*
X183862914Y-183614342D01*
X184005771Y-183685771D01*
X184148628Y-183685771D01*
X184648628Y-183542914D02*
X184720057Y-183614342D01*
X184648628Y-183685771D01*
X184577200Y-183614342D01*
X184648628Y-183542914D01*
X184648628Y-183685771D01*
X184648628Y-182757200D02*
X184720057Y-182828628D01*
X184648628Y-182900057D01*
X184577200Y-182828628D01*
X184648628Y-182757200D01*
X184648628Y-182900057D01*
D10*
D12*
X178554342Y-180685771D02*
X178554342Y-179185771D01*
X178911485Y-179185771D01*
X179125771Y-179257200D01*
X179268628Y-179400057D01*
X179340057Y-179542914D01*
X179411485Y-179828628D01*
X179411485Y-180042914D01*
X179340057Y-180328628D01*
X179268628Y-180471485D01*
X179125771Y-180614342D01*
X178911485Y-180685771D01*
X178554342Y-180685771D01*
X180911485Y-180542914D02*
X180840057Y-180614342D01*
X180625771Y-180685771D01*
X180482914Y-180685771D01*
X180268628Y-180614342D01*
X180125771Y-180471485D01*
X180054342Y-180328628D01*
X179982914Y-180042914D01*
X179982914Y-179828628D01*
X180054342Y-179542914D01*
X180125771Y-179400057D01*
X180268628Y-179257200D01*
X180482914Y-179185771D01*
X180625771Y-179185771D01*
X180840057Y-179257200D01*
X180911485Y-179328628D01*
X181482914Y-180257200D02*
X182197200Y-180257200D01*
X181340057Y-180685771D02*
X181840057Y-179185771D01*
X182340057Y-180685771D01*
D10*
D11*
D10*
D11*
D10*
D11*
D10*
D11*
D10*
D11*
X197002200Y-191507200D02*
X197002200Y-194507200D01*
D10*
D11*
X261002200Y-191507200D02*
X261002200Y-198007200D01*
D14*
X200980000Y-92210000D02*
X267020000Y-92210000D01*
X267020000Y-92210000D02*
X267020000Y-160800000D01*
X267020000Y-160800000D02*
X200980000Y-160800000D01*
X200980000Y-160800000D02*
X200980000Y-92210000D01*
D15*
%TO.N,VDD*%
%TO.C,J1*%
X202600000Y-107500000D03*
D16*
%TO.N,GND*%
X204600000Y-107500000D03*
X202600000Y-109500000D03*
%TO.N,Net-(C9-Pad1)*%
X204600000Y-109500000D03*
%TO.N,Net-(J1-Pad5)*%
X202600000Y-111500000D03*
%TO.N,Net-(J1-Pad6)*%
X204600000Y-111500000D03*
%TD*%
D17*
%TO.N,Net-(C17-Pad2)*%
%TO.C,Y1*%
X204371645Y-122236601D03*
%TO.N,Net-(C16-Pad2)*%
X204371645Y-117356601D03*
%TD*%
D18*
%TO.N,GND*%
X232800000Y-117733334D03*
X229900000Y-111933334D03*
X258500000Y-115300000D03*
X230000000Y-125100000D03*
X255700000Y-110700000D03*
X236866667Y-120700000D03*
X239600000Y-120700000D03*
X229900000Y-103833334D03*
X227100000Y-116100000D03*
X229900000Y-117400000D03*
X258500000Y-106533333D03*
X227200000Y-126533334D03*
X234433334Y-139000000D03*
X227100000Y-105266667D03*
X247200000Y-106649642D03*
X246400000Y-118000000D03*
X232800000Y-109533334D03*
X235600000Y-116300000D03*
X245800000Y-109500000D03*
X253800000Y-133700000D03*
X230000000Y-119633334D03*
X217890884Y-109507032D03*
X229900000Y-109300000D03*
X252000000Y-123600000D03*
X222637843Y-130454589D03*
X218000000Y-124700000D03*
X245100000Y-120800000D03*
X227300000Y-134233334D03*
X217596444Y-117921400D03*
X240774998Y-118482000D03*
X210271645Y-119622101D03*
X232833334Y-123500000D03*
X240400000Y-103600000D03*
X227533334Y-136200000D03*
X230000000Y-122366667D03*
X230100000Y-132800000D03*
X230100000Y-127333334D03*
X256100000Y-137900000D03*
X244300000Y-109500000D03*
X258500000Y-103800000D03*
X255700000Y-119466666D03*
X235600000Y-113566667D03*
X223800000Y-112600000D03*
X227200000Y-121066667D03*
X244288672Y-106655663D03*
X234133334Y-120700000D03*
X253800000Y-135100000D03*
X227300000Y-128766667D03*
X206099999Y-107629999D03*
X255700000Y-102500000D03*
X249266666Y-123600000D03*
X245800000Y-108100000D03*
X207571645Y-117496601D03*
X227100000Y-118833334D03*
X255700000Y-107966666D03*
X238066667Y-135400000D03*
X235600000Y-110833334D03*
X230266667Y-136200000D03*
X243800000Y-123600000D03*
X228966667Y-139000000D03*
X258500000Y-118033333D03*
X231700000Y-139000000D03*
X232800000Y-112266667D03*
X246533333Y-123600000D03*
X247833333Y-120800000D03*
X230100000Y-130066667D03*
X227300000Y-131500000D03*
X244300000Y-108100000D03*
X258500000Y-109266666D03*
X258500000Y-120766666D03*
X233000000Y-136200000D03*
X235600000Y-119033334D03*
X236766667Y-138200000D03*
X255700000Y-122200000D03*
X202580965Y-127287281D03*
X255700000Y-105233333D03*
X255700000Y-114000000D03*
X227100000Y-113366667D03*
X227100000Y-110733334D03*
X207739999Y-103769999D03*
X240800000Y-135400000D03*
X227200000Y-123800000D03*
X207571645Y-123396601D03*
X208801645Y-116366601D03*
X235333334Y-135400000D03*
X245800000Y-106640884D03*
X242333334Y-120700000D03*
X208816645Y-114451601D03*
X229900000Y-106566667D03*
X239500000Y-138200000D03*
X235566667Y-123500000D03*
X247200000Y-108100000D03*
X227100000Y-108000000D03*
X241033334Y-123500000D03*
X253300000Y-120800000D03*
X258500000Y-112000000D03*
X203361103Y-134448222D03*
X229900000Y-114666667D03*
X255700000Y-116733333D03*
X250566666Y-120800000D03*
X238300000Y-123500000D03*
X253800000Y-132100000D03*
X258500000Y-123500000D03*
X232800000Y-115000000D03*
X242233334Y-138200000D03*
X247200000Y-109500000D03*
%TO.N,VDD*%
X252000000Y-131200000D03*
X223700000Y-110600000D03*
X242914998Y-111500000D03*
X210571645Y-123596601D03*
X213676430Y-115272600D03*
X210331914Y-121721101D03*
X206830000Y-111181000D03*
X219100000Y-136700000D03*
X208939999Y-103729999D03*
X207709999Y-108034499D03*
X202560000Y-106180000D03*
X252000000Y-134300000D03*
X236300049Y-99700000D03*
X252000000Y-132800000D03*
%TO.N,Net-(C9-Pad1)*%
X206468809Y-106291409D03*
%TO.N,Net-(J2-Pad1)*%
X212800000Y-140200000D03*
X205200000Y-140100000D03*
%TO.N,Net-(J2-Pad2)*%
X213717982Y-140595360D03*
X206500000Y-140924500D03*
%TO.N,SENSOR1_IN*%
X224400000Y-140500000D03*
X216056047Y-109880197D03*
%TO.N,SENSOR1_OUT*%
X225600000Y-140500000D03*
X216328937Y-110841725D03*
%TO.N,Net-(R8-Pad1)*%
X216887435Y-124259544D03*
X214200000Y-125700000D03*
X216300000Y-127900000D03*
%TO.N,Net-(R9-Pad2)*%
X213772117Y-126603285D03*
X216894043Y-123260063D03*
X217400000Y-128700000D03*
%TO.N,ENC_EXTINT*%
X212629437Y-107700000D03*
X220900000Y-122300000D03*
%TO.N,WINC_EXTINT*%
X229600000Y-102074500D03*
X236995337Y-100601709D03*
%TO.N,ENC_RESET*%
X214190216Y-113535915D03*
X213394657Y-106817649D03*
%TO.N,WINC_RESET*%
X251900000Y-109600000D03*
X236200000Y-106100000D03*
%TO.N,WINC_CHIP_EN*%
X241613259Y-112357759D03*
X236200000Y-107400000D03*
%TO.N,SENSOR2_IN*%
X217073296Y-110174691D03*
X241000000Y-140500000D03*
%TO.N,SENSOR2_OUT*%
X242300000Y-140600000D03*
X217861528Y-110789261D03*
%TO.N,ENC_MOSI*%
X222000000Y-118800000D03*
X215591602Y-106629401D03*
%TO.N,ENC_MISO*%
X221100000Y-116875500D03*
X217500000Y-106100000D03*
%TO.N,ENC_SCK*%
X214400890Y-107183717D03*
X220800000Y-119121101D03*
%TO.N,ENC_SS*%
X216475402Y-106100000D03*
X222000000Y-117600000D03*
%TO.N,WINC_MISO*%
X236235226Y-104084324D03*
X240600000Y-108114651D03*
%TO.N,WINC_SS*%
X236270837Y-102800000D03*
X240637701Y-106862299D03*
%TO.N,Net-(U1-Pad3)*%
X216849340Y-108057962D03*
X255200000Y-98700000D03*
%TO.N,WINC_SCK*%
X236262299Y-101537701D03*
X241635115Y-106797727D03*
%TO.N,Net-(U1-Pad4)*%
X216963997Y-109100000D03*
X255151347Y-101097599D03*
%TD*%
%TA.AperFunction,Conductor*%
%TO.N,GND*%
G36*
X254482938Y-97920002D02*
G01*
X254529431Y-97973658D01*
X254539535Y-98043932D01*
X254508454Y-98110308D01*
X254460960Y-98163056D01*
X254365473Y-98328444D01*
X254306458Y-98510072D01*
X254286496Y-98700000D01*
X254306458Y-98889928D01*
X254365473Y-99071556D01*
X254460960Y-99236944D01*
X254588747Y-99378866D01*
X254743248Y-99491118D01*
X254749276Y-99493802D01*
X254749278Y-99493803D01*
X254800558Y-99516634D01*
X254917712Y-99568794D01*
X255011112Y-99588647D01*
X255098056Y-99607128D01*
X255098061Y-99607128D01*
X255104513Y-99608500D01*
X255295487Y-99608500D01*
X255301939Y-99607128D01*
X255301944Y-99607128D01*
X255388887Y-99588647D01*
X255482288Y-99568794D01*
X255599442Y-99516634D01*
X255650722Y-99493803D01*
X255650724Y-99493802D01*
X255656752Y-99491118D01*
X255811253Y-99378866D01*
X255939040Y-99236944D01*
X256034527Y-99071556D01*
X256093542Y-98889928D01*
X256113504Y-98700000D01*
X256093542Y-98510072D01*
X256034527Y-98328444D01*
X255939040Y-98163056D01*
X255891546Y-98110308D01*
X255860830Y-98046303D01*
X255869593Y-97975850D01*
X255915056Y-97921318D01*
X255985183Y-97900000D01*
X266385500Y-97900000D01*
X266453621Y-97920002D01*
X266500114Y-97973658D01*
X266511500Y-98026000D01*
X266511500Y-160165500D01*
X266491498Y-160233621D01*
X266437842Y-160280114D01*
X266385500Y-160291500D01*
X201614500Y-160291500D01*
X201546379Y-160271498D01*
X201499886Y-160217842D01*
X201488500Y-160165500D01*
X201488500Y-158861744D01*
X258185556Y-158861744D01*
X258203481Y-159058707D01*
X258259321Y-159248438D01*
X258262174Y-159253896D01*
X258262176Y-159253900D01*
X258309631Y-159344672D01*
X258350951Y-159423709D01*
X258474879Y-159577844D01*
X258479603Y-159581808D01*
X258486844Y-159587884D01*
X258626385Y-159704973D01*
X258631783Y-159707940D01*
X258631788Y-159707944D01*
X258775091Y-159786724D01*
X258799698Y-159800252D01*
X258805565Y-159802113D01*
X258805567Y-159802114D01*
X258982347Y-159858192D01*
X258988217Y-159860054D01*
X259142138Y-159877319D01*
X259248680Y-159877319D01*
X259251736Y-159877019D01*
X259251743Y-159877019D01*
X259310251Y-159871282D01*
X259395744Y-159862899D01*
X259401645Y-159861117D01*
X259401647Y-159861117D01*
X259474964Y-159838981D01*
X259585080Y-159805735D01*
X259759707Y-159712885D01*
X259845973Y-159642528D01*
X259908198Y-159591779D01*
X259908201Y-159591776D01*
X259912973Y-159587884D01*
X259925255Y-159573038D01*
X260035112Y-159440244D01*
X260035114Y-159440240D01*
X260039041Y-159435494D01*
X260133109Y-159261520D01*
X260191593Y-159072587D01*
X260212266Y-158875894D01*
X260194341Y-158678931D01*
X260138501Y-158489200D01*
X260128830Y-158470700D01*
X260049724Y-158319387D01*
X260046871Y-158313929D01*
X259922943Y-158159794D01*
X259916638Y-158154503D01*
X259900245Y-158140748D01*
X259771437Y-158032665D01*
X259766039Y-158029698D01*
X259766034Y-158029694D01*
X259603519Y-157940352D01*
X259603520Y-157940352D01*
X259598124Y-157937386D01*
X259592257Y-157935525D01*
X259592255Y-157935524D01*
X259415475Y-157879446D01*
X259415474Y-157879446D01*
X259409605Y-157877584D01*
X259255684Y-157860319D01*
X259149142Y-157860319D01*
X259146086Y-157860619D01*
X259146079Y-157860619D01*
X259087571Y-157866356D01*
X259002078Y-157874739D01*
X258996177Y-157876521D01*
X258996175Y-157876521D01*
X258922858Y-157898657D01*
X258812742Y-157931903D01*
X258638115Y-158024753D01*
X258551849Y-158095110D01*
X258489624Y-158145859D01*
X258489621Y-158145862D01*
X258484849Y-158149754D01*
X258480922Y-158154501D01*
X258480920Y-158154503D01*
X258362710Y-158297394D01*
X258362708Y-158297398D01*
X258358781Y-158302144D01*
X258264713Y-158476118D01*
X258206229Y-158665051D01*
X258185556Y-158861744D01*
X201488500Y-158861744D01*
X201488500Y-153861744D01*
X258185556Y-153861744D01*
X258203481Y-154058707D01*
X258259321Y-154248438D01*
X258262174Y-154253896D01*
X258262176Y-154253900D01*
X258309631Y-154344672D01*
X258350951Y-154423709D01*
X258474879Y-154577844D01*
X258479603Y-154581808D01*
X258486844Y-154587884D01*
X258626385Y-154704973D01*
X258631783Y-154707940D01*
X258631788Y-154707944D01*
X258775091Y-154786724D01*
X258799698Y-154800252D01*
X258805565Y-154802113D01*
X258805567Y-154802114D01*
X258982347Y-154858192D01*
X258988217Y-154860054D01*
X259142138Y-154877319D01*
X259248680Y-154877319D01*
X259251736Y-154877019D01*
X259251743Y-154877019D01*
X259310251Y-154871282D01*
X259395744Y-154862899D01*
X259401645Y-154861117D01*
X259401647Y-154861117D01*
X259474964Y-154838981D01*
X259585080Y-154805735D01*
X259759707Y-154712885D01*
X259845973Y-154642528D01*
X259908198Y-154591779D01*
X259908201Y-154591776D01*
X259912973Y-154587884D01*
X259925255Y-154573038D01*
X260035112Y-154440244D01*
X260035114Y-154440240D01*
X260039041Y-154435494D01*
X260133109Y-154261520D01*
X260191593Y-154072587D01*
X260212266Y-153875894D01*
X260194341Y-153678931D01*
X260138501Y-153489200D01*
X260128830Y-153470700D01*
X260049724Y-153319387D01*
X260046871Y-153313929D01*
X259922943Y-153159794D01*
X259916638Y-153154503D01*
X259900245Y-153140748D01*
X259771437Y-153032665D01*
X259766039Y-153029698D01*
X259766034Y-153029694D01*
X259603519Y-152940352D01*
X259603520Y-152940352D01*
X259598124Y-152937386D01*
X259592257Y-152935525D01*
X259592255Y-152935524D01*
X259415475Y-152879446D01*
X259415474Y-152879446D01*
X259409605Y-152877584D01*
X259255684Y-152860319D01*
X259149142Y-152860319D01*
X259146086Y-152860619D01*
X259146079Y-152860619D01*
X259087571Y-152866356D01*
X259002078Y-152874739D01*
X258996177Y-152876521D01*
X258996175Y-152876521D01*
X258922858Y-152898657D01*
X258812742Y-152931903D01*
X258638115Y-153024753D01*
X258551849Y-153095110D01*
X258489624Y-153145859D01*
X258489621Y-153145862D01*
X258484849Y-153149754D01*
X258480922Y-153154501D01*
X258480920Y-153154503D01*
X258362710Y-153297394D01*
X258362708Y-153297398D01*
X258358781Y-153302144D01*
X258264713Y-153476118D01*
X258206229Y-153665051D01*
X258185556Y-153861744D01*
X201488500Y-153861744D01*
X201488500Y-140100000D01*
X204286496Y-140100000D01*
X204287186Y-140106565D01*
X204301803Y-140245634D01*
X204306458Y-140289928D01*
X204365473Y-140471556D01*
X204460960Y-140636944D01*
X204465378Y-140641851D01*
X204465379Y-140641852D01*
X204551000Y-140736944D01*
X204588747Y-140778866D01*
X204687843Y-140850864D01*
X204726385Y-140878866D01*
X204743248Y-140891118D01*
X204749276Y-140893802D01*
X204749278Y-140893803D01*
X204909799Y-140965271D01*
X204917712Y-140968794D01*
X205004479Y-140987237D01*
X205098056Y-141007128D01*
X205098061Y-141007128D01*
X205104513Y-141008500D01*
X205295487Y-141008500D01*
X205301939Y-141007128D01*
X205301944Y-141007128D01*
X205451893Y-140975255D01*
X205522684Y-140980657D01*
X205579317Y-141023474D01*
X205603400Y-141085332D01*
X205606458Y-141114428D01*
X205665473Y-141296056D01*
X205760960Y-141461444D01*
X205888747Y-141603366D01*
X206043248Y-141715618D01*
X206049276Y-141718302D01*
X206049278Y-141718303D01*
X206211681Y-141790609D01*
X206217712Y-141793294D01*
X206311113Y-141813147D01*
X206398056Y-141831628D01*
X206398061Y-141831628D01*
X206404513Y-141833000D01*
X206595487Y-141833000D01*
X206601939Y-141831628D01*
X206601944Y-141831628D01*
X206688887Y-141813147D01*
X206782288Y-141793294D01*
X206788319Y-141790609D01*
X206950722Y-141718303D01*
X206950724Y-141718302D01*
X206956752Y-141715618D01*
X207111253Y-141603366D01*
X207239040Y-141461444D01*
X207334527Y-141296056D01*
X207393542Y-141114428D01*
X207398621Y-141066109D01*
X207412814Y-140931065D01*
X207413504Y-140924500D01*
X207399360Y-140789928D01*
X207394232Y-140741135D01*
X207394232Y-140741133D01*
X207393542Y-140734572D01*
X207334527Y-140552944D01*
X207239040Y-140387556D01*
X207163621Y-140303794D01*
X207115675Y-140250545D01*
X207115674Y-140250544D01*
X207111253Y-140245634D01*
X207048443Y-140200000D01*
X211886496Y-140200000D01*
X211887186Y-140206565D01*
X211896608Y-140296206D01*
X211906458Y-140389928D01*
X211965473Y-140571556D01*
X211968776Y-140577278D01*
X211968777Y-140577279D01*
X211985685Y-140606565D01*
X212060960Y-140736944D01*
X212065378Y-140741851D01*
X212065379Y-140741852D01*
X212104489Y-140785288D01*
X212188747Y-140878866D01*
X212287843Y-140950864D01*
X212328850Y-140980657D01*
X212343248Y-140991118D01*
X212349276Y-140993802D01*
X212349278Y-140993803D01*
X212415921Y-141023474D01*
X212517712Y-141068794D01*
X212595517Y-141085332D01*
X212698056Y-141107128D01*
X212698061Y-141107128D01*
X212704513Y-141108500D01*
X212895487Y-141108500D01*
X212895487Y-141110041D01*
X212957563Y-141121391D01*
X212994530Y-141149617D01*
X213106729Y-141274226D01*
X213205825Y-141346224D01*
X213238779Y-141370166D01*
X213261230Y-141386478D01*
X213267258Y-141389162D01*
X213267260Y-141389163D01*
X213310692Y-141408500D01*
X213435694Y-141464154D01*
X213529094Y-141484007D01*
X213616038Y-141502488D01*
X213616043Y-141502488D01*
X213622495Y-141503860D01*
X213813469Y-141503860D01*
X213819921Y-141502488D01*
X213819926Y-141502488D01*
X213906870Y-141484007D01*
X214000270Y-141464154D01*
X214125272Y-141408500D01*
X214168704Y-141389163D01*
X214168706Y-141389162D01*
X214174734Y-141386478D01*
X214197186Y-141370166D01*
X214230139Y-141346224D01*
X214329235Y-141274226D01*
X214411601Y-141182749D01*
X214452603Y-141137212D01*
X214452604Y-141137211D01*
X214457022Y-141132304D01*
X214546526Y-140977279D01*
X214549205Y-140972639D01*
X214549206Y-140972638D01*
X214552509Y-140966916D01*
X214611524Y-140785288D01*
X214616855Y-140734572D01*
X214630796Y-140601925D01*
X214631486Y-140595360D01*
X214621463Y-140500000D01*
X223486496Y-140500000D01*
X223506458Y-140689928D01*
X223565473Y-140871556D01*
X223660960Y-141036944D01*
X223665378Y-141041851D01*
X223665379Y-141041852D01*
X223755419Y-141141852D01*
X223788747Y-141178866D01*
X223841223Y-141216992D01*
X223931724Y-141282745D01*
X223943248Y-141291118D01*
X223949276Y-141293802D01*
X223949278Y-141293803D01*
X223967193Y-141301779D01*
X224117712Y-141368794D01*
X224182650Y-141382597D01*
X224298056Y-141407128D01*
X224298061Y-141407128D01*
X224304513Y-141408500D01*
X224495487Y-141408500D01*
X224501939Y-141407128D01*
X224501944Y-141407128D01*
X224617350Y-141382597D01*
X224682288Y-141368794D01*
X224832807Y-141301779D01*
X224850722Y-141293803D01*
X224850724Y-141293802D01*
X224856752Y-141291118D01*
X224868271Y-141282749D01*
X224925939Y-141240851D01*
X224992807Y-141216992D01*
X225061959Y-141233073D01*
X225074061Y-141240851D01*
X225131729Y-141282749D01*
X225143248Y-141291118D01*
X225149276Y-141293802D01*
X225149278Y-141293803D01*
X225167193Y-141301779D01*
X225317712Y-141368794D01*
X225382650Y-141382597D01*
X225498056Y-141407128D01*
X225498061Y-141407128D01*
X225504513Y-141408500D01*
X225695487Y-141408500D01*
X225701939Y-141407128D01*
X225701944Y-141407128D01*
X225817350Y-141382597D01*
X225882288Y-141368794D01*
X226032807Y-141301779D01*
X226050722Y-141293803D01*
X226050724Y-141293802D01*
X226056752Y-141291118D01*
X226068277Y-141282745D01*
X226158777Y-141216992D01*
X226211253Y-141178866D01*
X226244581Y-141141852D01*
X226334621Y-141041852D01*
X226334622Y-141041851D01*
X226339040Y-141036944D01*
X226434527Y-140871556D01*
X226493542Y-140689928D01*
X226513504Y-140500000D01*
X240086496Y-140500000D01*
X240106458Y-140689928D01*
X240165473Y-140871556D01*
X240260960Y-141036944D01*
X240265378Y-141041851D01*
X240265379Y-141041852D01*
X240355419Y-141141852D01*
X240388747Y-141178866D01*
X240441223Y-141216992D01*
X240531724Y-141282745D01*
X240543248Y-141291118D01*
X240549276Y-141293802D01*
X240549278Y-141293803D01*
X240567193Y-141301779D01*
X240717712Y-141368794D01*
X240782650Y-141382597D01*
X240898056Y-141407128D01*
X240898061Y-141407128D01*
X240904513Y-141408500D01*
X241095487Y-141408500D01*
X241101939Y-141407128D01*
X241101944Y-141407128D01*
X241217350Y-141382597D01*
X241282288Y-141368794D01*
X241432807Y-141301779D01*
X241450722Y-141293803D01*
X241450724Y-141293802D01*
X241456752Y-141291118D01*
X241511885Y-141251061D01*
X241578754Y-141227203D01*
X241647905Y-141243284D01*
X241679583Y-141268689D01*
X241684328Y-141273960D01*
X241684336Y-141273968D01*
X241688747Y-141278866D01*
X241700269Y-141287237D01*
X241836862Y-141386478D01*
X241843248Y-141391118D01*
X241849276Y-141393802D01*
X241849278Y-141393803D01*
X242007290Y-141464154D01*
X242017712Y-141468794D01*
X242111113Y-141488647D01*
X242198056Y-141507128D01*
X242198061Y-141507128D01*
X242204513Y-141508500D01*
X242395487Y-141508500D01*
X242401939Y-141507128D01*
X242401944Y-141507128D01*
X242488887Y-141488647D01*
X242582288Y-141468794D01*
X242592710Y-141464154D01*
X242750722Y-141393803D01*
X242750724Y-141393802D01*
X242756752Y-141391118D01*
X242763139Y-141386478D01*
X242890694Y-141293803D01*
X242911253Y-141278866D01*
X242919853Y-141269315D01*
X243034621Y-141141852D01*
X243034622Y-141141851D01*
X243039040Y-141136944D01*
X243113197Y-141008500D01*
X243131223Y-140977279D01*
X243131224Y-140977278D01*
X243134527Y-140971556D01*
X243193542Y-140789928D01*
X243194720Y-140778725D01*
X243212814Y-140606565D01*
X243213504Y-140600000D01*
X243193542Y-140410072D01*
X243134527Y-140228444D01*
X243039040Y-140063056D01*
X242997243Y-140016635D01*
X242915675Y-139926045D01*
X242915674Y-139926044D01*
X242911253Y-139921134D01*
X242775800Y-139822721D01*
X242762094Y-139812763D01*
X242762093Y-139812762D01*
X242756752Y-139808882D01*
X242750724Y-139806198D01*
X242750722Y-139806197D01*
X242588319Y-139733891D01*
X242588318Y-139733891D01*
X242582288Y-139731206D01*
X242488887Y-139711353D01*
X242401944Y-139692872D01*
X242401939Y-139692872D01*
X242395487Y-139691500D01*
X242204513Y-139691500D01*
X242198061Y-139692872D01*
X242198056Y-139692872D01*
X242111113Y-139711353D01*
X242017712Y-139731206D01*
X242011682Y-139733891D01*
X242011681Y-139733891D01*
X241849278Y-139806197D01*
X241849276Y-139806198D01*
X241843248Y-139808882D01*
X241837638Y-139812958D01*
X241788114Y-139848939D01*
X241721246Y-139872797D01*
X241652095Y-139856716D01*
X241620417Y-139831311D01*
X241615672Y-139826040D01*
X241615664Y-139826032D01*
X241611253Y-139821134D01*
X241485590Y-139729834D01*
X241462094Y-139712763D01*
X241462093Y-139712762D01*
X241456752Y-139708882D01*
X241450724Y-139706198D01*
X241450722Y-139706197D01*
X241288319Y-139633891D01*
X241288318Y-139633891D01*
X241282288Y-139631206D01*
X241188888Y-139611353D01*
X241101944Y-139592872D01*
X241101939Y-139592872D01*
X241095487Y-139591500D01*
X240904513Y-139591500D01*
X240898061Y-139592872D01*
X240898056Y-139592872D01*
X240811112Y-139611353D01*
X240717712Y-139631206D01*
X240711682Y-139633891D01*
X240711681Y-139633891D01*
X240549278Y-139706197D01*
X240549276Y-139706198D01*
X240543248Y-139708882D01*
X240537907Y-139712762D01*
X240537906Y-139712763D01*
X240514410Y-139729834D01*
X240388747Y-139821134D01*
X240384326Y-139826044D01*
X240384325Y-139826045D01*
X240302758Y-139916635D01*
X240260960Y-139963056D01*
X240165473Y-140128444D01*
X240106458Y-140310072D01*
X240105768Y-140316633D01*
X240105768Y-140316635D01*
X240095258Y-140416635D01*
X240086496Y-140500000D01*
X226513504Y-140500000D01*
X226504742Y-140416635D01*
X226494232Y-140316635D01*
X226494232Y-140316633D01*
X226493542Y-140310072D01*
X226434527Y-140128444D01*
X226339040Y-139963056D01*
X226297243Y-139916635D01*
X226215675Y-139826045D01*
X226215674Y-139826044D01*
X226211253Y-139821134D01*
X226085590Y-139729834D01*
X226062094Y-139712763D01*
X226062093Y-139712762D01*
X226056752Y-139708882D01*
X226050724Y-139706198D01*
X226050722Y-139706197D01*
X225888319Y-139633891D01*
X225888318Y-139633891D01*
X225882288Y-139631206D01*
X225788888Y-139611353D01*
X225701944Y-139592872D01*
X225701939Y-139592872D01*
X225695487Y-139591500D01*
X225504513Y-139591500D01*
X225498061Y-139592872D01*
X225498056Y-139592872D01*
X225411112Y-139611353D01*
X225317712Y-139631206D01*
X225311682Y-139633891D01*
X225311681Y-139633891D01*
X225149278Y-139706197D01*
X225149276Y-139706198D01*
X225143248Y-139708882D01*
X225137907Y-139712762D01*
X225137906Y-139712763D01*
X225074061Y-139759149D01*
X225007193Y-139783008D01*
X224938041Y-139766927D01*
X224925939Y-139759149D01*
X224862094Y-139712763D01*
X224862093Y-139712762D01*
X224856752Y-139708882D01*
X224850724Y-139706198D01*
X224850722Y-139706197D01*
X224688319Y-139633891D01*
X224688318Y-139633891D01*
X224682288Y-139631206D01*
X224588888Y-139611353D01*
X224501944Y-139592872D01*
X224501939Y-139592872D01*
X224495487Y-139591500D01*
X224304513Y-139591500D01*
X224298061Y-139592872D01*
X224298056Y-139592872D01*
X224211112Y-139611353D01*
X224117712Y-139631206D01*
X224111682Y-139633891D01*
X224111681Y-139633891D01*
X223949278Y-139706197D01*
X223949276Y-139706198D01*
X223943248Y-139708882D01*
X223937907Y-139712762D01*
X223937906Y-139712763D01*
X223914410Y-139729834D01*
X223788747Y-139821134D01*
X223784326Y-139826044D01*
X223784325Y-139826045D01*
X223702758Y-139916635D01*
X223660960Y-139963056D01*
X223565473Y-140128444D01*
X223506458Y-140310072D01*
X223505768Y-140316633D01*
X223505768Y-140316635D01*
X223495258Y-140416635D01*
X223486496Y-140500000D01*
X214621463Y-140500000D01*
X214617813Y-140465271D01*
X214612214Y-140411995D01*
X214612214Y-140411993D01*
X214611524Y-140405432D01*
X214552509Y-140223804D01*
X214534976Y-140193435D01*
X214500304Y-140133382D01*
X214457022Y-140058416D01*
X214448765Y-140049245D01*
X214333657Y-139921405D01*
X214333656Y-139921404D01*
X214329235Y-139916494D01*
X214192639Y-139817251D01*
X214180076Y-139808123D01*
X214180075Y-139808122D01*
X214174734Y-139804242D01*
X214168706Y-139801558D01*
X214168704Y-139801557D01*
X214006301Y-139729251D01*
X214006300Y-139729251D01*
X214000270Y-139726566D01*
X213904442Y-139706197D01*
X213819926Y-139688232D01*
X213819921Y-139688232D01*
X213813469Y-139686860D01*
X213622495Y-139686860D01*
X213622495Y-139685319D01*
X213560419Y-139673969D01*
X213523452Y-139645743D01*
X213411253Y-139521134D01*
X213280375Y-139426045D01*
X213262094Y-139412763D01*
X213262093Y-139412762D01*
X213256752Y-139408882D01*
X213250724Y-139406198D01*
X213250722Y-139406197D01*
X213088319Y-139333891D01*
X213088318Y-139333891D01*
X213082288Y-139331206D01*
X212988888Y-139311353D01*
X212901944Y-139292872D01*
X212901939Y-139292872D01*
X212895487Y-139291500D01*
X212704513Y-139291500D01*
X212698061Y-139292872D01*
X212698056Y-139292872D01*
X212611112Y-139311353D01*
X212517712Y-139331206D01*
X212511682Y-139333891D01*
X212511681Y-139333891D01*
X212349278Y-139406197D01*
X212349276Y-139406198D01*
X212343248Y-139408882D01*
X212337907Y-139412762D01*
X212337906Y-139412763D01*
X212319625Y-139426045D01*
X212188747Y-139521134D01*
X212060960Y-139663056D01*
X212005481Y-139759149D01*
X211991706Y-139783008D01*
X211965473Y-139828444D01*
X211906458Y-140010072D01*
X211905768Y-140016633D01*
X211905768Y-140016635D01*
X211896316Y-140106565D01*
X211886496Y-140200000D01*
X207048443Y-140200000D01*
X206956752Y-140133382D01*
X206950724Y-140130698D01*
X206950722Y-140130697D01*
X206788319Y-140058391D01*
X206788318Y-140058391D01*
X206782288Y-140055706D01*
X206688887Y-140035853D01*
X206601944Y-140017372D01*
X206601939Y-140017372D01*
X206595487Y-140016000D01*
X206404513Y-140016000D01*
X206398061Y-140017372D01*
X206398056Y-140017372D01*
X206248107Y-140049245D01*
X206177316Y-140043843D01*
X206120683Y-140001026D01*
X206096600Y-139939168D01*
X206094232Y-139916635D01*
X206094232Y-139916633D01*
X206093542Y-139910072D01*
X206034527Y-139728444D01*
X206013990Y-139692872D01*
X205996775Y-139663056D01*
X205939040Y-139563056D01*
X205811253Y-139421134D01*
X205656752Y-139308882D01*
X205650724Y-139306198D01*
X205650722Y-139306197D01*
X205488319Y-139233891D01*
X205488318Y-139233891D01*
X205482288Y-139231206D01*
X205388887Y-139211353D01*
X205301944Y-139192872D01*
X205301939Y-139192872D01*
X205295487Y-139191500D01*
X205104513Y-139191500D01*
X205098061Y-139192872D01*
X205098056Y-139192872D01*
X205011113Y-139211353D01*
X204917712Y-139231206D01*
X204911682Y-139233891D01*
X204911681Y-139233891D01*
X204749278Y-139306197D01*
X204749276Y-139306198D01*
X204743248Y-139308882D01*
X204588747Y-139421134D01*
X204460960Y-139563056D01*
X204403225Y-139663056D01*
X204386011Y-139692872D01*
X204365473Y-139728444D01*
X204306458Y-139910072D01*
X204305768Y-139916633D01*
X204305768Y-139916635D01*
X204291382Y-140053508D01*
X204286496Y-140100000D01*
X201488500Y-140100000D01*
X201488500Y-136700000D01*
X218186496Y-136700000D01*
X218206458Y-136889928D01*
X218265473Y-137071556D01*
X218360960Y-137236944D01*
X218488747Y-137378866D01*
X218643248Y-137491118D01*
X218649276Y-137493802D01*
X218649278Y-137493803D01*
X218811681Y-137566109D01*
X218817712Y-137568794D01*
X218911112Y-137588647D01*
X218998056Y-137607128D01*
X218998061Y-137607128D01*
X219004513Y-137608500D01*
X219195487Y-137608500D01*
X219201939Y-137607128D01*
X219201944Y-137607128D01*
X219288888Y-137588647D01*
X219382288Y-137568794D01*
X219388319Y-137566109D01*
X219550722Y-137493803D01*
X219550724Y-137493802D01*
X219556752Y-137491118D01*
X219711253Y-137378866D01*
X219839040Y-137236944D01*
X219934527Y-137071556D01*
X219993542Y-136889928D01*
X220013504Y-136700000D01*
X219993542Y-136510072D01*
X219934527Y-136328444D01*
X219839040Y-136163056D01*
X219711253Y-136021134D01*
X219556752Y-135908882D01*
X219550724Y-135906198D01*
X219550722Y-135906197D01*
X219388319Y-135833891D01*
X219388318Y-135833891D01*
X219382288Y-135831206D01*
X219288888Y-135811353D01*
X219201944Y-135792872D01*
X219201939Y-135792872D01*
X219195487Y-135791500D01*
X219004513Y-135791500D01*
X218998061Y-135792872D01*
X218998056Y-135792872D01*
X218911112Y-135811353D01*
X218817712Y-135831206D01*
X218811682Y-135833891D01*
X218811681Y-135833891D01*
X218649278Y-135906197D01*
X218649276Y-135906198D01*
X218643248Y-135908882D01*
X218488747Y-136021134D01*
X218360960Y-136163056D01*
X218265473Y-136328444D01*
X218206458Y-136510072D01*
X218186496Y-136700000D01*
X201488500Y-136700000D01*
X201488500Y-134300000D01*
X251086496Y-134300000D01*
X251106458Y-134489928D01*
X251165473Y-134671556D01*
X251260960Y-134836944D01*
X251388747Y-134978866D01*
X251543248Y-135091118D01*
X251549276Y-135093802D01*
X251549278Y-135093803D01*
X251711681Y-135166109D01*
X251717712Y-135168794D01*
X251811112Y-135188647D01*
X251898056Y-135207128D01*
X251898061Y-135207128D01*
X251904513Y-135208500D01*
X252095487Y-135208500D01*
X252101939Y-135207128D01*
X252101944Y-135207128D01*
X252188888Y-135188647D01*
X252282288Y-135168794D01*
X252288319Y-135166109D01*
X252450722Y-135093803D01*
X252450724Y-135093802D01*
X252456752Y-135091118D01*
X252611253Y-134978866D01*
X252739040Y-134836944D01*
X252834527Y-134671556D01*
X252893542Y-134489928D01*
X252913504Y-134300000D01*
X252893542Y-134110072D01*
X252834527Y-133928444D01*
X252739040Y-133763056D01*
X252623117Y-133634310D01*
X252592399Y-133570303D01*
X252601164Y-133499849D01*
X252623117Y-133465690D01*
X252734621Y-133341852D01*
X252734622Y-133341851D01*
X252739040Y-133336944D01*
X252834527Y-133171556D01*
X252893542Y-132989928D01*
X252913504Y-132800000D01*
X252893542Y-132610072D01*
X252834527Y-132428444D01*
X252739040Y-132263056D01*
X252611253Y-132121134D01*
X252584829Y-132101935D01*
X252541475Y-132045714D01*
X252535399Y-131974978D01*
X252568531Y-131912186D01*
X252584829Y-131898064D01*
X252605909Y-131882749D01*
X252605911Y-131882747D01*
X252611253Y-131878866D01*
X252739040Y-131736944D01*
X252834527Y-131571556D01*
X252893542Y-131389928D01*
X252913504Y-131200000D01*
X252893542Y-131010072D01*
X252834527Y-130828444D01*
X252739040Y-130663056D01*
X252611253Y-130521134D01*
X252456752Y-130408882D01*
X252450724Y-130406198D01*
X252450722Y-130406197D01*
X252288319Y-130333891D01*
X252288318Y-130333891D01*
X252282288Y-130331206D01*
X252188888Y-130311353D01*
X252101944Y-130292872D01*
X252101939Y-130292872D01*
X252095487Y-130291500D01*
X251904513Y-130291500D01*
X251898061Y-130292872D01*
X251898056Y-130292872D01*
X251811112Y-130311353D01*
X251717712Y-130331206D01*
X251711682Y-130333891D01*
X251711681Y-130333891D01*
X251549278Y-130406197D01*
X251549276Y-130406198D01*
X251543248Y-130408882D01*
X251388747Y-130521134D01*
X251260960Y-130663056D01*
X251165473Y-130828444D01*
X251106458Y-131010072D01*
X251086496Y-131200000D01*
X251106458Y-131389928D01*
X251165473Y-131571556D01*
X251260960Y-131736944D01*
X251388747Y-131878866D01*
X251394089Y-131882747D01*
X251394091Y-131882749D01*
X251415171Y-131898064D01*
X251458525Y-131954286D01*
X251464601Y-132025022D01*
X251431469Y-132087814D01*
X251415173Y-132101935D01*
X251388747Y-132121134D01*
X251260960Y-132263056D01*
X251165473Y-132428444D01*
X251106458Y-132610072D01*
X251086496Y-132800000D01*
X251106458Y-132989928D01*
X251165473Y-133171556D01*
X251260960Y-133336944D01*
X251265378Y-133341851D01*
X251265379Y-133341852D01*
X251376883Y-133465690D01*
X251407601Y-133529697D01*
X251398836Y-133600151D01*
X251376883Y-133634310D01*
X251260960Y-133763056D01*
X251165473Y-133928444D01*
X251106458Y-134110072D01*
X251086496Y-134300000D01*
X201488500Y-134300000D01*
X201488500Y-127900000D01*
X215386496Y-127900000D01*
X215387186Y-127906565D01*
X215399228Y-128021134D01*
X215406458Y-128089928D01*
X215465473Y-128271556D01*
X215560960Y-128436944D01*
X215688747Y-128578866D01*
X215843248Y-128691118D01*
X215849276Y-128693802D01*
X215849278Y-128693803D01*
X216011681Y-128766109D01*
X216017712Y-128768794D01*
X216104338Y-128787207D01*
X216198056Y-128807128D01*
X216198061Y-128807128D01*
X216204513Y-128808500D01*
X216388456Y-128808500D01*
X216456577Y-128828502D01*
X216503070Y-128882158D01*
X216508289Y-128895562D01*
X216565473Y-129071556D01*
X216660960Y-129236944D01*
X216788747Y-129378866D01*
X216943248Y-129491118D01*
X216949276Y-129493802D01*
X216949278Y-129493803D01*
X217111681Y-129566109D01*
X217117712Y-129568794D01*
X217211112Y-129588647D01*
X217298056Y-129607128D01*
X217298061Y-129607128D01*
X217304513Y-129608500D01*
X217495487Y-129608500D01*
X217501939Y-129607128D01*
X217501944Y-129607128D01*
X217588888Y-129588647D01*
X217682288Y-129568794D01*
X217688319Y-129566109D01*
X217850722Y-129493803D01*
X217850724Y-129493802D01*
X217856752Y-129491118D01*
X218011253Y-129378866D01*
X218139040Y-129236944D01*
X218234527Y-129071556D01*
X218293542Y-128889928D01*
X218313504Y-128700000D01*
X218301181Y-128582749D01*
X218294232Y-128516635D01*
X218294232Y-128516633D01*
X218293542Y-128510072D01*
X218234527Y-128328444D01*
X218139040Y-128163056D01*
X218011253Y-128021134D01*
X217856752Y-127908882D01*
X217850724Y-127906198D01*
X217850722Y-127906197D01*
X217688319Y-127833891D01*
X217688318Y-127833891D01*
X217682288Y-127831206D01*
X217588888Y-127811353D01*
X217501944Y-127792872D01*
X217501939Y-127792872D01*
X217495487Y-127791500D01*
X217311544Y-127791500D01*
X217243423Y-127771498D01*
X217196930Y-127717842D01*
X217191711Y-127704437D01*
X217136568Y-127534726D01*
X217134527Y-127528444D01*
X217039040Y-127363056D01*
X216911253Y-127221134D01*
X216756752Y-127108882D01*
X216750724Y-127106198D01*
X216750722Y-127106197D01*
X216588319Y-127033891D01*
X216588318Y-127033891D01*
X216582288Y-127031206D01*
X216488887Y-127011353D01*
X216401944Y-126992872D01*
X216401939Y-126992872D01*
X216395487Y-126991500D01*
X216204513Y-126991500D01*
X216198061Y-126992872D01*
X216198056Y-126992872D01*
X216111113Y-127011353D01*
X216017712Y-127031206D01*
X216011682Y-127033891D01*
X216011681Y-127033891D01*
X215849278Y-127106197D01*
X215849276Y-127106198D01*
X215843248Y-127108882D01*
X215688747Y-127221134D01*
X215560960Y-127363056D01*
X215465473Y-127528444D01*
X215406458Y-127710072D01*
X215386496Y-127900000D01*
X201488500Y-127900000D01*
X201488500Y-126603285D01*
X212858613Y-126603285D01*
X212878575Y-126793213D01*
X212937590Y-126974841D01*
X213033077Y-127140229D01*
X213160864Y-127282151D01*
X213315365Y-127394403D01*
X213321393Y-127397087D01*
X213321395Y-127397088D01*
X213483798Y-127469394D01*
X213489829Y-127472079D01*
X213583229Y-127491932D01*
X213670173Y-127510413D01*
X213670178Y-127510413D01*
X213676630Y-127511785D01*
X213867604Y-127511785D01*
X213874056Y-127510413D01*
X213874061Y-127510413D01*
X213961005Y-127491932D01*
X214054405Y-127472079D01*
X214060436Y-127469394D01*
X214222839Y-127397088D01*
X214222841Y-127397087D01*
X214228869Y-127394403D01*
X214383370Y-127282151D01*
X214511157Y-127140229D01*
X214606644Y-126974841D01*
X214665659Y-126793213D01*
X214685621Y-126603285D01*
X214680224Y-126551937D01*
X214692996Y-126482098D01*
X214731473Y-126436830D01*
X214772421Y-126407079D01*
X214811253Y-126378866D01*
X214939040Y-126236944D01*
X215034527Y-126071556D01*
X215093542Y-125889928D01*
X215113504Y-125700000D01*
X215093542Y-125510072D01*
X215034527Y-125328444D01*
X214939040Y-125163056D01*
X214811253Y-125021134D01*
X214656752Y-124908882D01*
X214650724Y-124906198D01*
X214650722Y-124906197D01*
X214488319Y-124833891D01*
X214488318Y-124833891D01*
X214482288Y-124831206D01*
X214388887Y-124811353D01*
X214301944Y-124792872D01*
X214301939Y-124792872D01*
X214295487Y-124791500D01*
X214104513Y-124791500D01*
X214098061Y-124792872D01*
X214098056Y-124792872D01*
X214011113Y-124811353D01*
X213917712Y-124831206D01*
X213911682Y-124833891D01*
X213911681Y-124833891D01*
X213749278Y-124906197D01*
X213749276Y-124906198D01*
X213743248Y-124908882D01*
X213588747Y-125021134D01*
X213460960Y-125163056D01*
X213365473Y-125328444D01*
X213306458Y-125510072D01*
X213286496Y-125700000D01*
X213287186Y-125706565D01*
X213291893Y-125751348D01*
X213279121Y-125821187D01*
X213240644Y-125866455D01*
X213160864Y-125924419D01*
X213033077Y-126066341D01*
X212937590Y-126231729D01*
X212878575Y-126413357D01*
X212858613Y-126603285D01*
X201488500Y-126603285D01*
X201488500Y-122222242D01*
X203343293Y-122222242D01*
X203344499Y-122236601D01*
X203357372Y-122389897D01*
X203360089Y-122422256D01*
X203415415Y-122615199D01*
X203507163Y-122793722D01*
X203631839Y-122951024D01*
X203784693Y-123081114D01*
X203790071Y-123084120D01*
X203790073Y-123084121D01*
X203802593Y-123091118D01*
X203959905Y-123179036D01*
X204001866Y-123192670D01*
X204144942Y-123239159D01*
X204144946Y-123239160D01*
X204150800Y-123241062D01*
X204350107Y-123264827D01*
X204356242Y-123264355D01*
X204356244Y-123264355D01*
X204544093Y-123249902D01*
X204544098Y-123249901D01*
X204550234Y-123249429D01*
X204556166Y-123247773D01*
X204556170Y-123247772D01*
X204737615Y-123197111D01*
X204737619Y-123197110D01*
X204743559Y-123195451D01*
X204749063Y-123192671D01*
X204749065Y-123192670D01*
X204917216Y-123107731D01*
X204917218Y-123107730D01*
X204922717Y-123104952D01*
X205080886Y-122981377D01*
X205212039Y-122829434D01*
X205219803Y-122815768D01*
X205269186Y-122728837D01*
X205311183Y-122654910D01*
X205374539Y-122464453D01*
X205399696Y-122265317D01*
X205400097Y-122236601D01*
X205380510Y-122036840D01*
X205322496Y-121844688D01*
X205256784Y-121721101D01*
X209418410Y-121721101D01*
X209438372Y-121911029D01*
X209497387Y-122092657D01*
X209500690Y-122098379D01*
X209500691Y-122098380D01*
X209511231Y-122116635D01*
X209592874Y-122258045D01*
X209597292Y-122262952D01*
X209597293Y-122262953D01*
X209677078Y-122351563D01*
X209720661Y-122399967D01*
X209875162Y-122512219D01*
X209881190Y-122514903D01*
X209881192Y-122514904D01*
X210041120Y-122586108D01*
X210049626Y-122589895D01*
X210056082Y-122591267D01*
X210062366Y-122593309D01*
X210061702Y-122595353D01*
X210115342Y-122624309D01*
X210149666Y-122686457D01*
X210144942Y-122757296D01*
X210100737Y-122815768D01*
X209960392Y-122917735D01*
X209955971Y-122922645D01*
X209955970Y-122922646D01*
X209903089Y-122981377D01*
X209832605Y-123059657D01*
X209737118Y-123225045D01*
X209678103Y-123406673D01*
X209658141Y-123596601D01*
X209658831Y-123603166D01*
X209675896Y-123765526D01*
X209678103Y-123786529D01*
X209737118Y-123968157D01*
X209832605Y-124133545D01*
X209960392Y-124275467D01*
X210114893Y-124387719D01*
X210120921Y-124390403D01*
X210120923Y-124390404D01*
X210283326Y-124462710D01*
X210289357Y-124465395D01*
X210382758Y-124485248D01*
X210469701Y-124503729D01*
X210469706Y-124503729D01*
X210476158Y-124505101D01*
X210667132Y-124505101D01*
X210673584Y-124503729D01*
X210673589Y-124503729D01*
X210760532Y-124485248D01*
X210853933Y-124465395D01*
X210859964Y-124462710D01*
X211022367Y-124390404D01*
X211022369Y-124390403D01*
X211028397Y-124387719D01*
X211182898Y-124275467D01*
X211197235Y-124259544D01*
X215973931Y-124259544D01*
X215974621Y-124266109D01*
X215987403Y-124387719D01*
X215993893Y-124449472D01*
X216052908Y-124631100D01*
X216148395Y-124796488D01*
X216276182Y-124938410D01*
X216430683Y-125050662D01*
X216436711Y-125053346D01*
X216436713Y-125053347D01*
X216599116Y-125125653D01*
X216605147Y-125128338D01*
X216698548Y-125148191D01*
X216785491Y-125166672D01*
X216785496Y-125166672D01*
X216791948Y-125168044D01*
X216982922Y-125168044D01*
X216989374Y-125166672D01*
X216989379Y-125166672D01*
X217076322Y-125148191D01*
X217169723Y-125128338D01*
X217175754Y-125125653D01*
X217338157Y-125053347D01*
X217338159Y-125053346D01*
X217344187Y-125050662D01*
X217498688Y-124938410D01*
X217626475Y-124796488D01*
X217721962Y-124631100D01*
X217780977Y-124449472D01*
X217787468Y-124387719D01*
X217800249Y-124266109D01*
X217800939Y-124259544D01*
X217780977Y-124069616D01*
X217721962Y-123887988D01*
X217687630Y-123828524D01*
X217670893Y-123759532D01*
X217687630Y-123702529D01*
X217728570Y-123631619D01*
X217787585Y-123449991D01*
X217807547Y-123260063D01*
X217797672Y-123166109D01*
X217788275Y-123076698D01*
X217788275Y-123076696D01*
X217787585Y-123070135D01*
X217728570Y-122888507D01*
X217633083Y-122723119D01*
X217600073Y-122686457D01*
X217509718Y-122586108D01*
X217509717Y-122586107D01*
X217505296Y-122581197D01*
X217379676Y-122489928D01*
X217356137Y-122472826D01*
X217356136Y-122472825D01*
X217350795Y-122468945D01*
X217344767Y-122466261D01*
X217344765Y-122466260D01*
X217182362Y-122393954D01*
X217182361Y-122393954D01*
X217176331Y-122391269D01*
X217082930Y-122371416D01*
X216995987Y-122352935D01*
X216995982Y-122352935D01*
X216989530Y-122351563D01*
X216798556Y-122351563D01*
X216792104Y-122352935D01*
X216792099Y-122352935D01*
X216705156Y-122371416D01*
X216611755Y-122391269D01*
X216605725Y-122393954D01*
X216605724Y-122393954D01*
X216443321Y-122466260D01*
X216443319Y-122466261D01*
X216437291Y-122468945D01*
X216431950Y-122472825D01*
X216431949Y-122472826D01*
X216408410Y-122489928D01*
X216282790Y-122581197D01*
X216278369Y-122586107D01*
X216278368Y-122586108D01*
X216188014Y-122686457D01*
X216155003Y-122723119D01*
X216059516Y-122888507D01*
X216000501Y-123070135D01*
X215999811Y-123076696D01*
X215999811Y-123076698D01*
X215990414Y-123166109D01*
X215980539Y-123260063D01*
X216000501Y-123449991D01*
X216059516Y-123631619D01*
X216093848Y-123691083D01*
X216110585Y-123760075D01*
X216093848Y-123817078D01*
X216052908Y-123887988D01*
X215993893Y-124069616D01*
X215973931Y-124259544D01*
X211197235Y-124259544D01*
X211310685Y-124133545D01*
X211406172Y-123968157D01*
X211465187Y-123786529D01*
X211467395Y-123765526D01*
X211484459Y-123603166D01*
X211485149Y-123596601D01*
X211465187Y-123406673D01*
X211406172Y-123225045D01*
X211310685Y-123059657D01*
X211240202Y-122981377D01*
X211187320Y-122922646D01*
X211187319Y-122922645D01*
X211182898Y-122917735D01*
X211028397Y-122805483D01*
X211022369Y-122802799D01*
X211022367Y-122802798D01*
X210859964Y-122730492D01*
X210859963Y-122730492D01*
X210853933Y-122727807D01*
X210847477Y-122726435D01*
X210841193Y-122724393D01*
X210841857Y-122722349D01*
X210788217Y-122693393D01*
X210753893Y-122631245D01*
X210758617Y-122560406D01*
X210802822Y-122501934D01*
X210828380Y-122483365D01*
X210943167Y-122399967D01*
X210986750Y-122351563D01*
X211033178Y-122300000D01*
X219986496Y-122300000D01*
X219987186Y-122306565D01*
X220004661Y-122472826D01*
X220006458Y-122489928D01*
X220065473Y-122671556D01*
X220068776Y-122677278D01*
X220068777Y-122677279D01*
X220097950Y-122727807D01*
X220160960Y-122836944D01*
X220165378Y-122841851D01*
X220165379Y-122841852D01*
X220230208Y-122913852D01*
X220288747Y-122978866D01*
X220297431Y-122985175D01*
X220429479Y-123081114D01*
X220443248Y-123091118D01*
X220449276Y-123093802D01*
X220449278Y-123093803D01*
X220611681Y-123166109D01*
X220617712Y-123168794D01*
X220711112Y-123188647D01*
X220798056Y-123207128D01*
X220798061Y-123207128D01*
X220804513Y-123208500D01*
X220995487Y-123208500D01*
X221001939Y-123207128D01*
X221001944Y-123207128D01*
X221088888Y-123188647D01*
X221182288Y-123168794D01*
X221188319Y-123166109D01*
X221350722Y-123093803D01*
X221350724Y-123093802D01*
X221356752Y-123091118D01*
X221370522Y-123081114D01*
X221502569Y-122985175D01*
X221511253Y-122978866D01*
X221569792Y-122913852D01*
X221634621Y-122841852D01*
X221634622Y-122841851D01*
X221639040Y-122836944D01*
X221702050Y-122727807D01*
X221731223Y-122677279D01*
X221731224Y-122677278D01*
X221734527Y-122671556D01*
X221793542Y-122489928D01*
X221795340Y-122472826D01*
X221812814Y-122306565D01*
X221813504Y-122300000D01*
X221793542Y-122110072D01*
X221734527Y-121928444D01*
X221724473Y-121911029D01*
X221642341Y-121768774D01*
X221639040Y-121763056D01*
X221595353Y-121714536D01*
X221515675Y-121626045D01*
X221515674Y-121626044D01*
X221511253Y-121621134D01*
X221356752Y-121508882D01*
X221350724Y-121506198D01*
X221350722Y-121506197D01*
X221188319Y-121433891D01*
X221188318Y-121433891D01*
X221182288Y-121431206D01*
X221088887Y-121411353D01*
X221001944Y-121392872D01*
X221001939Y-121392872D01*
X220995487Y-121391500D01*
X220804513Y-121391500D01*
X220798061Y-121392872D01*
X220798056Y-121392872D01*
X220711113Y-121411353D01*
X220617712Y-121431206D01*
X220611682Y-121433891D01*
X220611681Y-121433891D01*
X220449278Y-121506197D01*
X220449276Y-121506198D01*
X220443248Y-121508882D01*
X220288747Y-121621134D01*
X220284326Y-121626044D01*
X220284325Y-121626045D01*
X220204648Y-121714536D01*
X220160960Y-121763056D01*
X220157659Y-121768774D01*
X220075528Y-121911029D01*
X220065473Y-121928444D01*
X220006458Y-122110072D01*
X219986496Y-122300000D01*
X211033178Y-122300000D01*
X211066535Y-122262953D01*
X211066536Y-122262952D01*
X211070954Y-122258045D01*
X211152597Y-122116635D01*
X211163137Y-122098380D01*
X211163138Y-122098379D01*
X211166441Y-122092657D01*
X211225456Y-121911029D01*
X211245418Y-121721101D01*
X211244728Y-121714536D01*
X211226146Y-121537736D01*
X211226146Y-121537734D01*
X211225456Y-121531173D01*
X211166441Y-121349545D01*
X211070954Y-121184157D01*
X210943167Y-121042235D01*
X210788666Y-120929983D01*
X210782638Y-120927299D01*
X210782636Y-120927298D01*
X210620233Y-120854992D01*
X210620232Y-120854992D01*
X210614202Y-120852307D01*
X210520802Y-120832454D01*
X210433858Y-120813973D01*
X210433853Y-120813973D01*
X210427401Y-120812601D01*
X210236427Y-120812601D01*
X210229975Y-120813973D01*
X210229970Y-120813973D01*
X210143026Y-120832454D01*
X210049626Y-120852307D01*
X210043596Y-120854992D01*
X210043595Y-120854992D01*
X209881192Y-120927298D01*
X209881190Y-120927299D01*
X209875162Y-120929983D01*
X209720661Y-121042235D01*
X209592874Y-121184157D01*
X209497387Y-121349545D01*
X209438372Y-121531173D01*
X209437682Y-121537734D01*
X209437682Y-121537736D01*
X209419100Y-121714536D01*
X209418410Y-121721101D01*
X205256784Y-121721101D01*
X205228265Y-121667464D01*
X205101404Y-121511919D01*
X204946748Y-121383976D01*
X204770186Y-121288509D01*
X204674315Y-121258832D01*
X204584331Y-121230977D01*
X204584328Y-121230976D01*
X204578444Y-121229155D01*
X204572319Y-121228511D01*
X204572318Y-121228511D01*
X204384953Y-121208818D01*
X204384952Y-121208818D01*
X204378825Y-121208174D01*
X204295807Y-121215729D01*
X204185071Y-121225807D01*
X204185068Y-121225808D01*
X204178932Y-121226366D01*
X204173026Y-121228104D01*
X204173022Y-121228105D01*
X204030766Y-121269974D01*
X203986380Y-121283037D01*
X203808503Y-121376029D01*
X203652075Y-121501800D01*
X203523055Y-121655560D01*
X203520091Y-121660952D01*
X203520088Y-121660956D01*
X203460815Y-121768774D01*
X203426358Y-121831451D01*
X203365667Y-122022774D01*
X203343293Y-122222242D01*
X201488500Y-122222242D01*
X201488500Y-119121101D01*
X219886496Y-119121101D01*
X219906458Y-119311029D01*
X219965473Y-119492657D01*
X220060960Y-119658045D01*
X220188747Y-119799967D01*
X220343248Y-119912219D01*
X220349276Y-119914903D01*
X220349278Y-119914904D01*
X220511681Y-119987210D01*
X220517712Y-119989895D01*
X220611112Y-120009748D01*
X220698056Y-120028229D01*
X220698061Y-120028229D01*
X220704513Y-120029601D01*
X220895487Y-120029601D01*
X220901939Y-120028229D01*
X220901944Y-120028229D01*
X220988888Y-120009748D01*
X221082288Y-119989895D01*
X221088319Y-119987210D01*
X221250722Y-119914904D01*
X221250724Y-119914903D01*
X221256752Y-119912219D01*
X221411253Y-119799967D01*
X221522006Y-119676964D01*
X221582451Y-119639724D01*
X221653434Y-119641076D01*
X221666889Y-119646167D01*
X221711677Y-119666108D01*
X221711685Y-119666111D01*
X221717712Y-119668794D01*
X221811112Y-119688647D01*
X221898056Y-119707128D01*
X221898061Y-119707128D01*
X221904513Y-119708500D01*
X222095487Y-119708500D01*
X222101939Y-119707128D01*
X222101944Y-119707128D01*
X222188888Y-119688647D01*
X222282288Y-119668794D01*
X222288321Y-119666108D01*
X222450722Y-119593803D01*
X222450724Y-119593802D01*
X222456752Y-119591118D01*
X222611253Y-119478866D01*
X222739040Y-119336944D01*
X222834527Y-119171556D01*
X222893542Y-118989928D01*
X222913504Y-118800000D01*
X222893542Y-118610072D01*
X222834527Y-118428444D01*
X222739040Y-118263056D01*
X222741777Y-118261476D01*
X222722351Y-118207653D01*
X222738178Y-118138443D01*
X222739114Y-118136987D01*
X222739040Y-118136944D01*
X222831223Y-117977279D01*
X222831224Y-117977278D01*
X222834527Y-117971556D01*
X222893542Y-117789928D01*
X222895121Y-117774910D01*
X222912814Y-117606565D01*
X222913504Y-117600000D01*
X222893542Y-117410072D01*
X222834527Y-117228444D01*
X222739040Y-117063056D01*
X222611253Y-116921134D01*
X222456752Y-116808882D01*
X222450724Y-116806198D01*
X222450722Y-116806197D01*
X222288319Y-116733891D01*
X222288318Y-116733891D01*
X222282288Y-116731206D01*
X222188888Y-116711353D01*
X222101944Y-116692872D01*
X222101939Y-116692872D01*
X222095487Y-116691500D01*
X222087012Y-116691500D01*
X222085969Y-116691194D01*
X222082318Y-116690810D01*
X222082388Y-116690142D01*
X222018891Y-116671498D01*
X221972398Y-116617842D01*
X221967179Y-116604436D01*
X221936569Y-116510229D01*
X221934527Y-116503944D01*
X221839040Y-116338556D01*
X221830196Y-116328733D01*
X221715675Y-116201545D01*
X221715674Y-116201544D01*
X221711253Y-116196634D01*
X221556752Y-116084382D01*
X221550724Y-116081698D01*
X221550722Y-116081697D01*
X221388319Y-116009391D01*
X221388318Y-116009391D01*
X221382288Y-116006706D01*
X221288887Y-115986853D01*
X221201944Y-115968372D01*
X221201939Y-115968372D01*
X221195487Y-115967000D01*
X221004513Y-115967000D01*
X220998061Y-115968372D01*
X220998056Y-115968372D01*
X220911113Y-115986853D01*
X220817712Y-116006706D01*
X220811682Y-116009391D01*
X220811681Y-116009391D01*
X220649278Y-116081697D01*
X220649276Y-116081698D01*
X220643248Y-116084382D01*
X220488747Y-116196634D01*
X220484326Y-116201544D01*
X220484325Y-116201545D01*
X220369805Y-116328733D01*
X220360960Y-116338556D01*
X220265473Y-116503944D01*
X220206458Y-116685572D01*
X220205768Y-116692133D01*
X220205768Y-116692135D01*
X220197496Y-116770842D01*
X220186496Y-116875500D01*
X220206458Y-117065428D01*
X220265473Y-117247056D01*
X220360960Y-117412444D01*
X220488747Y-117554366D01*
X220643248Y-117666618D01*
X220649276Y-117669302D01*
X220649278Y-117669303D01*
X220811681Y-117741609D01*
X220817712Y-117744294D01*
X220911112Y-117764147D01*
X220998056Y-117782628D01*
X220998061Y-117782628D01*
X221004513Y-117784000D01*
X221012988Y-117784000D01*
X221014031Y-117784306D01*
X221017682Y-117784690D01*
X221017612Y-117785358D01*
X221081109Y-117804002D01*
X221127602Y-117857658D01*
X221132820Y-117871062D01*
X221165473Y-117971556D01*
X221168776Y-117977278D01*
X221168777Y-117977279D01*
X221220596Y-118067032D01*
X221237334Y-118136027D01*
X221214114Y-118203119D01*
X221158306Y-118247006D01*
X221087631Y-118253755D01*
X221082666Y-118252475D01*
X221082288Y-118252307D01*
X221055972Y-118246713D01*
X220901944Y-118213973D01*
X220901939Y-118213973D01*
X220895487Y-118212601D01*
X220704513Y-118212601D01*
X220698061Y-118213973D01*
X220698056Y-118213973D01*
X220646406Y-118224952D01*
X220517712Y-118252307D01*
X220511682Y-118254992D01*
X220511681Y-118254992D01*
X220349278Y-118327298D01*
X220349276Y-118327299D01*
X220343248Y-118329983D01*
X220188747Y-118442235D01*
X220060960Y-118584157D01*
X219965473Y-118749545D01*
X219906458Y-118931173D01*
X219886496Y-119121101D01*
X201488500Y-119121101D01*
X201488500Y-117342242D01*
X203343293Y-117342242D01*
X203360089Y-117542256D01*
X203361787Y-117548177D01*
X203361787Y-117548178D01*
X203364675Y-117558249D01*
X203415415Y-117735199D01*
X203507163Y-117913722D01*
X203631839Y-118071024D01*
X203636533Y-118075019D01*
X203709345Y-118136987D01*
X203784693Y-118201114D01*
X203790071Y-118204120D01*
X203790073Y-118204121D01*
X203820554Y-118221156D01*
X203959905Y-118299036D01*
X204046886Y-118327298D01*
X204144942Y-118359159D01*
X204144946Y-118359160D01*
X204150800Y-118361062D01*
X204350107Y-118384827D01*
X204356242Y-118384355D01*
X204356244Y-118384355D01*
X204544093Y-118369902D01*
X204544098Y-118369901D01*
X204550234Y-118369429D01*
X204556166Y-118367773D01*
X204556170Y-118367772D01*
X204737615Y-118317111D01*
X204737619Y-118317110D01*
X204743559Y-118315451D01*
X204749063Y-118312671D01*
X204749065Y-118312670D01*
X204917216Y-118227731D01*
X204917218Y-118227730D01*
X204922717Y-118224952D01*
X205080886Y-118101377D01*
X205212039Y-117949434D01*
X205311183Y-117774910D01*
X205374539Y-117584453D01*
X205399696Y-117385317D01*
X205400097Y-117356601D01*
X205380510Y-117156840D01*
X205322496Y-116964688D01*
X205228265Y-116787464D01*
X205101404Y-116631919D01*
X204946748Y-116503976D01*
X204770186Y-116408509D01*
X204674315Y-116378832D01*
X204584331Y-116350977D01*
X204584328Y-116350976D01*
X204578444Y-116349155D01*
X204572319Y-116348511D01*
X204572318Y-116348511D01*
X204384953Y-116328818D01*
X204384952Y-116328818D01*
X204378825Y-116328174D01*
X204295807Y-116335729D01*
X204185071Y-116345807D01*
X204185068Y-116345808D01*
X204178932Y-116346366D01*
X204173026Y-116348104D01*
X204173022Y-116348105D01*
X204030766Y-116389974D01*
X203986380Y-116403037D01*
X203808503Y-116496029D01*
X203652075Y-116621800D01*
X203648117Y-116626517D01*
X203648115Y-116626519D01*
X203593590Y-116691500D01*
X203523055Y-116775560D01*
X203520091Y-116780952D01*
X203520088Y-116780956D01*
X203468112Y-116875500D01*
X203426358Y-116951451D01*
X203424495Y-116957324D01*
X203390203Y-117065428D01*
X203365667Y-117142774D01*
X203364981Y-117148891D01*
X203364980Y-117148895D01*
X203354675Y-117240771D01*
X203343293Y-117342242D01*
X201488500Y-117342242D01*
X201488500Y-115272600D01*
X212762926Y-115272600D01*
X212782888Y-115462528D01*
X212841903Y-115644156D01*
X212937390Y-115809544D01*
X213065177Y-115951466D01*
X213219678Y-116063718D01*
X213225706Y-116066402D01*
X213225708Y-116066403D01*
X213266090Y-116084382D01*
X213394142Y-116141394D01*
X213487543Y-116161247D01*
X213574486Y-116179728D01*
X213574491Y-116179728D01*
X213580943Y-116181100D01*
X213771917Y-116181100D01*
X213778369Y-116179728D01*
X213778374Y-116179728D01*
X213865317Y-116161247D01*
X213958718Y-116141394D01*
X214086770Y-116084382D01*
X214127152Y-116066403D01*
X214127154Y-116066402D01*
X214133182Y-116063718D01*
X214287683Y-115951466D01*
X214415470Y-115809544D01*
X214510957Y-115644156D01*
X214569972Y-115462528D01*
X214589934Y-115272600D01*
X214569972Y-115082672D01*
X214510957Y-114901044D01*
X214415470Y-114735656D01*
X214320545Y-114630231D01*
X214289827Y-114566224D01*
X214298592Y-114495770D01*
X214344055Y-114441239D01*
X214387984Y-114422674D01*
X214415922Y-114416736D01*
X214466046Y-114406082D01*
X214466049Y-114406081D01*
X214472504Y-114404709D01*
X214478535Y-114402024D01*
X214640938Y-114329718D01*
X214640940Y-114329717D01*
X214646968Y-114327033D01*
X214801469Y-114214781D01*
X214929256Y-114072859D01*
X215024743Y-113907471D01*
X215083758Y-113725843D01*
X215103720Y-113535915D01*
X215083758Y-113345987D01*
X215024743Y-113164359D01*
X215015805Y-113148877D01*
X214953237Y-113040508D01*
X214929256Y-112998971D01*
X214801469Y-112857049D01*
X214646968Y-112744797D01*
X214640940Y-112742113D01*
X214640938Y-112742112D01*
X214478535Y-112669806D01*
X214478534Y-112669806D01*
X214472504Y-112667121D01*
X214379104Y-112647268D01*
X214292160Y-112628787D01*
X214292155Y-112628787D01*
X214285703Y-112627415D01*
X214094729Y-112627415D01*
X214088277Y-112628787D01*
X214088272Y-112628787D01*
X214001329Y-112647268D01*
X213907928Y-112667121D01*
X213901898Y-112669806D01*
X213901897Y-112669806D01*
X213739494Y-112742112D01*
X213739492Y-112742113D01*
X213733464Y-112744797D01*
X213578963Y-112857049D01*
X213451176Y-112998971D01*
X213427195Y-113040508D01*
X213364628Y-113148877D01*
X213355689Y-113164359D01*
X213296674Y-113345987D01*
X213276712Y-113535915D01*
X213296674Y-113725843D01*
X213355689Y-113907471D01*
X213451176Y-114072859D01*
X213455594Y-114077766D01*
X213455595Y-114077767D01*
X213546101Y-114178284D01*
X213576819Y-114242291D01*
X213568054Y-114312745D01*
X213522591Y-114367276D01*
X213478662Y-114385841D01*
X213450724Y-114391779D01*
X213400600Y-114402433D01*
X213400597Y-114402434D01*
X213394142Y-114403806D01*
X213388112Y-114406491D01*
X213388111Y-114406491D01*
X213225708Y-114478797D01*
X213225706Y-114478798D01*
X213219678Y-114481482D01*
X213065177Y-114593734D01*
X212937390Y-114735656D01*
X212841903Y-114901044D01*
X212782888Y-115082672D01*
X212762926Y-115272600D01*
X201488500Y-115272600D01*
X201488500Y-112368224D01*
X201508502Y-112300103D01*
X201562158Y-112253610D01*
X201632432Y-112243506D01*
X201697012Y-112273000D01*
X201702399Y-112277949D01*
X201852009Y-112423692D01*
X202032863Y-112544536D01*
X202038171Y-112546817D01*
X202038172Y-112546817D01*
X202227409Y-112628119D01*
X202227412Y-112628120D01*
X202232712Y-112630397D01*
X202238342Y-112631671D01*
X202406872Y-112669806D01*
X202444860Y-112678402D01*
X202450631Y-112678629D01*
X202450633Y-112678629D01*
X202523620Y-112681496D01*
X202662205Y-112686941D01*
X202877466Y-112655730D01*
X202882930Y-112653875D01*
X202882935Y-112653874D01*
X203077963Y-112587671D01*
X203077968Y-112587669D01*
X203083435Y-112585813D01*
X203273213Y-112479532D01*
X203440446Y-112340446D01*
X203500252Y-112268537D01*
X203559189Y-112228953D01*
X203630171Y-112227517D01*
X203692913Y-112267258D01*
X203696204Y-112271914D01*
X203700347Y-112275950D01*
X203700348Y-112275951D01*
X203766554Y-112340446D01*
X203852009Y-112423692D01*
X204032863Y-112544536D01*
X204038171Y-112546817D01*
X204038172Y-112546817D01*
X204227409Y-112628119D01*
X204227412Y-112628120D01*
X204232712Y-112630397D01*
X204238342Y-112631671D01*
X204406872Y-112669806D01*
X204444860Y-112678402D01*
X204450631Y-112678629D01*
X204450633Y-112678629D01*
X204523620Y-112681496D01*
X204662205Y-112686941D01*
X204877466Y-112655730D01*
X204882930Y-112653875D01*
X204882935Y-112653874D01*
X205077963Y-112587671D01*
X205077968Y-112587669D01*
X205083435Y-112585813D01*
X205273213Y-112479532D01*
X205419629Y-112357759D01*
X240699755Y-112357759D01*
X240719717Y-112547687D01*
X240778732Y-112729315D01*
X240782035Y-112735037D01*
X240782036Y-112735038D01*
X240789911Y-112748678D01*
X240874219Y-112894703D01*
X241002006Y-113036625D01*
X241156507Y-113148877D01*
X241162535Y-113151561D01*
X241162537Y-113151562D01*
X241324940Y-113223868D01*
X241330971Y-113226553D01*
X241424372Y-113246406D01*
X241511315Y-113264887D01*
X241511320Y-113264887D01*
X241517772Y-113266259D01*
X241708746Y-113266259D01*
X241715198Y-113264887D01*
X241715203Y-113264887D01*
X241802146Y-113246406D01*
X241895547Y-113226553D01*
X241901578Y-113223868D01*
X242063981Y-113151562D01*
X242063983Y-113151561D01*
X242070011Y-113148877D01*
X242224512Y-113036625D01*
X242352299Y-112894703D01*
X242436607Y-112748678D01*
X242444482Y-112735038D01*
X242444483Y-112735037D01*
X242447786Y-112729315D01*
X242506801Y-112547687D01*
X242513316Y-112485696D01*
X242540329Y-112420040D01*
X242598550Y-112379410D01*
X242664823Y-112375620D01*
X242813054Y-112407128D01*
X242813059Y-112407128D01*
X242819511Y-112408500D01*
X243010485Y-112408500D01*
X243016937Y-112407128D01*
X243016942Y-112407128D01*
X243103886Y-112388647D01*
X243197286Y-112368794D01*
X243207326Y-112364324D01*
X243365720Y-112293803D01*
X243365722Y-112293802D01*
X243371750Y-112291118D01*
X243404573Y-112267271D01*
X243459289Y-112227517D01*
X243526251Y-112178866D01*
X243602408Y-112094285D01*
X243649619Y-112041852D01*
X243649620Y-112041851D01*
X243654038Y-112036944D01*
X243712312Y-111936010D01*
X243746221Y-111877279D01*
X243746222Y-111877278D01*
X243749525Y-111871556D01*
X243808540Y-111689928D01*
X243828502Y-111500000D01*
X243814936Y-111370928D01*
X243809230Y-111316635D01*
X243809230Y-111316633D01*
X243808540Y-111310072D01*
X243749525Y-111128444D01*
X243654038Y-110963056D01*
X243526251Y-110821134D01*
X243389280Y-110721618D01*
X243377092Y-110712763D01*
X243377091Y-110712762D01*
X243371750Y-110708882D01*
X243365722Y-110706198D01*
X243365720Y-110706197D01*
X243203317Y-110633891D01*
X243203316Y-110633891D01*
X243197286Y-110631206D01*
X243081360Y-110606565D01*
X243016942Y-110592872D01*
X243016937Y-110592872D01*
X243010485Y-110591500D01*
X242819511Y-110591500D01*
X242813059Y-110592872D01*
X242813054Y-110592872D01*
X242748636Y-110606565D01*
X242632710Y-110631206D01*
X242626680Y-110633891D01*
X242626679Y-110633891D01*
X242464276Y-110706197D01*
X242464274Y-110706198D01*
X242458246Y-110708882D01*
X242452905Y-110712762D01*
X242452904Y-110712763D01*
X242440716Y-110721618D01*
X242303745Y-110821134D01*
X242175958Y-110963056D01*
X242080471Y-111128444D01*
X242021456Y-111310072D01*
X242020766Y-111316633D01*
X242020766Y-111316635D01*
X242014941Y-111372062D01*
X241987928Y-111437719D01*
X241929707Y-111478349D01*
X241863434Y-111482139D01*
X241715203Y-111450631D01*
X241715198Y-111450631D01*
X241708746Y-111449259D01*
X241517772Y-111449259D01*
X241511320Y-111450631D01*
X241511315Y-111450631D01*
X241425868Y-111468794D01*
X241330971Y-111488965D01*
X241324941Y-111491650D01*
X241324940Y-111491650D01*
X241162537Y-111563956D01*
X241162535Y-111563957D01*
X241156507Y-111566641D01*
X241002006Y-111678893D01*
X240997585Y-111683803D01*
X240997584Y-111683804D01*
X240913251Y-111777466D01*
X240874219Y-111820815D01*
X240778732Y-111986203D01*
X240719717Y-112167831D01*
X240719027Y-112174392D01*
X240719027Y-112174394D01*
X240708663Y-112273000D01*
X240699755Y-112357759D01*
X205419629Y-112357759D01*
X205440446Y-112340446D01*
X205579532Y-112173213D01*
X205685813Y-111983435D01*
X205687669Y-111977968D01*
X205687671Y-111977963D01*
X205753874Y-111782935D01*
X205753875Y-111782930D01*
X205755730Y-111777466D01*
X205756558Y-111771757D01*
X205756559Y-111771752D01*
X205777779Y-111625398D01*
X205807349Y-111560852D01*
X205867121Y-111522540D01*
X205938117Y-111522624D01*
X205997798Y-111561079D01*
X206011593Y-111580477D01*
X206090960Y-111717944D01*
X206095378Y-111722851D01*
X206095379Y-111722852D01*
X206120026Y-111750225D01*
X206218747Y-111859866D01*
X206373248Y-111972118D01*
X206379276Y-111974802D01*
X206379278Y-111974803D01*
X206506007Y-112031226D01*
X206547712Y-112049794D01*
X206641112Y-112069647D01*
X206728056Y-112088128D01*
X206728061Y-112088128D01*
X206734513Y-112089500D01*
X206925487Y-112089500D01*
X206931939Y-112088128D01*
X206931944Y-112088128D01*
X207018888Y-112069647D01*
X207112288Y-112049794D01*
X207153993Y-112031226D01*
X207280722Y-111974803D01*
X207280724Y-111974802D01*
X207286752Y-111972118D01*
X207441253Y-111859866D01*
X207539974Y-111750225D01*
X207564621Y-111722852D01*
X207564622Y-111722851D01*
X207569040Y-111717944D01*
X207664527Y-111552556D01*
X207723542Y-111370928D01*
X207728844Y-111320487D01*
X207742814Y-111187565D01*
X207743504Y-111181000D01*
X207727807Y-111031653D01*
X207724232Y-110997635D01*
X207724232Y-110997633D01*
X207723542Y-110991072D01*
X207664527Y-110809444D01*
X207653260Y-110789928D01*
X207617052Y-110727215D01*
X207569040Y-110644056D01*
X207564390Y-110638891D01*
X207445675Y-110507045D01*
X207445674Y-110507044D01*
X207441253Y-110502134D01*
X207303885Y-110402330D01*
X207292094Y-110393763D01*
X207292093Y-110393762D01*
X207286752Y-110389882D01*
X207280724Y-110387198D01*
X207280722Y-110387197D01*
X207118319Y-110314891D01*
X207118318Y-110314891D01*
X207112288Y-110312206D01*
X207018888Y-110292353D01*
X206931944Y-110273872D01*
X206931939Y-110273872D01*
X206925487Y-110272500D01*
X206734513Y-110272500D01*
X206728061Y-110273872D01*
X206728056Y-110273872D01*
X206641113Y-110292353D01*
X206547712Y-110312206D01*
X206541682Y-110314891D01*
X206541681Y-110314891D01*
X206379278Y-110387197D01*
X206379276Y-110387198D01*
X206373248Y-110389882D01*
X206367907Y-110393762D01*
X206367906Y-110393763D01*
X206356115Y-110402330D01*
X206218747Y-110502134D01*
X206214326Y-110507044D01*
X206214325Y-110507045D01*
X206095611Y-110638891D01*
X206090960Y-110644056D01*
X206042948Y-110727215D01*
X206006741Y-110789928D01*
X205995473Y-110809444D01*
X205936458Y-110991072D01*
X205935769Y-110997631D01*
X205935768Y-110997634D01*
X205934973Y-111005201D01*
X205907959Y-111070858D01*
X205849737Y-111111487D01*
X205778791Y-111114189D01*
X205717648Y-111078106D01*
X205696657Y-111047757D01*
X205695374Y-111045154D01*
X205613423Y-110878974D01*
X205500100Y-110727215D01*
X205486733Y-110709315D01*
X205486732Y-110709314D01*
X205483280Y-110704691D01*
X205426060Y-110651797D01*
X205362924Y-110593435D01*
X205361078Y-110591729D01*
X205324633Y-110530800D01*
X205326914Y-110459840D01*
X205366038Y-110402330D01*
X205366450Y-110401988D01*
X205440446Y-110340446D01*
X205579532Y-110173213D01*
X205685813Y-109983435D01*
X205687669Y-109977968D01*
X205687671Y-109977963D01*
X205753874Y-109782935D01*
X205753875Y-109782930D01*
X205755730Y-109777466D01*
X205786941Y-109562205D01*
X205788570Y-109500000D01*
X205768667Y-109283400D01*
X205754941Y-109234729D01*
X205711195Y-109079619D01*
X205709626Y-109074055D01*
X205613423Y-108878974D01*
X205570682Y-108821736D01*
X205486733Y-108709315D01*
X205486732Y-108709314D01*
X205483280Y-108704691D01*
X205470495Y-108692872D01*
X205360708Y-108591387D01*
X205324263Y-108530458D01*
X205326544Y-108459499D01*
X205365668Y-108401988D01*
X205435653Y-108343782D01*
X205443782Y-108335653D01*
X205575420Y-108177375D01*
X205581944Y-108167882D01*
X205656642Y-108034499D01*
X206796495Y-108034499D01*
X206816457Y-108224427D01*
X206875472Y-108406055D01*
X206878775Y-108411777D01*
X206878776Y-108411778D01*
X206895381Y-108440539D01*
X206970959Y-108571443D01*
X206975377Y-108576350D01*
X206975378Y-108576351D01*
X207071855Y-108683500D01*
X207098746Y-108713365D01*
X207253247Y-108825617D01*
X207259275Y-108828301D01*
X207259277Y-108828302D01*
X207421680Y-108900608D01*
X207427711Y-108903293D01*
X207511646Y-108921134D01*
X207608055Y-108941627D01*
X207608060Y-108941627D01*
X207614512Y-108942999D01*
X207805486Y-108942999D01*
X207811938Y-108941627D01*
X207811943Y-108941627D01*
X207908352Y-108921134D01*
X207992287Y-108903293D01*
X207998318Y-108900608D01*
X208160721Y-108828302D01*
X208160723Y-108828301D01*
X208166751Y-108825617D01*
X208321252Y-108713365D01*
X208348143Y-108683500D01*
X208444620Y-108576351D01*
X208444621Y-108576350D01*
X208449039Y-108571443D01*
X208524617Y-108440539D01*
X208541222Y-108411778D01*
X208541223Y-108411777D01*
X208544526Y-108406055D01*
X208603541Y-108224427D01*
X208623503Y-108034499D01*
X208611306Y-107918448D01*
X208604231Y-107851134D01*
X208604231Y-107851132D01*
X208603541Y-107844571D01*
X208556567Y-107700000D01*
X211715933Y-107700000D01*
X211716623Y-107706565D01*
X211734542Y-107877052D01*
X211735895Y-107889928D01*
X211794910Y-108071556D01*
X211798213Y-108077278D01*
X211798214Y-108077279D01*
X211806839Y-108092217D01*
X211890397Y-108236944D01*
X211894815Y-108241851D01*
X211894816Y-108241852D01*
X212013762Y-108373955D01*
X212018184Y-108378866D01*
X212077147Y-108421705D01*
X212165926Y-108486207D01*
X212172685Y-108491118D01*
X212178713Y-108493802D01*
X212178715Y-108493803D01*
X212320758Y-108557044D01*
X212347149Y-108568794D01*
X212440549Y-108588647D01*
X212527493Y-108607128D01*
X212527498Y-108607128D01*
X212533950Y-108608500D01*
X212724924Y-108608500D01*
X212731376Y-108607128D01*
X212731381Y-108607128D01*
X212818325Y-108588647D01*
X212911725Y-108568794D01*
X212938116Y-108557044D01*
X213080159Y-108493803D01*
X213080161Y-108493802D01*
X213086189Y-108491118D01*
X213092949Y-108486207D01*
X213181727Y-108421705D01*
X213240690Y-108378866D01*
X213245112Y-108373955D01*
X213364058Y-108241852D01*
X213364059Y-108241851D01*
X213368477Y-108236944D01*
X213452035Y-108092217D01*
X213460660Y-108077279D01*
X213460661Y-108077278D01*
X213463964Y-108071556D01*
X213522979Y-107889928D01*
X213523844Y-107881700D01*
X213524214Y-107880801D01*
X213525043Y-107876900D01*
X213525756Y-107877052D01*
X213550853Y-107816042D01*
X213609073Y-107775409D01*
X213680018Y-107772702D01*
X213742790Y-107810554D01*
X213789637Y-107862583D01*
X213944138Y-107974835D01*
X213950166Y-107977519D01*
X213950168Y-107977520D01*
X214078146Y-108034499D01*
X214118602Y-108052511D01*
X214208201Y-108071556D01*
X214298946Y-108090845D01*
X214298951Y-108090845D01*
X214305403Y-108092217D01*
X214496377Y-108092217D01*
X214502829Y-108090845D01*
X214502834Y-108090845D01*
X214593579Y-108071556D01*
X214683178Y-108052511D01*
X214723634Y-108034499D01*
X214851612Y-107977520D01*
X214851614Y-107977519D01*
X214857642Y-107974835D01*
X215012143Y-107862583D01*
X215058990Y-107810554D01*
X215135511Y-107725569D01*
X215135512Y-107725568D01*
X215139930Y-107720661D01*
X215227074Y-107569724D01*
X215278457Y-107520731D01*
X215348170Y-107507295D01*
X215362390Y-107509477D01*
X215489658Y-107536529D01*
X215489663Y-107536529D01*
X215496115Y-107537901D01*
X215687089Y-107537901D01*
X215693541Y-107536529D01*
X215693546Y-107536529D01*
X215850000Y-107503273D01*
X215870677Y-107498878D01*
X215870678Y-107498878D01*
X215873890Y-107498195D01*
X215874015Y-107498782D01*
X215940414Y-107496885D01*
X216001212Y-107533547D01*
X216032538Y-107597258D01*
X216024446Y-107667792D01*
X216018835Y-107679070D01*
X216018117Y-107680683D01*
X216014813Y-107686406D01*
X215955798Y-107868034D01*
X215955108Y-107874595D01*
X215955108Y-107874597D01*
X215944981Y-107970954D01*
X215935836Y-108057962D01*
X215936526Y-108064527D01*
X215954648Y-108236944D01*
X215955798Y-108247890D01*
X216014813Y-108429518D01*
X216018116Y-108435240D01*
X216018117Y-108435241D01*
X216099587Y-108576351D01*
X216110300Y-108594906D01*
X216114719Y-108599813D01*
X216117084Y-108603069D01*
X216140943Y-108669937D01*
X216130602Y-108726484D01*
X216129470Y-108728444D01*
X216080560Y-108878974D01*
X216078662Y-108884815D01*
X216038589Y-108943421D01*
X215971997Y-108971189D01*
X215967162Y-108971697D01*
X215960560Y-108971697D01*
X215954107Y-108973069D01*
X215954104Y-108973069D01*
X215891534Y-108986369D01*
X215773759Y-109011403D01*
X215767729Y-109014088D01*
X215767728Y-109014088D01*
X215605325Y-109086394D01*
X215605323Y-109086395D01*
X215599295Y-109089079D01*
X215593954Y-109092959D01*
X215593953Y-109092960D01*
X215575228Y-109106565D01*
X215444794Y-109201331D01*
X215317007Y-109343253D01*
X215221520Y-109508641D01*
X215162505Y-109690269D01*
X215161815Y-109696830D01*
X215161815Y-109696832D01*
X215149348Y-109815448D01*
X215142543Y-109880197D01*
X215143233Y-109886762D01*
X215151485Y-109965271D01*
X215162505Y-110070125D01*
X215221520Y-110251753D01*
X215224823Y-110257475D01*
X215224824Y-110257476D01*
X215256423Y-110312206D01*
X215317007Y-110417141D01*
X215321425Y-110422048D01*
X215321426Y-110422049D01*
X215411352Y-110521922D01*
X215442070Y-110585929D01*
X215438027Y-110638891D01*
X215438809Y-110639057D01*
X215437569Y-110644893D01*
X215437547Y-110645174D01*
X215435395Y-110651797D01*
X215434705Y-110658363D01*
X215434704Y-110658367D01*
X215424664Y-110753896D01*
X215415433Y-110841725D01*
X215416123Y-110848290D01*
X215431820Y-110997635D01*
X215435395Y-111031653D01*
X215494410Y-111213281D01*
X215589897Y-111378669D01*
X215594315Y-111383576D01*
X215594316Y-111383577D01*
X215689208Y-111488965D01*
X215717684Y-111520591D01*
X215872185Y-111632843D01*
X215878213Y-111635527D01*
X215878215Y-111635528D01*
X216014501Y-111696206D01*
X216046649Y-111710519D01*
X216140050Y-111730372D01*
X216226993Y-111748853D01*
X216226998Y-111748853D01*
X216233450Y-111750225D01*
X216424424Y-111750225D01*
X216430876Y-111748853D01*
X216430881Y-111748853D01*
X216517824Y-111730372D01*
X216611225Y-111710519D01*
X216643373Y-111696206D01*
X216779659Y-111635528D01*
X216779661Y-111635527D01*
X216785689Y-111632843D01*
X216940190Y-111520591D01*
X216969902Y-111487593D01*
X217025216Y-111426160D01*
X217085662Y-111388920D01*
X217156646Y-111390272D01*
X217212486Y-111426158D01*
X217250275Y-111468127D01*
X217404776Y-111580379D01*
X217410804Y-111583063D01*
X217410806Y-111583064D01*
X217528643Y-111635528D01*
X217579240Y-111658055D01*
X217659007Y-111675010D01*
X217759584Y-111696389D01*
X217759589Y-111696389D01*
X217766041Y-111697761D01*
X217957015Y-111697761D01*
X217963467Y-111696389D01*
X217963472Y-111696389D01*
X218064049Y-111675010D01*
X218143816Y-111658055D01*
X218194413Y-111635528D01*
X218312250Y-111583064D01*
X218312252Y-111583063D01*
X218318280Y-111580379D01*
X218472781Y-111468127D01*
X218477203Y-111463216D01*
X218596149Y-111331113D01*
X218596150Y-111331112D01*
X218600568Y-111326205D01*
X218665765Y-111213281D01*
X218692751Y-111166540D01*
X218692752Y-111166539D01*
X218696055Y-111160817D01*
X218755070Y-110979189D01*
X218757282Y-110958148D01*
X218774342Y-110795826D01*
X218775032Y-110789261D01*
X218766630Y-110709319D01*
X218755760Y-110605896D01*
X218755760Y-110605894D01*
X218755140Y-110600000D01*
X222786496Y-110600000D01*
X222787186Y-110606565D01*
X222792631Y-110658367D01*
X222806458Y-110789928D01*
X222865473Y-110971556D01*
X222868776Y-110977278D01*
X222868777Y-110977279D01*
X222880529Y-110997634D01*
X222960960Y-111136944D01*
X223088747Y-111278866D01*
X223146033Y-111320487D01*
X223232869Y-111383577D01*
X223243248Y-111391118D01*
X223249276Y-111393802D01*
X223249278Y-111393803D01*
X223411681Y-111466109D01*
X223417712Y-111468794D01*
X223506154Y-111487593D01*
X223598056Y-111507128D01*
X223598061Y-111507128D01*
X223604513Y-111508500D01*
X223795487Y-111508500D01*
X223801939Y-111507128D01*
X223801944Y-111507128D01*
X223893846Y-111487593D01*
X223982288Y-111468794D01*
X223988319Y-111466109D01*
X224150722Y-111393803D01*
X224150724Y-111393802D01*
X224156752Y-111391118D01*
X224167132Y-111383577D01*
X224253967Y-111320487D01*
X224311253Y-111278866D01*
X224439040Y-111136944D01*
X224519471Y-110997634D01*
X224531223Y-110977279D01*
X224531224Y-110977278D01*
X224534527Y-110971556D01*
X224593542Y-110789928D01*
X224607370Y-110658367D01*
X224612814Y-110606565D01*
X224613504Y-110600000D01*
X224608989Y-110557044D01*
X224594232Y-110416635D01*
X224594232Y-110416633D01*
X224593542Y-110410072D01*
X224534527Y-110228444D01*
X224439040Y-110063056D01*
X224311253Y-109921134D01*
X224212157Y-109849136D01*
X224162094Y-109812763D01*
X224162093Y-109812762D01*
X224156752Y-109808882D01*
X224150724Y-109806198D01*
X224150722Y-109806197D01*
X223988319Y-109733891D01*
X223988318Y-109733891D01*
X223982288Y-109731206D01*
X223888887Y-109711353D01*
X223801944Y-109692872D01*
X223801939Y-109692872D01*
X223795487Y-109691500D01*
X223604513Y-109691500D01*
X223598061Y-109692872D01*
X223598056Y-109692872D01*
X223511113Y-109711353D01*
X223417712Y-109731206D01*
X223411682Y-109733891D01*
X223411681Y-109733891D01*
X223249278Y-109806197D01*
X223249276Y-109806198D01*
X223243248Y-109808882D01*
X223237907Y-109812762D01*
X223237906Y-109812763D01*
X223187843Y-109849136D01*
X223088747Y-109921134D01*
X222960960Y-110063056D01*
X222865473Y-110228444D01*
X222806458Y-110410072D01*
X222805768Y-110416633D01*
X222805768Y-110416635D01*
X222791011Y-110557044D01*
X222786496Y-110600000D01*
X218755140Y-110600000D01*
X218755070Y-110599333D01*
X218696055Y-110417705D01*
X218688024Y-110403794D01*
X218614212Y-110275949D01*
X218600568Y-110252317D01*
X218579184Y-110228567D01*
X218477203Y-110115306D01*
X218477202Y-110115305D01*
X218472781Y-110110395D01*
X218318280Y-109998143D01*
X218312252Y-109995459D01*
X218312250Y-109995458D01*
X218149847Y-109923152D01*
X218149846Y-109923152D01*
X218143816Y-109920467D01*
X218002422Y-109890413D01*
X217939950Y-109856685D01*
X217914115Y-109814751D01*
X217912549Y-109815448D01*
X217909865Y-109809419D01*
X217907823Y-109803135D01*
X217812336Y-109637747D01*
X217806711Y-109631500D01*
X217806258Y-109630556D01*
X217804037Y-109627499D01*
X217804596Y-109627093D01*
X217791594Y-109600000D01*
X250986496Y-109600000D01*
X250987186Y-109606565D01*
X251004548Y-109771752D01*
X251006458Y-109789928D01*
X251065473Y-109971556D01*
X251160960Y-110136944D01*
X251165378Y-110141851D01*
X251165379Y-110141852D01*
X251249006Y-110234729D01*
X251288747Y-110278866D01*
X251443248Y-110391118D01*
X251449276Y-110393802D01*
X251449278Y-110393803D01*
X251517080Y-110423990D01*
X251617712Y-110468794D01*
X251711113Y-110488647D01*
X251798056Y-110507128D01*
X251798061Y-110507128D01*
X251804513Y-110508500D01*
X251995487Y-110508500D01*
X252001939Y-110507128D01*
X252001944Y-110507128D01*
X252088888Y-110488647D01*
X252182288Y-110468794D01*
X252282920Y-110423990D01*
X252350722Y-110393803D01*
X252350724Y-110393802D01*
X252356752Y-110391118D01*
X252511253Y-110278866D01*
X252550994Y-110234729D01*
X252634621Y-110141852D01*
X252634622Y-110141851D01*
X252639040Y-110136944D01*
X252734527Y-109971556D01*
X252793542Y-109789928D01*
X252795453Y-109771752D01*
X252812814Y-109606565D01*
X252813504Y-109600000D01*
X252809142Y-109558497D01*
X252794232Y-109416635D01*
X252794232Y-109416633D01*
X252793542Y-109410072D01*
X252734527Y-109228444D01*
X252716632Y-109197448D01*
X252664160Y-109106565D01*
X252639040Y-109063056D01*
X252603110Y-109023151D01*
X252515675Y-108926045D01*
X252515674Y-108926044D01*
X252511253Y-108921134D01*
X252356752Y-108808882D01*
X252350724Y-108806198D01*
X252350722Y-108806197D01*
X252188319Y-108733891D01*
X252188318Y-108733891D01*
X252182288Y-108731206D01*
X252075249Y-108708454D01*
X252001944Y-108692872D01*
X252001939Y-108692872D01*
X251995487Y-108691500D01*
X251804513Y-108691500D01*
X251798061Y-108692872D01*
X251798056Y-108692872D01*
X251724751Y-108708454D01*
X251617712Y-108731206D01*
X251611682Y-108733891D01*
X251611681Y-108733891D01*
X251449278Y-108806197D01*
X251449276Y-108806198D01*
X251443248Y-108808882D01*
X251288747Y-108921134D01*
X251284326Y-108926044D01*
X251284325Y-108926045D01*
X251196891Y-109023151D01*
X251160960Y-109063056D01*
X251135840Y-109106565D01*
X251083369Y-109197448D01*
X251065473Y-109228444D01*
X251006458Y-109410072D01*
X251005768Y-109416633D01*
X251005768Y-109416635D01*
X250990858Y-109558497D01*
X250986496Y-109600000D01*
X217791594Y-109600000D01*
X217775995Y-109567495D01*
X217784758Y-109497041D01*
X217791224Y-109484199D01*
X217798524Y-109471556D01*
X217857539Y-109289928D01*
X217877501Y-109100000D01*
X217857539Y-108910072D01*
X217798524Y-108728444D01*
X217777987Y-108692872D01*
X217706339Y-108568775D01*
X217706338Y-108568774D01*
X217703037Y-108563056D01*
X217698618Y-108558149D01*
X217696253Y-108554893D01*
X217672394Y-108488025D01*
X217682735Y-108431478D01*
X217683867Y-108429518D01*
X217742882Y-108247890D01*
X217744033Y-108236944D01*
X217762154Y-108064527D01*
X217762844Y-108057962D01*
X217753699Y-107970954D01*
X217743572Y-107874597D01*
X217743572Y-107874595D01*
X217742882Y-107868034D01*
X217683867Y-107686406D01*
X217677631Y-107675604D01*
X217597335Y-107536529D01*
X217588380Y-107521018D01*
X217577989Y-107509477D01*
X217479415Y-107400000D01*
X235286496Y-107400000D01*
X235287186Y-107406565D01*
X235305174Y-107577707D01*
X235306458Y-107589928D01*
X235365473Y-107771556D01*
X235368776Y-107777278D01*
X235368777Y-107777279D01*
X235391157Y-107816042D01*
X235460960Y-107936944D01*
X235465378Y-107941851D01*
X235465379Y-107941852D01*
X235507176Y-107988272D01*
X235588747Y-108078866D01*
X235605235Y-108090845D01*
X235711267Y-108167882D01*
X235743248Y-108191118D01*
X235749276Y-108193802D01*
X235749278Y-108193803D01*
X235884861Y-108254168D01*
X235917712Y-108268794D01*
X236011112Y-108288647D01*
X236098056Y-108307128D01*
X236098061Y-108307128D01*
X236104513Y-108308500D01*
X236295487Y-108308500D01*
X236301939Y-108307128D01*
X236301944Y-108307128D01*
X236388888Y-108288647D01*
X236482288Y-108268794D01*
X236515139Y-108254168D01*
X236650722Y-108193803D01*
X236650724Y-108193802D01*
X236656752Y-108191118D01*
X236688734Y-108167882D01*
X236761999Y-108114651D01*
X239686496Y-108114651D01*
X239687186Y-108121216D01*
X239701160Y-108254168D01*
X239706458Y-108304579D01*
X239765473Y-108486207D01*
X239768776Y-108491929D01*
X239768777Y-108491930D01*
X239772230Y-108497911D01*
X239860960Y-108651595D01*
X239865378Y-108656502D01*
X239865379Y-108656503D01*
X239935813Y-108734728D01*
X239988747Y-108793517D01*
X240070147Y-108852658D01*
X240136145Y-108900608D01*
X240143248Y-108905769D01*
X240149276Y-108908453D01*
X240149278Y-108908454D01*
X240226868Y-108942999D01*
X240317712Y-108983445D01*
X240411112Y-109003298D01*
X240498056Y-109021779D01*
X240498061Y-109021779D01*
X240504513Y-109023151D01*
X240695487Y-109023151D01*
X240701939Y-109021779D01*
X240701944Y-109021779D01*
X240788887Y-109003298D01*
X240882288Y-108983445D01*
X240973132Y-108942999D01*
X241050722Y-108908454D01*
X241050724Y-108908453D01*
X241056752Y-108905769D01*
X241063856Y-108900608D01*
X241129853Y-108852658D01*
X241211253Y-108793517D01*
X241264187Y-108734728D01*
X241334621Y-108656503D01*
X241334622Y-108656502D01*
X241339040Y-108651595D01*
X241427770Y-108497911D01*
X241431223Y-108491930D01*
X241431224Y-108491929D01*
X241434527Y-108486207D01*
X241493542Y-108304579D01*
X241498841Y-108254168D01*
X241512814Y-108121216D01*
X241513504Y-108114651D01*
X241498401Y-107970954D01*
X241494232Y-107931286D01*
X241494232Y-107931284D01*
X241493542Y-107924723D01*
X241476139Y-107871162D01*
X241474111Y-107800196D01*
X241510773Y-107739398D01*
X241574486Y-107708073D01*
X241595972Y-107706227D01*
X241730602Y-107706227D01*
X241737054Y-107704855D01*
X241737059Y-107704855D01*
X241850776Y-107680683D01*
X241917403Y-107666521D01*
X241923434Y-107663836D01*
X242085837Y-107591530D01*
X242085839Y-107591529D01*
X242091867Y-107588845D01*
X242099322Y-107583429D01*
X242161985Y-107537901D01*
X242246368Y-107476593D01*
X242296857Y-107420519D01*
X242369736Y-107339579D01*
X242369737Y-107339578D01*
X242374155Y-107334671D01*
X242452752Y-107198537D01*
X242466338Y-107175006D01*
X242466339Y-107175005D01*
X242469642Y-107169283D01*
X242528657Y-106987655D01*
X242530640Y-106968794D01*
X242547929Y-106804292D01*
X242548619Y-106797727D01*
X242546426Y-106776866D01*
X242529347Y-106614362D01*
X242529347Y-106614360D01*
X242528657Y-106607799D01*
X242469642Y-106426171D01*
X242374155Y-106260783D01*
X242246368Y-106118861D01*
X242091867Y-106006609D01*
X242085839Y-106003925D01*
X242085837Y-106003924D01*
X241923434Y-105931618D01*
X241923433Y-105931618D01*
X241917403Y-105928933D01*
X241824002Y-105909080D01*
X241737059Y-105890599D01*
X241737054Y-105890599D01*
X241730602Y-105889227D01*
X241539628Y-105889227D01*
X241533176Y-105890599D01*
X241533171Y-105890599D01*
X241446228Y-105909080D01*
X241352827Y-105928933D01*
X241346797Y-105931618D01*
X241346796Y-105931618D01*
X241184393Y-106003924D01*
X241184391Y-106003925D01*
X241178363Y-106006609D01*
X241173022Y-106010489D01*
X241173021Y-106010490D01*
X241150227Y-106027051D01*
X241083359Y-106050910D01*
X241024918Y-106040222D01*
X240919989Y-105993505D01*
X240826588Y-105973652D01*
X240739645Y-105955171D01*
X240739640Y-105955171D01*
X240733188Y-105953799D01*
X240542214Y-105953799D01*
X240535762Y-105955171D01*
X240535757Y-105955171D01*
X240448814Y-105973652D01*
X240355413Y-105993505D01*
X240349383Y-105996190D01*
X240349382Y-105996190D01*
X240186979Y-106068496D01*
X240186977Y-106068497D01*
X240180949Y-106071181D01*
X240026448Y-106183433D01*
X240022027Y-106188343D01*
X240022026Y-106188344D01*
X239930560Y-106289928D01*
X239898661Y-106325355D01*
X239866739Y-106380646D01*
X239808605Y-106481337D01*
X239803174Y-106490743D01*
X239744159Y-106672371D01*
X239743469Y-106678932D01*
X239743469Y-106678934D01*
X239730294Y-106804292D01*
X239724197Y-106862299D01*
X239724887Y-106868864D01*
X239741538Y-107027286D01*
X239744159Y-107052227D01*
X239803174Y-107233855D01*
X239806477Y-107239577D01*
X239806478Y-107239578D01*
X239898661Y-107399243D01*
X239897079Y-107400156D01*
X239917941Y-107458650D01*
X239901853Y-107527799D01*
X239885783Y-107550138D01*
X239868148Y-107569724D01*
X239860960Y-107577707D01*
X239857658Y-107583426D01*
X239857656Y-107583429D01*
X239770725Y-107733998D01*
X239765473Y-107743095D01*
X239706458Y-107924723D01*
X239705768Y-107931284D01*
X239705768Y-107931286D01*
X239701599Y-107970954D01*
X239686496Y-108114651D01*
X236761999Y-108114651D01*
X236794765Y-108090845D01*
X236811253Y-108078866D01*
X236892824Y-107988272D01*
X236934621Y-107941852D01*
X236934622Y-107941851D01*
X236939040Y-107936944D01*
X237008843Y-107816042D01*
X237031223Y-107777279D01*
X237031224Y-107777278D01*
X237034527Y-107771556D01*
X237093542Y-107589928D01*
X237094827Y-107577707D01*
X237112814Y-107406565D01*
X237113504Y-107400000D01*
X237093542Y-107210072D01*
X237034527Y-107028444D01*
X237023499Y-107009342D01*
X236965193Y-106908355D01*
X236939040Y-106863056D01*
X236913157Y-106834310D01*
X236882439Y-106770303D01*
X236891204Y-106699849D01*
X236913157Y-106665690D01*
X236934621Y-106641852D01*
X236934622Y-106641851D01*
X236939040Y-106636944D01*
X237026754Y-106485020D01*
X237031223Y-106477279D01*
X237031224Y-106477278D01*
X237034527Y-106471556D01*
X237093542Y-106289928D01*
X237094512Y-106280705D01*
X237112814Y-106106565D01*
X237113504Y-106100000D01*
X237110193Y-106068496D01*
X237094232Y-105916635D01*
X237094232Y-105916633D01*
X237093542Y-105910072D01*
X237034527Y-105728444D01*
X236939040Y-105563056D01*
X236811253Y-105421134D01*
X236674966Y-105322115D01*
X236662094Y-105312763D01*
X236662093Y-105312762D01*
X236656752Y-105308882D01*
X236650724Y-105306198D01*
X236650722Y-105306197D01*
X236488319Y-105233891D01*
X236488318Y-105233891D01*
X236482288Y-105231206D01*
X236475833Y-105229834D01*
X236475830Y-105229833D01*
X236425583Y-105219153D01*
X236363109Y-105185425D01*
X236328787Y-105123275D01*
X236333515Y-105052436D01*
X236375790Y-104995399D01*
X236425582Y-104972659D01*
X236460809Y-104965171D01*
X236517514Y-104953118D01*
X236523545Y-104950433D01*
X236685948Y-104878127D01*
X236685950Y-104878126D01*
X236691978Y-104875442D01*
X236846479Y-104763190D01*
X236974266Y-104621268D01*
X237069753Y-104455880D01*
X237128768Y-104274252D01*
X237148730Y-104084324D01*
X237132111Y-103926205D01*
X237129458Y-103900959D01*
X237129458Y-103900957D01*
X237128768Y-103894396D01*
X237069753Y-103712768D01*
X236974266Y-103547380D01*
X236969846Y-103542472D01*
X236965967Y-103537132D01*
X236968119Y-103535569D01*
X236942527Y-103482230D01*
X236951296Y-103411777D01*
X236973246Y-103377627D01*
X237005458Y-103341852D01*
X237005459Y-103341851D01*
X237009877Y-103336944D01*
X237105364Y-103171556D01*
X237164379Y-102989928D01*
X237165252Y-102981628D01*
X237183651Y-102806565D01*
X237184341Y-102800000D01*
X237179440Y-102753366D01*
X237165069Y-102616635D01*
X237165069Y-102616633D01*
X237164379Y-102610072D01*
X237105364Y-102428444D01*
X237009877Y-102263056D01*
X236996698Y-102248419D01*
X236965981Y-102184411D01*
X236974746Y-102113958D01*
X236993300Y-102085086D01*
X236993038Y-102084896D01*
X236996363Y-102080319D01*
X236996693Y-102079806D01*
X236996916Y-102079558D01*
X236996920Y-102079553D01*
X237001339Y-102074645D01*
X237063046Y-101967765D01*
X237093522Y-101914980D01*
X237093523Y-101914979D01*
X237096826Y-101909257D01*
X237155841Y-101727629D01*
X237158436Y-101702944D01*
X237165109Y-101639451D01*
X237171132Y-101582146D01*
X237198144Y-101516491D01*
X237256365Y-101475861D01*
X237270238Y-101472073D01*
X237277625Y-101470503D01*
X237294769Y-101462870D01*
X237446059Y-101395512D01*
X237446061Y-101395511D01*
X237452089Y-101392827D01*
X237606590Y-101280575D01*
X237734377Y-101138653D01*
X237758080Y-101097599D01*
X254237843Y-101097599D01*
X254238533Y-101104164D01*
X254249488Y-101208391D01*
X254257805Y-101287527D01*
X254316820Y-101469155D01*
X254320123Y-101474877D01*
X254320124Y-101474878D01*
X254352605Y-101531136D01*
X254412307Y-101634543D01*
X254416725Y-101639450D01*
X254416726Y-101639451D01*
X254496122Y-101727629D01*
X254540094Y-101776465D01*
X254694595Y-101888717D01*
X254700623Y-101891401D01*
X254700625Y-101891402D01*
X254863028Y-101963708D01*
X254869059Y-101966393D01*
X254962459Y-101986246D01*
X255049403Y-102004727D01*
X255049408Y-102004727D01*
X255055860Y-102006099D01*
X255246834Y-102006099D01*
X255253286Y-102004727D01*
X255253291Y-102004727D01*
X255340235Y-101986246D01*
X255433635Y-101966393D01*
X255439666Y-101963708D01*
X255602069Y-101891402D01*
X255602071Y-101891401D01*
X255608099Y-101888717D01*
X255762600Y-101776465D01*
X255806572Y-101727629D01*
X255885968Y-101639451D01*
X255885969Y-101639450D01*
X255890387Y-101634543D01*
X255950089Y-101531136D01*
X255982570Y-101474878D01*
X255982571Y-101474877D01*
X255985874Y-101469155D01*
X256044889Y-101287527D01*
X256053207Y-101208391D01*
X256064161Y-101104164D01*
X256064851Y-101097599D01*
X256044889Y-100907671D01*
X255985874Y-100726043D01*
X255890387Y-100560655D01*
X255872981Y-100541323D01*
X255767022Y-100423644D01*
X255767021Y-100423643D01*
X255762600Y-100418733D01*
X255608099Y-100306481D01*
X255602071Y-100303797D01*
X255602069Y-100303796D01*
X255439666Y-100231490D01*
X255439665Y-100231490D01*
X255433635Y-100228805D01*
X255340234Y-100208952D01*
X255253291Y-100190471D01*
X255253286Y-100190471D01*
X255246834Y-100189099D01*
X255055860Y-100189099D01*
X255049408Y-100190471D01*
X255049403Y-100190471D01*
X254962460Y-100208952D01*
X254869059Y-100228805D01*
X254863029Y-100231490D01*
X254863028Y-100231490D01*
X254700625Y-100303796D01*
X254700623Y-100303797D01*
X254694595Y-100306481D01*
X254540094Y-100418733D01*
X254535673Y-100423643D01*
X254535672Y-100423644D01*
X254429714Y-100541323D01*
X254412307Y-100560655D01*
X254316820Y-100726043D01*
X254257805Y-100907671D01*
X254237843Y-101097599D01*
X237758080Y-101097599D01*
X237810690Y-101006475D01*
X237826560Y-100978988D01*
X237826561Y-100978987D01*
X237829864Y-100973265D01*
X237888879Y-100791637D01*
X237893207Y-100750464D01*
X237908151Y-100608274D01*
X237908841Y-100601709D01*
X237902494Y-100541323D01*
X237889569Y-100418344D01*
X237889569Y-100418342D01*
X237888879Y-100411781D01*
X237829864Y-100230153D01*
X237734377Y-100064765D01*
X237606590Y-99922843D01*
X237452089Y-99810591D01*
X237446061Y-99807907D01*
X237446059Y-99807906D01*
X237280494Y-99734192D01*
X237226398Y-99688212D01*
X237206433Y-99632256D01*
X237194281Y-99516634D01*
X237194280Y-99516631D01*
X237193591Y-99510072D01*
X237134576Y-99328444D01*
X237039089Y-99163056D01*
X236911302Y-99021134D01*
X236756801Y-98908882D01*
X236750773Y-98906198D01*
X236750771Y-98906197D01*
X236588368Y-98833891D01*
X236588367Y-98833891D01*
X236582337Y-98831206D01*
X236488936Y-98811353D01*
X236401993Y-98792872D01*
X236401988Y-98792872D01*
X236395536Y-98791500D01*
X236204562Y-98791500D01*
X236198110Y-98792872D01*
X236198105Y-98792872D01*
X236111162Y-98811353D01*
X236017761Y-98831206D01*
X236011731Y-98833891D01*
X236011730Y-98833891D01*
X235849327Y-98906197D01*
X235849325Y-98906198D01*
X235843297Y-98908882D01*
X235688796Y-99021134D01*
X235561009Y-99163056D01*
X235465522Y-99328444D01*
X235406507Y-99510072D01*
X235386545Y-99700000D01*
X235406507Y-99889928D01*
X235465522Y-100071556D01*
X235561009Y-100236944D01*
X235688796Y-100378866D01*
X235843297Y-100491118D01*
X235849325Y-100493802D01*
X235849334Y-100493807D01*
X235852782Y-100495342D01*
X235854453Y-100496762D01*
X235855050Y-100497107D01*
X235854987Y-100497216D01*
X235906877Y-100541323D01*
X235927524Y-100609251D01*
X235908170Y-100677559D01*
X235852779Y-100725554D01*
X235811577Y-100743898D01*
X235811575Y-100743899D01*
X235805547Y-100746583D01*
X235651046Y-100858835D01*
X235646625Y-100863745D01*
X235646624Y-100863746D01*
X235601165Y-100914234D01*
X235523259Y-101000757D01*
X235519958Y-101006475D01*
X235443645Y-101138653D01*
X235427772Y-101166145D01*
X235368757Y-101347773D01*
X235368067Y-101354334D01*
X235368067Y-101354336D01*
X235355693Y-101472071D01*
X235348795Y-101537701D01*
X235349485Y-101544266D01*
X235366163Y-101702944D01*
X235368757Y-101727629D01*
X235427772Y-101909257D01*
X235523259Y-102074645D01*
X235527677Y-102079552D01*
X235527678Y-102079553D01*
X235536438Y-102089282D01*
X235567155Y-102153290D01*
X235558390Y-102223743D01*
X235539836Y-102252615D01*
X235540098Y-102252805D01*
X235536773Y-102257382D01*
X235536443Y-102257895D01*
X235536220Y-102258143D01*
X235536217Y-102258147D01*
X235531797Y-102263056D01*
X235436310Y-102428444D01*
X235377295Y-102610072D01*
X235376605Y-102616633D01*
X235376605Y-102616635D01*
X235362234Y-102753366D01*
X235357333Y-102800000D01*
X235358023Y-102806565D01*
X235376423Y-102981628D01*
X235377295Y-102989928D01*
X235436310Y-103171556D01*
X235531797Y-103336944D01*
X235536217Y-103341852D01*
X235540096Y-103347192D01*
X235537944Y-103348755D01*
X235563536Y-103402094D01*
X235554767Y-103472547D01*
X235532817Y-103506697D01*
X235506821Y-103535569D01*
X235496186Y-103547380D01*
X235400699Y-103712768D01*
X235341684Y-103894396D01*
X235340994Y-103900957D01*
X235340994Y-103900959D01*
X235338341Y-103926205D01*
X235321722Y-104084324D01*
X235341684Y-104274252D01*
X235400699Y-104455880D01*
X235496186Y-104621268D01*
X235623973Y-104763190D01*
X235778474Y-104875442D01*
X235784502Y-104878126D01*
X235784504Y-104878127D01*
X235946907Y-104950433D01*
X235952938Y-104953118D01*
X235959393Y-104954490D01*
X235959396Y-104954491D01*
X236009643Y-104965171D01*
X236072117Y-104998899D01*
X236106439Y-105061049D01*
X236101711Y-105131888D01*
X236059436Y-105188925D01*
X236009644Y-105211665D01*
X235990398Y-105215756D01*
X235917712Y-105231206D01*
X235911682Y-105233891D01*
X235911681Y-105233891D01*
X235749278Y-105306197D01*
X235749276Y-105306198D01*
X235743248Y-105308882D01*
X235737907Y-105312762D01*
X235737906Y-105312763D01*
X235725034Y-105322115D01*
X235588747Y-105421134D01*
X235460960Y-105563056D01*
X235365473Y-105728444D01*
X235306458Y-105910072D01*
X235305768Y-105916633D01*
X235305768Y-105916635D01*
X235289807Y-106068496D01*
X235286496Y-106100000D01*
X235287186Y-106106565D01*
X235305489Y-106280705D01*
X235306458Y-106289928D01*
X235365473Y-106471556D01*
X235368776Y-106477278D01*
X235368777Y-106477279D01*
X235373246Y-106485020D01*
X235460960Y-106636944D01*
X235465378Y-106641851D01*
X235465379Y-106641852D01*
X235486843Y-106665690D01*
X235517561Y-106729697D01*
X235508796Y-106800151D01*
X235486843Y-106834310D01*
X235460960Y-106863056D01*
X235434807Y-106908355D01*
X235376502Y-107009342D01*
X235365473Y-107028444D01*
X235306458Y-107210072D01*
X235286496Y-107400000D01*
X217479415Y-107400000D01*
X217465015Y-107384007D01*
X217465014Y-107384006D01*
X217460593Y-107379096D01*
X217306092Y-107266844D01*
X217300064Y-107264160D01*
X217300062Y-107264159D01*
X217201014Y-107220060D01*
X217146918Y-107174080D01*
X217145056Y-107167956D01*
X217080333Y-107177892D01*
X217070880Y-107176255D01*
X216951293Y-107150835D01*
X216951280Y-107150834D01*
X216944827Y-107149462D01*
X216938225Y-107149462D01*
X216931658Y-107148772D01*
X216931978Y-107145730D01*
X216876567Y-107129460D01*
X216830074Y-107075804D01*
X216819970Y-107005530D01*
X216849464Y-106940950D01*
X216893439Y-106908355D01*
X216932154Y-106891118D01*
X216932837Y-106892653D01*
X216993684Y-106877885D01*
X217042728Y-106892286D01*
X217043248Y-106891118D01*
X217148326Y-106937902D01*
X217202422Y-106983882D01*
X217204284Y-106990006D01*
X217269007Y-106980070D01*
X217278460Y-106981707D01*
X217398047Y-107007127D01*
X217398060Y-107007128D01*
X217404513Y-107008500D01*
X217595487Y-107008500D01*
X217601939Y-107007128D01*
X217601944Y-107007128D01*
X217693554Y-106987655D01*
X217782288Y-106968794D01*
X217851673Y-106937902D01*
X217950722Y-106893803D01*
X217950724Y-106893802D01*
X217956752Y-106891118D01*
X218111253Y-106778866D01*
X218201232Y-106678934D01*
X218234621Y-106641852D01*
X218234622Y-106641851D01*
X218239040Y-106636944D01*
X218326754Y-106485020D01*
X218331223Y-106477279D01*
X218331224Y-106477278D01*
X218334527Y-106471556D01*
X218393542Y-106289928D01*
X218394512Y-106280705D01*
X218412814Y-106106565D01*
X218413504Y-106100000D01*
X218410193Y-106068496D01*
X218394232Y-105916635D01*
X218394232Y-105916633D01*
X218393542Y-105910072D01*
X218334527Y-105728444D01*
X218239040Y-105563056D01*
X218111253Y-105421134D01*
X217974966Y-105322115D01*
X217962094Y-105312763D01*
X217962093Y-105312762D01*
X217956752Y-105308882D01*
X217950724Y-105306198D01*
X217950722Y-105306197D01*
X217788319Y-105233891D01*
X217788318Y-105233891D01*
X217782288Y-105231206D01*
X217688888Y-105211353D01*
X217601944Y-105192872D01*
X217601939Y-105192872D01*
X217595487Y-105191500D01*
X217404513Y-105191500D01*
X217398061Y-105192872D01*
X217398056Y-105192872D01*
X217311113Y-105211353D01*
X217217712Y-105231206D01*
X217043248Y-105308882D01*
X217042565Y-105307347D01*
X216981718Y-105322115D01*
X216932674Y-105307714D01*
X216932154Y-105308882D01*
X216763721Y-105233891D01*
X216763720Y-105233891D01*
X216757690Y-105231206D01*
X216664290Y-105211353D01*
X216577346Y-105192872D01*
X216577341Y-105192872D01*
X216570889Y-105191500D01*
X216379915Y-105191500D01*
X216373463Y-105192872D01*
X216373458Y-105192872D01*
X216286515Y-105211353D01*
X216193114Y-105231206D01*
X216187084Y-105233891D01*
X216187083Y-105233891D01*
X216024680Y-105306197D01*
X216024678Y-105306198D01*
X216018650Y-105308882D01*
X216013309Y-105312762D01*
X216013308Y-105312763D01*
X216000436Y-105322115D01*
X215864149Y-105421134D01*
X215736362Y-105563056D01*
X215707791Y-105612543D01*
X215681603Y-105657901D01*
X215630220Y-105706894D01*
X215572484Y-105720901D01*
X215496115Y-105720901D01*
X215489663Y-105722273D01*
X215489658Y-105722273D01*
X215402715Y-105740754D01*
X215309314Y-105760607D01*
X215303284Y-105763292D01*
X215303283Y-105763292D01*
X215140880Y-105835598D01*
X215140878Y-105835599D01*
X215134850Y-105838283D01*
X214980349Y-105950535D01*
X214975928Y-105955445D01*
X214975927Y-105955446D01*
X214868225Y-106075062D01*
X214852562Y-106092457D01*
X214825816Y-106138783D01*
X214765418Y-106243394D01*
X214714035Y-106292387D01*
X214644322Y-106305823D01*
X214630102Y-106303641D01*
X214502834Y-106276589D01*
X214502829Y-106276589D01*
X214496377Y-106275217D01*
X214305403Y-106275217D01*
X214298943Y-106276590D01*
X214298944Y-106276590D01*
X214228287Y-106291608D01*
X214157497Y-106286206D01*
X214108455Y-106252671D01*
X214010332Y-106143694D01*
X214010331Y-106143693D01*
X214005910Y-106138783D01*
X213851409Y-106026531D01*
X213845381Y-106023847D01*
X213845379Y-106023846D01*
X213682976Y-105951540D01*
X213682975Y-105951540D01*
X213676945Y-105948855D01*
X213570071Y-105926138D01*
X213496601Y-105910521D01*
X213496596Y-105910521D01*
X213490144Y-105909149D01*
X213299170Y-105909149D01*
X213292718Y-105910521D01*
X213292713Y-105910521D01*
X213219243Y-105926138D01*
X213112369Y-105948855D01*
X213106339Y-105951540D01*
X213106338Y-105951540D01*
X212943935Y-106023846D01*
X212943933Y-106023847D01*
X212937905Y-106026531D01*
X212783404Y-106138783D01*
X212778983Y-106143693D01*
X212778982Y-106143694D01*
X212677129Y-106256814D01*
X212655617Y-106280705D01*
X212560130Y-106446093D01*
X212501115Y-106627721D01*
X212500425Y-106634282D01*
X212500425Y-106634284D01*
X212492327Y-106711337D01*
X212465314Y-106776994D01*
X212407093Y-106817624D01*
X212393215Y-106821413D01*
X212353614Y-106829831D01*
X212353607Y-106829833D01*
X212347149Y-106831206D01*
X212341119Y-106833891D01*
X212341118Y-106833891D01*
X212178715Y-106906197D01*
X212178713Y-106906198D01*
X212172685Y-106908882D01*
X212167344Y-106912762D01*
X212167343Y-106912763D01*
X212128547Y-106940950D01*
X212018184Y-107021134D01*
X212013763Y-107026044D01*
X212013762Y-107026045D01*
X211962906Y-107082527D01*
X211890397Y-107163056D01*
X211794910Y-107328444D01*
X211735895Y-107510072D01*
X211735205Y-107516633D01*
X211735205Y-107516635D01*
X211726842Y-107596206D01*
X211715933Y-107700000D01*
X208556567Y-107700000D01*
X208544526Y-107662943D01*
X208449039Y-107497555D01*
X208430231Y-107476666D01*
X208325674Y-107360544D01*
X208325673Y-107360543D01*
X208321252Y-107355633D01*
X208166751Y-107243381D01*
X208160723Y-107240697D01*
X208160721Y-107240696D01*
X207998318Y-107168390D01*
X207998317Y-107168390D01*
X207992287Y-107165705D01*
X207898313Y-107145730D01*
X207811943Y-107127371D01*
X207811938Y-107127371D01*
X207805486Y-107125999D01*
X207614512Y-107125999D01*
X207608060Y-107127371D01*
X207608055Y-107127371D01*
X207521685Y-107145730D01*
X207427711Y-107165705D01*
X207421681Y-107168390D01*
X207421680Y-107168390D01*
X207259277Y-107240696D01*
X207259275Y-107240697D01*
X207253247Y-107243381D01*
X207098746Y-107355633D01*
X207094325Y-107360543D01*
X207094324Y-107360544D01*
X206989768Y-107476666D01*
X206970959Y-107497555D01*
X206875472Y-107662943D01*
X206816457Y-107844571D01*
X206815767Y-107851132D01*
X206815767Y-107851134D01*
X206808692Y-107918448D01*
X206796495Y-108034499D01*
X205656642Y-108034499D01*
X205682531Y-107988272D01*
X205687210Y-107977763D01*
X205753386Y-107782817D01*
X205756017Y-107771857D01*
X205754040Y-107757992D01*
X205740474Y-107754000D01*
X204472000Y-107754000D01*
X204403879Y-107733998D01*
X204357386Y-107680342D01*
X204346000Y-107628000D01*
X204346000Y-107227885D01*
X204854000Y-107227885D01*
X204858475Y-107243124D01*
X204859865Y-107244329D01*
X204867548Y-107246000D01*
X205739485Y-107246000D01*
X205753016Y-107242027D01*
X205754185Y-107233892D01*
X205732666Y-107157591D01*
X205733426Y-107086598D01*
X205772447Y-107027286D01*
X205837340Y-106998487D01*
X205907502Y-107009342D01*
X205927996Y-107021453D01*
X206002804Y-107075804D01*
X206012057Y-107082527D01*
X206018085Y-107085211D01*
X206018087Y-107085212D01*
X206154014Y-107145730D01*
X206186521Y-107160203D01*
X206269741Y-107177892D01*
X206366865Y-107198537D01*
X206366870Y-107198537D01*
X206373322Y-107199909D01*
X206564296Y-107199909D01*
X206570748Y-107198537D01*
X206570753Y-107198537D01*
X206667877Y-107177892D01*
X206751097Y-107160203D01*
X206783604Y-107145730D01*
X206919531Y-107085212D01*
X206919533Y-107085211D01*
X206925561Y-107082527D01*
X206934815Y-107075804D01*
X206991349Y-107034729D01*
X207080062Y-106970275D01*
X207131846Y-106912763D01*
X207203430Y-106833261D01*
X207203431Y-106833260D01*
X207207849Y-106828353D01*
X207294116Y-106678934D01*
X207300032Y-106668688D01*
X207300033Y-106668687D01*
X207303336Y-106662965D01*
X207362351Y-106481337D01*
X207364977Y-106456358D01*
X207381623Y-106297974D01*
X207382313Y-106291409D01*
X207378242Y-106252671D01*
X207363041Y-106108044D01*
X207363041Y-106108042D01*
X207362351Y-106101481D01*
X207303336Y-105919853D01*
X207207849Y-105754465D01*
X207120903Y-105657901D01*
X207084484Y-105617454D01*
X207084483Y-105617453D01*
X207080062Y-105612543D01*
X206925561Y-105500291D01*
X206919533Y-105497607D01*
X206919531Y-105497606D01*
X206757128Y-105425300D01*
X206757127Y-105425300D01*
X206751097Y-105422615D01*
X206657696Y-105402762D01*
X206570753Y-105384281D01*
X206570748Y-105384281D01*
X206564296Y-105382909D01*
X206373322Y-105382909D01*
X206366870Y-105384281D01*
X206366865Y-105384281D01*
X206279921Y-105402762D01*
X206186521Y-105422615D01*
X206180491Y-105425300D01*
X206180490Y-105425300D01*
X206018087Y-105497606D01*
X206018085Y-105497607D01*
X206012057Y-105500291D01*
X205857556Y-105612543D01*
X205853135Y-105617453D01*
X205853134Y-105617454D01*
X205816716Y-105657901D01*
X205729769Y-105754465D01*
X205634282Y-105919853D01*
X205575267Y-106101481D01*
X205574577Y-106108042D01*
X205574577Y-106108044D01*
X205559376Y-106252671D01*
X205555305Y-106291409D01*
X205575260Y-106481272D01*
X205575260Y-106481274D01*
X205575267Y-106481337D01*
X205575256Y-106481338D01*
X205570044Y-106549646D01*
X205527229Y-106606279D01*
X205460591Y-106630774D01*
X205391290Y-106615354D01*
X205366670Y-106597579D01*
X205327490Y-106561361D01*
X205318365Y-106554360D01*
X205144255Y-106444505D01*
X205134008Y-106439284D01*
X204942793Y-106362997D01*
X204931767Y-106359730D01*
X204871770Y-106347797D01*
X204858894Y-106348949D01*
X204854000Y-106364102D01*
X204854000Y-107227885D01*
X204346000Y-107227885D01*
X204346000Y-106361337D01*
X204342194Y-106348375D01*
X204327278Y-106346439D01*
X204298202Y-106351435D01*
X204287082Y-106354415D01*
X204093940Y-106425669D01*
X204083562Y-106430619D01*
X203906639Y-106535877D01*
X203897321Y-106542647D01*
X203879893Y-106557931D01*
X203815489Y-106587809D01*
X203745156Y-106578123D01*
X203695989Y-106538765D01*
X203643643Y-106468920D01*
X203643642Y-106468919D01*
X203638261Y-106461739D01*
X203521705Y-106374385D01*
X203522743Y-106373000D01*
X203480083Y-106330240D01*
X203465431Y-106256814D01*
X203472814Y-106186566D01*
X203472814Y-106186565D01*
X203473504Y-106180000D01*
X203465786Y-106106565D01*
X203454232Y-105996635D01*
X203454232Y-105996633D01*
X203453542Y-105990072D01*
X203394527Y-105808444D01*
X203299040Y-105643056D01*
X203171253Y-105501134D01*
X203061143Y-105421134D01*
X203022094Y-105392763D01*
X203022093Y-105392762D01*
X203016752Y-105388882D01*
X203010724Y-105386198D01*
X203010722Y-105386197D01*
X202848319Y-105313891D01*
X202848318Y-105313891D01*
X202842288Y-105311206D01*
X202748887Y-105291353D01*
X202661944Y-105272872D01*
X202661939Y-105272872D01*
X202655487Y-105271500D01*
X202464513Y-105271500D01*
X202458061Y-105272872D01*
X202458056Y-105272872D01*
X202371113Y-105291353D01*
X202277712Y-105311206D01*
X202271682Y-105313891D01*
X202271681Y-105313891D01*
X202109278Y-105386197D01*
X202109276Y-105386198D01*
X202103248Y-105388882D01*
X202097907Y-105392762D01*
X202097906Y-105392763D01*
X202058857Y-105421134D01*
X201948747Y-105501134D01*
X201820960Y-105643056D01*
X201725473Y-105808444D01*
X201723920Y-105807547D01*
X201683625Y-105854954D01*
X201615698Y-105875602D01*
X201547390Y-105856249D01*
X201500389Y-105803037D01*
X201488500Y-105749608D01*
X201488500Y-103729999D01*
X208026495Y-103729999D01*
X208027185Y-103736564D01*
X208043774Y-103894396D01*
X208046457Y-103919927D01*
X208105472Y-104101555D01*
X208200959Y-104266943D01*
X208328746Y-104408865D01*
X208483247Y-104521117D01*
X208489275Y-104523801D01*
X208489277Y-104523802D01*
X208651680Y-104596108D01*
X208657711Y-104598793D01*
X208736546Y-104615550D01*
X208838055Y-104637127D01*
X208838060Y-104637127D01*
X208844512Y-104638499D01*
X209035486Y-104638499D01*
X209041938Y-104637127D01*
X209041943Y-104637127D01*
X209143452Y-104615550D01*
X209222287Y-104598793D01*
X209228318Y-104596108D01*
X209390721Y-104523802D01*
X209390723Y-104523801D01*
X209396751Y-104521117D01*
X209551252Y-104408865D01*
X209679039Y-104266943D01*
X209774526Y-104101555D01*
X209833541Y-103919927D01*
X209836225Y-103894396D01*
X209852813Y-103736564D01*
X209853503Y-103729999D01*
X209833541Y-103540071D01*
X209774526Y-103358443D01*
X209679039Y-103193055D01*
X209551252Y-103051133D01*
X209452156Y-102979135D01*
X209402093Y-102942762D01*
X209402092Y-102942761D01*
X209396751Y-102938881D01*
X209390723Y-102936197D01*
X209390721Y-102936196D01*
X209228318Y-102863890D01*
X209228317Y-102863890D01*
X209222287Y-102861205D01*
X209128886Y-102841352D01*
X209041943Y-102822871D01*
X209041938Y-102822871D01*
X209035486Y-102821499D01*
X208844512Y-102821499D01*
X208838060Y-102822871D01*
X208838055Y-102822871D01*
X208751112Y-102841352D01*
X208657711Y-102861205D01*
X208651681Y-102863890D01*
X208651680Y-102863890D01*
X208489277Y-102936196D01*
X208489275Y-102936197D01*
X208483247Y-102938881D01*
X208477906Y-102942761D01*
X208477905Y-102942762D01*
X208427842Y-102979135D01*
X208328746Y-103051133D01*
X208200959Y-103193055D01*
X208105472Y-103358443D01*
X208046457Y-103540071D01*
X208026495Y-103729999D01*
X201488500Y-103729999D01*
X201488500Y-102074500D01*
X228686496Y-102074500D01*
X228706458Y-102264428D01*
X228765473Y-102446056D01*
X228860960Y-102611444D01*
X228988747Y-102753366D01*
X229043897Y-102793435D01*
X229135286Y-102859833D01*
X229143248Y-102865618D01*
X229149276Y-102868302D01*
X229149278Y-102868303D01*
X229307800Y-102938881D01*
X229317712Y-102943294D01*
X229411113Y-102963147D01*
X229498056Y-102981628D01*
X229498061Y-102981628D01*
X229504513Y-102983000D01*
X229695487Y-102983000D01*
X229701939Y-102981628D01*
X229701944Y-102981628D01*
X229788887Y-102963147D01*
X229882288Y-102943294D01*
X229892200Y-102938881D01*
X230050722Y-102868303D01*
X230050724Y-102868302D01*
X230056752Y-102865618D01*
X230064715Y-102859833D01*
X230156103Y-102793435D01*
X230211253Y-102753366D01*
X230339040Y-102611444D01*
X230434527Y-102446056D01*
X230493542Y-102264428D01*
X230513504Y-102074500D01*
X230502142Y-101966393D01*
X230494232Y-101891135D01*
X230494232Y-101891133D01*
X230493542Y-101884572D01*
X230434527Y-101702944D01*
X230339040Y-101537556D01*
X230333260Y-101531136D01*
X230215675Y-101400545D01*
X230215674Y-101400544D01*
X230211253Y-101395634D01*
X230056752Y-101283382D01*
X230050724Y-101280698D01*
X230050722Y-101280697D01*
X229888319Y-101208391D01*
X229888318Y-101208391D01*
X229882288Y-101205706D01*
X229788888Y-101185853D01*
X229701944Y-101167372D01*
X229701939Y-101167372D01*
X229695487Y-101166000D01*
X229504513Y-101166000D01*
X229498061Y-101167372D01*
X229498056Y-101167372D01*
X229411112Y-101185853D01*
X229317712Y-101205706D01*
X229311682Y-101208391D01*
X229311681Y-101208391D01*
X229149278Y-101280697D01*
X229149276Y-101280698D01*
X229143248Y-101283382D01*
X228988747Y-101395634D01*
X228984326Y-101400544D01*
X228984325Y-101400545D01*
X228866741Y-101531136D01*
X228860960Y-101537556D01*
X228765473Y-101702944D01*
X228706458Y-101884572D01*
X228705768Y-101891133D01*
X228705768Y-101891135D01*
X228697858Y-101966393D01*
X228686496Y-102074500D01*
X201488500Y-102074500D01*
X201488500Y-98026000D01*
X201508502Y-97957879D01*
X201562158Y-97911386D01*
X201614500Y-97900000D01*
X254414817Y-97900000D01*
X254482938Y-97920002D01*
G37*
%TD.AperFunction*%
%TD*%
M02*
