%TF.GenerationSoftware,KiCad,Pcbnew,(6.0.7)*%
%TF.CreationDate,2023-02-07T15:13:14-05:00*%
%TF.ProjectId,DCA_USMR_Sens,4443415f-5553-44d5-925f-53656e732e6b,v1.1*%
%TF.SameCoordinates,Original*%
%TF.FileFunction,Soldermask,Top*%
%TF.FilePolarity,Negative*%
%FSLAX46Y46*%
G04 Gerber Fmt 4.6, Leading zero omitted, Abs format (unit mm)*
G04 Created by KiCad (PCBNEW (6.0.7)) date 2023-02-07 15:13:14*
%MOMM*%
%LPD*%
G01*
G04 APERTURE LIST*
G04 Aperture macros list*
%AMRoundRect*
0 Rectangle with rounded corners*
0 $1 Rounding radius*
0 $2 $3 $4 $5 $6 $7 $8 $9 X,Y pos of 4 corners*
0 Add a 4 corners polygon primitive as box body*
4,1,4,$2,$3,$4,$5,$6,$7,$8,$9,$2,$3,0*
0 Add four circle primitives for the rounded corners*
1,1,$1+$1,$2,$3*
1,1,$1+$1,$4,$5*
1,1,$1+$1,$6,$7*
1,1,$1+$1,$8,$9*
0 Add four rect primitives between the rounded corners*
20,1,$1+$1,$2,$3,$4,$5,0*
20,1,$1+$1,$4,$5,$6,$7,0*
20,1,$1+$1,$6,$7,$8,$9,0*
20,1,$1+$1,$8,$9,$2,$3,0*%
G04 Aperture macros list end*
%ADD10RoundRect,0.140000X0.140000X0.170000X-0.140000X0.170000X-0.140000X-0.170000X0.140000X-0.170000X0*%
%ADD11RoundRect,0.042000X0.943000X0.258000X-0.943000X0.258000X-0.943000X-0.258000X0.943000X-0.258000X0*%
%ADD12RoundRect,0.135000X0.185000X-0.135000X0.185000X0.135000X-0.185000X0.135000X-0.185000X-0.135000X0*%
%ADD13C,1.400000*%
%ADD14RoundRect,0.140000X0.170000X-0.140000X0.170000X0.140000X-0.170000X0.140000X-0.170000X-0.140000X0*%
%ADD15RoundRect,0.140000X-0.140000X-0.170000X0.140000X-0.170000X0.140000X0.170000X-0.140000X0.170000X0*%
%ADD16RoundRect,0.225000X-0.225000X-0.250000X0.225000X-0.250000X0.225000X0.250000X-0.225000X0.250000X0*%
%ADD17RoundRect,0.135000X-0.185000X0.135000X-0.185000X-0.135000X0.185000X-0.135000X0.185000X0.135000X0*%
%ADD18RoundRect,0.135000X0.135000X0.185000X-0.135000X0.185000X-0.135000X-0.185000X0.135000X-0.185000X0*%
%ADD19R,1.550000X0.600000*%
%ADD20RoundRect,0.088500X-0.516500X-0.206500X0.516500X-0.206500X0.516500X0.206500X-0.516500X0.206500X0*%
%ADD21RoundRect,0.150000X0.825000X0.150000X-0.825000X0.150000X-0.825000X-0.150000X0.825000X-0.150000X0*%
%ADD22C,1.268000*%
%ADD23R,1.268000X1.268000*%
G04 APERTURE END LIST*
D10*
%TO.C,C2*%
X223785000Y-136159167D03*
X224745000Y-136159167D03*
%TD*%
D11*
%TO.C,U5*%
X224650000Y-127834167D03*
X224650000Y-126564167D03*
X224650000Y-125294167D03*
X224650000Y-124024167D03*
X229590000Y-124024167D03*
X229590000Y-125294167D03*
X229590000Y-126564167D03*
X229590000Y-127834167D03*
%TD*%
D12*
%TO.C,R4*%
X232555000Y-124019167D03*
X232555000Y-125039167D03*
%TD*%
D13*
%TO.C,H1*%
X220880000Y-142114167D03*
%TD*%
D14*
%TO.C,C3*%
X222725000Y-153299167D03*
X222725000Y-152339167D03*
%TD*%
D13*
%TO.C,H2*%
X220880000Y-138134167D03*
%TD*%
%TO.C,H7*%
X231381112Y-118351389D03*
%TD*%
D12*
%TO.C,R2*%
X222715000Y-148349167D03*
X222715000Y-149369167D03*
%TD*%
D15*
%TO.C,C8*%
X224745000Y-129329167D03*
X223785000Y-129329167D03*
%TD*%
D16*
%TO.C,C10*%
X230535000Y-120531389D03*
X228985000Y-120531389D03*
%TD*%
D15*
%TO.C,C9*%
X230410000Y-136189167D03*
X229450000Y-136189167D03*
%TD*%
D13*
%TO.C,H9*%
X222342778Y-118351389D03*
%TD*%
D14*
%TO.C,C5*%
X222720000Y-146009167D03*
X222720000Y-146969167D03*
%TD*%
%TO.C,C4*%
X223930000Y-146019167D03*
X223930000Y-146979167D03*
%TD*%
D17*
%TO.C,R3*%
X233685000Y-125049167D03*
X233685000Y-124029167D03*
%TD*%
D13*
%TO.C,H10*%
X223696111Y-115741389D03*
%TD*%
D18*
%TO.C,R5*%
X231370000Y-126559167D03*
X232390000Y-126559167D03*
%TD*%
D13*
%TO.C,H8*%
X232767778Y-115741389D03*
%TD*%
D19*
%TO.C,U3*%
X224405000Y-134692917D03*
X224405000Y-133422917D03*
X224405000Y-132152917D03*
X224405000Y-130882917D03*
X229805000Y-130882917D03*
X229805000Y-132152917D03*
X229805000Y-133422917D03*
X229805000Y-134692917D03*
%TD*%
D13*
%TO.C,H3*%
X220880000Y-134154167D03*
%TD*%
D12*
%TO.C,R1*%
X222715000Y-150319167D03*
X222715000Y-151339167D03*
%TD*%
D13*
%TO.C,H11*%
X225355556Y-118351389D03*
%TD*%
D20*
%TO.C,U4*%
X230025000Y-144629167D03*
X230025000Y-146529167D03*
X227515000Y-146529167D03*
X227515000Y-145579167D03*
X227515000Y-144629167D03*
%TD*%
D13*
%TO.C,H6*%
X229693889Y-115741389D03*
%TD*%
D14*
%TO.C,C7*%
X231435000Y-124039167D03*
X231435000Y-124999167D03*
%TD*%
D19*
%TO.C,U2*%
X224382500Y-141489167D03*
X224382500Y-140219167D03*
X224382500Y-138949167D03*
X224382500Y-137679167D03*
X229782500Y-137679167D03*
X229782500Y-138949167D03*
X229782500Y-140219167D03*
X229782500Y-141489167D03*
%TD*%
D14*
%TO.C,C1*%
X223920000Y-142939167D03*
X223920000Y-143899167D03*
%TD*%
D21*
%TO.C,U1*%
X224710000Y-152354167D03*
X224710000Y-151084167D03*
X224710000Y-149814167D03*
X224710000Y-148544167D03*
X229660000Y-148544167D03*
X229660000Y-149814167D03*
X229660000Y-151084167D03*
X229660000Y-152354167D03*
%TD*%
D22*
%TO.C,D1*%
X232910000Y-145192167D03*
D23*
X232910000Y-136839167D03*
%TD*%
D13*
%TO.C,H5*%
X228318334Y-118351389D03*
%TD*%
D10*
%TO.C,C6*%
X229500000Y-143159167D03*
X230460000Y-143159167D03*
%TD*%
D13*
%TO.C,H4*%
X220880000Y-130174167D03*
%TD*%
%TO.C,H12*%
X226720000Y-115741389D03*
%TD*%
M02*
