%TF.GenerationSoftware,KiCad,Pcbnew,(6.0.7)*%
%TF.CreationDate,2023-02-07T15:13:14-05:00*%
%TF.ProjectId,DCA_USMR_Sens,4443415f-5553-44d5-925f-53656e732e6b,v1.1*%
%TF.SameCoordinates,Original*%
%TF.FileFunction,Copper,L3,Inr*%
%TF.FilePolarity,Positive*%
%FSLAX46Y46*%
G04 Gerber Fmt 4.6, Leading zero omitted, Abs format (unit mm)*
G04 Created by KiCad (PCBNEW (6.0.7)) date 2023-02-07 15:13:14*
%MOMM*%
%LPD*%
G01*
G04 APERTURE LIST*
%TA.AperFunction,ComponentPad*%
%ADD10C,1.400000*%
%TD*%
%TA.AperFunction,ComponentPad*%
%ADD11C,1.268000*%
%TD*%
%TA.AperFunction,ComponentPad*%
%ADD12R,1.268000X1.268000*%
%TD*%
%TA.AperFunction,ViaPad*%
%ADD13C,0.800000*%
%TD*%
G04 APERTURE END LIST*
D10*
%TO.N,Net-(U2-Pad7)*%
%TO.C,H1*%
X220880000Y-142114167D03*
%TD*%
%TO.N,Net-(U3-Pad7)*%
%TO.C,H2*%
X220880000Y-138134167D03*
%TD*%
%TO.N,+5V*%
%TO.C,H7*%
X231381112Y-118351389D03*
%TD*%
%TO.N,Net-(U2-Pad4)*%
%TO.C,H9*%
X222342778Y-118351389D03*
%TD*%
%TO.N,Net-(U2-Pad4)*%
%TO.C,H10*%
X223696111Y-115741389D03*
%TD*%
%TO.N,+5V*%
%TO.C,H8*%
X232767778Y-115741389D03*
%TD*%
%TO.N,Net-(U2-Pad6)*%
%TO.C,H3*%
X220880000Y-134154167D03*
%TD*%
%TO.N,Net-(U5-Pad1)*%
%TO.C,H11*%
X225355556Y-118351389D03*
%TD*%
%TO.N,GND*%
%TO.C,H6*%
X229693889Y-115741389D03*
%TD*%
D11*
%TO.N,GND*%
%TO.C,D1*%
X232910000Y-145192167D03*
D12*
%TO.N,Net-(C9-Pad2)*%
X232910000Y-136839167D03*
%TD*%
D10*
%TO.N,GND*%
%TO.C,H5*%
X228318334Y-118351389D03*
%TD*%
%TO.N,Net-(U3-Pad6)*%
%TO.C,H4*%
X220880000Y-130174167D03*
%TD*%
%TO.N,Net-(U5-Pad1)*%
%TO.C,H12*%
X226720000Y-115741389D03*
%TD*%
D13*
%TO.N,GND*%
X225660000Y-137679167D03*
X227890000Y-120521389D03*
X228050000Y-152349167D03*
X226470000Y-146549167D03*
X231240000Y-143579167D03*
X224730000Y-146029167D03*
X225585000Y-129329167D03*
X223680000Y-153629167D03*
X228440000Y-140229167D03*
X227875000Y-124029167D03*
X225640000Y-136179167D03*
X228570000Y-133559167D03*
X224725000Y-143899167D03*
%TO.N,+5V*%
X233110000Y-126569167D03*
X233380000Y-123519167D03*
X224719655Y-142899679D03*
X225990000Y-152344167D03*
X225720000Y-134684167D03*
X228580000Y-143139167D03*
X231630000Y-148544167D03*
X231500000Y-120551389D03*
X222835000Y-129329167D03*
%TO.N,Net-(U1-Pad3)*%
X231240000Y-141729167D03*
X228130000Y-149714667D03*
%TO.N,Net-(U3-Pad4)*%
X228340000Y-130889167D03*
X229050000Y-146549167D03*
%TO.N,Net-(U2-Pad6)*%
X222017701Y-135971868D03*
X222790000Y-137804167D03*
%TO.N,Net-(U2-Pad4)*%
X226990500Y-138659167D03*
X226190000Y-145029167D03*
%TD*%
%TA.AperFunction,Conductor*%
%TO.N,+5V*%
G36*
X231891186Y-104958334D02*
G01*
X231937686Y-105011983D01*
X231944419Y-105030389D01*
X231949293Y-105047808D01*
X231952639Y-105063601D01*
X231957264Y-105095358D01*
X231960999Y-105103521D01*
X231966897Y-105116411D01*
X231973660Y-105134880D01*
X231979900Y-105157180D01*
X231996880Y-105184423D01*
X232004518Y-105198634D01*
X232017867Y-105227809D01*
X232033023Y-105245314D01*
X232044691Y-105261136D01*
X232052191Y-105273169D01*
X232052193Y-105273172D01*
X232056944Y-105280794D01*
X232080879Y-105302169D01*
X232092203Y-105313669D01*
X232096631Y-105318783D01*
X232113207Y-105337928D01*
X232132676Y-105350482D01*
X232148318Y-105362394D01*
X232165586Y-105377815D01*
X232173687Y-105381673D01*
X232173690Y-105381675D01*
X232194543Y-105391606D01*
X232208650Y-105399471D01*
X232228073Y-105411996D01*
X232228081Y-105412000D01*
X232235623Y-105416863D01*
X232244230Y-105419415D01*
X232244235Y-105419417D01*
X232257832Y-105423448D01*
X232276192Y-105430492D01*
X232285490Y-105434920D01*
X232297091Y-105440445D01*
X232305953Y-105441875D01*
X232305956Y-105441876D01*
X232322606Y-105444562D01*
X232328769Y-105445557D01*
X232344511Y-105449145D01*
X232375273Y-105458265D01*
X232470170Y-105458619D01*
X236292093Y-105479712D01*
X236914805Y-105483149D01*
X236982815Y-105503527D01*
X237029011Y-105557438D01*
X237040110Y-105609423D01*
X236986588Y-129943338D01*
X236986588Y-129943341D01*
X236933324Y-154160393D01*
X236932894Y-154355777D01*
X236912742Y-154423854D01*
X236858984Y-154470228D01*
X236806894Y-154481500D01*
X224418063Y-154481500D01*
X224349942Y-154461498D01*
X224303449Y-154407842D01*
X224293345Y-154337568D01*
X224324427Y-154271190D01*
X224414621Y-154171019D01*
X224414622Y-154171018D01*
X224419040Y-154166111D01*
X224514527Y-154000723D01*
X224573542Y-153819095D01*
X224593504Y-153629167D01*
X224573542Y-153439239D01*
X224514527Y-153257611D01*
X224419040Y-153092223D01*
X224364740Y-153031916D01*
X224295675Y-152955212D01*
X224295674Y-152955211D01*
X224291253Y-152950301D01*
X224136752Y-152838049D01*
X224130724Y-152835365D01*
X224130722Y-152835364D01*
X223968319Y-152763058D01*
X223968318Y-152763058D01*
X223962288Y-152760373D01*
X223868888Y-152740520D01*
X223781944Y-152722039D01*
X223781939Y-152722039D01*
X223775487Y-152720667D01*
X223584513Y-152720667D01*
X223578061Y-152722039D01*
X223578056Y-152722039D01*
X223491112Y-152740520D01*
X223397712Y-152760373D01*
X223391682Y-152763058D01*
X223391681Y-152763058D01*
X223229278Y-152835364D01*
X223229276Y-152835365D01*
X223223248Y-152838049D01*
X223068747Y-152950301D01*
X223064326Y-152955211D01*
X223064325Y-152955212D01*
X222995261Y-153031916D01*
X222940960Y-153092223D01*
X222845473Y-153257611D01*
X222786458Y-153439239D01*
X222766496Y-153629167D01*
X222786458Y-153819095D01*
X222845473Y-154000723D01*
X222940960Y-154166111D01*
X222945378Y-154171018D01*
X222945379Y-154171019D01*
X223035573Y-154271190D01*
X223066291Y-154335197D01*
X223057526Y-154405651D01*
X223012063Y-154460182D01*
X222941937Y-154481500D01*
X218081555Y-154481500D01*
X218013434Y-154461498D01*
X217966941Y-154407842D01*
X217955555Y-154355237D01*
X217959742Y-152349167D01*
X227136496Y-152349167D01*
X227156458Y-152539095D01*
X227215473Y-152720723D01*
X227310960Y-152886111D01*
X227315378Y-152891018D01*
X227315379Y-152891019D01*
X227368757Y-152950301D01*
X227438747Y-153028033D01*
X227593248Y-153140285D01*
X227599276Y-153142969D01*
X227599278Y-153142970D01*
X227761681Y-153215276D01*
X227767712Y-153217961D01*
X227861112Y-153237814D01*
X227948056Y-153256295D01*
X227948061Y-153256295D01*
X227954513Y-153257667D01*
X228145487Y-153257667D01*
X228151939Y-153256295D01*
X228151944Y-153256295D01*
X228238888Y-153237814D01*
X228332288Y-153217961D01*
X228338319Y-153215276D01*
X228500722Y-153142970D01*
X228500724Y-153142969D01*
X228506752Y-153140285D01*
X228661253Y-153028033D01*
X228731243Y-152950301D01*
X228784621Y-152891019D01*
X228784622Y-152891018D01*
X228789040Y-152886111D01*
X228884527Y-152720723D01*
X228943542Y-152539095D01*
X228963504Y-152349167D01*
X228943542Y-152159239D01*
X228884527Y-151977611D01*
X228789040Y-151812223D01*
X228661253Y-151670301D01*
X228506752Y-151558049D01*
X228500724Y-151555365D01*
X228500722Y-151555364D01*
X228338319Y-151483058D01*
X228338318Y-151483058D01*
X228332288Y-151480373D01*
X228238887Y-151460520D01*
X228151944Y-151442039D01*
X228151939Y-151442039D01*
X228145487Y-151440667D01*
X227954513Y-151440667D01*
X227948061Y-151442039D01*
X227948056Y-151442039D01*
X227861113Y-151460520D01*
X227767712Y-151480373D01*
X227761682Y-151483058D01*
X227761681Y-151483058D01*
X227599278Y-151555364D01*
X227599276Y-151555365D01*
X227593248Y-151558049D01*
X227438747Y-151670301D01*
X227310960Y-151812223D01*
X227215473Y-151977611D01*
X227156458Y-152159239D01*
X227136496Y-152349167D01*
X217959742Y-152349167D01*
X217965240Y-149714667D01*
X227216496Y-149714667D01*
X227236458Y-149904595D01*
X227295473Y-150086223D01*
X227390960Y-150251611D01*
X227518747Y-150393533D01*
X227673248Y-150505785D01*
X227679276Y-150508469D01*
X227679278Y-150508470D01*
X227841681Y-150580776D01*
X227847712Y-150583461D01*
X227941113Y-150603314D01*
X228028056Y-150621795D01*
X228028061Y-150621795D01*
X228034513Y-150623167D01*
X228225487Y-150623167D01*
X228231939Y-150621795D01*
X228231944Y-150621795D01*
X228318887Y-150603314D01*
X228412288Y-150583461D01*
X228418319Y-150580776D01*
X228580722Y-150508470D01*
X228580724Y-150508469D01*
X228586752Y-150505785D01*
X228741253Y-150393533D01*
X228869040Y-150251611D01*
X228964527Y-150086223D01*
X229023542Y-149904595D01*
X229043504Y-149714667D01*
X229023542Y-149524739D01*
X228964527Y-149343111D01*
X228869040Y-149177723D01*
X228741253Y-149035801D01*
X228586752Y-148923549D01*
X228580724Y-148920865D01*
X228580722Y-148920864D01*
X228418319Y-148848558D01*
X228418318Y-148848558D01*
X228412288Y-148845873D01*
X228318888Y-148826020D01*
X228231944Y-148807539D01*
X228231939Y-148807539D01*
X228225487Y-148806167D01*
X228034513Y-148806167D01*
X228028061Y-148807539D01*
X228028056Y-148807539D01*
X227941112Y-148826020D01*
X227847712Y-148845873D01*
X227841682Y-148848558D01*
X227841681Y-148848558D01*
X227679278Y-148920864D01*
X227679276Y-148920865D01*
X227673248Y-148923549D01*
X227518747Y-149035801D01*
X227390960Y-149177723D01*
X227295473Y-149343111D01*
X227236458Y-149524739D01*
X227216496Y-149714667D01*
X217965240Y-149714667D01*
X217977378Y-143899167D01*
X223811496Y-143899167D01*
X223812186Y-143905732D01*
X223827579Y-144052185D01*
X223831458Y-144089095D01*
X223890473Y-144270723D01*
X223985960Y-144436111D01*
X223990378Y-144441018D01*
X223990379Y-144441019D01*
X224109325Y-144573122D01*
X224113747Y-144578033D01*
X224268248Y-144690285D01*
X224274276Y-144692969D01*
X224274278Y-144692970D01*
X224409284Y-144753078D01*
X224442712Y-144767961D01*
X224530128Y-144786542D01*
X224623056Y-144806295D01*
X224623061Y-144806295D01*
X224629513Y-144807667D01*
X224820487Y-144807667D01*
X224826939Y-144806295D01*
X224826944Y-144806295D01*
X224919872Y-144786542D01*
X225007288Y-144767961D01*
X225119144Y-144718160D01*
X225189509Y-144708726D01*
X225253806Y-144738832D01*
X225291619Y-144798921D01*
X225295701Y-144846437D01*
X225281341Y-144983071D01*
X225276496Y-145029167D01*
X225277186Y-145035731D01*
X225281122Y-145073178D01*
X225268350Y-145143016D01*
X225219848Y-145194863D01*
X225151016Y-145212258D01*
X225104564Y-145201456D01*
X225018323Y-145163059D01*
X225018315Y-145163056D01*
X225012288Y-145160373D01*
X224918887Y-145140520D01*
X224831944Y-145122039D01*
X224831939Y-145122039D01*
X224825487Y-145120667D01*
X224634513Y-145120667D01*
X224628061Y-145122039D01*
X224628056Y-145122039D01*
X224541113Y-145140520D01*
X224447712Y-145160373D01*
X224441682Y-145163058D01*
X224441681Y-145163058D01*
X224279278Y-145235364D01*
X224279276Y-145235365D01*
X224273248Y-145238049D01*
X224267907Y-145241929D01*
X224267906Y-145241930D01*
X224253747Y-145252217D01*
X224118747Y-145350301D01*
X224114326Y-145355211D01*
X224114325Y-145355212D01*
X224015030Y-145465491D01*
X223990960Y-145492223D01*
X223932686Y-145593157D01*
X223904464Y-145642039D01*
X223895473Y-145657611D01*
X223836458Y-145839239D01*
X223835768Y-145845800D01*
X223835768Y-145845802D01*
X223832677Y-145875212D01*
X223816496Y-146029167D01*
X223836458Y-146219095D01*
X223895473Y-146400723D01*
X223990960Y-146566111D01*
X224118747Y-146708033D01*
X224273248Y-146820285D01*
X224279276Y-146822969D01*
X224279278Y-146822970D01*
X224441681Y-146895276D01*
X224447712Y-146897961D01*
X224525230Y-146914438D01*
X224628056Y-146936295D01*
X224628061Y-146936295D01*
X224634513Y-146937667D01*
X224825487Y-146937667D01*
X224831939Y-146936295D01*
X224831944Y-146936295D01*
X224934770Y-146914438D01*
X225012288Y-146897961D01*
X225018319Y-146895276D01*
X225180722Y-146822970D01*
X225180724Y-146822969D01*
X225186752Y-146820285D01*
X225341253Y-146708033D01*
X225361300Y-146685768D01*
X225421746Y-146648530D01*
X225492729Y-146649882D01*
X225551714Y-146689396D01*
X225575938Y-146739264D01*
X225576458Y-146739095D01*
X225635473Y-146920723D01*
X225638776Y-146926445D01*
X225638777Y-146926446D01*
X225672686Y-146985177D01*
X225730960Y-147086111D01*
X225858747Y-147228033D01*
X226013248Y-147340285D01*
X226019276Y-147342969D01*
X226019278Y-147342970D01*
X226181681Y-147415276D01*
X226187712Y-147417961D01*
X226281112Y-147437814D01*
X226368056Y-147456295D01*
X226368061Y-147456295D01*
X226374513Y-147457667D01*
X226565487Y-147457667D01*
X226571939Y-147456295D01*
X226571944Y-147456295D01*
X226658888Y-147437814D01*
X226752288Y-147417961D01*
X226758319Y-147415276D01*
X226920722Y-147342970D01*
X226920724Y-147342969D01*
X226926752Y-147340285D01*
X227081253Y-147228033D01*
X227209040Y-147086111D01*
X227267314Y-146985177D01*
X227301223Y-146926446D01*
X227301224Y-146926445D01*
X227304527Y-146920723D01*
X227363542Y-146739095D01*
X227367323Y-146703126D01*
X227382814Y-146555732D01*
X227383504Y-146549167D01*
X228136496Y-146549167D01*
X228137186Y-146555732D01*
X228152678Y-146703126D01*
X228156458Y-146739095D01*
X228215473Y-146920723D01*
X228218776Y-146926445D01*
X228218777Y-146926446D01*
X228252686Y-146985177D01*
X228310960Y-147086111D01*
X228438747Y-147228033D01*
X228593248Y-147340285D01*
X228599276Y-147342969D01*
X228599278Y-147342970D01*
X228761681Y-147415276D01*
X228767712Y-147417961D01*
X228861112Y-147437814D01*
X228948056Y-147456295D01*
X228948061Y-147456295D01*
X228954513Y-147457667D01*
X229145487Y-147457667D01*
X229151939Y-147456295D01*
X229151944Y-147456295D01*
X229238888Y-147437814D01*
X229332288Y-147417961D01*
X229338319Y-147415276D01*
X229500722Y-147342970D01*
X229500724Y-147342969D01*
X229506752Y-147340285D01*
X229661253Y-147228033D01*
X229789040Y-147086111D01*
X229847314Y-146985177D01*
X229881223Y-146926446D01*
X229881224Y-146926445D01*
X229884527Y-146920723D01*
X229943542Y-146739095D01*
X229947323Y-146703126D01*
X229962814Y-146555732D01*
X229963504Y-146549167D01*
X229943542Y-146359239D01*
X229884527Y-146177611D01*
X229789040Y-146012223D01*
X229784508Y-146007189D01*
X229665675Y-145875212D01*
X229665674Y-145875211D01*
X229661253Y-145870301D01*
X229562157Y-145798303D01*
X229512094Y-145761930D01*
X229512093Y-145761929D01*
X229506752Y-145758049D01*
X229500724Y-145755365D01*
X229500722Y-145755364D01*
X229338319Y-145683058D01*
X229338318Y-145683058D01*
X229332288Y-145680373D01*
X229238887Y-145660520D01*
X229151944Y-145642039D01*
X229151939Y-145642039D01*
X229145487Y-145640667D01*
X228954513Y-145640667D01*
X228948061Y-145642039D01*
X228948056Y-145642039D01*
X228861113Y-145660520D01*
X228767712Y-145680373D01*
X228761682Y-145683058D01*
X228761681Y-145683058D01*
X228599278Y-145755364D01*
X228599276Y-145755365D01*
X228593248Y-145758049D01*
X228587907Y-145761929D01*
X228587906Y-145761930D01*
X228537843Y-145798303D01*
X228438747Y-145870301D01*
X228434326Y-145875211D01*
X228434325Y-145875212D01*
X228315493Y-146007189D01*
X228310960Y-146012223D01*
X228215473Y-146177611D01*
X228156458Y-146359239D01*
X228136496Y-146549167D01*
X227383504Y-146549167D01*
X227363542Y-146359239D01*
X227304527Y-146177611D01*
X227209040Y-146012223D01*
X227204508Y-146007189D01*
X227085675Y-145875212D01*
X227085674Y-145875211D01*
X227081253Y-145870301D01*
X227047534Y-145845802D01*
X226936871Y-145765401D01*
X226893517Y-145709179D01*
X226887442Y-145638442D01*
X226917296Y-145579154D01*
X226924621Y-145571019D01*
X226924622Y-145571018D01*
X226929040Y-145566111D01*
X227024527Y-145400723D01*
X227083542Y-145219095D01*
X227089529Y-145162132D01*
X231762998Y-145162132D01*
X231776731Y-145371659D01*
X231778152Y-145377255D01*
X231778153Y-145377260D01*
X231808803Y-145497941D01*
X231828418Y-145575175D01*
X231830835Y-145580417D01*
X231830835Y-145580418D01*
X231876915Y-145680373D01*
X231916327Y-145765864D01*
X232037514Y-145937340D01*
X232187921Y-146083860D01*
X232192717Y-146087065D01*
X232192720Y-146087067D01*
X232263071Y-146134074D01*
X232362510Y-146200517D01*
X232367813Y-146202795D01*
X232367816Y-146202797D01*
X232550128Y-146281124D01*
X232555435Y-146283404D01*
X232655303Y-146306002D01*
X232754599Y-146328471D01*
X232754602Y-146328471D01*
X232760235Y-146329746D01*
X232766006Y-146329973D01*
X232766008Y-146329973D01*
X232828661Y-146332435D01*
X232970050Y-146337990D01*
X232975759Y-146337162D01*
X232975763Y-146337162D01*
X233172139Y-146308688D01*
X233172143Y-146308687D01*
X233177854Y-146307859D01*
X233376688Y-146240364D01*
X233559892Y-146137765D01*
X233721331Y-146003498D01*
X233828025Y-145875212D01*
X233851907Y-145846497D01*
X233855598Y-145842059D01*
X233958197Y-145658855D01*
X234025692Y-145460021D01*
X234033461Y-145406446D01*
X234055291Y-145255887D01*
X234055291Y-145255885D01*
X234055823Y-145252217D01*
X234057395Y-145192167D01*
X234038182Y-144983071D01*
X233981186Y-144780977D01*
X233978633Y-144775800D01*
X233978631Y-144775795D01*
X233890869Y-144597834D01*
X233888315Y-144592655D01*
X233778262Y-144445276D01*
X233766134Y-144429034D01*
X233766133Y-144429033D01*
X233762681Y-144424410D01*
X233608490Y-144281877D01*
X233430906Y-144169831D01*
X233413930Y-144163058D01*
X233329598Y-144129413D01*
X233235878Y-144092022D01*
X233230210Y-144090895D01*
X233230208Y-144090894D01*
X233035603Y-144052185D01*
X233035599Y-144052185D01*
X233029935Y-144051058D01*
X233024160Y-144050982D01*
X233024156Y-144050982D01*
X232918786Y-144049603D01*
X232819976Y-144048309D01*
X232814279Y-144049288D01*
X232814278Y-144049288D01*
X232618729Y-144082890D01*
X232613032Y-144083869D01*
X232416034Y-144156545D01*
X232411073Y-144159497D01*
X232411072Y-144159497D01*
X232253703Y-144253122D01*
X232235578Y-144263905D01*
X232077709Y-144402352D01*
X231947714Y-144567251D01*
X231849945Y-144753078D01*
X231787678Y-144953610D01*
X231762998Y-145162132D01*
X227089529Y-145162132D01*
X227103504Y-145029167D01*
X227083542Y-144839239D01*
X227024527Y-144657611D01*
X226929040Y-144492223D01*
X226923703Y-144486295D01*
X226805675Y-144355212D01*
X226805674Y-144355211D01*
X226801253Y-144350301D01*
X226646752Y-144238049D01*
X226640724Y-144235365D01*
X226640722Y-144235364D01*
X226478319Y-144163058D01*
X226478318Y-144163058D01*
X226472288Y-144160373D01*
X226378887Y-144140520D01*
X226291944Y-144122039D01*
X226291939Y-144122039D01*
X226285487Y-144120667D01*
X226094513Y-144120667D01*
X226088061Y-144122039D01*
X226088056Y-144122039D01*
X226001113Y-144140520D01*
X225907712Y-144160373D01*
X225795856Y-144210174D01*
X225725491Y-144219608D01*
X225661194Y-144189502D01*
X225623381Y-144129413D01*
X225619299Y-144081897D01*
X225637814Y-143905732D01*
X225638504Y-143899167D01*
X225618542Y-143709239D01*
X225576279Y-143579167D01*
X230326496Y-143579167D01*
X230346458Y-143769095D01*
X230405473Y-143950723D01*
X230500960Y-144116111D01*
X230505378Y-144121018D01*
X230505379Y-144121019D01*
X230594149Y-144219608D01*
X230628747Y-144258033D01*
X230783248Y-144370285D01*
X230789276Y-144372969D01*
X230789278Y-144372970D01*
X230904815Y-144424410D01*
X230957712Y-144447961D01*
X231051113Y-144467814D01*
X231138056Y-144486295D01*
X231138061Y-144486295D01*
X231144513Y-144487667D01*
X231335487Y-144487667D01*
X231341939Y-144486295D01*
X231341944Y-144486295D01*
X231428887Y-144467814D01*
X231522288Y-144447961D01*
X231575185Y-144424410D01*
X231690722Y-144372970D01*
X231690724Y-144372969D01*
X231696752Y-144370285D01*
X231851253Y-144258033D01*
X231885851Y-144219608D01*
X231974621Y-144121019D01*
X231974622Y-144121018D01*
X231979040Y-144116111D01*
X232074527Y-143950723D01*
X232133542Y-143769095D01*
X232153504Y-143579167D01*
X232133542Y-143389239D01*
X232074527Y-143207611D01*
X231979040Y-143042223D01*
X231851253Y-142900301D01*
X231696752Y-142788049D01*
X231690726Y-142785366D01*
X231690719Y-142785362D01*
X231654583Y-142769274D01*
X231600487Y-142723294D01*
X231579837Y-142655367D01*
X231599189Y-142587059D01*
X231654583Y-142539060D01*
X231690719Y-142522972D01*
X231690726Y-142522968D01*
X231696752Y-142520285D01*
X231851253Y-142408033D01*
X231921391Y-142330137D01*
X231974621Y-142271019D01*
X231974622Y-142271018D01*
X231979040Y-142266111D01*
X232074527Y-142100723D01*
X232133542Y-141919095D01*
X232135739Y-141898197D01*
X232152814Y-141735732D01*
X232153504Y-141729167D01*
X232133542Y-141539239D01*
X232074527Y-141357611D01*
X231979040Y-141192223D01*
X231969572Y-141181707D01*
X231855675Y-141055212D01*
X231855674Y-141055211D01*
X231851253Y-141050301D01*
X231696752Y-140938049D01*
X231690724Y-140935365D01*
X231690722Y-140935364D01*
X231528319Y-140863058D01*
X231528318Y-140863058D01*
X231522288Y-140860373D01*
X231428888Y-140840520D01*
X231341944Y-140822039D01*
X231341939Y-140822039D01*
X231335487Y-140820667D01*
X231144513Y-140820667D01*
X231138061Y-140822039D01*
X231138056Y-140822039D01*
X231051112Y-140840520D01*
X230957712Y-140860373D01*
X230951682Y-140863058D01*
X230951681Y-140863058D01*
X230789278Y-140935364D01*
X230789276Y-140935365D01*
X230783248Y-140938049D01*
X230628747Y-141050301D01*
X230624326Y-141055211D01*
X230624325Y-141055212D01*
X230510429Y-141181707D01*
X230500960Y-141192223D01*
X230405473Y-141357611D01*
X230346458Y-141539239D01*
X230326496Y-141729167D01*
X230327186Y-141735732D01*
X230344262Y-141898197D01*
X230346458Y-141919095D01*
X230405473Y-142100723D01*
X230500960Y-142266111D01*
X230505378Y-142271018D01*
X230505379Y-142271019D01*
X230558609Y-142330137D01*
X230628747Y-142408033D01*
X230783248Y-142520285D01*
X230789274Y-142522968D01*
X230789281Y-142522972D01*
X230825417Y-142539060D01*
X230879513Y-142585040D01*
X230900163Y-142652967D01*
X230880811Y-142721275D01*
X230825417Y-142769274D01*
X230789281Y-142785362D01*
X230789274Y-142785366D01*
X230783248Y-142788049D01*
X230628747Y-142900301D01*
X230500960Y-143042223D01*
X230405473Y-143207611D01*
X230346458Y-143389239D01*
X230326496Y-143579167D01*
X225576279Y-143579167D01*
X225559527Y-143527611D01*
X225464040Y-143362223D01*
X225415986Y-143308853D01*
X225340675Y-143225212D01*
X225340674Y-143225211D01*
X225336253Y-143220301D01*
X225181752Y-143108049D01*
X225175724Y-143105365D01*
X225175722Y-143105364D01*
X225013319Y-143033058D01*
X225013318Y-143033058D01*
X225007288Y-143030373D01*
X224913888Y-143010520D01*
X224826944Y-142992039D01*
X224826939Y-142992039D01*
X224820487Y-142990667D01*
X224629513Y-142990667D01*
X224623061Y-142992039D01*
X224623056Y-142992039D01*
X224536112Y-143010520D01*
X224442712Y-143030373D01*
X224436682Y-143033058D01*
X224436681Y-143033058D01*
X224274278Y-143105364D01*
X224274276Y-143105365D01*
X224268248Y-143108049D01*
X224113747Y-143220301D01*
X224109326Y-143225211D01*
X224109325Y-143225212D01*
X224034015Y-143308853D01*
X223985960Y-143362223D01*
X223890473Y-143527611D01*
X223831458Y-143709239D01*
X223811496Y-143899167D01*
X217977378Y-143899167D01*
X217981103Y-142114167D01*
X219666884Y-142114167D01*
X219685314Y-142324822D01*
X219740044Y-142529077D01*
X219742366Y-142534058D01*
X219742367Y-142534059D01*
X219824584Y-142710373D01*
X219829411Y-142720725D01*
X219950699Y-142893943D01*
X220100224Y-143043468D01*
X220273442Y-143164756D01*
X220278420Y-143167077D01*
X220278423Y-143167079D01*
X220403090Y-143225212D01*
X220465090Y-143254123D01*
X220470398Y-143255545D01*
X220470400Y-143255546D01*
X220664030Y-143307429D01*
X220664032Y-143307429D01*
X220669345Y-143308853D01*
X220880000Y-143327283D01*
X221090655Y-143308853D01*
X221095968Y-143307429D01*
X221095970Y-143307429D01*
X221289600Y-143255546D01*
X221289602Y-143255545D01*
X221294910Y-143254123D01*
X221356910Y-143225212D01*
X221481577Y-143167079D01*
X221481580Y-143167077D01*
X221486558Y-143164756D01*
X221659776Y-143043468D01*
X221809301Y-142893943D01*
X221930589Y-142720725D01*
X221935417Y-142710373D01*
X222017633Y-142534059D01*
X222017634Y-142534058D01*
X222019956Y-142529077D01*
X222074686Y-142324822D01*
X222093116Y-142114167D01*
X222074686Y-141903512D01*
X222073262Y-141898197D01*
X222021379Y-141704567D01*
X222021378Y-141704565D01*
X222019956Y-141699257D01*
X221948399Y-141545802D01*
X221932912Y-141512590D01*
X221932910Y-141512587D01*
X221930589Y-141507609D01*
X221809301Y-141334391D01*
X221659776Y-141184866D01*
X221486558Y-141063578D01*
X221481580Y-141061257D01*
X221481577Y-141061255D01*
X221299892Y-140976534D01*
X221299891Y-140976533D01*
X221294910Y-140974211D01*
X221289602Y-140972789D01*
X221289600Y-140972788D01*
X221095970Y-140920905D01*
X221095968Y-140920905D01*
X221090655Y-140919481D01*
X220880000Y-140901051D01*
X220669345Y-140919481D01*
X220664032Y-140920905D01*
X220664030Y-140920905D01*
X220470400Y-140972788D01*
X220470398Y-140972789D01*
X220465090Y-140974211D01*
X220460109Y-140976533D01*
X220460108Y-140976534D01*
X220278423Y-141061255D01*
X220278420Y-141061257D01*
X220273442Y-141063578D01*
X220100224Y-141184866D01*
X219950699Y-141334391D01*
X219829411Y-141507609D01*
X219827090Y-141512587D01*
X219827088Y-141512590D01*
X219811601Y-141545802D01*
X219740044Y-141699257D01*
X219738622Y-141704565D01*
X219738621Y-141704567D01*
X219686738Y-141898197D01*
X219685314Y-141903512D01*
X219666884Y-142114167D01*
X217981103Y-142114167D01*
X217985037Y-140229167D01*
X227526496Y-140229167D01*
X227546458Y-140419095D01*
X227605473Y-140600723D01*
X227700960Y-140766111D01*
X227828747Y-140908033D01*
X227983248Y-141020285D01*
X227989276Y-141022969D01*
X227989278Y-141022970D01*
X228080486Y-141063578D01*
X228157712Y-141097961D01*
X228251113Y-141117814D01*
X228338056Y-141136295D01*
X228338061Y-141136295D01*
X228344513Y-141137667D01*
X228535487Y-141137667D01*
X228541939Y-141136295D01*
X228541944Y-141136295D01*
X228628887Y-141117814D01*
X228722288Y-141097961D01*
X228799514Y-141063578D01*
X228890722Y-141022970D01*
X228890724Y-141022969D01*
X228896752Y-141020285D01*
X229051253Y-140908033D01*
X229179040Y-140766111D01*
X229274527Y-140600723D01*
X229333542Y-140419095D01*
X229353504Y-140229167D01*
X229333542Y-140039239D01*
X229274527Y-139857611D01*
X229179040Y-139692223D01*
X229066890Y-139567667D01*
X229055675Y-139555212D01*
X229055674Y-139555211D01*
X229051253Y-139550301D01*
X228917289Y-139452970D01*
X228902094Y-139441930D01*
X228902093Y-139441929D01*
X228896752Y-139438049D01*
X228890724Y-139435365D01*
X228890722Y-139435364D01*
X228728319Y-139363058D01*
X228728318Y-139363058D01*
X228722288Y-139360373D01*
X228617187Y-139338033D01*
X228541944Y-139322039D01*
X228541939Y-139322039D01*
X228535487Y-139320667D01*
X228344513Y-139320667D01*
X228338061Y-139322039D01*
X228338056Y-139322039D01*
X228262813Y-139338033D01*
X228157712Y-139360373D01*
X228151682Y-139363058D01*
X228151681Y-139363058D01*
X227989278Y-139435364D01*
X227989276Y-139435365D01*
X227983248Y-139438049D01*
X227977907Y-139441929D01*
X227977906Y-139441930D01*
X227962711Y-139452970D01*
X227828747Y-139550301D01*
X227824326Y-139555211D01*
X227824325Y-139555212D01*
X227813111Y-139567667D01*
X227700960Y-139692223D01*
X227605473Y-139857611D01*
X227546458Y-140039239D01*
X227526496Y-140229167D01*
X217985037Y-140229167D01*
X217989410Y-138134167D01*
X219666884Y-138134167D01*
X219685314Y-138344822D01*
X219686738Y-138350135D01*
X219686738Y-138350137D01*
X219722348Y-138483033D01*
X219740044Y-138549077D01*
X219742366Y-138554058D01*
X219742367Y-138554059D01*
X219815688Y-138711295D01*
X219829411Y-138740725D01*
X219950699Y-138913943D01*
X220100224Y-139063468D01*
X220273442Y-139184756D01*
X220278420Y-139187077D01*
X220278423Y-139187079D01*
X220460108Y-139271800D01*
X220465090Y-139274123D01*
X220470398Y-139275545D01*
X220470400Y-139275546D01*
X220664030Y-139327429D01*
X220664032Y-139327429D01*
X220669345Y-139328853D01*
X220880000Y-139347283D01*
X221090655Y-139328853D01*
X221095968Y-139327429D01*
X221095970Y-139327429D01*
X221289600Y-139275546D01*
X221289602Y-139275545D01*
X221294910Y-139274123D01*
X221299892Y-139271800D01*
X221481577Y-139187079D01*
X221481580Y-139187077D01*
X221486558Y-139184756D01*
X221659776Y-139063468D01*
X221809301Y-138913943D01*
X221930589Y-138740725D01*
X221944313Y-138711295D01*
X221998409Y-138595285D01*
X222018546Y-138552101D01*
X222065462Y-138498817D01*
X222133739Y-138479356D01*
X222206801Y-138503416D01*
X222327906Y-138591404D01*
X222333248Y-138595285D01*
X222339276Y-138597969D01*
X222339278Y-138597970D01*
X222491475Y-138665732D01*
X222507712Y-138672961D01*
X222601113Y-138692814D01*
X222688056Y-138711295D01*
X222688061Y-138711295D01*
X222694513Y-138712667D01*
X222885487Y-138712667D01*
X222891939Y-138711295D01*
X222891944Y-138711295D01*
X222978887Y-138692814D01*
X223072288Y-138672961D01*
X223088525Y-138665732D01*
X223240722Y-138597970D01*
X223240724Y-138597969D01*
X223246752Y-138595285D01*
X223401253Y-138483033D01*
X223510307Y-138361916D01*
X223524621Y-138346019D01*
X223524622Y-138346018D01*
X223529040Y-138341111D01*
X223624527Y-138175723D01*
X223683542Y-137994095D01*
X223690961Y-137923512D01*
X223702814Y-137810732D01*
X223703504Y-137804167D01*
X223683542Y-137614239D01*
X223624527Y-137432611D01*
X223529040Y-137267223D01*
X223412071Y-137137315D01*
X223405675Y-137130212D01*
X223405674Y-137130211D01*
X223401253Y-137125301D01*
X223246752Y-137013049D01*
X223240724Y-137010365D01*
X223240722Y-137010364D01*
X223078319Y-136938058D01*
X223078318Y-136938058D01*
X223072288Y-136935373D01*
X222978887Y-136915520D01*
X222891944Y-136897039D01*
X222891939Y-136897039D01*
X222885487Y-136895667D01*
X222694513Y-136895667D01*
X222689669Y-136896697D01*
X222620434Y-136884035D01*
X222568588Y-136835533D01*
X222551193Y-136766700D01*
X222573774Y-136699390D01*
X222603041Y-136669561D01*
X222604411Y-136668565D01*
X222628954Y-136650734D01*
X222756741Y-136508812D01*
X222852228Y-136343424D01*
X222905599Y-136179167D01*
X224726496Y-136179167D01*
X224746458Y-136369095D01*
X224805473Y-136550723D01*
X224900960Y-136716111D01*
X224905378Y-136721018D01*
X224905379Y-136721019D01*
X225026883Y-136855963D01*
X225057601Y-136919970D01*
X225048836Y-136990424D01*
X225026883Y-137024583D01*
X224931775Y-137130212D01*
X224920960Y-137142223D01*
X224917659Y-137147941D01*
X224845492Y-137272938D01*
X224825473Y-137307611D01*
X224766458Y-137489239D01*
X224765768Y-137495800D01*
X224765768Y-137495802D01*
X224762899Y-137523104D01*
X224746496Y-137679167D01*
X224747186Y-137685732D01*
X224763025Y-137836428D01*
X224766458Y-137869095D01*
X224825473Y-138050723D01*
X224920960Y-138216111D01*
X224925378Y-138221018D01*
X224925379Y-138221019D01*
X225041637Y-138350137D01*
X225048747Y-138358033D01*
X225203248Y-138470285D01*
X225209276Y-138472969D01*
X225209278Y-138472970D01*
X225368292Y-138543767D01*
X225377712Y-138547961D01*
X225471113Y-138567814D01*
X225558056Y-138586295D01*
X225558061Y-138586295D01*
X225564513Y-138587667D01*
X225755487Y-138587667D01*
X225761939Y-138586295D01*
X225761944Y-138586295D01*
X225851173Y-138567328D01*
X225925741Y-138551478D01*
X225996531Y-138556880D01*
X226053163Y-138599697D01*
X226077247Y-138661555D01*
X226096958Y-138849095D01*
X226155973Y-139030723D01*
X226159276Y-139036445D01*
X226159277Y-139036446D01*
X226174878Y-139063468D01*
X226251460Y-139196111D01*
X226255878Y-139201018D01*
X226255879Y-139201019D01*
X226374825Y-139333122D01*
X226379247Y-139338033D01*
X226413691Y-139363058D01*
X226516907Y-139438049D01*
X226533748Y-139450285D01*
X226539776Y-139452969D01*
X226539778Y-139452970D01*
X226702181Y-139525276D01*
X226708212Y-139527961D01*
X226795045Y-139546418D01*
X226888556Y-139566295D01*
X226888561Y-139566295D01*
X226895013Y-139567667D01*
X227085987Y-139567667D01*
X227092439Y-139566295D01*
X227092444Y-139566295D01*
X227185955Y-139546418D01*
X227272788Y-139527961D01*
X227278819Y-139525276D01*
X227441222Y-139452970D01*
X227441224Y-139452969D01*
X227447252Y-139450285D01*
X227464094Y-139438049D01*
X227567309Y-139363058D01*
X227601753Y-139338033D01*
X227606175Y-139333122D01*
X227725121Y-139201019D01*
X227725122Y-139201018D01*
X227729540Y-139196111D01*
X227806122Y-139063468D01*
X227821723Y-139036446D01*
X227821724Y-139036445D01*
X227825027Y-139030723D01*
X227884042Y-138849095D01*
X227904004Y-138659167D01*
X227885129Y-138479582D01*
X227884732Y-138475802D01*
X227884732Y-138475800D01*
X227884042Y-138469239D01*
X227825027Y-138287611D01*
X227729540Y-138122223D01*
X227601753Y-137980301D01*
X227447252Y-137868049D01*
X227441224Y-137865365D01*
X227441222Y-137865364D01*
X227278819Y-137793058D01*
X227278818Y-137793058D01*
X227272788Y-137790373D01*
X227179387Y-137770520D01*
X227092444Y-137752039D01*
X227092439Y-137752039D01*
X227085987Y-137750667D01*
X226895013Y-137750667D01*
X226888561Y-137752039D01*
X226888556Y-137752039D01*
X226799327Y-137771006D01*
X226724759Y-137786856D01*
X226653969Y-137781454D01*
X226597337Y-137738637D01*
X226573253Y-137676779D01*
X226556912Y-137521301D01*
X231767500Y-137521301D01*
X231774255Y-137583483D01*
X231825385Y-137719872D01*
X231912739Y-137836428D01*
X232029295Y-137923782D01*
X232165684Y-137974912D01*
X232227866Y-137981667D01*
X233592134Y-137981667D01*
X233654316Y-137974912D01*
X233790705Y-137923782D01*
X233907261Y-137836428D01*
X233994615Y-137719872D01*
X234045745Y-137583483D01*
X234052500Y-137521301D01*
X234052500Y-136157033D01*
X234045745Y-136094851D01*
X233994615Y-135958462D01*
X233907261Y-135841906D01*
X233790705Y-135754552D01*
X233654316Y-135703422D01*
X233592134Y-135696667D01*
X232227866Y-135696667D01*
X232165684Y-135703422D01*
X232029295Y-135754552D01*
X231912739Y-135841906D01*
X231825385Y-135958462D01*
X231774255Y-136094851D01*
X231767500Y-136157033D01*
X231767500Y-137521301D01*
X226556912Y-137521301D01*
X226554232Y-137495802D01*
X226554232Y-137495800D01*
X226553542Y-137489239D01*
X226494527Y-137307611D01*
X226474509Y-137272938D01*
X226402341Y-137147941D01*
X226399040Y-137142223D01*
X226383804Y-137125301D01*
X226273117Y-137002371D01*
X226242399Y-136938364D01*
X226251164Y-136867910D01*
X226273117Y-136833751D01*
X226374621Y-136721019D01*
X226374622Y-136721018D01*
X226379040Y-136716111D01*
X226474527Y-136550723D01*
X226533542Y-136369095D01*
X226553504Y-136179167D01*
X226544642Y-136094851D01*
X226534232Y-135995802D01*
X226534232Y-135995800D01*
X226533542Y-135989239D01*
X226474527Y-135807611D01*
X226442074Y-135751400D01*
X226382341Y-135647941D01*
X226379040Y-135642223D01*
X226251253Y-135500301D01*
X226096752Y-135388049D01*
X226090724Y-135385365D01*
X226090722Y-135385364D01*
X225928319Y-135313058D01*
X225928318Y-135313058D01*
X225922288Y-135310373D01*
X225828888Y-135290520D01*
X225741944Y-135272039D01*
X225741939Y-135272039D01*
X225735487Y-135270667D01*
X225544513Y-135270667D01*
X225538061Y-135272039D01*
X225538056Y-135272039D01*
X225451112Y-135290520D01*
X225357712Y-135310373D01*
X225351682Y-135313058D01*
X225351681Y-135313058D01*
X225189278Y-135385364D01*
X225189276Y-135385365D01*
X225183248Y-135388049D01*
X225028747Y-135500301D01*
X224900960Y-135642223D01*
X224897659Y-135647941D01*
X224837927Y-135751400D01*
X224805473Y-135807611D01*
X224746458Y-135989239D01*
X224745768Y-135995800D01*
X224745768Y-135995802D01*
X224735358Y-136094851D01*
X224726496Y-136179167D01*
X222905599Y-136179167D01*
X222911243Y-136161796D01*
X222917454Y-136102707D01*
X222930515Y-135978433D01*
X222931205Y-135971868D01*
X222911243Y-135781940D01*
X222852228Y-135600312D01*
X222756741Y-135434924D01*
X222726380Y-135401204D01*
X222633376Y-135297913D01*
X222633375Y-135297912D01*
X222628954Y-135293002D01*
X222474453Y-135180750D01*
X222468425Y-135178066D01*
X222468423Y-135178065D01*
X222306020Y-135105759D01*
X222306019Y-135105759D01*
X222299989Y-135103074D01*
X222206589Y-135083221D01*
X222119645Y-135064740D01*
X222119640Y-135064740D01*
X222113188Y-135063368D01*
X221960720Y-135063368D01*
X221892599Y-135043366D01*
X221846106Y-134989710D01*
X221836002Y-134919436D01*
X221857505Y-134865100D01*
X221930589Y-134760725D01*
X222019956Y-134569077D01*
X222047497Y-134466295D01*
X222073262Y-134370137D01*
X222073262Y-134370135D01*
X222074686Y-134364822D01*
X222093116Y-134154167D01*
X222074686Y-133943512D01*
X222019956Y-133739257D01*
X221935979Y-133559167D01*
X227656496Y-133559167D01*
X227676458Y-133749095D01*
X227735473Y-133930723D01*
X227738776Y-133936445D01*
X227738777Y-133936446D01*
X227772686Y-133995177D01*
X227830960Y-134096111D01*
X227835378Y-134101018D01*
X227835379Y-134101019D01*
X227954325Y-134233122D01*
X227958747Y-134238033D01*
X228113248Y-134350285D01*
X228119276Y-134352969D01*
X228119278Y-134352970D01*
X228281681Y-134425276D01*
X228287712Y-134427961D01*
X228381113Y-134447814D01*
X228468056Y-134466295D01*
X228468061Y-134466295D01*
X228474513Y-134467667D01*
X228665487Y-134467667D01*
X228671939Y-134466295D01*
X228671944Y-134466295D01*
X228758887Y-134447814D01*
X228852288Y-134427961D01*
X228858319Y-134425276D01*
X229020722Y-134352970D01*
X229020724Y-134352969D01*
X229026752Y-134350285D01*
X229181253Y-134238033D01*
X229185675Y-134233122D01*
X229304621Y-134101019D01*
X229304622Y-134101018D01*
X229309040Y-134096111D01*
X229367314Y-133995177D01*
X229401223Y-133936446D01*
X229401224Y-133936445D01*
X229404527Y-133930723D01*
X229463542Y-133749095D01*
X229483504Y-133559167D01*
X229463542Y-133369239D01*
X229404527Y-133187611D01*
X229309040Y-133022223D01*
X229235953Y-132941051D01*
X229185675Y-132885212D01*
X229185674Y-132885211D01*
X229181253Y-132880301D01*
X229026752Y-132768049D01*
X229020724Y-132765365D01*
X229020722Y-132765364D01*
X228858319Y-132693058D01*
X228858318Y-132693058D01*
X228852288Y-132690373D01*
X228758888Y-132670520D01*
X228671944Y-132652039D01*
X228671939Y-132652039D01*
X228665487Y-132650667D01*
X228474513Y-132650667D01*
X228468061Y-132652039D01*
X228468056Y-132652039D01*
X228381112Y-132670520D01*
X228287712Y-132690373D01*
X228281682Y-132693058D01*
X228281681Y-132693058D01*
X228119278Y-132765364D01*
X228119276Y-132765365D01*
X228113248Y-132768049D01*
X227958747Y-132880301D01*
X227954326Y-132885211D01*
X227954325Y-132885212D01*
X227904048Y-132941051D01*
X227830960Y-133022223D01*
X227735473Y-133187611D01*
X227676458Y-133369239D01*
X227656496Y-133559167D01*
X221935979Y-133559167D01*
X221932912Y-133552590D01*
X221932910Y-133552587D01*
X221930589Y-133547609D01*
X221809301Y-133374391D01*
X221659776Y-133224866D01*
X221486558Y-133103578D01*
X221481580Y-133101257D01*
X221481577Y-133101255D01*
X221299892Y-133016534D01*
X221299891Y-133016533D01*
X221294910Y-133014211D01*
X221289602Y-133012789D01*
X221289600Y-133012788D01*
X221095970Y-132960905D01*
X221095968Y-132960905D01*
X221090655Y-132959481D01*
X220880000Y-132941051D01*
X220669345Y-132959481D01*
X220664032Y-132960905D01*
X220664030Y-132960905D01*
X220470400Y-133012788D01*
X220470398Y-133012789D01*
X220465090Y-133014211D01*
X220460109Y-133016533D01*
X220460108Y-133016534D01*
X220278423Y-133101255D01*
X220278420Y-133101257D01*
X220273442Y-133103578D01*
X220100224Y-133224866D01*
X219950699Y-133374391D01*
X219829411Y-133547609D01*
X219827090Y-133552587D01*
X219827088Y-133552590D01*
X219824021Y-133559167D01*
X219740044Y-133739257D01*
X219685314Y-133943512D01*
X219666884Y-134154167D01*
X219685314Y-134364822D01*
X219686738Y-134370135D01*
X219686738Y-134370137D01*
X219712504Y-134466295D01*
X219740044Y-134569077D01*
X219829411Y-134760725D01*
X219950699Y-134933943D01*
X220100224Y-135083468D01*
X220273442Y-135204756D01*
X220278420Y-135207077D01*
X220278423Y-135207079D01*
X220454359Y-135289119D01*
X220465090Y-135294123D01*
X220470398Y-135295545D01*
X220470400Y-135295546D01*
X220664030Y-135347429D01*
X220664032Y-135347429D01*
X220669345Y-135348853D01*
X220880000Y-135367283D01*
X220885475Y-135366804D01*
X221085184Y-135349332D01*
X221085188Y-135349331D01*
X221090655Y-135348853D01*
X221091062Y-135348744D01*
X221160063Y-135356438D01*
X221215167Y-135401204D01*
X221237321Y-135468655D01*
X221220504Y-135535654D01*
X221183174Y-135600312D01*
X221124159Y-135781940D01*
X221104197Y-135971868D01*
X221104887Y-135978433D01*
X221117949Y-136102707D01*
X221124159Y-136161796D01*
X221183174Y-136343424D01*
X221278661Y-136508812D01*
X221406448Y-136650734D01*
X221560949Y-136762986D01*
X221566977Y-136765670D01*
X221566979Y-136765671D01*
X221723893Y-136835533D01*
X221735413Y-136840662D01*
X221817137Y-136858033D01*
X221915757Y-136878996D01*
X221915762Y-136878996D01*
X221922214Y-136880368D01*
X222113188Y-136880368D01*
X222118032Y-136879338D01*
X222187267Y-136892000D01*
X222239113Y-136940502D01*
X222256508Y-137009335D01*
X222233927Y-137076645D01*
X222204660Y-137106474D01*
X222178747Y-137125301D01*
X222174326Y-137130211D01*
X222174325Y-137130212D01*
X222167930Y-137137315D01*
X222050960Y-137267223D01*
X222012363Y-137334075D01*
X221960980Y-137383068D01*
X221891266Y-137396503D01*
X221825355Y-137370116D01*
X221809674Y-137354924D01*
X221809301Y-137354391D01*
X221659776Y-137204866D01*
X221486558Y-137083578D01*
X221481580Y-137081257D01*
X221481577Y-137081255D01*
X221299892Y-136996534D01*
X221299891Y-136996533D01*
X221294910Y-136994211D01*
X221289602Y-136992789D01*
X221289600Y-136992788D01*
X221095970Y-136940905D01*
X221095968Y-136940905D01*
X221090655Y-136939481D01*
X220880000Y-136921051D01*
X220669345Y-136939481D01*
X220664032Y-136940905D01*
X220664030Y-136940905D01*
X220470400Y-136992788D01*
X220470398Y-136992789D01*
X220465090Y-136994211D01*
X220460109Y-136996533D01*
X220460108Y-136996534D01*
X220278423Y-137081255D01*
X220278420Y-137081257D01*
X220273442Y-137083578D01*
X220100224Y-137204866D01*
X219950699Y-137354391D01*
X219829411Y-137527609D01*
X219827090Y-137532587D01*
X219827088Y-137532590D01*
X219759852Y-137676779D01*
X219740044Y-137719257D01*
X219738622Y-137724565D01*
X219738621Y-137724567D01*
X219700895Y-137865364D01*
X219685314Y-137923512D01*
X219666884Y-138134167D01*
X217989410Y-138134167D01*
X218006023Y-130174167D01*
X219666884Y-130174167D01*
X219685314Y-130384822D01*
X219740044Y-130589077D01*
X219829411Y-130780725D01*
X219950699Y-130953943D01*
X220100224Y-131103468D01*
X220273442Y-131224756D01*
X220278420Y-131227077D01*
X220278423Y-131227079D01*
X220337095Y-131254438D01*
X220465090Y-131314123D01*
X220470398Y-131315545D01*
X220470400Y-131315546D01*
X220664030Y-131367429D01*
X220664032Y-131367429D01*
X220669345Y-131368853D01*
X220880000Y-131387283D01*
X221090655Y-131368853D01*
X221095968Y-131367429D01*
X221095970Y-131367429D01*
X221289600Y-131315546D01*
X221289602Y-131315545D01*
X221294910Y-131314123D01*
X221422905Y-131254438D01*
X221481577Y-131227079D01*
X221481580Y-131227077D01*
X221486558Y-131224756D01*
X221659776Y-131103468D01*
X221809301Y-130953943D01*
X221854657Y-130889167D01*
X227426496Y-130889167D01*
X227427186Y-130895732D01*
X227433714Y-130957838D01*
X227446458Y-131079095D01*
X227505473Y-131260723D01*
X227600960Y-131426111D01*
X227728747Y-131568033D01*
X227883248Y-131680285D01*
X227889276Y-131682969D01*
X227889278Y-131682970D01*
X228051681Y-131755276D01*
X228057712Y-131757961D01*
X228151113Y-131777814D01*
X228238056Y-131796295D01*
X228238061Y-131796295D01*
X228244513Y-131797667D01*
X228435487Y-131797667D01*
X228441939Y-131796295D01*
X228441944Y-131796295D01*
X228528887Y-131777814D01*
X228622288Y-131757961D01*
X228628319Y-131755276D01*
X228790722Y-131682970D01*
X228790724Y-131682969D01*
X228796752Y-131680285D01*
X228951253Y-131568033D01*
X229079040Y-131426111D01*
X229174527Y-131260723D01*
X229233542Y-131079095D01*
X229246287Y-130957838D01*
X229252814Y-130895732D01*
X229253504Y-130889167D01*
X229242580Y-130785230D01*
X229234232Y-130705802D01*
X229234232Y-130705800D01*
X229233542Y-130699239D01*
X229174527Y-130517611D01*
X229079040Y-130352223D01*
X228975894Y-130237667D01*
X228955675Y-130215212D01*
X228955674Y-130215211D01*
X228951253Y-130210301D01*
X228827357Y-130120285D01*
X228802094Y-130101930D01*
X228802093Y-130101929D01*
X228796752Y-130098049D01*
X228790724Y-130095365D01*
X228790722Y-130095364D01*
X228628319Y-130023058D01*
X228628318Y-130023058D01*
X228622288Y-130020373D01*
X228528888Y-130000520D01*
X228441944Y-129982039D01*
X228441939Y-129982039D01*
X228435487Y-129980667D01*
X228244513Y-129980667D01*
X228238061Y-129982039D01*
X228238056Y-129982039D01*
X228151112Y-130000520D01*
X228057712Y-130020373D01*
X228051682Y-130023058D01*
X228051681Y-130023058D01*
X227889278Y-130095364D01*
X227889276Y-130095365D01*
X227883248Y-130098049D01*
X227877907Y-130101929D01*
X227877906Y-130101930D01*
X227852643Y-130120285D01*
X227728747Y-130210301D01*
X227724326Y-130215211D01*
X227724325Y-130215212D01*
X227704107Y-130237667D01*
X227600960Y-130352223D01*
X227505473Y-130517611D01*
X227446458Y-130699239D01*
X227445768Y-130705800D01*
X227445768Y-130705802D01*
X227437420Y-130785230D01*
X227426496Y-130889167D01*
X221854657Y-130889167D01*
X221930589Y-130780725D01*
X222019956Y-130589077D01*
X222074686Y-130384822D01*
X222093116Y-130174167D01*
X222074686Y-129963512D01*
X222069281Y-129943341D01*
X222021379Y-129764567D01*
X222021378Y-129764565D01*
X222019956Y-129759257D01*
X221992661Y-129700723D01*
X221932912Y-129572590D01*
X221932910Y-129572587D01*
X221930589Y-129567609D01*
X221809301Y-129394391D01*
X221744077Y-129329167D01*
X224671496Y-129329167D01*
X224691458Y-129519095D01*
X224750473Y-129700723D01*
X224845960Y-129866111D01*
X224850378Y-129871018D01*
X224850379Y-129871019D01*
X224950342Y-129982039D01*
X224973747Y-130008033D01*
X224994427Y-130023058D01*
X225102985Y-130101930D01*
X225128248Y-130120285D01*
X225134276Y-130122969D01*
X225134278Y-130122970D01*
X225296681Y-130195276D01*
X225302712Y-130197961D01*
X225383871Y-130215212D01*
X225483056Y-130236295D01*
X225483061Y-130236295D01*
X225489513Y-130237667D01*
X225680487Y-130237667D01*
X225686939Y-130236295D01*
X225686944Y-130236295D01*
X225786129Y-130215212D01*
X225867288Y-130197961D01*
X225873319Y-130195276D01*
X226035722Y-130122970D01*
X226035724Y-130122969D01*
X226041752Y-130120285D01*
X226067016Y-130101930D01*
X226175573Y-130023058D01*
X226196253Y-130008033D01*
X226219658Y-129982039D01*
X226319621Y-129871019D01*
X226319622Y-129871018D01*
X226324040Y-129866111D01*
X226419527Y-129700723D01*
X226478542Y-129519095D01*
X226498504Y-129329167D01*
X226478542Y-129139239D01*
X226419527Y-128957611D01*
X226324040Y-128792223D01*
X226196253Y-128650301D01*
X226041752Y-128538049D01*
X226035724Y-128535365D01*
X226035722Y-128535364D01*
X225873319Y-128463058D01*
X225873318Y-128463058D01*
X225867288Y-128460373D01*
X225773888Y-128440520D01*
X225686944Y-128422039D01*
X225686939Y-128422039D01*
X225680487Y-128420667D01*
X225489513Y-128420667D01*
X225483061Y-128422039D01*
X225483056Y-128422039D01*
X225396112Y-128440520D01*
X225302712Y-128460373D01*
X225296682Y-128463058D01*
X225296681Y-128463058D01*
X225134278Y-128535364D01*
X225134276Y-128535365D01*
X225128248Y-128538049D01*
X224973747Y-128650301D01*
X224845960Y-128792223D01*
X224750473Y-128957611D01*
X224691458Y-129139239D01*
X224671496Y-129329167D01*
X221744077Y-129329167D01*
X221659776Y-129244866D01*
X221486558Y-129123578D01*
X221481580Y-129121257D01*
X221481577Y-129121255D01*
X221299892Y-129036534D01*
X221299891Y-129036533D01*
X221294910Y-129034211D01*
X221289602Y-129032789D01*
X221289600Y-129032788D01*
X221095970Y-128980905D01*
X221095968Y-128980905D01*
X221090655Y-128979481D01*
X220880000Y-128961051D01*
X220669345Y-128979481D01*
X220664032Y-128980905D01*
X220664030Y-128980905D01*
X220470400Y-129032788D01*
X220470398Y-129032789D01*
X220465090Y-129034211D01*
X220460109Y-129036533D01*
X220460108Y-129036534D01*
X220278423Y-129121255D01*
X220278420Y-129121257D01*
X220273442Y-129123578D01*
X220100224Y-129244866D01*
X219950699Y-129394391D01*
X219829411Y-129567609D01*
X219827090Y-129572587D01*
X219827088Y-129572590D01*
X219767339Y-129700723D01*
X219740044Y-129759257D01*
X219738622Y-129764565D01*
X219738621Y-129764567D01*
X219690719Y-129943341D01*
X219685314Y-129963512D01*
X219666884Y-130174167D01*
X218006023Y-130174167D01*
X218018848Y-124029167D01*
X226961496Y-124029167D01*
X226981458Y-124219095D01*
X227040473Y-124400723D01*
X227135960Y-124566111D01*
X227263747Y-124708033D01*
X227418248Y-124820285D01*
X227424276Y-124822969D01*
X227424278Y-124822970D01*
X227586681Y-124895276D01*
X227592712Y-124897961D01*
X227686113Y-124917814D01*
X227773056Y-124936295D01*
X227773061Y-124936295D01*
X227779513Y-124937667D01*
X227970487Y-124937667D01*
X227976939Y-124936295D01*
X227976944Y-124936295D01*
X228063887Y-124917814D01*
X228157288Y-124897961D01*
X228163319Y-124895276D01*
X228325722Y-124822970D01*
X228325724Y-124822969D01*
X228331752Y-124820285D01*
X228486253Y-124708033D01*
X228614040Y-124566111D01*
X228709527Y-124400723D01*
X228768542Y-124219095D01*
X228788504Y-124029167D01*
X228768542Y-123839239D01*
X228709527Y-123657611D01*
X228614040Y-123492223D01*
X228486253Y-123350301D01*
X228331752Y-123238049D01*
X228325724Y-123235365D01*
X228325722Y-123235364D01*
X228163319Y-123163058D01*
X228163318Y-123163058D01*
X228157288Y-123160373D01*
X228063888Y-123140520D01*
X227976944Y-123122039D01*
X227976939Y-123122039D01*
X227970487Y-123120667D01*
X227779513Y-123120667D01*
X227773061Y-123122039D01*
X227773056Y-123122039D01*
X227686112Y-123140520D01*
X227592712Y-123160373D01*
X227586682Y-123163058D01*
X227586681Y-123163058D01*
X227424278Y-123235364D01*
X227424276Y-123235365D01*
X227418248Y-123238049D01*
X227263747Y-123350301D01*
X227135960Y-123492223D01*
X227040473Y-123657611D01*
X226981458Y-123839239D01*
X226961496Y-124029167D01*
X218018848Y-124029167D01*
X218026169Y-120521389D01*
X226976496Y-120521389D01*
X226996458Y-120711317D01*
X227055473Y-120892945D01*
X227150960Y-121058333D01*
X227278747Y-121200255D01*
X227433248Y-121312507D01*
X227439276Y-121315191D01*
X227439278Y-121315192D01*
X227601681Y-121387498D01*
X227607712Y-121390183D01*
X227701113Y-121410036D01*
X227788056Y-121428517D01*
X227788061Y-121428517D01*
X227794513Y-121429889D01*
X227985487Y-121429889D01*
X227991939Y-121428517D01*
X227991944Y-121428517D01*
X228078887Y-121410036D01*
X228172288Y-121390183D01*
X228178319Y-121387498D01*
X228340722Y-121315192D01*
X228340724Y-121315191D01*
X228346752Y-121312507D01*
X228501253Y-121200255D01*
X228629040Y-121058333D01*
X228724527Y-120892945D01*
X228783542Y-120711317D01*
X228803504Y-120521389D01*
X228783542Y-120331461D01*
X228724527Y-120149833D01*
X228629040Y-119984445D01*
X228501253Y-119842523D01*
X228455053Y-119808957D01*
X228412703Y-119778187D01*
X228369349Y-119721964D01*
X228363274Y-119651228D01*
X228396406Y-119588436D01*
X228458226Y-119553525D01*
X228475782Y-119550730D01*
X228528989Y-119546075D01*
X228534302Y-119544651D01*
X228534304Y-119544651D01*
X228727934Y-119492768D01*
X228727936Y-119492767D01*
X228733244Y-119491345D01*
X228739242Y-119488548D01*
X228919911Y-119404301D01*
X228919914Y-119404299D01*
X228924892Y-119401978D01*
X228976774Y-119365650D01*
X230731406Y-119365650D01*
X230740702Y-119377665D01*
X230770301Y-119398390D01*
X230779789Y-119403868D01*
X230961389Y-119488548D01*
X230971683Y-119492296D01*
X231165234Y-119544158D01*
X231176021Y-119546060D01*
X231375637Y-119563524D01*
X231386587Y-119563524D01*
X231586203Y-119546060D01*
X231596990Y-119544158D01*
X231790541Y-119492296D01*
X231800835Y-119488548D01*
X231982435Y-119403868D01*
X231991923Y-119398390D01*
X232022360Y-119377078D01*
X232030735Y-119366601D01*
X232023666Y-119353153D01*
X231393924Y-118723411D01*
X231379980Y-118715797D01*
X231378147Y-118715928D01*
X231371532Y-118720179D01*
X230737836Y-119353875D01*
X230731406Y-119365650D01*
X228976774Y-119365650D01*
X229098110Y-119280690D01*
X229247635Y-119131165D01*
X229368923Y-118957947D01*
X229458290Y-118766299D01*
X229513020Y-118562044D01*
X229530971Y-118356864D01*
X230168977Y-118356864D01*
X230186441Y-118556480D01*
X230188343Y-118567267D01*
X230240205Y-118760818D01*
X230243953Y-118771112D01*
X230328633Y-118952712D01*
X230334111Y-118962200D01*
X230355423Y-118992637D01*
X230365900Y-119001012D01*
X230379348Y-118993943D01*
X231009090Y-118364201D01*
X231015468Y-118352521D01*
X231745520Y-118352521D01*
X231745651Y-118354354D01*
X231749902Y-118360969D01*
X232383598Y-118994665D01*
X232395373Y-119001095D01*
X232407388Y-118991799D01*
X232428113Y-118962200D01*
X232433591Y-118952712D01*
X232518271Y-118771112D01*
X232522019Y-118760818D01*
X232573881Y-118567267D01*
X232575783Y-118556480D01*
X232593247Y-118356864D01*
X232593247Y-118345914D01*
X232575783Y-118146298D01*
X232573881Y-118135511D01*
X232522019Y-117941960D01*
X232518271Y-117931666D01*
X232433591Y-117750066D01*
X232428113Y-117740578D01*
X232406801Y-117710141D01*
X232396324Y-117701766D01*
X232382876Y-117708835D01*
X231753134Y-118338577D01*
X231745520Y-118352521D01*
X231015468Y-118352521D01*
X231016704Y-118350257D01*
X231016573Y-118348424D01*
X231012322Y-118341809D01*
X230378626Y-117708113D01*
X230366851Y-117701683D01*
X230354836Y-117710979D01*
X230334111Y-117740578D01*
X230328633Y-117750066D01*
X230243953Y-117931666D01*
X230240205Y-117941960D01*
X230188343Y-118135511D01*
X230186441Y-118146298D01*
X230168977Y-118345914D01*
X230168977Y-118356864D01*
X229530971Y-118356864D01*
X229531450Y-118351389D01*
X229513020Y-118140734D01*
X229458290Y-117936479D01*
X229368923Y-117744831D01*
X229247635Y-117571613D01*
X229098110Y-117422088D01*
X228975416Y-117336177D01*
X230731489Y-117336177D01*
X230738558Y-117349625D01*
X231368300Y-117979367D01*
X231382244Y-117986981D01*
X231384077Y-117986850D01*
X231390692Y-117982599D01*
X232024388Y-117348903D01*
X232030818Y-117337128D01*
X232021522Y-117325113D01*
X231991923Y-117304388D01*
X231982435Y-117298910D01*
X231800835Y-117214230D01*
X231790541Y-117210482D01*
X231596990Y-117158620D01*
X231586203Y-117156718D01*
X231386587Y-117139254D01*
X231375637Y-117139254D01*
X231176021Y-117156718D01*
X231165234Y-117158620D01*
X230971683Y-117210482D01*
X230961389Y-117214230D01*
X230779789Y-117298910D01*
X230770301Y-117304388D01*
X230739864Y-117325700D01*
X230731489Y-117336177D01*
X228975416Y-117336177D01*
X228924892Y-117300800D01*
X228919914Y-117298479D01*
X228919911Y-117298477D01*
X228738226Y-117213756D01*
X228738225Y-117213755D01*
X228733244Y-117211433D01*
X228727936Y-117210011D01*
X228727934Y-117210010D01*
X228534304Y-117158127D01*
X228534302Y-117158127D01*
X228528989Y-117156703D01*
X228318334Y-117138273D01*
X228107679Y-117156703D01*
X228102366Y-117158127D01*
X228102364Y-117158127D01*
X227908734Y-117210010D01*
X227908732Y-117210011D01*
X227903424Y-117211433D01*
X227898443Y-117213755D01*
X227898442Y-117213756D01*
X227716757Y-117298477D01*
X227716754Y-117298479D01*
X227711776Y-117300800D01*
X227538558Y-117422088D01*
X227389033Y-117571613D01*
X227267745Y-117744831D01*
X227178378Y-117936479D01*
X227123648Y-118140734D01*
X227105218Y-118351389D01*
X227123648Y-118562044D01*
X227178378Y-118766299D01*
X227267745Y-118957947D01*
X227389033Y-119131165D01*
X227538558Y-119280690D01*
X227711776Y-119401978D01*
X227716758Y-119404301D01*
X227717485Y-119404721D01*
X227766477Y-119456105D01*
X227779911Y-119525819D01*
X227753522Y-119591729D01*
X227695689Y-119632909D01*
X227680679Y-119637084D01*
X227614178Y-119651220D01*
X227614173Y-119651222D01*
X227607712Y-119652595D01*
X227601682Y-119655280D01*
X227601681Y-119655280D01*
X227439278Y-119727586D01*
X227439276Y-119727587D01*
X227433248Y-119730271D01*
X227278747Y-119842523D01*
X227150960Y-119984445D01*
X227055473Y-120149833D01*
X226996458Y-120331461D01*
X226976496Y-120521389D01*
X218026169Y-120521389D01*
X218030698Y-118351389D01*
X221129662Y-118351389D01*
X221148092Y-118562044D01*
X221202822Y-118766299D01*
X221292189Y-118957947D01*
X221413477Y-119131165D01*
X221563002Y-119280690D01*
X221736220Y-119401978D01*
X221741198Y-119404299D01*
X221741201Y-119404301D01*
X221921870Y-119488548D01*
X221927868Y-119491345D01*
X221933176Y-119492767D01*
X221933178Y-119492768D01*
X222126808Y-119544651D01*
X222126810Y-119544651D01*
X222132123Y-119546075D01*
X222342778Y-119564505D01*
X222553433Y-119546075D01*
X222558746Y-119544651D01*
X222558748Y-119544651D01*
X222752378Y-119492768D01*
X222752380Y-119492767D01*
X222757688Y-119491345D01*
X222763686Y-119488548D01*
X222944355Y-119404301D01*
X222944358Y-119404299D01*
X222949336Y-119401978D01*
X223122554Y-119280690D01*
X223272079Y-119131165D01*
X223393367Y-118957947D01*
X223482734Y-118766299D01*
X223537464Y-118562044D01*
X223555894Y-118351389D01*
X224142440Y-118351389D01*
X224160870Y-118562044D01*
X224215600Y-118766299D01*
X224304967Y-118957947D01*
X224426255Y-119131165D01*
X224575780Y-119280690D01*
X224748998Y-119401978D01*
X224753976Y-119404299D01*
X224753979Y-119404301D01*
X224934648Y-119488548D01*
X224940646Y-119491345D01*
X224945954Y-119492767D01*
X224945956Y-119492768D01*
X225139586Y-119544651D01*
X225139588Y-119544651D01*
X225144901Y-119546075D01*
X225355556Y-119564505D01*
X225566211Y-119546075D01*
X225571524Y-119544651D01*
X225571526Y-119544651D01*
X225765156Y-119492768D01*
X225765158Y-119492767D01*
X225770466Y-119491345D01*
X225776464Y-119488548D01*
X225957133Y-119404301D01*
X225957136Y-119404299D01*
X225962114Y-119401978D01*
X226135332Y-119280690D01*
X226284857Y-119131165D01*
X226406145Y-118957947D01*
X226495512Y-118766299D01*
X226550242Y-118562044D01*
X226568672Y-118351389D01*
X226550242Y-118140734D01*
X226495512Y-117936479D01*
X226406145Y-117744831D01*
X226284857Y-117571613D01*
X226135332Y-117422088D01*
X225962114Y-117300800D01*
X225957136Y-117298479D01*
X225957133Y-117298477D01*
X225775448Y-117213756D01*
X225775447Y-117213755D01*
X225770466Y-117211433D01*
X225765158Y-117210011D01*
X225765156Y-117210010D01*
X225571526Y-117158127D01*
X225571524Y-117158127D01*
X225566211Y-117156703D01*
X225355556Y-117138273D01*
X225144901Y-117156703D01*
X225139588Y-117158127D01*
X225139586Y-117158127D01*
X224945956Y-117210010D01*
X224945954Y-117210011D01*
X224940646Y-117211433D01*
X224935665Y-117213755D01*
X224935664Y-117213756D01*
X224753979Y-117298477D01*
X224753976Y-117298479D01*
X224748998Y-117300800D01*
X224575780Y-117422088D01*
X224426255Y-117571613D01*
X224304967Y-117744831D01*
X224215600Y-117936479D01*
X224160870Y-118140734D01*
X224142440Y-118351389D01*
X223555894Y-118351389D01*
X223537464Y-118140734D01*
X223482734Y-117936479D01*
X223393367Y-117744831D01*
X223272079Y-117571613D01*
X223122554Y-117422088D01*
X222949336Y-117300800D01*
X222944358Y-117298479D01*
X222944355Y-117298477D01*
X222762670Y-117213756D01*
X222762669Y-117213755D01*
X222757688Y-117211433D01*
X222752380Y-117210011D01*
X222752378Y-117210010D01*
X222558748Y-117158127D01*
X222558746Y-117158127D01*
X222553433Y-117156703D01*
X222342778Y-117138273D01*
X222132123Y-117156703D01*
X222126810Y-117158127D01*
X222126808Y-117158127D01*
X221933178Y-117210010D01*
X221933176Y-117210011D01*
X221927868Y-117211433D01*
X221922887Y-117213755D01*
X221922886Y-117213756D01*
X221741201Y-117298477D01*
X221741198Y-117298479D01*
X221736220Y-117300800D01*
X221563002Y-117422088D01*
X221413477Y-117571613D01*
X221292189Y-117744831D01*
X221202822Y-117936479D01*
X221148092Y-118140734D01*
X221129662Y-118351389D01*
X218030698Y-118351389D01*
X218036145Y-115741389D01*
X222482995Y-115741389D01*
X222501425Y-115952044D01*
X222556155Y-116156299D01*
X222645522Y-116347947D01*
X222766810Y-116521165D01*
X222916335Y-116670690D01*
X223089553Y-116791978D01*
X223094531Y-116794299D01*
X223094534Y-116794301D01*
X223275203Y-116878548D01*
X223281201Y-116881345D01*
X223286509Y-116882767D01*
X223286511Y-116882768D01*
X223480141Y-116934651D01*
X223480143Y-116934651D01*
X223485456Y-116936075D01*
X223696111Y-116954505D01*
X223906766Y-116936075D01*
X223912079Y-116934651D01*
X223912081Y-116934651D01*
X224105711Y-116882768D01*
X224105713Y-116882767D01*
X224111021Y-116881345D01*
X224117019Y-116878548D01*
X224297688Y-116794301D01*
X224297691Y-116794299D01*
X224302669Y-116791978D01*
X224475887Y-116670690D01*
X224625412Y-116521165D01*
X224746700Y-116347947D01*
X224836067Y-116156299D01*
X224890797Y-115952044D01*
X224909227Y-115741389D01*
X225506884Y-115741389D01*
X225525314Y-115952044D01*
X225580044Y-116156299D01*
X225669411Y-116347947D01*
X225790699Y-116521165D01*
X225940224Y-116670690D01*
X226113442Y-116791978D01*
X226118420Y-116794299D01*
X226118423Y-116794301D01*
X226299092Y-116878548D01*
X226305090Y-116881345D01*
X226310398Y-116882767D01*
X226310400Y-116882768D01*
X226504030Y-116934651D01*
X226504032Y-116934651D01*
X226509345Y-116936075D01*
X226720000Y-116954505D01*
X226930655Y-116936075D01*
X226935968Y-116934651D01*
X226935970Y-116934651D01*
X227129600Y-116882768D01*
X227129602Y-116882767D01*
X227134910Y-116881345D01*
X227140908Y-116878548D01*
X227321577Y-116794301D01*
X227321580Y-116794299D01*
X227326558Y-116791978D01*
X227499776Y-116670690D01*
X227649301Y-116521165D01*
X227770589Y-116347947D01*
X227859956Y-116156299D01*
X227914686Y-115952044D01*
X227933116Y-115741389D01*
X228480773Y-115741389D01*
X228499203Y-115952044D01*
X228553933Y-116156299D01*
X228643300Y-116347947D01*
X228764588Y-116521165D01*
X228914113Y-116670690D01*
X229087331Y-116791978D01*
X229092309Y-116794299D01*
X229092312Y-116794301D01*
X229272981Y-116878548D01*
X229278979Y-116881345D01*
X229284287Y-116882767D01*
X229284289Y-116882768D01*
X229477919Y-116934651D01*
X229477921Y-116934651D01*
X229483234Y-116936075D01*
X229693889Y-116954505D01*
X229904544Y-116936075D01*
X229909857Y-116934651D01*
X229909859Y-116934651D01*
X230103489Y-116882768D01*
X230103491Y-116882767D01*
X230108799Y-116881345D01*
X230114797Y-116878548D01*
X230295466Y-116794301D01*
X230295469Y-116794299D01*
X230300447Y-116791978D01*
X230352329Y-116755650D01*
X232118072Y-116755650D01*
X232127368Y-116767665D01*
X232156967Y-116788390D01*
X232166455Y-116793868D01*
X232348055Y-116878548D01*
X232358349Y-116882296D01*
X232551900Y-116934158D01*
X232562687Y-116936060D01*
X232762303Y-116953524D01*
X232773253Y-116953524D01*
X232972869Y-116936060D01*
X232983656Y-116934158D01*
X233177207Y-116882296D01*
X233187501Y-116878548D01*
X233369101Y-116793868D01*
X233378589Y-116788390D01*
X233409026Y-116767078D01*
X233417401Y-116756601D01*
X233410332Y-116743153D01*
X232780590Y-116113411D01*
X232766646Y-116105797D01*
X232764813Y-116105928D01*
X232758198Y-116110179D01*
X232124502Y-116743875D01*
X232118072Y-116755650D01*
X230352329Y-116755650D01*
X230473665Y-116670690D01*
X230623190Y-116521165D01*
X230744478Y-116347947D01*
X230833845Y-116156299D01*
X230888575Y-115952044D01*
X230906526Y-115746864D01*
X231555643Y-115746864D01*
X231573107Y-115946480D01*
X231575009Y-115957267D01*
X231626871Y-116150818D01*
X231630619Y-116161112D01*
X231715299Y-116342712D01*
X231720777Y-116352200D01*
X231742089Y-116382637D01*
X231752566Y-116391012D01*
X231766014Y-116383943D01*
X232395756Y-115754201D01*
X232402134Y-115742521D01*
X233132186Y-115742521D01*
X233132317Y-115744354D01*
X233136568Y-115750969D01*
X233770264Y-116384665D01*
X233782039Y-116391095D01*
X233794054Y-116381799D01*
X233814779Y-116352200D01*
X233820257Y-116342712D01*
X233904937Y-116161112D01*
X233908685Y-116150818D01*
X233960547Y-115957267D01*
X233962449Y-115946480D01*
X233979913Y-115746864D01*
X233979913Y-115735914D01*
X233962449Y-115536298D01*
X233960547Y-115525511D01*
X233908685Y-115331960D01*
X233904937Y-115321666D01*
X233820257Y-115140066D01*
X233814779Y-115130578D01*
X233793467Y-115100141D01*
X233782990Y-115091766D01*
X233769542Y-115098835D01*
X233139800Y-115728577D01*
X233132186Y-115742521D01*
X232402134Y-115742521D01*
X232403370Y-115740257D01*
X232403239Y-115738424D01*
X232398988Y-115731809D01*
X231765292Y-115098113D01*
X231753517Y-115091683D01*
X231741502Y-115100979D01*
X231720777Y-115130578D01*
X231715299Y-115140066D01*
X231630619Y-115321666D01*
X231626871Y-115331960D01*
X231575009Y-115525511D01*
X231573107Y-115536298D01*
X231555643Y-115735914D01*
X231555643Y-115746864D01*
X230906526Y-115746864D01*
X230907005Y-115741389D01*
X230888575Y-115530734D01*
X230833845Y-115326479D01*
X230744478Y-115134831D01*
X230623190Y-114961613D01*
X230473665Y-114812088D01*
X230350971Y-114726177D01*
X232118155Y-114726177D01*
X232125224Y-114739625D01*
X232754966Y-115369367D01*
X232768910Y-115376981D01*
X232770743Y-115376850D01*
X232777358Y-115372599D01*
X233411054Y-114738903D01*
X233417484Y-114727128D01*
X233408188Y-114715113D01*
X233378589Y-114694388D01*
X233369101Y-114688910D01*
X233187501Y-114604230D01*
X233177207Y-114600482D01*
X232983656Y-114548620D01*
X232972869Y-114546718D01*
X232773253Y-114529254D01*
X232762303Y-114529254D01*
X232562687Y-114546718D01*
X232551900Y-114548620D01*
X232358349Y-114600482D01*
X232348055Y-114604230D01*
X232166455Y-114688910D01*
X232156967Y-114694388D01*
X232126530Y-114715700D01*
X232118155Y-114726177D01*
X230350971Y-114726177D01*
X230300447Y-114690800D01*
X230295469Y-114688479D01*
X230295466Y-114688477D01*
X230113781Y-114603756D01*
X230113780Y-114603755D01*
X230108799Y-114601433D01*
X230103491Y-114600011D01*
X230103489Y-114600010D01*
X229909859Y-114548127D01*
X229909857Y-114548127D01*
X229904544Y-114546703D01*
X229693889Y-114528273D01*
X229483234Y-114546703D01*
X229477921Y-114548127D01*
X229477919Y-114548127D01*
X229284289Y-114600010D01*
X229284287Y-114600011D01*
X229278979Y-114601433D01*
X229273998Y-114603755D01*
X229273997Y-114603756D01*
X229092312Y-114688477D01*
X229092309Y-114688479D01*
X229087331Y-114690800D01*
X228914113Y-114812088D01*
X228764588Y-114961613D01*
X228643300Y-115134831D01*
X228553933Y-115326479D01*
X228499203Y-115530734D01*
X228480773Y-115741389D01*
X227933116Y-115741389D01*
X227914686Y-115530734D01*
X227859956Y-115326479D01*
X227770589Y-115134831D01*
X227649301Y-114961613D01*
X227499776Y-114812088D01*
X227326558Y-114690800D01*
X227321580Y-114688479D01*
X227321577Y-114688477D01*
X227139892Y-114603756D01*
X227139891Y-114603755D01*
X227134910Y-114601433D01*
X227129602Y-114600011D01*
X227129600Y-114600010D01*
X226935970Y-114548127D01*
X226935968Y-114548127D01*
X226930655Y-114546703D01*
X226720000Y-114528273D01*
X226509345Y-114546703D01*
X226504032Y-114548127D01*
X226504030Y-114548127D01*
X226310400Y-114600010D01*
X226310398Y-114600011D01*
X226305090Y-114601433D01*
X226300109Y-114603755D01*
X226300108Y-114603756D01*
X226118423Y-114688477D01*
X226118420Y-114688479D01*
X226113442Y-114690800D01*
X225940224Y-114812088D01*
X225790699Y-114961613D01*
X225669411Y-115134831D01*
X225580044Y-115326479D01*
X225525314Y-115530734D01*
X225506884Y-115741389D01*
X224909227Y-115741389D01*
X224890797Y-115530734D01*
X224836067Y-115326479D01*
X224746700Y-115134831D01*
X224625412Y-114961613D01*
X224475887Y-114812088D01*
X224302669Y-114690800D01*
X224297691Y-114688479D01*
X224297688Y-114688477D01*
X224116003Y-114603756D01*
X224116002Y-114603755D01*
X224111021Y-114601433D01*
X224105713Y-114600011D01*
X224105711Y-114600010D01*
X223912081Y-114548127D01*
X223912079Y-114548127D01*
X223906766Y-114546703D01*
X223696111Y-114528273D01*
X223485456Y-114546703D01*
X223480143Y-114548127D01*
X223480141Y-114548127D01*
X223286511Y-114600010D01*
X223286509Y-114600011D01*
X223281201Y-114601433D01*
X223276220Y-114603755D01*
X223276219Y-114603756D01*
X223094534Y-114688477D01*
X223094531Y-114688479D01*
X223089553Y-114690800D01*
X222916335Y-114812088D01*
X222766810Y-114961613D01*
X222645522Y-115134831D01*
X222556155Y-115326479D01*
X222501425Y-115530734D01*
X222482995Y-115741389D01*
X218036145Y-115741389D01*
X218057178Y-105664237D01*
X218077322Y-105596158D01*
X218131075Y-105549777D01*
X218183178Y-105538500D01*
X222441377Y-105538500D01*
X222442148Y-105538502D01*
X222519721Y-105538976D01*
X222548152Y-105530850D01*
X222564915Y-105527272D01*
X222594187Y-105523080D01*
X222617564Y-105512451D01*
X222635087Y-105506004D01*
X222659771Y-105498949D01*
X222667365Y-105494157D01*
X222667368Y-105494156D01*
X222684780Y-105483170D01*
X222699865Y-105475030D01*
X222726782Y-105462792D01*
X222746235Y-105446030D01*
X222761239Y-105434927D01*
X222782958Y-105421224D01*
X222788897Y-105414499D01*
X222788901Y-105414496D01*
X222802532Y-105399062D01*
X222814724Y-105387018D01*
X222830327Y-105373573D01*
X222830329Y-105373570D01*
X222837127Y-105367713D01*
X222851094Y-105346165D01*
X222862385Y-105331291D01*
X222873431Y-105318783D01*
X222873432Y-105318782D01*
X222879378Y-105312049D01*
X222891943Y-105285287D01*
X222900263Y-105270309D01*
X222911471Y-105253017D01*
X222911473Y-105253012D01*
X222916352Y-105245485D01*
X222918922Y-105236892D01*
X222918924Y-105236887D01*
X222923711Y-105220880D01*
X222930372Y-105203436D01*
X222937467Y-105188324D01*
X222937468Y-105188322D01*
X222941281Y-105180200D01*
X222945830Y-105150983D01*
X222949613Y-105134268D01*
X222955515Y-105114534D01*
X222955516Y-105114528D01*
X222958086Y-105105934D01*
X222958296Y-105071494D01*
X222958329Y-105070711D01*
X222958500Y-105069614D01*
X222958500Y-105065544D01*
X222958553Y-105065365D01*
X222958671Y-105062531D01*
X222958877Y-105059874D01*
X222960136Y-105059972D01*
X222978502Y-104997423D01*
X223032158Y-104950930D01*
X223084483Y-104939544D01*
X226891652Y-104939020D01*
X230066976Y-104938583D01*
X231823064Y-104938341D01*
X231891186Y-104958334D01*
G37*
%TD.AperFunction*%
%TD*%
M02*
