%TF.GenerationSoftware,KiCad,Pcbnew,(6.0.7)*%
%TF.CreationDate,2023-02-07T15:13:14-05:00*%
%TF.ProjectId,DCA_USMR_Sens,4443415f-5553-44d5-925f-53656e732e6b,v1.1*%
%TF.SameCoordinates,Original*%
%TF.FileFunction,Copper,L1,Top*%
%TF.FilePolarity,Positive*%
%FSLAX46Y46*%
G04 Gerber Fmt 4.6, Leading zero omitted, Abs format (unit mm)*
G04 Created by KiCad (PCBNEW (6.0.7)) date 2023-02-07 15:13:14*
%MOMM*%
%LPD*%
G01*
G04 APERTURE LIST*
G04 Aperture macros list*
%AMRoundRect*
0 Rectangle with rounded corners*
0 $1 Rounding radius*
0 $2 $3 $4 $5 $6 $7 $8 $9 X,Y pos of 4 corners*
0 Add a 4 corners polygon primitive as box body*
4,1,4,$2,$3,$4,$5,$6,$7,$8,$9,$2,$3,0*
0 Add four circle primitives for the rounded corners*
1,1,$1+$1,$2,$3*
1,1,$1+$1,$4,$5*
1,1,$1+$1,$6,$7*
1,1,$1+$1,$8,$9*
0 Add four rect primitives between the rounded corners*
20,1,$1+$1,$2,$3,$4,$5,0*
20,1,$1+$1,$4,$5,$6,$7,0*
20,1,$1+$1,$6,$7,$8,$9,0*
20,1,$1+$1,$8,$9,$2,$3,0*%
G04 Aperture macros list end*
%TA.AperFunction,SMDPad,CuDef*%
%ADD10RoundRect,0.140000X0.140000X0.170000X-0.140000X0.170000X-0.140000X-0.170000X0.140000X-0.170000X0*%
%TD*%
%TA.AperFunction,SMDPad,CuDef*%
%ADD11RoundRect,0.042000X0.943000X0.258000X-0.943000X0.258000X-0.943000X-0.258000X0.943000X-0.258000X0*%
%TD*%
%TA.AperFunction,SMDPad,CuDef*%
%ADD12RoundRect,0.135000X0.185000X-0.135000X0.185000X0.135000X-0.185000X0.135000X-0.185000X-0.135000X0*%
%TD*%
%TA.AperFunction,ComponentPad*%
%ADD13C,1.400000*%
%TD*%
%TA.AperFunction,SMDPad,CuDef*%
%ADD14RoundRect,0.140000X0.170000X-0.140000X0.170000X0.140000X-0.170000X0.140000X-0.170000X-0.140000X0*%
%TD*%
%TA.AperFunction,SMDPad,CuDef*%
%ADD15RoundRect,0.140000X-0.140000X-0.170000X0.140000X-0.170000X0.140000X0.170000X-0.140000X0.170000X0*%
%TD*%
%TA.AperFunction,SMDPad,CuDef*%
%ADD16RoundRect,0.225000X-0.225000X-0.250000X0.225000X-0.250000X0.225000X0.250000X-0.225000X0.250000X0*%
%TD*%
%TA.AperFunction,SMDPad,CuDef*%
%ADD17RoundRect,0.135000X-0.185000X0.135000X-0.185000X-0.135000X0.185000X-0.135000X0.185000X0.135000X0*%
%TD*%
%TA.AperFunction,SMDPad,CuDef*%
%ADD18RoundRect,0.135000X0.135000X0.185000X-0.135000X0.185000X-0.135000X-0.185000X0.135000X-0.185000X0*%
%TD*%
%TA.AperFunction,SMDPad,CuDef*%
%ADD19R,1.550000X0.600000*%
%TD*%
%TA.AperFunction,SMDPad,CuDef*%
%ADD20RoundRect,0.088500X-0.516500X-0.206500X0.516500X-0.206500X0.516500X0.206500X-0.516500X0.206500X0*%
%TD*%
%TA.AperFunction,SMDPad,CuDef*%
%ADD21RoundRect,0.150000X0.825000X0.150000X-0.825000X0.150000X-0.825000X-0.150000X0.825000X-0.150000X0*%
%TD*%
%TA.AperFunction,ComponentPad*%
%ADD22C,1.268000*%
%TD*%
%TA.AperFunction,ComponentPad*%
%ADD23R,1.268000X1.268000*%
%TD*%
%TA.AperFunction,ViaPad*%
%ADD24C,0.800000*%
%TD*%
%TA.AperFunction,Conductor*%
%ADD25C,0.250000*%
%TD*%
%TA.AperFunction,Conductor*%
%ADD26C,0.500000*%
%TD*%
G04 APERTURE END LIST*
D10*
%TO.P,C2,2*%
%TO.N,+5V*%
X223785000Y-136159167D03*
%TO.P,C2,1*%
%TO.N,GND*%
X224745000Y-136159167D03*
%TD*%
D11*
%TO.P,U5,8,VCC*%
%TO.N,+5V*%
X224650000Y-127834167D03*
%TO.P,U5,7,2OUT*%
%TO.N,unconnected-(U5-Pad7)*%
X224650000Y-126564167D03*
%TO.P,U5,6,2IN-*%
%TO.N,unconnected-(U5-Pad6)*%
X224650000Y-125294167D03*
%TO.P,U5,5,2IN+*%
%TO.N,unconnected-(U5-Pad5)*%
X224650000Y-124024167D03*
%TO.P,U5,4,GND*%
%TO.N,GND*%
X229590000Y-124024167D03*
%TO.P,U5,3,1IN+*%
%TO.N,Net-(C7-Pad1)*%
X229590000Y-125294167D03*
%TO.P,U5,2,1IN-*%
%TO.N,Net-(C9-Pad2)*%
X229590000Y-126564167D03*
%TO.P,U5,1,1OUT*%
%TO.N,Net-(U5-Pad1)*%
X229590000Y-127834167D03*
%TD*%
D12*
%TO.P,R4,2*%
%TO.N,GND*%
X232555000Y-124019167D03*
%TO.P,R4,1*%
%TO.N,Net-(C7-Pad1)*%
X232555000Y-125039167D03*
%TD*%
D13*
%TO.P,H1,1,1*%
%TO.N,Net-(U2-Pad7)*%
X220880000Y-142114167D03*
%TD*%
D14*
%TO.P,C3,1*%
%TO.N,GND*%
X222725000Y-153299167D03*
%TO.P,C3,2*%
%TO.N,+5V*%
X222725000Y-152339167D03*
%TD*%
D13*
%TO.P,H2,1,1*%
%TO.N,Net-(U3-Pad7)*%
X220880000Y-138134167D03*
%TD*%
%TO.P,H7,1,1*%
%TO.N,+5V*%
X231381112Y-118351389D03*
%TD*%
D12*
%TO.P,R2,2*%
%TO.N,Net-(C5-Pad1)*%
X222715000Y-148349167D03*
%TO.P,R2,1*%
%TO.N,Net-(R1-Pad2)*%
X222715000Y-149369167D03*
%TD*%
D15*
%TO.P,C8,2*%
%TO.N,GND*%
X224745000Y-129329167D03*
%TO.P,C8,1*%
%TO.N,+5V*%
X223785000Y-129329167D03*
%TD*%
D16*
%TO.P,C10,2*%
%TO.N,+5V*%
X230535000Y-120531389D03*
%TO.P,C10,1*%
%TO.N,GND*%
X228985000Y-120531389D03*
%TD*%
D15*
%TO.P,C9,2*%
%TO.N,Net-(C9-Pad2)*%
X230410000Y-136189167D03*
%TO.P,C9,1*%
%TO.N,Net-(C9-Pad1)*%
X229450000Y-136189167D03*
%TD*%
D13*
%TO.P,H9,1,1*%
%TO.N,Net-(U2-Pad4)*%
X222342778Y-118351389D03*
%TD*%
D14*
%TO.P,C5,2*%
%TO.N,GND*%
X222720000Y-146009167D03*
%TO.P,C5,1*%
%TO.N,Net-(C5-Pad1)*%
X222720000Y-146969167D03*
%TD*%
%TO.P,C4,2*%
%TO.N,GND*%
X223930000Y-146019167D03*
%TO.P,C4,1*%
%TO.N,Net-(C4-Pad1)*%
X223930000Y-146979167D03*
%TD*%
D17*
%TO.P,R3,2*%
%TO.N,Net-(C7-Pad1)*%
X233685000Y-125049167D03*
%TO.P,R3,1*%
%TO.N,+5V*%
X233685000Y-124029167D03*
%TD*%
D13*
%TO.P,H10,1,1*%
%TO.N,Net-(U2-Pad4)*%
X223696111Y-115741389D03*
%TD*%
D18*
%TO.P,R5,2*%
%TO.N,Net-(C9-Pad2)*%
X231370000Y-126559167D03*
%TO.P,R5,1*%
%TO.N,+5V*%
X232390000Y-126559167D03*
%TD*%
D13*
%TO.P,H8,1,1*%
%TO.N,+5V*%
X232767778Y-115741389D03*
%TD*%
D19*
%TO.P,U3,8,V+*%
%TO.N,+5V*%
X224405000Y-134692917D03*
%TO.P,U3,7,X*%
%TO.N,Net-(U3-Pad7)*%
X224405000Y-133422917D03*
%TO.P,U3,6,Y*%
%TO.N,Net-(U3-Pad6)*%
X224405000Y-132152917D03*
%TO.P,U3,5,V-*%
%TO.N,GND*%
X224405000Y-130882917D03*
%TO.P,U3,4,IN*%
%TO.N,Net-(U3-Pad4)*%
X229805000Y-130882917D03*
%TO.P,U3,3,GND*%
%TO.N,GND*%
X229805000Y-132152917D03*
%TO.P,U3,2,B*%
X229805000Y-133422917D03*
%TO.P,U3,1,A*%
%TO.N,Net-(C9-Pad1)*%
X229805000Y-134692917D03*
%TD*%
D13*
%TO.P,H3,1,1*%
%TO.N,Net-(U2-Pad6)*%
X220880000Y-134154167D03*
%TD*%
D12*
%TO.P,R1,2*%
%TO.N,Net-(R1-Pad2)*%
X222715000Y-150319167D03*
%TO.P,R1,1*%
%TO.N,+5V*%
X222715000Y-151339167D03*
%TD*%
D13*
%TO.P,H11,1,1*%
%TO.N,Net-(U5-Pad1)*%
X225355556Y-118351389D03*
%TD*%
D20*
%TO.P,U4,5*%
%TO.N,+5V*%
X230025000Y-144629167D03*
%TO.P,U4,4*%
%TO.N,Net-(U3-Pad4)*%
X230025000Y-146529167D03*
%TO.P,U4,3*%
%TO.N,GND*%
X227515000Y-146529167D03*
%TO.P,U4,2*%
%TO.N,Net-(U2-Pad4)*%
X227515000Y-145579167D03*
%TO.P,U4,1*%
%TO.N,unconnected-(U4-Pad1)*%
X227515000Y-144629167D03*
%TD*%
D13*
%TO.P,H6,1,1*%
%TO.N,GND*%
X229693889Y-115741389D03*
%TD*%
D14*
%TO.P,C7,2*%
%TO.N,GND*%
X231435000Y-124039167D03*
%TO.P,C7,1*%
%TO.N,Net-(C7-Pad1)*%
X231435000Y-124999167D03*
%TD*%
D19*
%TO.P,U2,8,V+*%
%TO.N,+5V*%
X224382500Y-141489167D03*
%TO.P,U2,7,X*%
%TO.N,Net-(U2-Pad7)*%
X224382500Y-140219167D03*
%TO.P,U2,6,Y*%
%TO.N,Net-(U2-Pad6)*%
X224382500Y-138949167D03*
%TO.P,U2,5,V-*%
%TO.N,GND*%
X224382500Y-137679167D03*
%TO.P,U2,4,IN*%
%TO.N,Net-(U2-Pad4)*%
X229782500Y-137679167D03*
%TO.P,U2,3,GND*%
%TO.N,GND*%
X229782500Y-138949167D03*
%TO.P,U2,2,B*%
X229782500Y-140219167D03*
%TO.P,U2,1,A*%
%TO.N,Net-(U1-Pad3)*%
X229782500Y-141489167D03*
%TD*%
D14*
%TO.P,C1,2*%
%TO.N,+5V*%
X223920000Y-142939167D03*
%TO.P,C1,1*%
%TO.N,GND*%
X223920000Y-143899167D03*
%TD*%
D21*
%TO.P,U1,8,VCC*%
%TO.N,+5V*%
X224710000Y-152354167D03*
%TO.P,U1,7,DIS*%
%TO.N,Net-(R1-Pad2)*%
X224710000Y-151084167D03*
%TO.P,U1,6,THR*%
%TO.N,Net-(C5-Pad1)*%
X224710000Y-149814167D03*
%TO.P,U1,5,CV*%
%TO.N,Net-(C4-Pad1)*%
X224710000Y-148544167D03*
%TO.P,U1,4,R*%
%TO.N,+5V*%
X229660000Y-148544167D03*
%TO.P,U1,3,Q*%
%TO.N,Net-(U1-Pad3)*%
X229660000Y-149814167D03*
%TO.P,U1,2,TR*%
%TO.N,Net-(C5-Pad1)*%
X229660000Y-151084167D03*
%TO.P,U1,1,GND*%
%TO.N,GND*%
X229660000Y-152354167D03*
%TD*%
D22*
%TO.P,D1,2,A*%
%TO.N,GND*%
X232910000Y-145192167D03*
D23*
%TO.P,D1,1,K*%
%TO.N,Net-(C9-Pad2)*%
X232910000Y-136839167D03*
%TD*%
D13*
%TO.P,H5,1,1*%
%TO.N,GND*%
X228318334Y-118351389D03*
%TD*%
D10*
%TO.P,C6,2*%
%TO.N,+5V*%
X229500000Y-143159167D03*
%TO.P,C6,1*%
%TO.N,GND*%
X230460000Y-143159167D03*
%TD*%
D13*
%TO.P,H4,1,1*%
%TO.N,Net-(U3-Pad6)*%
X220880000Y-130174167D03*
%TD*%
%TO.P,H12,1,1*%
%TO.N,Net-(U5-Pad1)*%
X226720000Y-115741389D03*
%TD*%
D24*
%TO.N,GND*%
X225660000Y-137679167D03*
X227890000Y-120521389D03*
X228050000Y-152349167D03*
X226470000Y-146549167D03*
X231240000Y-143579167D03*
X224730000Y-146029167D03*
X225585000Y-129329167D03*
X223680000Y-153629167D03*
X228440000Y-140229167D03*
X227875000Y-124029167D03*
X225640000Y-136179167D03*
X228570000Y-133559167D03*
X224725000Y-143899167D03*
%TO.N,+5V*%
X233110000Y-126569167D03*
X233380000Y-123519167D03*
X224719655Y-142899679D03*
X225990000Y-152344167D03*
X225720000Y-134684167D03*
X228580000Y-143139167D03*
X231630000Y-148544167D03*
X231500000Y-120551389D03*
X222835000Y-129329167D03*
%TO.N,Net-(U1-Pad3)*%
X231240000Y-141729167D03*
X228130000Y-149714667D03*
%TO.N,Net-(U3-Pad4)*%
X228340000Y-130889167D03*
X229050000Y-146549167D03*
%TO.N,Net-(U2-Pad6)*%
X222017701Y-135971868D03*
X222790000Y-137804167D03*
%TO.N,Net-(U2-Pad4)*%
X226990500Y-138659167D03*
X226190000Y-145029167D03*
%TD*%
D25*
%TO.N,GND*%
X227875000Y-124029167D02*
X229585000Y-124029167D01*
X223680000Y-153629167D02*
X223055000Y-153629167D01*
X228318334Y-119864723D02*
X228985000Y-120531389D01*
X224745000Y-129329167D02*
X224745000Y-130542917D01*
X230820000Y-143159167D02*
X231240000Y-143579167D01*
X228055000Y-152354167D02*
X228050000Y-152349167D01*
X227515000Y-146529167D02*
X226490000Y-146529167D01*
X223055000Y-153629167D02*
X222725000Y-153299167D01*
X229782500Y-140219167D02*
X228450000Y-140219167D01*
X230460000Y-143159167D02*
X230820000Y-143159167D01*
X229660000Y-152354167D02*
X228055000Y-152354167D01*
X229815000Y-133554167D02*
X229815000Y-132284167D01*
X231435000Y-124039167D02*
X229605000Y-124039167D01*
X226490000Y-146529167D02*
X226470000Y-146549167D01*
X224720000Y-146019167D02*
X224730000Y-146029167D01*
X228318334Y-118351389D02*
X228318334Y-119864723D01*
X228570000Y-133559167D02*
X228575000Y-133554167D01*
X224745000Y-136159167D02*
X225620000Y-136159167D01*
X229585000Y-124029167D02*
X229590000Y-124024167D01*
X232910000Y-145192167D02*
X232853000Y-145192167D01*
X227900000Y-120531389D02*
X227890000Y-120521389D01*
X224745000Y-129329167D02*
X225585000Y-129329167D01*
X223930000Y-146019167D02*
X222730000Y-146019167D01*
X223920000Y-143899167D02*
X224725000Y-143899167D01*
X225620000Y-136159167D02*
X225640000Y-136179167D01*
X229693889Y-115741389D02*
X229693889Y-116975834D01*
X231455000Y-124019167D02*
X231435000Y-124039167D01*
X228450000Y-140219167D02*
X228440000Y-140229167D01*
X225660000Y-137679167D02*
X224382500Y-137679167D01*
X224745000Y-130542917D02*
X224405000Y-130882917D01*
X229605000Y-124039167D02*
X229590000Y-124024167D01*
X229782500Y-140179167D02*
X229782500Y-138909167D01*
X223930000Y-146019167D02*
X224720000Y-146019167D01*
X232853000Y-145192167D02*
X231240000Y-143579167D01*
X229693889Y-116975834D02*
X228318334Y-118351389D01*
X228985000Y-120531389D02*
X227900000Y-120531389D01*
X222730000Y-146019167D02*
X222720000Y-146009167D01*
X228575000Y-133554167D02*
X229815000Y-133554167D01*
X232555000Y-124019167D02*
X231455000Y-124019167D01*
D26*
%TO.N,+5V*%
X232105556Y-117626945D02*
X231381112Y-118351389D01*
X232767778Y-115741389D02*
X232767778Y-116964723D01*
X222835000Y-129329167D02*
X223785000Y-129329167D01*
X232767778Y-116964723D02*
X232105556Y-117626945D01*
D25*
X231480000Y-120531389D02*
X231500000Y-120551389D01*
D26*
X229660000Y-148544167D02*
X231350000Y-148544167D01*
D25*
X231350000Y-148544167D02*
X231370000Y-148564167D01*
X228600000Y-143159167D02*
X228580000Y-143139167D01*
X224680167Y-142939167D02*
X224719655Y-142899679D01*
D26*
X229500000Y-144104167D02*
X230025000Y-144629167D01*
X224710000Y-152354167D02*
X222740000Y-152354167D01*
D25*
X222715000Y-152329167D02*
X222725000Y-152339167D01*
X225980000Y-152354167D02*
X225990000Y-152344167D01*
D26*
X230535000Y-120531389D02*
X231480000Y-120531389D01*
X229500000Y-143159167D02*
X228600000Y-143159167D01*
X223920000Y-142939167D02*
X224680167Y-142939167D01*
X233685000Y-123824167D02*
X233685000Y-124029167D01*
X224405000Y-134692917D02*
X225711250Y-134692917D01*
X233100000Y-126559167D02*
X232390000Y-126559167D01*
X223920000Y-141951667D02*
X224382500Y-141489167D01*
X233110000Y-126569167D02*
X233100000Y-126559167D01*
X233380000Y-123519167D02*
X233685000Y-123824167D01*
D25*
X225711250Y-134692917D02*
X225720000Y-134684167D01*
X222715000Y-151339167D02*
X222715000Y-152329167D01*
D26*
X232105556Y-117626945D02*
X230535000Y-119197501D01*
X223785000Y-128699167D02*
X223785000Y-129329167D01*
D25*
X231350000Y-148544167D02*
X231630000Y-148544167D01*
D26*
X223785000Y-135312917D02*
X223785000Y-136159167D01*
X230535000Y-119197501D02*
X230535000Y-120531389D01*
X224710000Y-152354167D02*
X225980000Y-152354167D01*
X224650000Y-127834167D02*
X223785000Y-128699167D01*
X229500000Y-143159167D02*
X229500000Y-144104167D01*
X223920000Y-142939167D02*
X223920000Y-141951667D01*
D25*
X222740000Y-152354167D02*
X222725000Y-152339167D01*
D26*
X224405000Y-134692917D02*
X223785000Y-135312917D01*
D25*
%TO.N,Net-(C4-Pad1)*%
X223930000Y-146979167D02*
X223930000Y-147764167D01*
X223930000Y-147764167D02*
X224710000Y-148544167D01*
%TO.N,Net-(C5-Pad1)*%
X222715000Y-148349167D02*
X224180000Y-149814167D01*
X229660000Y-151084167D02*
X229015000Y-150439167D01*
X225335000Y-150439167D02*
X224710000Y-149814167D01*
X229015000Y-150439167D02*
X225335000Y-150439167D01*
X222720000Y-148344167D02*
X222715000Y-148349167D01*
X224180000Y-149814167D02*
X224710000Y-149814167D01*
X222720000Y-146969167D02*
X222720000Y-148344167D01*
%TO.N,Net-(C7-Pad1)*%
X232565000Y-125049167D02*
X232555000Y-125039167D01*
X231475000Y-125039167D02*
X231435000Y-124999167D01*
X231435000Y-124999167D02*
X231155000Y-125279167D01*
X231155000Y-125279167D02*
X229605000Y-125279167D01*
X229605000Y-125279167D02*
X229590000Y-125294167D01*
X232555000Y-125039167D02*
X231475000Y-125039167D01*
X233685000Y-125049167D02*
X232565000Y-125049167D01*
%TO.N,Net-(R1-Pad2)*%
X224710000Y-151084167D02*
X223480000Y-151084167D01*
X222715000Y-149369167D02*
X222715000Y-150319167D01*
X223480000Y-151084167D02*
X222715000Y-150319167D01*
%TO.N,Net-(U1-Pad3)*%
X229782500Y-141489167D02*
X231000000Y-141489167D01*
X228130000Y-149714667D02*
X229560500Y-149714667D01*
X231000000Y-141489167D02*
X231240000Y-141729167D01*
%TO.N,Net-(U3-Pad4)*%
X228340000Y-130889167D02*
X229798750Y-130889167D01*
X229070000Y-146529167D02*
X229050000Y-146549167D01*
X230025000Y-146529167D02*
X229070000Y-146529167D01*
%TO.N,Net-(C9-Pad1)*%
X229450000Y-135047917D02*
X229805000Y-134692917D01*
X229450000Y-136189167D02*
X229450000Y-135047917D01*
%TO.N,Net-(C9-Pad2)*%
X231370000Y-126559167D02*
X229595000Y-126559167D01*
X232910000Y-136839167D02*
X231370000Y-135299167D01*
X231370000Y-135299167D02*
X231370000Y-134969167D01*
X229595000Y-126559167D02*
X229590000Y-126564167D01*
X231370000Y-135229167D02*
X231370000Y-134969167D01*
X231370000Y-134969167D02*
X231370000Y-126559167D01*
X230410000Y-136189167D02*
X231370000Y-135229167D01*
%TO.N,Net-(U2-Pad7)*%
X222775000Y-140219167D02*
X224382500Y-140219167D01*
X220880000Y-142114167D02*
X222775000Y-140219167D01*
%TO.N,Net-(U3-Pad7)*%
X224041250Y-133422917D02*
X224405000Y-133422917D01*
X220880000Y-138134167D02*
X222770000Y-136244167D01*
X222770000Y-135684167D02*
X222770000Y-134694167D01*
X222770000Y-136244167D02*
X222770000Y-135684167D01*
X222770000Y-134694167D02*
X224041250Y-133422917D01*
%TO.N,Net-(U2-Pad6)*%
X220880000Y-134154167D02*
X220880000Y-134834167D01*
X220880000Y-134834167D02*
X222017701Y-135971868D01*
X222790000Y-137804167D02*
X223935000Y-138949167D01*
%TO.N,Net-(U3-Pad6)*%
X222858750Y-132152917D02*
X224405000Y-132152917D01*
X220880000Y-130174167D02*
X222858750Y-132152917D01*
%TO.N,Net-(U2-Pad4)*%
X222342778Y-118351389D02*
X226615556Y-122624167D01*
X226615556Y-122624167D02*
X226615556Y-138284223D01*
X228100500Y-137679167D02*
X227970500Y-137679167D01*
X226615556Y-138284223D02*
X226990500Y-138659167D01*
X223696111Y-115741389D02*
X223696111Y-116998056D01*
X226190000Y-145029167D02*
X226740000Y-145579167D01*
X226740000Y-145579167D02*
X227515000Y-145579167D01*
X223696111Y-116998056D02*
X222342778Y-118351389D01*
X227970500Y-137679167D02*
X226990500Y-138659167D01*
X229782500Y-137679167D02*
X228100500Y-137679167D01*
%TO.N,Net-(U5-Pad1)*%
X226720000Y-115741389D02*
X226720000Y-116986945D01*
X227150000Y-127114167D02*
X227150000Y-120145833D01*
X226720000Y-116986945D02*
X225355556Y-118351389D01*
X229590000Y-127834167D02*
X227870000Y-127834167D01*
X227870000Y-127834167D02*
X227150000Y-127114167D01*
X227150000Y-120145833D02*
X225355556Y-118351389D01*
%TD*%
M02*
