%TF.GenerationSoftware,KiCad,Pcbnew,(6.0.7)*%
%TF.CreationDate,2023-02-07T15:13:14-05:00*%
%TF.ProjectId,DCA_USMR_Sens,4443415f-5553-44d5-925f-53656e732e6b,v1.1*%
%TF.SameCoordinates,Original*%
%TF.FileFunction,Other,User*%
%FSLAX46Y46*%
G04 Gerber Fmt 4.6, Leading zero omitted, Abs format (unit mm)*
G04 Created by KiCad (PCBNEW (6.0.7)) date 2023-02-07 15:13:14*
%MOMM*%
%LPD*%
G01*
G04 APERTURE LIST*
%ADD10C,0.050000*%
G04 APERTURE END LIST*
D10*
%TO.C,C2*%
X223355000Y-136619167D02*
X223355000Y-135699167D01*
X223355000Y-135699167D02*
X225175000Y-135699167D01*
X225175000Y-135699167D02*
X225175000Y-136619167D01*
X225175000Y-136619167D02*
X223355000Y-136619167D01*
%TO.C,U5*%
X230825000Y-123226667D02*
X223415000Y-123226667D01*
X230825000Y-128631667D02*
X223415000Y-128631667D01*
X230825000Y-128631667D02*
X230825000Y-123226667D01*
X223415000Y-128631667D02*
X223415000Y-123226667D01*
%TO.C,R4*%
X233025000Y-123599167D02*
X233025000Y-125459167D01*
X232085000Y-125459167D02*
X232085000Y-123599167D01*
X232085000Y-123599167D02*
X233025000Y-123599167D01*
X233025000Y-125459167D02*
X232085000Y-125459167D01*
%TO.C,H1*%
X222230000Y-143314167D02*
X219480000Y-143314167D01*
X222230000Y-143314167D02*
X222230000Y-140914167D01*
X219480000Y-140914167D02*
X222230000Y-140914167D01*
X219480000Y-140914167D02*
X219480000Y-143314167D01*
%TO.C,C3*%
X223185000Y-151909167D02*
X223185000Y-153729167D01*
X222265000Y-153729167D02*
X222265000Y-151909167D01*
X222265000Y-151909167D02*
X223185000Y-151909167D01*
X223185000Y-153729167D02*
X222265000Y-153729167D01*
%TO.C,H2*%
X222230000Y-139334167D02*
X219480000Y-139334167D01*
X219480000Y-136934167D02*
X219480000Y-139334167D01*
X219480000Y-136934167D02*
X222230000Y-136934167D01*
X222230000Y-139334167D02*
X222230000Y-136934167D01*
%TO.C,H7*%
X229981112Y-117151389D02*
X232731112Y-117151389D01*
X232731112Y-119551389D02*
X232731112Y-117151389D01*
X229981112Y-117151389D02*
X229981112Y-119551389D01*
X232731112Y-119551389D02*
X229981112Y-119551389D01*
%TO.C,R2*%
X223185000Y-149789167D02*
X222245000Y-149789167D01*
X223185000Y-147929167D02*
X223185000Y-149789167D01*
X222245000Y-149789167D02*
X222245000Y-147929167D01*
X222245000Y-147929167D02*
X223185000Y-147929167D01*
%TO.C,C8*%
X225175000Y-128869167D02*
X225175000Y-129789167D01*
X223355000Y-128869167D02*
X225175000Y-128869167D01*
X225175000Y-129789167D02*
X223355000Y-129789167D01*
X223355000Y-129789167D02*
X223355000Y-128869167D01*
%TO.C,C10*%
X231240000Y-121261389D02*
X228280000Y-121261389D01*
X231240000Y-119801389D02*
X231240000Y-121261389D01*
X228280000Y-121261389D02*
X228280000Y-119801389D01*
X228280000Y-119801389D02*
X231240000Y-119801389D01*
%TO.C,C9*%
X230840000Y-136649167D02*
X229020000Y-136649167D01*
X229020000Y-135729167D02*
X230840000Y-135729167D01*
X230840000Y-135729167D02*
X230840000Y-136649167D01*
X229020000Y-136649167D02*
X229020000Y-135729167D01*
%TO.C,H9*%
X223692778Y-119551389D02*
X220942778Y-119551389D01*
X220942778Y-117151389D02*
X220942778Y-119551389D01*
X220942778Y-117151389D02*
X223692778Y-117151389D01*
X223692778Y-119551389D02*
X223692778Y-117151389D01*
%TO.C,C5*%
X222260000Y-147399167D02*
X222260000Y-145579167D01*
X222260000Y-145579167D02*
X223180000Y-145579167D01*
X223180000Y-145579167D02*
X223180000Y-147399167D01*
X223180000Y-147399167D02*
X222260000Y-147399167D01*
%TO.C,C4*%
X223470000Y-147409167D02*
X223470000Y-145589167D01*
X223470000Y-145589167D02*
X224390000Y-145589167D01*
X224390000Y-147409167D02*
X223470000Y-147409167D01*
X224390000Y-145589167D02*
X224390000Y-147409167D01*
%TO.C,R3*%
X234155000Y-125469167D02*
X233215000Y-125469167D01*
X233215000Y-123609167D02*
X234155000Y-123609167D01*
X234155000Y-123609167D02*
X234155000Y-125469167D01*
X233215000Y-125469167D02*
X233215000Y-123609167D01*
%TO.C,H10*%
X222296111Y-114541389D02*
X225046111Y-114541389D01*
X225046111Y-116941389D02*
X222296111Y-116941389D01*
X225046111Y-116941389D02*
X225046111Y-114541389D01*
X222296111Y-114541389D02*
X222296111Y-116941389D01*
%TO.C,R5*%
X232810000Y-126089167D02*
X232810000Y-127029167D01*
X230950000Y-127029167D02*
X230950000Y-126089167D01*
X232810000Y-127029167D02*
X230950000Y-127029167D01*
X230950000Y-126089167D02*
X232810000Y-126089167D01*
%TO.C,H8*%
X231367778Y-114541389D02*
X231367778Y-116941389D01*
X234117778Y-116941389D02*
X234117778Y-114541389D01*
X234117778Y-116941389D02*
X231367778Y-116941389D01*
X231367778Y-114541389D02*
X234117778Y-114541389D01*
%TO.C,U3*%
X223355000Y-130037917D02*
X230855000Y-130037917D01*
X230855000Y-135537917D02*
X223355000Y-135537917D01*
X223355000Y-135537917D02*
X223355000Y-130037917D01*
X230855000Y-130037917D02*
X230855000Y-135537917D01*
%TO.C,H3*%
X222230000Y-135354167D02*
X219480000Y-135354167D01*
X219480000Y-132954167D02*
X222230000Y-132954167D01*
X222230000Y-135354167D02*
X222230000Y-132954167D01*
X219480000Y-132954167D02*
X219480000Y-135354167D01*
%TO.C,R1*%
X223185000Y-151759167D02*
X222245000Y-151759167D01*
X222245000Y-151759167D02*
X222245000Y-149899167D01*
X223185000Y-149899167D02*
X223185000Y-151759167D01*
X222245000Y-149899167D02*
X223185000Y-149899167D01*
%TO.C,H11*%
X223955556Y-117151389D02*
X226705556Y-117151389D01*
X226705556Y-119551389D02*
X223955556Y-119551389D01*
X226705556Y-119551389D02*
X226705556Y-117151389D01*
X223955556Y-117151389D02*
X223955556Y-119551389D01*
%TO.C,U4*%
X226660000Y-143879167D02*
X230880000Y-143879167D01*
X230880000Y-147279167D02*
X226660000Y-147279167D01*
X230880000Y-143879167D02*
X230880000Y-147279167D01*
X226660000Y-147279167D02*
X226660000Y-143879167D01*
%TO.C,H6*%
X231093889Y-116941389D02*
X231093889Y-114541389D01*
X228343889Y-114541389D02*
X231093889Y-114541389D01*
X231093889Y-116941389D02*
X228343889Y-116941389D01*
X228343889Y-114541389D02*
X228343889Y-116941389D01*
%TO.C,C7*%
X230975000Y-125429167D02*
X230975000Y-123609167D01*
X230975000Y-123609167D02*
X231895000Y-123609167D01*
X231895000Y-123609167D02*
X231895000Y-125429167D01*
X231895000Y-125429167D02*
X230975000Y-125429167D01*
%TO.C,U2*%
X230832500Y-136834167D02*
X230832500Y-142334167D01*
X223332500Y-136834167D02*
X230832500Y-136834167D01*
X223332500Y-142334167D02*
X223332500Y-136834167D01*
X230832500Y-142334167D02*
X223332500Y-142334167D01*
%TO.C,C1*%
X224380000Y-144329167D02*
X223460000Y-144329167D01*
X223460000Y-142509167D02*
X224380000Y-142509167D01*
X224380000Y-142509167D02*
X224380000Y-144329167D01*
X223460000Y-144329167D02*
X223460000Y-142509167D01*
%TO.C,U1*%
X223485000Y-147749167D02*
X223485000Y-153149167D01*
X223485000Y-153149167D02*
X230885000Y-153149167D01*
X230885000Y-147749167D02*
X223485000Y-147749167D01*
X230885000Y-153149167D02*
X230885000Y-147749167D01*
%TO.C,D1*%
X232080000Y-146025667D02*
X232080000Y-143485667D01*
X232080000Y-136005667D02*
X233740000Y-136005667D01*
X233740000Y-143485667D02*
X233740000Y-146025667D01*
X233740000Y-138545667D02*
X234180000Y-138545667D01*
X233740000Y-136005667D02*
X233740000Y-138545667D01*
X232080000Y-138545667D02*
X232080000Y-136005667D01*
X232080000Y-143485667D02*
X231640000Y-143485667D01*
X234180000Y-138545667D02*
X234180000Y-143485667D01*
X233740000Y-146025667D02*
X232080000Y-146025667D01*
X234180000Y-143485667D02*
X233740000Y-143485667D01*
X231640000Y-143485667D02*
X231640000Y-138545667D01*
X231640000Y-138545667D02*
X232080000Y-138545667D01*
%TO.C,H5*%
X226968334Y-117151389D02*
X226968334Y-119551389D01*
X226968334Y-117151389D02*
X229718334Y-117151389D01*
X229718334Y-119551389D02*
X226968334Y-119551389D01*
X229718334Y-119551389D02*
X229718334Y-117151389D01*
%TO.C,C6*%
X230890000Y-143619167D02*
X229070000Y-143619167D01*
X229070000Y-142699167D02*
X230890000Y-142699167D01*
X229070000Y-143619167D02*
X229070000Y-142699167D01*
X230890000Y-142699167D02*
X230890000Y-143619167D01*
%TO.C,H4*%
X222230000Y-131374167D02*
X222230000Y-128974167D01*
X222230000Y-131374167D02*
X219480000Y-131374167D01*
X219480000Y-128974167D02*
X219480000Y-131374167D01*
X219480000Y-128974167D02*
X222230000Y-128974167D01*
%TO.C,H12*%
X228070000Y-116941389D02*
X228070000Y-114541389D01*
X225320000Y-114541389D02*
X228070000Y-114541389D01*
X225320000Y-114541389D02*
X225320000Y-116941389D01*
X228070000Y-116941389D02*
X225320000Y-116941389D01*
%TD*%
M02*
