%TF.GenerationSoftware,KiCad,Pcbnew,(6.0.7)*%
%TF.CreationDate,2023-02-07T15:13:14-05:00*%
%TF.ProjectId,DCA_USMR_Sens,4443415f-5553-44d5-925f-53656e732e6b,v1.1*%
%TF.SameCoordinates,Original*%
%TF.FileFunction,Copper,L4,Bot*%
%TF.FilePolarity,Positive*%
%FSLAX46Y46*%
G04 Gerber Fmt 4.6, Leading zero omitted, Abs format (unit mm)*
G04 Created by KiCad (PCBNEW (6.0.7)) date 2023-02-07 15:13:14*
%MOMM*%
%LPD*%
G01*
G04 APERTURE LIST*
%TA.AperFunction,ComponentPad*%
%ADD10C,1.400000*%
%TD*%
%TA.AperFunction,ComponentPad*%
%ADD11C,1.268000*%
%TD*%
%TA.AperFunction,ComponentPad*%
%ADD12R,1.268000X1.268000*%
%TD*%
%TA.AperFunction,ViaPad*%
%ADD13C,0.800000*%
%TD*%
%TA.AperFunction,Conductor*%
%ADD14C,0.250000*%
%TD*%
G04 APERTURE END LIST*
D10*
%TO.P,H1,1,1*%
%TO.N,Net-(U2-Pad7)*%
X220880000Y-142114167D03*
%TD*%
%TO.P,H2,1,1*%
%TO.N,Net-(U3-Pad7)*%
X220880000Y-138134167D03*
%TD*%
%TO.P,H7,1,1*%
%TO.N,+5V*%
X231381112Y-118351389D03*
%TD*%
%TO.P,H9,1,1*%
%TO.N,Net-(U2-Pad4)*%
X222342778Y-118351389D03*
%TD*%
%TO.P,H10,1,1*%
%TO.N,Net-(U2-Pad4)*%
X223696111Y-115741389D03*
%TD*%
%TO.P,H8,1,1*%
%TO.N,+5V*%
X232767778Y-115741389D03*
%TD*%
%TO.P,H3,1,1*%
%TO.N,Net-(U2-Pad6)*%
X220880000Y-134154167D03*
%TD*%
%TO.P,H11,1,1*%
%TO.N,Net-(U5-Pad1)*%
X225355556Y-118351389D03*
%TD*%
%TO.P,H6,1,1*%
%TO.N,GND*%
X229693889Y-115741389D03*
%TD*%
D11*
%TO.P,D1,2,A*%
%TO.N,GND*%
X232910000Y-145192167D03*
D12*
%TO.P,D1,1,K*%
%TO.N,Net-(C9-Pad2)*%
X232910000Y-136839167D03*
%TD*%
D10*
%TO.P,H5,1,1*%
%TO.N,GND*%
X228318334Y-118351389D03*
%TD*%
%TO.P,H4,1,1*%
%TO.N,Net-(U3-Pad6)*%
X220880000Y-130174167D03*
%TD*%
%TO.P,H12,1,1*%
%TO.N,Net-(U5-Pad1)*%
X226720000Y-115741389D03*
%TD*%
D13*
%TO.N,GND*%
X225660000Y-137679167D03*
X227890000Y-120521389D03*
X228050000Y-152349167D03*
X226470000Y-146549167D03*
X231240000Y-143579167D03*
X224730000Y-146029167D03*
X225585000Y-129329167D03*
X223680000Y-153629167D03*
X228440000Y-140229167D03*
X227875000Y-124029167D03*
X225640000Y-136179167D03*
X228570000Y-133559167D03*
X224725000Y-143899167D03*
%TO.N,+5V*%
X233110000Y-126569167D03*
X233380000Y-123519167D03*
X224719655Y-142899679D03*
X225990000Y-152344167D03*
X225720000Y-134684167D03*
X228580000Y-143139167D03*
X231630000Y-148544167D03*
X231500000Y-120551389D03*
X222835000Y-129329167D03*
%TO.N,Net-(U1-Pad3)*%
X231240000Y-141729167D03*
X228130000Y-149714667D03*
%TO.N,Net-(U3-Pad4)*%
X228340000Y-130889167D03*
X229050000Y-146549167D03*
%TO.N,Net-(U2-Pad6)*%
X222017701Y-135971868D03*
X222790000Y-137804167D03*
%TO.N,Net-(U2-Pad4)*%
X226990500Y-138659167D03*
X226190000Y-145029167D03*
%TD*%
D14*
%TO.N,Net-(U1-Pad3)*%
X229780000Y-148064667D02*
X229780000Y-143189167D01*
X228130000Y-149714667D02*
X229780000Y-148064667D01*
X229780000Y-143189167D02*
X231240000Y-141729167D01*
%TO.N,Net-(U3-Pad4)*%
X229050000Y-146549167D02*
X227715000Y-145214167D01*
X227715000Y-131514167D02*
X228340000Y-130889167D01*
X227715000Y-145214167D02*
X227715000Y-131514167D01*
%TO.N,Net-(U2-Pad6)*%
X222017701Y-135971868D02*
X222017701Y-137031868D01*
X222017701Y-137031868D02*
X222790000Y-137804167D01*
%TO.N,Net-(U2-Pad4)*%
X226190000Y-139459667D02*
X226190000Y-145029167D01*
X226990500Y-138659167D02*
X226190000Y-139459667D01*
%TD*%
M02*
