%TF.GenerationSoftware,KiCad,Pcbnew,(6.0.7)*%
%TF.CreationDate,2023-02-07T15:13:12-05:00*%
%TF.ProjectId,DCA_USMR_Sens,4443415f-5553-44d5-925f-53656e732e6b,v1.1*%
%TF.SameCoordinates,Original*%
%TF.FileFunction,Drillmap*%
%TF.FilePolarity,Positive*%
%FSLAX45Y45*%
G04 Gerber Fmt 4.5, Leading zero omitted, Abs format (unit mm)*
G04 Created by KiCad (PCBNEW (6.0.7)) date 2023-02-07 15:13:12*
%MOMM*%
%LPD*%
G01*
G04 APERTURE LIST*
%ADD10C,0.200000*%
G04 APERTURE END LIST*
D10*
X23745000Y-9653000D02*
X23243000Y-9653000D01*
X23245000Y-10495000D01*
X23755000Y-10497815D01*
X23744000Y-15499000D01*
X21744573Y-15499000D01*
X21755000Y-10503000D01*
X22245000Y-10503000D01*
X22245000Y-9653000D01*
X21735000Y-9653000D01*
X21735000Y-9423000D01*
X23745000Y-9423000D01*
X23745000Y-9653000D01*
X21982619Y-15819476D02*
X21982619Y-15619476D01*
X22030238Y-15619476D01*
X22058810Y-15629000D01*
X22077857Y-15648048D01*
X22087381Y-15667095D01*
X22096905Y-15705190D01*
X22096905Y-15733762D01*
X22087381Y-15771857D01*
X22077857Y-15790905D01*
X22058810Y-15809952D01*
X22030238Y-15819476D01*
X21982619Y-15819476D01*
X22182619Y-15819476D02*
X22182619Y-15686143D01*
X22182619Y-15724238D02*
X22192143Y-15705190D01*
X22201667Y-15695667D01*
X22220714Y-15686143D01*
X22239762Y-15686143D01*
X22306429Y-15819476D02*
X22306429Y-15686143D01*
X22306429Y-15619476D02*
X22296905Y-15629000D01*
X22306429Y-15638524D01*
X22315952Y-15629000D01*
X22306429Y-15619476D01*
X22306429Y-15638524D01*
X22430238Y-15819476D02*
X22411190Y-15809952D01*
X22401667Y-15790905D01*
X22401667Y-15619476D01*
X22535000Y-15819476D02*
X22515952Y-15809952D01*
X22506428Y-15790905D01*
X22506428Y-15619476D01*
X22763571Y-15819476D02*
X22763571Y-15619476D01*
X22830238Y-15762333D01*
X22896905Y-15619476D01*
X22896905Y-15819476D01*
X23077857Y-15819476D02*
X23077857Y-15714714D01*
X23068333Y-15695667D01*
X23049286Y-15686143D01*
X23011190Y-15686143D01*
X22992143Y-15695667D01*
X23077857Y-15809952D02*
X23058809Y-15819476D01*
X23011190Y-15819476D01*
X22992143Y-15809952D01*
X22982619Y-15790905D01*
X22982619Y-15771857D01*
X22992143Y-15752809D01*
X23011190Y-15743286D01*
X23058809Y-15743286D01*
X23077857Y-15733762D01*
X23173095Y-15686143D02*
X23173095Y-15886143D01*
X23173095Y-15695667D02*
X23192143Y-15686143D01*
X23230238Y-15686143D01*
X23249286Y-15695667D01*
X23258809Y-15705190D01*
X23268333Y-15724238D01*
X23268333Y-15781381D01*
X23258809Y-15800428D01*
X23249286Y-15809952D01*
X23230238Y-15819476D01*
X23192143Y-15819476D01*
X23173095Y-15809952D01*
X23354048Y-15800428D02*
X23363571Y-15809952D01*
X23354048Y-15819476D01*
X23344524Y-15809952D01*
X23354048Y-15800428D01*
X23354048Y-15819476D01*
X23354048Y-15695667D02*
X23363571Y-15705190D01*
X23354048Y-15714714D01*
X23344524Y-15705190D01*
X23354048Y-15695667D01*
X23354048Y-15714714D01*
M02*
