M48
; DRILL file {KiCad (6.0.7)} date Tue Feb  7 15:13:11 2023
; FORMAT={-:-/ absolute / inch / decimal}
; #@! TF.CreationDate,2023-02-07T15:13:11-05:00
; #@! TF.GenerationSoftware,Kicad,Pcbnew,(6.0.7)
; #@! TF.FileFunction,Plated,1,4,PTH
FMAT,2
INCH
; #@! TA.AperFunction,Plated,PTH,ViaDrill
T1C0.0157
; #@! TA.AperFunction,Plated,PTH,ViaDrill
T2C0.0197
; #@! TA.AperFunction,Plated,PTH,ComponentDrill
T3C0.0276
; #@! TA.AperFunction,Plated,PTH,ComponentDrill
T4C0.0299
%
G90
G05
T1
X8.7409Y-5.3532
X8.7713Y-5.4254
X8.8063Y-6.0484
X8.8472Y-5.626
X8.8474Y-5.6653
X8.8476Y-5.7492
X8.8813Y-5.0917
X8.8835Y-5.3614
X8.8843Y-5.4204
X8.8866Y-5.3025
X8.8972Y-5.9978
X8.9051Y-5.7098
X8.9161Y-5.7697
X8.9366Y-5.459
X8.9715Y-4.883
X8.972Y-4.7449
X8.9783Y-5.998
X8.9815Y-5.8943
X8.9898Y-5.1531
X8.9937Y-5.5208
X8.9988Y-5.2582
X8.9992Y-5.6354
X9.0177Y-5.7697
X9.1039Y-5.5799
X9.1039Y-5.6527
X9.1142Y-4.7461
X9.1193Y-5.8482
T2
X8.773Y-5.0917
X9.1776Y-4.983
X9.1882Y-4.863
T3
X8.6961Y-5.125
X8.6961Y-5.2817
X8.6961Y-5.4384
X8.6961Y-5.595
X8.7537Y-4.6595
X8.8069Y-4.5567
X8.8723Y-4.6595
X8.926Y-4.5567
X8.9889Y-4.6595
X9.0431Y-4.5567
X9.1095Y-4.6595
X9.1641Y-4.5567
T4
X9.1697Y-5.3874
X9.1697Y-5.7162
T0
M30
