%TF.GenerationSoftware,KiCad,Pcbnew,(6.0.7)*%
%TF.CreationDate,2023-02-07T15:13:14-05:00*%
%TF.ProjectId,DCA_USMR_Sens,4443415f-5553-44d5-925f-53656e732e6b,v1.1*%
%TF.SameCoordinates,Original*%
%TF.FileFunction,Copper,L2,Inr*%
%TF.FilePolarity,Positive*%
%FSLAX46Y46*%
G04 Gerber Fmt 4.6, Leading zero omitted, Abs format (unit mm)*
G04 Created by KiCad (PCBNEW (6.0.7)) date 2023-02-07 15:13:14*
%MOMM*%
%LPD*%
G01*
G04 APERTURE LIST*
%TA.AperFunction,ComponentPad*%
%ADD10C,1.400000*%
%TD*%
%TA.AperFunction,ComponentPad*%
%ADD11C,1.268000*%
%TD*%
%TA.AperFunction,ComponentPad*%
%ADD12R,1.268000X1.268000*%
%TD*%
%TA.AperFunction,ViaPad*%
%ADD13C,0.800000*%
%TD*%
G04 APERTURE END LIST*
D10*
%TO.N,Net-(U2-Pad7)*%
%TO.C,H1*%
X220880000Y-142114167D03*
%TD*%
%TO.N,Net-(U3-Pad7)*%
%TO.C,H2*%
X220880000Y-138134167D03*
%TD*%
%TO.N,+5V*%
%TO.C,H7*%
X231381112Y-118351389D03*
%TD*%
%TO.N,Net-(U2-Pad4)*%
%TO.C,H9*%
X222342778Y-118351389D03*
%TD*%
%TO.N,Net-(U2-Pad4)*%
%TO.C,H10*%
X223696111Y-115741389D03*
%TD*%
%TO.N,+5V*%
%TO.C,H8*%
X232767778Y-115741389D03*
%TD*%
%TO.N,Net-(U2-Pad6)*%
%TO.C,H3*%
X220880000Y-134154167D03*
%TD*%
%TO.N,Net-(U5-Pad1)*%
%TO.C,H11*%
X225355556Y-118351389D03*
%TD*%
%TO.N,GND*%
%TO.C,H6*%
X229693889Y-115741389D03*
%TD*%
D11*
%TO.N,GND*%
%TO.C,D1*%
X232910000Y-145192167D03*
D12*
%TO.N,Net-(C9-Pad2)*%
X232910000Y-136839167D03*
%TD*%
D10*
%TO.N,GND*%
%TO.C,H5*%
X228318334Y-118351389D03*
%TD*%
%TO.N,Net-(U3-Pad6)*%
%TO.C,H4*%
X220880000Y-130174167D03*
%TD*%
%TO.N,Net-(U5-Pad1)*%
%TO.C,H12*%
X226720000Y-115741389D03*
%TD*%
D13*
%TO.N,GND*%
X225660000Y-137679167D03*
X227890000Y-120521389D03*
X228050000Y-152349167D03*
X226470000Y-146549167D03*
X231240000Y-143579167D03*
X224730000Y-146029167D03*
X225585000Y-129329167D03*
X223680000Y-153629167D03*
X228440000Y-140229167D03*
X227875000Y-124029167D03*
X225640000Y-136179167D03*
X228570000Y-133559167D03*
X224725000Y-143899167D03*
%TO.N,+5V*%
X233110000Y-126569167D03*
X233380000Y-123519167D03*
X224719655Y-142899679D03*
X225990000Y-152344167D03*
X225720000Y-134684167D03*
X228580000Y-143139167D03*
X231630000Y-148544167D03*
X231500000Y-120551389D03*
X222835000Y-129329167D03*
%TO.N,Net-(U1-Pad3)*%
X231240000Y-141729167D03*
X228130000Y-149714667D03*
%TO.N,Net-(U3-Pad4)*%
X228340000Y-130889167D03*
X229050000Y-146549167D03*
%TO.N,Net-(U2-Pad6)*%
X222017701Y-135971868D03*
X222790000Y-137804167D03*
%TO.N,Net-(U2-Pad4)*%
X226990500Y-138659167D03*
X226190000Y-145029167D03*
%TD*%
%TA.AperFunction,Conductor*%
%TO.N,GND*%
G36*
X231885747Y-104932156D02*
G01*
X231932247Y-104985806D01*
X231940668Y-105015135D01*
X231940647Y-105016911D01*
X231949293Y-105047805D01*
X231952639Y-105063601D01*
X231957264Y-105095358D01*
X231960999Y-105103521D01*
X231966897Y-105116411D01*
X231973660Y-105134880D01*
X231979900Y-105157180D01*
X231996880Y-105184423D01*
X232004518Y-105198634D01*
X232017867Y-105227809D01*
X232033023Y-105245314D01*
X232044691Y-105261136D01*
X232052191Y-105273169D01*
X232052193Y-105273172D01*
X232056944Y-105280794D01*
X232080879Y-105302169D01*
X232092203Y-105313669D01*
X232096631Y-105318783D01*
X232113207Y-105337928D01*
X232132676Y-105350482D01*
X232148318Y-105362394D01*
X232165586Y-105377815D01*
X232173687Y-105381673D01*
X232173690Y-105381675D01*
X232194543Y-105391606D01*
X232208650Y-105399471D01*
X232228073Y-105411996D01*
X232228081Y-105412000D01*
X232235623Y-105416863D01*
X232244230Y-105419415D01*
X232244235Y-105419417D01*
X232257832Y-105423448D01*
X232276192Y-105430492D01*
X232285490Y-105434920D01*
X232297091Y-105440445D01*
X232305953Y-105441875D01*
X232305956Y-105441876D01*
X232322606Y-105444562D01*
X232328769Y-105445557D01*
X232344511Y-105449145D01*
X232375273Y-105458265D01*
X232470170Y-105458619D01*
X236292093Y-105479712D01*
X236914805Y-105483149D01*
X236982815Y-105503527D01*
X237029011Y-105557438D01*
X237040110Y-105609423D01*
X236986588Y-129943338D01*
X236986588Y-129943341D01*
X236935405Y-153214333D01*
X236932894Y-154355777D01*
X236912742Y-154423854D01*
X236858984Y-154470228D01*
X236806894Y-154481500D01*
X218081555Y-154481500D01*
X218013434Y-154461498D01*
X217966941Y-154407842D01*
X217955555Y-154355237D01*
X217959752Y-152344167D01*
X225076496Y-152344167D01*
X225096458Y-152534095D01*
X225155473Y-152715723D01*
X225250960Y-152881111D01*
X225378747Y-153023033D01*
X225533248Y-153135285D01*
X225539276Y-153137969D01*
X225539278Y-153137970D01*
X225701681Y-153210276D01*
X225707712Y-153212961D01*
X225801112Y-153232814D01*
X225888056Y-153251295D01*
X225888061Y-153251295D01*
X225894513Y-153252667D01*
X226085487Y-153252667D01*
X226091939Y-153251295D01*
X226091944Y-153251295D01*
X226178888Y-153232814D01*
X226272288Y-153212961D01*
X226278319Y-153210276D01*
X226440722Y-153137970D01*
X226440724Y-153137969D01*
X226446752Y-153135285D01*
X226601253Y-153023033D01*
X226729040Y-152881111D01*
X226824527Y-152715723D01*
X226883542Y-152534095D01*
X226903504Y-152344167D01*
X226883542Y-152154239D01*
X226824527Y-151972611D01*
X226729040Y-151807223D01*
X226601253Y-151665301D01*
X226446752Y-151553049D01*
X226440724Y-151550365D01*
X226440722Y-151550364D01*
X226278319Y-151478058D01*
X226278318Y-151478058D01*
X226272288Y-151475373D01*
X226178887Y-151455520D01*
X226091944Y-151437039D01*
X226091939Y-151437039D01*
X226085487Y-151435667D01*
X225894513Y-151435667D01*
X225888061Y-151437039D01*
X225888056Y-151437039D01*
X225801113Y-151455520D01*
X225707712Y-151475373D01*
X225701682Y-151478058D01*
X225701681Y-151478058D01*
X225539278Y-151550364D01*
X225539276Y-151550365D01*
X225533248Y-151553049D01*
X225378747Y-151665301D01*
X225250960Y-151807223D01*
X225155473Y-151972611D01*
X225096458Y-152154239D01*
X225076496Y-152344167D01*
X217959752Y-152344167D01*
X217965240Y-149714667D01*
X227216496Y-149714667D01*
X227236458Y-149904595D01*
X227295473Y-150086223D01*
X227390960Y-150251611D01*
X227518747Y-150393533D01*
X227673248Y-150505785D01*
X227679276Y-150508469D01*
X227679278Y-150508470D01*
X227841681Y-150580776D01*
X227847712Y-150583461D01*
X227941113Y-150603314D01*
X228028056Y-150621795D01*
X228028061Y-150621795D01*
X228034513Y-150623167D01*
X228225487Y-150623167D01*
X228231939Y-150621795D01*
X228231944Y-150621795D01*
X228318887Y-150603314D01*
X228412288Y-150583461D01*
X228418319Y-150580776D01*
X228580722Y-150508470D01*
X228580724Y-150508469D01*
X228586752Y-150505785D01*
X228741253Y-150393533D01*
X228869040Y-150251611D01*
X228964527Y-150086223D01*
X229023542Y-149904595D01*
X229043504Y-149714667D01*
X229023542Y-149524739D01*
X228964527Y-149343111D01*
X228869040Y-149177723D01*
X228786470Y-149086019D01*
X228745675Y-149040712D01*
X228745674Y-149040711D01*
X228741253Y-149035801D01*
X228586752Y-148923549D01*
X228580724Y-148920865D01*
X228580722Y-148920864D01*
X228418319Y-148848558D01*
X228418318Y-148848558D01*
X228412288Y-148845873D01*
X228318888Y-148826020D01*
X228231944Y-148807539D01*
X228231939Y-148807539D01*
X228225487Y-148806167D01*
X228034513Y-148806167D01*
X228028061Y-148807539D01*
X228028056Y-148807539D01*
X227941112Y-148826020D01*
X227847712Y-148845873D01*
X227841682Y-148848558D01*
X227841681Y-148848558D01*
X227679278Y-148920864D01*
X227679276Y-148920865D01*
X227673248Y-148923549D01*
X227518747Y-149035801D01*
X227514326Y-149040711D01*
X227514325Y-149040712D01*
X227473531Y-149086019D01*
X227390960Y-149177723D01*
X227295473Y-149343111D01*
X227236458Y-149524739D01*
X227216496Y-149714667D01*
X217965240Y-149714667D01*
X217967683Y-148544167D01*
X230716496Y-148544167D01*
X230736458Y-148734095D01*
X230795473Y-148915723D01*
X230890960Y-149081111D01*
X230895378Y-149086018D01*
X230895379Y-149086019D01*
X230977950Y-149177723D01*
X231018747Y-149223033D01*
X231173248Y-149335285D01*
X231179276Y-149337969D01*
X231179278Y-149337970D01*
X231341681Y-149410276D01*
X231347712Y-149412961D01*
X231441112Y-149432814D01*
X231528056Y-149451295D01*
X231528061Y-149451295D01*
X231534513Y-149452667D01*
X231725487Y-149452667D01*
X231731939Y-149451295D01*
X231731944Y-149451295D01*
X231818888Y-149432814D01*
X231912288Y-149412961D01*
X231918319Y-149410276D01*
X232080722Y-149337970D01*
X232080724Y-149337969D01*
X232086752Y-149335285D01*
X232241253Y-149223033D01*
X232282050Y-149177723D01*
X232364621Y-149086019D01*
X232364622Y-149086018D01*
X232369040Y-149081111D01*
X232464527Y-148915723D01*
X232523542Y-148734095D01*
X232543504Y-148544167D01*
X232523542Y-148354239D01*
X232464527Y-148172611D01*
X232369040Y-148007223D01*
X232241253Y-147865301D01*
X232086752Y-147753049D01*
X232080724Y-147750365D01*
X232080722Y-147750364D01*
X231918319Y-147678058D01*
X231918318Y-147678058D01*
X231912288Y-147675373D01*
X231818887Y-147655520D01*
X231731944Y-147637039D01*
X231731939Y-147637039D01*
X231725487Y-147635667D01*
X231534513Y-147635667D01*
X231528061Y-147637039D01*
X231528056Y-147637039D01*
X231441113Y-147655520D01*
X231347712Y-147675373D01*
X231341682Y-147678058D01*
X231341681Y-147678058D01*
X231179278Y-147750364D01*
X231179276Y-147750365D01*
X231173248Y-147753049D01*
X231018747Y-147865301D01*
X230890960Y-148007223D01*
X230795473Y-148172611D01*
X230736458Y-148354239D01*
X230716496Y-148544167D01*
X217967683Y-148544167D01*
X217971847Y-146549167D01*
X228136496Y-146549167D01*
X228156458Y-146739095D01*
X228215473Y-146920723D01*
X228310960Y-147086111D01*
X228438747Y-147228033D01*
X228593248Y-147340285D01*
X228599276Y-147342969D01*
X228599278Y-147342970D01*
X228761681Y-147415276D01*
X228767712Y-147417961D01*
X228861112Y-147437814D01*
X228948056Y-147456295D01*
X228948061Y-147456295D01*
X228954513Y-147457667D01*
X229145487Y-147457667D01*
X229151939Y-147456295D01*
X229151944Y-147456295D01*
X229238888Y-147437814D01*
X229332288Y-147417961D01*
X229338319Y-147415276D01*
X229500722Y-147342970D01*
X229500724Y-147342969D01*
X229506752Y-147340285D01*
X229661253Y-147228033D01*
X229789040Y-147086111D01*
X229884527Y-146920723D01*
X229943542Y-146739095D01*
X229963504Y-146549167D01*
X229943542Y-146359239D01*
X229884527Y-146177611D01*
X229873764Y-146158968D01*
X229873191Y-146157976D01*
X232308552Y-146157976D01*
X232318432Y-146170463D01*
X232357949Y-146196867D01*
X232368054Y-146202354D01*
X232550284Y-146280646D01*
X232561227Y-146284201D01*
X232754664Y-146327972D01*
X232766074Y-146329474D01*
X232964256Y-146337260D01*
X232975738Y-146336658D01*
X233172023Y-146308199D01*
X233183206Y-146305514D01*
X233371011Y-146241763D01*
X233381526Y-146237081D01*
X233503011Y-146169046D01*
X233512875Y-146158968D01*
X233509920Y-146151297D01*
X232922812Y-145564189D01*
X232908868Y-145556575D01*
X232907035Y-145556706D01*
X232900420Y-145560957D01*
X232314748Y-146146629D01*
X232308552Y-146157976D01*
X229873191Y-146157976D01*
X229792341Y-146017941D01*
X229789040Y-146012223D01*
X229661253Y-145870301D01*
X229506752Y-145758049D01*
X229500724Y-145755365D01*
X229500722Y-145755364D01*
X229338319Y-145683058D01*
X229338318Y-145683058D01*
X229332288Y-145680373D01*
X229238887Y-145660520D01*
X229151944Y-145642039D01*
X229151939Y-145642039D01*
X229145487Y-145640667D01*
X228954513Y-145640667D01*
X228948061Y-145642039D01*
X228948056Y-145642039D01*
X228861113Y-145660520D01*
X228767712Y-145680373D01*
X228761682Y-145683058D01*
X228761681Y-145683058D01*
X228599278Y-145755364D01*
X228599276Y-145755365D01*
X228593248Y-145758049D01*
X228438747Y-145870301D01*
X228310960Y-146012223D01*
X228307659Y-146017941D01*
X228226237Y-146158968D01*
X228215473Y-146177611D01*
X228156458Y-146359239D01*
X228136496Y-146549167D01*
X217971847Y-146549167D01*
X217975019Y-145029167D01*
X225276496Y-145029167D01*
X225277186Y-145035732D01*
X225294635Y-145201747D01*
X225296458Y-145219095D01*
X225355473Y-145400723D01*
X225450960Y-145566111D01*
X225578747Y-145708033D01*
X225643892Y-145755364D01*
X225698038Y-145794703D01*
X225733248Y-145820285D01*
X225739276Y-145822969D01*
X225739278Y-145822970D01*
X225901681Y-145895276D01*
X225907712Y-145897961D01*
X226001113Y-145917814D01*
X226088056Y-145936295D01*
X226088061Y-145936295D01*
X226094513Y-145937667D01*
X226285487Y-145937667D01*
X226291939Y-145936295D01*
X226291944Y-145936295D01*
X226378887Y-145917814D01*
X226472288Y-145897961D01*
X226478319Y-145895276D01*
X226640722Y-145822970D01*
X226640724Y-145822969D01*
X226646752Y-145820285D01*
X226681963Y-145794703D01*
X226736108Y-145755364D01*
X226801253Y-145708033D01*
X226929040Y-145566111D01*
X227024527Y-145400723D01*
X227083542Y-145219095D01*
X227085366Y-145201747D01*
X227088922Y-145167911D01*
X231763879Y-145167911D01*
X231776850Y-145365812D01*
X231778651Y-145377182D01*
X231827470Y-145569407D01*
X231831311Y-145580254D01*
X231914344Y-145760368D01*
X231920095Y-145770329D01*
X231931392Y-145786315D01*
X231941982Y-145794703D01*
X231955282Y-145787675D01*
X232537978Y-145204979D01*
X232544356Y-145193299D01*
X233274408Y-145193299D01*
X233274539Y-145195132D01*
X233278790Y-145201747D01*
X233865215Y-145788172D01*
X233877595Y-145794932D01*
X233884175Y-145790006D01*
X233954914Y-145663693D01*
X233959596Y-145653178D01*
X234023347Y-145465373D01*
X234026032Y-145454190D01*
X234054787Y-145255865D01*
X234055417Y-145248483D01*
X234056795Y-145195871D01*
X234056552Y-145188472D01*
X234038216Y-144988920D01*
X234036118Y-144977599D01*
X233982285Y-144786723D01*
X233978160Y-144775976D01*
X233890441Y-144598099D01*
X233888431Y-144594819D01*
X233879161Y-144587863D01*
X233866743Y-144594634D01*
X233282022Y-145179355D01*
X233274408Y-145193299D01*
X232544356Y-145193299D01*
X232545592Y-145191035D01*
X232545461Y-145189202D01*
X232541210Y-145182587D01*
X231953367Y-144594744D01*
X231940987Y-144587984D01*
X231935021Y-144592450D01*
X231853099Y-144748158D01*
X231848696Y-144758791D01*
X231789882Y-144948200D01*
X231787492Y-144959444D01*
X231764180Y-145156410D01*
X231763879Y-145167911D01*
X227088922Y-145167911D01*
X227102814Y-145035732D01*
X227103504Y-145029167D01*
X227083542Y-144839239D01*
X227024527Y-144657611D01*
X226929040Y-144492223D01*
X226801253Y-144350301D01*
X226646752Y-144238049D01*
X226640724Y-144235365D01*
X226640722Y-144235364D01*
X226619771Y-144226036D01*
X232307981Y-144226036D01*
X232311468Y-144234425D01*
X232897188Y-144820145D01*
X232911132Y-144827759D01*
X232912965Y-144827628D01*
X232919580Y-144823377D01*
X233504932Y-144238025D01*
X233511692Y-144225645D01*
X233505662Y-144217590D01*
X233435561Y-144173360D01*
X233425317Y-144168140D01*
X233241103Y-144094646D01*
X233230065Y-144091376D01*
X233035551Y-144052685D01*
X233024104Y-144051482D01*
X232825798Y-144048886D01*
X232814318Y-144049789D01*
X232618860Y-144083375D01*
X232607740Y-144086355D01*
X232421666Y-144155001D01*
X232411289Y-144159951D01*
X232317579Y-144215703D01*
X232307981Y-144226036D01*
X226619771Y-144226036D01*
X226478319Y-144163058D01*
X226478318Y-144163058D01*
X226472288Y-144160373D01*
X226378887Y-144140520D01*
X226291944Y-144122039D01*
X226291939Y-144122039D01*
X226285487Y-144120667D01*
X226094513Y-144120667D01*
X226088061Y-144122039D01*
X226088056Y-144122039D01*
X226001113Y-144140520D01*
X225907712Y-144160373D01*
X225901682Y-144163058D01*
X225901681Y-144163058D01*
X225739278Y-144235364D01*
X225739276Y-144235365D01*
X225733248Y-144238049D01*
X225578747Y-144350301D01*
X225450960Y-144492223D01*
X225355473Y-144657611D01*
X225296458Y-144839239D01*
X225276496Y-145029167D01*
X217975019Y-145029167D01*
X217981103Y-142114167D01*
X219666884Y-142114167D01*
X219685314Y-142324822D01*
X219686738Y-142330135D01*
X219686738Y-142330137D01*
X219738408Y-142522970D01*
X219740044Y-142529077D01*
X219742366Y-142534058D01*
X219742367Y-142534059D01*
X219824294Y-142709751D01*
X219829411Y-142720725D01*
X219950699Y-142893943D01*
X220100224Y-143043468D01*
X220273442Y-143164756D01*
X220278420Y-143167077D01*
X220278423Y-143167079D01*
X220460108Y-143251800D01*
X220465090Y-143254123D01*
X220470398Y-143255545D01*
X220470400Y-143255546D01*
X220664030Y-143307429D01*
X220664032Y-143307429D01*
X220669345Y-143308853D01*
X220880000Y-143327283D01*
X221090655Y-143308853D01*
X221095968Y-143307429D01*
X221095970Y-143307429D01*
X221289600Y-143255546D01*
X221289602Y-143255545D01*
X221294910Y-143254123D01*
X221299892Y-143251800D01*
X221481577Y-143167079D01*
X221481580Y-143167077D01*
X221486558Y-143164756D01*
X221659776Y-143043468D01*
X221803565Y-142899679D01*
X223806151Y-142899679D01*
X223806841Y-142906244D01*
X223821264Y-143043468D01*
X223826113Y-143089607D01*
X223885128Y-143271235D01*
X223980615Y-143436623D01*
X224108402Y-143578545D01*
X224207498Y-143650543D01*
X224242690Y-143676111D01*
X224262903Y-143690797D01*
X224268931Y-143693481D01*
X224268933Y-143693482D01*
X224431336Y-143765788D01*
X224437367Y-143768473D01*
X224530767Y-143788326D01*
X224617711Y-143806807D01*
X224617716Y-143806807D01*
X224624168Y-143808179D01*
X224815142Y-143808179D01*
X224821594Y-143806807D01*
X224821599Y-143806807D01*
X224908543Y-143788326D01*
X225001943Y-143768473D01*
X225007974Y-143765788D01*
X225170377Y-143693482D01*
X225170379Y-143693481D01*
X225176407Y-143690797D01*
X225196621Y-143676111D01*
X225231812Y-143650543D01*
X225330908Y-143578545D01*
X225458695Y-143436623D01*
X225554182Y-143271235D01*
X225597094Y-143139167D01*
X227666496Y-143139167D01*
X227667186Y-143145732D01*
X227684331Y-143308853D01*
X227686458Y-143329095D01*
X227745473Y-143510723D01*
X227840960Y-143676111D01*
X227968747Y-143818033D01*
X228123248Y-143930285D01*
X228129276Y-143932969D01*
X228129278Y-143932970D01*
X228291681Y-144005276D01*
X228297712Y-144007961D01*
X228391112Y-144027814D01*
X228478056Y-144046295D01*
X228478061Y-144046295D01*
X228484513Y-144047667D01*
X228675487Y-144047667D01*
X228681939Y-144046295D01*
X228681944Y-144046295D01*
X228768888Y-144027814D01*
X228862288Y-144007961D01*
X228868319Y-144005276D01*
X229030722Y-143932970D01*
X229030724Y-143932969D01*
X229036752Y-143930285D01*
X229191253Y-143818033D01*
X229319040Y-143676111D01*
X229414527Y-143510723D01*
X229473542Y-143329095D01*
X229475670Y-143308853D01*
X229492814Y-143145732D01*
X229493504Y-143139167D01*
X229473542Y-142949239D01*
X229414527Y-142767611D01*
X229319040Y-142602223D01*
X229247681Y-142522970D01*
X229195675Y-142465212D01*
X229195674Y-142465211D01*
X229191253Y-142460301D01*
X229064836Y-142368453D01*
X229042094Y-142351930D01*
X229042093Y-142351929D01*
X229036752Y-142348049D01*
X229030724Y-142345365D01*
X229030722Y-142345364D01*
X228868319Y-142273058D01*
X228868318Y-142273058D01*
X228862288Y-142270373D01*
X228768887Y-142250520D01*
X228681944Y-142232039D01*
X228681939Y-142232039D01*
X228675487Y-142230667D01*
X228484513Y-142230667D01*
X228478061Y-142232039D01*
X228478056Y-142232039D01*
X228391113Y-142250520D01*
X228297712Y-142270373D01*
X228291682Y-142273058D01*
X228291681Y-142273058D01*
X228129278Y-142345364D01*
X228129276Y-142345365D01*
X228123248Y-142348049D01*
X228117907Y-142351929D01*
X228117906Y-142351930D01*
X228095164Y-142368453D01*
X227968747Y-142460301D01*
X227964326Y-142465211D01*
X227964325Y-142465212D01*
X227912320Y-142522970D01*
X227840960Y-142602223D01*
X227745473Y-142767611D01*
X227686458Y-142949239D01*
X227666496Y-143139167D01*
X225597094Y-143139167D01*
X225613197Y-143089607D01*
X225618047Y-143043468D01*
X225632469Y-142906244D01*
X225633159Y-142899679D01*
X225614824Y-142725230D01*
X225613887Y-142716314D01*
X225613887Y-142716312D01*
X225613197Y-142709751D01*
X225554182Y-142528123D01*
X225458695Y-142362735D01*
X225371695Y-142266111D01*
X225335330Y-142225724D01*
X225335329Y-142225723D01*
X225330908Y-142220813D01*
X225176407Y-142108561D01*
X225170379Y-142105877D01*
X225170377Y-142105876D01*
X225007974Y-142033570D01*
X225007973Y-142033570D01*
X225001943Y-142030885D01*
X224908542Y-142011032D01*
X224821599Y-141992551D01*
X224821594Y-141992551D01*
X224815142Y-141991179D01*
X224624168Y-141991179D01*
X224617716Y-141992551D01*
X224617711Y-141992551D01*
X224530768Y-142011032D01*
X224437367Y-142030885D01*
X224431337Y-142033570D01*
X224431336Y-142033570D01*
X224268933Y-142105876D01*
X224268931Y-142105877D01*
X224262903Y-142108561D01*
X224108402Y-142220813D01*
X224103981Y-142225723D01*
X224103980Y-142225724D01*
X224067616Y-142266111D01*
X223980615Y-142362735D01*
X223885128Y-142528123D01*
X223826113Y-142709751D01*
X223825423Y-142716312D01*
X223825423Y-142716314D01*
X223824486Y-142725230D01*
X223806151Y-142899679D01*
X221803565Y-142899679D01*
X221809301Y-142893943D01*
X221930589Y-142720725D01*
X221935707Y-142709751D01*
X222017633Y-142534059D01*
X222017634Y-142534058D01*
X222019956Y-142529077D01*
X222021593Y-142522970D01*
X222073262Y-142330137D01*
X222073262Y-142330135D01*
X222074686Y-142324822D01*
X222093116Y-142114167D01*
X222074686Y-141903512D01*
X222073262Y-141898197D01*
X222027971Y-141729167D01*
X230326496Y-141729167D01*
X230327186Y-141735732D01*
X230344262Y-141898197D01*
X230346458Y-141919095D01*
X230405473Y-142100723D01*
X230500960Y-142266111D01*
X230505378Y-142271018D01*
X230505379Y-142271019D01*
X230593109Y-142368453D01*
X230628747Y-142408033D01*
X230783248Y-142520285D01*
X230789276Y-142522969D01*
X230789278Y-142522970D01*
X230951681Y-142595276D01*
X230957712Y-142597961D01*
X231051112Y-142617814D01*
X231138056Y-142636295D01*
X231138061Y-142636295D01*
X231144513Y-142637667D01*
X231335487Y-142637667D01*
X231341939Y-142636295D01*
X231341944Y-142636295D01*
X231428888Y-142617814D01*
X231522288Y-142597961D01*
X231528319Y-142595276D01*
X231690722Y-142522970D01*
X231690724Y-142522969D01*
X231696752Y-142520285D01*
X231851253Y-142408033D01*
X231886891Y-142368453D01*
X231974621Y-142271019D01*
X231974622Y-142271018D01*
X231979040Y-142266111D01*
X232074527Y-142100723D01*
X232133542Y-141919095D01*
X232135739Y-141898197D01*
X232152814Y-141735732D01*
X232153504Y-141729167D01*
X232133542Y-141539239D01*
X232074527Y-141357611D01*
X231979040Y-141192223D01*
X231969572Y-141181707D01*
X231855675Y-141055212D01*
X231855674Y-141055211D01*
X231851253Y-141050301D01*
X231696752Y-140938049D01*
X231690724Y-140935365D01*
X231690722Y-140935364D01*
X231528319Y-140863058D01*
X231528318Y-140863058D01*
X231522288Y-140860373D01*
X231428888Y-140840520D01*
X231341944Y-140822039D01*
X231341939Y-140822039D01*
X231335487Y-140820667D01*
X231144513Y-140820667D01*
X231138061Y-140822039D01*
X231138056Y-140822039D01*
X231051112Y-140840520D01*
X230957712Y-140860373D01*
X230951682Y-140863058D01*
X230951681Y-140863058D01*
X230789278Y-140935364D01*
X230789276Y-140935365D01*
X230783248Y-140938049D01*
X230628747Y-141050301D01*
X230624326Y-141055211D01*
X230624325Y-141055212D01*
X230510429Y-141181707D01*
X230500960Y-141192223D01*
X230405473Y-141357611D01*
X230346458Y-141539239D01*
X230326496Y-141729167D01*
X222027971Y-141729167D01*
X222021379Y-141704567D01*
X222021378Y-141704565D01*
X222019956Y-141699257D01*
X221948399Y-141545802D01*
X221932912Y-141512590D01*
X221932910Y-141512587D01*
X221930589Y-141507609D01*
X221809301Y-141334391D01*
X221659776Y-141184866D01*
X221486558Y-141063578D01*
X221481580Y-141061257D01*
X221481577Y-141061255D01*
X221299892Y-140976534D01*
X221299891Y-140976533D01*
X221294910Y-140974211D01*
X221289602Y-140972789D01*
X221289600Y-140972788D01*
X221095970Y-140920905D01*
X221095968Y-140920905D01*
X221090655Y-140919481D01*
X220880000Y-140901051D01*
X220669345Y-140919481D01*
X220664032Y-140920905D01*
X220664030Y-140920905D01*
X220470400Y-140972788D01*
X220470398Y-140972789D01*
X220465090Y-140974211D01*
X220460109Y-140976533D01*
X220460108Y-140976534D01*
X220278423Y-141061255D01*
X220278420Y-141061257D01*
X220273442Y-141063578D01*
X220100224Y-141184866D01*
X219950699Y-141334391D01*
X219829411Y-141507609D01*
X219827090Y-141512587D01*
X219827088Y-141512590D01*
X219811601Y-141545802D01*
X219740044Y-141699257D01*
X219738622Y-141704565D01*
X219738621Y-141704567D01*
X219686738Y-141898197D01*
X219685314Y-141903512D01*
X219666884Y-142114167D01*
X217981103Y-142114167D01*
X217989410Y-138134167D01*
X219666884Y-138134167D01*
X219685314Y-138344822D01*
X219686738Y-138350135D01*
X219686738Y-138350137D01*
X219722348Y-138483033D01*
X219740044Y-138549077D01*
X219742366Y-138554058D01*
X219742367Y-138554059D01*
X219815688Y-138711295D01*
X219829411Y-138740725D01*
X219950699Y-138913943D01*
X220100224Y-139063468D01*
X220273442Y-139184756D01*
X220278420Y-139187077D01*
X220278423Y-139187079D01*
X220460108Y-139271800D01*
X220465090Y-139274123D01*
X220470398Y-139275545D01*
X220470400Y-139275546D01*
X220664030Y-139327429D01*
X220664032Y-139327429D01*
X220669345Y-139328853D01*
X220880000Y-139347283D01*
X221090655Y-139328853D01*
X221095968Y-139327429D01*
X221095970Y-139327429D01*
X221289600Y-139275546D01*
X221289602Y-139275545D01*
X221294910Y-139274123D01*
X221299892Y-139271800D01*
X221481577Y-139187079D01*
X221481580Y-139187077D01*
X221486558Y-139184756D01*
X221659776Y-139063468D01*
X221809301Y-138913943D01*
X221930589Y-138740725D01*
X221944313Y-138711295D01*
X221998409Y-138595285D01*
X222018546Y-138552101D01*
X222065462Y-138498817D01*
X222133739Y-138479356D01*
X222206801Y-138503416D01*
X222327906Y-138591404D01*
X222333248Y-138595285D01*
X222339276Y-138597969D01*
X222339278Y-138597970D01*
X222476730Y-138659167D01*
X222507712Y-138672961D01*
X222601113Y-138692814D01*
X222688056Y-138711295D01*
X222688061Y-138711295D01*
X222694513Y-138712667D01*
X222885487Y-138712667D01*
X222891939Y-138711295D01*
X222891944Y-138711295D01*
X222978887Y-138692814D01*
X223072288Y-138672961D01*
X223103270Y-138659167D01*
X226076996Y-138659167D01*
X226096958Y-138849095D01*
X226155973Y-139030723D01*
X226159276Y-139036445D01*
X226159277Y-139036446D01*
X226174878Y-139063468D01*
X226251460Y-139196111D01*
X226255878Y-139201018D01*
X226255879Y-139201019D01*
X226374825Y-139333122D01*
X226379247Y-139338033D01*
X226533748Y-139450285D01*
X226539776Y-139452969D01*
X226539778Y-139452970D01*
X226702181Y-139525276D01*
X226708212Y-139527961D01*
X226801612Y-139547814D01*
X226888556Y-139566295D01*
X226888561Y-139566295D01*
X226895013Y-139567667D01*
X227085987Y-139567667D01*
X227092439Y-139566295D01*
X227092444Y-139566295D01*
X227179388Y-139547814D01*
X227272788Y-139527961D01*
X227278819Y-139525276D01*
X227441222Y-139452970D01*
X227441224Y-139452969D01*
X227447252Y-139450285D01*
X227601753Y-139338033D01*
X227606175Y-139333122D01*
X227725121Y-139201019D01*
X227725122Y-139201018D01*
X227729540Y-139196111D01*
X227806122Y-139063468D01*
X227821723Y-139036446D01*
X227821724Y-139036445D01*
X227825027Y-139030723D01*
X227884042Y-138849095D01*
X227904004Y-138659167D01*
X227885492Y-138483033D01*
X227884732Y-138475802D01*
X227884732Y-138475800D01*
X227884042Y-138469239D01*
X227825027Y-138287611D01*
X227729540Y-138122223D01*
X227601753Y-137980301D01*
X227447252Y-137868049D01*
X227441224Y-137865365D01*
X227441222Y-137865364D01*
X227278819Y-137793058D01*
X227278818Y-137793058D01*
X227272788Y-137790373D01*
X227179387Y-137770520D01*
X227092444Y-137752039D01*
X227092439Y-137752039D01*
X227085987Y-137750667D01*
X226895013Y-137750667D01*
X226888561Y-137752039D01*
X226888556Y-137752039D01*
X226801613Y-137770520D01*
X226708212Y-137790373D01*
X226702182Y-137793058D01*
X226702181Y-137793058D01*
X226539778Y-137865364D01*
X226539776Y-137865365D01*
X226533748Y-137868049D01*
X226379247Y-137980301D01*
X226251460Y-138122223D01*
X226155973Y-138287611D01*
X226096958Y-138469239D01*
X226096268Y-138475800D01*
X226096268Y-138475802D01*
X226095508Y-138483033D01*
X226076996Y-138659167D01*
X223103270Y-138659167D01*
X223240722Y-138597970D01*
X223240724Y-138597969D01*
X223246752Y-138595285D01*
X223401253Y-138483033D01*
X223529040Y-138341111D01*
X223624527Y-138175723D01*
X223683542Y-137994095D01*
X223690961Y-137923512D01*
X223702814Y-137810732D01*
X223703504Y-137804167D01*
X223683542Y-137614239D01*
X223653344Y-137521301D01*
X231767500Y-137521301D01*
X231774255Y-137583483D01*
X231825385Y-137719872D01*
X231912739Y-137836428D01*
X232029295Y-137923782D01*
X232165684Y-137974912D01*
X232227866Y-137981667D01*
X233592134Y-137981667D01*
X233654316Y-137974912D01*
X233790705Y-137923782D01*
X233907261Y-137836428D01*
X233994615Y-137719872D01*
X234045745Y-137583483D01*
X234052500Y-137521301D01*
X234052500Y-136157033D01*
X234045745Y-136094851D01*
X233994615Y-135958462D01*
X233907261Y-135841906D01*
X233790705Y-135754552D01*
X233654316Y-135703422D01*
X233592134Y-135696667D01*
X232227866Y-135696667D01*
X232165684Y-135703422D01*
X232029295Y-135754552D01*
X231912739Y-135841906D01*
X231825385Y-135958462D01*
X231774255Y-136094851D01*
X231767500Y-136157033D01*
X231767500Y-137521301D01*
X223653344Y-137521301D01*
X223624527Y-137432611D01*
X223529040Y-137267223D01*
X223401253Y-137125301D01*
X223246752Y-137013049D01*
X223240724Y-137010365D01*
X223240722Y-137010364D01*
X223078319Y-136938058D01*
X223078318Y-136938058D01*
X223072288Y-136935373D01*
X222978887Y-136915520D01*
X222891944Y-136897039D01*
X222891939Y-136897039D01*
X222885487Y-136895667D01*
X222694513Y-136895667D01*
X222689669Y-136896697D01*
X222620434Y-136884035D01*
X222568588Y-136835533D01*
X222551193Y-136766700D01*
X222573774Y-136699390D01*
X222603041Y-136669561D01*
X222604411Y-136668565D01*
X222628954Y-136650734D01*
X222756741Y-136508812D01*
X222852228Y-136343424D01*
X222911243Y-136161796D01*
X222917454Y-136102707D01*
X222930515Y-135978433D01*
X222931205Y-135971868D01*
X222911243Y-135781940D01*
X222852228Y-135600312D01*
X222756741Y-135434924D01*
X222726380Y-135401204D01*
X222633376Y-135297913D01*
X222633375Y-135297912D01*
X222628954Y-135293002D01*
X222474453Y-135180750D01*
X222468425Y-135178066D01*
X222468423Y-135178065D01*
X222306020Y-135105759D01*
X222306019Y-135105759D01*
X222299989Y-135103074D01*
X222206589Y-135083221D01*
X222119645Y-135064740D01*
X222119640Y-135064740D01*
X222113188Y-135063368D01*
X221960720Y-135063368D01*
X221892599Y-135043366D01*
X221846106Y-134989710D01*
X221836002Y-134919436D01*
X221857505Y-134865100D01*
X221930589Y-134760725D01*
X221963228Y-134690732D01*
X221966289Y-134684167D01*
X224806496Y-134684167D01*
X224826458Y-134874095D01*
X224885473Y-135055723D01*
X224980960Y-135221111D01*
X224985378Y-135226018D01*
X224985379Y-135226019D01*
X225102809Y-135356438D01*
X225108747Y-135363033D01*
X225114597Y-135367283D01*
X225254123Y-135468655D01*
X225263248Y-135475285D01*
X225269276Y-135477969D01*
X225269278Y-135477970D01*
X225431681Y-135550276D01*
X225437712Y-135552961D01*
X225531113Y-135572814D01*
X225618056Y-135591295D01*
X225618061Y-135591295D01*
X225624513Y-135592667D01*
X225815487Y-135592667D01*
X225821939Y-135591295D01*
X225821944Y-135591295D01*
X225908887Y-135572814D01*
X226002288Y-135552961D01*
X226008319Y-135550276D01*
X226170722Y-135477970D01*
X226170724Y-135477969D01*
X226176752Y-135475285D01*
X226185878Y-135468655D01*
X226325403Y-135367283D01*
X226331253Y-135363033D01*
X226337191Y-135356438D01*
X226454621Y-135226019D01*
X226454622Y-135226018D01*
X226459040Y-135221111D01*
X226554527Y-135055723D01*
X226613542Y-134874095D01*
X226633504Y-134684167D01*
X226613542Y-134494239D01*
X226554527Y-134312611D01*
X226459040Y-134147223D01*
X226331253Y-134005301D01*
X226176752Y-133893049D01*
X226170724Y-133890365D01*
X226170722Y-133890364D01*
X226008319Y-133818058D01*
X226008318Y-133818058D01*
X226002288Y-133815373D01*
X225908888Y-133795520D01*
X225821944Y-133777039D01*
X225821939Y-133777039D01*
X225815487Y-133775667D01*
X225624513Y-133775667D01*
X225618061Y-133777039D01*
X225618056Y-133777039D01*
X225531112Y-133795520D01*
X225437712Y-133815373D01*
X225431682Y-133818058D01*
X225431681Y-133818058D01*
X225269278Y-133890364D01*
X225269276Y-133890365D01*
X225263248Y-133893049D01*
X225108747Y-134005301D01*
X224980960Y-134147223D01*
X224885473Y-134312611D01*
X224826458Y-134494239D01*
X224806496Y-134684167D01*
X221966289Y-134684167D01*
X222017633Y-134574059D01*
X222017634Y-134574058D01*
X222019956Y-134569077D01*
X222074686Y-134364822D01*
X222093116Y-134154167D01*
X222074686Y-133943512D01*
X222073262Y-133938197D01*
X222021379Y-133744567D01*
X222021378Y-133744565D01*
X222019956Y-133739257D01*
X221930589Y-133547609D01*
X221809301Y-133374391D01*
X221659776Y-133224866D01*
X221486558Y-133103578D01*
X221481580Y-133101257D01*
X221481577Y-133101255D01*
X221299892Y-133016534D01*
X221299891Y-133016533D01*
X221294910Y-133014211D01*
X221289602Y-133012789D01*
X221289600Y-133012788D01*
X221095970Y-132960905D01*
X221095968Y-132960905D01*
X221090655Y-132959481D01*
X220880000Y-132941051D01*
X220669345Y-132959481D01*
X220664032Y-132960905D01*
X220664030Y-132960905D01*
X220470400Y-133012788D01*
X220470398Y-133012789D01*
X220465090Y-133014211D01*
X220460109Y-133016533D01*
X220460108Y-133016534D01*
X220278423Y-133101255D01*
X220278420Y-133101257D01*
X220273442Y-133103578D01*
X220100224Y-133224866D01*
X219950699Y-133374391D01*
X219829411Y-133547609D01*
X219740044Y-133739257D01*
X219738622Y-133744565D01*
X219738621Y-133744567D01*
X219686738Y-133938197D01*
X219685314Y-133943512D01*
X219666884Y-134154167D01*
X219685314Y-134364822D01*
X219740044Y-134569077D01*
X219742366Y-134574058D01*
X219742367Y-134574059D01*
X219796773Y-134690732D01*
X219829411Y-134760725D01*
X219950699Y-134933943D01*
X220100224Y-135083468D01*
X220273442Y-135204756D01*
X220278420Y-135207077D01*
X220278423Y-135207079D01*
X220454359Y-135289119D01*
X220465090Y-135294123D01*
X220470398Y-135295545D01*
X220470400Y-135295546D01*
X220664030Y-135347429D01*
X220664032Y-135347429D01*
X220669345Y-135348853D01*
X220880000Y-135367283D01*
X220885475Y-135366804D01*
X221085184Y-135349332D01*
X221085188Y-135349331D01*
X221090655Y-135348853D01*
X221091062Y-135348744D01*
X221160063Y-135356438D01*
X221215167Y-135401204D01*
X221237321Y-135468655D01*
X221220504Y-135535654D01*
X221183174Y-135600312D01*
X221124159Y-135781940D01*
X221104197Y-135971868D01*
X221104887Y-135978433D01*
X221117949Y-136102707D01*
X221124159Y-136161796D01*
X221183174Y-136343424D01*
X221278661Y-136508812D01*
X221406448Y-136650734D01*
X221560949Y-136762986D01*
X221566977Y-136765670D01*
X221566979Y-136765671D01*
X221723893Y-136835533D01*
X221735413Y-136840662D01*
X221828813Y-136860515D01*
X221915757Y-136878996D01*
X221915762Y-136878996D01*
X221922214Y-136880368D01*
X222113188Y-136880368D01*
X222118032Y-136879338D01*
X222187267Y-136892000D01*
X222239113Y-136940502D01*
X222256508Y-137009335D01*
X222233927Y-137076645D01*
X222204660Y-137106474D01*
X222178747Y-137125301D01*
X222050960Y-137267223D01*
X222047659Y-137272941D01*
X222012363Y-137334075D01*
X221960980Y-137383068D01*
X221891266Y-137396503D01*
X221825355Y-137370116D01*
X221809674Y-137354924D01*
X221809301Y-137354391D01*
X221659776Y-137204866D01*
X221486558Y-137083578D01*
X221481580Y-137081257D01*
X221481577Y-137081255D01*
X221299892Y-136996534D01*
X221299891Y-136996533D01*
X221294910Y-136994211D01*
X221289602Y-136992789D01*
X221289600Y-136992788D01*
X221095970Y-136940905D01*
X221095968Y-136940905D01*
X221090655Y-136939481D01*
X220880000Y-136921051D01*
X220669345Y-136939481D01*
X220664032Y-136940905D01*
X220664030Y-136940905D01*
X220470400Y-136992788D01*
X220470398Y-136992789D01*
X220465090Y-136994211D01*
X220460109Y-136996533D01*
X220460108Y-136996534D01*
X220278423Y-137081255D01*
X220278420Y-137081257D01*
X220273442Y-137083578D01*
X220100224Y-137204866D01*
X219950699Y-137354391D01*
X219829411Y-137527609D01*
X219827090Y-137532587D01*
X219827088Y-137532590D01*
X219785954Y-137620802D01*
X219740044Y-137719257D01*
X219738622Y-137724565D01*
X219738621Y-137724567D01*
X219717292Y-137804167D01*
X219685314Y-137923512D01*
X219666884Y-138134167D01*
X217989410Y-138134167D01*
X218006023Y-130174167D01*
X219666884Y-130174167D01*
X219685314Y-130384822D01*
X219740044Y-130589077D01*
X219829411Y-130780725D01*
X219950699Y-130953943D01*
X220100224Y-131103468D01*
X220273442Y-131224756D01*
X220278420Y-131227077D01*
X220278423Y-131227079D01*
X220337095Y-131254438D01*
X220465090Y-131314123D01*
X220470398Y-131315545D01*
X220470400Y-131315546D01*
X220664030Y-131367429D01*
X220664032Y-131367429D01*
X220669345Y-131368853D01*
X220880000Y-131387283D01*
X221090655Y-131368853D01*
X221095968Y-131367429D01*
X221095970Y-131367429D01*
X221289600Y-131315546D01*
X221289602Y-131315545D01*
X221294910Y-131314123D01*
X221422905Y-131254438D01*
X221481577Y-131227079D01*
X221481580Y-131227077D01*
X221486558Y-131224756D01*
X221659776Y-131103468D01*
X221809301Y-130953943D01*
X221854657Y-130889167D01*
X227426496Y-130889167D01*
X227427186Y-130895732D01*
X227433714Y-130957838D01*
X227446458Y-131079095D01*
X227505473Y-131260723D01*
X227600960Y-131426111D01*
X227728747Y-131568033D01*
X227883248Y-131680285D01*
X227889276Y-131682969D01*
X227889278Y-131682970D01*
X228051681Y-131755276D01*
X228057712Y-131757961D01*
X228151113Y-131777814D01*
X228238056Y-131796295D01*
X228238061Y-131796295D01*
X228244513Y-131797667D01*
X228435487Y-131797667D01*
X228441939Y-131796295D01*
X228441944Y-131796295D01*
X228528887Y-131777814D01*
X228622288Y-131757961D01*
X228628319Y-131755276D01*
X228790722Y-131682970D01*
X228790724Y-131682969D01*
X228796752Y-131680285D01*
X228951253Y-131568033D01*
X229079040Y-131426111D01*
X229174527Y-131260723D01*
X229233542Y-131079095D01*
X229246287Y-130957838D01*
X229252814Y-130895732D01*
X229253504Y-130889167D01*
X229242580Y-130785230D01*
X229234232Y-130705802D01*
X229234232Y-130705800D01*
X229233542Y-130699239D01*
X229174527Y-130517611D01*
X229079040Y-130352223D01*
X228975894Y-130237667D01*
X228955675Y-130215212D01*
X228955674Y-130215211D01*
X228951253Y-130210301D01*
X228822020Y-130116407D01*
X228802094Y-130101930D01*
X228802093Y-130101929D01*
X228796752Y-130098049D01*
X228790724Y-130095365D01*
X228790722Y-130095364D01*
X228628319Y-130023058D01*
X228628318Y-130023058D01*
X228622288Y-130020373D01*
X228528888Y-130000520D01*
X228441944Y-129982039D01*
X228441939Y-129982039D01*
X228435487Y-129980667D01*
X228244513Y-129980667D01*
X228238061Y-129982039D01*
X228238056Y-129982039D01*
X228151112Y-130000520D01*
X228057712Y-130020373D01*
X228051682Y-130023058D01*
X228051681Y-130023058D01*
X227889278Y-130095364D01*
X227889276Y-130095365D01*
X227883248Y-130098049D01*
X227877907Y-130101929D01*
X227877906Y-130101930D01*
X227857980Y-130116407D01*
X227728747Y-130210301D01*
X227724326Y-130215211D01*
X227724325Y-130215212D01*
X227704107Y-130237667D01*
X227600960Y-130352223D01*
X227505473Y-130517611D01*
X227446458Y-130699239D01*
X227445768Y-130705800D01*
X227445768Y-130705802D01*
X227437420Y-130785230D01*
X227426496Y-130889167D01*
X221854657Y-130889167D01*
X221930589Y-130780725D01*
X222019956Y-130589077D01*
X222074686Y-130384822D01*
X222093116Y-130174167D01*
X222092637Y-130168692D01*
X222092637Y-130163185D01*
X222094359Y-130163185D01*
X222106823Y-130101213D01*
X222156230Y-130050228D01*
X222225359Y-130034048D01*
X222292404Y-130057916D01*
X222378248Y-130120285D01*
X222384276Y-130122969D01*
X222384278Y-130122970D01*
X222546681Y-130195276D01*
X222552712Y-130197961D01*
X222633871Y-130215212D01*
X222733056Y-130236295D01*
X222733061Y-130236295D01*
X222739513Y-130237667D01*
X222930487Y-130237667D01*
X222936939Y-130236295D01*
X222936944Y-130236295D01*
X223036129Y-130215212D01*
X223117288Y-130197961D01*
X223123319Y-130195276D01*
X223285722Y-130122970D01*
X223285724Y-130122969D01*
X223291752Y-130120285D01*
X223317016Y-130101930D01*
X223388177Y-130050228D01*
X223446253Y-130008033D01*
X223469658Y-129982039D01*
X223569621Y-129871019D01*
X223569622Y-129871018D01*
X223574040Y-129866111D01*
X223669527Y-129700723D01*
X223728542Y-129519095D01*
X223748504Y-129329167D01*
X223739312Y-129241707D01*
X223729232Y-129145802D01*
X223729232Y-129145800D01*
X223728542Y-129139239D01*
X223669527Y-128957611D01*
X223574040Y-128792223D01*
X223446253Y-128650301D01*
X223291752Y-128538049D01*
X223285724Y-128535365D01*
X223285722Y-128535364D01*
X223123319Y-128463058D01*
X223123318Y-128463058D01*
X223117288Y-128460373D01*
X223023888Y-128440520D01*
X222936944Y-128422039D01*
X222936939Y-128422039D01*
X222930487Y-128420667D01*
X222739513Y-128420667D01*
X222733061Y-128422039D01*
X222733056Y-128422039D01*
X222646112Y-128440520D01*
X222552712Y-128460373D01*
X222546682Y-128463058D01*
X222546681Y-128463058D01*
X222384278Y-128535364D01*
X222384276Y-128535365D01*
X222378248Y-128538049D01*
X222223747Y-128650301D01*
X222095960Y-128792223D01*
X222000473Y-128957611D01*
X221941458Y-129139239D01*
X221940768Y-129145800D01*
X221940768Y-129145802D01*
X221932235Y-129226995D01*
X221905222Y-129292652D01*
X221847001Y-129333282D01*
X221776056Y-129335985D01*
X221717830Y-129302920D01*
X221659776Y-129244866D01*
X221486558Y-129123578D01*
X221481580Y-129121257D01*
X221481577Y-129121255D01*
X221299892Y-129036534D01*
X221299891Y-129036533D01*
X221294910Y-129034211D01*
X221289602Y-129032789D01*
X221289600Y-129032788D01*
X221095970Y-128980905D01*
X221095968Y-128980905D01*
X221090655Y-128979481D01*
X220880000Y-128961051D01*
X220669345Y-128979481D01*
X220664032Y-128980905D01*
X220664030Y-128980905D01*
X220470400Y-129032788D01*
X220470398Y-129032789D01*
X220465090Y-129034211D01*
X220460109Y-129036533D01*
X220460108Y-129036534D01*
X220278423Y-129121255D01*
X220278420Y-129121257D01*
X220273442Y-129123578D01*
X220100224Y-129244866D01*
X219950699Y-129394391D01*
X219829411Y-129567609D01*
X219827090Y-129572587D01*
X219827088Y-129572590D01*
X219767339Y-129700723D01*
X219740044Y-129759257D01*
X219738622Y-129764565D01*
X219738621Y-129764567D01*
X219690719Y-129943341D01*
X219685314Y-129963512D01*
X219666884Y-130174167D01*
X218006023Y-130174167D01*
X218013547Y-126569167D01*
X232196496Y-126569167D01*
X232216458Y-126759095D01*
X232275473Y-126940723D01*
X232370960Y-127106111D01*
X232498747Y-127248033D01*
X232653248Y-127360285D01*
X232659276Y-127362969D01*
X232659278Y-127362970D01*
X232821681Y-127435276D01*
X232827712Y-127437961D01*
X232921112Y-127457814D01*
X233008056Y-127476295D01*
X233008061Y-127476295D01*
X233014513Y-127477667D01*
X233205487Y-127477667D01*
X233211939Y-127476295D01*
X233211944Y-127476295D01*
X233298888Y-127457814D01*
X233392288Y-127437961D01*
X233398319Y-127435276D01*
X233560722Y-127362970D01*
X233560724Y-127362969D01*
X233566752Y-127360285D01*
X233721253Y-127248033D01*
X233849040Y-127106111D01*
X233944527Y-126940723D01*
X234003542Y-126759095D01*
X234023504Y-126569167D01*
X234003542Y-126379239D01*
X233944527Y-126197611D01*
X233849040Y-126032223D01*
X233721253Y-125890301D01*
X233566752Y-125778049D01*
X233560724Y-125775365D01*
X233560722Y-125775364D01*
X233398319Y-125703058D01*
X233398318Y-125703058D01*
X233392288Y-125700373D01*
X233298887Y-125680520D01*
X233211944Y-125662039D01*
X233211939Y-125662039D01*
X233205487Y-125660667D01*
X233014513Y-125660667D01*
X233008061Y-125662039D01*
X233008056Y-125662039D01*
X232921113Y-125680520D01*
X232827712Y-125700373D01*
X232821682Y-125703058D01*
X232821681Y-125703058D01*
X232659278Y-125775364D01*
X232659276Y-125775365D01*
X232653248Y-125778049D01*
X232498747Y-125890301D01*
X232370960Y-126032223D01*
X232275473Y-126197611D01*
X232216458Y-126379239D01*
X232196496Y-126569167D01*
X218013547Y-126569167D01*
X218019913Y-123519167D01*
X232466496Y-123519167D01*
X232486458Y-123709095D01*
X232545473Y-123890723D01*
X232640960Y-124056111D01*
X232768747Y-124198033D01*
X232923248Y-124310285D01*
X232929276Y-124312969D01*
X232929278Y-124312970D01*
X233091681Y-124385276D01*
X233097712Y-124387961D01*
X233191112Y-124407814D01*
X233278056Y-124426295D01*
X233278061Y-124426295D01*
X233284513Y-124427667D01*
X233475487Y-124427667D01*
X233481939Y-124426295D01*
X233481944Y-124426295D01*
X233568888Y-124407814D01*
X233662288Y-124387961D01*
X233668319Y-124385276D01*
X233830722Y-124312970D01*
X233830724Y-124312969D01*
X233836752Y-124310285D01*
X233991253Y-124198033D01*
X234119040Y-124056111D01*
X234214527Y-123890723D01*
X234273542Y-123709095D01*
X234293504Y-123519167D01*
X234273542Y-123329239D01*
X234214527Y-123147611D01*
X234119040Y-122982223D01*
X233991253Y-122840301D01*
X233836752Y-122728049D01*
X233830724Y-122725365D01*
X233830722Y-122725364D01*
X233668319Y-122653058D01*
X233668318Y-122653058D01*
X233662288Y-122650373D01*
X233568887Y-122630520D01*
X233481944Y-122612039D01*
X233481939Y-122612039D01*
X233475487Y-122610667D01*
X233284513Y-122610667D01*
X233278061Y-122612039D01*
X233278056Y-122612039D01*
X233191113Y-122630520D01*
X233097712Y-122650373D01*
X233091682Y-122653058D01*
X233091681Y-122653058D01*
X232929278Y-122725364D01*
X232929276Y-122725365D01*
X232923248Y-122728049D01*
X232768747Y-122840301D01*
X232640960Y-122982223D01*
X232545473Y-123147611D01*
X232486458Y-123329239D01*
X232466496Y-123519167D01*
X218019913Y-123519167D01*
X218030698Y-118351389D01*
X221129662Y-118351389D01*
X221148092Y-118562044D01*
X221202822Y-118766299D01*
X221292189Y-118957947D01*
X221413477Y-119131165D01*
X221563002Y-119280690D01*
X221736220Y-119401978D01*
X221741198Y-119404299D01*
X221741201Y-119404301D01*
X221893809Y-119475463D01*
X221927868Y-119491345D01*
X221933176Y-119492767D01*
X221933178Y-119492768D01*
X222126808Y-119544651D01*
X222126810Y-119544651D01*
X222132123Y-119546075D01*
X222342778Y-119564505D01*
X222553433Y-119546075D01*
X222558746Y-119544651D01*
X222558748Y-119544651D01*
X222752378Y-119492768D01*
X222752380Y-119492767D01*
X222757688Y-119491345D01*
X222791747Y-119475463D01*
X222944355Y-119404301D01*
X222944358Y-119404299D01*
X222949336Y-119401978D01*
X223122554Y-119280690D01*
X223272079Y-119131165D01*
X223393367Y-118957947D01*
X223482734Y-118766299D01*
X223537464Y-118562044D01*
X223555894Y-118351389D01*
X224142440Y-118351389D01*
X224160870Y-118562044D01*
X224215600Y-118766299D01*
X224304967Y-118957947D01*
X224426255Y-119131165D01*
X224575780Y-119280690D01*
X224748998Y-119401978D01*
X224753976Y-119404299D01*
X224753979Y-119404301D01*
X224906587Y-119475463D01*
X224940646Y-119491345D01*
X224945954Y-119492767D01*
X224945956Y-119492768D01*
X225139586Y-119544651D01*
X225139588Y-119544651D01*
X225144901Y-119546075D01*
X225355556Y-119564505D01*
X225566211Y-119546075D01*
X225571524Y-119544651D01*
X225571526Y-119544651D01*
X225765156Y-119492768D01*
X225765158Y-119492767D01*
X225770466Y-119491345D01*
X225804525Y-119475463D01*
X225957133Y-119404301D01*
X225957136Y-119404299D01*
X225962114Y-119401978D01*
X226013996Y-119365650D01*
X227668628Y-119365650D01*
X227677924Y-119377665D01*
X227707523Y-119398390D01*
X227717011Y-119403868D01*
X227898611Y-119488548D01*
X227908905Y-119492296D01*
X228102456Y-119544158D01*
X228113243Y-119546060D01*
X228312859Y-119563524D01*
X228323809Y-119563524D01*
X228523425Y-119546060D01*
X228534212Y-119544158D01*
X228727763Y-119492296D01*
X228738057Y-119488548D01*
X228919657Y-119403868D01*
X228929145Y-119398390D01*
X228959582Y-119377078D01*
X228967957Y-119366601D01*
X228960888Y-119353153D01*
X228331146Y-118723411D01*
X228317202Y-118715797D01*
X228315369Y-118715928D01*
X228308754Y-118720179D01*
X227675058Y-119353875D01*
X227668628Y-119365650D01*
X226013996Y-119365650D01*
X226135332Y-119280690D01*
X226284857Y-119131165D01*
X226406145Y-118957947D01*
X226495512Y-118766299D01*
X226550242Y-118562044D01*
X226568193Y-118356864D01*
X227106199Y-118356864D01*
X227123663Y-118556480D01*
X227125565Y-118567267D01*
X227177427Y-118760818D01*
X227181175Y-118771112D01*
X227265855Y-118952712D01*
X227271333Y-118962200D01*
X227292645Y-118992637D01*
X227303122Y-119001012D01*
X227316570Y-118993943D01*
X227946312Y-118364201D01*
X227952690Y-118352521D01*
X228682742Y-118352521D01*
X228682873Y-118354354D01*
X228687124Y-118360969D01*
X229320820Y-118994665D01*
X229332595Y-119001095D01*
X229344610Y-118991799D01*
X229365335Y-118962200D01*
X229370813Y-118952712D01*
X229455493Y-118771112D01*
X229459241Y-118760818D01*
X229511103Y-118567267D01*
X229513005Y-118556480D01*
X229530469Y-118356864D01*
X229530469Y-118351389D01*
X230167996Y-118351389D01*
X230186426Y-118562044D01*
X230241156Y-118766299D01*
X230330523Y-118957947D01*
X230451811Y-119131165D01*
X230601336Y-119280690D01*
X230774554Y-119401978D01*
X230779532Y-119404299D01*
X230779535Y-119404301D01*
X230932143Y-119475463D01*
X230966202Y-119491345D01*
X230971510Y-119492767D01*
X230971512Y-119492768D01*
X231009014Y-119502816D01*
X231047693Y-119513180D01*
X231108315Y-119550132D01*
X231139336Y-119613992D01*
X231130908Y-119684487D01*
X231085705Y-119739234D01*
X231066331Y-119749993D01*
X231049283Y-119757583D01*
X231049275Y-119757588D01*
X231043248Y-119760271D01*
X230888747Y-119872523D01*
X230760960Y-120014445D01*
X230665473Y-120179833D01*
X230606458Y-120361461D01*
X230586496Y-120551389D01*
X230606458Y-120741317D01*
X230665473Y-120922945D01*
X230760960Y-121088333D01*
X230888747Y-121230255D01*
X231043248Y-121342507D01*
X231049276Y-121345191D01*
X231049278Y-121345192D01*
X231211681Y-121417498D01*
X231217712Y-121420183D01*
X231311113Y-121440036D01*
X231398056Y-121458517D01*
X231398061Y-121458517D01*
X231404513Y-121459889D01*
X231595487Y-121459889D01*
X231601939Y-121458517D01*
X231601944Y-121458517D01*
X231688887Y-121440036D01*
X231782288Y-121420183D01*
X231788319Y-121417498D01*
X231950722Y-121345192D01*
X231950724Y-121345191D01*
X231956752Y-121342507D01*
X232111253Y-121230255D01*
X232239040Y-121088333D01*
X232334527Y-120922945D01*
X232393542Y-120741317D01*
X232413504Y-120551389D01*
X232393542Y-120361461D01*
X232334527Y-120179833D01*
X232239040Y-120014445D01*
X232111253Y-119872523D01*
X231956752Y-119760271D01*
X231950726Y-119757588D01*
X231950719Y-119757584D01*
X231832083Y-119704765D01*
X231777987Y-119658785D01*
X231757337Y-119590858D01*
X231776689Y-119522550D01*
X231830081Y-119475463D01*
X231982689Y-119404301D01*
X231982692Y-119404299D01*
X231987670Y-119401978D01*
X232160888Y-119280690D01*
X232310413Y-119131165D01*
X232431701Y-118957947D01*
X232521068Y-118766299D01*
X232575798Y-118562044D01*
X232594228Y-118351389D01*
X232575798Y-118140734D01*
X232521068Y-117936479D01*
X232431701Y-117744831D01*
X232310413Y-117571613D01*
X232160888Y-117422088D01*
X231987670Y-117300800D01*
X231982692Y-117298479D01*
X231982689Y-117298477D01*
X231801004Y-117213756D01*
X231801003Y-117213755D01*
X231796022Y-117211433D01*
X231790714Y-117210011D01*
X231790712Y-117210010D01*
X231597082Y-117158127D01*
X231597080Y-117158127D01*
X231591767Y-117156703D01*
X231381112Y-117138273D01*
X231170457Y-117156703D01*
X231165144Y-117158127D01*
X231165142Y-117158127D01*
X230971512Y-117210010D01*
X230971510Y-117210011D01*
X230966202Y-117211433D01*
X230961221Y-117213755D01*
X230961220Y-117213756D01*
X230779535Y-117298477D01*
X230779532Y-117298479D01*
X230774554Y-117300800D01*
X230601336Y-117422088D01*
X230451811Y-117571613D01*
X230330523Y-117744831D01*
X230241156Y-117936479D01*
X230186426Y-118140734D01*
X230167996Y-118351389D01*
X229530469Y-118351389D01*
X229530469Y-118345914D01*
X229513005Y-118146298D01*
X229511103Y-118135511D01*
X229459241Y-117941960D01*
X229455493Y-117931666D01*
X229370813Y-117750066D01*
X229365335Y-117740578D01*
X229344023Y-117710141D01*
X229333546Y-117701766D01*
X229320098Y-117708835D01*
X228690356Y-118338577D01*
X228682742Y-118352521D01*
X227952690Y-118352521D01*
X227953926Y-118350257D01*
X227953795Y-118348424D01*
X227949544Y-118341809D01*
X227315848Y-117708113D01*
X227304073Y-117701683D01*
X227292058Y-117710979D01*
X227271333Y-117740578D01*
X227265855Y-117750066D01*
X227181175Y-117931666D01*
X227177427Y-117941960D01*
X227125565Y-118135511D01*
X227123663Y-118146298D01*
X227106199Y-118345914D01*
X227106199Y-118356864D01*
X226568193Y-118356864D01*
X226568672Y-118351389D01*
X226550242Y-118140734D01*
X226495512Y-117936479D01*
X226406145Y-117744831D01*
X226284857Y-117571613D01*
X226135332Y-117422088D01*
X226012638Y-117336177D01*
X227668711Y-117336177D01*
X227675780Y-117349625D01*
X228305522Y-117979367D01*
X228319466Y-117986981D01*
X228321299Y-117986850D01*
X228327914Y-117982599D01*
X228961610Y-117348903D01*
X228968040Y-117337128D01*
X228958744Y-117325113D01*
X228929145Y-117304388D01*
X228919657Y-117298910D01*
X228738057Y-117214230D01*
X228727763Y-117210482D01*
X228534212Y-117158620D01*
X228523425Y-117156718D01*
X228323809Y-117139254D01*
X228312859Y-117139254D01*
X228113243Y-117156718D01*
X228102456Y-117158620D01*
X227908905Y-117210482D01*
X227898611Y-117214230D01*
X227717011Y-117298910D01*
X227707523Y-117304388D01*
X227677086Y-117325700D01*
X227668711Y-117336177D01*
X226012638Y-117336177D01*
X225962114Y-117300800D01*
X225957136Y-117298479D01*
X225957133Y-117298477D01*
X225775448Y-117213756D01*
X225775447Y-117213755D01*
X225770466Y-117211433D01*
X225765158Y-117210011D01*
X225765156Y-117210010D01*
X225571526Y-117158127D01*
X225571524Y-117158127D01*
X225566211Y-117156703D01*
X225355556Y-117138273D01*
X225144901Y-117156703D01*
X225139588Y-117158127D01*
X225139586Y-117158127D01*
X224945956Y-117210010D01*
X224945954Y-117210011D01*
X224940646Y-117211433D01*
X224935665Y-117213755D01*
X224935664Y-117213756D01*
X224753979Y-117298477D01*
X224753976Y-117298479D01*
X224748998Y-117300800D01*
X224575780Y-117422088D01*
X224426255Y-117571613D01*
X224304967Y-117744831D01*
X224215600Y-117936479D01*
X224160870Y-118140734D01*
X224142440Y-118351389D01*
X223555894Y-118351389D01*
X223537464Y-118140734D01*
X223482734Y-117936479D01*
X223393367Y-117744831D01*
X223272079Y-117571613D01*
X223122554Y-117422088D01*
X222949336Y-117300800D01*
X222944358Y-117298479D01*
X222944355Y-117298477D01*
X222762670Y-117213756D01*
X222762669Y-117213755D01*
X222757688Y-117211433D01*
X222752380Y-117210011D01*
X222752378Y-117210010D01*
X222558748Y-117158127D01*
X222558746Y-117158127D01*
X222553433Y-117156703D01*
X222342778Y-117138273D01*
X222132123Y-117156703D01*
X222126810Y-117158127D01*
X222126808Y-117158127D01*
X221933178Y-117210010D01*
X221933176Y-117210011D01*
X221927868Y-117211433D01*
X221922887Y-117213755D01*
X221922886Y-117213756D01*
X221741201Y-117298477D01*
X221741198Y-117298479D01*
X221736220Y-117300800D01*
X221563002Y-117422088D01*
X221413477Y-117571613D01*
X221292189Y-117744831D01*
X221202822Y-117936479D01*
X221148092Y-118140734D01*
X221129662Y-118351389D01*
X218030698Y-118351389D01*
X218036145Y-115741389D01*
X222482995Y-115741389D01*
X222501425Y-115952044D01*
X222556155Y-116156299D01*
X222645522Y-116347947D01*
X222766810Y-116521165D01*
X222916335Y-116670690D01*
X223089553Y-116791978D01*
X223094531Y-116794299D01*
X223094534Y-116794301D01*
X223275203Y-116878548D01*
X223281201Y-116881345D01*
X223286509Y-116882767D01*
X223286511Y-116882768D01*
X223480141Y-116934651D01*
X223480143Y-116934651D01*
X223485456Y-116936075D01*
X223696111Y-116954505D01*
X223906766Y-116936075D01*
X223912079Y-116934651D01*
X223912081Y-116934651D01*
X224105711Y-116882768D01*
X224105713Y-116882767D01*
X224111021Y-116881345D01*
X224117019Y-116878548D01*
X224297688Y-116794301D01*
X224297691Y-116794299D01*
X224302669Y-116791978D01*
X224475887Y-116670690D01*
X224625412Y-116521165D01*
X224746700Y-116347947D01*
X224836067Y-116156299D01*
X224890797Y-115952044D01*
X224909227Y-115741389D01*
X225506884Y-115741389D01*
X225525314Y-115952044D01*
X225580044Y-116156299D01*
X225669411Y-116347947D01*
X225790699Y-116521165D01*
X225940224Y-116670690D01*
X226113442Y-116791978D01*
X226118420Y-116794299D01*
X226118423Y-116794301D01*
X226299092Y-116878548D01*
X226305090Y-116881345D01*
X226310398Y-116882767D01*
X226310400Y-116882768D01*
X226504030Y-116934651D01*
X226504032Y-116934651D01*
X226509345Y-116936075D01*
X226720000Y-116954505D01*
X226930655Y-116936075D01*
X226935968Y-116934651D01*
X226935970Y-116934651D01*
X227129600Y-116882768D01*
X227129602Y-116882767D01*
X227134910Y-116881345D01*
X227140908Y-116878548D01*
X227321577Y-116794301D01*
X227321580Y-116794299D01*
X227326558Y-116791978D01*
X227378440Y-116755650D01*
X229044183Y-116755650D01*
X229053479Y-116767665D01*
X229083078Y-116788390D01*
X229092566Y-116793868D01*
X229274166Y-116878548D01*
X229284460Y-116882296D01*
X229478011Y-116934158D01*
X229488798Y-116936060D01*
X229688414Y-116953524D01*
X229699364Y-116953524D01*
X229898980Y-116936060D01*
X229909767Y-116934158D01*
X230103318Y-116882296D01*
X230113612Y-116878548D01*
X230295212Y-116793868D01*
X230304700Y-116788390D01*
X230335137Y-116767078D01*
X230343512Y-116756601D01*
X230336443Y-116743153D01*
X229706701Y-116113411D01*
X229692757Y-116105797D01*
X229690924Y-116105928D01*
X229684309Y-116110179D01*
X229050613Y-116743875D01*
X229044183Y-116755650D01*
X227378440Y-116755650D01*
X227499776Y-116670690D01*
X227649301Y-116521165D01*
X227770589Y-116347947D01*
X227859956Y-116156299D01*
X227914686Y-115952044D01*
X227932637Y-115746864D01*
X228481754Y-115746864D01*
X228499218Y-115946480D01*
X228501120Y-115957267D01*
X228552982Y-116150818D01*
X228556730Y-116161112D01*
X228641410Y-116342712D01*
X228646888Y-116352200D01*
X228668200Y-116382637D01*
X228678677Y-116391012D01*
X228692125Y-116383943D01*
X229321867Y-115754201D01*
X229328245Y-115742521D01*
X230058297Y-115742521D01*
X230058428Y-115744354D01*
X230062679Y-115750969D01*
X230696375Y-116384665D01*
X230708150Y-116391095D01*
X230720165Y-116381799D01*
X230740890Y-116352200D01*
X230746368Y-116342712D01*
X230831048Y-116161112D01*
X230834796Y-116150818D01*
X230886658Y-115957267D01*
X230888560Y-115946480D01*
X230906024Y-115746864D01*
X230906024Y-115741389D01*
X231554662Y-115741389D01*
X231573092Y-115952044D01*
X231627822Y-116156299D01*
X231717189Y-116347947D01*
X231838477Y-116521165D01*
X231988002Y-116670690D01*
X232161220Y-116791978D01*
X232166198Y-116794299D01*
X232166201Y-116794301D01*
X232346870Y-116878548D01*
X232352868Y-116881345D01*
X232358176Y-116882767D01*
X232358178Y-116882768D01*
X232551808Y-116934651D01*
X232551810Y-116934651D01*
X232557123Y-116936075D01*
X232767778Y-116954505D01*
X232978433Y-116936075D01*
X232983746Y-116934651D01*
X232983748Y-116934651D01*
X233177378Y-116882768D01*
X233177380Y-116882767D01*
X233182688Y-116881345D01*
X233188686Y-116878548D01*
X233369355Y-116794301D01*
X233369358Y-116794299D01*
X233374336Y-116791978D01*
X233547554Y-116670690D01*
X233697079Y-116521165D01*
X233818367Y-116347947D01*
X233907734Y-116156299D01*
X233962464Y-115952044D01*
X233980894Y-115741389D01*
X233962464Y-115530734D01*
X233907734Y-115326479D01*
X233818367Y-115134831D01*
X233697079Y-114961613D01*
X233547554Y-114812088D01*
X233374336Y-114690800D01*
X233369358Y-114688479D01*
X233369355Y-114688477D01*
X233187670Y-114603756D01*
X233187669Y-114603755D01*
X233182688Y-114601433D01*
X233177380Y-114600011D01*
X233177378Y-114600010D01*
X232983748Y-114548127D01*
X232983746Y-114548127D01*
X232978433Y-114546703D01*
X232767778Y-114528273D01*
X232557123Y-114546703D01*
X232551810Y-114548127D01*
X232551808Y-114548127D01*
X232358178Y-114600010D01*
X232358176Y-114600011D01*
X232352868Y-114601433D01*
X232347887Y-114603755D01*
X232347886Y-114603756D01*
X232166201Y-114688477D01*
X232166198Y-114688479D01*
X232161220Y-114690800D01*
X231988002Y-114812088D01*
X231838477Y-114961613D01*
X231717189Y-115134831D01*
X231627822Y-115326479D01*
X231573092Y-115530734D01*
X231554662Y-115741389D01*
X230906024Y-115741389D01*
X230906024Y-115735914D01*
X230888560Y-115536298D01*
X230886658Y-115525511D01*
X230834796Y-115331960D01*
X230831048Y-115321666D01*
X230746368Y-115140066D01*
X230740890Y-115130578D01*
X230719578Y-115100141D01*
X230709101Y-115091766D01*
X230695653Y-115098835D01*
X230065911Y-115728577D01*
X230058297Y-115742521D01*
X229328245Y-115742521D01*
X229329481Y-115740257D01*
X229329350Y-115738424D01*
X229325099Y-115731809D01*
X228691403Y-115098113D01*
X228679628Y-115091683D01*
X228667613Y-115100979D01*
X228646888Y-115130578D01*
X228641410Y-115140066D01*
X228556730Y-115321666D01*
X228552982Y-115331960D01*
X228501120Y-115525511D01*
X228499218Y-115536298D01*
X228481754Y-115735914D01*
X228481754Y-115746864D01*
X227932637Y-115746864D01*
X227933116Y-115741389D01*
X227914686Y-115530734D01*
X227859956Y-115326479D01*
X227770589Y-115134831D01*
X227649301Y-114961613D01*
X227499776Y-114812088D01*
X227377082Y-114726177D01*
X229044266Y-114726177D01*
X229051335Y-114739625D01*
X229681077Y-115369367D01*
X229695021Y-115376981D01*
X229696854Y-115376850D01*
X229703469Y-115372599D01*
X230337165Y-114738903D01*
X230343595Y-114727128D01*
X230334299Y-114715113D01*
X230304700Y-114694388D01*
X230295212Y-114688910D01*
X230113612Y-114604230D01*
X230103318Y-114600482D01*
X229909767Y-114548620D01*
X229898980Y-114546718D01*
X229699364Y-114529254D01*
X229688414Y-114529254D01*
X229488798Y-114546718D01*
X229478011Y-114548620D01*
X229284460Y-114600482D01*
X229274166Y-114604230D01*
X229092566Y-114688910D01*
X229083078Y-114694388D01*
X229052641Y-114715700D01*
X229044266Y-114726177D01*
X227377082Y-114726177D01*
X227326558Y-114690800D01*
X227321580Y-114688479D01*
X227321577Y-114688477D01*
X227139892Y-114603756D01*
X227139891Y-114603755D01*
X227134910Y-114601433D01*
X227129602Y-114600011D01*
X227129600Y-114600010D01*
X226935970Y-114548127D01*
X226935968Y-114548127D01*
X226930655Y-114546703D01*
X226720000Y-114528273D01*
X226509345Y-114546703D01*
X226504032Y-114548127D01*
X226504030Y-114548127D01*
X226310400Y-114600010D01*
X226310398Y-114600011D01*
X226305090Y-114601433D01*
X226300109Y-114603755D01*
X226300108Y-114603756D01*
X226118423Y-114688477D01*
X226118420Y-114688479D01*
X226113442Y-114690800D01*
X225940224Y-114812088D01*
X225790699Y-114961613D01*
X225669411Y-115134831D01*
X225580044Y-115326479D01*
X225525314Y-115530734D01*
X225506884Y-115741389D01*
X224909227Y-115741389D01*
X224890797Y-115530734D01*
X224836067Y-115326479D01*
X224746700Y-115134831D01*
X224625412Y-114961613D01*
X224475887Y-114812088D01*
X224302669Y-114690800D01*
X224297691Y-114688479D01*
X224297688Y-114688477D01*
X224116003Y-114603756D01*
X224116002Y-114603755D01*
X224111021Y-114601433D01*
X224105713Y-114600011D01*
X224105711Y-114600010D01*
X223912081Y-114548127D01*
X223912079Y-114548127D01*
X223906766Y-114546703D01*
X223696111Y-114528273D01*
X223485456Y-114546703D01*
X223480143Y-114548127D01*
X223480141Y-114548127D01*
X223286511Y-114600010D01*
X223286509Y-114600011D01*
X223281201Y-114601433D01*
X223276220Y-114603755D01*
X223276219Y-114603756D01*
X223094534Y-114688477D01*
X223094531Y-114688479D01*
X223089553Y-114690800D01*
X222916335Y-114812088D01*
X222766810Y-114961613D01*
X222645522Y-115134831D01*
X222556155Y-115326479D01*
X222501425Y-115530734D01*
X222482995Y-115741389D01*
X218036145Y-115741389D01*
X218057178Y-105664237D01*
X218077322Y-105596158D01*
X218131075Y-105549777D01*
X218183178Y-105538500D01*
X222441377Y-105538500D01*
X222442148Y-105538502D01*
X222519721Y-105538976D01*
X222548152Y-105530850D01*
X222564915Y-105527272D01*
X222594187Y-105523080D01*
X222617564Y-105512451D01*
X222635087Y-105506004D01*
X222659771Y-105498949D01*
X222667365Y-105494157D01*
X222667368Y-105494156D01*
X222684780Y-105483170D01*
X222699865Y-105475030D01*
X222726782Y-105462792D01*
X222746235Y-105446030D01*
X222761239Y-105434927D01*
X222782958Y-105421224D01*
X222788897Y-105414499D01*
X222788901Y-105414496D01*
X222802532Y-105399062D01*
X222814724Y-105387018D01*
X222830327Y-105373573D01*
X222830329Y-105373570D01*
X222837127Y-105367713D01*
X222851094Y-105346165D01*
X222862385Y-105331291D01*
X222873431Y-105318783D01*
X222873432Y-105318782D01*
X222879378Y-105312049D01*
X222891943Y-105285287D01*
X222900263Y-105270309D01*
X222911471Y-105253017D01*
X222911473Y-105253012D01*
X222916352Y-105245485D01*
X222918922Y-105236892D01*
X222918924Y-105236887D01*
X222923711Y-105220880D01*
X222930372Y-105203436D01*
X222937467Y-105188324D01*
X222937468Y-105188322D01*
X222941281Y-105180200D01*
X222945830Y-105150983D01*
X222949613Y-105134268D01*
X222955515Y-105114534D01*
X222955516Y-105114528D01*
X222958086Y-105105934D01*
X222958296Y-105071494D01*
X222958329Y-105070711D01*
X222958500Y-105069614D01*
X222958500Y-105039281D01*
X222978502Y-104971160D01*
X223032158Y-104924667D01*
X223084484Y-104913281D01*
X231817624Y-104912163D01*
X231885747Y-104932156D01*
G37*
%TD.AperFunction*%
%TD*%
M02*
