%TF.GenerationSoftware,KiCad,Pcbnew,(6.0.7)*%
%TF.CreationDate,2023-02-07T15:13:14-05:00*%
%TF.ProjectId,DCA_USMR_Sens,4443415f-5553-44d5-925f-53656e732e6b,v1.1*%
%TF.SameCoordinates,Original*%
%TF.FileFunction,Legend,Top*%
%TF.FilePolarity,Positive*%
%FSLAX46Y46*%
G04 Gerber Fmt 4.6, Leading zero omitted, Abs format (unit mm)*
G04 Created by KiCad (PCBNEW (6.0.7)) date 2023-02-07 15:13:14*
%MOMM*%
%LPD*%
G01*
G04 APERTURE LIST*
%ADD10C,0.150000*%
%ADD11C,0.120000*%
%ADD12C,0.200000*%
%ADD13C,0.127000*%
%ADD14C,0.300000*%
%ADD15C,0.240000*%
G04 APERTURE END LIST*
D10*
X218921428Y-105768095D02*
X218921428Y-106101428D01*
X218397619Y-106244285D02*
X218397619Y-105768095D01*
X219397619Y-105768095D01*
X219397619Y-106244285D01*
X218397619Y-106672857D02*
X219397619Y-106672857D01*
X218397619Y-107244285D01*
X219397619Y-107244285D01*
X219350000Y-108244285D02*
X219397619Y-108149047D01*
X219397619Y-108006190D01*
X219350000Y-107863333D01*
X219254761Y-107768095D01*
X219159523Y-107720476D01*
X218969047Y-107672857D01*
X218826190Y-107672857D01*
X218635714Y-107720476D01*
X218540476Y-107768095D01*
X218445238Y-107863333D01*
X218397619Y-108006190D01*
X218397619Y-108101428D01*
X218445238Y-108244285D01*
X218492857Y-108291904D01*
X218826190Y-108291904D01*
X218826190Y-108101428D01*
X218397619Y-108720476D02*
X219397619Y-108720476D01*
X218397619Y-109196666D02*
X219397619Y-109196666D01*
X218397619Y-109768095D01*
X219397619Y-109768095D01*
X218921428Y-110244285D02*
X218921428Y-110577619D01*
X218397619Y-110720476D02*
X218397619Y-110244285D01*
X219397619Y-110244285D01*
X219397619Y-110720476D01*
X218921428Y-111149047D02*
X218921428Y-111482380D01*
X218397619Y-111625238D02*
X218397619Y-111149047D01*
X219397619Y-111149047D01*
X219397619Y-111625238D01*
X218397619Y-112625238D02*
X218873809Y-112291904D01*
X218397619Y-112053809D02*
X219397619Y-112053809D01*
X219397619Y-112434761D01*
X219350000Y-112530000D01*
X219302380Y-112577619D01*
X219207142Y-112625238D01*
X219064285Y-112625238D01*
X218969047Y-112577619D01*
X218921428Y-112530000D01*
X218873809Y-112434761D01*
X218873809Y-112053809D01*
X218397619Y-113053809D02*
X219397619Y-113053809D01*
X218397619Y-113530000D02*
X219397619Y-113530000D01*
X218397619Y-114101428D01*
X219397619Y-114101428D01*
X219350000Y-115101428D02*
X219397619Y-115006190D01*
X219397619Y-114863333D01*
X219350000Y-114720476D01*
X219254761Y-114625238D01*
X219159523Y-114577619D01*
X218969047Y-114530000D01*
X218826190Y-114530000D01*
X218635714Y-114577619D01*
X218540476Y-114625238D01*
X218445238Y-114720476D01*
X218397619Y-114863333D01*
X218397619Y-114958571D01*
X218445238Y-115101428D01*
X218492857Y-115149047D01*
X218826190Y-115149047D01*
X218826190Y-114958571D01*
X218921428Y-116672857D02*
X218873809Y-116815714D01*
X218826190Y-116863333D01*
X218730952Y-116910952D01*
X218588095Y-116910952D01*
X218492857Y-116863333D01*
X218445238Y-116815714D01*
X218397619Y-116720476D01*
X218397619Y-116339523D01*
X219397619Y-116339523D01*
X219397619Y-116672857D01*
X219350000Y-116768095D01*
X219302380Y-116815714D01*
X219207142Y-116863333D01*
X219111904Y-116863333D01*
X219016666Y-116815714D01*
X218969047Y-116768095D01*
X218921428Y-116672857D01*
X218921428Y-116339523D01*
X219397619Y-117530000D02*
X219397619Y-117720476D01*
X219350000Y-117815714D01*
X219254761Y-117910952D01*
X219064285Y-117958571D01*
X218730952Y-117958571D01*
X218540476Y-117910952D01*
X218445238Y-117815714D01*
X218397619Y-117720476D01*
X218397619Y-117530000D01*
X218445238Y-117434761D01*
X218540476Y-117339523D01*
X218730952Y-117291904D01*
X219064285Y-117291904D01*
X219254761Y-117339523D01*
X219350000Y-117434761D01*
X219397619Y-117530000D01*
X218683333Y-118339523D02*
X218683333Y-118815714D01*
X218397619Y-118244285D02*
X219397619Y-118577619D01*
X218397619Y-118910952D01*
X218397619Y-119815714D02*
X218873809Y-119482380D01*
X218397619Y-119244285D02*
X219397619Y-119244285D01*
X219397619Y-119625238D01*
X219350000Y-119720476D01*
X219302380Y-119768095D01*
X219207142Y-119815714D01*
X219064285Y-119815714D01*
X218969047Y-119768095D01*
X218921428Y-119720476D01*
X218873809Y-119625238D01*
X218873809Y-119244285D01*
X218397619Y-120244285D02*
X219397619Y-120244285D01*
X219397619Y-120482380D01*
X219350000Y-120625238D01*
X219254761Y-120720476D01*
X219159523Y-120768095D01*
X218969047Y-120815714D01*
X218826190Y-120815714D01*
X218635714Y-120768095D01*
X218540476Y-120720476D01*
X218445238Y-120625238D01*
X218397619Y-120482380D01*
X218397619Y-120244285D01*
X219064285Y-121910952D02*
X218397619Y-122149047D01*
X219064285Y-122387142D01*
X218397619Y-123291904D02*
X218397619Y-122720476D01*
X218397619Y-123006190D02*
X219397619Y-123006190D01*
X219254761Y-122910952D01*
X219159523Y-122815714D01*
X219111904Y-122720476D01*
X218492857Y-123720476D02*
X218445238Y-123768095D01*
X218397619Y-123720476D01*
X218445238Y-123672857D01*
X218492857Y-123720476D01*
X218397619Y-123720476D01*
X219302380Y-124149047D02*
X219350000Y-124196666D01*
X219397619Y-124291904D01*
X219397619Y-124530000D01*
X219350000Y-124625238D01*
X219302380Y-124672857D01*
X219207142Y-124720476D01*
X219111904Y-124720476D01*
X218969047Y-124672857D01*
X218397619Y-124101428D01*
X218397619Y-124720476D01*
X218397619Y-125910952D02*
X219397619Y-125910952D01*
X219397619Y-126149047D01*
X219350000Y-126291904D01*
X219254761Y-126387142D01*
X219159523Y-126434761D01*
X218969047Y-126482380D01*
X218826190Y-126482380D01*
X218635714Y-126434761D01*
X218540476Y-126387142D01*
X218445238Y-126291904D01*
X218397619Y-126149047D01*
X218397619Y-125910952D01*
X218492857Y-127482380D02*
X218445238Y-127434761D01*
X218397619Y-127291904D01*
X218397619Y-127196666D01*
X218445238Y-127053809D01*
X218540476Y-126958571D01*
X218635714Y-126910952D01*
X218826190Y-126863333D01*
X218969047Y-126863333D01*
X219159523Y-126910952D01*
X219254761Y-126958571D01*
X219350000Y-127053809D01*
X219397619Y-127196666D01*
X219397619Y-127291904D01*
X219350000Y-127434761D01*
X219302380Y-127482380D01*
X218683333Y-127863333D02*
X218683333Y-128339523D01*
X218397619Y-127768095D02*
X219397619Y-128101428D01*
X218397619Y-128434761D01*
%TO.C,C2*%
X226023333Y-136581309D02*
X225975714Y-136628928D01*
X225832857Y-136676547D01*
X225737619Y-136676547D01*
X225594761Y-136628928D01*
X225499523Y-136533690D01*
X225451904Y-136438452D01*
X225404285Y-136247976D01*
X225404285Y-136105119D01*
X225451904Y-135914643D01*
X225499523Y-135819405D01*
X225594761Y-135724167D01*
X225737619Y-135676547D01*
X225832857Y-135676547D01*
X225975714Y-135724167D01*
X226023333Y-135771786D01*
X226404285Y-135771786D02*
X226451904Y-135724167D01*
X226547142Y-135676547D01*
X226785238Y-135676547D01*
X226880476Y-135724167D01*
X226928095Y-135771786D01*
X226975714Y-135867024D01*
X226975714Y-135962262D01*
X226928095Y-136105119D01*
X226356666Y-136676547D01*
X226975714Y-136676547D01*
%TO.C,U5*%
X226898095Y-128876547D02*
X226898095Y-129686071D01*
X226945714Y-129781309D01*
X226993333Y-129828928D01*
X227088571Y-129876547D01*
X227279047Y-129876547D01*
X227374285Y-129828928D01*
X227421904Y-129781309D01*
X227469523Y-129686071D01*
X227469523Y-128876547D01*
X228421904Y-128876547D02*
X227945714Y-128876547D01*
X227898095Y-129352738D01*
X227945714Y-129305119D01*
X228040952Y-129257500D01*
X228279047Y-129257500D01*
X228374285Y-129305119D01*
X228421904Y-129352738D01*
X228469523Y-129447976D01*
X228469523Y-129686071D01*
X228421904Y-129781309D01*
X228374285Y-129828928D01*
X228279047Y-129876547D01*
X228040952Y-129876547D01*
X227945714Y-129828928D01*
X227898095Y-129781309D01*
%TO.C,R4*%
X233132380Y-122620833D02*
X232656190Y-122954167D01*
X233132380Y-123192262D02*
X232132380Y-123192262D01*
X232132380Y-122811309D01*
X232180000Y-122716071D01*
X232227619Y-122668452D01*
X232322857Y-122620833D01*
X232465714Y-122620833D01*
X232560952Y-122668452D01*
X232608571Y-122716071D01*
X232656190Y-122811309D01*
X232656190Y-123192262D01*
X232465714Y-121763690D02*
X233132380Y-121763690D01*
X232084761Y-122001786D02*
X232799047Y-122239881D01*
X232799047Y-121620833D01*
%TO.C,H1*%
X219538095Y-144576547D02*
X219538095Y-143576547D01*
X219538095Y-144052738D02*
X220109523Y-144052738D01*
X220109523Y-144576547D02*
X220109523Y-143576547D01*
X221109523Y-144576547D02*
X220538095Y-144576547D01*
X220823809Y-144576547D02*
X220823809Y-143576547D01*
X220728571Y-143719405D01*
X220633333Y-143814643D01*
X220538095Y-143862262D01*
%TO.C,C3*%
X221038333Y-153156309D02*
X220990714Y-153203928D01*
X220847857Y-153251547D01*
X220752619Y-153251547D01*
X220609761Y-153203928D01*
X220514523Y-153108690D01*
X220466904Y-153013452D01*
X220419285Y-152822976D01*
X220419285Y-152680119D01*
X220466904Y-152489643D01*
X220514523Y-152394405D01*
X220609761Y-152299167D01*
X220752619Y-152251547D01*
X220847857Y-152251547D01*
X220990714Y-152299167D01*
X221038333Y-152346786D01*
X221371666Y-152251547D02*
X221990714Y-152251547D01*
X221657380Y-152632500D01*
X221800238Y-152632500D01*
X221895476Y-152680119D01*
X221943095Y-152727738D01*
X221990714Y-152822976D01*
X221990714Y-153061071D01*
X221943095Y-153156309D01*
X221895476Y-153203928D01*
X221800238Y-153251547D01*
X221514523Y-153251547D01*
X221419285Y-153203928D01*
X221371666Y-153156309D01*
%TO.C,H2*%
X219568095Y-140586547D02*
X219568095Y-139586547D01*
X219568095Y-140062738D02*
X220139523Y-140062738D01*
X220139523Y-140586547D02*
X220139523Y-139586547D01*
X220568095Y-139681786D02*
X220615714Y-139634167D01*
X220710952Y-139586547D01*
X220949047Y-139586547D01*
X221044285Y-139634167D01*
X221091904Y-139681786D01*
X221139523Y-139777024D01*
X221139523Y-139872262D01*
X221091904Y-140015119D01*
X220520476Y-140586547D01*
X221139523Y-140586547D01*
%TO.C,H7*%
X233148095Y-118913769D02*
X233148095Y-117913769D01*
X233148095Y-118389960D02*
X233719523Y-118389960D01*
X233719523Y-118913769D02*
X233719523Y-117913769D01*
X234100476Y-117913769D02*
X234767142Y-117913769D01*
X234338571Y-118913769D01*
%TO.C,R2*%
X221038333Y-149111547D02*
X220705000Y-148635357D01*
X220466904Y-149111547D02*
X220466904Y-148111547D01*
X220847857Y-148111547D01*
X220943095Y-148159167D01*
X220990714Y-148206786D01*
X221038333Y-148302024D01*
X221038333Y-148444881D01*
X220990714Y-148540119D01*
X220943095Y-148587738D01*
X220847857Y-148635357D01*
X220466904Y-148635357D01*
X221419285Y-148206786D02*
X221466904Y-148159167D01*
X221562142Y-148111547D01*
X221800238Y-148111547D01*
X221895476Y-148159167D01*
X221943095Y-148206786D01*
X221990714Y-148302024D01*
X221990714Y-148397262D01*
X221943095Y-148540119D01*
X221371666Y-149111547D01*
X221990714Y-149111547D01*
%TO.C,C8*%
X222228333Y-128726309D02*
X222180714Y-128773928D01*
X222037857Y-128821547D01*
X221942619Y-128821547D01*
X221799761Y-128773928D01*
X221704523Y-128678690D01*
X221656904Y-128583452D01*
X221609285Y-128392976D01*
X221609285Y-128250119D01*
X221656904Y-128059643D01*
X221704523Y-127964405D01*
X221799761Y-127869167D01*
X221942619Y-127821547D01*
X222037857Y-127821547D01*
X222180714Y-127869167D01*
X222228333Y-127916786D01*
X222799761Y-128250119D02*
X222704523Y-128202500D01*
X222656904Y-128154881D01*
X222609285Y-128059643D01*
X222609285Y-128012024D01*
X222656904Y-127916786D01*
X222704523Y-127869167D01*
X222799761Y-127821547D01*
X222990238Y-127821547D01*
X223085476Y-127869167D01*
X223133095Y-127916786D01*
X223180714Y-128012024D01*
X223180714Y-128059643D01*
X223133095Y-128154881D01*
X223085476Y-128202500D01*
X222990238Y-128250119D01*
X222799761Y-128250119D01*
X222704523Y-128297738D01*
X222656904Y-128345357D01*
X222609285Y-128440595D01*
X222609285Y-128631071D01*
X222656904Y-128726309D01*
X222704523Y-128773928D01*
X222799761Y-128821547D01*
X222990238Y-128821547D01*
X223085476Y-128773928D01*
X223133095Y-128726309D01*
X223180714Y-128631071D01*
X223180714Y-128440595D01*
X223133095Y-128345357D01*
X223085476Y-128297738D01*
X222990238Y-128250119D01*
%TO.C,C10*%
X232187142Y-120868531D02*
X232139523Y-120916150D01*
X231996666Y-120963769D01*
X231901428Y-120963769D01*
X231758571Y-120916150D01*
X231663333Y-120820912D01*
X231615714Y-120725674D01*
X231568095Y-120535198D01*
X231568095Y-120392341D01*
X231615714Y-120201865D01*
X231663333Y-120106627D01*
X231758571Y-120011389D01*
X231901428Y-119963769D01*
X231996666Y-119963769D01*
X232139523Y-120011389D01*
X232187142Y-120059008D01*
X233139523Y-120963769D02*
X232568095Y-120963769D01*
X232853809Y-120963769D02*
X232853809Y-119963769D01*
X232758571Y-120106627D01*
X232663333Y-120201865D01*
X232568095Y-120249484D01*
X233758571Y-119963769D02*
X233853809Y-119963769D01*
X233949047Y-120011389D01*
X233996666Y-120059008D01*
X234044285Y-120154246D01*
X234091904Y-120344722D01*
X234091904Y-120582817D01*
X234044285Y-120773293D01*
X233996666Y-120868531D01*
X233949047Y-120916150D01*
X233853809Y-120963769D01*
X233758571Y-120963769D01*
X233663333Y-120916150D01*
X233615714Y-120868531D01*
X233568095Y-120773293D01*
X233520476Y-120582817D01*
X233520476Y-120344722D01*
X233568095Y-120154246D01*
X233615714Y-120059008D01*
X233663333Y-120011389D01*
X233758571Y-119963769D01*
%TO.C,C9*%
X231533333Y-135741309D02*
X231485714Y-135788928D01*
X231342857Y-135836547D01*
X231247619Y-135836547D01*
X231104761Y-135788928D01*
X231009523Y-135693690D01*
X230961904Y-135598452D01*
X230914285Y-135407976D01*
X230914285Y-135265119D01*
X230961904Y-135074643D01*
X231009523Y-134979405D01*
X231104761Y-134884167D01*
X231247619Y-134836547D01*
X231342857Y-134836547D01*
X231485714Y-134884167D01*
X231533333Y-134931786D01*
X232009523Y-135836547D02*
X232200000Y-135836547D01*
X232295238Y-135788928D01*
X232342857Y-135741309D01*
X232438095Y-135598452D01*
X232485714Y-135407976D01*
X232485714Y-135027024D01*
X232438095Y-134931786D01*
X232390476Y-134884167D01*
X232295238Y-134836547D01*
X232104761Y-134836547D01*
X232009523Y-134884167D01*
X231961904Y-134931786D01*
X231914285Y-135027024D01*
X231914285Y-135265119D01*
X231961904Y-135360357D01*
X232009523Y-135407976D01*
X232104761Y-135455595D01*
X232295238Y-135455595D01*
X232390476Y-135407976D01*
X232438095Y-135360357D01*
X232485714Y-135265119D01*
%TO.C,H9*%
X221580873Y-120603769D02*
X221580873Y-119603769D01*
X221580873Y-120079960D02*
X222152301Y-120079960D01*
X222152301Y-120603769D02*
X222152301Y-119603769D01*
X222676111Y-120603769D02*
X222866587Y-120603769D01*
X222961825Y-120556150D01*
X223009444Y-120508531D01*
X223104682Y-120365674D01*
X223152301Y-120175198D01*
X223152301Y-119794246D01*
X223104682Y-119699008D01*
X223057063Y-119651389D01*
X222961825Y-119603769D01*
X222771349Y-119603769D01*
X222676111Y-119651389D01*
X222628492Y-119699008D01*
X222580873Y-119794246D01*
X222580873Y-120032341D01*
X222628492Y-120127579D01*
X222676111Y-120175198D01*
X222771349Y-120222817D01*
X222961825Y-120222817D01*
X223057063Y-120175198D01*
X223104682Y-120127579D01*
X223152301Y-120032341D01*
%TO.C,C5*%
X221053333Y-146906309D02*
X221005714Y-146953928D01*
X220862857Y-147001547D01*
X220767619Y-147001547D01*
X220624761Y-146953928D01*
X220529523Y-146858690D01*
X220481904Y-146763452D01*
X220434285Y-146572976D01*
X220434285Y-146430119D01*
X220481904Y-146239643D01*
X220529523Y-146144405D01*
X220624761Y-146049167D01*
X220767619Y-146001547D01*
X220862857Y-146001547D01*
X221005714Y-146049167D01*
X221053333Y-146096786D01*
X221958095Y-146001547D02*
X221481904Y-146001547D01*
X221434285Y-146477738D01*
X221481904Y-146430119D01*
X221577142Y-146382500D01*
X221815238Y-146382500D01*
X221910476Y-146430119D01*
X221958095Y-146477738D01*
X222005714Y-146572976D01*
X222005714Y-146811071D01*
X221958095Y-146906309D01*
X221910476Y-146953928D01*
X221815238Y-147001547D01*
X221577142Y-147001547D01*
X221481904Y-146953928D01*
X221434285Y-146906309D01*
%TO.C,C4*%
X225233333Y-146976309D02*
X225185714Y-147023928D01*
X225042857Y-147071547D01*
X224947619Y-147071547D01*
X224804761Y-147023928D01*
X224709523Y-146928690D01*
X224661904Y-146833452D01*
X224614285Y-146642976D01*
X224614285Y-146500119D01*
X224661904Y-146309643D01*
X224709523Y-146214405D01*
X224804761Y-146119167D01*
X224947619Y-146071547D01*
X225042857Y-146071547D01*
X225185714Y-146119167D01*
X225233333Y-146166786D01*
X226090476Y-146404881D02*
X226090476Y-147071547D01*
X225852380Y-146023928D02*
X225614285Y-146738214D01*
X226233333Y-146738214D01*
%TO.C,R3*%
X234312380Y-122610833D02*
X233836190Y-122944167D01*
X234312380Y-123182262D02*
X233312380Y-123182262D01*
X233312380Y-122801309D01*
X233360000Y-122706071D01*
X233407619Y-122658452D01*
X233502857Y-122610833D01*
X233645714Y-122610833D01*
X233740952Y-122658452D01*
X233788571Y-122706071D01*
X233836190Y-122801309D01*
X233836190Y-123182262D01*
X233312380Y-122277500D02*
X233312380Y-121658452D01*
X233693333Y-121991786D01*
X233693333Y-121848928D01*
X233740952Y-121753690D01*
X233788571Y-121706071D01*
X233883809Y-121658452D01*
X234121904Y-121658452D01*
X234217142Y-121706071D01*
X234264761Y-121753690D01*
X234312380Y-121848928D01*
X234312380Y-122134643D01*
X234264761Y-122229881D01*
X234217142Y-122277500D01*
%TO.C,H10*%
X222488015Y-114243769D02*
X222488015Y-113243769D01*
X222488015Y-113719960D02*
X223059444Y-113719960D01*
X223059444Y-114243769D02*
X223059444Y-113243769D01*
X224059444Y-114243769D02*
X223488015Y-114243769D01*
X223773730Y-114243769D02*
X223773730Y-113243769D01*
X223678491Y-113386627D01*
X223583253Y-113481865D01*
X223488015Y-113529484D01*
X224678491Y-113243769D02*
X224773730Y-113243769D01*
X224868968Y-113291389D01*
X224916587Y-113339008D01*
X224964206Y-113434246D01*
X225011825Y-113624722D01*
X225011825Y-113862817D01*
X224964206Y-114053293D01*
X224916587Y-114148531D01*
X224868968Y-114196150D01*
X224773730Y-114243769D01*
X224678491Y-114243769D01*
X224583253Y-114196150D01*
X224535634Y-114148531D01*
X224488015Y-114053293D01*
X224440396Y-113862817D01*
X224440396Y-113624722D01*
X224488015Y-113434246D01*
X224535634Y-113339008D01*
X224583253Y-113291389D01*
X224678491Y-113243769D01*
%TO.C,R5*%
X232173333Y-128176547D02*
X231840000Y-127700357D01*
X231601904Y-128176547D02*
X231601904Y-127176547D01*
X231982857Y-127176547D01*
X232078095Y-127224167D01*
X232125714Y-127271786D01*
X232173333Y-127367024D01*
X232173333Y-127509881D01*
X232125714Y-127605119D01*
X232078095Y-127652738D01*
X231982857Y-127700357D01*
X231601904Y-127700357D01*
X233078095Y-127176547D02*
X232601904Y-127176547D01*
X232554285Y-127652738D01*
X232601904Y-127605119D01*
X232697142Y-127557500D01*
X232935238Y-127557500D01*
X233030476Y-127605119D01*
X233078095Y-127652738D01*
X233125714Y-127747976D01*
X233125714Y-127986071D01*
X233078095Y-128081309D01*
X233030476Y-128128928D01*
X232935238Y-128176547D01*
X232697142Y-128176547D01*
X232601904Y-128128928D01*
X232554285Y-128081309D01*
%TO.C,H8*%
X232015873Y-114253769D02*
X232015873Y-113253769D01*
X232015873Y-113729960D02*
X232587301Y-113729960D01*
X232587301Y-114253769D02*
X232587301Y-113253769D01*
X233206349Y-113682341D02*
X233111111Y-113634722D01*
X233063492Y-113587103D01*
X233015873Y-113491865D01*
X233015873Y-113444246D01*
X233063492Y-113349008D01*
X233111111Y-113301389D01*
X233206349Y-113253769D01*
X233396825Y-113253769D01*
X233492063Y-113301389D01*
X233539682Y-113349008D01*
X233587301Y-113444246D01*
X233587301Y-113491865D01*
X233539682Y-113587103D01*
X233492063Y-113634722D01*
X233396825Y-113682341D01*
X233206349Y-113682341D01*
X233111111Y-113729960D01*
X233063492Y-113777579D01*
X233015873Y-113872817D01*
X233015873Y-114063293D01*
X233063492Y-114158531D01*
X233111111Y-114206150D01*
X233206349Y-114253769D01*
X233396825Y-114253769D01*
X233492063Y-114206150D01*
X233539682Y-114158531D01*
X233587301Y-114063293D01*
X233587301Y-113872817D01*
X233539682Y-113777579D01*
X233492063Y-113729960D01*
X233396825Y-113682341D01*
%TO.C,U3*%
X228956823Y-128885633D02*
X228956823Y-129696508D01*
X229004522Y-129791905D01*
X229052220Y-129839604D01*
X229147617Y-129887302D01*
X229338411Y-129887302D01*
X229433808Y-129839604D01*
X229481507Y-129791905D01*
X229529205Y-129696508D01*
X229529205Y-128885633D01*
X229910794Y-128885633D02*
X230530874Y-128885633D01*
X230196985Y-129267222D01*
X230340080Y-129267222D01*
X230435477Y-129314920D01*
X230483176Y-129362619D01*
X230530874Y-129458016D01*
X230530874Y-129696508D01*
X230483176Y-129791905D01*
X230435477Y-129839604D01*
X230340080Y-129887302D01*
X230053889Y-129887302D01*
X229958492Y-129839604D01*
X229910794Y-129791905D01*
%TO.C,H3*%
X219628095Y-136596547D02*
X219628095Y-135596547D01*
X219628095Y-136072738D02*
X220199523Y-136072738D01*
X220199523Y-136596547D02*
X220199523Y-135596547D01*
X220580476Y-135596547D02*
X221199523Y-135596547D01*
X220866190Y-135977500D01*
X221009047Y-135977500D01*
X221104285Y-136025119D01*
X221151904Y-136072738D01*
X221199523Y-136167976D01*
X221199523Y-136406071D01*
X221151904Y-136501309D01*
X221104285Y-136548928D01*
X221009047Y-136596547D01*
X220723333Y-136596547D01*
X220628095Y-136548928D01*
X220580476Y-136501309D01*
%TO.C,R1*%
X221038333Y-151181547D02*
X220705000Y-150705357D01*
X220466904Y-151181547D02*
X220466904Y-150181547D01*
X220847857Y-150181547D01*
X220943095Y-150229167D01*
X220990714Y-150276786D01*
X221038333Y-150372024D01*
X221038333Y-150514881D01*
X220990714Y-150610119D01*
X220943095Y-150657738D01*
X220847857Y-150705357D01*
X220466904Y-150705357D01*
X221990714Y-151181547D02*
X221419285Y-151181547D01*
X221705000Y-151181547D02*
X221705000Y-150181547D01*
X221609761Y-150324405D01*
X221514523Y-150419643D01*
X221419285Y-150467262D01*
%TO.C,H11*%
X223611904Y-120703769D02*
X223611904Y-119703769D01*
X223611904Y-120179960D02*
X224183333Y-120179960D01*
X224183333Y-120703769D02*
X224183333Y-119703769D01*
X225183333Y-120703769D02*
X224611904Y-120703769D01*
X224897619Y-120703769D02*
X224897619Y-119703769D01*
X224802380Y-119846627D01*
X224707142Y-119941865D01*
X224611904Y-119989484D01*
X226135714Y-120703769D02*
X225564285Y-120703769D01*
X225850000Y-120703769D02*
X225850000Y-119703769D01*
X225754761Y-119846627D01*
X225659523Y-119941865D01*
X225564285Y-119989484D01*
%TO.C,U4*%
X225250476Y-143326071D02*
X225250476Y-143973690D01*
X225288571Y-144049881D01*
X225326666Y-144087976D01*
X225402857Y-144126071D01*
X225555238Y-144126071D01*
X225631428Y-144087976D01*
X225669523Y-144049881D01*
X225707619Y-143973690D01*
X225707619Y-143326071D01*
X226431428Y-143592738D02*
X226431428Y-144126071D01*
X226240952Y-143287976D02*
X226050476Y-143859405D01*
X226545714Y-143859405D01*
%TO.C,H6*%
X229096984Y-114263769D02*
X229096984Y-113263769D01*
X229096984Y-113739960D02*
X229668412Y-113739960D01*
X229668412Y-114263769D02*
X229668412Y-113263769D01*
X230573174Y-113263769D02*
X230382698Y-113263769D01*
X230287460Y-113311389D01*
X230239841Y-113359008D01*
X230144603Y-113501865D01*
X230096984Y-113692341D01*
X230096984Y-114073293D01*
X230144603Y-114168531D01*
X230192222Y-114216150D01*
X230287460Y-114263769D01*
X230477936Y-114263769D01*
X230573174Y-114216150D01*
X230620793Y-114168531D01*
X230668412Y-114073293D01*
X230668412Y-113835198D01*
X230620793Y-113739960D01*
X230573174Y-113692341D01*
X230477936Y-113644722D01*
X230287460Y-113644722D01*
X230192222Y-113692341D01*
X230144603Y-113739960D01*
X230096984Y-113835198D01*
%TO.C,C7*%
X231807142Y-122650833D02*
X231854761Y-122698452D01*
X231902380Y-122841309D01*
X231902380Y-122936547D01*
X231854761Y-123079405D01*
X231759523Y-123174643D01*
X231664285Y-123222262D01*
X231473809Y-123269881D01*
X231330952Y-123269881D01*
X231140476Y-123222262D01*
X231045238Y-123174643D01*
X230950000Y-123079405D01*
X230902380Y-122936547D01*
X230902380Y-122841309D01*
X230950000Y-122698452D01*
X230997619Y-122650833D01*
X230902380Y-122317500D02*
X230902380Y-121650833D01*
X231902380Y-122079405D01*
%TO.C,U2*%
X227296823Y-135685633D02*
X227296823Y-136496508D01*
X227344522Y-136591905D01*
X227392220Y-136639604D01*
X227487617Y-136687302D01*
X227678411Y-136687302D01*
X227773808Y-136639604D01*
X227821507Y-136591905D01*
X227869205Y-136496508D01*
X227869205Y-135685633D01*
X228298492Y-135781031D02*
X228346191Y-135733332D01*
X228441588Y-135685633D01*
X228680080Y-135685633D01*
X228775477Y-135733332D01*
X228823176Y-135781031D01*
X228870874Y-135876428D01*
X228870874Y-135971825D01*
X228823176Y-136114920D01*
X228250794Y-136687302D01*
X228870874Y-136687302D01*
%TO.C,C1*%
X222583333Y-144481309D02*
X222535714Y-144528928D01*
X222392857Y-144576547D01*
X222297619Y-144576547D01*
X222154761Y-144528928D01*
X222059523Y-144433690D01*
X222011904Y-144338452D01*
X221964285Y-144147976D01*
X221964285Y-144005119D01*
X222011904Y-143814643D01*
X222059523Y-143719405D01*
X222154761Y-143624167D01*
X222297619Y-143576547D01*
X222392857Y-143576547D01*
X222535714Y-143624167D01*
X222583333Y-143671786D01*
X223535714Y-144576547D02*
X222964285Y-144576547D01*
X223250000Y-144576547D02*
X223250000Y-143576547D01*
X223154761Y-143719405D01*
X223059523Y-143814643D01*
X222964285Y-143862262D01*
%TO.C,U1*%
X231088095Y-152116547D02*
X231088095Y-152926071D01*
X231135714Y-153021309D01*
X231183333Y-153068928D01*
X231278571Y-153116547D01*
X231469047Y-153116547D01*
X231564285Y-153068928D01*
X231611904Y-153021309D01*
X231659523Y-152926071D01*
X231659523Y-152116547D01*
X232659523Y-153116547D02*
X232088095Y-153116547D01*
X232373809Y-153116547D02*
X232373809Y-152116547D01*
X232278571Y-152259405D01*
X232183333Y-152354643D01*
X232088095Y-152402262D01*
%TO.C,D1*%
X232141904Y-147306547D02*
X232141904Y-146306547D01*
X232380000Y-146306547D01*
X232522857Y-146354167D01*
X232618095Y-146449405D01*
X232665714Y-146544643D01*
X232713333Y-146735119D01*
X232713333Y-146877976D01*
X232665714Y-147068452D01*
X232618095Y-147163690D01*
X232522857Y-147258928D01*
X232380000Y-147306547D01*
X232141904Y-147306547D01*
X233665714Y-147306547D02*
X233094285Y-147306547D01*
X233380000Y-147306547D02*
X233380000Y-146306547D01*
X233284761Y-146449405D01*
X233189523Y-146544643D01*
X233094285Y-146592262D01*
%TO.C,H5*%
X226578095Y-120773769D02*
X226578095Y-119773769D01*
X226578095Y-120249960D02*
X227149523Y-120249960D01*
X227149523Y-120773769D02*
X227149523Y-119773769D01*
X228101904Y-119773769D02*
X227625714Y-119773769D01*
X227578095Y-120249960D01*
X227625714Y-120202341D01*
X227720952Y-120154722D01*
X227959047Y-120154722D01*
X228054285Y-120202341D01*
X228101904Y-120249960D01*
X228149523Y-120345198D01*
X228149523Y-120583293D01*
X228101904Y-120678531D01*
X228054285Y-120726150D01*
X227959047Y-120773769D01*
X227720952Y-120773769D01*
X227625714Y-120726150D01*
X227578095Y-120678531D01*
%TO.C,C6*%
X227913333Y-143631309D02*
X227865714Y-143678928D01*
X227722857Y-143726547D01*
X227627619Y-143726547D01*
X227484761Y-143678928D01*
X227389523Y-143583690D01*
X227341904Y-143488452D01*
X227294285Y-143297976D01*
X227294285Y-143155119D01*
X227341904Y-142964643D01*
X227389523Y-142869405D01*
X227484761Y-142774167D01*
X227627619Y-142726547D01*
X227722857Y-142726547D01*
X227865714Y-142774167D01*
X227913333Y-142821786D01*
X228770476Y-142726547D02*
X228580000Y-142726547D01*
X228484761Y-142774167D01*
X228437142Y-142821786D01*
X228341904Y-142964643D01*
X228294285Y-143155119D01*
X228294285Y-143536071D01*
X228341904Y-143631309D01*
X228389523Y-143678928D01*
X228484761Y-143726547D01*
X228675238Y-143726547D01*
X228770476Y-143678928D01*
X228818095Y-143631309D01*
X228865714Y-143536071D01*
X228865714Y-143297976D01*
X228818095Y-143202738D01*
X228770476Y-143155119D01*
X228675238Y-143107500D01*
X228484761Y-143107500D01*
X228389523Y-143155119D01*
X228341904Y-143202738D01*
X228294285Y-143297976D01*
%TO.C,H4*%
X220118095Y-132426547D02*
X220118095Y-131426547D01*
X220118095Y-131902738D02*
X220689523Y-131902738D01*
X220689523Y-132426547D02*
X220689523Y-131426547D01*
X221594285Y-131759881D02*
X221594285Y-132426547D01*
X221356190Y-131378928D02*
X221118095Y-132093214D01*
X221737142Y-132093214D01*
%TO.C,H12*%
X225471904Y-114253769D02*
X225471904Y-113253769D01*
X225471904Y-113729960D02*
X226043333Y-113729960D01*
X226043333Y-114253769D02*
X226043333Y-113253769D01*
X227043333Y-114253769D02*
X226471904Y-114253769D01*
X226757619Y-114253769D02*
X226757619Y-113253769D01*
X226662380Y-113396627D01*
X226567142Y-113491865D01*
X226471904Y-113539484D01*
X227424285Y-113349008D02*
X227471904Y-113301389D01*
X227567142Y-113253769D01*
X227805238Y-113253769D01*
X227900476Y-113301389D01*
X227948095Y-113349008D01*
X227995714Y-113444246D01*
X227995714Y-113539484D01*
X227948095Y-113682341D01*
X227376666Y-114253769D01*
X227995714Y-114253769D01*
D11*
%TO.C,C2*%
X224372836Y-136519167D02*
X224157164Y-136519167D01*
X224372836Y-135799167D02*
X224157164Y-135799167D01*
D12*
%TO.C,U5*%
X231260000Y-128234167D02*
G75*
G03*
X231260000Y-128234167I-100000J0D01*
G01*
D13*
X229070000Y-123404167D02*
X225170000Y-123404167D01*
X229070000Y-128454167D02*
X225170000Y-128454167D01*
D11*
%TO.C,R4*%
X232935000Y-124682808D02*
X232935000Y-124375526D01*
X232175000Y-124682808D02*
X232175000Y-124375526D01*
%TO.C,H1*%
X219930000Y-143064167D02*
X221780000Y-143064167D01*
X219930000Y-141164167D02*
X219930000Y-143064167D01*
X221780000Y-141164167D02*
X219930000Y-141164167D01*
X221780000Y-143064167D02*
X221780000Y-141214167D01*
X221780000Y-141214167D02*
X221780000Y-141164167D01*
%TO.C,C3*%
X222365000Y-152927003D02*
X222365000Y-152711331D01*
X223085000Y-152927003D02*
X223085000Y-152711331D01*
%TO.C,H2*%
X219930000Y-139084167D02*
X221780000Y-139084167D01*
X221780000Y-137184167D02*
X219930000Y-137184167D01*
X221780000Y-139084167D02*
X221780000Y-137234167D01*
X221780000Y-137234167D02*
X221780000Y-137184167D01*
X219930000Y-137184167D02*
X219930000Y-139084167D01*
%TO.C,H7*%
X232281112Y-117401389D02*
X230431112Y-117401389D01*
X232281112Y-119301389D02*
X232281112Y-117451389D01*
X230431112Y-117401389D02*
X230431112Y-119301389D01*
X230431112Y-119301389D02*
X232281112Y-119301389D01*
X232281112Y-117451389D02*
X232281112Y-117401389D01*
%TO.C,R2*%
X222335000Y-149012808D02*
X222335000Y-148705526D01*
X223095000Y-149012808D02*
X223095000Y-148705526D01*
%TO.C,C8*%
X224157164Y-129689167D02*
X224372836Y-129689167D01*
X224157164Y-128969167D02*
X224372836Y-128969167D01*
%TO.C,C10*%
X229619420Y-121041389D02*
X229900580Y-121041389D01*
X229619420Y-120021389D02*
X229900580Y-120021389D01*
%TO.C,C9*%
X229822164Y-136549167D02*
X230037836Y-136549167D01*
X229822164Y-135829167D02*
X230037836Y-135829167D01*
%TO.C,H9*%
X223242778Y-117401389D02*
X221392778Y-117401389D01*
X221392778Y-119301389D02*
X223242778Y-119301389D01*
X223242778Y-117451389D02*
X223242778Y-117401389D01*
X223242778Y-119301389D02*
X223242778Y-117451389D01*
X221392778Y-117401389D02*
X221392778Y-119301389D01*
%TO.C,C5*%
X223080000Y-146597003D02*
X223080000Y-146381331D01*
X222360000Y-146597003D02*
X222360000Y-146381331D01*
%TO.C,C4*%
X224290000Y-146607003D02*
X224290000Y-146391331D01*
X223570000Y-146607003D02*
X223570000Y-146391331D01*
%TO.C,R3*%
X233305000Y-124385526D02*
X233305000Y-124692808D01*
X234065000Y-124385526D02*
X234065000Y-124692808D01*
%TO.C,H10*%
X224596111Y-114791389D02*
X222746111Y-114791389D01*
X222746111Y-116691389D02*
X224596111Y-116691389D01*
X222746111Y-114791389D02*
X222746111Y-116691389D01*
X224596111Y-116691389D02*
X224596111Y-114841389D01*
X224596111Y-114841389D02*
X224596111Y-114791389D01*
%TO.C,R5*%
X232033641Y-126939167D02*
X231726359Y-126939167D01*
X232033641Y-126179167D02*
X231726359Y-126179167D01*
%TO.C,H8*%
X233667778Y-114841389D02*
X233667778Y-114791389D01*
X231817778Y-114791389D02*
X231817778Y-116691389D01*
X231817778Y-116691389D02*
X233667778Y-116691389D01*
X233667778Y-114791389D02*
X231817778Y-114791389D01*
X233667778Y-116691389D02*
X233667778Y-114841389D01*
D14*
%TO.C,U3*%
X228605000Y-134587917D02*
G75*
G03*
X228605000Y-134587917I-200000J0D01*
G01*
D12*
X229905000Y-135387917D02*
G75*
G03*
X229905000Y-135387917I-100000J0D01*
G01*
D13*
X225155000Y-130337917D02*
X229055000Y-130337917D01*
X229055000Y-135237917D02*
X225155000Y-135237917D01*
D11*
%TO.C,H3*%
X221780000Y-133204167D02*
X219930000Y-133204167D01*
X219930000Y-135104167D02*
X221780000Y-135104167D01*
X221780000Y-135104167D02*
X221780000Y-133254167D01*
X221780000Y-133254167D02*
X221780000Y-133204167D01*
X219930000Y-133204167D02*
X219930000Y-135104167D01*
%TO.C,R1*%
X223095000Y-150982808D02*
X223095000Y-150675526D01*
X222335000Y-150982808D02*
X222335000Y-150675526D01*
%TO.C,H11*%
X226255556Y-117451389D02*
X226255556Y-117401389D01*
X226255556Y-117401389D02*
X224405556Y-117401389D01*
X224405556Y-119301389D02*
X226255556Y-119301389D01*
X224405556Y-117401389D02*
X224405556Y-119301389D01*
X226255556Y-119301389D02*
X226255556Y-117451389D01*
D12*
%TO.C,U4*%
X226460000Y-144529167D02*
G75*
G03*
X226460000Y-144529167I-100000J0D01*
G01*
D13*
X229100000Y-147029167D02*
X228440000Y-147029167D01*
X229570000Y-145244167D02*
X229570000Y-145914167D01*
X228440000Y-144129167D02*
X229100000Y-144129167D01*
D11*
%TO.C,H6*%
X228793889Y-116641389D02*
X228793889Y-116691389D01*
X230643889Y-114791389D02*
X228793889Y-114791389D01*
X228793889Y-116691389D02*
X230643889Y-116691389D01*
X230643889Y-116691389D02*
X230643889Y-114791389D01*
X228793889Y-114791389D02*
X228793889Y-116641389D01*
%TO.C,C7*%
X231795000Y-124627003D02*
X231795000Y-124411331D01*
X231075000Y-124627003D02*
X231075000Y-124411331D01*
D14*
%TO.C,U2*%
X228582500Y-141384167D02*
G75*
G03*
X228582500Y-141384167I-200000J0D01*
G01*
D12*
X229882500Y-142184167D02*
G75*
G03*
X229882500Y-142184167I-100000J0D01*
G01*
D13*
X229032500Y-142034167D02*
X225132500Y-142034167D01*
X225132500Y-137134167D02*
X229032500Y-137134167D01*
D11*
%TO.C,C1*%
X224280000Y-143527003D02*
X224280000Y-143311331D01*
X223560000Y-143527003D02*
X223560000Y-143311331D01*
%TO.C,U1*%
X227185000Y-153009167D02*
X225235000Y-153009167D01*
X227185000Y-147889167D02*
X225235000Y-147889167D01*
X227185000Y-153009167D02*
X230635000Y-153009167D01*
X227185000Y-147889167D02*
X229135000Y-147889167D01*
D15*
%TO.C,D1*%
X233030000Y-135615667D02*
G75*
G03*
X233030000Y-135615667I-120000J0D01*
G01*
D13*
X232910000Y-143235667D02*
X232910000Y-144315667D01*
X231890000Y-138795667D02*
X232910000Y-138795667D01*
X231890000Y-143235667D02*
X231890000Y-138795667D01*
X233930000Y-138795667D02*
X233930000Y-143235667D01*
X232910000Y-138795667D02*
X233930000Y-138795667D01*
X232910000Y-143235667D02*
X231890000Y-143235667D01*
X232910000Y-138795667D02*
X232910000Y-137715667D01*
X233930000Y-143235667D02*
X232910000Y-143235667D01*
D11*
%TO.C,H5*%
X227418334Y-119301389D02*
X229268334Y-119301389D01*
X227418334Y-117401389D02*
X227418334Y-119251389D01*
X229268334Y-119301389D02*
X229268334Y-117401389D01*
X227418334Y-119251389D02*
X227418334Y-119301389D01*
X229268334Y-117401389D02*
X227418334Y-117401389D01*
%TO.C,C6*%
X230087836Y-142799167D02*
X229872164Y-142799167D01*
X230087836Y-143519167D02*
X229872164Y-143519167D01*
%TO.C,H4*%
X221780000Y-129224167D02*
X219930000Y-129224167D01*
X221780000Y-131124167D02*
X221780000Y-129274167D01*
X219930000Y-129224167D02*
X219930000Y-131124167D01*
X221780000Y-129274167D02*
X221780000Y-129224167D01*
X219930000Y-131124167D02*
X221780000Y-131124167D01*
%TO.C,H12*%
X227620000Y-114791389D02*
X225770000Y-114791389D01*
X227620000Y-114841389D02*
X227620000Y-114791389D01*
X225770000Y-114791389D02*
X225770000Y-116691389D01*
X227620000Y-116691389D02*
X227620000Y-114841389D01*
X225770000Y-116691389D02*
X227620000Y-116691389D01*
%TD*%
M02*
